%TF.GenerationSoftware,KiCad,Pcbnew,10.0.2*%
%TF.CreationDate,2026-05-12T16:31:41-07:00*%
%TF.ProjectId,rpi-avionics,7270692d-6176-4696-9f6e-6963732e6b69,rev?*%
%TF.SameCoordinates,Original*%
%TF.FileFunction,Drillmap*%
%TF.FilePolarity,Positive*%
%FSLAX45Y45*%
G04 Gerber Fmt 4.5, Leading zero omitted, Abs format (unit mm)*
G04 Created by KiCad (PCBNEW 10.0.2) date 2026-05-12 16:31:41*
%MOMM*%
%LPD*%
G01*
G04 APERTURE LIST*
%ADD10C,0.050000*%
%ADD11C,0.200000*%
%ADD12C,0.100000*%
%ADD13C,0.320000*%
G04 APERTURE END LIST*
D10*
X1500000Y-2250000D02*
X14500000Y-2250000D01*
X14500000Y-10750000D01*
X1500000Y-10750000D01*
X1500000Y-2250000D01*
D11*
D12*
X4219200Y-5065000D02*
X4249200Y-5095000D01*
X4249200Y-5065000D02*
X4219200Y-5095000D01*
X4239500Y-7732000D02*
X4269500Y-7762000D01*
X4269500Y-7732000D02*
X4239500Y-7762000D01*
X4430000Y-6144500D02*
X4460000Y-6174500D01*
X4460000Y-6144500D02*
X4430000Y-6174500D01*
X4546930Y-8333210D02*
X4576930Y-8363210D01*
X4576930Y-8333210D02*
X4546930Y-8363210D01*
X4611590Y-8544750D02*
X4641590Y-8574750D01*
X4641590Y-8544750D02*
X4611590Y-8574750D01*
X5217400Y-9281400D02*
X5247400Y-9311400D01*
X5247400Y-9281400D02*
X5217400Y-9311400D01*
X5369800Y-9078200D02*
X5399800Y-9108200D01*
X5399800Y-9078200D02*
X5369800Y-9108200D01*
X6061610Y-6699900D02*
X6091610Y-6729900D01*
X6091610Y-6699900D02*
X6061610Y-6729900D01*
X6653430Y-9089680D02*
X6683430Y-9119680D01*
X6683430Y-9089680D02*
X6653430Y-9119680D01*
X6995400Y-9611600D02*
X7025400Y-9641600D01*
X7025400Y-9611600D02*
X6995400Y-9641600D01*
X7154300Y-3629930D02*
X7184300Y-3659930D01*
X7184300Y-3629930D02*
X7154300Y-3659930D01*
X7986000Y-10297400D02*
X8016000Y-10327400D01*
X8016000Y-10297400D02*
X7986000Y-10327400D01*
X8163800Y-8240000D02*
X8193800Y-8270000D01*
X8193800Y-8240000D02*
X8163800Y-8270000D01*
X8798800Y-8189200D02*
X8828800Y-8219200D01*
X8828800Y-8189200D02*
X8798800Y-8219200D01*
X9827540Y-4351750D02*
X9857540Y-4381750D01*
X9857540Y-4351750D02*
X9827540Y-4381750D01*
X9950380Y-4385250D02*
X9980380Y-4415250D01*
X9980380Y-4385250D02*
X9950380Y-4415250D01*
X9978940Y-9306800D02*
X10008940Y-9336800D01*
X10008940Y-9306800D02*
X9978940Y-9336800D01*
X11213770Y-9129000D02*
X11243770Y-9159000D01*
X11243770Y-9129000D02*
X11213770Y-9159000D01*
X11274740Y-6651940D02*
X11304740Y-6681940D01*
X11304740Y-6651940D02*
X11274740Y-6681940D01*
X11511470Y-4649070D02*
X11541470Y-4679070D01*
X11541470Y-4649070D02*
X11511470Y-4679070D01*
X12050000Y-5573000D02*
X12080000Y-5603000D01*
X12080000Y-5573000D02*
X12050000Y-5603000D01*
X12100800Y-4811000D02*
X12130800Y-4841000D01*
X12130800Y-4811000D02*
X12100800Y-4841000D01*
X12852040Y-9716700D02*
X12882040Y-9746700D01*
X12882040Y-9716700D02*
X12852040Y-9746700D01*
X3678000Y-4615575D02*
G75*
G02*
X3628000Y-4615575I-25000J0D01*
G01*
X3628000Y-4615575D02*
G75*
G02*
X3678000Y-4615575I25000J0D01*
G01*
X3628000Y-4565575D02*
X3628000Y-4665575D01*
X3678000Y-4665575D02*
G75*
G02*
X3628000Y-4665575I-25000J0D01*
G01*
X3678000Y-4665575D02*
X3678000Y-4565575D01*
X3678000Y-4565575D02*
G75*
G03*
X3628000Y-4565575I-25000J0D01*
G01*
X3678000Y-5588000D02*
G75*
G02*
X3628000Y-5588000I-25000J0D01*
G01*
X3628000Y-5588000D02*
G75*
G02*
X3678000Y-5588000I25000J0D01*
G01*
X3628000Y-5538000D02*
X3628000Y-5638000D01*
X3678000Y-5638000D02*
G75*
G02*
X3628000Y-5638000I-25000J0D01*
G01*
X3678000Y-5638000D02*
X3678000Y-5538000D01*
X3678000Y-5538000D02*
G75*
G03*
X3628000Y-5538000I-25000J0D01*
G01*
X3678000Y-7239000D02*
G75*
G02*
X3628000Y-7239000I-25000J0D01*
G01*
X3628000Y-7239000D02*
G75*
G02*
X3678000Y-7239000I25000J0D01*
G01*
X3628000Y-7189000D02*
X3628000Y-7289000D01*
X3678000Y-7289000D02*
G75*
G02*
X3628000Y-7289000I-25000J0D01*
G01*
X3678000Y-7289000D02*
X3678000Y-7189000D01*
X3678000Y-7189000D02*
G75*
G03*
X3628000Y-7189000I-25000J0D01*
G01*
X3928000Y-4615575D02*
G75*
G02*
X3878000Y-4615575I-25000J0D01*
G01*
X3878000Y-4615575D02*
G75*
G02*
X3928000Y-4615575I25000J0D01*
G01*
X3878000Y-4565575D02*
X3878000Y-4665575D01*
X3928000Y-4665575D02*
G75*
G02*
X3878000Y-4665575I-25000J0D01*
G01*
X3928000Y-4665575D02*
X3928000Y-4565575D01*
X3928000Y-4565575D02*
G75*
G03*
X3878000Y-4565575I-25000J0D01*
G01*
X3928000Y-5588000D02*
G75*
G02*
X3878000Y-5588000I-25000J0D01*
G01*
X3878000Y-5588000D02*
G75*
G02*
X3928000Y-5588000I25000J0D01*
G01*
X3878000Y-5538000D02*
X3878000Y-5638000D01*
X3928000Y-5638000D02*
G75*
G02*
X3878000Y-5638000I-25000J0D01*
G01*
X3928000Y-5638000D02*
X3928000Y-5538000D01*
X3928000Y-5538000D02*
G75*
G03*
X3878000Y-5538000I-25000J0D01*
G01*
X3928000Y-7239000D02*
G75*
G02*
X3878000Y-7239000I-25000J0D01*
G01*
X3878000Y-7239000D02*
G75*
G02*
X3928000Y-7239000I25000J0D01*
G01*
X3878000Y-7189000D02*
X3878000Y-7289000D01*
X3928000Y-7289000D02*
G75*
G02*
X3878000Y-7289000I-25000J0D01*
G01*
X3928000Y-7289000D02*
X3928000Y-7189000D01*
X3928000Y-7189000D02*
G75*
G03*
X3878000Y-7189000I-25000J0D01*
G01*
X4178000Y-4615575D02*
G75*
G02*
X4128000Y-4615575I-25000J0D01*
G01*
X4128000Y-4615575D02*
G75*
G02*
X4178000Y-4615575I25000J0D01*
G01*
X4128000Y-4565575D02*
X4128000Y-4665575D01*
X4178000Y-4665575D02*
G75*
G02*
X4128000Y-4665575I-25000J0D01*
G01*
X4178000Y-4665575D02*
X4178000Y-4565575D01*
X4178000Y-4565575D02*
G75*
G03*
X4128000Y-4565575I-25000J0D01*
G01*
X4178000Y-5588000D02*
G75*
G02*
X4128000Y-5588000I-25000J0D01*
G01*
X4128000Y-5588000D02*
G75*
G02*
X4178000Y-5588000I25000J0D01*
G01*
X4128000Y-5538000D02*
X4128000Y-5638000D01*
X4178000Y-5638000D02*
G75*
G02*
X4128000Y-5638000I-25000J0D01*
G01*
X4178000Y-5638000D02*
X4178000Y-5538000D01*
X4178000Y-5538000D02*
G75*
G03*
X4128000Y-5538000I-25000J0D01*
G01*
X4178000Y-7239000D02*
G75*
G02*
X4128000Y-7239000I-25000J0D01*
G01*
X4128000Y-7239000D02*
G75*
G02*
X4178000Y-7239000I25000J0D01*
G01*
X4128000Y-7189000D02*
X4128000Y-7289000D01*
X4178000Y-7289000D02*
G75*
G02*
X4128000Y-7289000I-25000J0D01*
G01*
X4178000Y-7289000D02*
X4178000Y-7189000D01*
X4178000Y-7189000D02*
G75*
G03*
X4128000Y-7189000I-25000J0D01*
G01*
X5511800Y-9393400D02*
X5511800Y-9453400D01*
X5481800Y-9423400D02*
X5541800Y-9423400D01*
X7898749Y-5676749D02*
X7898749Y-5627251D01*
X7849251Y-5627251D01*
X7849251Y-5676749D01*
X7898749Y-5676749D01*
X7898749Y-5866749D02*
X7898749Y-5817251D01*
X7849251Y-5817251D01*
X7849251Y-5866749D01*
X7898749Y-5866749D01*
X8406749Y-5676749D02*
X8406749Y-5627251D01*
X8357251Y-5627251D01*
X8357251Y-5676749D01*
X8406749Y-5676749D01*
X8406749Y-5866749D02*
X8406749Y-5817251D01*
X8357251Y-5817251D01*
X8357251Y-5866749D01*
X8406749Y-5866749D01*
X8914749Y-5676749D02*
X8914749Y-5627251D01*
X8865251Y-5627251D01*
X8865251Y-5676749D01*
X8914749Y-5676749D01*
X8914749Y-5866749D02*
X8914749Y-5817251D01*
X8865251Y-5817251D01*
X8865251Y-5866749D01*
X8914749Y-5866749D01*
X9422749Y-5676749D02*
X9422749Y-5627251D01*
X9373251Y-5627251D01*
X9373251Y-5676749D01*
X9422749Y-5676749D01*
X9422749Y-5866749D02*
X9422749Y-5817251D01*
X9373251Y-5817251D01*
X9373251Y-5866749D01*
X9422749Y-5866749D01*
X9676749Y-9168749D02*
X9676749Y-9119251D01*
X9627251Y-9119251D01*
X9627251Y-9168749D01*
X9676749Y-9168749D01*
X9676749Y-9803749D02*
X9676749Y-9754251D01*
X9627251Y-9754251D01*
X9627251Y-9803749D01*
X9676749Y-9803749D01*
X9866749Y-9168749D02*
X9866749Y-9119251D01*
X9817251Y-9119251D01*
X9817251Y-9168749D01*
X9866749Y-9168749D01*
X9866749Y-9803749D02*
X9866749Y-9754251D01*
X9817251Y-9754251D01*
X9817251Y-9803749D01*
X9866749Y-9803749D01*
X9930749Y-5676749D02*
X9930749Y-5627251D01*
X9881251Y-5627251D01*
X9881251Y-5676749D01*
X9930749Y-5676749D01*
X9930749Y-5866749D02*
X9930749Y-5817251D01*
X9881251Y-5817251D01*
X9881251Y-5866749D01*
X9930749Y-5866749D01*
X11327749Y-5612749D02*
X11327749Y-5563251D01*
X11278251Y-5563251D01*
X11278251Y-5612749D01*
X11327749Y-5612749D01*
X11327749Y-6120749D02*
X11327749Y-6071251D01*
X11278251Y-6071251D01*
X11278251Y-6120749D01*
X11327749Y-6120749D01*
X11327749Y-6878249D02*
X11327749Y-6828751D01*
X11278251Y-6828751D01*
X11278251Y-6878249D01*
X11327749Y-6878249D01*
X11327749Y-7386249D02*
X11327749Y-7336751D01*
X11278251Y-7336751D01*
X11278251Y-7386249D01*
X11327749Y-7386249D01*
X11339249Y-4342749D02*
X11339249Y-4293251D01*
X11289751Y-4293251D01*
X11289751Y-4342749D01*
X11339249Y-4342749D01*
X11339249Y-4850749D02*
X11339249Y-4801251D01*
X11289751Y-4801251D01*
X11289751Y-4850749D01*
X11339249Y-4850749D01*
X11339249Y-8152749D02*
X11339249Y-8103251D01*
X11289751Y-8103251D01*
X11289751Y-8152749D01*
X11339249Y-8152749D01*
X11339249Y-8660749D02*
X11339249Y-8611251D01*
X11289751Y-8611251D01*
X11289751Y-8660749D01*
X11339249Y-8660749D01*
X11517749Y-5612749D02*
X11517749Y-5563251D01*
X11468251Y-5563251D01*
X11468251Y-5612749D01*
X11517749Y-5612749D01*
X11517749Y-6120749D02*
X11517749Y-6071251D01*
X11468251Y-6071251D01*
X11468251Y-6120749D01*
X11517749Y-6120749D01*
X11517749Y-6878249D02*
X11517749Y-6828751D01*
X11468251Y-6828751D01*
X11468251Y-6878249D01*
X11517749Y-6878249D01*
X11517749Y-7386249D02*
X11517749Y-7336751D01*
X11468251Y-7336751D01*
X11468251Y-7386249D01*
X11517749Y-7386249D01*
X11529249Y-4342749D02*
X11529249Y-4293251D01*
X11479751Y-4293251D01*
X11479751Y-4342749D01*
X11529249Y-4342749D01*
X11529249Y-4850749D02*
X11529249Y-4801251D01*
X11479751Y-4801251D01*
X11479751Y-4850749D01*
X11529249Y-4850749D01*
X11529249Y-8152749D02*
X11529249Y-8103251D01*
X11479751Y-8103251D01*
X11479751Y-8152749D01*
X11529249Y-8152749D01*
X11529249Y-8660749D02*
X11529249Y-8611251D01*
X11479751Y-8611251D01*
X11479751Y-8660749D01*
X11529249Y-8660749D01*
X11772749Y-3707749D02*
X11772749Y-3658251D01*
X11723251Y-3658251D01*
X11723251Y-3707749D01*
X11772749Y-3707749D01*
X11962749Y-3707749D02*
X11962749Y-3658251D01*
X11913251Y-3658251D01*
X11913251Y-3707749D01*
X11962749Y-3707749D01*
X12915749Y-3707749D02*
X12915749Y-3658251D01*
X12866251Y-3658251D01*
X12866251Y-3707749D01*
X12915749Y-3707749D01*
X13105749Y-3707749D02*
X13105749Y-3658251D01*
X13056251Y-3658251D01*
X13056251Y-3707749D01*
X13105749Y-3707749D01*
X8763000Y-5117500D02*
X8800500Y-5080000D01*
X8763000Y-5042500D01*
X8725500Y-5080000D01*
X8763000Y-5117500D01*
X8890000Y-5117500D02*
X8927500Y-5080000D01*
X8890000Y-5042500D01*
X8852500Y-5080000D01*
X8890000Y-5117500D01*
X9017000Y-5117500D02*
X9054500Y-5080000D01*
X9017000Y-5042500D01*
X8979500Y-5080000D01*
X9017000Y-5117500D01*
X7326500Y-6564000D02*
X7406500Y-6644000D01*
X7406500Y-6564000D02*
X7326500Y-6644000D01*
X7406500Y-6604000D02*
G75*
G02*
X7326500Y-6604000I-40000J0D01*
G01*
X7326500Y-6604000D02*
G75*
G02*
X7406500Y-6604000I40000J0D01*
G01*
X7326500Y-6818000D02*
X7406500Y-6898000D01*
X7406500Y-6818000D02*
X7326500Y-6898000D01*
X7406500Y-6858000D02*
G75*
G02*
X7326500Y-6858000I-40000J0D01*
G01*
X7326500Y-6858000D02*
G75*
G02*
X7406500Y-6858000I40000J0D01*
G01*
X7326500Y-7072000D02*
X7406500Y-7152000D01*
X7406500Y-7072000D02*
X7326500Y-7152000D01*
X7406500Y-7112000D02*
G75*
G02*
X7326500Y-7112000I-40000J0D01*
G01*
X7326500Y-7112000D02*
G75*
G02*
X7406500Y-7112000I40000J0D01*
G01*
X7834500Y-7707000D02*
X7914500Y-7787000D01*
X7914500Y-7707000D02*
X7834500Y-7787000D01*
X7914500Y-7747000D02*
G75*
G02*
X7834500Y-7747000I-40000J0D01*
G01*
X7834500Y-7747000D02*
G75*
G02*
X7914500Y-7747000I40000J0D01*
G01*
X7834500Y-7961000D02*
X7914500Y-8041000D01*
X7914500Y-7961000D02*
X7834500Y-8041000D01*
X7914500Y-8001000D02*
G75*
G02*
X7834500Y-8001000I-40000J0D01*
G01*
X7834500Y-8001000D02*
G75*
G02*
X7914500Y-8001000I40000J0D01*
G01*
X7834500Y-8215000D02*
X7914500Y-8295000D01*
X7914500Y-8215000D02*
X7834500Y-8295000D01*
X7914500Y-8255000D02*
G75*
G02*
X7834500Y-8255000I-40000J0D01*
G01*
X7834500Y-8255000D02*
G75*
G02*
X7914500Y-8255000I40000J0D01*
G01*
X8088000Y-4532000D02*
X8168000Y-4612000D01*
X8168000Y-4532000D02*
X8088000Y-4612000D01*
X8168000Y-4572000D02*
G75*
G02*
X8088000Y-4572000I-40000J0D01*
G01*
X8088000Y-4572000D02*
G75*
G02*
X8168000Y-4572000I40000J0D01*
G01*
X8088500Y-6564000D02*
X8168500Y-6644000D01*
X8168500Y-6564000D02*
X8088500Y-6644000D01*
X8168500Y-6604000D02*
G75*
G02*
X8088500Y-6604000I-40000J0D01*
G01*
X8088500Y-6604000D02*
G75*
G02*
X8168500Y-6604000I40000J0D01*
G01*
X8088500Y-6818000D02*
X8168500Y-6898000D01*
X8168500Y-6818000D02*
X8088500Y-6898000D01*
X8168500Y-6858000D02*
G75*
G02*
X8088500Y-6858000I-40000J0D01*
G01*
X8088500Y-6858000D02*
G75*
G02*
X8168500Y-6858000I40000J0D01*
G01*
X8088500Y-7072000D02*
X8168500Y-7152000D01*
X8168500Y-7072000D02*
X8088500Y-7152000D01*
X8168500Y-7112000D02*
G75*
G02*
X8088500Y-7112000I-40000J0D01*
G01*
X8088500Y-7112000D02*
G75*
G02*
X8168500Y-7112000I40000J0D01*
G01*
X8469500Y-6564000D02*
X8549500Y-6644000D01*
X8549500Y-6564000D02*
X8469500Y-6644000D01*
X8549500Y-6604000D02*
G75*
G02*
X8469500Y-6604000I-40000J0D01*
G01*
X8469500Y-6604000D02*
G75*
G02*
X8549500Y-6604000I40000J0D01*
G01*
X8469500Y-6818000D02*
X8549500Y-6898000D01*
X8549500Y-6818000D02*
X8469500Y-6898000D01*
X8549500Y-6858000D02*
G75*
G02*
X8469500Y-6858000I-40000J0D01*
G01*
X8469500Y-6858000D02*
G75*
G02*
X8549500Y-6858000I40000J0D01*
G01*
X8469500Y-7072000D02*
X8549500Y-7152000D01*
X8549500Y-7072000D02*
X8469500Y-7152000D01*
X8549500Y-7112000D02*
G75*
G02*
X8469500Y-7112000I-40000J0D01*
G01*
X8469500Y-7112000D02*
G75*
G02*
X8549500Y-7112000I40000J0D01*
G01*
X8588000Y-4532000D02*
X8668000Y-4612000D01*
X8668000Y-4532000D02*
X8588000Y-4612000D01*
X8668000Y-4572000D02*
G75*
G02*
X8588000Y-4572000I-40000J0D01*
G01*
X8588000Y-4572000D02*
G75*
G02*
X8668000Y-4572000I40000J0D01*
G01*
X8596500Y-7707000D02*
X8676500Y-7787000D01*
X8676500Y-7707000D02*
X8596500Y-7787000D01*
X8676500Y-7747000D02*
G75*
G02*
X8596500Y-7747000I-40000J0D01*
G01*
X8596500Y-7747000D02*
G75*
G02*
X8676500Y-7747000I40000J0D01*
G01*
X8596500Y-7961000D02*
X8676500Y-8041000D01*
X8676500Y-7961000D02*
X8596500Y-8041000D01*
X8676500Y-8001000D02*
G75*
G02*
X8596500Y-8001000I-40000J0D01*
G01*
X8596500Y-8001000D02*
G75*
G02*
X8676500Y-8001000I40000J0D01*
G01*
X8596500Y-8215000D02*
X8676500Y-8295000D01*
X8676500Y-8215000D02*
X8596500Y-8295000D01*
X8676500Y-8255000D02*
G75*
G02*
X8596500Y-8255000I-40000J0D01*
G01*
X8596500Y-8255000D02*
G75*
G02*
X8676500Y-8255000I40000J0D01*
G01*
X9104500Y-7707000D02*
X9184500Y-7787000D01*
X9184500Y-7707000D02*
X9104500Y-7787000D01*
X9184500Y-7747000D02*
G75*
G02*
X9104500Y-7747000I-40000J0D01*
G01*
X9104500Y-7747000D02*
G75*
G02*
X9184500Y-7747000I40000J0D01*
G01*
X9104500Y-7961000D02*
X9184500Y-8041000D01*
X9184500Y-7961000D02*
X9104500Y-8041000D01*
X9184500Y-8001000D02*
G75*
G02*
X9104500Y-8001000I-40000J0D01*
G01*
X9104500Y-8001000D02*
G75*
G02*
X9184500Y-8001000I40000J0D01*
G01*
X9104500Y-8215000D02*
X9184500Y-8295000D01*
X9184500Y-8215000D02*
X9104500Y-8295000D01*
X9184500Y-8255000D02*
G75*
G02*
X9104500Y-8255000I-40000J0D01*
G01*
X9104500Y-8255000D02*
G75*
G02*
X9184500Y-8255000I40000J0D01*
G01*
X9112000Y-4532000D02*
X9192000Y-4612000D01*
X9192000Y-4532000D02*
X9112000Y-4612000D01*
X9192000Y-4572000D02*
G75*
G02*
X9112000Y-4572000I-40000J0D01*
G01*
X9112000Y-4572000D02*
G75*
G02*
X9192000Y-4572000I40000J0D01*
G01*
X9231500Y-6564000D02*
X9311500Y-6644000D01*
X9311500Y-6564000D02*
X9231500Y-6644000D01*
X9311500Y-6604000D02*
G75*
G02*
X9231500Y-6604000I-40000J0D01*
G01*
X9231500Y-6604000D02*
G75*
G02*
X9311500Y-6604000I40000J0D01*
G01*
X9231500Y-6818000D02*
X9311500Y-6898000D01*
X9311500Y-6818000D02*
X9231500Y-6898000D01*
X9311500Y-6858000D02*
G75*
G02*
X9231500Y-6858000I-40000J0D01*
G01*
X9231500Y-6858000D02*
G75*
G02*
X9311500Y-6858000I40000J0D01*
G01*
X9231500Y-7072000D02*
X9311500Y-7152000D01*
X9311500Y-7072000D02*
X9231500Y-7152000D01*
X9311500Y-7112000D02*
G75*
G02*
X9231500Y-7112000I-40000J0D01*
G01*
X9231500Y-7112000D02*
G75*
G02*
X9311500Y-7112000I40000J0D01*
G01*
X9612000Y-4532000D02*
X9692000Y-4612000D01*
X9692000Y-4532000D02*
X9612000Y-4612000D01*
X9692000Y-4572000D02*
G75*
G02*
X9612000Y-4572000I-40000J0D01*
G01*
X9612000Y-4572000D02*
G75*
G02*
X9692000Y-4572000I40000J0D01*
G01*
X9612000Y-6564000D02*
X9692000Y-6644000D01*
X9692000Y-6564000D02*
X9612000Y-6644000D01*
X9692000Y-6604000D02*
G75*
G02*
X9612000Y-6604000I-40000J0D01*
G01*
X9612000Y-6604000D02*
G75*
G02*
X9692000Y-6604000I40000J0D01*
G01*
X9612000Y-6818000D02*
X9692000Y-6898000D01*
X9692000Y-6818000D02*
X9612000Y-6898000D01*
X9692000Y-6858000D02*
G75*
G02*
X9612000Y-6858000I-40000J0D01*
G01*
X9612000Y-6858000D02*
G75*
G02*
X9692000Y-6858000I40000J0D01*
G01*
X9612000Y-7072000D02*
X9692000Y-7152000D01*
X9692000Y-7072000D02*
X9612000Y-7152000D01*
X9692000Y-7112000D02*
G75*
G02*
X9612000Y-7112000I-40000J0D01*
G01*
X9612000Y-7112000D02*
G75*
G02*
X9692000Y-7112000I40000J0D01*
G01*
X9866500Y-7707000D02*
X9946500Y-7787000D01*
X9946500Y-7707000D02*
X9866500Y-7787000D01*
X9946500Y-7747000D02*
G75*
G02*
X9866500Y-7747000I-40000J0D01*
G01*
X9866500Y-7747000D02*
G75*
G02*
X9946500Y-7747000I40000J0D01*
G01*
X9866500Y-7961000D02*
X9946500Y-8041000D01*
X9946500Y-7961000D02*
X9866500Y-8041000D01*
X9946500Y-8001000D02*
G75*
G02*
X9866500Y-8001000I-40000J0D01*
G01*
X9866500Y-8001000D02*
G75*
G02*
X9946500Y-8001000I40000J0D01*
G01*
X9866500Y-8215000D02*
X9946500Y-8295000D01*
X9946500Y-8215000D02*
X9866500Y-8295000D01*
X9946500Y-8255000D02*
G75*
G02*
X9866500Y-8255000I-40000J0D01*
G01*
X9866500Y-8255000D02*
G75*
G02*
X9946500Y-8255000I40000J0D01*
G01*
X10374000Y-6564000D02*
X10454000Y-6644000D01*
X10454000Y-6564000D02*
X10374000Y-6644000D01*
X10454000Y-6604000D02*
G75*
G02*
X10374000Y-6604000I-40000J0D01*
G01*
X10374000Y-6604000D02*
G75*
G02*
X10454000Y-6604000I40000J0D01*
G01*
X10374000Y-6818000D02*
X10454000Y-6898000D01*
X10454000Y-6818000D02*
X10374000Y-6898000D01*
X10454000Y-6858000D02*
G75*
G02*
X10374000Y-6858000I-40000J0D01*
G01*
X10374000Y-6858000D02*
G75*
G02*
X10454000Y-6858000I40000J0D01*
G01*
X10374000Y-7072000D02*
X10454000Y-7152000D01*
X10454000Y-7072000D02*
X10374000Y-7152000D01*
X10454000Y-7112000D02*
G75*
G02*
X10374000Y-7112000I-40000J0D01*
G01*
X10374000Y-7112000D02*
G75*
G02*
X10454000Y-7112000I40000J0D01*
G01*
X13295000Y-5616000D02*
X13375000Y-5696000D01*
X13375000Y-5616000D02*
X13295000Y-5696000D01*
X13375000Y-5656000D02*
G75*
G02*
X13295000Y-5656000I-40000J0D01*
G01*
X13295000Y-5656000D02*
G75*
G02*
X13375000Y-5656000I40000J0D01*
G01*
X13295000Y-6116000D02*
X13375000Y-6196000D01*
X13375000Y-6116000D02*
X13295000Y-6196000D01*
X13375000Y-6156000D02*
G75*
G02*
X13295000Y-6156000I-40000J0D01*
G01*
X13295000Y-6156000D02*
G75*
G02*
X13375000Y-6156000I40000J0D01*
G01*
X13295000Y-6821500D02*
X13375000Y-6901500D01*
X13375000Y-6821500D02*
X13295000Y-6901500D01*
X13375000Y-6861500D02*
G75*
G02*
X13295000Y-6861500I-40000J0D01*
G01*
X13295000Y-6861500D02*
G75*
G02*
X13375000Y-6861500I40000J0D01*
G01*
X13295000Y-7321500D02*
X13375000Y-7401500D01*
X13375000Y-7321500D02*
X13295000Y-7401500D01*
X13375000Y-7361500D02*
G75*
G02*
X13295000Y-7361500I-40000J0D01*
G01*
X13295000Y-7361500D02*
G75*
G02*
X13375000Y-7361500I40000J0D01*
G01*
X13306500Y-4286000D02*
X13386500Y-4366000D01*
X13386500Y-4286000D02*
X13306500Y-4366000D01*
X13386500Y-4326000D02*
G75*
G02*
X13306500Y-4326000I-40000J0D01*
G01*
X13306500Y-4326000D02*
G75*
G02*
X13386500Y-4326000I40000J0D01*
G01*
X13306500Y-4786000D02*
X13386500Y-4866000D01*
X13386500Y-4786000D02*
X13306500Y-4866000D01*
X13386500Y-4826000D02*
G75*
G02*
X13306500Y-4826000I-40000J0D01*
G01*
X13306500Y-4826000D02*
G75*
G02*
X13386500Y-4826000I40000J0D01*
G01*
X13306500Y-8096000D02*
X13386500Y-8176000D01*
X13386500Y-8096000D02*
X13306500Y-8176000D01*
X13386500Y-8136000D02*
G75*
G02*
X13306500Y-8136000I-40000J0D01*
G01*
X13306500Y-8136000D02*
G75*
G02*
X13386500Y-8136000I40000J0D01*
G01*
X13306500Y-8596000D02*
X13386500Y-8676000D01*
X13386500Y-8596000D02*
X13306500Y-8676000D01*
X13386500Y-8636000D02*
G75*
G02*
X13306500Y-8636000I-40000J0D01*
G01*
X13306500Y-8636000D02*
G75*
G02*
X13386500Y-8636000I40000J0D01*
G01*
X11894820Y-5358820D02*
X11981180Y-5445180D01*
X11981180Y-5358820D02*
X11894820Y-5445180D01*
X11938000Y-5358820D02*
X11938000Y-5445180D01*
X11894820Y-5402000D02*
X11981180Y-5402000D01*
X11894820Y-6238820D02*
X11981180Y-6325180D01*
X11981180Y-6238820D02*
X11894820Y-6325180D01*
X11938000Y-6238820D02*
X11938000Y-6325180D01*
X11894820Y-6282000D02*
X11981180Y-6282000D01*
X11894820Y-6624320D02*
X11981180Y-6710680D01*
X11981180Y-6624320D02*
X11894820Y-6710680D01*
X11938000Y-6624320D02*
X11938000Y-6710680D01*
X11894820Y-6667500D02*
X11981180Y-6667500D01*
X11894820Y-7504320D02*
X11981180Y-7590680D01*
X11981180Y-7504320D02*
X11894820Y-7590680D01*
X11938000Y-7504320D02*
X11938000Y-7590680D01*
X11894820Y-7547500D02*
X11981180Y-7547500D01*
X11906320Y-4088820D02*
X11992680Y-4175180D01*
X11992680Y-4088820D02*
X11906320Y-4175180D01*
X11949500Y-4088820D02*
X11949500Y-4175180D01*
X11906320Y-4132000D02*
X11992680Y-4132000D01*
X11906320Y-4968820D02*
X11992680Y-5055180D01*
X11992680Y-4968820D02*
X11906320Y-5055180D01*
X11949500Y-4968820D02*
X11949500Y-5055180D01*
X11906320Y-5012000D02*
X11992680Y-5012000D01*
X11906320Y-7898820D02*
X11992680Y-7985180D01*
X11992680Y-7898820D02*
X11906320Y-7985180D01*
X11949500Y-7898820D02*
X11949500Y-7985180D01*
X11906320Y-7942000D02*
X11992680Y-7942000D01*
X11906320Y-8778820D02*
X11992680Y-8865180D01*
X11992680Y-8778820D02*
X11906320Y-8865180D01*
X11949500Y-8778820D02*
X11949500Y-8865180D01*
X11906320Y-8822000D02*
X11992680Y-8822000D01*
X12148820Y-5358820D02*
X12235180Y-5445180D01*
X12235180Y-5358820D02*
X12148820Y-5445180D01*
X12192000Y-5358820D02*
X12192000Y-5445180D01*
X12148820Y-5402000D02*
X12235180Y-5402000D01*
X12148820Y-6238820D02*
X12235180Y-6325180D01*
X12235180Y-6238820D02*
X12148820Y-6325180D01*
X12192000Y-6238820D02*
X12192000Y-6325180D01*
X12148820Y-6282000D02*
X12235180Y-6282000D01*
X12148820Y-6624320D02*
X12235180Y-6710680D01*
X12235180Y-6624320D02*
X12148820Y-6710680D01*
X12192000Y-6624320D02*
X12192000Y-6710680D01*
X12148820Y-6667500D02*
X12235180Y-6667500D01*
X12148820Y-7504320D02*
X12235180Y-7590680D01*
X12235180Y-7504320D02*
X12148820Y-7590680D01*
X12192000Y-7504320D02*
X12192000Y-7590680D01*
X12148820Y-7547500D02*
X12235180Y-7547500D01*
X12160320Y-4088820D02*
X12246680Y-4175180D01*
X12246680Y-4088820D02*
X12160320Y-4175180D01*
X12203500Y-4088820D02*
X12203500Y-4175180D01*
X12160320Y-4132000D02*
X12246680Y-4132000D01*
X12160320Y-4968820D02*
X12246680Y-5055180D01*
X12246680Y-4968820D02*
X12160320Y-5055180D01*
X12203500Y-4968820D02*
X12203500Y-5055180D01*
X12160320Y-5012000D02*
X12246680Y-5012000D01*
X12160320Y-7898820D02*
X12246680Y-7985180D01*
X12246680Y-7898820D02*
X12160320Y-7985180D01*
X12203500Y-7898820D02*
X12203500Y-7985180D01*
X12160320Y-7942000D02*
X12246680Y-7942000D01*
X12160320Y-8778820D02*
X12246680Y-8865180D01*
X12246680Y-8778820D02*
X12160320Y-8865180D01*
X12203500Y-8778820D02*
X12203500Y-8865180D01*
X12160320Y-8822000D02*
X12246680Y-8822000D01*
X12402820Y-5358820D02*
X12489180Y-5445180D01*
X12489180Y-5358820D02*
X12402820Y-5445180D01*
X12446000Y-5358820D02*
X12446000Y-5445180D01*
X12402820Y-5402000D02*
X12489180Y-5402000D01*
X12402820Y-6238820D02*
X12489180Y-6325180D01*
X12489180Y-6238820D02*
X12402820Y-6325180D01*
X12446000Y-6238820D02*
X12446000Y-6325180D01*
X12402820Y-6282000D02*
X12489180Y-6282000D01*
X12402820Y-6624320D02*
X12489180Y-6710680D01*
X12489180Y-6624320D02*
X12402820Y-6710680D01*
X12446000Y-6624320D02*
X12446000Y-6710680D01*
X12402820Y-6667500D02*
X12489180Y-6667500D01*
X12402820Y-7504320D02*
X12489180Y-7590680D01*
X12489180Y-7504320D02*
X12402820Y-7590680D01*
X12446000Y-7504320D02*
X12446000Y-7590680D01*
X12402820Y-7547500D02*
X12489180Y-7547500D01*
X12414320Y-4088820D02*
X12500680Y-4175180D01*
X12500680Y-4088820D02*
X12414320Y-4175180D01*
X12457500Y-4088820D02*
X12457500Y-4175180D01*
X12414320Y-4132000D02*
X12500680Y-4132000D01*
X12414320Y-4968820D02*
X12500680Y-5055180D01*
X12500680Y-4968820D02*
X12414320Y-5055180D01*
X12457500Y-4968820D02*
X12457500Y-5055180D01*
X12414320Y-5012000D02*
X12500680Y-5012000D01*
X12414320Y-7898820D02*
X12500680Y-7985180D01*
X12500680Y-7898820D02*
X12414320Y-7985180D01*
X12457500Y-7898820D02*
X12457500Y-7985180D01*
X12414320Y-7942000D02*
X12500680Y-7942000D01*
X12414320Y-8778820D02*
X12500680Y-8865180D01*
X12500680Y-8778820D02*
X12414320Y-8865180D01*
X12457500Y-8778820D02*
X12457500Y-8865180D01*
X12414320Y-8822000D02*
X12500680Y-8822000D01*
X12656820Y-5358820D02*
X12743180Y-5445180D01*
X12743180Y-5358820D02*
X12656820Y-5445180D01*
X12700000Y-5358820D02*
X12700000Y-5445180D01*
X12656820Y-5402000D02*
X12743180Y-5402000D01*
X12656820Y-6238820D02*
X12743180Y-6325180D01*
X12743180Y-6238820D02*
X12656820Y-6325180D01*
X12700000Y-6238820D02*
X12700000Y-6325180D01*
X12656820Y-6282000D02*
X12743180Y-6282000D01*
X12656820Y-6624320D02*
X12743180Y-6710680D01*
X12743180Y-6624320D02*
X12656820Y-6710680D01*
X12700000Y-6624320D02*
X12700000Y-6710680D01*
X12656820Y-6667500D02*
X12743180Y-6667500D01*
X12656820Y-7504320D02*
X12743180Y-7590680D01*
X12743180Y-7504320D02*
X12656820Y-7590680D01*
X12700000Y-7504320D02*
X12700000Y-7590680D01*
X12656820Y-7547500D02*
X12743180Y-7547500D01*
X12668320Y-4088820D02*
X12754680Y-4175180D01*
X12754680Y-4088820D02*
X12668320Y-4175180D01*
X12711500Y-4088820D02*
X12711500Y-4175180D01*
X12668320Y-4132000D02*
X12754680Y-4132000D01*
X12668320Y-4968820D02*
X12754680Y-5055180D01*
X12754680Y-4968820D02*
X12668320Y-5055180D01*
X12711500Y-4968820D02*
X12711500Y-5055180D01*
X12668320Y-5012000D02*
X12754680Y-5012000D01*
X12668320Y-7898820D02*
X12754680Y-7985180D01*
X12754680Y-7898820D02*
X12668320Y-7985180D01*
X12711500Y-7898820D02*
X12711500Y-7985180D01*
X12668320Y-7942000D02*
X12754680Y-7942000D01*
X12668320Y-8778820D02*
X12754680Y-8865180D01*
X12754680Y-8778820D02*
X12668320Y-8865180D01*
X12711500Y-8778820D02*
X12711500Y-8865180D01*
X12668320Y-8822000D02*
X12754680Y-8822000D01*
X9747500Y-2837000D02*
X9842500Y-2932000D01*
X9842500Y-2837000D02*
X9747500Y-2932000D01*
X9828588Y-2918088D02*
X9828588Y-2850912D01*
X9761412Y-2850912D01*
X9761412Y-2918088D01*
X9828588Y-2918088D01*
X9997500Y-2837000D02*
X10092500Y-2932000D01*
X10092500Y-2837000D02*
X9997500Y-2932000D01*
X10078588Y-2918088D02*
X10078588Y-2850912D01*
X10011412Y-2850912D01*
X10011412Y-2918088D01*
X10078588Y-2918088D01*
X10247500Y-2837000D02*
X10342500Y-2932000D01*
X10342500Y-2837000D02*
X10247500Y-2932000D01*
X10328588Y-2918088D02*
X10328588Y-2850912D01*
X10261412Y-2850912D01*
X10261412Y-2918088D01*
X10328588Y-2918088D01*
X10497500Y-2837000D02*
X10592500Y-2932000D01*
X10592500Y-2837000D02*
X10497500Y-2932000D01*
X10578588Y-2918088D02*
X10578588Y-2850912D01*
X10511412Y-2850912D01*
X10511412Y-2918088D01*
X10578588Y-2918088D01*
X10747500Y-2837000D02*
X10842500Y-2932000D01*
X10842500Y-2837000D02*
X10747500Y-2932000D01*
X10828588Y-2918088D02*
X10828588Y-2850912D01*
X10761412Y-2850912D01*
X10761412Y-2918088D01*
X10828588Y-2918088D01*
X11513500Y-2837000D02*
X11608500Y-2932000D01*
X11608500Y-2837000D02*
X11513500Y-2932000D01*
X11594588Y-2918088D02*
X11594588Y-2850912D01*
X11527412Y-2850912D01*
X11527412Y-2918088D01*
X11594588Y-2918088D01*
X11763500Y-2837000D02*
X11858500Y-2932000D01*
X11858500Y-2837000D02*
X11763500Y-2932000D01*
X11844588Y-2918088D02*
X11844588Y-2850912D01*
X11777412Y-2850912D01*
X11777412Y-2918088D01*
X11844588Y-2918088D01*
X12013500Y-2837000D02*
X12108500Y-2932000D01*
X12108500Y-2837000D02*
X12013500Y-2932000D01*
X12094588Y-2918088D02*
X12094588Y-2850912D01*
X12027412Y-2850912D01*
X12027412Y-2918088D01*
X12094588Y-2918088D01*
X12775500Y-2837000D02*
X12870500Y-2932000D01*
X12870500Y-2837000D02*
X12775500Y-2932000D01*
X12856588Y-2918088D02*
X12856588Y-2850912D01*
X12789412Y-2850912D01*
X12789412Y-2918088D01*
X12856588Y-2918088D01*
X13025500Y-2837000D02*
X13120500Y-2932000D01*
X13120500Y-2837000D02*
X13025500Y-2932000D01*
X13106588Y-2918088D02*
X13106588Y-2850912D01*
X13039412Y-2850912D01*
X13039412Y-2918088D01*
X13106588Y-2918088D01*
X13275500Y-2837000D02*
X13370500Y-2932000D01*
X13370500Y-2837000D02*
X13275500Y-2932000D01*
X13356588Y-2918088D02*
X13356588Y-2850912D01*
X13289412Y-2850912D01*
X13289412Y-2918088D01*
X13356588Y-2918088D01*
X1925000Y-3425000D02*
X2025000Y-3525000D01*
X2025000Y-3425000D02*
X1925000Y-3525000D01*
X1975000Y-3525000D02*
X2025000Y-3475000D01*
X1975000Y-3425000D01*
X1925000Y-3475000D01*
X1975000Y-3525000D01*
X2175000Y-3425000D02*
X2275000Y-3525000D01*
X2275000Y-3425000D02*
X2175000Y-3525000D01*
X2225000Y-3525000D02*
X2275000Y-3475000D01*
X2225000Y-3425000D01*
X2175000Y-3475000D01*
X2225000Y-3525000D01*
X2642400Y-9932200D02*
X2742400Y-10032200D01*
X2742400Y-9932200D02*
X2642400Y-10032200D01*
X2692400Y-10032200D02*
X2742400Y-9982200D01*
X2692400Y-9932200D01*
X2642400Y-9982200D01*
X2692400Y-10032200D01*
X2892400Y-9932200D02*
X2992400Y-10032200D01*
X2992400Y-9932200D02*
X2892400Y-10032200D01*
X2942400Y-10032200D02*
X2992400Y-9982200D01*
X2942400Y-9932200D01*
X2892400Y-9982200D01*
X2942400Y-10032200D01*
X3552500Y-3394000D02*
X3652500Y-3494000D01*
X3652500Y-3394000D02*
X3552500Y-3494000D01*
X3602500Y-3494000D02*
X3652500Y-3444000D01*
X3602500Y-3394000D01*
X3552500Y-3444000D01*
X3602500Y-3494000D01*
X3691000Y-3110000D02*
X3791000Y-3210000D01*
X3791000Y-3110000D02*
X3691000Y-3210000D01*
X3741000Y-3210000D02*
X3791000Y-3160000D01*
X3741000Y-3110000D01*
X3691000Y-3160000D01*
X3741000Y-3210000D01*
X3829500Y-3394000D02*
X3929500Y-3494000D01*
X3929500Y-3394000D02*
X3829500Y-3494000D01*
X3879500Y-3494000D02*
X3929500Y-3444000D01*
X3879500Y-3394000D01*
X3829500Y-3444000D01*
X3879500Y-3494000D01*
X3968000Y-3110000D02*
X4068000Y-3210000D01*
X4068000Y-3110000D02*
X3968000Y-3210000D01*
X4018000Y-3210000D02*
X4068000Y-3160000D01*
X4018000Y-3110000D01*
X3968000Y-3160000D01*
X4018000Y-3210000D01*
X4014000Y-9856000D02*
X4114000Y-9956000D01*
X4114000Y-9856000D02*
X4014000Y-9956000D01*
X4064000Y-9956000D02*
X4114000Y-9906000D01*
X4064000Y-9856000D01*
X4014000Y-9906000D01*
X4064000Y-9956000D01*
X4014000Y-10110000D02*
X4114000Y-10210000D01*
X4114000Y-10110000D02*
X4014000Y-10210000D01*
X4064000Y-10210000D02*
X4114000Y-10160000D01*
X4064000Y-10110000D01*
X4014000Y-10160000D01*
X4064000Y-10210000D01*
X4106500Y-3394000D02*
X4206500Y-3494000D01*
X4206500Y-3394000D02*
X4106500Y-3494000D01*
X4156500Y-3494000D02*
X4206500Y-3444000D01*
X4156500Y-3394000D01*
X4106500Y-3444000D01*
X4156500Y-3494000D01*
X4245000Y-3110000D02*
X4345000Y-3210000D01*
X4345000Y-3110000D02*
X4245000Y-3210000D01*
X4295000Y-3210000D02*
X4345000Y-3160000D01*
X4295000Y-3110000D01*
X4245000Y-3160000D01*
X4295000Y-3210000D01*
X4268000Y-9856000D02*
X4368000Y-9956000D01*
X4368000Y-9856000D02*
X4268000Y-9956000D01*
X4318000Y-9956000D02*
X4368000Y-9906000D01*
X4318000Y-9856000D01*
X4268000Y-9906000D01*
X4318000Y-9956000D01*
X4268000Y-10110000D02*
X4368000Y-10210000D01*
X4368000Y-10110000D02*
X4268000Y-10210000D01*
X4318000Y-10210000D02*
X4368000Y-10160000D01*
X4318000Y-10110000D01*
X4268000Y-10160000D01*
X4318000Y-10210000D01*
X4383500Y-3394000D02*
X4483500Y-3494000D01*
X4483500Y-3394000D02*
X4383500Y-3494000D01*
X4433500Y-3494000D02*
X4483500Y-3444000D01*
X4433500Y-3394000D01*
X4383500Y-3444000D01*
X4433500Y-3494000D01*
X4522000Y-3110000D02*
X4622000Y-3210000D01*
X4622000Y-3110000D02*
X4522000Y-3210000D01*
X4572000Y-3210000D02*
X4622000Y-3160000D01*
X4572000Y-3110000D01*
X4522000Y-3160000D01*
X4572000Y-3210000D01*
X4522000Y-9856000D02*
X4622000Y-9956000D01*
X4622000Y-9856000D02*
X4522000Y-9956000D01*
X4572000Y-9956000D02*
X4622000Y-9906000D01*
X4572000Y-9856000D01*
X4522000Y-9906000D01*
X4572000Y-9956000D01*
X4522000Y-10110000D02*
X4622000Y-10210000D01*
X4622000Y-10110000D02*
X4522000Y-10210000D01*
X4572000Y-10210000D02*
X4622000Y-10160000D01*
X4572000Y-10110000D01*
X4522000Y-10160000D01*
X4572000Y-10210000D01*
X4660500Y-3394000D02*
X4760500Y-3494000D01*
X4760500Y-3394000D02*
X4660500Y-3494000D01*
X4710500Y-3494000D02*
X4760500Y-3444000D01*
X4710500Y-3394000D01*
X4660500Y-3444000D01*
X4710500Y-3494000D01*
X4776000Y-9856000D02*
X4876000Y-9956000D01*
X4876000Y-9856000D02*
X4776000Y-9956000D01*
X4826000Y-9956000D02*
X4876000Y-9906000D01*
X4826000Y-9856000D01*
X4776000Y-9906000D01*
X4826000Y-9956000D01*
X4776000Y-10110000D02*
X4876000Y-10210000D01*
X4876000Y-10110000D02*
X4776000Y-10210000D01*
X4826000Y-10210000D02*
X4876000Y-10160000D01*
X4826000Y-10110000D01*
X4776000Y-10160000D01*
X4826000Y-10210000D01*
X5030000Y-9856000D02*
X5130000Y-9956000D01*
X5130000Y-9856000D02*
X5030000Y-9956000D01*
X5080000Y-9956000D02*
X5130000Y-9906000D01*
X5080000Y-9856000D01*
X5030000Y-9906000D01*
X5080000Y-9956000D01*
X5030000Y-10110000D02*
X5130000Y-10210000D01*
X5130000Y-10110000D02*
X5030000Y-10210000D01*
X5080000Y-10210000D02*
X5130000Y-10160000D01*
X5080000Y-10110000D01*
X5030000Y-10160000D01*
X5080000Y-10210000D01*
X5284000Y-9856000D02*
X5384000Y-9956000D01*
X5384000Y-9856000D02*
X5284000Y-9956000D01*
X5334000Y-9956000D02*
X5384000Y-9906000D01*
X5334000Y-9856000D01*
X5284000Y-9906000D01*
X5334000Y-9956000D01*
X5284000Y-10110000D02*
X5384000Y-10210000D01*
X5384000Y-10110000D02*
X5284000Y-10210000D01*
X5334000Y-10210000D02*
X5384000Y-10160000D01*
X5334000Y-10110000D01*
X5284000Y-10160000D01*
X5334000Y-10210000D01*
X5538000Y-9856000D02*
X5638000Y-9956000D01*
X5638000Y-9856000D02*
X5538000Y-9956000D01*
X5588000Y-9956000D02*
X5638000Y-9906000D01*
X5588000Y-9856000D01*
X5538000Y-9906000D01*
X5588000Y-9956000D01*
X5538000Y-10110000D02*
X5638000Y-10210000D01*
X5638000Y-10110000D02*
X5538000Y-10210000D01*
X5588000Y-10210000D02*
X5638000Y-10160000D01*
X5588000Y-10110000D01*
X5538000Y-10160000D01*
X5588000Y-10210000D01*
X5792000Y-9856000D02*
X5892000Y-9956000D01*
X5892000Y-9856000D02*
X5792000Y-9956000D01*
X5842000Y-9956000D02*
X5892000Y-9906000D01*
X5842000Y-9856000D01*
X5792000Y-9906000D01*
X5842000Y-9956000D01*
X5792000Y-10110000D02*
X5892000Y-10210000D01*
X5892000Y-10110000D02*
X5792000Y-10210000D01*
X5842000Y-10210000D02*
X5892000Y-10160000D01*
X5842000Y-10110000D01*
X5792000Y-10160000D01*
X5842000Y-10210000D01*
X6046000Y-9856000D02*
X6146000Y-9956000D01*
X6146000Y-9856000D02*
X6046000Y-9956000D01*
X6096000Y-9956000D02*
X6146000Y-9906000D01*
X6096000Y-9856000D01*
X6046000Y-9906000D01*
X6096000Y-9956000D01*
X6046000Y-10110000D02*
X6146000Y-10210000D01*
X6146000Y-10110000D02*
X6046000Y-10210000D01*
X6096000Y-10210000D02*
X6146000Y-10160000D01*
X6096000Y-10110000D01*
X6046000Y-10160000D01*
X6096000Y-10210000D01*
X6300000Y-9856000D02*
X6400000Y-9956000D01*
X6400000Y-9856000D02*
X6300000Y-9956000D01*
X6350000Y-9956000D02*
X6400000Y-9906000D01*
X6350000Y-9856000D01*
X6300000Y-9906000D01*
X6350000Y-9956000D01*
X6300000Y-10110000D02*
X6400000Y-10210000D01*
X6400000Y-10110000D02*
X6300000Y-10210000D01*
X6350000Y-10210000D02*
X6400000Y-10160000D01*
X6350000Y-10110000D01*
X6300000Y-10160000D01*
X6350000Y-10210000D01*
X6554000Y-9856000D02*
X6654000Y-9956000D01*
X6654000Y-9856000D02*
X6554000Y-9956000D01*
X6604000Y-9956000D02*
X6654000Y-9906000D01*
X6604000Y-9856000D01*
X6554000Y-9906000D01*
X6604000Y-9956000D01*
X6554000Y-10110000D02*
X6654000Y-10210000D01*
X6654000Y-10110000D02*
X6554000Y-10210000D01*
X6604000Y-10210000D02*
X6654000Y-10160000D01*
X6604000Y-10110000D01*
X6554000Y-10160000D01*
X6604000Y-10210000D01*
X6808000Y-9856000D02*
X6908000Y-9956000D01*
X6908000Y-9856000D02*
X6808000Y-9956000D01*
X6858000Y-9956000D02*
X6908000Y-9906000D01*
X6858000Y-9856000D01*
X6808000Y-9906000D01*
X6858000Y-9956000D01*
X6808000Y-10110000D02*
X6908000Y-10210000D01*
X6908000Y-10110000D02*
X6808000Y-10210000D01*
X6858000Y-10210000D02*
X6908000Y-10160000D01*
X6858000Y-10110000D01*
X6808000Y-10160000D01*
X6858000Y-10210000D01*
X7050500Y-3394000D02*
X7150500Y-3494000D01*
X7150500Y-3394000D02*
X7050500Y-3494000D01*
X7100500Y-3494000D02*
X7150500Y-3444000D01*
X7100500Y-3394000D01*
X7050500Y-3444000D01*
X7100500Y-3494000D01*
X7062000Y-9856000D02*
X7162000Y-9956000D01*
X7162000Y-9856000D02*
X7062000Y-9956000D01*
X7112000Y-9956000D02*
X7162000Y-9906000D01*
X7112000Y-9856000D01*
X7062000Y-9906000D01*
X7112000Y-9956000D01*
X7062000Y-10110000D02*
X7162000Y-10210000D01*
X7162000Y-10110000D02*
X7062000Y-10210000D01*
X7112000Y-10210000D02*
X7162000Y-10160000D01*
X7112000Y-10110000D01*
X7062000Y-10160000D01*
X7112000Y-10210000D01*
X7189000Y-3110000D02*
X7289000Y-3210000D01*
X7289000Y-3110000D02*
X7189000Y-3210000D01*
X7239000Y-3210000D02*
X7289000Y-3160000D01*
X7239000Y-3110000D01*
X7189000Y-3160000D01*
X7239000Y-3210000D01*
X7316000Y-9856000D02*
X7416000Y-9956000D01*
X7416000Y-9856000D02*
X7316000Y-9956000D01*
X7366000Y-9956000D02*
X7416000Y-9906000D01*
X7366000Y-9856000D01*
X7316000Y-9906000D01*
X7366000Y-9956000D01*
X7316000Y-10110000D02*
X7416000Y-10210000D01*
X7416000Y-10110000D02*
X7316000Y-10210000D01*
X7366000Y-10210000D02*
X7416000Y-10160000D01*
X7366000Y-10110000D01*
X7316000Y-10160000D01*
X7366000Y-10210000D01*
X7327500Y-3394000D02*
X7427500Y-3494000D01*
X7427500Y-3394000D02*
X7327500Y-3494000D01*
X7377500Y-3494000D02*
X7427500Y-3444000D01*
X7377500Y-3394000D01*
X7327500Y-3444000D01*
X7377500Y-3494000D01*
X7346000Y-4502000D02*
X7446000Y-4602000D01*
X7446000Y-4502000D02*
X7346000Y-4602000D01*
X7396000Y-4602000D02*
X7446000Y-4552000D01*
X7396000Y-4502000D01*
X7346000Y-4552000D01*
X7396000Y-4602000D01*
X7346000Y-4752000D02*
X7446000Y-4852000D01*
X7446000Y-4752000D02*
X7346000Y-4852000D01*
X7396000Y-4852000D02*
X7446000Y-4802000D01*
X7396000Y-4752000D01*
X7346000Y-4802000D01*
X7396000Y-4852000D01*
X7466000Y-3110000D02*
X7566000Y-3210000D01*
X7566000Y-3110000D02*
X7466000Y-3210000D01*
X7516000Y-3210000D02*
X7566000Y-3160000D01*
X7516000Y-3110000D01*
X7466000Y-3160000D01*
X7516000Y-3210000D01*
X7570000Y-9856000D02*
X7670000Y-9956000D01*
X7670000Y-9856000D02*
X7570000Y-9956000D01*
X7620000Y-9956000D02*
X7670000Y-9906000D01*
X7620000Y-9856000D01*
X7570000Y-9906000D01*
X7620000Y-9956000D01*
X7570000Y-10110000D02*
X7670000Y-10210000D01*
X7670000Y-10110000D02*
X7570000Y-10210000D01*
X7620000Y-10210000D02*
X7670000Y-10160000D01*
X7620000Y-10110000D01*
X7570000Y-10160000D01*
X7620000Y-10210000D01*
X7604500Y-3394000D02*
X7704500Y-3494000D01*
X7704500Y-3394000D02*
X7604500Y-3494000D01*
X7654500Y-3494000D02*
X7704500Y-3444000D01*
X7654500Y-3394000D01*
X7604500Y-3444000D01*
X7654500Y-3494000D01*
X7743000Y-3110000D02*
X7843000Y-3210000D01*
X7843000Y-3110000D02*
X7743000Y-3210000D01*
X7793000Y-3210000D02*
X7843000Y-3160000D01*
X7793000Y-3110000D01*
X7743000Y-3160000D01*
X7793000Y-3210000D01*
X7824000Y-9856000D02*
X7924000Y-9956000D01*
X7924000Y-9856000D02*
X7824000Y-9956000D01*
X7874000Y-9956000D02*
X7924000Y-9906000D01*
X7874000Y-9856000D01*
X7824000Y-9906000D01*
X7874000Y-9956000D01*
X7824000Y-10110000D02*
X7924000Y-10210000D01*
X7924000Y-10110000D02*
X7824000Y-10210000D01*
X7874000Y-10210000D02*
X7924000Y-10160000D01*
X7874000Y-10110000D01*
X7824000Y-10160000D01*
X7874000Y-10210000D01*
X7881500Y-3394000D02*
X7981500Y-3494000D01*
X7981500Y-3394000D02*
X7881500Y-3494000D01*
X7931500Y-3494000D02*
X7981500Y-3444000D01*
X7931500Y-3394000D01*
X7881500Y-3444000D01*
X7931500Y-3494000D01*
X8020000Y-3110000D02*
X8120000Y-3210000D01*
X8120000Y-3110000D02*
X8020000Y-3210000D01*
X8070000Y-3210000D02*
X8120000Y-3160000D01*
X8070000Y-3110000D01*
X8020000Y-3160000D01*
X8070000Y-3210000D01*
X8078000Y-9856000D02*
X8178000Y-9956000D01*
X8178000Y-9856000D02*
X8078000Y-9956000D01*
X8128000Y-9956000D02*
X8178000Y-9906000D01*
X8128000Y-9856000D01*
X8078000Y-9906000D01*
X8128000Y-9956000D01*
X8078000Y-10110000D02*
X8178000Y-10210000D01*
X8178000Y-10110000D02*
X8078000Y-10210000D01*
X8128000Y-10210000D02*
X8178000Y-10160000D01*
X8128000Y-10110000D01*
X8078000Y-10160000D01*
X8128000Y-10210000D01*
X8158500Y-3394000D02*
X8258500Y-3494000D01*
X8258500Y-3394000D02*
X8158500Y-3494000D01*
X8208500Y-3494000D02*
X8258500Y-3444000D01*
X8208500Y-3394000D01*
X8158500Y-3444000D01*
X8208500Y-3494000D01*
X8332000Y-9856000D02*
X8432000Y-9956000D01*
X8432000Y-9856000D02*
X8332000Y-9956000D01*
X8382000Y-9956000D02*
X8432000Y-9906000D01*
X8382000Y-9856000D01*
X8332000Y-9906000D01*
X8382000Y-9956000D01*
X8332000Y-10110000D02*
X8432000Y-10210000D01*
X8432000Y-10110000D02*
X8332000Y-10210000D01*
X8382000Y-10210000D02*
X8432000Y-10160000D01*
X8382000Y-10110000D01*
X8332000Y-10160000D01*
X8382000Y-10210000D01*
X8586000Y-9856000D02*
X8686000Y-9956000D01*
X8686000Y-9856000D02*
X8586000Y-9956000D01*
X8636000Y-9956000D02*
X8686000Y-9906000D01*
X8636000Y-9856000D01*
X8586000Y-9906000D01*
X8636000Y-9956000D01*
X8586000Y-10110000D02*
X8686000Y-10210000D01*
X8686000Y-10110000D02*
X8586000Y-10210000D01*
X8636000Y-10210000D02*
X8686000Y-10160000D01*
X8636000Y-10110000D01*
X8586000Y-10160000D01*
X8636000Y-10210000D01*
X8840000Y-9856000D02*
X8940000Y-9956000D01*
X8940000Y-9856000D02*
X8840000Y-9956000D01*
X8890000Y-9956000D02*
X8940000Y-9906000D01*
X8890000Y-9856000D01*
X8840000Y-9906000D01*
X8890000Y-9956000D01*
X8840000Y-10110000D02*
X8940000Y-10210000D01*
X8940000Y-10110000D02*
X8840000Y-10210000D01*
X8890000Y-10210000D02*
X8940000Y-10160000D01*
X8890000Y-10110000D01*
X8840000Y-10160000D01*
X8890000Y-10210000D01*
X9675000Y-3750000D02*
X9775000Y-3850000D01*
X9775000Y-3750000D02*
X9675000Y-3850000D01*
X9725000Y-3850000D02*
X9775000Y-3800000D01*
X9725000Y-3750000D01*
X9675000Y-3800000D01*
X9725000Y-3850000D01*
X9925000Y-3750000D02*
X10025000Y-3850000D01*
X10025000Y-3750000D02*
X9925000Y-3850000D01*
X9975000Y-3850000D02*
X10025000Y-3800000D01*
X9975000Y-3750000D01*
X9925000Y-3800000D01*
X9975000Y-3850000D01*
X10550000Y-3750000D02*
X10650000Y-3850000D01*
X10650000Y-3750000D02*
X10550000Y-3850000D01*
X10600000Y-3850000D02*
X10650000Y-3800000D01*
X10600000Y-3750000D01*
X10550000Y-3800000D01*
X10600000Y-3850000D01*
X10800000Y-3750000D02*
X10900000Y-3850000D01*
X10900000Y-3750000D02*
X10800000Y-3850000D01*
X10850000Y-3850000D02*
X10900000Y-3800000D01*
X10850000Y-3750000D01*
X10800000Y-3800000D01*
X10850000Y-3850000D01*
X11345500Y-9691000D02*
X11445500Y-9791000D01*
X11445500Y-9691000D02*
X11345500Y-9791000D01*
X11395500Y-9791000D02*
X11445500Y-9741000D01*
X11395500Y-9691000D01*
X11345500Y-9741000D01*
X11395500Y-9791000D01*
X11484000Y-9975000D02*
X11584000Y-10075000D01*
X11584000Y-9975000D02*
X11484000Y-10075000D01*
X11534000Y-10075000D02*
X11584000Y-10025000D01*
X11534000Y-9975000D01*
X11484000Y-10025000D01*
X11534000Y-10075000D01*
X11622500Y-9691000D02*
X11722500Y-9791000D01*
X11722500Y-9691000D02*
X11622500Y-9791000D01*
X11672500Y-9791000D02*
X11722500Y-9741000D01*
X11672500Y-9691000D01*
X11622500Y-9741000D01*
X11672500Y-9791000D01*
X11761000Y-9975000D02*
X11861000Y-10075000D01*
X11861000Y-9975000D02*
X11761000Y-10075000D01*
X11811000Y-10075000D02*
X11861000Y-10025000D01*
X11811000Y-9975000D01*
X11761000Y-10025000D01*
X11811000Y-10075000D01*
X11899500Y-9691000D02*
X11999500Y-9791000D01*
X11999500Y-9691000D02*
X11899500Y-9791000D01*
X11949500Y-9791000D02*
X11999500Y-9741000D01*
X11949500Y-9691000D01*
X11899500Y-9741000D01*
X11949500Y-9791000D01*
X12038000Y-9975000D02*
X12138000Y-10075000D01*
X12138000Y-9975000D02*
X12038000Y-10075000D01*
X12088000Y-10075000D02*
X12138000Y-10025000D01*
X12088000Y-9975000D01*
X12038000Y-10025000D01*
X12088000Y-10075000D01*
X12176500Y-9691000D02*
X12276500Y-9791000D01*
X12276500Y-9691000D02*
X12176500Y-9791000D01*
X12226500Y-9791000D02*
X12276500Y-9741000D01*
X12226500Y-9691000D01*
X12176500Y-9741000D01*
X12226500Y-9791000D01*
X12315000Y-9975000D02*
X12415000Y-10075000D01*
X12415000Y-9975000D02*
X12315000Y-10075000D01*
X12365000Y-10075000D02*
X12415000Y-10025000D01*
X12365000Y-9975000D01*
X12315000Y-10025000D01*
X12365000Y-10075000D01*
X12453500Y-9691000D02*
X12553500Y-9791000D01*
X12553500Y-9691000D02*
X12453500Y-9791000D01*
X12503500Y-9791000D02*
X12553500Y-9741000D01*
X12503500Y-9691000D01*
X12453500Y-9741000D01*
X12503500Y-9791000D01*
D13*
X2906500Y-3142000D02*
X2906500Y-3462000D01*
X2746500Y-3302000D02*
X3066500Y-3302000D01*
X3066500Y-3302000D02*
G75*
G02*
X2746500Y-3302000I-160000J0D01*
G01*
X2746500Y-3302000D02*
G75*
G02*
X3066500Y-3302000I160000J0D01*
G01*
X5406500Y-3142000D02*
X5406500Y-3462000D01*
X5246500Y-3302000D02*
X5566500Y-3302000D01*
X5566500Y-3302000D02*
G75*
G02*
X5246500Y-3302000I-160000J0D01*
G01*
X5246500Y-3302000D02*
G75*
G02*
X5566500Y-3302000I160000J0D01*
G01*
X6404500Y-3142000D02*
X6404500Y-3462000D01*
X6244500Y-3302000D02*
X6564500Y-3302000D01*
X6564500Y-3302000D02*
G75*
G02*
X6244500Y-3302000I-160000J0D01*
G01*
X6244500Y-3302000D02*
G75*
G02*
X6564500Y-3302000I160000J0D01*
G01*
X8904500Y-3142000D02*
X8904500Y-3462000D01*
X8744500Y-3302000D02*
X9064500Y-3302000D01*
X9064500Y-3302000D02*
G75*
G02*
X8744500Y-3302000I-160000J0D01*
G01*
X8744500Y-3302000D02*
G75*
G02*
X9064500Y-3302000I160000J0D01*
G01*
X10699500Y-9723000D02*
X10699500Y-10043000D01*
X10539500Y-9883000D02*
X10859500Y-9883000D01*
X10859500Y-9883000D02*
G75*
G02*
X10539500Y-9883000I-160000J0D01*
G01*
X10539500Y-9883000D02*
G75*
G02*
X10859500Y-9883000I160000J0D01*
G01*
X13199500Y-9723000D02*
X13199500Y-10043000D01*
X13039500Y-9883000D02*
X13359500Y-9883000D01*
X13359500Y-9883000D02*
G75*
G02*
X13039500Y-9883000I-160000J0D01*
G01*
X13039500Y-9883000D02*
G75*
G02*
X13359500Y-9883000I160000J0D01*
G01*
D11*
X1758277Y-11063984D02*
X1758277Y-10863984D01*
X1758277Y-10863984D02*
X1805896Y-10863984D01*
X1805896Y-10863984D02*
X1834467Y-10873508D01*
X1834467Y-10873508D02*
X1853515Y-10892555D01*
X1853515Y-10892555D02*
X1863039Y-10911603D01*
X1863039Y-10911603D02*
X1872562Y-10949698D01*
X1872562Y-10949698D02*
X1872562Y-10978270D01*
X1872562Y-10978270D02*
X1863039Y-11016365D01*
X1863039Y-11016365D02*
X1853515Y-11035412D01*
X1853515Y-11035412D02*
X1834467Y-11054460D01*
X1834467Y-11054460D02*
X1805896Y-11063984D01*
X1805896Y-11063984D02*
X1758277Y-11063984D01*
X1958277Y-11063984D02*
X1958277Y-10930650D01*
X1958277Y-10968746D02*
X1967801Y-10949698D01*
X1967801Y-10949698D02*
X1977324Y-10940174D01*
X1977324Y-10940174D02*
X1996372Y-10930650D01*
X1996372Y-10930650D02*
X2015420Y-10930650D01*
X2082086Y-11063984D02*
X2082086Y-10930650D01*
X2082086Y-10863984D02*
X2072562Y-10873508D01*
X2072562Y-10873508D02*
X2082086Y-10883031D01*
X2082086Y-10883031D02*
X2091610Y-10873508D01*
X2091610Y-10873508D02*
X2082086Y-10863984D01*
X2082086Y-10863984D02*
X2082086Y-10883031D01*
X2205896Y-11063984D02*
X2186848Y-11054460D01*
X2186848Y-11054460D02*
X2177324Y-11035412D01*
X2177324Y-11035412D02*
X2177324Y-10863984D01*
X2310658Y-11063984D02*
X2291610Y-11054460D01*
X2291610Y-11054460D02*
X2282086Y-11035412D01*
X2282086Y-11035412D02*
X2282086Y-10863984D01*
X2539229Y-11063984D02*
X2539229Y-10863984D01*
X2539229Y-10863984D02*
X2605896Y-11006841D01*
X2605896Y-11006841D02*
X2672563Y-10863984D01*
X2672563Y-10863984D02*
X2672563Y-11063984D01*
X2853515Y-11063984D02*
X2853515Y-10959222D01*
X2853515Y-10959222D02*
X2843991Y-10940174D01*
X2843991Y-10940174D02*
X2824943Y-10930650D01*
X2824943Y-10930650D02*
X2786848Y-10930650D01*
X2786848Y-10930650D02*
X2767801Y-10940174D01*
X2853515Y-11054460D02*
X2834467Y-11063984D01*
X2834467Y-11063984D02*
X2786848Y-11063984D01*
X2786848Y-11063984D02*
X2767801Y-11054460D01*
X2767801Y-11054460D02*
X2758277Y-11035412D01*
X2758277Y-11035412D02*
X2758277Y-11016365D01*
X2758277Y-11016365D02*
X2767801Y-10997317D01*
X2767801Y-10997317D02*
X2786848Y-10987793D01*
X2786848Y-10987793D02*
X2834467Y-10987793D01*
X2834467Y-10987793D02*
X2853515Y-10978270D01*
X2948753Y-10930650D02*
X2948753Y-11130650D01*
X2948753Y-10940174D02*
X2967801Y-10930650D01*
X2967801Y-10930650D02*
X3005896Y-10930650D01*
X3005896Y-10930650D02*
X3024943Y-10940174D01*
X3024943Y-10940174D02*
X3034467Y-10949698D01*
X3034467Y-10949698D02*
X3043991Y-10968746D01*
X3043991Y-10968746D02*
X3043991Y-11025889D01*
X3043991Y-11025889D02*
X3034467Y-11044936D01*
X3034467Y-11044936D02*
X3024943Y-11054460D01*
X3024943Y-11054460D02*
X3005896Y-11063984D01*
X3005896Y-11063984D02*
X2967801Y-11063984D01*
X2967801Y-11063984D02*
X2948753Y-11054460D01*
X3129705Y-11044936D02*
X3139229Y-11054460D01*
X3139229Y-11054460D02*
X3129705Y-11063984D01*
X3129705Y-11063984D02*
X3120182Y-11054460D01*
X3120182Y-11054460D02*
X3129705Y-11044936D01*
X3129705Y-11044936D02*
X3129705Y-11063984D01*
X3129705Y-10940174D02*
X3139229Y-10949698D01*
X3139229Y-10949698D02*
X3129705Y-10959222D01*
X3129705Y-10959222D02*
X3120182Y-10949698D01*
X3120182Y-10949698D02*
X3129705Y-10940174D01*
X3129705Y-10940174D02*
X3129705Y-10959222D01*
D12*
X1467500Y-11377500D02*
X1497500Y-11407500D01*
X1497500Y-11377500D02*
X1467500Y-11407500D01*
D11*
X1796372Y-11283984D02*
X1815420Y-11283984D01*
X1815420Y-11283984D02*
X1834467Y-11293508D01*
X1834467Y-11293508D02*
X1843991Y-11303031D01*
X1843991Y-11303031D02*
X1853515Y-11322079D01*
X1853515Y-11322079D02*
X1863039Y-11360174D01*
X1863039Y-11360174D02*
X1863039Y-11407793D01*
X1863039Y-11407793D02*
X1853515Y-11445888D01*
X1853515Y-11445888D02*
X1843991Y-11464936D01*
X1843991Y-11464936D02*
X1834467Y-11474460D01*
X1834467Y-11474460D02*
X1815420Y-11483984D01*
X1815420Y-11483984D02*
X1796372Y-11483984D01*
X1796372Y-11483984D02*
X1777324Y-11474460D01*
X1777324Y-11474460D02*
X1767801Y-11464936D01*
X1767801Y-11464936D02*
X1758277Y-11445888D01*
X1758277Y-11445888D02*
X1748753Y-11407793D01*
X1748753Y-11407793D02*
X1748753Y-11360174D01*
X1748753Y-11360174D02*
X1758277Y-11322079D01*
X1758277Y-11322079D02*
X1767801Y-11303031D01*
X1767801Y-11303031D02*
X1777324Y-11293508D01*
X1777324Y-11293508D02*
X1796372Y-11283984D01*
X1948753Y-11464936D02*
X1958277Y-11474460D01*
X1958277Y-11474460D02*
X1948753Y-11483984D01*
X1948753Y-11483984D02*
X1939229Y-11474460D01*
X1939229Y-11474460D02*
X1948753Y-11464936D01*
X1948753Y-11464936D02*
X1948753Y-11483984D01*
X2024943Y-11283984D02*
X2148753Y-11283984D01*
X2148753Y-11283984D02*
X2082086Y-11360174D01*
X2082086Y-11360174D02*
X2110658Y-11360174D01*
X2110658Y-11360174D02*
X2129705Y-11369698D01*
X2129705Y-11369698D02*
X2139229Y-11379222D01*
X2139229Y-11379222D02*
X2148753Y-11398269D01*
X2148753Y-11398269D02*
X2148753Y-11445888D01*
X2148753Y-11445888D02*
X2139229Y-11464936D01*
X2139229Y-11464936D02*
X2129705Y-11474460D01*
X2129705Y-11474460D02*
X2110658Y-11483984D01*
X2110658Y-11483984D02*
X2053515Y-11483984D01*
X2053515Y-11483984D02*
X2034467Y-11474460D01*
X2034467Y-11474460D02*
X2024943Y-11464936D01*
X2272563Y-11283984D02*
X2291610Y-11283984D01*
X2291610Y-11283984D02*
X2310658Y-11293508D01*
X2310658Y-11293508D02*
X2320182Y-11303031D01*
X2320182Y-11303031D02*
X2329705Y-11322079D01*
X2329705Y-11322079D02*
X2339229Y-11360174D01*
X2339229Y-11360174D02*
X2339229Y-11407793D01*
X2339229Y-11407793D02*
X2329705Y-11445888D01*
X2329705Y-11445888D02*
X2320182Y-11464936D01*
X2320182Y-11464936D02*
X2310658Y-11474460D01*
X2310658Y-11474460D02*
X2291610Y-11483984D01*
X2291610Y-11483984D02*
X2272563Y-11483984D01*
X2272563Y-11483984D02*
X2253515Y-11474460D01*
X2253515Y-11474460D02*
X2243991Y-11464936D01*
X2243991Y-11464936D02*
X2234467Y-11445888D01*
X2234467Y-11445888D02*
X2224944Y-11407793D01*
X2224944Y-11407793D02*
X2224944Y-11360174D01*
X2224944Y-11360174D02*
X2234467Y-11322079D01*
X2234467Y-11322079D02*
X2243991Y-11303031D01*
X2243991Y-11303031D02*
X2253515Y-11293508D01*
X2253515Y-11293508D02*
X2272563Y-11283984D01*
X2463039Y-11283984D02*
X2482086Y-11283984D01*
X2482086Y-11283984D02*
X2501134Y-11293508D01*
X2501134Y-11293508D02*
X2510658Y-11303031D01*
X2510658Y-11303031D02*
X2520182Y-11322079D01*
X2520182Y-11322079D02*
X2529705Y-11360174D01*
X2529705Y-11360174D02*
X2529705Y-11407793D01*
X2529705Y-11407793D02*
X2520182Y-11445888D01*
X2520182Y-11445888D02*
X2510658Y-11464936D01*
X2510658Y-11464936D02*
X2501134Y-11474460D01*
X2501134Y-11474460D02*
X2482086Y-11483984D01*
X2482086Y-11483984D02*
X2463039Y-11483984D01*
X2463039Y-11483984D02*
X2443991Y-11474460D01*
X2443991Y-11474460D02*
X2434467Y-11464936D01*
X2434467Y-11464936D02*
X2424944Y-11445888D01*
X2424944Y-11445888D02*
X2415420Y-11407793D01*
X2415420Y-11407793D02*
X2415420Y-11360174D01*
X2415420Y-11360174D02*
X2424944Y-11322079D01*
X2424944Y-11322079D02*
X2434467Y-11303031D01*
X2434467Y-11303031D02*
X2443991Y-11293508D01*
X2443991Y-11293508D02*
X2463039Y-11283984D01*
X2615420Y-11483984D02*
X2615420Y-11350650D01*
X2615420Y-11369698D02*
X2624944Y-11360174D01*
X2624944Y-11360174D02*
X2643991Y-11350650D01*
X2643991Y-11350650D02*
X2672563Y-11350650D01*
X2672563Y-11350650D02*
X2691610Y-11360174D01*
X2691610Y-11360174D02*
X2701134Y-11379222D01*
X2701134Y-11379222D02*
X2701134Y-11483984D01*
X2701134Y-11379222D02*
X2710658Y-11360174D01*
X2710658Y-11360174D02*
X2729705Y-11350650D01*
X2729705Y-11350650D02*
X2758277Y-11350650D01*
X2758277Y-11350650D02*
X2777325Y-11360174D01*
X2777325Y-11360174D02*
X2786848Y-11379222D01*
X2786848Y-11379222D02*
X2786848Y-11483984D01*
X2882086Y-11483984D02*
X2882086Y-11350650D01*
X2882086Y-11369698D02*
X2891610Y-11360174D01*
X2891610Y-11360174D02*
X2910658Y-11350650D01*
X2910658Y-11350650D02*
X2939229Y-11350650D01*
X2939229Y-11350650D02*
X2958277Y-11360174D01*
X2958277Y-11360174D02*
X2967801Y-11379222D01*
X2967801Y-11379222D02*
X2967801Y-11483984D01*
X2967801Y-11379222D02*
X2977324Y-11360174D01*
X2977324Y-11360174D02*
X2996372Y-11350650D01*
X2996372Y-11350650D02*
X3024943Y-11350650D01*
X3024943Y-11350650D02*
X3043991Y-11360174D01*
X3043991Y-11360174D02*
X3053515Y-11379222D01*
X3053515Y-11379222D02*
X3053515Y-11483984D01*
X3443991Y-11274460D02*
X3272563Y-11531603D01*
X3701134Y-11283984D02*
X3720182Y-11283984D01*
X3720182Y-11283984D02*
X3739229Y-11293508D01*
X3739229Y-11293508D02*
X3748753Y-11303031D01*
X3748753Y-11303031D02*
X3758277Y-11322079D01*
X3758277Y-11322079D02*
X3767801Y-11360174D01*
X3767801Y-11360174D02*
X3767801Y-11407793D01*
X3767801Y-11407793D02*
X3758277Y-11445888D01*
X3758277Y-11445888D02*
X3748753Y-11464936D01*
X3748753Y-11464936D02*
X3739229Y-11474460D01*
X3739229Y-11474460D02*
X3720182Y-11483984D01*
X3720182Y-11483984D02*
X3701134Y-11483984D01*
X3701134Y-11483984D02*
X3682086Y-11474460D01*
X3682086Y-11474460D02*
X3672563Y-11464936D01*
X3672563Y-11464936D02*
X3663039Y-11445888D01*
X3663039Y-11445888D02*
X3653515Y-11407793D01*
X3653515Y-11407793D02*
X3653515Y-11360174D01*
X3653515Y-11360174D02*
X3663039Y-11322079D01*
X3663039Y-11322079D02*
X3672563Y-11303031D01*
X3672563Y-11303031D02*
X3682086Y-11293508D01*
X3682086Y-11293508D02*
X3701134Y-11283984D01*
X3853515Y-11464936D02*
X3863039Y-11474460D01*
X3863039Y-11474460D02*
X3853515Y-11483984D01*
X3853515Y-11483984D02*
X3843991Y-11474460D01*
X3843991Y-11474460D02*
X3853515Y-11464936D01*
X3853515Y-11464936D02*
X3853515Y-11483984D01*
X3986848Y-11283984D02*
X4005896Y-11283984D01*
X4005896Y-11283984D02*
X4024944Y-11293508D01*
X4024944Y-11293508D02*
X4034467Y-11303031D01*
X4034467Y-11303031D02*
X4043991Y-11322079D01*
X4043991Y-11322079D02*
X4053515Y-11360174D01*
X4053515Y-11360174D02*
X4053515Y-11407793D01*
X4053515Y-11407793D02*
X4043991Y-11445888D01*
X4043991Y-11445888D02*
X4034467Y-11464936D01*
X4034467Y-11464936D02*
X4024944Y-11474460D01*
X4024944Y-11474460D02*
X4005896Y-11483984D01*
X4005896Y-11483984D02*
X3986848Y-11483984D01*
X3986848Y-11483984D02*
X3967801Y-11474460D01*
X3967801Y-11474460D02*
X3958277Y-11464936D01*
X3958277Y-11464936D02*
X3948753Y-11445888D01*
X3948753Y-11445888D02*
X3939229Y-11407793D01*
X3939229Y-11407793D02*
X3939229Y-11360174D01*
X3939229Y-11360174D02*
X3948753Y-11322079D01*
X3948753Y-11322079D02*
X3958277Y-11303031D01*
X3958277Y-11303031D02*
X3967801Y-11293508D01*
X3967801Y-11293508D02*
X3986848Y-11283984D01*
X4243991Y-11483984D02*
X4129706Y-11483984D01*
X4186848Y-11483984D02*
X4186848Y-11283984D01*
X4186848Y-11283984D02*
X4167801Y-11312555D01*
X4167801Y-11312555D02*
X4148753Y-11331603D01*
X4148753Y-11331603D02*
X4129706Y-11341127D01*
X4434468Y-11483984D02*
X4320182Y-11483984D01*
X4377325Y-11483984D02*
X4377325Y-11283984D01*
X4377325Y-11283984D02*
X4358277Y-11312555D01*
X4358277Y-11312555D02*
X4339229Y-11331603D01*
X4339229Y-11331603D02*
X4320182Y-11341127D01*
X4548753Y-11369698D02*
X4529706Y-11360174D01*
X4529706Y-11360174D02*
X4520182Y-11350650D01*
X4520182Y-11350650D02*
X4510658Y-11331603D01*
X4510658Y-11331603D02*
X4510658Y-11322079D01*
X4510658Y-11322079D02*
X4520182Y-11303031D01*
X4520182Y-11303031D02*
X4529706Y-11293508D01*
X4529706Y-11293508D02*
X4548753Y-11283984D01*
X4548753Y-11283984D02*
X4586849Y-11283984D01*
X4586849Y-11283984D02*
X4605896Y-11293508D01*
X4605896Y-11293508D02*
X4615420Y-11303031D01*
X4615420Y-11303031D02*
X4624944Y-11322079D01*
X4624944Y-11322079D02*
X4624944Y-11331603D01*
X4624944Y-11331603D02*
X4615420Y-11350650D01*
X4615420Y-11350650D02*
X4605896Y-11360174D01*
X4605896Y-11360174D02*
X4586849Y-11369698D01*
X4586849Y-11369698D02*
X4548753Y-11369698D01*
X4548753Y-11369698D02*
X4529706Y-11379222D01*
X4529706Y-11379222D02*
X4520182Y-11388746D01*
X4520182Y-11388746D02*
X4510658Y-11407793D01*
X4510658Y-11407793D02*
X4510658Y-11445888D01*
X4510658Y-11445888D02*
X4520182Y-11464936D01*
X4520182Y-11464936D02*
X4529706Y-11474460D01*
X4529706Y-11474460D02*
X4548753Y-11483984D01*
X4548753Y-11483984D02*
X4586849Y-11483984D01*
X4586849Y-11483984D02*
X4605896Y-11474460D01*
X4605896Y-11474460D02*
X4615420Y-11464936D01*
X4615420Y-11464936D02*
X4624944Y-11445888D01*
X4624944Y-11445888D02*
X4624944Y-11407793D01*
X4624944Y-11407793D02*
X4615420Y-11388746D01*
X4615420Y-11388746D02*
X4605896Y-11379222D01*
X4605896Y-11379222D02*
X4586849Y-11369698D01*
X4701134Y-11283984D02*
X4701134Y-11322079D01*
X4777325Y-11283984D02*
X4777325Y-11322079D01*
X5072563Y-11560174D02*
X5063039Y-11550650D01*
X5063039Y-11550650D02*
X5043991Y-11522079D01*
X5043991Y-11522079D02*
X5034468Y-11503031D01*
X5034468Y-11503031D02*
X5024944Y-11474460D01*
X5024944Y-11474460D02*
X5015420Y-11426841D01*
X5015420Y-11426841D02*
X5015420Y-11388746D01*
X5015420Y-11388746D02*
X5024944Y-11341127D01*
X5024944Y-11341127D02*
X5034468Y-11312555D01*
X5034468Y-11312555D02*
X5043991Y-11293508D01*
X5043991Y-11293508D02*
X5063039Y-11264936D01*
X5063039Y-11264936D02*
X5072563Y-11255412D01*
X5139230Y-11303031D02*
X5148753Y-11293508D01*
X5148753Y-11293508D02*
X5167801Y-11283984D01*
X5167801Y-11283984D02*
X5215420Y-11283984D01*
X5215420Y-11283984D02*
X5234468Y-11293508D01*
X5234468Y-11293508D02*
X5243991Y-11303031D01*
X5243991Y-11303031D02*
X5253515Y-11322079D01*
X5253515Y-11322079D02*
X5253515Y-11341127D01*
X5253515Y-11341127D02*
X5243991Y-11369698D01*
X5243991Y-11369698D02*
X5129706Y-11483984D01*
X5129706Y-11483984D02*
X5253515Y-11483984D01*
X5320182Y-11283984D02*
X5443991Y-11283984D01*
X5443991Y-11283984D02*
X5377325Y-11360174D01*
X5377325Y-11360174D02*
X5405896Y-11360174D01*
X5405896Y-11360174D02*
X5424944Y-11369698D01*
X5424944Y-11369698D02*
X5434468Y-11379222D01*
X5434468Y-11379222D02*
X5443991Y-11398269D01*
X5443991Y-11398269D02*
X5443991Y-11445888D01*
X5443991Y-11445888D02*
X5434468Y-11464936D01*
X5434468Y-11464936D02*
X5424944Y-11474460D01*
X5424944Y-11474460D02*
X5405896Y-11483984D01*
X5405896Y-11483984D02*
X5348753Y-11483984D01*
X5348753Y-11483984D02*
X5329706Y-11474460D01*
X5329706Y-11474460D02*
X5320182Y-11464936D01*
X5682087Y-11483984D02*
X5682087Y-11283984D01*
X5767801Y-11483984D02*
X5767801Y-11379222D01*
X5767801Y-11379222D02*
X5758277Y-11360174D01*
X5758277Y-11360174D02*
X5739230Y-11350650D01*
X5739230Y-11350650D02*
X5710658Y-11350650D01*
X5710658Y-11350650D02*
X5691610Y-11360174D01*
X5691610Y-11360174D02*
X5682087Y-11369698D01*
X5891610Y-11483984D02*
X5872563Y-11474460D01*
X5872563Y-11474460D02*
X5863039Y-11464936D01*
X5863039Y-11464936D02*
X5853515Y-11445888D01*
X5853515Y-11445888D02*
X5853515Y-11388746D01*
X5853515Y-11388746D02*
X5863039Y-11369698D01*
X5863039Y-11369698D02*
X5872563Y-11360174D01*
X5872563Y-11360174D02*
X5891610Y-11350650D01*
X5891610Y-11350650D02*
X5920182Y-11350650D01*
X5920182Y-11350650D02*
X5939230Y-11360174D01*
X5939230Y-11360174D02*
X5948753Y-11369698D01*
X5948753Y-11369698D02*
X5958277Y-11388746D01*
X5958277Y-11388746D02*
X5958277Y-11445888D01*
X5958277Y-11445888D02*
X5948753Y-11464936D01*
X5948753Y-11464936D02*
X5939230Y-11474460D01*
X5939230Y-11474460D02*
X5920182Y-11483984D01*
X5920182Y-11483984D02*
X5891610Y-11483984D01*
X6072563Y-11483984D02*
X6053515Y-11474460D01*
X6053515Y-11474460D02*
X6043991Y-11455412D01*
X6043991Y-11455412D02*
X6043991Y-11283984D01*
X6224944Y-11474460D02*
X6205896Y-11483984D01*
X6205896Y-11483984D02*
X6167801Y-11483984D01*
X6167801Y-11483984D02*
X6148753Y-11474460D01*
X6148753Y-11474460D02*
X6139230Y-11455412D01*
X6139230Y-11455412D02*
X6139230Y-11379222D01*
X6139230Y-11379222D02*
X6148753Y-11360174D01*
X6148753Y-11360174D02*
X6167801Y-11350650D01*
X6167801Y-11350650D02*
X6205896Y-11350650D01*
X6205896Y-11350650D02*
X6224944Y-11360174D01*
X6224944Y-11360174D02*
X6234468Y-11379222D01*
X6234468Y-11379222D02*
X6234468Y-11398269D01*
X6234468Y-11398269D02*
X6139230Y-11417317D01*
X6310658Y-11474460D02*
X6329706Y-11483984D01*
X6329706Y-11483984D02*
X6367801Y-11483984D01*
X6367801Y-11483984D02*
X6386849Y-11474460D01*
X6386849Y-11474460D02*
X6396372Y-11455412D01*
X6396372Y-11455412D02*
X6396372Y-11445888D01*
X6396372Y-11445888D02*
X6386849Y-11426841D01*
X6386849Y-11426841D02*
X6367801Y-11417317D01*
X6367801Y-11417317D02*
X6339230Y-11417317D01*
X6339230Y-11417317D02*
X6320182Y-11407793D01*
X6320182Y-11407793D02*
X6310658Y-11388746D01*
X6310658Y-11388746D02*
X6310658Y-11379222D01*
X6310658Y-11379222D02*
X6320182Y-11360174D01*
X6320182Y-11360174D02*
X6339230Y-11350650D01*
X6339230Y-11350650D02*
X6367801Y-11350650D01*
X6367801Y-11350650D02*
X6386849Y-11360174D01*
X6463039Y-11560174D02*
X6472563Y-11550650D01*
X6472563Y-11550650D02*
X6491611Y-11522079D01*
X6491611Y-11522079D02*
X6501134Y-11503031D01*
X6501134Y-11503031D02*
X6510658Y-11474460D01*
X6510658Y-11474460D02*
X6520182Y-11426841D01*
X6520182Y-11426841D02*
X6520182Y-11388746D01*
X6520182Y-11388746D02*
X6510658Y-11341127D01*
X6510658Y-11341127D02*
X6501134Y-11312555D01*
X6501134Y-11312555D02*
X6491611Y-11293508D01*
X6491611Y-11293508D02*
X6472563Y-11264936D01*
X6472563Y-11264936D02*
X6463039Y-11255412D01*
D12*
X1497500Y-11656500D02*
G75*
G02*
X1447500Y-11656500I-25000J0D01*
G01*
X1447500Y-11656500D02*
G75*
G02*
X1497500Y-11656500I25000J0D01*
G01*
D11*
X1796372Y-11547984D02*
X1815420Y-11547984D01*
X1815420Y-11547984D02*
X1834467Y-11557508D01*
X1834467Y-11557508D02*
X1843991Y-11567031D01*
X1843991Y-11567031D02*
X1853515Y-11586079D01*
X1853515Y-11586079D02*
X1863039Y-11624174D01*
X1863039Y-11624174D02*
X1863039Y-11671793D01*
X1863039Y-11671793D02*
X1853515Y-11709888D01*
X1853515Y-11709888D02*
X1843991Y-11728936D01*
X1843991Y-11728936D02*
X1834467Y-11738460D01*
X1834467Y-11738460D02*
X1815420Y-11747984D01*
X1815420Y-11747984D02*
X1796372Y-11747984D01*
X1796372Y-11747984D02*
X1777324Y-11738460D01*
X1777324Y-11738460D02*
X1767801Y-11728936D01*
X1767801Y-11728936D02*
X1758277Y-11709888D01*
X1758277Y-11709888D02*
X1748753Y-11671793D01*
X1748753Y-11671793D02*
X1748753Y-11624174D01*
X1748753Y-11624174D02*
X1758277Y-11586079D01*
X1758277Y-11586079D02*
X1767801Y-11567031D01*
X1767801Y-11567031D02*
X1777324Y-11557508D01*
X1777324Y-11557508D02*
X1796372Y-11547984D01*
X1948753Y-11728936D02*
X1958277Y-11738460D01*
X1958277Y-11738460D02*
X1948753Y-11747984D01*
X1948753Y-11747984D02*
X1939229Y-11738460D01*
X1939229Y-11738460D02*
X1948753Y-11728936D01*
X1948753Y-11728936D02*
X1948753Y-11747984D01*
X2139229Y-11547984D02*
X2043991Y-11547984D01*
X2043991Y-11547984D02*
X2034467Y-11643222D01*
X2034467Y-11643222D02*
X2043991Y-11633698D01*
X2043991Y-11633698D02*
X2063039Y-11624174D01*
X2063039Y-11624174D02*
X2110658Y-11624174D01*
X2110658Y-11624174D02*
X2129705Y-11633698D01*
X2129705Y-11633698D02*
X2139229Y-11643222D01*
X2139229Y-11643222D02*
X2148753Y-11662269D01*
X2148753Y-11662269D02*
X2148753Y-11709888D01*
X2148753Y-11709888D02*
X2139229Y-11728936D01*
X2139229Y-11728936D02*
X2129705Y-11738460D01*
X2129705Y-11738460D02*
X2110658Y-11747984D01*
X2110658Y-11747984D02*
X2063039Y-11747984D01*
X2063039Y-11747984D02*
X2043991Y-11738460D01*
X2043991Y-11738460D02*
X2034467Y-11728936D01*
X2272563Y-11547984D02*
X2291610Y-11547984D01*
X2291610Y-11547984D02*
X2310658Y-11557508D01*
X2310658Y-11557508D02*
X2320182Y-11567031D01*
X2320182Y-11567031D02*
X2329705Y-11586079D01*
X2329705Y-11586079D02*
X2339229Y-11624174D01*
X2339229Y-11624174D02*
X2339229Y-11671793D01*
X2339229Y-11671793D02*
X2329705Y-11709888D01*
X2329705Y-11709888D02*
X2320182Y-11728936D01*
X2320182Y-11728936D02*
X2310658Y-11738460D01*
X2310658Y-11738460D02*
X2291610Y-11747984D01*
X2291610Y-11747984D02*
X2272563Y-11747984D01*
X2272563Y-11747984D02*
X2253515Y-11738460D01*
X2253515Y-11738460D02*
X2243991Y-11728936D01*
X2243991Y-11728936D02*
X2234467Y-11709888D01*
X2234467Y-11709888D02*
X2224944Y-11671793D01*
X2224944Y-11671793D02*
X2224944Y-11624174D01*
X2224944Y-11624174D02*
X2234467Y-11586079D01*
X2234467Y-11586079D02*
X2243991Y-11567031D01*
X2243991Y-11567031D02*
X2253515Y-11557508D01*
X2253515Y-11557508D02*
X2272563Y-11547984D01*
X2463039Y-11547984D02*
X2482086Y-11547984D01*
X2482086Y-11547984D02*
X2501134Y-11557508D01*
X2501134Y-11557508D02*
X2510658Y-11567031D01*
X2510658Y-11567031D02*
X2520182Y-11586079D01*
X2520182Y-11586079D02*
X2529705Y-11624174D01*
X2529705Y-11624174D02*
X2529705Y-11671793D01*
X2529705Y-11671793D02*
X2520182Y-11709888D01*
X2520182Y-11709888D02*
X2510658Y-11728936D01*
X2510658Y-11728936D02*
X2501134Y-11738460D01*
X2501134Y-11738460D02*
X2482086Y-11747984D01*
X2482086Y-11747984D02*
X2463039Y-11747984D01*
X2463039Y-11747984D02*
X2443991Y-11738460D01*
X2443991Y-11738460D02*
X2434467Y-11728936D01*
X2434467Y-11728936D02*
X2424944Y-11709888D01*
X2424944Y-11709888D02*
X2415420Y-11671793D01*
X2415420Y-11671793D02*
X2415420Y-11624174D01*
X2415420Y-11624174D02*
X2424944Y-11586079D01*
X2424944Y-11586079D02*
X2434467Y-11567031D01*
X2434467Y-11567031D02*
X2443991Y-11557508D01*
X2443991Y-11557508D02*
X2463039Y-11547984D01*
X2615420Y-11747984D02*
X2615420Y-11614650D01*
X2615420Y-11633698D02*
X2624944Y-11624174D01*
X2624944Y-11624174D02*
X2643991Y-11614650D01*
X2643991Y-11614650D02*
X2672563Y-11614650D01*
X2672563Y-11614650D02*
X2691610Y-11624174D01*
X2691610Y-11624174D02*
X2701134Y-11643222D01*
X2701134Y-11643222D02*
X2701134Y-11747984D01*
X2701134Y-11643222D02*
X2710658Y-11624174D01*
X2710658Y-11624174D02*
X2729705Y-11614650D01*
X2729705Y-11614650D02*
X2758277Y-11614650D01*
X2758277Y-11614650D02*
X2777325Y-11624174D01*
X2777325Y-11624174D02*
X2786848Y-11643222D01*
X2786848Y-11643222D02*
X2786848Y-11747984D01*
X2882086Y-11747984D02*
X2882086Y-11614650D01*
X2882086Y-11633698D02*
X2891610Y-11624174D01*
X2891610Y-11624174D02*
X2910658Y-11614650D01*
X2910658Y-11614650D02*
X2939229Y-11614650D01*
X2939229Y-11614650D02*
X2958277Y-11624174D01*
X2958277Y-11624174D02*
X2967801Y-11643222D01*
X2967801Y-11643222D02*
X2967801Y-11747984D01*
X2967801Y-11643222D02*
X2977324Y-11624174D01*
X2977324Y-11624174D02*
X2996372Y-11614650D01*
X2996372Y-11614650D02*
X3024943Y-11614650D01*
X3024943Y-11614650D02*
X3043991Y-11624174D01*
X3043991Y-11624174D02*
X3053515Y-11643222D01*
X3053515Y-11643222D02*
X3053515Y-11747984D01*
X3443991Y-11538460D02*
X3272563Y-11795603D01*
X3701134Y-11547984D02*
X3720182Y-11547984D01*
X3720182Y-11547984D02*
X3739229Y-11557508D01*
X3739229Y-11557508D02*
X3748753Y-11567031D01*
X3748753Y-11567031D02*
X3758277Y-11586079D01*
X3758277Y-11586079D02*
X3767801Y-11624174D01*
X3767801Y-11624174D02*
X3767801Y-11671793D01*
X3767801Y-11671793D02*
X3758277Y-11709888D01*
X3758277Y-11709888D02*
X3748753Y-11728936D01*
X3748753Y-11728936D02*
X3739229Y-11738460D01*
X3739229Y-11738460D02*
X3720182Y-11747984D01*
X3720182Y-11747984D02*
X3701134Y-11747984D01*
X3701134Y-11747984D02*
X3682086Y-11738460D01*
X3682086Y-11738460D02*
X3672563Y-11728936D01*
X3672563Y-11728936D02*
X3663039Y-11709888D01*
X3663039Y-11709888D02*
X3653515Y-11671793D01*
X3653515Y-11671793D02*
X3653515Y-11624174D01*
X3653515Y-11624174D02*
X3663039Y-11586079D01*
X3663039Y-11586079D02*
X3672563Y-11567031D01*
X3672563Y-11567031D02*
X3682086Y-11557508D01*
X3682086Y-11557508D02*
X3701134Y-11547984D01*
X3853515Y-11728936D02*
X3863039Y-11738460D01*
X3863039Y-11738460D02*
X3853515Y-11747984D01*
X3853515Y-11747984D02*
X3843991Y-11738460D01*
X3843991Y-11738460D02*
X3853515Y-11728936D01*
X3853515Y-11728936D02*
X3853515Y-11747984D01*
X3986848Y-11547984D02*
X4005896Y-11547984D01*
X4005896Y-11547984D02*
X4024944Y-11557508D01*
X4024944Y-11557508D02*
X4034467Y-11567031D01*
X4034467Y-11567031D02*
X4043991Y-11586079D01*
X4043991Y-11586079D02*
X4053515Y-11624174D01*
X4053515Y-11624174D02*
X4053515Y-11671793D01*
X4053515Y-11671793D02*
X4043991Y-11709888D01*
X4043991Y-11709888D02*
X4034467Y-11728936D01*
X4034467Y-11728936D02*
X4024944Y-11738460D01*
X4024944Y-11738460D02*
X4005896Y-11747984D01*
X4005896Y-11747984D02*
X3986848Y-11747984D01*
X3986848Y-11747984D02*
X3967801Y-11738460D01*
X3967801Y-11738460D02*
X3958277Y-11728936D01*
X3958277Y-11728936D02*
X3948753Y-11709888D01*
X3948753Y-11709888D02*
X3939229Y-11671793D01*
X3939229Y-11671793D02*
X3939229Y-11624174D01*
X3939229Y-11624174D02*
X3948753Y-11586079D01*
X3948753Y-11586079D02*
X3958277Y-11567031D01*
X3958277Y-11567031D02*
X3967801Y-11557508D01*
X3967801Y-11557508D02*
X3986848Y-11547984D01*
X4243991Y-11747984D02*
X4129706Y-11747984D01*
X4186848Y-11747984D02*
X4186848Y-11547984D01*
X4186848Y-11547984D02*
X4167801Y-11576555D01*
X4167801Y-11576555D02*
X4148753Y-11595603D01*
X4148753Y-11595603D02*
X4129706Y-11605127D01*
X4339229Y-11747984D02*
X4377325Y-11747984D01*
X4377325Y-11747984D02*
X4396372Y-11738460D01*
X4396372Y-11738460D02*
X4405896Y-11728936D01*
X4405896Y-11728936D02*
X4424944Y-11700365D01*
X4424944Y-11700365D02*
X4434468Y-11662269D01*
X4434468Y-11662269D02*
X4434468Y-11586079D01*
X4434468Y-11586079D02*
X4424944Y-11567031D01*
X4424944Y-11567031D02*
X4415420Y-11557508D01*
X4415420Y-11557508D02*
X4396372Y-11547984D01*
X4396372Y-11547984D02*
X4358277Y-11547984D01*
X4358277Y-11547984D02*
X4339229Y-11557508D01*
X4339229Y-11557508D02*
X4329706Y-11567031D01*
X4329706Y-11567031D02*
X4320182Y-11586079D01*
X4320182Y-11586079D02*
X4320182Y-11633698D01*
X4320182Y-11633698D02*
X4329706Y-11652746D01*
X4329706Y-11652746D02*
X4339229Y-11662269D01*
X4339229Y-11662269D02*
X4358277Y-11671793D01*
X4358277Y-11671793D02*
X4396372Y-11671793D01*
X4396372Y-11671793D02*
X4415420Y-11662269D01*
X4415420Y-11662269D02*
X4424944Y-11652746D01*
X4424944Y-11652746D02*
X4434468Y-11633698D01*
X4501134Y-11547984D02*
X4634468Y-11547984D01*
X4634468Y-11547984D02*
X4548753Y-11747984D01*
X4701134Y-11547984D02*
X4701134Y-11586079D01*
X4777325Y-11547984D02*
X4777325Y-11586079D01*
X5072563Y-11824174D02*
X5063039Y-11814650D01*
X5063039Y-11814650D02*
X5043991Y-11786079D01*
X5043991Y-11786079D02*
X5034468Y-11767031D01*
X5034468Y-11767031D02*
X5024944Y-11738460D01*
X5024944Y-11738460D02*
X5015420Y-11690841D01*
X5015420Y-11690841D02*
X5015420Y-11652746D01*
X5015420Y-11652746D02*
X5024944Y-11605127D01*
X5024944Y-11605127D02*
X5034468Y-11576555D01*
X5034468Y-11576555D02*
X5043991Y-11557508D01*
X5043991Y-11557508D02*
X5063039Y-11528936D01*
X5063039Y-11528936D02*
X5072563Y-11519412D01*
X5186849Y-11547984D02*
X5205896Y-11547984D01*
X5205896Y-11547984D02*
X5224944Y-11557508D01*
X5224944Y-11557508D02*
X5234468Y-11567031D01*
X5234468Y-11567031D02*
X5243991Y-11586079D01*
X5243991Y-11586079D02*
X5253515Y-11624174D01*
X5253515Y-11624174D02*
X5253515Y-11671793D01*
X5253515Y-11671793D02*
X5243991Y-11709888D01*
X5243991Y-11709888D02*
X5234468Y-11728936D01*
X5234468Y-11728936D02*
X5224944Y-11738460D01*
X5224944Y-11738460D02*
X5205896Y-11747984D01*
X5205896Y-11747984D02*
X5186849Y-11747984D01*
X5186849Y-11747984D02*
X5167801Y-11738460D01*
X5167801Y-11738460D02*
X5158277Y-11728936D01*
X5158277Y-11728936D02*
X5148753Y-11709888D01*
X5148753Y-11709888D02*
X5139230Y-11671793D01*
X5139230Y-11671793D02*
X5139230Y-11624174D01*
X5139230Y-11624174D02*
X5148753Y-11586079D01*
X5148753Y-11586079D02*
X5158277Y-11567031D01*
X5158277Y-11567031D02*
X5167801Y-11557508D01*
X5167801Y-11557508D02*
X5186849Y-11547984D01*
X5491611Y-11747984D02*
X5491611Y-11547984D01*
X5577325Y-11747984D02*
X5577325Y-11643222D01*
X5577325Y-11643222D02*
X5567801Y-11624174D01*
X5567801Y-11624174D02*
X5548753Y-11614650D01*
X5548753Y-11614650D02*
X5520182Y-11614650D01*
X5520182Y-11614650D02*
X5501134Y-11624174D01*
X5501134Y-11624174D02*
X5491611Y-11633698D01*
X5701134Y-11747984D02*
X5682087Y-11738460D01*
X5682087Y-11738460D02*
X5672563Y-11728936D01*
X5672563Y-11728936D02*
X5663039Y-11709888D01*
X5663039Y-11709888D02*
X5663039Y-11652746D01*
X5663039Y-11652746D02*
X5672563Y-11633698D01*
X5672563Y-11633698D02*
X5682087Y-11624174D01*
X5682087Y-11624174D02*
X5701134Y-11614650D01*
X5701134Y-11614650D02*
X5729706Y-11614650D01*
X5729706Y-11614650D02*
X5748753Y-11624174D01*
X5748753Y-11624174D02*
X5758277Y-11633698D01*
X5758277Y-11633698D02*
X5767801Y-11652746D01*
X5767801Y-11652746D02*
X5767801Y-11709888D01*
X5767801Y-11709888D02*
X5758277Y-11728936D01*
X5758277Y-11728936D02*
X5748753Y-11738460D01*
X5748753Y-11738460D02*
X5729706Y-11747984D01*
X5729706Y-11747984D02*
X5701134Y-11747984D01*
X5882087Y-11747984D02*
X5863039Y-11738460D01*
X5863039Y-11738460D02*
X5853515Y-11719412D01*
X5853515Y-11719412D02*
X5853515Y-11547984D01*
X6034468Y-11738460D02*
X6015420Y-11747984D01*
X6015420Y-11747984D02*
X5977325Y-11747984D01*
X5977325Y-11747984D02*
X5958277Y-11738460D01*
X5958277Y-11738460D02*
X5948753Y-11719412D01*
X5948753Y-11719412D02*
X5948753Y-11643222D01*
X5948753Y-11643222D02*
X5958277Y-11624174D01*
X5958277Y-11624174D02*
X5977325Y-11614650D01*
X5977325Y-11614650D02*
X6015420Y-11614650D01*
X6015420Y-11614650D02*
X6034468Y-11624174D01*
X6034468Y-11624174D02*
X6043991Y-11643222D01*
X6043991Y-11643222D02*
X6043991Y-11662269D01*
X6043991Y-11662269D02*
X5948753Y-11681317D01*
X6120182Y-11738460D02*
X6139230Y-11747984D01*
X6139230Y-11747984D02*
X6177325Y-11747984D01*
X6177325Y-11747984D02*
X6196372Y-11738460D01*
X6196372Y-11738460D02*
X6205896Y-11719412D01*
X6205896Y-11719412D02*
X6205896Y-11709888D01*
X6205896Y-11709888D02*
X6196372Y-11690841D01*
X6196372Y-11690841D02*
X6177325Y-11681317D01*
X6177325Y-11681317D02*
X6148753Y-11681317D01*
X6148753Y-11681317D02*
X6129706Y-11671793D01*
X6129706Y-11671793D02*
X6120182Y-11652746D01*
X6120182Y-11652746D02*
X6120182Y-11643222D01*
X6120182Y-11643222D02*
X6129706Y-11624174D01*
X6129706Y-11624174D02*
X6148753Y-11614650D01*
X6148753Y-11614650D02*
X6177325Y-11614650D01*
X6177325Y-11614650D02*
X6196372Y-11624174D01*
X6443992Y-11671793D02*
X6596373Y-11671793D01*
X6520182Y-11747984D02*
X6520182Y-11595603D01*
X6853515Y-11747984D02*
X6891611Y-11747984D01*
X6891611Y-11747984D02*
X6910658Y-11738460D01*
X6910658Y-11738460D02*
X6920182Y-11728936D01*
X6920182Y-11728936D02*
X6939230Y-11700365D01*
X6939230Y-11700365D02*
X6948753Y-11662269D01*
X6948753Y-11662269D02*
X6948753Y-11586079D01*
X6948753Y-11586079D02*
X6939230Y-11567031D01*
X6939230Y-11567031D02*
X6929706Y-11557508D01*
X6929706Y-11557508D02*
X6910658Y-11547984D01*
X6910658Y-11547984D02*
X6872563Y-11547984D01*
X6872563Y-11547984D02*
X6853515Y-11557508D01*
X6853515Y-11557508D02*
X6843992Y-11567031D01*
X6843992Y-11567031D02*
X6834468Y-11586079D01*
X6834468Y-11586079D02*
X6834468Y-11633698D01*
X6834468Y-11633698D02*
X6843992Y-11652746D01*
X6843992Y-11652746D02*
X6853515Y-11662269D01*
X6853515Y-11662269D02*
X6872563Y-11671793D01*
X6872563Y-11671793D02*
X6910658Y-11671793D01*
X6910658Y-11671793D02*
X6929706Y-11662269D01*
X6929706Y-11662269D02*
X6939230Y-11652746D01*
X6939230Y-11652746D02*
X6948753Y-11633698D01*
X7177325Y-11738460D02*
X7196373Y-11747984D01*
X7196373Y-11747984D02*
X7234468Y-11747984D01*
X7234468Y-11747984D02*
X7253515Y-11738460D01*
X7253515Y-11738460D02*
X7263039Y-11719412D01*
X7263039Y-11719412D02*
X7263039Y-11709888D01*
X7263039Y-11709888D02*
X7253515Y-11690841D01*
X7253515Y-11690841D02*
X7234468Y-11681317D01*
X7234468Y-11681317D02*
X7205896Y-11681317D01*
X7205896Y-11681317D02*
X7186849Y-11671793D01*
X7186849Y-11671793D02*
X7177325Y-11652746D01*
X7177325Y-11652746D02*
X7177325Y-11643222D01*
X7177325Y-11643222D02*
X7186849Y-11624174D01*
X7186849Y-11624174D02*
X7205896Y-11614650D01*
X7205896Y-11614650D02*
X7234468Y-11614650D01*
X7234468Y-11614650D02*
X7253515Y-11624174D01*
X7377325Y-11747984D02*
X7358277Y-11738460D01*
X7358277Y-11738460D02*
X7348754Y-11719412D01*
X7348754Y-11719412D02*
X7348754Y-11547984D01*
X7482087Y-11747984D02*
X7463039Y-11738460D01*
X7463039Y-11738460D02*
X7453515Y-11728936D01*
X7453515Y-11728936D02*
X7443992Y-11709888D01*
X7443992Y-11709888D02*
X7443992Y-11652746D01*
X7443992Y-11652746D02*
X7453515Y-11633698D01*
X7453515Y-11633698D02*
X7463039Y-11624174D01*
X7463039Y-11624174D02*
X7482087Y-11614650D01*
X7482087Y-11614650D02*
X7510658Y-11614650D01*
X7510658Y-11614650D02*
X7529706Y-11624174D01*
X7529706Y-11624174D02*
X7539230Y-11633698D01*
X7539230Y-11633698D02*
X7548754Y-11652746D01*
X7548754Y-11652746D02*
X7548754Y-11709888D01*
X7548754Y-11709888D02*
X7539230Y-11728936D01*
X7539230Y-11728936D02*
X7529706Y-11738460D01*
X7529706Y-11738460D02*
X7510658Y-11747984D01*
X7510658Y-11747984D02*
X7482087Y-11747984D01*
X7605896Y-11614650D02*
X7682087Y-11614650D01*
X7634468Y-11547984D02*
X7634468Y-11719412D01*
X7634468Y-11719412D02*
X7643992Y-11738460D01*
X7643992Y-11738460D02*
X7663039Y-11747984D01*
X7663039Y-11747984D02*
X7682087Y-11747984D01*
X7739230Y-11738460D02*
X7758277Y-11747984D01*
X7758277Y-11747984D02*
X7796373Y-11747984D01*
X7796373Y-11747984D02*
X7815420Y-11738460D01*
X7815420Y-11738460D02*
X7824944Y-11719412D01*
X7824944Y-11719412D02*
X7824944Y-11709888D01*
X7824944Y-11709888D02*
X7815420Y-11690841D01*
X7815420Y-11690841D02*
X7796373Y-11681317D01*
X7796373Y-11681317D02*
X7767801Y-11681317D01*
X7767801Y-11681317D02*
X7748754Y-11671793D01*
X7748754Y-11671793D02*
X7739230Y-11652746D01*
X7739230Y-11652746D02*
X7739230Y-11643222D01*
X7739230Y-11643222D02*
X7748754Y-11624174D01*
X7748754Y-11624174D02*
X7767801Y-11614650D01*
X7767801Y-11614650D02*
X7796373Y-11614650D01*
X7796373Y-11614650D02*
X7815420Y-11624174D01*
X7891611Y-11824174D02*
X7901135Y-11814650D01*
X7901135Y-11814650D02*
X7920182Y-11786079D01*
X7920182Y-11786079D02*
X7929706Y-11767031D01*
X7929706Y-11767031D02*
X7939230Y-11738460D01*
X7939230Y-11738460D02*
X7948754Y-11690841D01*
X7948754Y-11690841D02*
X7948754Y-11652746D01*
X7948754Y-11652746D02*
X7939230Y-11605127D01*
X7939230Y-11605127D02*
X7929706Y-11576555D01*
X7929706Y-11576555D02*
X7920182Y-11557508D01*
X7920182Y-11557508D02*
X7901135Y-11528936D01*
X7901135Y-11528936D02*
X7891611Y-11519412D01*
D12*
X1467500Y-11890500D02*
X1467500Y-11950500D01*
X1437500Y-11920500D02*
X1497500Y-11920500D01*
D11*
X1796372Y-11811984D02*
X1815420Y-11811984D01*
X1815420Y-11811984D02*
X1834467Y-11821508D01*
X1834467Y-11821508D02*
X1843991Y-11831031D01*
X1843991Y-11831031D02*
X1853515Y-11850079D01*
X1853515Y-11850079D02*
X1863039Y-11888174D01*
X1863039Y-11888174D02*
X1863039Y-11935793D01*
X1863039Y-11935793D02*
X1853515Y-11973888D01*
X1853515Y-11973888D02*
X1843991Y-11992936D01*
X1843991Y-11992936D02*
X1834467Y-12002460D01*
X1834467Y-12002460D02*
X1815420Y-12011984D01*
X1815420Y-12011984D02*
X1796372Y-12011984D01*
X1796372Y-12011984D02*
X1777324Y-12002460D01*
X1777324Y-12002460D02*
X1767801Y-11992936D01*
X1767801Y-11992936D02*
X1758277Y-11973888D01*
X1758277Y-11973888D02*
X1748753Y-11935793D01*
X1748753Y-11935793D02*
X1748753Y-11888174D01*
X1748753Y-11888174D02*
X1758277Y-11850079D01*
X1758277Y-11850079D02*
X1767801Y-11831031D01*
X1767801Y-11831031D02*
X1777324Y-11821508D01*
X1777324Y-11821508D02*
X1796372Y-11811984D01*
X1948753Y-11992936D02*
X1958277Y-12002460D01*
X1958277Y-12002460D02*
X1948753Y-12011984D01*
X1948753Y-12011984D02*
X1939229Y-12002460D01*
X1939229Y-12002460D02*
X1948753Y-11992936D01*
X1948753Y-11992936D02*
X1948753Y-12011984D01*
X2129705Y-11811984D02*
X2091610Y-11811984D01*
X2091610Y-11811984D02*
X2072562Y-11821508D01*
X2072562Y-11821508D02*
X2063039Y-11831031D01*
X2063039Y-11831031D02*
X2043991Y-11859603D01*
X2043991Y-11859603D02*
X2034467Y-11897698D01*
X2034467Y-11897698D02*
X2034467Y-11973888D01*
X2034467Y-11973888D02*
X2043991Y-11992936D01*
X2043991Y-11992936D02*
X2053515Y-12002460D01*
X2053515Y-12002460D02*
X2072562Y-12011984D01*
X2072562Y-12011984D02*
X2110658Y-12011984D01*
X2110658Y-12011984D02*
X2129705Y-12002460D01*
X2129705Y-12002460D02*
X2139229Y-11992936D01*
X2139229Y-11992936D02*
X2148753Y-11973888D01*
X2148753Y-11973888D02*
X2148753Y-11926269D01*
X2148753Y-11926269D02*
X2139229Y-11907222D01*
X2139229Y-11907222D02*
X2129705Y-11897698D01*
X2129705Y-11897698D02*
X2110658Y-11888174D01*
X2110658Y-11888174D02*
X2072562Y-11888174D01*
X2072562Y-11888174D02*
X2053515Y-11897698D01*
X2053515Y-11897698D02*
X2043991Y-11907222D01*
X2043991Y-11907222D02*
X2034467Y-11926269D01*
X2272563Y-11811984D02*
X2291610Y-11811984D01*
X2291610Y-11811984D02*
X2310658Y-11821508D01*
X2310658Y-11821508D02*
X2320182Y-11831031D01*
X2320182Y-11831031D02*
X2329705Y-11850079D01*
X2329705Y-11850079D02*
X2339229Y-11888174D01*
X2339229Y-11888174D02*
X2339229Y-11935793D01*
X2339229Y-11935793D02*
X2329705Y-11973888D01*
X2329705Y-11973888D02*
X2320182Y-11992936D01*
X2320182Y-11992936D02*
X2310658Y-12002460D01*
X2310658Y-12002460D02*
X2291610Y-12011984D01*
X2291610Y-12011984D02*
X2272563Y-12011984D01*
X2272563Y-12011984D02*
X2253515Y-12002460D01*
X2253515Y-12002460D02*
X2243991Y-11992936D01*
X2243991Y-11992936D02*
X2234467Y-11973888D01*
X2234467Y-11973888D02*
X2224944Y-11935793D01*
X2224944Y-11935793D02*
X2224944Y-11888174D01*
X2224944Y-11888174D02*
X2234467Y-11850079D01*
X2234467Y-11850079D02*
X2243991Y-11831031D01*
X2243991Y-11831031D02*
X2253515Y-11821508D01*
X2253515Y-11821508D02*
X2272563Y-11811984D01*
X2463039Y-11811984D02*
X2482086Y-11811984D01*
X2482086Y-11811984D02*
X2501134Y-11821508D01*
X2501134Y-11821508D02*
X2510658Y-11831031D01*
X2510658Y-11831031D02*
X2520182Y-11850079D01*
X2520182Y-11850079D02*
X2529705Y-11888174D01*
X2529705Y-11888174D02*
X2529705Y-11935793D01*
X2529705Y-11935793D02*
X2520182Y-11973888D01*
X2520182Y-11973888D02*
X2510658Y-11992936D01*
X2510658Y-11992936D02*
X2501134Y-12002460D01*
X2501134Y-12002460D02*
X2482086Y-12011984D01*
X2482086Y-12011984D02*
X2463039Y-12011984D01*
X2463039Y-12011984D02*
X2443991Y-12002460D01*
X2443991Y-12002460D02*
X2434467Y-11992936D01*
X2434467Y-11992936D02*
X2424944Y-11973888D01*
X2424944Y-11973888D02*
X2415420Y-11935793D01*
X2415420Y-11935793D02*
X2415420Y-11888174D01*
X2415420Y-11888174D02*
X2424944Y-11850079D01*
X2424944Y-11850079D02*
X2434467Y-11831031D01*
X2434467Y-11831031D02*
X2443991Y-11821508D01*
X2443991Y-11821508D02*
X2463039Y-11811984D01*
X2615420Y-12011984D02*
X2615420Y-11878650D01*
X2615420Y-11897698D02*
X2624944Y-11888174D01*
X2624944Y-11888174D02*
X2643991Y-11878650D01*
X2643991Y-11878650D02*
X2672563Y-11878650D01*
X2672563Y-11878650D02*
X2691610Y-11888174D01*
X2691610Y-11888174D02*
X2701134Y-11907222D01*
X2701134Y-11907222D02*
X2701134Y-12011984D01*
X2701134Y-11907222D02*
X2710658Y-11888174D01*
X2710658Y-11888174D02*
X2729705Y-11878650D01*
X2729705Y-11878650D02*
X2758277Y-11878650D01*
X2758277Y-11878650D02*
X2777325Y-11888174D01*
X2777325Y-11888174D02*
X2786848Y-11907222D01*
X2786848Y-11907222D02*
X2786848Y-12011984D01*
X2882086Y-12011984D02*
X2882086Y-11878650D01*
X2882086Y-11897698D02*
X2891610Y-11888174D01*
X2891610Y-11888174D02*
X2910658Y-11878650D01*
X2910658Y-11878650D02*
X2939229Y-11878650D01*
X2939229Y-11878650D02*
X2958277Y-11888174D01*
X2958277Y-11888174D02*
X2967801Y-11907222D01*
X2967801Y-11907222D02*
X2967801Y-12011984D01*
X2967801Y-11907222D02*
X2977324Y-11888174D01*
X2977324Y-11888174D02*
X2996372Y-11878650D01*
X2996372Y-11878650D02*
X3024943Y-11878650D01*
X3024943Y-11878650D02*
X3043991Y-11888174D01*
X3043991Y-11888174D02*
X3053515Y-11907222D01*
X3053515Y-11907222D02*
X3053515Y-12011984D01*
X3443991Y-11802460D02*
X3272563Y-12059603D01*
X3701134Y-11811984D02*
X3720182Y-11811984D01*
X3720182Y-11811984D02*
X3739229Y-11821508D01*
X3739229Y-11821508D02*
X3748753Y-11831031D01*
X3748753Y-11831031D02*
X3758277Y-11850079D01*
X3758277Y-11850079D02*
X3767801Y-11888174D01*
X3767801Y-11888174D02*
X3767801Y-11935793D01*
X3767801Y-11935793D02*
X3758277Y-11973888D01*
X3758277Y-11973888D02*
X3748753Y-11992936D01*
X3748753Y-11992936D02*
X3739229Y-12002460D01*
X3739229Y-12002460D02*
X3720182Y-12011984D01*
X3720182Y-12011984D02*
X3701134Y-12011984D01*
X3701134Y-12011984D02*
X3682086Y-12002460D01*
X3682086Y-12002460D02*
X3672563Y-11992936D01*
X3672563Y-11992936D02*
X3663039Y-11973888D01*
X3663039Y-11973888D02*
X3653515Y-11935793D01*
X3653515Y-11935793D02*
X3653515Y-11888174D01*
X3653515Y-11888174D02*
X3663039Y-11850079D01*
X3663039Y-11850079D02*
X3672563Y-11831031D01*
X3672563Y-11831031D02*
X3682086Y-11821508D01*
X3682086Y-11821508D02*
X3701134Y-11811984D01*
X3853515Y-11992936D02*
X3863039Y-12002460D01*
X3863039Y-12002460D02*
X3853515Y-12011984D01*
X3853515Y-12011984D02*
X3843991Y-12002460D01*
X3843991Y-12002460D02*
X3853515Y-11992936D01*
X3853515Y-11992936D02*
X3853515Y-12011984D01*
X3986848Y-11811984D02*
X4005896Y-11811984D01*
X4005896Y-11811984D02*
X4024944Y-11821508D01*
X4024944Y-11821508D02*
X4034467Y-11831031D01*
X4034467Y-11831031D02*
X4043991Y-11850079D01*
X4043991Y-11850079D02*
X4053515Y-11888174D01*
X4053515Y-11888174D02*
X4053515Y-11935793D01*
X4053515Y-11935793D02*
X4043991Y-11973888D01*
X4043991Y-11973888D02*
X4034467Y-11992936D01*
X4034467Y-11992936D02*
X4024944Y-12002460D01*
X4024944Y-12002460D02*
X4005896Y-12011984D01*
X4005896Y-12011984D02*
X3986848Y-12011984D01*
X3986848Y-12011984D02*
X3967801Y-12002460D01*
X3967801Y-12002460D02*
X3958277Y-11992936D01*
X3958277Y-11992936D02*
X3948753Y-11973888D01*
X3948753Y-11973888D02*
X3939229Y-11935793D01*
X3939229Y-11935793D02*
X3939229Y-11888174D01*
X3939229Y-11888174D02*
X3948753Y-11850079D01*
X3948753Y-11850079D02*
X3958277Y-11831031D01*
X3958277Y-11831031D02*
X3967801Y-11821508D01*
X3967801Y-11821508D02*
X3986848Y-11811984D01*
X4129706Y-11831031D02*
X4139229Y-11821508D01*
X4139229Y-11821508D02*
X4158277Y-11811984D01*
X4158277Y-11811984D02*
X4205896Y-11811984D01*
X4205896Y-11811984D02*
X4224944Y-11821508D01*
X4224944Y-11821508D02*
X4234468Y-11831031D01*
X4234468Y-11831031D02*
X4243991Y-11850079D01*
X4243991Y-11850079D02*
X4243991Y-11869127D01*
X4243991Y-11869127D02*
X4234468Y-11897698D01*
X4234468Y-11897698D02*
X4120182Y-12011984D01*
X4120182Y-12011984D02*
X4243991Y-12011984D01*
X4310658Y-11811984D02*
X4434468Y-11811984D01*
X4434468Y-11811984D02*
X4367801Y-11888174D01*
X4367801Y-11888174D02*
X4396372Y-11888174D01*
X4396372Y-11888174D02*
X4415420Y-11897698D01*
X4415420Y-11897698D02*
X4424944Y-11907222D01*
X4424944Y-11907222D02*
X4434468Y-11926269D01*
X4434468Y-11926269D02*
X4434468Y-11973888D01*
X4434468Y-11973888D02*
X4424944Y-11992936D01*
X4424944Y-11992936D02*
X4415420Y-12002460D01*
X4415420Y-12002460D02*
X4396372Y-12011984D01*
X4396372Y-12011984D02*
X4339229Y-12011984D01*
X4339229Y-12011984D02*
X4320182Y-12002460D01*
X4320182Y-12002460D02*
X4310658Y-11992936D01*
X4605896Y-11811984D02*
X4567801Y-11811984D01*
X4567801Y-11811984D02*
X4548753Y-11821508D01*
X4548753Y-11821508D02*
X4539229Y-11831031D01*
X4539229Y-11831031D02*
X4520182Y-11859603D01*
X4520182Y-11859603D02*
X4510658Y-11897698D01*
X4510658Y-11897698D02*
X4510658Y-11973888D01*
X4510658Y-11973888D02*
X4520182Y-11992936D01*
X4520182Y-11992936D02*
X4529706Y-12002460D01*
X4529706Y-12002460D02*
X4548753Y-12011984D01*
X4548753Y-12011984D02*
X4586849Y-12011984D01*
X4586849Y-12011984D02*
X4605896Y-12002460D01*
X4605896Y-12002460D02*
X4615420Y-11992936D01*
X4615420Y-11992936D02*
X4624944Y-11973888D01*
X4624944Y-11973888D02*
X4624944Y-11926269D01*
X4624944Y-11926269D02*
X4615420Y-11907222D01*
X4615420Y-11907222D02*
X4605896Y-11897698D01*
X4605896Y-11897698D02*
X4586849Y-11888174D01*
X4586849Y-11888174D02*
X4548753Y-11888174D01*
X4548753Y-11888174D02*
X4529706Y-11897698D01*
X4529706Y-11897698D02*
X4520182Y-11907222D01*
X4520182Y-11907222D02*
X4510658Y-11926269D01*
X4701134Y-11811984D02*
X4701134Y-11850079D01*
X4777325Y-11811984D02*
X4777325Y-11850079D01*
X5072563Y-12088174D02*
X5063039Y-12078650D01*
X5063039Y-12078650D02*
X5043991Y-12050079D01*
X5043991Y-12050079D02*
X5034468Y-12031031D01*
X5034468Y-12031031D02*
X5024944Y-12002460D01*
X5024944Y-12002460D02*
X5015420Y-11954841D01*
X5015420Y-11954841D02*
X5015420Y-11916746D01*
X5015420Y-11916746D02*
X5024944Y-11869127D01*
X5024944Y-11869127D02*
X5034468Y-11840555D01*
X5034468Y-11840555D02*
X5043991Y-11821508D01*
X5043991Y-11821508D02*
X5063039Y-11792936D01*
X5063039Y-11792936D02*
X5072563Y-11783412D01*
X5253515Y-12011984D02*
X5139230Y-12011984D01*
X5196372Y-12011984D02*
X5196372Y-11811984D01*
X5196372Y-11811984D02*
X5177325Y-11840555D01*
X5177325Y-11840555D02*
X5158277Y-11859603D01*
X5158277Y-11859603D02*
X5139230Y-11869127D01*
X5491611Y-12011984D02*
X5491611Y-11811984D01*
X5577325Y-12011984D02*
X5577325Y-11907222D01*
X5577325Y-11907222D02*
X5567801Y-11888174D01*
X5567801Y-11888174D02*
X5548753Y-11878650D01*
X5548753Y-11878650D02*
X5520182Y-11878650D01*
X5520182Y-11878650D02*
X5501134Y-11888174D01*
X5501134Y-11888174D02*
X5491611Y-11897698D01*
X5701134Y-12011984D02*
X5682087Y-12002460D01*
X5682087Y-12002460D02*
X5672563Y-11992936D01*
X5672563Y-11992936D02*
X5663039Y-11973888D01*
X5663039Y-11973888D02*
X5663039Y-11916746D01*
X5663039Y-11916746D02*
X5672563Y-11897698D01*
X5672563Y-11897698D02*
X5682087Y-11888174D01*
X5682087Y-11888174D02*
X5701134Y-11878650D01*
X5701134Y-11878650D02*
X5729706Y-11878650D01*
X5729706Y-11878650D02*
X5748753Y-11888174D01*
X5748753Y-11888174D02*
X5758277Y-11897698D01*
X5758277Y-11897698D02*
X5767801Y-11916746D01*
X5767801Y-11916746D02*
X5767801Y-11973888D01*
X5767801Y-11973888D02*
X5758277Y-11992936D01*
X5758277Y-11992936D02*
X5748753Y-12002460D01*
X5748753Y-12002460D02*
X5729706Y-12011984D01*
X5729706Y-12011984D02*
X5701134Y-12011984D01*
X5882087Y-12011984D02*
X5863039Y-12002460D01*
X5863039Y-12002460D02*
X5853515Y-11983412D01*
X5853515Y-11983412D02*
X5853515Y-11811984D01*
X6034468Y-12002460D02*
X6015420Y-12011984D01*
X6015420Y-12011984D02*
X5977325Y-12011984D01*
X5977325Y-12011984D02*
X5958277Y-12002460D01*
X5958277Y-12002460D02*
X5948753Y-11983412D01*
X5948753Y-11983412D02*
X5948753Y-11907222D01*
X5948753Y-11907222D02*
X5958277Y-11888174D01*
X5958277Y-11888174D02*
X5977325Y-11878650D01*
X5977325Y-11878650D02*
X6015420Y-11878650D01*
X6015420Y-11878650D02*
X6034468Y-11888174D01*
X6034468Y-11888174D02*
X6043991Y-11907222D01*
X6043991Y-11907222D02*
X6043991Y-11926269D01*
X6043991Y-11926269D02*
X5948753Y-11945317D01*
X6110658Y-12088174D02*
X6120182Y-12078650D01*
X6120182Y-12078650D02*
X6139230Y-12050079D01*
X6139230Y-12050079D02*
X6148753Y-12031031D01*
X6148753Y-12031031D02*
X6158277Y-12002460D01*
X6158277Y-12002460D02*
X6167801Y-11954841D01*
X6167801Y-11954841D02*
X6167801Y-11916746D01*
X6167801Y-11916746D02*
X6158277Y-11869127D01*
X6158277Y-11869127D02*
X6148753Y-11840555D01*
X6148753Y-11840555D02*
X6139230Y-11821508D01*
X6139230Y-11821508D02*
X6120182Y-11792936D01*
X6120182Y-11792936D02*
X6110658Y-11783412D01*
D12*
X1487249Y-12209249D02*
X1487249Y-12159751D01*
X1437751Y-12159751D01*
X1437751Y-12209249D01*
X1487249Y-12209249D01*
D11*
X1796372Y-12075984D02*
X1815420Y-12075984D01*
X1815420Y-12075984D02*
X1834467Y-12085508D01*
X1834467Y-12085508D02*
X1843991Y-12095031D01*
X1843991Y-12095031D02*
X1853515Y-12114079D01*
X1853515Y-12114079D02*
X1863039Y-12152174D01*
X1863039Y-12152174D02*
X1863039Y-12199793D01*
X1863039Y-12199793D02*
X1853515Y-12237888D01*
X1853515Y-12237888D02*
X1843991Y-12256936D01*
X1843991Y-12256936D02*
X1834467Y-12266460D01*
X1834467Y-12266460D02*
X1815420Y-12275984D01*
X1815420Y-12275984D02*
X1796372Y-12275984D01*
X1796372Y-12275984D02*
X1777324Y-12266460D01*
X1777324Y-12266460D02*
X1767801Y-12256936D01*
X1767801Y-12256936D02*
X1758277Y-12237888D01*
X1758277Y-12237888D02*
X1748753Y-12199793D01*
X1748753Y-12199793D02*
X1748753Y-12152174D01*
X1748753Y-12152174D02*
X1758277Y-12114079D01*
X1758277Y-12114079D02*
X1767801Y-12095031D01*
X1767801Y-12095031D02*
X1777324Y-12085508D01*
X1777324Y-12085508D02*
X1796372Y-12075984D01*
X1948753Y-12256936D02*
X1958277Y-12266460D01*
X1958277Y-12266460D02*
X1948753Y-12275984D01*
X1948753Y-12275984D02*
X1939229Y-12266460D01*
X1939229Y-12266460D02*
X1948753Y-12256936D01*
X1948753Y-12256936D02*
X1948753Y-12275984D01*
X2024943Y-12075984D02*
X2158277Y-12075984D01*
X2158277Y-12075984D02*
X2072562Y-12275984D01*
X2272563Y-12075984D02*
X2291610Y-12075984D01*
X2291610Y-12075984D02*
X2310658Y-12085508D01*
X2310658Y-12085508D02*
X2320182Y-12095031D01*
X2320182Y-12095031D02*
X2329705Y-12114079D01*
X2329705Y-12114079D02*
X2339229Y-12152174D01*
X2339229Y-12152174D02*
X2339229Y-12199793D01*
X2339229Y-12199793D02*
X2329705Y-12237888D01*
X2329705Y-12237888D02*
X2320182Y-12256936D01*
X2320182Y-12256936D02*
X2310658Y-12266460D01*
X2310658Y-12266460D02*
X2291610Y-12275984D01*
X2291610Y-12275984D02*
X2272563Y-12275984D01*
X2272563Y-12275984D02*
X2253515Y-12266460D01*
X2253515Y-12266460D02*
X2243991Y-12256936D01*
X2243991Y-12256936D02*
X2234467Y-12237888D01*
X2234467Y-12237888D02*
X2224944Y-12199793D01*
X2224944Y-12199793D02*
X2224944Y-12152174D01*
X2224944Y-12152174D02*
X2234467Y-12114079D01*
X2234467Y-12114079D02*
X2243991Y-12095031D01*
X2243991Y-12095031D02*
X2253515Y-12085508D01*
X2253515Y-12085508D02*
X2272563Y-12075984D01*
X2463039Y-12075984D02*
X2482086Y-12075984D01*
X2482086Y-12075984D02*
X2501134Y-12085508D01*
X2501134Y-12085508D02*
X2510658Y-12095031D01*
X2510658Y-12095031D02*
X2520182Y-12114079D01*
X2520182Y-12114079D02*
X2529705Y-12152174D01*
X2529705Y-12152174D02*
X2529705Y-12199793D01*
X2529705Y-12199793D02*
X2520182Y-12237888D01*
X2520182Y-12237888D02*
X2510658Y-12256936D01*
X2510658Y-12256936D02*
X2501134Y-12266460D01*
X2501134Y-12266460D02*
X2482086Y-12275984D01*
X2482086Y-12275984D02*
X2463039Y-12275984D01*
X2463039Y-12275984D02*
X2443991Y-12266460D01*
X2443991Y-12266460D02*
X2434467Y-12256936D01*
X2434467Y-12256936D02*
X2424944Y-12237888D01*
X2424944Y-12237888D02*
X2415420Y-12199793D01*
X2415420Y-12199793D02*
X2415420Y-12152174D01*
X2415420Y-12152174D02*
X2424944Y-12114079D01*
X2424944Y-12114079D02*
X2434467Y-12095031D01*
X2434467Y-12095031D02*
X2443991Y-12085508D01*
X2443991Y-12085508D02*
X2463039Y-12075984D01*
X2615420Y-12275984D02*
X2615420Y-12142650D01*
X2615420Y-12161698D02*
X2624944Y-12152174D01*
X2624944Y-12152174D02*
X2643991Y-12142650D01*
X2643991Y-12142650D02*
X2672563Y-12142650D01*
X2672563Y-12142650D02*
X2691610Y-12152174D01*
X2691610Y-12152174D02*
X2701134Y-12171222D01*
X2701134Y-12171222D02*
X2701134Y-12275984D01*
X2701134Y-12171222D02*
X2710658Y-12152174D01*
X2710658Y-12152174D02*
X2729705Y-12142650D01*
X2729705Y-12142650D02*
X2758277Y-12142650D01*
X2758277Y-12142650D02*
X2777325Y-12152174D01*
X2777325Y-12152174D02*
X2786848Y-12171222D01*
X2786848Y-12171222D02*
X2786848Y-12275984D01*
X2882086Y-12275984D02*
X2882086Y-12142650D01*
X2882086Y-12161698D02*
X2891610Y-12152174D01*
X2891610Y-12152174D02*
X2910658Y-12142650D01*
X2910658Y-12142650D02*
X2939229Y-12142650D01*
X2939229Y-12142650D02*
X2958277Y-12152174D01*
X2958277Y-12152174D02*
X2967801Y-12171222D01*
X2967801Y-12171222D02*
X2967801Y-12275984D01*
X2967801Y-12171222D02*
X2977324Y-12152174D01*
X2977324Y-12152174D02*
X2996372Y-12142650D01*
X2996372Y-12142650D02*
X3024943Y-12142650D01*
X3024943Y-12142650D02*
X3043991Y-12152174D01*
X3043991Y-12152174D02*
X3053515Y-12171222D01*
X3053515Y-12171222D02*
X3053515Y-12275984D01*
X3443991Y-12066460D02*
X3272563Y-12323603D01*
X3701134Y-12075984D02*
X3720182Y-12075984D01*
X3720182Y-12075984D02*
X3739229Y-12085508D01*
X3739229Y-12085508D02*
X3748753Y-12095031D01*
X3748753Y-12095031D02*
X3758277Y-12114079D01*
X3758277Y-12114079D02*
X3767801Y-12152174D01*
X3767801Y-12152174D02*
X3767801Y-12199793D01*
X3767801Y-12199793D02*
X3758277Y-12237888D01*
X3758277Y-12237888D02*
X3748753Y-12256936D01*
X3748753Y-12256936D02*
X3739229Y-12266460D01*
X3739229Y-12266460D02*
X3720182Y-12275984D01*
X3720182Y-12275984D02*
X3701134Y-12275984D01*
X3701134Y-12275984D02*
X3682086Y-12266460D01*
X3682086Y-12266460D02*
X3672563Y-12256936D01*
X3672563Y-12256936D02*
X3663039Y-12237888D01*
X3663039Y-12237888D02*
X3653515Y-12199793D01*
X3653515Y-12199793D02*
X3653515Y-12152174D01*
X3653515Y-12152174D02*
X3663039Y-12114079D01*
X3663039Y-12114079D02*
X3672563Y-12095031D01*
X3672563Y-12095031D02*
X3682086Y-12085508D01*
X3682086Y-12085508D02*
X3701134Y-12075984D01*
X3853515Y-12256936D02*
X3863039Y-12266460D01*
X3863039Y-12266460D02*
X3853515Y-12275984D01*
X3853515Y-12275984D02*
X3843991Y-12266460D01*
X3843991Y-12266460D02*
X3853515Y-12256936D01*
X3853515Y-12256936D02*
X3853515Y-12275984D01*
X3986848Y-12075984D02*
X4005896Y-12075984D01*
X4005896Y-12075984D02*
X4024944Y-12085508D01*
X4024944Y-12085508D02*
X4034467Y-12095031D01*
X4034467Y-12095031D02*
X4043991Y-12114079D01*
X4043991Y-12114079D02*
X4053515Y-12152174D01*
X4053515Y-12152174D02*
X4053515Y-12199793D01*
X4053515Y-12199793D02*
X4043991Y-12237888D01*
X4043991Y-12237888D02*
X4034467Y-12256936D01*
X4034467Y-12256936D02*
X4024944Y-12266460D01*
X4024944Y-12266460D02*
X4005896Y-12275984D01*
X4005896Y-12275984D02*
X3986848Y-12275984D01*
X3986848Y-12275984D02*
X3967801Y-12266460D01*
X3967801Y-12266460D02*
X3958277Y-12256936D01*
X3958277Y-12256936D02*
X3948753Y-12237888D01*
X3948753Y-12237888D02*
X3939229Y-12199793D01*
X3939229Y-12199793D02*
X3939229Y-12152174D01*
X3939229Y-12152174D02*
X3948753Y-12114079D01*
X3948753Y-12114079D02*
X3958277Y-12095031D01*
X3958277Y-12095031D02*
X3967801Y-12085508D01*
X3967801Y-12085508D02*
X3986848Y-12075984D01*
X4129706Y-12095031D02*
X4139229Y-12085508D01*
X4139229Y-12085508D02*
X4158277Y-12075984D01*
X4158277Y-12075984D02*
X4205896Y-12075984D01*
X4205896Y-12075984D02*
X4224944Y-12085508D01*
X4224944Y-12085508D02*
X4234468Y-12095031D01*
X4234468Y-12095031D02*
X4243991Y-12114079D01*
X4243991Y-12114079D02*
X4243991Y-12133127D01*
X4243991Y-12133127D02*
X4234468Y-12161698D01*
X4234468Y-12161698D02*
X4120182Y-12275984D01*
X4120182Y-12275984D02*
X4243991Y-12275984D01*
X4310658Y-12075984D02*
X4443991Y-12075984D01*
X4443991Y-12075984D02*
X4358277Y-12275984D01*
X4605896Y-12075984D02*
X4567801Y-12075984D01*
X4567801Y-12075984D02*
X4548753Y-12085508D01*
X4548753Y-12085508D02*
X4539229Y-12095031D01*
X4539229Y-12095031D02*
X4520182Y-12123603D01*
X4520182Y-12123603D02*
X4510658Y-12161698D01*
X4510658Y-12161698D02*
X4510658Y-12237888D01*
X4510658Y-12237888D02*
X4520182Y-12256936D01*
X4520182Y-12256936D02*
X4529706Y-12266460D01*
X4529706Y-12266460D02*
X4548753Y-12275984D01*
X4548753Y-12275984D02*
X4586849Y-12275984D01*
X4586849Y-12275984D02*
X4605896Y-12266460D01*
X4605896Y-12266460D02*
X4615420Y-12256936D01*
X4615420Y-12256936D02*
X4624944Y-12237888D01*
X4624944Y-12237888D02*
X4624944Y-12190269D01*
X4624944Y-12190269D02*
X4615420Y-12171222D01*
X4615420Y-12171222D02*
X4605896Y-12161698D01*
X4605896Y-12161698D02*
X4586849Y-12152174D01*
X4586849Y-12152174D02*
X4548753Y-12152174D01*
X4548753Y-12152174D02*
X4529706Y-12161698D01*
X4529706Y-12161698D02*
X4520182Y-12171222D01*
X4520182Y-12171222D02*
X4510658Y-12190269D01*
X4701134Y-12075984D02*
X4701134Y-12114079D01*
X4777325Y-12075984D02*
X4777325Y-12114079D01*
X5072563Y-12352174D02*
X5063039Y-12342650D01*
X5063039Y-12342650D02*
X5043991Y-12314079D01*
X5043991Y-12314079D02*
X5034468Y-12295031D01*
X5034468Y-12295031D02*
X5024944Y-12266460D01*
X5024944Y-12266460D02*
X5015420Y-12218841D01*
X5015420Y-12218841D02*
X5015420Y-12180746D01*
X5015420Y-12180746D02*
X5024944Y-12133127D01*
X5024944Y-12133127D02*
X5034468Y-12104555D01*
X5034468Y-12104555D02*
X5043991Y-12085508D01*
X5043991Y-12085508D02*
X5063039Y-12056936D01*
X5063039Y-12056936D02*
X5072563Y-12047412D01*
X5129706Y-12075984D02*
X5253515Y-12075984D01*
X5253515Y-12075984D02*
X5186849Y-12152174D01*
X5186849Y-12152174D02*
X5215420Y-12152174D01*
X5215420Y-12152174D02*
X5234468Y-12161698D01*
X5234468Y-12161698D02*
X5243991Y-12171222D01*
X5243991Y-12171222D02*
X5253515Y-12190269D01*
X5253515Y-12190269D02*
X5253515Y-12237888D01*
X5253515Y-12237888D02*
X5243991Y-12256936D01*
X5243991Y-12256936D02*
X5234468Y-12266460D01*
X5234468Y-12266460D02*
X5215420Y-12275984D01*
X5215420Y-12275984D02*
X5158277Y-12275984D01*
X5158277Y-12275984D02*
X5139230Y-12266460D01*
X5139230Y-12266460D02*
X5129706Y-12256936D01*
X5424944Y-12142650D02*
X5424944Y-12275984D01*
X5377325Y-12066460D02*
X5329706Y-12209317D01*
X5329706Y-12209317D02*
X5453515Y-12209317D01*
X5682087Y-12275984D02*
X5682087Y-12075984D01*
X5767801Y-12275984D02*
X5767801Y-12171222D01*
X5767801Y-12171222D02*
X5758277Y-12152174D01*
X5758277Y-12152174D02*
X5739230Y-12142650D01*
X5739230Y-12142650D02*
X5710658Y-12142650D01*
X5710658Y-12142650D02*
X5691610Y-12152174D01*
X5691610Y-12152174D02*
X5682087Y-12161698D01*
X5891610Y-12275984D02*
X5872563Y-12266460D01*
X5872563Y-12266460D02*
X5863039Y-12256936D01*
X5863039Y-12256936D02*
X5853515Y-12237888D01*
X5853515Y-12237888D02*
X5853515Y-12180746D01*
X5853515Y-12180746D02*
X5863039Y-12161698D01*
X5863039Y-12161698D02*
X5872563Y-12152174D01*
X5872563Y-12152174D02*
X5891610Y-12142650D01*
X5891610Y-12142650D02*
X5920182Y-12142650D01*
X5920182Y-12142650D02*
X5939230Y-12152174D01*
X5939230Y-12152174D02*
X5948753Y-12161698D01*
X5948753Y-12161698D02*
X5958277Y-12180746D01*
X5958277Y-12180746D02*
X5958277Y-12237888D01*
X5958277Y-12237888D02*
X5948753Y-12256936D01*
X5948753Y-12256936D02*
X5939230Y-12266460D01*
X5939230Y-12266460D02*
X5920182Y-12275984D01*
X5920182Y-12275984D02*
X5891610Y-12275984D01*
X6072563Y-12275984D02*
X6053515Y-12266460D01*
X6053515Y-12266460D02*
X6043991Y-12247412D01*
X6043991Y-12247412D02*
X6043991Y-12075984D01*
X6224944Y-12266460D02*
X6205896Y-12275984D01*
X6205896Y-12275984D02*
X6167801Y-12275984D01*
X6167801Y-12275984D02*
X6148753Y-12266460D01*
X6148753Y-12266460D02*
X6139230Y-12247412D01*
X6139230Y-12247412D02*
X6139230Y-12171222D01*
X6139230Y-12171222D02*
X6148753Y-12152174D01*
X6148753Y-12152174D02*
X6167801Y-12142650D01*
X6167801Y-12142650D02*
X6205896Y-12142650D01*
X6205896Y-12142650D02*
X6224944Y-12152174D01*
X6224944Y-12152174D02*
X6234468Y-12171222D01*
X6234468Y-12171222D02*
X6234468Y-12190269D01*
X6234468Y-12190269D02*
X6139230Y-12209317D01*
X6310658Y-12266460D02*
X6329706Y-12275984D01*
X6329706Y-12275984D02*
X6367801Y-12275984D01*
X6367801Y-12275984D02*
X6386849Y-12266460D01*
X6386849Y-12266460D02*
X6396372Y-12247412D01*
X6396372Y-12247412D02*
X6396372Y-12237888D01*
X6396372Y-12237888D02*
X6386849Y-12218841D01*
X6386849Y-12218841D02*
X6367801Y-12209317D01*
X6367801Y-12209317D02*
X6339230Y-12209317D01*
X6339230Y-12209317D02*
X6320182Y-12199793D01*
X6320182Y-12199793D02*
X6310658Y-12180746D01*
X6310658Y-12180746D02*
X6310658Y-12171222D01*
X6310658Y-12171222D02*
X6320182Y-12152174D01*
X6320182Y-12152174D02*
X6339230Y-12142650D01*
X6339230Y-12142650D02*
X6367801Y-12142650D01*
X6367801Y-12142650D02*
X6386849Y-12152174D01*
X6463039Y-12352174D02*
X6472563Y-12342650D01*
X6472563Y-12342650D02*
X6491611Y-12314079D01*
X6491611Y-12314079D02*
X6501134Y-12295031D01*
X6501134Y-12295031D02*
X6510658Y-12266460D01*
X6510658Y-12266460D02*
X6520182Y-12218841D01*
X6520182Y-12218841D02*
X6520182Y-12180746D01*
X6520182Y-12180746D02*
X6510658Y-12133127D01*
X6510658Y-12133127D02*
X6501134Y-12104555D01*
X6501134Y-12104555D02*
X6491611Y-12085508D01*
X6491611Y-12085508D02*
X6472563Y-12056936D01*
X6472563Y-12056936D02*
X6463039Y-12047412D01*
D12*
X1460000Y-12486000D02*
X1497500Y-12448500D01*
X1460000Y-12411000D01*
X1422500Y-12448500D01*
X1460000Y-12486000D01*
D11*
X1796372Y-12339984D02*
X1815420Y-12339984D01*
X1815420Y-12339984D02*
X1834467Y-12349508D01*
X1834467Y-12349508D02*
X1843991Y-12359031D01*
X1843991Y-12359031D02*
X1853515Y-12378079D01*
X1853515Y-12378079D02*
X1863039Y-12416174D01*
X1863039Y-12416174D02*
X1863039Y-12463793D01*
X1863039Y-12463793D02*
X1853515Y-12501888D01*
X1853515Y-12501888D02*
X1843991Y-12520936D01*
X1843991Y-12520936D02*
X1834467Y-12530460D01*
X1834467Y-12530460D02*
X1815420Y-12539984D01*
X1815420Y-12539984D02*
X1796372Y-12539984D01*
X1796372Y-12539984D02*
X1777324Y-12530460D01*
X1777324Y-12530460D02*
X1767801Y-12520936D01*
X1767801Y-12520936D02*
X1758277Y-12501888D01*
X1758277Y-12501888D02*
X1748753Y-12463793D01*
X1748753Y-12463793D02*
X1748753Y-12416174D01*
X1748753Y-12416174D02*
X1758277Y-12378079D01*
X1758277Y-12378079D02*
X1767801Y-12359031D01*
X1767801Y-12359031D02*
X1777324Y-12349508D01*
X1777324Y-12349508D02*
X1796372Y-12339984D01*
X1948753Y-12520936D02*
X1958277Y-12530460D01*
X1958277Y-12530460D02*
X1948753Y-12539984D01*
X1948753Y-12539984D02*
X1939229Y-12530460D01*
X1939229Y-12530460D02*
X1948753Y-12520936D01*
X1948753Y-12520936D02*
X1948753Y-12539984D01*
X2024943Y-12339984D02*
X2158277Y-12339984D01*
X2158277Y-12339984D02*
X2072562Y-12539984D01*
X2329705Y-12339984D02*
X2234467Y-12339984D01*
X2234467Y-12339984D02*
X2224944Y-12435222D01*
X2224944Y-12435222D02*
X2234467Y-12425698D01*
X2234467Y-12425698D02*
X2253515Y-12416174D01*
X2253515Y-12416174D02*
X2301134Y-12416174D01*
X2301134Y-12416174D02*
X2320182Y-12425698D01*
X2320182Y-12425698D02*
X2329705Y-12435222D01*
X2329705Y-12435222D02*
X2339229Y-12454269D01*
X2339229Y-12454269D02*
X2339229Y-12501888D01*
X2339229Y-12501888D02*
X2329705Y-12520936D01*
X2329705Y-12520936D02*
X2320182Y-12530460D01*
X2320182Y-12530460D02*
X2301134Y-12539984D01*
X2301134Y-12539984D02*
X2253515Y-12539984D01*
X2253515Y-12539984D02*
X2234467Y-12530460D01*
X2234467Y-12530460D02*
X2224944Y-12520936D01*
X2463039Y-12339984D02*
X2482086Y-12339984D01*
X2482086Y-12339984D02*
X2501134Y-12349508D01*
X2501134Y-12349508D02*
X2510658Y-12359031D01*
X2510658Y-12359031D02*
X2520182Y-12378079D01*
X2520182Y-12378079D02*
X2529705Y-12416174D01*
X2529705Y-12416174D02*
X2529705Y-12463793D01*
X2529705Y-12463793D02*
X2520182Y-12501888D01*
X2520182Y-12501888D02*
X2510658Y-12520936D01*
X2510658Y-12520936D02*
X2501134Y-12530460D01*
X2501134Y-12530460D02*
X2482086Y-12539984D01*
X2482086Y-12539984D02*
X2463039Y-12539984D01*
X2463039Y-12539984D02*
X2443991Y-12530460D01*
X2443991Y-12530460D02*
X2434467Y-12520936D01*
X2434467Y-12520936D02*
X2424944Y-12501888D01*
X2424944Y-12501888D02*
X2415420Y-12463793D01*
X2415420Y-12463793D02*
X2415420Y-12416174D01*
X2415420Y-12416174D02*
X2424944Y-12378079D01*
X2424944Y-12378079D02*
X2434467Y-12359031D01*
X2434467Y-12359031D02*
X2443991Y-12349508D01*
X2443991Y-12349508D02*
X2463039Y-12339984D01*
X2615420Y-12539984D02*
X2615420Y-12406650D01*
X2615420Y-12425698D02*
X2624944Y-12416174D01*
X2624944Y-12416174D02*
X2643991Y-12406650D01*
X2643991Y-12406650D02*
X2672563Y-12406650D01*
X2672563Y-12406650D02*
X2691610Y-12416174D01*
X2691610Y-12416174D02*
X2701134Y-12435222D01*
X2701134Y-12435222D02*
X2701134Y-12539984D01*
X2701134Y-12435222D02*
X2710658Y-12416174D01*
X2710658Y-12416174D02*
X2729705Y-12406650D01*
X2729705Y-12406650D02*
X2758277Y-12406650D01*
X2758277Y-12406650D02*
X2777325Y-12416174D01*
X2777325Y-12416174D02*
X2786848Y-12435222D01*
X2786848Y-12435222D02*
X2786848Y-12539984D01*
X2882086Y-12539984D02*
X2882086Y-12406650D01*
X2882086Y-12425698D02*
X2891610Y-12416174D01*
X2891610Y-12416174D02*
X2910658Y-12406650D01*
X2910658Y-12406650D02*
X2939229Y-12406650D01*
X2939229Y-12406650D02*
X2958277Y-12416174D01*
X2958277Y-12416174D02*
X2967801Y-12435222D01*
X2967801Y-12435222D02*
X2967801Y-12539984D01*
X2967801Y-12435222D02*
X2977324Y-12416174D01*
X2977324Y-12416174D02*
X2996372Y-12406650D01*
X2996372Y-12406650D02*
X3024943Y-12406650D01*
X3024943Y-12406650D02*
X3043991Y-12416174D01*
X3043991Y-12416174D02*
X3053515Y-12435222D01*
X3053515Y-12435222D02*
X3053515Y-12539984D01*
X3443991Y-12330460D02*
X3272563Y-12587603D01*
X3701134Y-12339984D02*
X3720182Y-12339984D01*
X3720182Y-12339984D02*
X3739229Y-12349508D01*
X3739229Y-12349508D02*
X3748753Y-12359031D01*
X3748753Y-12359031D02*
X3758277Y-12378079D01*
X3758277Y-12378079D02*
X3767801Y-12416174D01*
X3767801Y-12416174D02*
X3767801Y-12463793D01*
X3767801Y-12463793D02*
X3758277Y-12501888D01*
X3758277Y-12501888D02*
X3748753Y-12520936D01*
X3748753Y-12520936D02*
X3739229Y-12530460D01*
X3739229Y-12530460D02*
X3720182Y-12539984D01*
X3720182Y-12539984D02*
X3701134Y-12539984D01*
X3701134Y-12539984D02*
X3682086Y-12530460D01*
X3682086Y-12530460D02*
X3672563Y-12520936D01*
X3672563Y-12520936D02*
X3663039Y-12501888D01*
X3663039Y-12501888D02*
X3653515Y-12463793D01*
X3653515Y-12463793D02*
X3653515Y-12416174D01*
X3653515Y-12416174D02*
X3663039Y-12378079D01*
X3663039Y-12378079D02*
X3672563Y-12359031D01*
X3672563Y-12359031D02*
X3682086Y-12349508D01*
X3682086Y-12349508D02*
X3701134Y-12339984D01*
X3853515Y-12520936D02*
X3863039Y-12530460D01*
X3863039Y-12530460D02*
X3853515Y-12539984D01*
X3853515Y-12539984D02*
X3843991Y-12530460D01*
X3843991Y-12530460D02*
X3853515Y-12520936D01*
X3853515Y-12520936D02*
X3853515Y-12539984D01*
X3986848Y-12339984D02*
X4005896Y-12339984D01*
X4005896Y-12339984D02*
X4024944Y-12349508D01*
X4024944Y-12349508D02*
X4034467Y-12359031D01*
X4034467Y-12359031D02*
X4043991Y-12378079D01*
X4043991Y-12378079D02*
X4053515Y-12416174D01*
X4053515Y-12416174D02*
X4053515Y-12463793D01*
X4053515Y-12463793D02*
X4043991Y-12501888D01*
X4043991Y-12501888D02*
X4034467Y-12520936D01*
X4034467Y-12520936D02*
X4024944Y-12530460D01*
X4024944Y-12530460D02*
X4005896Y-12539984D01*
X4005896Y-12539984D02*
X3986848Y-12539984D01*
X3986848Y-12539984D02*
X3967801Y-12530460D01*
X3967801Y-12530460D02*
X3958277Y-12520936D01*
X3958277Y-12520936D02*
X3948753Y-12501888D01*
X3948753Y-12501888D02*
X3939229Y-12463793D01*
X3939229Y-12463793D02*
X3939229Y-12416174D01*
X3939229Y-12416174D02*
X3948753Y-12378079D01*
X3948753Y-12378079D02*
X3958277Y-12359031D01*
X3958277Y-12359031D02*
X3967801Y-12349508D01*
X3967801Y-12349508D02*
X3986848Y-12339984D01*
X4129706Y-12359031D02*
X4139229Y-12349508D01*
X4139229Y-12349508D02*
X4158277Y-12339984D01*
X4158277Y-12339984D02*
X4205896Y-12339984D01*
X4205896Y-12339984D02*
X4224944Y-12349508D01*
X4224944Y-12349508D02*
X4234468Y-12359031D01*
X4234468Y-12359031D02*
X4243991Y-12378079D01*
X4243991Y-12378079D02*
X4243991Y-12397127D01*
X4243991Y-12397127D02*
X4234468Y-12425698D01*
X4234468Y-12425698D02*
X4120182Y-12539984D01*
X4120182Y-12539984D02*
X4243991Y-12539984D01*
X4339229Y-12539984D02*
X4377325Y-12539984D01*
X4377325Y-12539984D02*
X4396372Y-12530460D01*
X4396372Y-12530460D02*
X4405896Y-12520936D01*
X4405896Y-12520936D02*
X4424944Y-12492365D01*
X4424944Y-12492365D02*
X4434468Y-12454269D01*
X4434468Y-12454269D02*
X4434468Y-12378079D01*
X4434468Y-12378079D02*
X4424944Y-12359031D01*
X4424944Y-12359031D02*
X4415420Y-12349508D01*
X4415420Y-12349508D02*
X4396372Y-12339984D01*
X4396372Y-12339984D02*
X4358277Y-12339984D01*
X4358277Y-12339984D02*
X4339229Y-12349508D01*
X4339229Y-12349508D02*
X4329706Y-12359031D01*
X4329706Y-12359031D02*
X4320182Y-12378079D01*
X4320182Y-12378079D02*
X4320182Y-12425698D01*
X4320182Y-12425698D02*
X4329706Y-12444746D01*
X4329706Y-12444746D02*
X4339229Y-12454269D01*
X4339229Y-12454269D02*
X4358277Y-12463793D01*
X4358277Y-12463793D02*
X4396372Y-12463793D01*
X4396372Y-12463793D02*
X4415420Y-12454269D01*
X4415420Y-12454269D02*
X4424944Y-12444746D01*
X4424944Y-12444746D02*
X4434468Y-12425698D01*
X4615420Y-12339984D02*
X4520182Y-12339984D01*
X4520182Y-12339984D02*
X4510658Y-12435222D01*
X4510658Y-12435222D02*
X4520182Y-12425698D01*
X4520182Y-12425698D02*
X4539229Y-12416174D01*
X4539229Y-12416174D02*
X4586849Y-12416174D01*
X4586849Y-12416174D02*
X4605896Y-12425698D01*
X4605896Y-12425698D02*
X4615420Y-12435222D01*
X4615420Y-12435222D02*
X4624944Y-12454269D01*
X4624944Y-12454269D02*
X4624944Y-12501888D01*
X4624944Y-12501888D02*
X4615420Y-12520936D01*
X4615420Y-12520936D02*
X4605896Y-12530460D01*
X4605896Y-12530460D02*
X4586849Y-12539984D01*
X4586849Y-12539984D02*
X4539229Y-12539984D01*
X4539229Y-12539984D02*
X4520182Y-12530460D01*
X4520182Y-12530460D02*
X4510658Y-12520936D01*
X4701134Y-12339984D02*
X4701134Y-12378079D01*
X4777325Y-12339984D02*
X4777325Y-12378079D01*
X5072563Y-12616174D02*
X5063039Y-12606650D01*
X5063039Y-12606650D02*
X5043991Y-12578079D01*
X5043991Y-12578079D02*
X5034468Y-12559031D01*
X5034468Y-12559031D02*
X5024944Y-12530460D01*
X5024944Y-12530460D02*
X5015420Y-12482841D01*
X5015420Y-12482841D02*
X5015420Y-12444746D01*
X5015420Y-12444746D02*
X5024944Y-12397127D01*
X5024944Y-12397127D02*
X5034468Y-12368555D01*
X5034468Y-12368555D02*
X5043991Y-12349508D01*
X5043991Y-12349508D02*
X5063039Y-12320936D01*
X5063039Y-12320936D02*
X5072563Y-12311412D01*
X5129706Y-12339984D02*
X5253515Y-12339984D01*
X5253515Y-12339984D02*
X5186849Y-12416174D01*
X5186849Y-12416174D02*
X5215420Y-12416174D01*
X5215420Y-12416174D02*
X5234468Y-12425698D01*
X5234468Y-12425698D02*
X5243991Y-12435222D01*
X5243991Y-12435222D02*
X5253515Y-12454269D01*
X5253515Y-12454269D02*
X5253515Y-12501888D01*
X5253515Y-12501888D02*
X5243991Y-12520936D01*
X5243991Y-12520936D02*
X5234468Y-12530460D01*
X5234468Y-12530460D02*
X5215420Y-12539984D01*
X5215420Y-12539984D02*
X5158277Y-12539984D01*
X5158277Y-12539984D02*
X5139230Y-12530460D01*
X5139230Y-12530460D02*
X5129706Y-12520936D01*
X5491611Y-12539984D02*
X5491611Y-12339984D01*
X5577325Y-12539984D02*
X5577325Y-12435222D01*
X5577325Y-12435222D02*
X5567801Y-12416174D01*
X5567801Y-12416174D02*
X5548753Y-12406650D01*
X5548753Y-12406650D02*
X5520182Y-12406650D01*
X5520182Y-12406650D02*
X5501134Y-12416174D01*
X5501134Y-12416174D02*
X5491611Y-12425698D01*
X5701134Y-12539984D02*
X5682087Y-12530460D01*
X5682087Y-12530460D02*
X5672563Y-12520936D01*
X5672563Y-12520936D02*
X5663039Y-12501888D01*
X5663039Y-12501888D02*
X5663039Y-12444746D01*
X5663039Y-12444746D02*
X5672563Y-12425698D01*
X5672563Y-12425698D02*
X5682087Y-12416174D01*
X5682087Y-12416174D02*
X5701134Y-12406650D01*
X5701134Y-12406650D02*
X5729706Y-12406650D01*
X5729706Y-12406650D02*
X5748753Y-12416174D01*
X5748753Y-12416174D02*
X5758277Y-12425698D01*
X5758277Y-12425698D02*
X5767801Y-12444746D01*
X5767801Y-12444746D02*
X5767801Y-12501888D01*
X5767801Y-12501888D02*
X5758277Y-12520936D01*
X5758277Y-12520936D02*
X5748753Y-12530460D01*
X5748753Y-12530460D02*
X5729706Y-12539984D01*
X5729706Y-12539984D02*
X5701134Y-12539984D01*
X5882087Y-12539984D02*
X5863039Y-12530460D01*
X5863039Y-12530460D02*
X5853515Y-12511412D01*
X5853515Y-12511412D02*
X5853515Y-12339984D01*
X6034468Y-12530460D02*
X6015420Y-12539984D01*
X6015420Y-12539984D02*
X5977325Y-12539984D01*
X5977325Y-12539984D02*
X5958277Y-12530460D01*
X5958277Y-12530460D02*
X5948753Y-12511412D01*
X5948753Y-12511412D02*
X5948753Y-12435222D01*
X5948753Y-12435222D02*
X5958277Y-12416174D01*
X5958277Y-12416174D02*
X5977325Y-12406650D01*
X5977325Y-12406650D02*
X6015420Y-12406650D01*
X6015420Y-12406650D02*
X6034468Y-12416174D01*
X6034468Y-12416174D02*
X6043991Y-12435222D01*
X6043991Y-12435222D02*
X6043991Y-12454269D01*
X6043991Y-12454269D02*
X5948753Y-12473317D01*
X6120182Y-12530460D02*
X6139230Y-12539984D01*
X6139230Y-12539984D02*
X6177325Y-12539984D01*
X6177325Y-12539984D02*
X6196372Y-12530460D01*
X6196372Y-12530460D02*
X6205896Y-12511412D01*
X6205896Y-12511412D02*
X6205896Y-12501888D01*
X6205896Y-12501888D02*
X6196372Y-12482841D01*
X6196372Y-12482841D02*
X6177325Y-12473317D01*
X6177325Y-12473317D02*
X6148753Y-12473317D01*
X6148753Y-12473317D02*
X6129706Y-12463793D01*
X6129706Y-12463793D02*
X6120182Y-12444746D01*
X6120182Y-12444746D02*
X6120182Y-12435222D01*
X6120182Y-12435222D02*
X6129706Y-12416174D01*
X6129706Y-12416174D02*
X6148753Y-12406650D01*
X6148753Y-12406650D02*
X6177325Y-12406650D01*
X6177325Y-12406650D02*
X6196372Y-12416174D01*
X6272563Y-12616174D02*
X6282087Y-12606650D01*
X6282087Y-12606650D02*
X6301134Y-12578079D01*
X6301134Y-12578079D02*
X6310658Y-12559031D01*
X6310658Y-12559031D02*
X6320182Y-12530460D01*
X6320182Y-12530460D02*
X6329706Y-12482841D01*
X6329706Y-12482841D02*
X6329706Y-12444746D01*
X6329706Y-12444746D02*
X6320182Y-12397127D01*
X6320182Y-12397127D02*
X6310658Y-12368555D01*
X6310658Y-12368555D02*
X6301134Y-12349508D01*
X6301134Y-12349508D02*
X6282087Y-12320936D01*
X6282087Y-12320936D02*
X6272563Y-12311412D01*
D12*
X1417500Y-12672500D02*
X1497500Y-12752500D01*
X1497500Y-12672500D02*
X1417500Y-12752500D01*
X1497500Y-12712500D02*
G75*
G02*
X1417500Y-12712500I-40000J0D01*
G01*
X1417500Y-12712500D02*
G75*
G02*
X1497500Y-12712500I40000J0D01*
G01*
D11*
X1796372Y-12603984D02*
X1815420Y-12603984D01*
X1815420Y-12603984D02*
X1834467Y-12613508D01*
X1834467Y-12613508D02*
X1843991Y-12623031D01*
X1843991Y-12623031D02*
X1853515Y-12642079D01*
X1853515Y-12642079D02*
X1863039Y-12680174D01*
X1863039Y-12680174D02*
X1863039Y-12727793D01*
X1863039Y-12727793D02*
X1853515Y-12765888D01*
X1853515Y-12765888D02*
X1843991Y-12784936D01*
X1843991Y-12784936D02*
X1834467Y-12794460D01*
X1834467Y-12794460D02*
X1815420Y-12803984D01*
X1815420Y-12803984D02*
X1796372Y-12803984D01*
X1796372Y-12803984D02*
X1777324Y-12794460D01*
X1777324Y-12794460D02*
X1767801Y-12784936D01*
X1767801Y-12784936D02*
X1758277Y-12765888D01*
X1758277Y-12765888D02*
X1748753Y-12727793D01*
X1748753Y-12727793D02*
X1748753Y-12680174D01*
X1748753Y-12680174D02*
X1758277Y-12642079D01*
X1758277Y-12642079D02*
X1767801Y-12623031D01*
X1767801Y-12623031D02*
X1777324Y-12613508D01*
X1777324Y-12613508D02*
X1796372Y-12603984D01*
X1948753Y-12784936D02*
X1958277Y-12794460D01*
X1958277Y-12794460D02*
X1948753Y-12803984D01*
X1948753Y-12803984D02*
X1939229Y-12794460D01*
X1939229Y-12794460D02*
X1948753Y-12784936D01*
X1948753Y-12784936D02*
X1948753Y-12803984D01*
X2072562Y-12689698D02*
X2053515Y-12680174D01*
X2053515Y-12680174D02*
X2043991Y-12670650D01*
X2043991Y-12670650D02*
X2034467Y-12651603D01*
X2034467Y-12651603D02*
X2034467Y-12642079D01*
X2034467Y-12642079D02*
X2043991Y-12623031D01*
X2043991Y-12623031D02*
X2053515Y-12613508D01*
X2053515Y-12613508D02*
X2072562Y-12603984D01*
X2072562Y-12603984D02*
X2110658Y-12603984D01*
X2110658Y-12603984D02*
X2129705Y-12613508D01*
X2129705Y-12613508D02*
X2139229Y-12623031D01*
X2139229Y-12623031D02*
X2148753Y-12642079D01*
X2148753Y-12642079D02*
X2148753Y-12651603D01*
X2148753Y-12651603D02*
X2139229Y-12670650D01*
X2139229Y-12670650D02*
X2129705Y-12680174D01*
X2129705Y-12680174D02*
X2110658Y-12689698D01*
X2110658Y-12689698D02*
X2072562Y-12689698D01*
X2072562Y-12689698D02*
X2053515Y-12699222D01*
X2053515Y-12699222D02*
X2043991Y-12708746D01*
X2043991Y-12708746D02*
X2034467Y-12727793D01*
X2034467Y-12727793D02*
X2034467Y-12765888D01*
X2034467Y-12765888D02*
X2043991Y-12784936D01*
X2043991Y-12784936D02*
X2053515Y-12794460D01*
X2053515Y-12794460D02*
X2072562Y-12803984D01*
X2072562Y-12803984D02*
X2110658Y-12803984D01*
X2110658Y-12803984D02*
X2129705Y-12794460D01*
X2129705Y-12794460D02*
X2139229Y-12784936D01*
X2139229Y-12784936D02*
X2148753Y-12765888D01*
X2148753Y-12765888D02*
X2148753Y-12727793D01*
X2148753Y-12727793D02*
X2139229Y-12708746D01*
X2139229Y-12708746D02*
X2129705Y-12699222D01*
X2129705Y-12699222D02*
X2110658Y-12689698D01*
X2272563Y-12603984D02*
X2291610Y-12603984D01*
X2291610Y-12603984D02*
X2310658Y-12613508D01*
X2310658Y-12613508D02*
X2320182Y-12623031D01*
X2320182Y-12623031D02*
X2329705Y-12642079D01*
X2329705Y-12642079D02*
X2339229Y-12680174D01*
X2339229Y-12680174D02*
X2339229Y-12727793D01*
X2339229Y-12727793D02*
X2329705Y-12765888D01*
X2329705Y-12765888D02*
X2320182Y-12784936D01*
X2320182Y-12784936D02*
X2310658Y-12794460D01*
X2310658Y-12794460D02*
X2291610Y-12803984D01*
X2291610Y-12803984D02*
X2272563Y-12803984D01*
X2272563Y-12803984D02*
X2253515Y-12794460D01*
X2253515Y-12794460D02*
X2243991Y-12784936D01*
X2243991Y-12784936D02*
X2234467Y-12765888D01*
X2234467Y-12765888D02*
X2224944Y-12727793D01*
X2224944Y-12727793D02*
X2224944Y-12680174D01*
X2224944Y-12680174D02*
X2234467Y-12642079D01*
X2234467Y-12642079D02*
X2243991Y-12623031D01*
X2243991Y-12623031D02*
X2253515Y-12613508D01*
X2253515Y-12613508D02*
X2272563Y-12603984D01*
X2463039Y-12603984D02*
X2482086Y-12603984D01*
X2482086Y-12603984D02*
X2501134Y-12613508D01*
X2501134Y-12613508D02*
X2510658Y-12623031D01*
X2510658Y-12623031D02*
X2520182Y-12642079D01*
X2520182Y-12642079D02*
X2529705Y-12680174D01*
X2529705Y-12680174D02*
X2529705Y-12727793D01*
X2529705Y-12727793D02*
X2520182Y-12765888D01*
X2520182Y-12765888D02*
X2510658Y-12784936D01*
X2510658Y-12784936D02*
X2501134Y-12794460D01*
X2501134Y-12794460D02*
X2482086Y-12803984D01*
X2482086Y-12803984D02*
X2463039Y-12803984D01*
X2463039Y-12803984D02*
X2443991Y-12794460D01*
X2443991Y-12794460D02*
X2434467Y-12784936D01*
X2434467Y-12784936D02*
X2424944Y-12765888D01*
X2424944Y-12765888D02*
X2415420Y-12727793D01*
X2415420Y-12727793D02*
X2415420Y-12680174D01*
X2415420Y-12680174D02*
X2424944Y-12642079D01*
X2424944Y-12642079D02*
X2434467Y-12623031D01*
X2434467Y-12623031D02*
X2443991Y-12613508D01*
X2443991Y-12613508D02*
X2463039Y-12603984D01*
X2615420Y-12803984D02*
X2615420Y-12670650D01*
X2615420Y-12689698D02*
X2624944Y-12680174D01*
X2624944Y-12680174D02*
X2643991Y-12670650D01*
X2643991Y-12670650D02*
X2672563Y-12670650D01*
X2672563Y-12670650D02*
X2691610Y-12680174D01*
X2691610Y-12680174D02*
X2701134Y-12699222D01*
X2701134Y-12699222D02*
X2701134Y-12803984D01*
X2701134Y-12699222D02*
X2710658Y-12680174D01*
X2710658Y-12680174D02*
X2729705Y-12670650D01*
X2729705Y-12670650D02*
X2758277Y-12670650D01*
X2758277Y-12670650D02*
X2777325Y-12680174D01*
X2777325Y-12680174D02*
X2786848Y-12699222D01*
X2786848Y-12699222D02*
X2786848Y-12803984D01*
X2882086Y-12803984D02*
X2882086Y-12670650D01*
X2882086Y-12689698D02*
X2891610Y-12680174D01*
X2891610Y-12680174D02*
X2910658Y-12670650D01*
X2910658Y-12670650D02*
X2939229Y-12670650D01*
X2939229Y-12670650D02*
X2958277Y-12680174D01*
X2958277Y-12680174D02*
X2967801Y-12699222D01*
X2967801Y-12699222D02*
X2967801Y-12803984D01*
X2967801Y-12699222D02*
X2977324Y-12680174D01*
X2977324Y-12680174D02*
X2996372Y-12670650D01*
X2996372Y-12670650D02*
X3024943Y-12670650D01*
X3024943Y-12670650D02*
X3043991Y-12680174D01*
X3043991Y-12680174D02*
X3053515Y-12699222D01*
X3053515Y-12699222D02*
X3053515Y-12803984D01*
X3443991Y-12594460D02*
X3272563Y-12851603D01*
X3701134Y-12603984D02*
X3720182Y-12603984D01*
X3720182Y-12603984D02*
X3739229Y-12613508D01*
X3739229Y-12613508D02*
X3748753Y-12623031D01*
X3748753Y-12623031D02*
X3758277Y-12642079D01*
X3758277Y-12642079D02*
X3767801Y-12680174D01*
X3767801Y-12680174D02*
X3767801Y-12727793D01*
X3767801Y-12727793D02*
X3758277Y-12765888D01*
X3758277Y-12765888D02*
X3748753Y-12784936D01*
X3748753Y-12784936D02*
X3739229Y-12794460D01*
X3739229Y-12794460D02*
X3720182Y-12803984D01*
X3720182Y-12803984D02*
X3701134Y-12803984D01*
X3701134Y-12803984D02*
X3682086Y-12794460D01*
X3682086Y-12794460D02*
X3672563Y-12784936D01*
X3672563Y-12784936D02*
X3663039Y-12765888D01*
X3663039Y-12765888D02*
X3653515Y-12727793D01*
X3653515Y-12727793D02*
X3653515Y-12680174D01*
X3653515Y-12680174D02*
X3663039Y-12642079D01*
X3663039Y-12642079D02*
X3672563Y-12623031D01*
X3672563Y-12623031D02*
X3682086Y-12613508D01*
X3682086Y-12613508D02*
X3701134Y-12603984D01*
X3853515Y-12784936D02*
X3863039Y-12794460D01*
X3863039Y-12794460D02*
X3853515Y-12803984D01*
X3853515Y-12803984D02*
X3843991Y-12794460D01*
X3843991Y-12794460D02*
X3853515Y-12784936D01*
X3853515Y-12784936D02*
X3853515Y-12803984D01*
X3986848Y-12603984D02*
X4005896Y-12603984D01*
X4005896Y-12603984D02*
X4024944Y-12613508D01*
X4024944Y-12613508D02*
X4034467Y-12623031D01*
X4034467Y-12623031D02*
X4043991Y-12642079D01*
X4043991Y-12642079D02*
X4053515Y-12680174D01*
X4053515Y-12680174D02*
X4053515Y-12727793D01*
X4053515Y-12727793D02*
X4043991Y-12765888D01*
X4043991Y-12765888D02*
X4034467Y-12784936D01*
X4034467Y-12784936D02*
X4024944Y-12794460D01*
X4024944Y-12794460D02*
X4005896Y-12803984D01*
X4005896Y-12803984D02*
X3986848Y-12803984D01*
X3986848Y-12803984D02*
X3967801Y-12794460D01*
X3967801Y-12794460D02*
X3958277Y-12784936D01*
X3958277Y-12784936D02*
X3948753Y-12765888D01*
X3948753Y-12765888D02*
X3939229Y-12727793D01*
X3939229Y-12727793D02*
X3939229Y-12680174D01*
X3939229Y-12680174D02*
X3948753Y-12642079D01*
X3948753Y-12642079D02*
X3958277Y-12623031D01*
X3958277Y-12623031D02*
X3967801Y-12613508D01*
X3967801Y-12613508D02*
X3986848Y-12603984D01*
X4120182Y-12603984D02*
X4243991Y-12603984D01*
X4243991Y-12603984D02*
X4177325Y-12680174D01*
X4177325Y-12680174D02*
X4205896Y-12680174D01*
X4205896Y-12680174D02*
X4224944Y-12689698D01*
X4224944Y-12689698D02*
X4234468Y-12699222D01*
X4234468Y-12699222D02*
X4243991Y-12718269D01*
X4243991Y-12718269D02*
X4243991Y-12765888D01*
X4243991Y-12765888D02*
X4234468Y-12784936D01*
X4234468Y-12784936D02*
X4224944Y-12794460D01*
X4224944Y-12794460D02*
X4205896Y-12803984D01*
X4205896Y-12803984D02*
X4148753Y-12803984D01*
X4148753Y-12803984D02*
X4129706Y-12794460D01*
X4129706Y-12794460D02*
X4120182Y-12784936D01*
X4434468Y-12803984D02*
X4320182Y-12803984D01*
X4377325Y-12803984D02*
X4377325Y-12603984D01*
X4377325Y-12603984D02*
X4358277Y-12632555D01*
X4358277Y-12632555D02*
X4339229Y-12651603D01*
X4339229Y-12651603D02*
X4320182Y-12661127D01*
X4615420Y-12603984D02*
X4520182Y-12603984D01*
X4520182Y-12603984D02*
X4510658Y-12699222D01*
X4510658Y-12699222D02*
X4520182Y-12689698D01*
X4520182Y-12689698D02*
X4539229Y-12680174D01*
X4539229Y-12680174D02*
X4586849Y-12680174D01*
X4586849Y-12680174D02*
X4605896Y-12689698D01*
X4605896Y-12689698D02*
X4615420Y-12699222D01*
X4615420Y-12699222D02*
X4624944Y-12718269D01*
X4624944Y-12718269D02*
X4624944Y-12765888D01*
X4624944Y-12765888D02*
X4615420Y-12784936D01*
X4615420Y-12784936D02*
X4605896Y-12794460D01*
X4605896Y-12794460D02*
X4586849Y-12803984D01*
X4586849Y-12803984D02*
X4539229Y-12803984D01*
X4539229Y-12803984D02*
X4520182Y-12794460D01*
X4520182Y-12794460D02*
X4510658Y-12784936D01*
X4701134Y-12603984D02*
X4701134Y-12642079D01*
X4777325Y-12603984D02*
X4777325Y-12642079D01*
X5072563Y-12880174D02*
X5063039Y-12870650D01*
X5063039Y-12870650D02*
X5043991Y-12842079D01*
X5043991Y-12842079D02*
X5034468Y-12823031D01*
X5034468Y-12823031D02*
X5024944Y-12794460D01*
X5024944Y-12794460D02*
X5015420Y-12746841D01*
X5015420Y-12746841D02*
X5015420Y-12708746D01*
X5015420Y-12708746D02*
X5024944Y-12661127D01*
X5024944Y-12661127D02*
X5034468Y-12632555D01*
X5034468Y-12632555D02*
X5043991Y-12613508D01*
X5043991Y-12613508D02*
X5063039Y-12584936D01*
X5063039Y-12584936D02*
X5072563Y-12575412D01*
X5234468Y-12670650D02*
X5234468Y-12803984D01*
X5186849Y-12594460D02*
X5139230Y-12737317D01*
X5139230Y-12737317D02*
X5263039Y-12737317D01*
X5329706Y-12623031D02*
X5339230Y-12613508D01*
X5339230Y-12613508D02*
X5358277Y-12603984D01*
X5358277Y-12603984D02*
X5405896Y-12603984D01*
X5405896Y-12603984D02*
X5424944Y-12613508D01*
X5424944Y-12613508D02*
X5434468Y-12623031D01*
X5434468Y-12623031D02*
X5443991Y-12642079D01*
X5443991Y-12642079D02*
X5443991Y-12661127D01*
X5443991Y-12661127D02*
X5434468Y-12689698D01*
X5434468Y-12689698D02*
X5320182Y-12803984D01*
X5320182Y-12803984D02*
X5443991Y-12803984D01*
X5682087Y-12803984D02*
X5682087Y-12603984D01*
X5767801Y-12803984D02*
X5767801Y-12699222D01*
X5767801Y-12699222D02*
X5758277Y-12680174D01*
X5758277Y-12680174D02*
X5739230Y-12670650D01*
X5739230Y-12670650D02*
X5710658Y-12670650D01*
X5710658Y-12670650D02*
X5691610Y-12680174D01*
X5691610Y-12680174D02*
X5682087Y-12689698D01*
X5891610Y-12803984D02*
X5872563Y-12794460D01*
X5872563Y-12794460D02*
X5863039Y-12784936D01*
X5863039Y-12784936D02*
X5853515Y-12765888D01*
X5853515Y-12765888D02*
X5853515Y-12708746D01*
X5853515Y-12708746D02*
X5863039Y-12689698D01*
X5863039Y-12689698D02*
X5872563Y-12680174D01*
X5872563Y-12680174D02*
X5891610Y-12670650D01*
X5891610Y-12670650D02*
X5920182Y-12670650D01*
X5920182Y-12670650D02*
X5939230Y-12680174D01*
X5939230Y-12680174D02*
X5948753Y-12689698D01*
X5948753Y-12689698D02*
X5958277Y-12708746D01*
X5958277Y-12708746D02*
X5958277Y-12765888D01*
X5958277Y-12765888D02*
X5948753Y-12784936D01*
X5948753Y-12784936D02*
X5939230Y-12794460D01*
X5939230Y-12794460D02*
X5920182Y-12803984D01*
X5920182Y-12803984D02*
X5891610Y-12803984D01*
X6072563Y-12803984D02*
X6053515Y-12794460D01*
X6053515Y-12794460D02*
X6043991Y-12775412D01*
X6043991Y-12775412D02*
X6043991Y-12603984D01*
X6224944Y-12794460D02*
X6205896Y-12803984D01*
X6205896Y-12803984D02*
X6167801Y-12803984D01*
X6167801Y-12803984D02*
X6148753Y-12794460D01*
X6148753Y-12794460D02*
X6139230Y-12775412D01*
X6139230Y-12775412D02*
X6139230Y-12699222D01*
X6139230Y-12699222D02*
X6148753Y-12680174D01*
X6148753Y-12680174D02*
X6167801Y-12670650D01*
X6167801Y-12670650D02*
X6205896Y-12670650D01*
X6205896Y-12670650D02*
X6224944Y-12680174D01*
X6224944Y-12680174D02*
X6234468Y-12699222D01*
X6234468Y-12699222D02*
X6234468Y-12718269D01*
X6234468Y-12718269D02*
X6139230Y-12737317D01*
X6310658Y-12794460D02*
X6329706Y-12803984D01*
X6329706Y-12803984D02*
X6367801Y-12803984D01*
X6367801Y-12803984D02*
X6386849Y-12794460D01*
X6386849Y-12794460D02*
X6396372Y-12775412D01*
X6396372Y-12775412D02*
X6396372Y-12765888D01*
X6396372Y-12765888D02*
X6386849Y-12746841D01*
X6386849Y-12746841D02*
X6367801Y-12737317D01*
X6367801Y-12737317D02*
X6339230Y-12737317D01*
X6339230Y-12737317D02*
X6320182Y-12727793D01*
X6320182Y-12727793D02*
X6310658Y-12708746D01*
X6310658Y-12708746D02*
X6310658Y-12699222D01*
X6310658Y-12699222D02*
X6320182Y-12680174D01*
X6320182Y-12680174D02*
X6339230Y-12670650D01*
X6339230Y-12670650D02*
X6367801Y-12670650D01*
X6367801Y-12670650D02*
X6386849Y-12680174D01*
X6463039Y-12880174D02*
X6472563Y-12870650D01*
X6472563Y-12870650D02*
X6491611Y-12842079D01*
X6491611Y-12842079D02*
X6501134Y-12823031D01*
X6501134Y-12823031D02*
X6510658Y-12794460D01*
X6510658Y-12794460D02*
X6520182Y-12746841D01*
X6520182Y-12746841D02*
X6520182Y-12708746D01*
X6520182Y-12708746D02*
X6510658Y-12661127D01*
X6510658Y-12661127D02*
X6501134Y-12632555D01*
X6501134Y-12632555D02*
X6491611Y-12613508D01*
X6491611Y-12613508D02*
X6472563Y-12584936D01*
X6472563Y-12584936D02*
X6463039Y-12575412D01*
D12*
X1411140Y-12933320D02*
X1497500Y-13019680D01*
X1497500Y-12933320D02*
X1411140Y-13019680D01*
X1454320Y-12933320D02*
X1454320Y-13019680D01*
X1411140Y-12976500D02*
X1497500Y-12976500D01*
D11*
X1796372Y-12867984D02*
X1815420Y-12867984D01*
X1815420Y-12867984D02*
X1834467Y-12877508D01*
X1834467Y-12877508D02*
X1843991Y-12887031D01*
X1843991Y-12887031D02*
X1853515Y-12906079D01*
X1853515Y-12906079D02*
X1863039Y-12944174D01*
X1863039Y-12944174D02*
X1863039Y-12991793D01*
X1863039Y-12991793D02*
X1853515Y-13029888D01*
X1853515Y-13029888D02*
X1843991Y-13048936D01*
X1843991Y-13048936D02*
X1834467Y-13058460D01*
X1834467Y-13058460D02*
X1815420Y-13067984D01*
X1815420Y-13067984D02*
X1796372Y-13067984D01*
X1796372Y-13067984D02*
X1777324Y-13058460D01*
X1777324Y-13058460D02*
X1767801Y-13048936D01*
X1767801Y-13048936D02*
X1758277Y-13029888D01*
X1758277Y-13029888D02*
X1748753Y-12991793D01*
X1748753Y-12991793D02*
X1748753Y-12944174D01*
X1748753Y-12944174D02*
X1758277Y-12906079D01*
X1758277Y-12906079D02*
X1767801Y-12887031D01*
X1767801Y-12887031D02*
X1777324Y-12877508D01*
X1777324Y-12877508D02*
X1796372Y-12867984D01*
X1948753Y-13048936D02*
X1958277Y-13058460D01*
X1958277Y-13058460D02*
X1948753Y-13067984D01*
X1948753Y-13067984D02*
X1939229Y-13058460D01*
X1939229Y-13058460D02*
X1948753Y-13048936D01*
X1948753Y-13048936D02*
X1948753Y-13067984D01*
X2072562Y-12953698D02*
X2053515Y-12944174D01*
X2053515Y-12944174D02*
X2043991Y-12934650D01*
X2043991Y-12934650D02*
X2034467Y-12915603D01*
X2034467Y-12915603D02*
X2034467Y-12906079D01*
X2034467Y-12906079D02*
X2043991Y-12887031D01*
X2043991Y-12887031D02*
X2053515Y-12877508D01*
X2053515Y-12877508D02*
X2072562Y-12867984D01*
X2072562Y-12867984D02*
X2110658Y-12867984D01*
X2110658Y-12867984D02*
X2129705Y-12877508D01*
X2129705Y-12877508D02*
X2139229Y-12887031D01*
X2139229Y-12887031D02*
X2148753Y-12906079D01*
X2148753Y-12906079D02*
X2148753Y-12915603D01*
X2148753Y-12915603D02*
X2139229Y-12934650D01*
X2139229Y-12934650D02*
X2129705Y-12944174D01*
X2129705Y-12944174D02*
X2110658Y-12953698D01*
X2110658Y-12953698D02*
X2072562Y-12953698D01*
X2072562Y-12953698D02*
X2053515Y-12963222D01*
X2053515Y-12963222D02*
X2043991Y-12972746D01*
X2043991Y-12972746D02*
X2034467Y-12991793D01*
X2034467Y-12991793D02*
X2034467Y-13029888D01*
X2034467Y-13029888D02*
X2043991Y-13048936D01*
X2043991Y-13048936D02*
X2053515Y-13058460D01*
X2053515Y-13058460D02*
X2072562Y-13067984D01*
X2072562Y-13067984D02*
X2110658Y-13067984D01*
X2110658Y-13067984D02*
X2129705Y-13058460D01*
X2129705Y-13058460D02*
X2139229Y-13048936D01*
X2139229Y-13048936D02*
X2148753Y-13029888D01*
X2148753Y-13029888D02*
X2148753Y-12991793D01*
X2148753Y-12991793D02*
X2139229Y-12972746D01*
X2139229Y-12972746D02*
X2129705Y-12963222D01*
X2129705Y-12963222D02*
X2110658Y-12953698D01*
X2320182Y-12867984D02*
X2282086Y-12867984D01*
X2282086Y-12867984D02*
X2263039Y-12877508D01*
X2263039Y-12877508D02*
X2253515Y-12887031D01*
X2253515Y-12887031D02*
X2234467Y-12915603D01*
X2234467Y-12915603D02*
X2224944Y-12953698D01*
X2224944Y-12953698D02*
X2224944Y-13029888D01*
X2224944Y-13029888D02*
X2234467Y-13048936D01*
X2234467Y-13048936D02*
X2243991Y-13058460D01*
X2243991Y-13058460D02*
X2263039Y-13067984D01*
X2263039Y-13067984D02*
X2301134Y-13067984D01*
X2301134Y-13067984D02*
X2320182Y-13058460D01*
X2320182Y-13058460D02*
X2329705Y-13048936D01*
X2329705Y-13048936D02*
X2339229Y-13029888D01*
X2339229Y-13029888D02*
X2339229Y-12982269D01*
X2339229Y-12982269D02*
X2329705Y-12963222D01*
X2329705Y-12963222D02*
X2320182Y-12953698D01*
X2320182Y-12953698D02*
X2301134Y-12944174D01*
X2301134Y-12944174D02*
X2263039Y-12944174D01*
X2263039Y-12944174D02*
X2243991Y-12953698D01*
X2243991Y-12953698D02*
X2234467Y-12963222D01*
X2234467Y-12963222D02*
X2224944Y-12982269D01*
X2510658Y-12934650D02*
X2510658Y-13067984D01*
X2463039Y-12858460D02*
X2415420Y-13001317D01*
X2415420Y-13001317D02*
X2539229Y-13001317D01*
X2615420Y-13067984D02*
X2615420Y-12934650D01*
X2615420Y-12953698D02*
X2624944Y-12944174D01*
X2624944Y-12944174D02*
X2643991Y-12934650D01*
X2643991Y-12934650D02*
X2672563Y-12934650D01*
X2672563Y-12934650D02*
X2691610Y-12944174D01*
X2691610Y-12944174D02*
X2701134Y-12963222D01*
X2701134Y-12963222D02*
X2701134Y-13067984D01*
X2701134Y-12963222D02*
X2710658Y-12944174D01*
X2710658Y-12944174D02*
X2729705Y-12934650D01*
X2729705Y-12934650D02*
X2758277Y-12934650D01*
X2758277Y-12934650D02*
X2777325Y-12944174D01*
X2777325Y-12944174D02*
X2786848Y-12963222D01*
X2786848Y-12963222D02*
X2786848Y-13067984D01*
X2882086Y-13067984D02*
X2882086Y-12934650D01*
X2882086Y-12953698D02*
X2891610Y-12944174D01*
X2891610Y-12944174D02*
X2910658Y-12934650D01*
X2910658Y-12934650D02*
X2939229Y-12934650D01*
X2939229Y-12934650D02*
X2958277Y-12944174D01*
X2958277Y-12944174D02*
X2967801Y-12963222D01*
X2967801Y-12963222D02*
X2967801Y-13067984D01*
X2967801Y-12963222D02*
X2977324Y-12944174D01*
X2977324Y-12944174D02*
X2996372Y-12934650D01*
X2996372Y-12934650D02*
X3024943Y-12934650D01*
X3024943Y-12934650D02*
X3043991Y-12944174D01*
X3043991Y-12944174D02*
X3053515Y-12963222D01*
X3053515Y-12963222D02*
X3053515Y-13067984D01*
X3443991Y-12858460D02*
X3272563Y-13115603D01*
X3701134Y-12867984D02*
X3720182Y-12867984D01*
X3720182Y-12867984D02*
X3739229Y-12877508D01*
X3739229Y-12877508D02*
X3748753Y-12887031D01*
X3748753Y-12887031D02*
X3758277Y-12906079D01*
X3758277Y-12906079D02*
X3767801Y-12944174D01*
X3767801Y-12944174D02*
X3767801Y-12991793D01*
X3767801Y-12991793D02*
X3758277Y-13029888D01*
X3758277Y-13029888D02*
X3748753Y-13048936D01*
X3748753Y-13048936D02*
X3739229Y-13058460D01*
X3739229Y-13058460D02*
X3720182Y-13067984D01*
X3720182Y-13067984D02*
X3701134Y-13067984D01*
X3701134Y-13067984D02*
X3682086Y-13058460D01*
X3682086Y-13058460D02*
X3672563Y-13048936D01*
X3672563Y-13048936D02*
X3663039Y-13029888D01*
X3663039Y-13029888D02*
X3653515Y-12991793D01*
X3653515Y-12991793D02*
X3653515Y-12944174D01*
X3653515Y-12944174D02*
X3663039Y-12906079D01*
X3663039Y-12906079D02*
X3672563Y-12887031D01*
X3672563Y-12887031D02*
X3682086Y-12877508D01*
X3682086Y-12877508D02*
X3701134Y-12867984D01*
X3853515Y-13048936D02*
X3863039Y-13058460D01*
X3863039Y-13058460D02*
X3853515Y-13067984D01*
X3853515Y-13067984D02*
X3843991Y-13058460D01*
X3843991Y-13058460D02*
X3853515Y-13048936D01*
X3853515Y-13048936D02*
X3853515Y-13067984D01*
X3986848Y-12867984D02*
X4005896Y-12867984D01*
X4005896Y-12867984D02*
X4024944Y-12877508D01*
X4024944Y-12877508D02*
X4034467Y-12887031D01*
X4034467Y-12887031D02*
X4043991Y-12906079D01*
X4043991Y-12906079D02*
X4053515Y-12944174D01*
X4053515Y-12944174D02*
X4053515Y-12991793D01*
X4053515Y-12991793D02*
X4043991Y-13029888D01*
X4043991Y-13029888D02*
X4034467Y-13048936D01*
X4034467Y-13048936D02*
X4024944Y-13058460D01*
X4024944Y-13058460D02*
X4005896Y-13067984D01*
X4005896Y-13067984D02*
X3986848Y-13067984D01*
X3986848Y-13067984D02*
X3967801Y-13058460D01*
X3967801Y-13058460D02*
X3958277Y-13048936D01*
X3958277Y-13048936D02*
X3948753Y-13029888D01*
X3948753Y-13029888D02*
X3939229Y-12991793D01*
X3939229Y-12991793D02*
X3939229Y-12944174D01*
X3939229Y-12944174D02*
X3948753Y-12906079D01*
X3948753Y-12906079D02*
X3958277Y-12887031D01*
X3958277Y-12887031D02*
X3967801Y-12877508D01*
X3967801Y-12877508D02*
X3986848Y-12867984D01*
X4120182Y-12867984D02*
X4243991Y-12867984D01*
X4243991Y-12867984D02*
X4177325Y-12944174D01*
X4177325Y-12944174D02*
X4205896Y-12944174D01*
X4205896Y-12944174D02*
X4224944Y-12953698D01*
X4224944Y-12953698D02*
X4234468Y-12963222D01*
X4234468Y-12963222D02*
X4243991Y-12982269D01*
X4243991Y-12982269D02*
X4243991Y-13029888D01*
X4243991Y-13029888D02*
X4234468Y-13048936D01*
X4234468Y-13048936D02*
X4224944Y-13058460D01*
X4224944Y-13058460D02*
X4205896Y-13067984D01*
X4205896Y-13067984D02*
X4148753Y-13067984D01*
X4148753Y-13067984D02*
X4129706Y-13058460D01*
X4129706Y-13058460D02*
X4120182Y-13048936D01*
X4415420Y-12934650D02*
X4415420Y-13067984D01*
X4367801Y-12858460D02*
X4320182Y-13001317D01*
X4320182Y-13001317D02*
X4443991Y-13001317D01*
X4558277Y-12867984D02*
X4577325Y-12867984D01*
X4577325Y-12867984D02*
X4596372Y-12877508D01*
X4596372Y-12877508D02*
X4605896Y-12887031D01*
X4605896Y-12887031D02*
X4615420Y-12906079D01*
X4615420Y-12906079D02*
X4624944Y-12944174D01*
X4624944Y-12944174D02*
X4624944Y-12991793D01*
X4624944Y-12991793D02*
X4615420Y-13029888D01*
X4615420Y-13029888D02*
X4605896Y-13048936D01*
X4605896Y-13048936D02*
X4596372Y-13058460D01*
X4596372Y-13058460D02*
X4577325Y-13067984D01*
X4577325Y-13067984D02*
X4558277Y-13067984D01*
X4558277Y-13067984D02*
X4539229Y-13058460D01*
X4539229Y-13058460D02*
X4529706Y-13048936D01*
X4529706Y-13048936D02*
X4520182Y-13029888D01*
X4520182Y-13029888D02*
X4510658Y-12991793D01*
X4510658Y-12991793D02*
X4510658Y-12944174D01*
X4510658Y-12944174D02*
X4520182Y-12906079D01*
X4520182Y-12906079D02*
X4529706Y-12887031D01*
X4529706Y-12887031D02*
X4539229Y-12877508D01*
X4539229Y-12877508D02*
X4558277Y-12867984D01*
X4701134Y-12867984D02*
X4701134Y-12906079D01*
X4777325Y-12867984D02*
X4777325Y-12906079D01*
X5072563Y-13144174D02*
X5063039Y-13134650D01*
X5063039Y-13134650D02*
X5043991Y-13106079D01*
X5043991Y-13106079D02*
X5034468Y-13087031D01*
X5034468Y-13087031D02*
X5024944Y-13058460D01*
X5024944Y-13058460D02*
X5015420Y-13010841D01*
X5015420Y-13010841D02*
X5015420Y-12972746D01*
X5015420Y-12972746D02*
X5024944Y-12925127D01*
X5024944Y-12925127D02*
X5034468Y-12896555D01*
X5034468Y-12896555D02*
X5043991Y-12877508D01*
X5043991Y-12877508D02*
X5063039Y-12848936D01*
X5063039Y-12848936D02*
X5072563Y-12839412D01*
X5129706Y-12867984D02*
X5253515Y-12867984D01*
X5253515Y-12867984D02*
X5186849Y-12944174D01*
X5186849Y-12944174D02*
X5215420Y-12944174D01*
X5215420Y-12944174D02*
X5234468Y-12953698D01*
X5234468Y-12953698D02*
X5243991Y-12963222D01*
X5243991Y-12963222D02*
X5253515Y-12982269D01*
X5253515Y-12982269D02*
X5253515Y-13029888D01*
X5253515Y-13029888D02*
X5243991Y-13048936D01*
X5243991Y-13048936D02*
X5234468Y-13058460D01*
X5234468Y-13058460D02*
X5215420Y-13067984D01*
X5215420Y-13067984D02*
X5158277Y-13067984D01*
X5158277Y-13067984D02*
X5139230Y-13058460D01*
X5139230Y-13058460D02*
X5129706Y-13048936D01*
X5329706Y-12887031D02*
X5339230Y-12877508D01*
X5339230Y-12877508D02*
X5358277Y-12867984D01*
X5358277Y-12867984D02*
X5405896Y-12867984D01*
X5405896Y-12867984D02*
X5424944Y-12877508D01*
X5424944Y-12877508D02*
X5434468Y-12887031D01*
X5434468Y-12887031D02*
X5443991Y-12906079D01*
X5443991Y-12906079D02*
X5443991Y-12925127D01*
X5443991Y-12925127D02*
X5434468Y-12953698D01*
X5434468Y-12953698D02*
X5320182Y-13067984D01*
X5320182Y-13067984D02*
X5443991Y-13067984D01*
X5682087Y-13067984D02*
X5682087Y-12867984D01*
X5767801Y-13067984D02*
X5767801Y-12963222D01*
X5767801Y-12963222D02*
X5758277Y-12944174D01*
X5758277Y-12944174D02*
X5739230Y-12934650D01*
X5739230Y-12934650D02*
X5710658Y-12934650D01*
X5710658Y-12934650D02*
X5691610Y-12944174D01*
X5691610Y-12944174D02*
X5682087Y-12953698D01*
X5891610Y-13067984D02*
X5872563Y-13058460D01*
X5872563Y-13058460D02*
X5863039Y-13048936D01*
X5863039Y-13048936D02*
X5853515Y-13029888D01*
X5853515Y-13029888D02*
X5853515Y-12972746D01*
X5853515Y-12972746D02*
X5863039Y-12953698D01*
X5863039Y-12953698D02*
X5872563Y-12944174D01*
X5872563Y-12944174D02*
X5891610Y-12934650D01*
X5891610Y-12934650D02*
X5920182Y-12934650D01*
X5920182Y-12934650D02*
X5939230Y-12944174D01*
X5939230Y-12944174D02*
X5948753Y-12953698D01*
X5948753Y-12953698D02*
X5958277Y-12972746D01*
X5958277Y-12972746D02*
X5958277Y-13029888D01*
X5958277Y-13029888D02*
X5948753Y-13048936D01*
X5948753Y-13048936D02*
X5939230Y-13058460D01*
X5939230Y-13058460D02*
X5920182Y-13067984D01*
X5920182Y-13067984D02*
X5891610Y-13067984D01*
X6072563Y-13067984D02*
X6053515Y-13058460D01*
X6053515Y-13058460D02*
X6043991Y-13039412D01*
X6043991Y-13039412D02*
X6043991Y-12867984D01*
X6224944Y-13058460D02*
X6205896Y-13067984D01*
X6205896Y-13067984D02*
X6167801Y-13067984D01*
X6167801Y-13067984D02*
X6148753Y-13058460D01*
X6148753Y-13058460D02*
X6139230Y-13039412D01*
X6139230Y-13039412D02*
X6139230Y-12963222D01*
X6139230Y-12963222D02*
X6148753Y-12944174D01*
X6148753Y-12944174D02*
X6167801Y-12934650D01*
X6167801Y-12934650D02*
X6205896Y-12934650D01*
X6205896Y-12934650D02*
X6224944Y-12944174D01*
X6224944Y-12944174D02*
X6234468Y-12963222D01*
X6234468Y-12963222D02*
X6234468Y-12982269D01*
X6234468Y-12982269D02*
X6139230Y-13001317D01*
X6310658Y-13058460D02*
X6329706Y-13067984D01*
X6329706Y-13067984D02*
X6367801Y-13067984D01*
X6367801Y-13067984D02*
X6386849Y-13058460D01*
X6386849Y-13058460D02*
X6396372Y-13039412D01*
X6396372Y-13039412D02*
X6396372Y-13029888D01*
X6396372Y-13029888D02*
X6386849Y-13010841D01*
X6386849Y-13010841D02*
X6367801Y-13001317D01*
X6367801Y-13001317D02*
X6339230Y-13001317D01*
X6339230Y-13001317D02*
X6320182Y-12991793D01*
X6320182Y-12991793D02*
X6310658Y-12972746D01*
X6310658Y-12972746D02*
X6310658Y-12963222D01*
X6310658Y-12963222D02*
X6320182Y-12944174D01*
X6320182Y-12944174D02*
X6339230Y-12934650D01*
X6339230Y-12934650D02*
X6367801Y-12934650D01*
X6367801Y-12934650D02*
X6386849Y-12944174D01*
X6463039Y-13144174D02*
X6472563Y-13134650D01*
X6472563Y-13134650D02*
X6491611Y-13106079D01*
X6491611Y-13106079D02*
X6501134Y-13087031D01*
X6501134Y-13087031D02*
X6510658Y-13058460D01*
X6510658Y-13058460D02*
X6520182Y-13010841D01*
X6520182Y-13010841D02*
X6520182Y-12972746D01*
X6520182Y-12972746D02*
X6510658Y-12925127D01*
X6510658Y-12925127D02*
X6501134Y-12896555D01*
X6501134Y-12896555D02*
X6491611Y-12877508D01*
X6491611Y-12877508D02*
X6472563Y-12848936D01*
X6472563Y-12848936D02*
X6463039Y-12839412D01*
D12*
X1402500Y-13193000D02*
X1497500Y-13288000D01*
X1497500Y-13193000D02*
X1402500Y-13288000D01*
X1483588Y-13274088D02*
X1483588Y-13206912D01*
X1416412Y-13206912D01*
X1416412Y-13274088D01*
X1483588Y-13274088D01*
D11*
X1796372Y-13131984D02*
X1815420Y-13131984D01*
X1815420Y-13131984D02*
X1834467Y-13141508D01*
X1834467Y-13141508D02*
X1843991Y-13151031D01*
X1843991Y-13151031D02*
X1853515Y-13170079D01*
X1853515Y-13170079D02*
X1863039Y-13208174D01*
X1863039Y-13208174D02*
X1863039Y-13255793D01*
X1863039Y-13255793D02*
X1853515Y-13293888D01*
X1853515Y-13293888D02*
X1843991Y-13312936D01*
X1843991Y-13312936D02*
X1834467Y-13322460D01*
X1834467Y-13322460D02*
X1815420Y-13331984D01*
X1815420Y-13331984D02*
X1796372Y-13331984D01*
X1796372Y-13331984D02*
X1777324Y-13322460D01*
X1777324Y-13322460D02*
X1767801Y-13312936D01*
X1767801Y-13312936D02*
X1758277Y-13293888D01*
X1758277Y-13293888D02*
X1748753Y-13255793D01*
X1748753Y-13255793D02*
X1748753Y-13208174D01*
X1748753Y-13208174D02*
X1758277Y-13170079D01*
X1758277Y-13170079D02*
X1767801Y-13151031D01*
X1767801Y-13151031D02*
X1777324Y-13141508D01*
X1777324Y-13141508D02*
X1796372Y-13131984D01*
X1948753Y-13312936D02*
X1958277Y-13322460D01*
X1958277Y-13322460D02*
X1948753Y-13331984D01*
X1948753Y-13331984D02*
X1939229Y-13322460D01*
X1939229Y-13322460D02*
X1948753Y-13312936D01*
X1948753Y-13312936D02*
X1948753Y-13331984D01*
X2053515Y-13331984D02*
X2091610Y-13331984D01*
X2091610Y-13331984D02*
X2110658Y-13322460D01*
X2110658Y-13322460D02*
X2120182Y-13312936D01*
X2120182Y-13312936D02*
X2139229Y-13284365D01*
X2139229Y-13284365D02*
X2148753Y-13246269D01*
X2148753Y-13246269D02*
X2148753Y-13170079D01*
X2148753Y-13170079D02*
X2139229Y-13151031D01*
X2139229Y-13151031D02*
X2129705Y-13141508D01*
X2129705Y-13141508D02*
X2110658Y-13131984D01*
X2110658Y-13131984D02*
X2072562Y-13131984D01*
X2072562Y-13131984D02*
X2053515Y-13141508D01*
X2053515Y-13141508D02*
X2043991Y-13151031D01*
X2043991Y-13151031D02*
X2034467Y-13170079D01*
X2034467Y-13170079D02*
X2034467Y-13217698D01*
X2034467Y-13217698D02*
X2043991Y-13236746D01*
X2043991Y-13236746D02*
X2053515Y-13246269D01*
X2053515Y-13246269D02*
X2072562Y-13255793D01*
X2072562Y-13255793D02*
X2110658Y-13255793D01*
X2110658Y-13255793D02*
X2129705Y-13246269D01*
X2129705Y-13246269D02*
X2139229Y-13236746D01*
X2139229Y-13236746D02*
X2148753Y-13217698D01*
X2329705Y-13131984D02*
X2234467Y-13131984D01*
X2234467Y-13131984D02*
X2224944Y-13227222D01*
X2224944Y-13227222D02*
X2234467Y-13217698D01*
X2234467Y-13217698D02*
X2253515Y-13208174D01*
X2253515Y-13208174D02*
X2301134Y-13208174D01*
X2301134Y-13208174D02*
X2320182Y-13217698D01*
X2320182Y-13217698D02*
X2329705Y-13227222D01*
X2329705Y-13227222D02*
X2339229Y-13246269D01*
X2339229Y-13246269D02*
X2339229Y-13293888D01*
X2339229Y-13293888D02*
X2329705Y-13312936D01*
X2329705Y-13312936D02*
X2320182Y-13322460D01*
X2320182Y-13322460D02*
X2301134Y-13331984D01*
X2301134Y-13331984D02*
X2253515Y-13331984D01*
X2253515Y-13331984D02*
X2234467Y-13322460D01*
X2234467Y-13322460D02*
X2224944Y-13312936D01*
X2463039Y-13131984D02*
X2482086Y-13131984D01*
X2482086Y-13131984D02*
X2501134Y-13141508D01*
X2501134Y-13141508D02*
X2510658Y-13151031D01*
X2510658Y-13151031D02*
X2520182Y-13170079D01*
X2520182Y-13170079D02*
X2529705Y-13208174D01*
X2529705Y-13208174D02*
X2529705Y-13255793D01*
X2529705Y-13255793D02*
X2520182Y-13293888D01*
X2520182Y-13293888D02*
X2510658Y-13312936D01*
X2510658Y-13312936D02*
X2501134Y-13322460D01*
X2501134Y-13322460D02*
X2482086Y-13331984D01*
X2482086Y-13331984D02*
X2463039Y-13331984D01*
X2463039Y-13331984D02*
X2443991Y-13322460D01*
X2443991Y-13322460D02*
X2434467Y-13312936D01*
X2434467Y-13312936D02*
X2424944Y-13293888D01*
X2424944Y-13293888D02*
X2415420Y-13255793D01*
X2415420Y-13255793D02*
X2415420Y-13208174D01*
X2415420Y-13208174D02*
X2424944Y-13170079D01*
X2424944Y-13170079D02*
X2434467Y-13151031D01*
X2434467Y-13151031D02*
X2443991Y-13141508D01*
X2443991Y-13141508D02*
X2463039Y-13131984D01*
X2615420Y-13331984D02*
X2615420Y-13198650D01*
X2615420Y-13217698D02*
X2624944Y-13208174D01*
X2624944Y-13208174D02*
X2643991Y-13198650D01*
X2643991Y-13198650D02*
X2672563Y-13198650D01*
X2672563Y-13198650D02*
X2691610Y-13208174D01*
X2691610Y-13208174D02*
X2701134Y-13227222D01*
X2701134Y-13227222D02*
X2701134Y-13331984D01*
X2701134Y-13227222D02*
X2710658Y-13208174D01*
X2710658Y-13208174D02*
X2729705Y-13198650D01*
X2729705Y-13198650D02*
X2758277Y-13198650D01*
X2758277Y-13198650D02*
X2777325Y-13208174D01*
X2777325Y-13208174D02*
X2786848Y-13227222D01*
X2786848Y-13227222D02*
X2786848Y-13331984D01*
X2882086Y-13331984D02*
X2882086Y-13198650D01*
X2882086Y-13217698D02*
X2891610Y-13208174D01*
X2891610Y-13208174D02*
X2910658Y-13198650D01*
X2910658Y-13198650D02*
X2939229Y-13198650D01*
X2939229Y-13198650D02*
X2958277Y-13208174D01*
X2958277Y-13208174D02*
X2967801Y-13227222D01*
X2967801Y-13227222D02*
X2967801Y-13331984D01*
X2967801Y-13227222D02*
X2977324Y-13208174D01*
X2977324Y-13208174D02*
X2996372Y-13198650D01*
X2996372Y-13198650D02*
X3024943Y-13198650D01*
X3024943Y-13198650D02*
X3043991Y-13208174D01*
X3043991Y-13208174D02*
X3053515Y-13227222D01*
X3053515Y-13227222D02*
X3053515Y-13331984D01*
X3443991Y-13122460D02*
X3272563Y-13379603D01*
X3701134Y-13131984D02*
X3720182Y-13131984D01*
X3720182Y-13131984D02*
X3739229Y-13141508D01*
X3739229Y-13141508D02*
X3748753Y-13151031D01*
X3748753Y-13151031D02*
X3758277Y-13170079D01*
X3758277Y-13170079D02*
X3767801Y-13208174D01*
X3767801Y-13208174D02*
X3767801Y-13255793D01*
X3767801Y-13255793D02*
X3758277Y-13293888D01*
X3758277Y-13293888D02*
X3748753Y-13312936D01*
X3748753Y-13312936D02*
X3739229Y-13322460D01*
X3739229Y-13322460D02*
X3720182Y-13331984D01*
X3720182Y-13331984D02*
X3701134Y-13331984D01*
X3701134Y-13331984D02*
X3682086Y-13322460D01*
X3682086Y-13322460D02*
X3672563Y-13312936D01*
X3672563Y-13312936D02*
X3663039Y-13293888D01*
X3663039Y-13293888D02*
X3653515Y-13255793D01*
X3653515Y-13255793D02*
X3653515Y-13208174D01*
X3653515Y-13208174D02*
X3663039Y-13170079D01*
X3663039Y-13170079D02*
X3672563Y-13151031D01*
X3672563Y-13151031D02*
X3682086Y-13141508D01*
X3682086Y-13141508D02*
X3701134Y-13131984D01*
X3853515Y-13312936D02*
X3863039Y-13322460D01*
X3863039Y-13322460D02*
X3853515Y-13331984D01*
X3853515Y-13331984D02*
X3843991Y-13322460D01*
X3843991Y-13322460D02*
X3853515Y-13312936D01*
X3853515Y-13312936D02*
X3853515Y-13331984D01*
X3986848Y-13131984D02*
X4005896Y-13131984D01*
X4005896Y-13131984D02*
X4024944Y-13141508D01*
X4024944Y-13141508D02*
X4034467Y-13151031D01*
X4034467Y-13151031D02*
X4043991Y-13170079D01*
X4043991Y-13170079D02*
X4053515Y-13208174D01*
X4053515Y-13208174D02*
X4053515Y-13255793D01*
X4053515Y-13255793D02*
X4043991Y-13293888D01*
X4043991Y-13293888D02*
X4034467Y-13312936D01*
X4034467Y-13312936D02*
X4024944Y-13322460D01*
X4024944Y-13322460D02*
X4005896Y-13331984D01*
X4005896Y-13331984D02*
X3986848Y-13331984D01*
X3986848Y-13331984D02*
X3967801Y-13322460D01*
X3967801Y-13322460D02*
X3958277Y-13312936D01*
X3958277Y-13312936D02*
X3948753Y-13293888D01*
X3948753Y-13293888D02*
X3939229Y-13255793D01*
X3939229Y-13255793D02*
X3939229Y-13208174D01*
X3939229Y-13208174D02*
X3948753Y-13170079D01*
X3948753Y-13170079D02*
X3958277Y-13151031D01*
X3958277Y-13151031D02*
X3967801Y-13141508D01*
X3967801Y-13141508D02*
X3986848Y-13131984D01*
X4120182Y-13131984D02*
X4243991Y-13131984D01*
X4243991Y-13131984D02*
X4177325Y-13208174D01*
X4177325Y-13208174D02*
X4205896Y-13208174D01*
X4205896Y-13208174D02*
X4224944Y-13217698D01*
X4224944Y-13217698D02*
X4234468Y-13227222D01*
X4234468Y-13227222D02*
X4243991Y-13246269D01*
X4243991Y-13246269D02*
X4243991Y-13293888D01*
X4243991Y-13293888D02*
X4234468Y-13312936D01*
X4234468Y-13312936D02*
X4224944Y-13322460D01*
X4224944Y-13322460D02*
X4205896Y-13331984D01*
X4205896Y-13331984D02*
X4148753Y-13331984D01*
X4148753Y-13331984D02*
X4129706Y-13322460D01*
X4129706Y-13322460D02*
X4120182Y-13312936D01*
X4310658Y-13131984D02*
X4443991Y-13131984D01*
X4443991Y-13131984D02*
X4358277Y-13331984D01*
X4605896Y-13198650D02*
X4605896Y-13331984D01*
X4558277Y-13122460D02*
X4510658Y-13265317D01*
X4510658Y-13265317D02*
X4634468Y-13265317D01*
X4701134Y-13131984D02*
X4701134Y-13170079D01*
X4777325Y-13131984D02*
X4777325Y-13170079D01*
X5072563Y-13408174D02*
X5063039Y-13398650D01*
X5063039Y-13398650D02*
X5043991Y-13370079D01*
X5043991Y-13370079D02*
X5034468Y-13351031D01*
X5034468Y-13351031D02*
X5024944Y-13322460D01*
X5024944Y-13322460D02*
X5015420Y-13274841D01*
X5015420Y-13274841D02*
X5015420Y-13236746D01*
X5015420Y-13236746D02*
X5024944Y-13189127D01*
X5024944Y-13189127D02*
X5034468Y-13160555D01*
X5034468Y-13160555D02*
X5043991Y-13141508D01*
X5043991Y-13141508D02*
X5063039Y-13112936D01*
X5063039Y-13112936D02*
X5072563Y-13103412D01*
X5253515Y-13331984D02*
X5139230Y-13331984D01*
X5196372Y-13331984D02*
X5196372Y-13131984D01*
X5196372Y-13131984D02*
X5177325Y-13160555D01*
X5177325Y-13160555D02*
X5158277Y-13179603D01*
X5158277Y-13179603D02*
X5139230Y-13189127D01*
X5443991Y-13331984D02*
X5329706Y-13331984D01*
X5386849Y-13331984D02*
X5386849Y-13131984D01*
X5386849Y-13131984D02*
X5367801Y-13160555D01*
X5367801Y-13160555D02*
X5348753Y-13179603D01*
X5348753Y-13179603D02*
X5329706Y-13189127D01*
X5682087Y-13331984D02*
X5682087Y-13131984D01*
X5767801Y-13331984D02*
X5767801Y-13227222D01*
X5767801Y-13227222D02*
X5758277Y-13208174D01*
X5758277Y-13208174D02*
X5739230Y-13198650D01*
X5739230Y-13198650D02*
X5710658Y-13198650D01*
X5710658Y-13198650D02*
X5691610Y-13208174D01*
X5691610Y-13208174D02*
X5682087Y-13217698D01*
X5891610Y-13331984D02*
X5872563Y-13322460D01*
X5872563Y-13322460D02*
X5863039Y-13312936D01*
X5863039Y-13312936D02*
X5853515Y-13293888D01*
X5853515Y-13293888D02*
X5853515Y-13236746D01*
X5853515Y-13236746D02*
X5863039Y-13217698D01*
X5863039Y-13217698D02*
X5872563Y-13208174D01*
X5872563Y-13208174D02*
X5891610Y-13198650D01*
X5891610Y-13198650D02*
X5920182Y-13198650D01*
X5920182Y-13198650D02*
X5939230Y-13208174D01*
X5939230Y-13208174D02*
X5948753Y-13217698D01*
X5948753Y-13217698D02*
X5958277Y-13236746D01*
X5958277Y-13236746D02*
X5958277Y-13293888D01*
X5958277Y-13293888D02*
X5948753Y-13312936D01*
X5948753Y-13312936D02*
X5939230Y-13322460D01*
X5939230Y-13322460D02*
X5920182Y-13331984D01*
X5920182Y-13331984D02*
X5891610Y-13331984D01*
X6072563Y-13331984D02*
X6053515Y-13322460D01*
X6053515Y-13322460D02*
X6043991Y-13303412D01*
X6043991Y-13303412D02*
X6043991Y-13131984D01*
X6224944Y-13322460D02*
X6205896Y-13331984D01*
X6205896Y-13331984D02*
X6167801Y-13331984D01*
X6167801Y-13331984D02*
X6148753Y-13322460D01*
X6148753Y-13322460D02*
X6139230Y-13303412D01*
X6139230Y-13303412D02*
X6139230Y-13227222D01*
X6139230Y-13227222D02*
X6148753Y-13208174D01*
X6148753Y-13208174D02*
X6167801Y-13198650D01*
X6167801Y-13198650D02*
X6205896Y-13198650D01*
X6205896Y-13198650D02*
X6224944Y-13208174D01*
X6224944Y-13208174D02*
X6234468Y-13227222D01*
X6234468Y-13227222D02*
X6234468Y-13246269D01*
X6234468Y-13246269D02*
X6139230Y-13265317D01*
X6310658Y-13322460D02*
X6329706Y-13331984D01*
X6329706Y-13331984D02*
X6367801Y-13331984D01*
X6367801Y-13331984D02*
X6386849Y-13322460D01*
X6386849Y-13322460D02*
X6396372Y-13303412D01*
X6396372Y-13303412D02*
X6396372Y-13293888D01*
X6396372Y-13293888D02*
X6386849Y-13274841D01*
X6386849Y-13274841D02*
X6367801Y-13265317D01*
X6367801Y-13265317D02*
X6339230Y-13265317D01*
X6339230Y-13265317D02*
X6320182Y-13255793D01*
X6320182Y-13255793D02*
X6310658Y-13236746D01*
X6310658Y-13236746D02*
X6310658Y-13227222D01*
X6310658Y-13227222D02*
X6320182Y-13208174D01*
X6320182Y-13208174D02*
X6339230Y-13198650D01*
X6339230Y-13198650D02*
X6367801Y-13198650D01*
X6367801Y-13198650D02*
X6386849Y-13208174D01*
X6463039Y-13408174D02*
X6472563Y-13398650D01*
X6472563Y-13398650D02*
X6491611Y-13370079D01*
X6491611Y-13370079D02*
X6501134Y-13351031D01*
X6501134Y-13351031D02*
X6510658Y-13322460D01*
X6510658Y-13322460D02*
X6520182Y-13274841D01*
X6520182Y-13274841D02*
X6520182Y-13236746D01*
X6520182Y-13236746D02*
X6510658Y-13189127D01*
X6510658Y-13189127D02*
X6501134Y-13160555D01*
X6501134Y-13160555D02*
X6491611Y-13141508D01*
X6491611Y-13141508D02*
X6472563Y-13112936D01*
X6472563Y-13112936D02*
X6463039Y-13103412D01*
D12*
X1397500Y-13454500D02*
X1497500Y-13554500D01*
X1497500Y-13454500D02*
X1397500Y-13554500D01*
X1447500Y-13554500D02*
X1497500Y-13504500D01*
X1447500Y-13454500D01*
X1397500Y-13504500D01*
X1447500Y-13554500D01*
D11*
X1863039Y-13595984D02*
X1748753Y-13595984D01*
X1805896Y-13595984D02*
X1805896Y-13395984D01*
X1805896Y-13395984D02*
X1786848Y-13424555D01*
X1786848Y-13424555D02*
X1767801Y-13443603D01*
X1767801Y-13443603D02*
X1748753Y-13453127D01*
X1948753Y-13576936D02*
X1958277Y-13586460D01*
X1958277Y-13586460D02*
X1948753Y-13595984D01*
X1948753Y-13595984D02*
X1939229Y-13586460D01*
X1939229Y-13586460D02*
X1948753Y-13576936D01*
X1948753Y-13576936D02*
X1948753Y-13595984D01*
X2082086Y-13395984D02*
X2101134Y-13395984D01*
X2101134Y-13395984D02*
X2120182Y-13405508D01*
X2120182Y-13405508D02*
X2129705Y-13415031D01*
X2129705Y-13415031D02*
X2139229Y-13434079D01*
X2139229Y-13434079D02*
X2148753Y-13472174D01*
X2148753Y-13472174D02*
X2148753Y-13519793D01*
X2148753Y-13519793D02*
X2139229Y-13557888D01*
X2139229Y-13557888D02*
X2129705Y-13576936D01*
X2129705Y-13576936D02*
X2120182Y-13586460D01*
X2120182Y-13586460D02*
X2101134Y-13595984D01*
X2101134Y-13595984D02*
X2082086Y-13595984D01*
X2082086Y-13595984D02*
X2063039Y-13586460D01*
X2063039Y-13586460D02*
X2053515Y-13576936D01*
X2053515Y-13576936D02*
X2043991Y-13557888D01*
X2043991Y-13557888D02*
X2034467Y-13519793D01*
X2034467Y-13519793D02*
X2034467Y-13472174D01*
X2034467Y-13472174D02*
X2043991Y-13434079D01*
X2043991Y-13434079D02*
X2053515Y-13415031D01*
X2053515Y-13415031D02*
X2063039Y-13405508D01*
X2063039Y-13405508D02*
X2082086Y-13395984D01*
X2272563Y-13395984D02*
X2291610Y-13395984D01*
X2291610Y-13395984D02*
X2310658Y-13405508D01*
X2310658Y-13405508D02*
X2320182Y-13415031D01*
X2320182Y-13415031D02*
X2329705Y-13434079D01*
X2329705Y-13434079D02*
X2339229Y-13472174D01*
X2339229Y-13472174D02*
X2339229Y-13519793D01*
X2339229Y-13519793D02*
X2329705Y-13557888D01*
X2329705Y-13557888D02*
X2320182Y-13576936D01*
X2320182Y-13576936D02*
X2310658Y-13586460D01*
X2310658Y-13586460D02*
X2291610Y-13595984D01*
X2291610Y-13595984D02*
X2272563Y-13595984D01*
X2272563Y-13595984D02*
X2253515Y-13586460D01*
X2253515Y-13586460D02*
X2243991Y-13576936D01*
X2243991Y-13576936D02*
X2234467Y-13557888D01*
X2234467Y-13557888D02*
X2224944Y-13519793D01*
X2224944Y-13519793D02*
X2224944Y-13472174D01*
X2224944Y-13472174D02*
X2234467Y-13434079D01*
X2234467Y-13434079D02*
X2243991Y-13415031D01*
X2243991Y-13415031D02*
X2253515Y-13405508D01*
X2253515Y-13405508D02*
X2272563Y-13395984D01*
X2463039Y-13395984D02*
X2482086Y-13395984D01*
X2482086Y-13395984D02*
X2501134Y-13405508D01*
X2501134Y-13405508D02*
X2510658Y-13415031D01*
X2510658Y-13415031D02*
X2520182Y-13434079D01*
X2520182Y-13434079D02*
X2529705Y-13472174D01*
X2529705Y-13472174D02*
X2529705Y-13519793D01*
X2529705Y-13519793D02*
X2520182Y-13557888D01*
X2520182Y-13557888D02*
X2510658Y-13576936D01*
X2510658Y-13576936D02*
X2501134Y-13586460D01*
X2501134Y-13586460D02*
X2482086Y-13595984D01*
X2482086Y-13595984D02*
X2463039Y-13595984D01*
X2463039Y-13595984D02*
X2443991Y-13586460D01*
X2443991Y-13586460D02*
X2434467Y-13576936D01*
X2434467Y-13576936D02*
X2424944Y-13557888D01*
X2424944Y-13557888D02*
X2415420Y-13519793D01*
X2415420Y-13519793D02*
X2415420Y-13472174D01*
X2415420Y-13472174D02*
X2424944Y-13434079D01*
X2424944Y-13434079D02*
X2434467Y-13415031D01*
X2434467Y-13415031D02*
X2443991Y-13405508D01*
X2443991Y-13405508D02*
X2463039Y-13395984D01*
X2615420Y-13595984D02*
X2615420Y-13462650D01*
X2615420Y-13481698D02*
X2624944Y-13472174D01*
X2624944Y-13472174D02*
X2643991Y-13462650D01*
X2643991Y-13462650D02*
X2672563Y-13462650D01*
X2672563Y-13462650D02*
X2691610Y-13472174D01*
X2691610Y-13472174D02*
X2701134Y-13491222D01*
X2701134Y-13491222D02*
X2701134Y-13595984D01*
X2701134Y-13491222D02*
X2710658Y-13472174D01*
X2710658Y-13472174D02*
X2729705Y-13462650D01*
X2729705Y-13462650D02*
X2758277Y-13462650D01*
X2758277Y-13462650D02*
X2777325Y-13472174D01*
X2777325Y-13472174D02*
X2786848Y-13491222D01*
X2786848Y-13491222D02*
X2786848Y-13595984D01*
X2882086Y-13595984D02*
X2882086Y-13462650D01*
X2882086Y-13481698D02*
X2891610Y-13472174D01*
X2891610Y-13472174D02*
X2910658Y-13462650D01*
X2910658Y-13462650D02*
X2939229Y-13462650D01*
X2939229Y-13462650D02*
X2958277Y-13472174D01*
X2958277Y-13472174D02*
X2967801Y-13491222D01*
X2967801Y-13491222D02*
X2967801Y-13595984D01*
X2967801Y-13491222D02*
X2977324Y-13472174D01*
X2977324Y-13472174D02*
X2996372Y-13462650D01*
X2996372Y-13462650D02*
X3024943Y-13462650D01*
X3024943Y-13462650D02*
X3043991Y-13472174D01*
X3043991Y-13472174D02*
X3053515Y-13491222D01*
X3053515Y-13491222D02*
X3053515Y-13595984D01*
X3443991Y-13386460D02*
X3272563Y-13643603D01*
X3701134Y-13395984D02*
X3720182Y-13395984D01*
X3720182Y-13395984D02*
X3739229Y-13405508D01*
X3739229Y-13405508D02*
X3748753Y-13415031D01*
X3748753Y-13415031D02*
X3758277Y-13434079D01*
X3758277Y-13434079D02*
X3767801Y-13472174D01*
X3767801Y-13472174D02*
X3767801Y-13519793D01*
X3767801Y-13519793D02*
X3758277Y-13557888D01*
X3758277Y-13557888D02*
X3748753Y-13576936D01*
X3748753Y-13576936D02*
X3739229Y-13586460D01*
X3739229Y-13586460D02*
X3720182Y-13595984D01*
X3720182Y-13595984D02*
X3701134Y-13595984D01*
X3701134Y-13595984D02*
X3682086Y-13586460D01*
X3682086Y-13586460D02*
X3672563Y-13576936D01*
X3672563Y-13576936D02*
X3663039Y-13557888D01*
X3663039Y-13557888D02*
X3653515Y-13519793D01*
X3653515Y-13519793D02*
X3653515Y-13472174D01*
X3653515Y-13472174D02*
X3663039Y-13434079D01*
X3663039Y-13434079D02*
X3672563Y-13415031D01*
X3672563Y-13415031D02*
X3682086Y-13405508D01*
X3682086Y-13405508D02*
X3701134Y-13395984D01*
X3853515Y-13576936D02*
X3863039Y-13586460D01*
X3863039Y-13586460D02*
X3853515Y-13595984D01*
X3853515Y-13595984D02*
X3843991Y-13586460D01*
X3843991Y-13586460D02*
X3853515Y-13576936D01*
X3853515Y-13576936D02*
X3853515Y-13595984D01*
X3986848Y-13395984D02*
X4005896Y-13395984D01*
X4005896Y-13395984D02*
X4024944Y-13405508D01*
X4024944Y-13405508D02*
X4034467Y-13415031D01*
X4034467Y-13415031D02*
X4043991Y-13434079D01*
X4043991Y-13434079D02*
X4053515Y-13472174D01*
X4053515Y-13472174D02*
X4053515Y-13519793D01*
X4053515Y-13519793D02*
X4043991Y-13557888D01*
X4043991Y-13557888D02*
X4034467Y-13576936D01*
X4034467Y-13576936D02*
X4024944Y-13586460D01*
X4024944Y-13586460D02*
X4005896Y-13595984D01*
X4005896Y-13595984D02*
X3986848Y-13595984D01*
X3986848Y-13595984D02*
X3967801Y-13586460D01*
X3967801Y-13586460D02*
X3958277Y-13576936D01*
X3958277Y-13576936D02*
X3948753Y-13557888D01*
X3948753Y-13557888D02*
X3939229Y-13519793D01*
X3939229Y-13519793D02*
X3939229Y-13472174D01*
X3939229Y-13472174D02*
X3948753Y-13434079D01*
X3948753Y-13434079D02*
X3958277Y-13415031D01*
X3958277Y-13415031D02*
X3967801Y-13405508D01*
X3967801Y-13405508D02*
X3986848Y-13395984D01*
X4120182Y-13395984D02*
X4243991Y-13395984D01*
X4243991Y-13395984D02*
X4177325Y-13472174D01*
X4177325Y-13472174D02*
X4205896Y-13472174D01*
X4205896Y-13472174D02*
X4224944Y-13481698D01*
X4224944Y-13481698D02*
X4234468Y-13491222D01*
X4234468Y-13491222D02*
X4243991Y-13510269D01*
X4243991Y-13510269D02*
X4243991Y-13557888D01*
X4243991Y-13557888D02*
X4234468Y-13576936D01*
X4234468Y-13576936D02*
X4224944Y-13586460D01*
X4224944Y-13586460D02*
X4205896Y-13595984D01*
X4205896Y-13595984D02*
X4148753Y-13595984D01*
X4148753Y-13595984D02*
X4129706Y-13586460D01*
X4129706Y-13586460D02*
X4120182Y-13576936D01*
X4339229Y-13595984D02*
X4377325Y-13595984D01*
X4377325Y-13595984D02*
X4396372Y-13586460D01*
X4396372Y-13586460D02*
X4405896Y-13576936D01*
X4405896Y-13576936D02*
X4424944Y-13548365D01*
X4424944Y-13548365D02*
X4434468Y-13510269D01*
X4434468Y-13510269D02*
X4434468Y-13434079D01*
X4434468Y-13434079D02*
X4424944Y-13415031D01*
X4424944Y-13415031D02*
X4415420Y-13405508D01*
X4415420Y-13405508D02*
X4396372Y-13395984D01*
X4396372Y-13395984D02*
X4358277Y-13395984D01*
X4358277Y-13395984D02*
X4339229Y-13405508D01*
X4339229Y-13405508D02*
X4329706Y-13415031D01*
X4329706Y-13415031D02*
X4320182Y-13434079D01*
X4320182Y-13434079D02*
X4320182Y-13481698D01*
X4320182Y-13481698D02*
X4329706Y-13500746D01*
X4329706Y-13500746D02*
X4339229Y-13510269D01*
X4339229Y-13510269D02*
X4358277Y-13519793D01*
X4358277Y-13519793D02*
X4396372Y-13519793D01*
X4396372Y-13519793D02*
X4415420Y-13510269D01*
X4415420Y-13510269D02*
X4424944Y-13500746D01*
X4424944Y-13500746D02*
X4434468Y-13481698D01*
X4605896Y-13462650D02*
X4605896Y-13595984D01*
X4558277Y-13386460D02*
X4510658Y-13529317D01*
X4510658Y-13529317D02*
X4634468Y-13529317D01*
X4701134Y-13395984D02*
X4701134Y-13434079D01*
X4777325Y-13395984D02*
X4777325Y-13434079D01*
X5072563Y-13672174D02*
X5063039Y-13662650D01*
X5063039Y-13662650D02*
X5043991Y-13634079D01*
X5043991Y-13634079D02*
X5034468Y-13615031D01*
X5034468Y-13615031D02*
X5024944Y-13586460D01*
X5024944Y-13586460D02*
X5015420Y-13538841D01*
X5015420Y-13538841D02*
X5015420Y-13500746D01*
X5015420Y-13500746D02*
X5024944Y-13453127D01*
X5024944Y-13453127D02*
X5034468Y-13424555D01*
X5034468Y-13424555D02*
X5043991Y-13405508D01*
X5043991Y-13405508D02*
X5063039Y-13376936D01*
X5063039Y-13376936D02*
X5072563Y-13367412D01*
X5129706Y-13395984D02*
X5263039Y-13395984D01*
X5263039Y-13395984D02*
X5177325Y-13595984D01*
X5320182Y-13395984D02*
X5453515Y-13395984D01*
X5453515Y-13395984D02*
X5367801Y-13595984D01*
X5682087Y-13595984D02*
X5682087Y-13395984D01*
X5767801Y-13595984D02*
X5767801Y-13491222D01*
X5767801Y-13491222D02*
X5758277Y-13472174D01*
X5758277Y-13472174D02*
X5739230Y-13462650D01*
X5739230Y-13462650D02*
X5710658Y-13462650D01*
X5710658Y-13462650D02*
X5691610Y-13472174D01*
X5691610Y-13472174D02*
X5682087Y-13481698D01*
X5891610Y-13595984D02*
X5872563Y-13586460D01*
X5872563Y-13586460D02*
X5863039Y-13576936D01*
X5863039Y-13576936D02*
X5853515Y-13557888D01*
X5853515Y-13557888D02*
X5853515Y-13500746D01*
X5853515Y-13500746D02*
X5863039Y-13481698D01*
X5863039Y-13481698D02*
X5872563Y-13472174D01*
X5872563Y-13472174D02*
X5891610Y-13462650D01*
X5891610Y-13462650D02*
X5920182Y-13462650D01*
X5920182Y-13462650D02*
X5939230Y-13472174D01*
X5939230Y-13472174D02*
X5948753Y-13481698D01*
X5948753Y-13481698D02*
X5958277Y-13500746D01*
X5958277Y-13500746D02*
X5958277Y-13557888D01*
X5958277Y-13557888D02*
X5948753Y-13576936D01*
X5948753Y-13576936D02*
X5939230Y-13586460D01*
X5939230Y-13586460D02*
X5920182Y-13595984D01*
X5920182Y-13595984D02*
X5891610Y-13595984D01*
X6072563Y-13595984D02*
X6053515Y-13586460D01*
X6053515Y-13586460D02*
X6043991Y-13567412D01*
X6043991Y-13567412D02*
X6043991Y-13395984D01*
X6224944Y-13586460D02*
X6205896Y-13595984D01*
X6205896Y-13595984D02*
X6167801Y-13595984D01*
X6167801Y-13595984D02*
X6148753Y-13586460D01*
X6148753Y-13586460D02*
X6139230Y-13567412D01*
X6139230Y-13567412D02*
X6139230Y-13491222D01*
X6139230Y-13491222D02*
X6148753Y-13472174D01*
X6148753Y-13472174D02*
X6167801Y-13462650D01*
X6167801Y-13462650D02*
X6205896Y-13462650D01*
X6205896Y-13462650D02*
X6224944Y-13472174D01*
X6224944Y-13472174D02*
X6234468Y-13491222D01*
X6234468Y-13491222D02*
X6234468Y-13510269D01*
X6234468Y-13510269D02*
X6139230Y-13529317D01*
X6310658Y-13586460D02*
X6329706Y-13595984D01*
X6329706Y-13595984D02*
X6367801Y-13595984D01*
X6367801Y-13595984D02*
X6386849Y-13586460D01*
X6386849Y-13586460D02*
X6396372Y-13567412D01*
X6396372Y-13567412D02*
X6396372Y-13557888D01*
X6396372Y-13557888D02*
X6386849Y-13538841D01*
X6386849Y-13538841D02*
X6367801Y-13529317D01*
X6367801Y-13529317D02*
X6339230Y-13529317D01*
X6339230Y-13529317D02*
X6320182Y-13519793D01*
X6320182Y-13519793D02*
X6310658Y-13500746D01*
X6310658Y-13500746D02*
X6310658Y-13491222D01*
X6310658Y-13491222D02*
X6320182Y-13472174D01*
X6320182Y-13472174D02*
X6339230Y-13462650D01*
X6339230Y-13462650D02*
X6367801Y-13462650D01*
X6367801Y-13462650D02*
X6386849Y-13472174D01*
X6463039Y-13672174D02*
X6472563Y-13662650D01*
X6472563Y-13662650D02*
X6491611Y-13634079D01*
X6491611Y-13634079D02*
X6501134Y-13615031D01*
X6501134Y-13615031D02*
X6510658Y-13586460D01*
X6510658Y-13586460D02*
X6520182Y-13538841D01*
X6520182Y-13538841D02*
X6520182Y-13500746D01*
X6520182Y-13500746D02*
X6510658Y-13453127D01*
X6510658Y-13453127D02*
X6501134Y-13424555D01*
X6501134Y-13424555D02*
X6491611Y-13405508D01*
X6491611Y-13405508D02*
X6472563Y-13376936D01*
X6472563Y-13376936D02*
X6463039Y-13367412D01*
X1397500Y-13668500D02*
X1397500Y-13868500D01*
X1297500Y-13768500D02*
X1497500Y-13768500D01*
X1497500Y-13768500D02*
G75*
G02*
X1297500Y-13768500I-100000J0D01*
G01*
X1297500Y-13768500D02*
G75*
G02*
X1497500Y-13768500I100000J0D01*
G01*
X1739229Y-13659984D02*
X1863039Y-13659984D01*
X1863039Y-13659984D02*
X1796372Y-13736174D01*
X1796372Y-13736174D02*
X1824943Y-13736174D01*
X1824943Y-13736174D02*
X1843991Y-13745698D01*
X1843991Y-13745698D02*
X1853515Y-13755222D01*
X1853515Y-13755222D02*
X1863039Y-13774269D01*
X1863039Y-13774269D02*
X1863039Y-13821888D01*
X1863039Y-13821888D02*
X1853515Y-13840936D01*
X1853515Y-13840936D02*
X1843991Y-13850460D01*
X1843991Y-13850460D02*
X1824943Y-13859984D01*
X1824943Y-13859984D02*
X1767801Y-13859984D01*
X1767801Y-13859984D02*
X1748753Y-13850460D01*
X1748753Y-13850460D02*
X1739229Y-13840936D01*
X1948753Y-13840936D02*
X1958277Y-13850460D01*
X1958277Y-13850460D02*
X1948753Y-13859984D01*
X1948753Y-13859984D02*
X1939229Y-13850460D01*
X1939229Y-13850460D02*
X1948753Y-13840936D01*
X1948753Y-13840936D02*
X1948753Y-13859984D01*
X2034467Y-13679031D02*
X2043991Y-13669508D01*
X2043991Y-13669508D02*
X2063039Y-13659984D01*
X2063039Y-13659984D02*
X2110658Y-13659984D01*
X2110658Y-13659984D02*
X2129705Y-13669508D01*
X2129705Y-13669508D02*
X2139229Y-13679031D01*
X2139229Y-13679031D02*
X2148753Y-13698079D01*
X2148753Y-13698079D02*
X2148753Y-13717127D01*
X2148753Y-13717127D02*
X2139229Y-13745698D01*
X2139229Y-13745698D02*
X2024943Y-13859984D01*
X2024943Y-13859984D02*
X2148753Y-13859984D01*
X2272563Y-13659984D02*
X2291610Y-13659984D01*
X2291610Y-13659984D02*
X2310658Y-13669508D01*
X2310658Y-13669508D02*
X2320182Y-13679031D01*
X2320182Y-13679031D02*
X2329705Y-13698079D01*
X2329705Y-13698079D02*
X2339229Y-13736174D01*
X2339229Y-13736174D02*
X2339229Y-13783793D01*
X2339229Y-13783793D02*
X2329705Y-13821888D01*
X2329705Y-13821888D02*
X2320182Y-13840936D01*
X2320182Y-13840936D02*
X2310658Y-13850460D01*
X2310658Y-13850460D02*
X2291610Y-13859984D01*
X2291610Y-13859984D02*
X2272563Y-13859984D01*
X2272563Y-13859984D02*
X2253515Y-13850460D01*
X2253515Y-13850460D02*
X2243991Y-13840936D01*
X2243991Y-13840936D02*
X2234467Y-13821888D01*
X2234467Y-13821888D02*
X2224944Y-13783793D01*
X2224944Y-13783793D02*
X2224944Y-13736174D01*
X2224944Y-13736174D02*
X2234467Y-13698079D01*
X2234467Y-13698079D02*
X2243991Y-13679031D01*
X2243991Y-13679031D02*
X2253515Y-13669508D01*
X2253515Y-13669508D02*
X2272563Y-13659984D01*
X2463039Y-13659984D02*
X2482086Y-13659984D01*
X2482086Y-13659984D02*
X2501134Y-13669508D01*
X2501134Y-13669508D02*
X2510658Y-13679031D01*
X2510658Y-13679031D02*
X2520182Y-13698079D01*
X2520182Y-13698079D02*
X2529705Y-13736174D01*
X2529705Y-13736174D02*
X2529705Y-13783793D01*
X2529705Y-13783793D02*
X2520182Y-13821888D01*
X2520182Y-13821888D02*
X2510658Y-13840936D01*
X2510658Y-13840936D02*
X2501134Y-13850460D01*
X2501134Y-13850460D02*
X2482086Y-13859984D01*
X2482086Y-13859984D02*
X2463039Y-13859984D01*
X2463039Y-13859984D02*
X2443991Y-13850460D01*
X2443991Y-13850460D02*
X2434467Y-13840936D01*
X2434467Y-13840936D02*
X2424944Y-13821888D01*
X2424944Y-13821888D02*
X2415420Y-13783793D01*
X2415420Y-13783793D02*
X2415420Y-13736174D01*
X2415420Y-13736174D02*
X2424944Y-13698079D01*
X2424944Y-13698079D02*
X2434467Y-13679031D01*
X2434467Y-13679031D02*
X2443991Y-13669508D01*
X2443991Y-13669508D02*
X2463039Y-13659984D01*
X2615420Y-13859984D02*
X2615420Y-13726650D01*
X2615420Y-13745698D02*
X2624944Y-13736174D01*
X2624944Y-13736174D02*
X2643991Y-13726650D01*
X2643991Y-13726650D02*
X2672563Y-13726650D01*
X2672563Y-13726650D02*
X2691610Y-13736174D01*
X2691610Y-13736174D02*
X2701134Y-13755222D01*
X2701134Y-13755222D02*
X2701134Y-13859984D01*
X2701134Y-13755222D02*
X2710658Y-13736174D01*
X2710658Y-13736174D02*
X2729705Y-13726650D01*
X2729705Y-13726650D02*
X2758277Y-13726650D01*
X2758277Y-13726650D02*
X2777325Y-13736174D01*
X2777325Y-13736174D02*
X2786848Y-13755222D01*
X2786848Y-13755222D02*
X2786848Y-13859984D01*
X2882086Y-13859984D02*
X2882086Y-13726650D01*
X2882086Y-13745698D02*
X2891610Y-13736174D01*
X2891610Y-13736174D02*
X2910658Y-13726650D01*
X2910658Y-13726650D02*
X2939229Y-13726650D01*
X2939229Y-13726650D02*
X2958277Y-13736174D01*
X2958277Y-13736174D02*
X2967801Y-13755222D01*
X2967801Y-13755222D02*
X2967801Y-13859984D01*
X2967801Y-13755222D02*
X2977324Y-13736174D01*
X2977324Y-13736174D02*
X2996372Y-13726650D01*
X2996372Y-13726650D02*
X3024943Y-13726650D01*
X3024943Y-13726650D02*
X3043991Y-13736174D01*
X3043991Y-13736174D02*
X3053515Y-13755222D01*
X3053515Y-13755222D02*
X3053515Y-13859984D01*
X3443991Y-13650460D02*
X3272563Y-13907603D01*
X3701134Y-13659984D02*
X3720182Y-13659984D01*
X3720182Y-13659984D02*
X3739229Y-13669508D01*
X3739229Y-13669508D02*
X3748753Y-13679031D01*
X3748753Y-13679031D02*
X3758277Y-13698079D01*
X3758277Y-13698079D02*
X3767801Y-13736174D01*
X3767801Y-13736174D02*
X3767801Y-13783793D01*
X3767801Y-13783793D02*
X3758277Y-13821888D01*
X3758277Y-13821888D02*
X3748753Y-13840936D01*
X3748753Y-13840936D02*
X3739229Y-13850460D01*
X3739229Y-13850460D02*
X3720182Y-13859984D01*
X3720182Y-13859984D02*
X3701134Y-13859984D01*
X3701134Y-13859984D02*
X3682086Y-13850460D01*
X3682086Y-13850460D02*
X3672563Y-13840936D01*
X3672563Y-13840936D02*
X3663039Y-13821888D01*
X3663039Y-13821888D02*
X3653515Y-13783793D01*
X3653515Y-13783793D02*
X3653515Y-13736174D01*
X3653515Y-13736174D02*
X3663039Y-13698079D01*
X3663039Y-13698079D02*
X3672563Y-13679031D01*
X3672563Y-13679031D02*
X3682086Y-13669508D01*
X3682086Y-13669508D02*
X3701134Y-13659984D01*
X3853515Y-13840936D02*
X3863039Y-13850460D01*
X3863039Y-13850460D02*
X3853515Y-13859984D01*
X3853515Y-13859984D02*
X3843991Y-13850460D01*
X3843991Y-13850460D02*
X3853515Y-13840936D01*
X3853515Y-13840936D02*
X3853515Y-13859984D01*
X4053515Y-13859984D02*
X3939229Y-13859984D01*
X3996372Y-13859984D02*
X3996372Y-13659984D01*
X3996372Y-13659984D02*
X3977325Y-13688555D01*
X3977325Y-13688555D02*
X3958277Y-13707603D01*
X3958277Y-13707603D02*
X3939229Y-13717127D01*
X4129706Y-13679031D02*
X4139229Y-13669508D01*
X4139229Y-13669508D02*
X4158277Y-13659984D01*
X4158277Y-13659984D02*
X4205896Y-13659984D01*
X4205896Y-13659984D02*
X4224944Y-13669508D01*
X4224944Y-13669508D02*
X4234468Y-13679031D01*
X4234468Y-13679031D02*
X4243991Y-13698079D01*
X4243991Y-13698079D02*
X4243991Y-13717127D01*
X4243991Y-13717127D02*
X4234468Y-13745698D01*
X4234468Y-13745698D02*
X4120182Y-13859984D01*
X4120182Y-13859984D02*
X4243991Y-13859984D01*
X4415420Y-13659984D02*
X4377325Y-13659984D01*
X4377325Y-13659984D02*
X4358277Y-13669508D01*
X4358277Y-13669508D02*
X4348753Y-13679031D01*
X4348753Y-13679031D02*
X4329706Y-13707603D01*
X4329706Y-13707603D02*
X4320182Y-13745698D01*
X4320182Y-13745698D02*
X4320182Y-13821888D01*
X4320182Y-13821888D02*
X4329706Y-13840936D01*
X4329706Y-13840936D02*
X4339229Y-13850460D01*
X4339229Y-13850460D02*
X4358277Y-13859984D01*
X4358277Y-13859984D02*
X4396372Y-13859984D01*
X4396372Y-13859984D02*
X4415420Y-13850460D01*
X4415420Y-13850460D02*
X4424944Y-13840936D01*
X4424944Y-13840936D02*
X4434468Y-13821888D01*
X4434468Y-13821888D02*
X4434468Y-13774269D01*
X4434468Y-13774269D02*
X4424944Y-13755222D01*
X4424944Y-13755222D02*
X4415420Y-13745698D01*
X4415420Y-13745698D02*
X4396372Y-13736174D01*
X4396372Y-13736174D02*
X4358277Y-13736174D01*
X4358277Y-13736174D02*
X4339229Y-13745698D01*
X4339229Y-13745698D02*
X4329706Y-13755222D01*
X4329706Y-13755222D02*
X4320182Y-13774269D01*
X4558277Y-13659984D02*
X4577325Y-13659984D01*
X4577325Y-13659984D02*
X4596372Y-13669508D01*
X4596372Y-13669508D02*
X4605896Y-13679031D01*
X4605896Y-13679031D02*
X4615420Y-13698079D01*
X4615420Y-13698079D02*
X4624944Y-13736174D01*
X4624944Y-13736174D02*
X4624944Y-13783793D01*
X4624944Y-13783793D02*
X4615420Y-13821888D01*
X4615420Y-13821888D02*
X4605896Y-13840936D01*
X4605896Y-13840936D02*
X4596372Y-13850460D01*
X4596372Y-13850460D02*
X4577325Y-13859984D01*
X4577325Y-13859984D02*
X4558277Y-13859984D01*
X4558277Y-13859984D02*
X4539229Y-13850460D01*
X4539229Y-13850460D02*
X4529706Y-13840936D01*
X4529706Y-13840936D02*
X4520182Y-13821888D01*
X4520182Y-13821888D02*
X4510658Y-13783793D01*
X4510658Y-13783793D02*
X4510658Y-13736174D01*
X4510658Y-13736174D02*
X4520182Y-13698079D01*
X4520182Y-13698079D02*
X4529706Y-13679031D01*
X4529706Y-13679031D02*
X4539229Y-13669508D01*
X4539229Y-13669508D02*
X4558277Y-13659984D01*
X4701134Y-13659984D02*
X4701134Y-13698079D01*
X4777325Y-13659984D02*
X4777325Y-13698079D01*
X5072563Y-13936174D02*
X5063039Y-13926650D01*
X5063039Y-13926650D02*
X5043991Y-13898079D01*
X5043991Y-13898079D02*
X5034468Y-13879031D01*
X5034468Y-13879031D02*
X5024944Y-13850460D01*
X5024944Y-13850460D02*
X5015420Y-13802841D01*
X5015420Y-13802841D02*
X5015420Y-13764746D01*
X5015420Y-13764746D02*
X5024944Y-13717127D01*
X5024944Y-13717127D02*
X5034468Y-13688555D01*
X5034468Y-13688555D02*
X5043991Y-13669508D01*
X5043991Y-13669508D02*
X5063039Y-13640936D01*
X5063039Y-13640936D02*
X5072563Y-13631412D01*
X5234468Y-13659984D02*
X5196372Y-13659984D01*
X5196372Y-13659984D02*
X5177325Y-13669508D01*
X5177325Y-13669508D02*
X5167801Y-13679031D01*
X5167801Y-13679031D02*
X5148753Y-13707603D01*
X5148753Y-13707603D02*
X5139230Y-13745698D01*
X5139230Y-13745698D02*
X5139230Y-13821888D01*
X5139230Y-13821888D02*
X5148753Y-13840936D01*
X5148753Y-13840936D02*
X5158277Y-13850460D01*
X5158277Y-13850460D02*
X5177325Y-13859984D01*
X5177325Y-13859984D02*
X5215420Y-13859984D01*
X5215420Y-13859984D02*
X5234468Y-13850460D01*
X5234468Y-13850460D02*
X5243991Y-13840936D01*
X5243991Y-13840936D02*
X5253515Y-13821888D01*
X5253515Y-13821888D02*
X5253515Y-13774269D01*
X5253515Y-13774269D02*
X5243991Y-13755222D01*
X5243991Y-13755222D02*
X5234468Y-13745698D01*
X5234468Y-13745698D02*
X5215420Y-13736174D01*
X5215420Y-13736174D02*
X5177325Y-13736174D01*
X5177325Y-13736174D02*
X5158277Y-13745698D01*
X5158277Y-13745698D02*
X5148753Y-13755222D01*
X5148753Y-13755222D02*
X5139230Y-13774269D01*
X5491611Y-13859984D02*
X5491611Y-13659984D01*
X5577325Y-13859984D02*
X5577325Y-13755222D01*
X5577325Y-13755222D02*
X5567801Y-13736174D01*
X5567801Y-13736174D02*
X5548753Y-13726650D01*
X5548753Y-13726650D02*
X5520182Y-13726650D01*
X5520182Y-13726650D02*
X5501134Y-13736174D01*
X5501134Y-13736174D02*
X5491611Y-13745698D01*
X5701134Y-13859984D02*
X5682087Y-13850460D01*
X5682087Y-13850460D02*
X5672563Y-13840936D01*
X5672563Y-13840936D02*
X5663039Y-13821888D01*
X5663039Y-13821888D02*
X5663039Y-13764746D01*
X5663039Y-13764746D02*
X5672563Y-13745698D01*
X5672563Y-13745698D02*
X5682087Y-13736174D01*
X5682087Y-13736174D02*
X5701134Y-13726650D01*
X5701134Y-13726650D02*
X5729706Y-13726650D01*
X5729706Y-13726650D02*
X5748753Y-13736174D01*
X5748753Y-13736174D02*
X5758277Y-13745698D01*
X5758277Y-13745698D02*
X5767801Y-13764746D01*
X5767801Y-13764746D02*
X5767801Y-13821888D01*
X5767801Y-13821888D02*
X5758277Y-13840936D01*
X5758277Y-13840936D02*
X5748753Y-13850460D01*
X5748753Y-13850460D02*
X5729706Y-13859984D01*
X5729706Y-13859984D02*
X5701134Y-13859984D01*
X5882087Y-13859984D02*
X5863039Y-13850460D01*
X5863039Y-13850460D02*
X5853515Y-13831412D01*
X5853515Y-13831412D02*
X5853515Y-13659984D01*
X6034468Y-13850460D02*
X6015420Y-13859984D01*
X6015420Y-13859984D02*
X5977325Y-13859984D01*
X5977325Y-13859984D02*
X5958277Y-13850460D01*
X5958277Y-13850460D02*
X5948753Y-13831412D01*
X5948753Y-13831412D02*
X5948753Y-13755222D01*
X5948753Y-13755222D02*
X5958277Y-13736174D01*
X5958277Y-13736174D02*
X5977325Y-13726650D01*
X5977325Y-13726650D02*
X6015420Y-13726650D01*
X6015420Y-13726650D02*
X6034468Y-13736174D01*
X6034468Y-13736174D02*
X6043991Y-13755222D01*
X6043991Y-13755222D02*
X6043991Y-13774269D01*
X6043991Y-13774269D02*
X5948753Y-13793317D01*
X6120182Y-13850460D02*
X6139230Y-13859984D01*
X6139230Y-13859984D02*
X6177325Y-13859984D01*
X6177325Y-13859984D02*
X6196372Y-13850460D01*
X6196372Y-13850460D02*
X6205896Y-13831412D01*
X6205896Y-13831412D02*
X6205896Y-13821888D01*
X6205896Y-13821888D02*
X6196372Y-13802841D01*
X6196372Y-13802841D02*
X6177325Y-13793317D01*
X6177325Y-13793317D02*
X6148753Y-13793317D01*
X6148753Y-13793317D02*
X6129706Y-13783793D01*
X6129706Y-13783793D02*
X6120182Y-13764746D01*
X6120182Y-13764746D02*
X6120182Y-13755222D01*
X6120182Y-13755222D02*
X6129706Y-13736174D01*
X6129706Y-13736174D02*
X6148753Y-13726650D01*
X6148753Y-13726650D02*
X6177325Y-13726650D01*
X6177325Y-13726650D02*
X6196372Y-13736174D01*
X6272563Y-13936174D02*
X6282087Y-13926650D01*
X6282087Y-13926650D02*
X6301134Y-13898079D01*
X6301134Y-13898079D02*
X6310658Y-13879031D01*
X6310658Y-13879031D02*
X6320182Y-13850460D01*
X6320182Y-13850460D02*
X6329706Y-13802841D01*
X6329706Y-13802841D02*
X6329706Y-13764746D01*
X6329706Y-13764746D02*
X6320182Y-13717127D01*
X6320182Y-13717127D02*
X6310658Y-13688555D01*
X6310658Y-13688555D02*
X6301134Y-13669508D01*
X6301134Y-13669508D02*
X6282087Y-13640936D01*
X6282087Y-13640936D02*
X6272563Y-13631412D01*
M02*
