M48
; DRILL file KiCad 10.0.2 date 2026-05-12T16:31:41
; FORMAT={-:-/ absolute / metric / decimal}
; #@! TF.CreationDate,2026-05-12T16:31:41-07:00
; #@! TF.GenerationSoftware,Kicad,Pcbnew,10.0.2
; #@! TF.FileFunction,Plated,1,2,PTH
FMAT,2
METRIC
; #@! TA.AperFunction,Plated,PTH,ViaDrill
T1C0.300
; #@! TA.AperFunction,Plated,PTH,ComponentDrill
T2C0.500
; #@! TA.AperFunction,Plated,PTH,ViaDrill
T3C0.600
; #@! TA.AperFunction,Plated,PTH,ComponentDrill
T4C0.700
; #@! TA.AperFunction,Plated,PTH,ComponentDrill
T5C0.750
; #@! TA.AperFunction,Plated,PTH,ComponentDrill
T6C0.800
; #@! TA.AperFunction,Plated,PTH,ComponentDrill
T7C0.864
; #@! TA.AperFunction,Plated,PTH,ComponentDrill
T8C0.950
; #@! TA.AperFunction,Plated,PTH,ComponentDrill
T9C1.000
; #@! TA.AperFunction,Plated,PTH,ComponentDrill
T10C3.200
%
G90
G05
T1
X42.342Y-50.8
X42.545Y-77.47
X44.45Y-61.595
X45.619Y-83.482
X46.266Y-85.597
X52.324Y-92.964
X53.848Y-90.932
X60.766Y-67.149
X66.684Y-91.047
X70.104Y-96.266
X71.693Y-36.449
X80.01Y-103.124
X81.788Y-82.55
X88.138Y-82.042
X98.425Y-43.667
X99.654Y-44.002
X99.939Y-93.218
X112.288Y-91.44
X112.897Y-66.669
X115.265Y-46.641
X120.65Y-55.88
X121.158Y-48.26
X128.67Y-97.317
T3
X55.118Y-94.234
T4
X78.74Y-56.52
X78.74Y-58.42
X83.82Y-56.52
X83.82Y-58.42
X88.9Y-56.52
X88.9Y-58.42
X93.98Y-56.52
X93.98Y-58.42
X96.52Y-91.44
X96.52Y-97.79
X98.42Y-91.44
X98.42Y-97.79
X99.06Y-56.52
X99.06Y-58.42
X113.03Y-55.88
X113.03Y-60.96
X113.03Y-68.535
X113.03Y-73.615
X113.145Y-43.18
X113.145Y-48.26
X113.145Y-81.28
X113.145Y-86.36
X114.93Y-55.88
X114.93Y-60.96
X114.93Y-68.535
X114.93Y-73.615
X115.045Y-43.18
X115.045Y-48.26
X115.045Y-81.28
X115.045Y-86.36
X117.48Y-36.83
X119.38Y-36.83
X128.91Y-36.83
X130.81Y-36.83
T5
X87.63Y-50.8
X88.9Y-50.8
X90.17Y-50.8
T6
X73.665Y-66.04
X73.665Y-68.58
X73.665Y-71.12
X78.745Y-77.47
X78.745Y-80.01
X78.745Y-82.55
X81.28Y-45.72
X81.285Y-66.04
X81.285Y-68.58
X81.285Y-71.12
X85.095Y-66.04
X85.095Y-68.58
X85.095Y-71.12
X86.28Y-45.72
X86.365Y-77.47
X86.365Y-80.01
X86.365Y-82.55
X91.445Y-77.47
X91.445Y-80.01
X91.445Y-82.55
X91.52Y-45.72
X92.715Y-66.04
X92.715Y-68.58
X92.715Y-71.12
X96.52Y-45.72
X96.52Y-66.04
X96.52Y-68.58
X96.52Y-71.12
X99.065Y-77.47
X99.065Y-80.01
X99.065Y-82.55
X104.14Y-66.04
X104.14Y-68.58
X104.14Y-71.12
X133.35Y-56.56
X133.35Y-61.56
X133.35Y-68.615
X133.35Y-73.615
X133.465Y-43.26
X133.465Y-48.26
X133.465Y-81.36
X133.465Y-86.36
T7
X119.38Y-54.02
X119.38Y-62.82
X119.38Y-66.675
X119.38Y-75.475
X119.495Y-41.32
X119.495Y-50.12
X119.495Y-79.42
X119.495Y-88.22
X121.92Y-54.02
X121.92Y-62.82
X121.92Y-66.675
X121.92Y-75.475
X122.035Y-41.32
X122.035Y-50.12
X122.035Y-79.42
X122.035Y-88.22
X124.46Y-54.02
X124.46Y-62.82
X124.46Y-66.675
X124.46Y-75.475
X124.575Y-41.32
X124.575Y-50.12
X124.575Y-79.42
X124.575Y-88.22
X127.0Y-54.02
X127.0Y-62.82
X127.0Y-66.675
X127.0Y-75.475
X127.115Y-41.32
X127.115Y-50.12
X127.115Y-79.42
X127.115Y-88.22
T8
X97.95Y-28.845
X100.45Y-28.845
X102.95Y-28.845
X105.45Y-28.845
X107.95Y-28.845
X115.61Y-28.845
X118.11Y-28.845
X120.61Y-28.845
X128.23Y-28.845
X130.73Y-28.845
X133.23Y-28.845
T9
X19.75Y-34.75
X22.25Y-34.75
X26.924Y-99.822
X29.424Y-99.822
X36.025Y-34.44
X37.41Y-31.6
X38.795Y-34.44
X40.18Y-31.6
X40.64Y-99.06
X40.64Y-101.6
X41.565Y-34.44
X42.95Y-31.6
X43.18Y-99.06
X43.18Y-101.6
X44.335Y-34.44
X45.72Y-31.6
X45.72Y-99.06
X45.72Y-101.6
X47.105Y-34.44
X48.26Y-99.06
X48.26Y-101.6
X50.8Y-99.06
X50.8Y-101.6
X53.34Y-99.06
X53.34Y-101.6
X55.88Y-99.06
X55.88Y-101.6
X58.42Y-99.06
X58.42Y-101.6
X60.96Y-99.06
X60.96Y-101.6
X63.5Y-99.06
X63.5Y-101.6
X66.04Y-99.06
X66.04Y-101.6
X68.58Y-99.06
X68.58Y-101.6
X71.005Y-34.44
X71.12Y-99.06
X71.12Y-101.6
X72.39Y-31.6
X73.66Y-99.06
X73.66Y-101.6
X73.775Y-34.44
X73.96Y-45.52
X73.96Y-48.02
X75.16Y-31.6
X76.2Y-99.06
X76.2Y-101.6
X76.545Y-34.44
X77.93Y-31.6
X78.74Y-99.06
X78.74Y-101.6
X79.315Y-34.44
X80.7Y-31.6
X81.28Y-99.06
X81.28Y-101.6
X82.085Y-34.44
X83.82Y-99.06
X83.82Y-101.6
X86.36Y-99.06
X86.36Y-101.6
X88.9Y-99.06
X88.9Y-101.6
X97.25Y-38.0
X99.75Y-38.0
X106.0Y-38.0
X108.5Y-38.0
X113.955Y-97.41
X115.34Y-100.25
X116.725Y-97.41
X118.11Y-100.25
X119.495Y-97.41
X120.88Y-100.25
X122.265Y-97.41
X123.65Y-100.25
X125.035Y-97.41
T10
X29.065Y-33.02
X54.065Y-33.02
X64.045Y-33.02
X89.045Y-33.02
X106.995Y-98.83
X131.995Y-98.83
T2
X36.53Y-45.656G85X36.53Y-46.656
G05
X36.53Y-55.38G85X36.53Y-56.38
G05
X36.53Y-71.89G85X36.53Y-72.89
G05
X39.03Y-45.656G85X39.03Y-46.656
G05
X39.03Y-55.38G85X39.03Y-56.38
G05
X39.03Y-71.89G85X39.03Y-72.89
G05
X41.53Y-45.656G85X41.53Y-46.656
G05
X41.53Y-55.38G85X41.53Y-56.38
G05
X41.53Y-71.89G85X41.53Y-72.89
G05
M30
