%TF.GenerationSoftware,KiCad,Pcbnew,10.0.2*%
%TF.CreationDate,2026-05-12T16:31:41-07:00*%
%TF.ProjectId,rpi-avionics,7270692d-6176-4696-9f6e-6963732e6b69,rev?*%
%TF.SameCoordinates,Original*%
%TF.FileFunction,Drillmap*%
%TF.FilePolarity,Positive*%
%FSLAX45Y45*%
G04 Gerber Fmt 4.5, Leading zero omitted, Abs format (unit mm)*
G04 Created by KiCad (PCBNEW 10.0.2) date 2026-05-12 16:31:41*
%MOMM*%
%LPD*%
G01*
G04 APERTURE LIST*
%ADD10C,0.050000*%
%ADD11C,0.200000*%
%ADD12C,0.320000*%
G04 APERTURE END LIST*
D10*
X1500000Y-2250000D02*
X14500000Y-2250000D01*
X14500000Y-10750000D01*
X1500000Y-10750000D01*
X1500000Y-2250000D01*
D11*
D12*
X1740000Y-2490000D02*
X2060000Y-2810000D01*
X2060000Y-2490000D02*
X1740000Y-2810000D01*
X1740000Y-6340000D02*
X2060000Y-6660000D01*
X2060000Y-6340000D02*
X1740000Y-6660000D01*
X1740000Y-10190000D02*
X2060000Y-10510000D01*
X2060000Y-10190000D02*
X1740000Y-10510000D01*
X6748800Y-6340000D02*
X7068800Y-6660000D01*
X7068800Y-6340000D02*
X6748800Y-6660000D01*
X13940000Y-2490000D02*
X14260000Y-2810000D01*
X14260000Y-2490000D02*
X13940000Y-2810000D01*
X13940000Y-6340000D02*
X14260000Y-6660000D01*
X14260000Y-6340000D02*
X13940000Y-6660000D01*
X13940000Y-10190000D02*
X14260000Y-10510000D01*
X14260000Y-10190000D02*
X13940000Y-10510000D01*
D11*
X1758277Y-11063984D02*
X1758277Y-10863984D01*
X1758277Y-10863984D02*
X1805896Y-10863984D01*
X1805896Y-10863984D02*
X1834467Y-10873508D01*
X1834467Y-10873508D02*
X1853515Y-10892555D01*
X1853515Y-10892555D02*
X1863039Y-10911603D01*
X1863039Y-10911603D02*
X1872562Y-10949698D01*
X1872562Y-10949698D02*
X1872562Y-10978270D01*
X1872562Y-10978270D02*
X1863039Y-11016365D01*
X1863039Y-11016365D02*
X1853515Y-11035412D01*
X1853515Y-11035412D02*
X1834467Y-11054460D01*
X1834467Y-11054460D02*
X1805896Y-11063984D01*
X1805896Y-11063984D02*
X1758277Y-11063984D01*
X1958277Y-11063984D02*
X1958277Y-10930650D01*
X1958277Y-10968746D02*
X1967801Y-10949698D01*
X1967801Y-10949698D02*
X1977324Y-10940174D01*
X1977324Y-10940174D02*
X1996372Y-10930650D01*
X1996372Y-10930650D02*
X2015420Y-10930650D01*
X2082086Y-11063984D02*
X2082086Y-10930650D01*
X2082086Y-10863984D02*
X2072562Y-10873508D01*
X2072562Y-10873508D02*
X2082086Y-10883031D01*
X2082086Y-10883031D02*
X2091610Y-10873508D01*
X2091610Y-10873508D02*
X2082086Y-10863984D01*
X2082086Y-10863984D02*
X2082086Y-10883031D01*
X2205896Y-11063984D02*
X2186848Y-11054460D01*
X2186848Y-11054460D02*
X2177324Y-11035412D01*
X2177324Y-11035412D02*
X2177324Y-10863984D01*
X2310658Y-11063984D02*
X2291610Y-11054460D01*
X2291610Y-11054460D02*
X2282086Y-11035412D01*
X2282086Y-11035412D02*
X2282086Y-10863984D01*
X2539229Y-11063984D02*
X2539229Y-10863984D01*
X2539229Y-10863984D02*
X2605896Y-11006841D01*
X2605896Y-11006841D02*
X2672563Y-10863984D01*
X2672563Y-10863984D02*
X2672563Y-11063984D01*
X2853515Y-11063984D02*
X2853515Y-10959222D01*
X2853515Y-10959222D02*
X2843991Y-10940174D01*
X2843991Y-10940174D02*
X2824943Y-10930650D01*
X2824943Y-10930650D02*
X2786848Y-10930650D01*
X2786848Y-10930650D02*
X2767801Y-10940174D01*
X2853515Y-11054460D02*
X2834467Y-11063984D01*
X2834467Y-11063984D02*
X2786848Y-11063984D01*
X2786848Y-11063984D02*
X2767801Y-11054460D01*
X2767801Y-11054460D02*
X2758277Y-11035412D01*
X2758277Y-11035412D02*
X2758277Y-11016365D01*
X2758277Y-11016365D02*
X2767801Y-10997317D01*
X2767801Y-10997317D02*
X2786848Y-10987793D01*
X2786848Y-10987793D02*
X2834467Y-10987793D01*
X2834467Y-10987793D02*
X2853515Y-10978270D01*
X2948753Y-10930650D02*
X2948753Y-11130650D01*
X2948753Y-10940174D02*
X2967801Y-10930650D01*
X2967801Y-10930650D02*
X3005896Y-10930650D01*
X3005896Y-10930650D02*
X3024943Y-10940174D01*
X3024943Y-10940174D02*
X3034467Y-10949698D01*
X3034467Y-10949698D02*
X3043991Y-10968746D01*
X3043991Y-10968746D02*
X3043991Y-11025889D01*
X3043991Y-11025889D02*
X3034467Y-11044936D01*
X3034467Y-11044936D02*
X3024943Y-11054460D01*
X3024943Y-11054460D02*
X3005896Y-11063984D01*
X3005896Y-11063984D02*
X2967801Y-11063984D01*
X2967801Y-11063984D02*
X2948753Y-11054460D01*
X3129705Y-11044936D02*
X3139229Y-11054460D01*
X3139229Y-11054460D02*
X3129705Y-11063984D01*
X3129705Y-11063984D02*
X3120182Y-11054460D01*
X3120182Y-11054460D02*
X3129705Y-11044936D01*
X3129705Y-11044936D02*
X3129705Y-11063984D01*
X3129705Y-10940174D02*
X3139229Y-10949698D01*
X3139229Y-10949698D02*
X3129705Y-10959222D01*
X3129705Y-10959222D02*
X3120182Y-10949698D01*
X3120182Y-10949698D02*
X3129705Y-10940174D01*
X3129705Y-10940174D02*
X3129705Y-10959222D01*
X1297500Y-11292500D02*
X1497500Y-11492500D01*
X1497500Y-11292500D02*
X1297500Y-11492500D01*
X1739229Y-11283984D02*
X1863039Y-11283984D01*
X1863039Y-11283984D02*
X1796372Y-11360174D01*
X1796372Y-11360174D02*
X1824943Y-11360174D01*
X1824943Y-11360174D02*
X1843991Y-11369698D01*
X1843991Y-11369698D02*
X1853515Y-11379222D01*
X1853515Y-11379222D02*
X1863039Y-11398269D01*
X1863039Y-11398269D02*
X1863039Y-11445888D01*
X1863039Y-11445888D02*
X1853515Y-11464936D01*
X1853515Y-11464936D02*
X1843991Y-11474460D01*
X1843991Y-11474460D02*
X1824943Y-11483984D01*
X1824943Y-11483984D02*
X1767801Y-11483984D01*
X1767801Y-11483984D02*
X1748753Y-11474460D01*
X1748753Y-11474460D02*
X1739229Y-11464936D01*
X1948753Y-11464936D02*
X1958277Y-11474460D01*
X1958277Y-11474460D02*
X1948753Y-11483984D01*
X1948753Y-11483984D02*
X1939229Y-11474460D01*
X1939229Y-11474460D02*
X1948753Y-11464936D01*
X1948753Y-11464936D02*
X1948753Y-11483984D01*
X2034467Y-11303031D02*
X2043991Y-11293508D01*
X2043991Y-11293508D02*
X2063039Y-11283984D01*
X2063039Y-11283984D02*
X2110658Y-11283984D01*
X2110658Y-11283984D02*
X2129705Y-11293508D01*
X2129705Y-11293508D02*
X2139229Y-11303031D01*
X2139229Y-11303031D02*
X2148753Y-11322079D01*
X2148753Y-11322079D02*
X2148753Y-11341127D01*
X2148753Y-11341127D02*
X2139229Y-11369698D01*
X2139229Y-11369698D02*
X2024943Y-11483984D01*
X2024943Y-11483984D02*
X2148753Y-11483984D01*
X2272563Y-11283984D02*
X2291610Y-11283984D01*
X2291610Y-11283984D02*
X2310658Y-11293508D01*
X2310658Y-11293508D02*
X2320182Y-11303031D01*
X2320182Y-11303031D02*
X2329705Y-11322079D01*
X2329705Y-11322079D02*
X2339229Y-11360174D01*
X2339229Y-11360174D02*
X2339229Y-11407793D01*
X2339229Y-11407793D02*
X2329705Y-11445888D01*
X2329705Y-11445888D02*
X2320182Y-11464936D01*
X2320182Y-11464936D02*
X2310658Y-11474460D01*
X2310658Y-11474460D02*
X2291610Y-11483984D01*
X2291610Y-11483984D02*
X2272563Y-11483984D01*
X2272563Y-11483984D02*
X2253515Y-11474460D01*
X2253515Y-11474460D02*
X2243991Y-11464936D01*
X2243991Y-11464936D02*
X2234467Y-11445888D01*
X2234467Y-11445888D02*
X2224944Y-11407793D01*
X2224944Y-11407793D02*
X2224944Y-11360174D01*
X2224944Y-11360174D02*
X2234467Y-11322079D01*
X2234467Y-11322079D02*
X2243991Y-11303031D01*
X2243991Y-11303031D02*
X2253515Y-11293508D01*
X2253515Y-11293508D02*
X2272563Y-11283984D01*
X2463039Y-11283984D02*
X2482086Y-11283984D01*
X2482086Y-11283984D02*
X2501134Y-11293508D01*
X2501134Y-11293508D02*
X2510658Y-11303031D01*
X2510658Y-11303031D02*
X2520182Y-11322079D01*
X2520182Y-11322079D02*
X2529705Y-11360174D01*
X2529705Y-11360174D02*
X2529705Y-11407793D01*
X2529705Y-11407793D02*
X2520182Y-11445888D01*
X2520182Y-11445888D02*
X2510658Y-11464936D01*
X2510658Y-11464936D02*
X2501134Y-11474460D01*
X2501134Y-11474460D02*
X2482086Y-11483984D01*
X2482086Y-11483984D02*
X2463039Y-11483984D01*
X2463039Y-11483984D02*
X2443991Y-11474460D01*
X2443991Y-11474460D02*
X2434467Y-11464936D01*
X2434467Y-11464936D02*
X2424944Y-11445888D01*
X2424944Y-11445888D02*
X2415420Y-11407793D01*
X2415420Y-11407793D02*
X2415420Y-11360174D01*
X2415420Y-11360174D02*
X2424944Y-11322079D01*
X2424944Y-11322079D02*
X2434467Y-11303031D01*
X2434467Y-11303031D02*
X2443991Y-11293508D01*
X2443991Y-11293508D02*
X2463039Y-11283984D01*
X2615420Y-11483984D02*
X2615420Y-11350650D01*
X2615420Y-11369698D02*
X2624944Y-11360174D01*
X2624944Y-11360174D02*
X2643991Y-11350650D01*
X2643991Y-11350650D02*
X2672563Y-11350650D01*
X2672563Y-11350650D02*
X2691610Y-11360174D01*
X2691610Y-11360174D02*
X2701134Y-11379222D01*
X2701134Y-11379222D02*
X2701134Y-11483984D01*
X2701134Y-11379222D02*
X2710658Y-11360174D01*
X2710658Y-11360174D02*
X2729705Y-11350650D01*
X2729705Y-11350650D02*
X2758277Y-11350650D01*
X2758277Y-11350650D02*
X2777325Y-11360174D01*
X2777325Y-11360174D02*
X2786848Y-11379222D01*
X2786848Y-11379222D02*
X2786848Y-11483984D01*
X2882086Y-11483984D02*
X2882086Y-11350650D01*
X2882086Y-11369698D02*
X2891610Y-11360174D01*
X2891610Y-11360174D02*
X2910658Y-11350650D01*
X2910658Y-11350650D02*
X2939229Y-11350650D01*
X2939229Y-11350650D02*
X2958277Y-11360174D01*
X2958277Y-11360174D02*
X2967801Y-11379222D01*
X2967801Y-11379222D02*
X2967801Y-11483984D01*
X2967801Y-11379222D02*
X2977324Y-11360174D01*
X2977324Y-11360174D02*
X2996372Y-11350650D01*
X2996372Y-11350650D02*
X3024943Y-11350650D01*
X3024943Y-11350650D02*
X3043991Y-11360174D01*
X3043991Y-11360174D02*
X3053515Y-11379222D01*
X3053515Y-11379222D02*
X3053515Y-11483984D01*
X3443991Y-11274460D02*
X3272563Y-11531603D01*
X3701134Y-11283984D02*
X3720182Y-11283984D01*
X3720182Y-11283984D02*
X3739229Y-11293508D01*
X3739229Y-11293508D02*
X3748753Y-11303031D01*
X3748753Y-11303031D02*
X3758277Y-11322079D01*
X3758277Y-11322079D02*
X3767801Y-11360174D01*
X3767801Y-11360174D02*
X3767801Y-11407793D01*
X3767801Y-11407793D02*
X3758277Y-11445888D01*
X3758277Y-11445888D02*
X3748753Y-11464936D01*
X3748753Y-11464936D02*
X3739229Y-11474460D01*
X3739229Y-11474460D02*
X3720182Y-11483984D01*
X3720182Y-11483984D02*
X3701134Y-11483984D01*
X3701134Y-11483984D02*
X3682086Y-11474460D01*
X3682086Y-11474460D02*
X3672563Y-11464936D01*
X3672563Y-11464936D02*
X3663039Y-11445888D01*
X3663039Y-11445888D02*
X3653515Y-11407793D01*
X3653515Y-11407793D02*
X3653515Y-11360174D01*
X3653515Y-11360174D02*
X3663039Y-11322079D01*
X3663039Y-11322079D02*
X3672563Y-11303031D01*
X3672563Y-11303031D02*
X3682086Y-11293508D01*
X3682086Y-11293508D02*
X3701134Y-11283984D01*
X3853515Y-11464936D02*
X3863039Y-11474460D01*
X3863039Y-11474460D02*
X3853515Y-11483984D01*
X3853515Y-11483984D02*
X3843991Y-11474460D01*
X3843991Y-11474460D02*
X3853515Y-11464936D01*
X3853515Y-11464936D02*
X3853515Y-11483984D01*
X4053515Y-11483984D02*
X3939229Y-11483984D01*
X3996372Y-11483984D02*
X3996372Y-11283984D01*
X3996372Y-11283984D02*
X3977325Y-11312555D01*
X3977325Y-11312555D02*
X3958277Y-11331603D01*
X3958277Y-11331603D02*
X3939229Y-11341127D01*
X4129706Y-11303031D02*
X4139229Y-11293508D01*
X4139229Y-11293508D02*
X4158277Y-11283984D01*
X4158277Y-11283984D02*
X4205896Y-11283984D01*
X4205896Y-11283984D02*
X4224944Y-11293508D01*
X4224944Y-11293508D02*
X4234468Y-11303031D01*
X4234468Y-11303031D02*
X4243991Y-11322079D01*
X4243991Y-11322079D02*
X4243991Y-11341127D01*
X4243991Y-11341127D02*
X4234468Y-11369698D01*
X4234468Y-11369698D02*
X4120182Y-11483984D01*
X4120182Y-11483984D02*
X4243991Y-11483984D01*
X4415420Y-11283984D02*
X4377325Y-11283984D01*
X4377325Y-11283984D02*
X4358277Y-11293508D01*
X4358277Y-11293508D02*
X4348753Y-11303031D01*
X4348753Y-11303031D02*
X4329706Y-11331603D01*
X4329706Y-11331603D02*
X4320182Y-11369698D01*
X4320182Y-11369698D02*
X4320182Y-11445888D01*
X4320182Y-11445888D02*
X4329706Y-11464936D01*
X4329706Y-11464936D02*
X4339229Y-11474460D01*
X4339229Y-11474460D02*
X4358277Y-11483984D01*
X4358277Y-11483984D02*
X4396372Y-11483984D01*
X4396372Y-11483984D02*
X4415420Y-11474460D01*
X4415420Y-11474460D02*
X4424944Y-11464936D01*
X4424944Y-11464936D02*
X4434468Y-11445888D01*
X4434468Y-11445888D02*
X4434468Y-11398269D01*
X4434468Y-11398269D02*
X4424944Y-11379222D01*
X4424944Y-11379222D02*
X4415420Y-11369698D01*
X4415420Y-11369698D02*
X4396372Y-11360174D01*
X4396372Y-11360174D02*
X4358277Y-11360174D01*
X4358277Y-11360174D02*
X4339229Y-11369698D01*
X4339229Y-11369698D02*
X4329706Y-11379222D01*
X4329706Y-11379222D02*
X4320182Y-11398269D01*
X4558277Y-11283984D02*
X4577325Y-11283984D01*
X4577325Y-11283984D02*
X4596372Y-11293508D01*
X4596372Y-11293508D02*
X4605896Y-11303031D01*
X4605896Y-11303031D02*
X4615420Y-11322079D01*
X4615420Y-11322079D02*
X4624944Y-11360174D01*
X4624944Y-11360174D02*
X4624944Y-11407793D01*
X4624944Y-11407793D02*
X4615420Y-11445888D01*
X4615420Y-11445888D02*
X4605896Y-11464936D01*
X4605896Y-11464936D02*
X4596372Y-11474460D01*
X4596372Y-11474460D02*
X4577325Y-11483984D01*
X4577325Y-11483984D02*
X4558277Y-11483984D01*
X4558277Y-11483984D02*
X4539229Y-11474460D01*
X4539229Y-11474460D02*
X4529706Y-11464936D01*
X4529706Y-11464936D02*
X4520182Y-11445888D01*
X4520182Y-11445888D02*
X4510658Y-11407793D01*
X4510658Y-11407793D02*
X4510658Y-11360174D01*
X4510658Y-11360174D02*
X4520182Y-11322079D01*
X4520182Y-11322079D02*
X4529706Y-11303031D01*
X4529706Y-11303031D02*
X4539229Y-11293508D01*
X4539229Y-11293508D02*
X4558277Y-11283984D01*
X4701134Y-11283984D02*
X4701134Y-11322079D01*
X4777325Y-11283984D02*
X4777325Y-11322079D01*
X5072563Y-11560174D02*
X5063039Y-11550650D01*
X5063039Y-11550650D02*
X5043991Y-11522079D01*
X5043991Y-11522079D02*
X5034468Y-11503031D01*
X5034468Y-11503031D02*
X5024944Y-11474460D01*
X5024944Y-11474460D02*
X5015420Y-11426841D01*
X5015420Y-11426841D02*
X5015420Y-11388746D01*
X5015420Y-11388746D02*
X5024944Y-11341127D01*
X5024944Y-11341127D02*
X5034468Y-11312555D01*
X5034468Y-11312555D02*
X5043991Y-11293508D01*
X5043991Y-11293508D02*
X5063039Y-11264936D01*
X5063039Y-11264936D02*
X5072563Y-11255412D01*
X5129706Y-11283984D02*
X5263039Y-11283984D01*
X5263039Y-11283984D02*
X5177325Y-11483984D01*
X5491611Y-11483984D02*
X5491611Y-11283984D01*
X5577325Y-11483984D02*
X5577325Y-11379222D01*
X5577325Y-11379222D02*
X5567801Y-11360174D01*
X5567801Y-11360174D02*
X5548753Y-11350650D01*
X5548753Y-11350650D02*
X5520182Y-11350650D01*
X5520182Y-11350650D02*
X5501134Y-11360174D01*
X5501134Y-11360174D02*
X5491611Y-11369698D01*
X5701134Y-11483984D02*
X5682087Y-11474460D01*
X5682087Y-11474460D02*
X5672563Y-11464936D01*
X5672563Y-11464936D02*
X5663039Y-11445888D01*
X5663039Y-11445888D02*
X5663039Y-11388746D01*
X5663039Y-11388746D02*
X5672563Y-11369698D01*
X5672563Y-11369698D02*
X5682087Y-11360174D01*
X5682087Y-11360174D02*
X5701134Y-11350650D01*
X5701134Y-11350650D02*
X5729706Y-11350650D01*
X5729706Y-11350650D02*
X5748753Y-11360174D01*
X5748753Y-11360174D02*
X5758277Y-11369698D01*
X5758277Y-11369698D02*
X5767801Y-11388746D01*
X5767801Y-11388746D02*
X5767801Y-11445888D01*
X5767801Y-11445888D02*
X5758277Y-11464936D01*
X5758277Y-11464936D02*
X5748753Y-11474460D01*
X5748753Y-11474460D02*
X5729706Y-11483984D01*
X5729706Y-11483984D02*
X5701134Y-11483984D01*
X5882087Y-11483984D02*
X5863039Y-11474460D01*
X5863039Y-11474460D02*
X5853515Y-11455412D01*
X5853515Y-11455412D02*
X5853515Y-11283984D01*
X6034468Y-11474460D02*
X6015420Y-11483984D01*
X6015420Y-11483984D02*
X5977325Y-11483984D01*
X5977325Y-11483984D02*
X5958277Y-11474460D01*
X5958277Y-11474460D02*
X5948753Y-11455412D01*
X5948753Y-11455412D02*
X5948753Y-11379222D01*
X5948753Y-11379222D02*
X5958277Y-11360174D01*
X5958277Y-11360174D02*
X5977325Y-11350650D01*
X5977325Y-11350650D02*
X6015420Y-11350650D01*
X6015420Y-11350650D02*
X6034468Y-11360174D01*
X6034468Y-11360174D02*
X6043991Y-11379222D01*
X6043991Y-11379222D02*
X6043991Y-11398269D01*
X6043991Y-11398269D02*
X5948753Y-11417317D01*
X6120182Y-11474460D02*
X6139230Y-11483984D01*
X6139230Y-11483984D02*
X6177325Y-11483984D01*
X6177325Y-11483984D02*
X6196372Y-11474460D01*
X6196372Y-11474460D02*
X6205896Y-11455412D01*
X6205896Y-11455412D02*
X6205896Y-11445888D01*
X6205896Y-11445888D02*
X6196372Y-11426841D01*
X6196372Y-11426841D02*
X6177325Y-11417317D01*
X6177325Y-11417317D02*
X6148753Y-11417317D01*
X6148753Y-11417317D02*
X6129706Y-11407793D01*
X6129706Y-11407793D02*
X6120182Y-11388746D01*
X6120182Y-11388746D02*
X6120182Y-11379222D01*
X6120182Y-11379222D02*
X6129706Y-11360174D01*
X6129706Y-11360174D02*
X6148753Y-11350650D01*
X6148753Y-11350650D02*
X6177325Y-11350650D01*
X6177325Y-11350650D02*
X6196372Y-11360174D01*
X6272563Y-11560174D02*
X6282087Y-11550650D01*
X6282087Y-11550650D02*
X6301134Y-11522079D01*
X6301134Y-11522079D02*
X6310658Y-11503031D01*
X6310658Y-11503031D02*
X6320182Y-11474460D01*
X6320182Y-11474460D02*
X6329706Y-11426841D01*
X6329706Y-11426841D02*
X6329706Y-11388746D01*
X6329706Y-11388746D02*
X6320182Y-11341127D01*
X6320182Y-11341127D02*
X6310658Y-11312555D01*
X6310658Y-11312555D02*
X6301134Y-11293508D01*
X6301134Y-11293508D02*
X6282087Y-11264936D01*
X6282087Y-11264936D02*
X6272563Y-11255412D01*
X6634468Y-11560174D02*
X6624944Y-11550650D01*
X6624944Y-11550650D02*
X6605896Y-11522079D01*
X6605896Y-11522079D02*
X6596372Y-11503031D01*
X6596372Y-11503031D02*
X6586849Y-11474460D01*
X6586849Y-11474460D02*
X6577325Y-11426841D01*
X6577325Y-11426841D02*
X6577325Y-11388746D01*
X6577325Y-11388746D02*
X6586849Y-11341127D01*
X6586849Y-11341127D02*
X6596372Y-11312555D01*
X6596372Y-11312555D02*
X6605896Y-11293508D01*
X6605896Y-11293508D02*
X6624944Y-11264936D01*
X6624944Y-11264936D02*
X6634468Y-11255412D01*
X6710658Y-11350650D02*
X6710658Y-11483984D01*
X6710658Y-11369698D02*
X6720182Y-11360174D01*
X6720182Y-11360174D02*
X6739230Y-11350650D01*
X6739230Y-11350650D02*
X6767801Y-11350650D01*
X6767801Y-11350650D02*
X6786849Y-11360174D01*
X6786849Y-11360174D02*
X6796372Y-11379222D01*
X6796372Y-11379222D02*
X6796372Y-11483984D01*
X6920182Y-11483984D02*
X6901134Y-11474460D01*
X6901134Y-11474460D02*
X6891611Y-11464936D01*
X6891611Y-11464936D02*
X6882087Y-11445888D01*
X6882087Y-11445888D02*
X6882087Y-11388746D01*
X6882087Y-11388746D02*
X6891611Y-11369698D01*
X6891611Y-11369698D02*
X6901134Y-11360174D01*
X6901134Y-11360174D02*
X6920182Y-11350650D01*
X6920182Y-11350650D02*
X6948753Y-11350650D01*
X6948753Y-11350650D02*
X6967801Y-11360174D01*
X6967801Y-11360174D02*
X6977325Y-11369698D01*
X6977325Y-11369698D02*
X6986849Y-11388746D01*
X6986849Y-11388746D02*
X6986849Y-11445888D01*
X6986849Y-11445888D02*
X6977325Y-11464936D01*
X6977325Y-11464936D02*
X6967801Y-11474460D01*
X6967801Y-11474460D02*
X6948753Y-11483984D01*
X6948753Y-11483984D02*
X6920182Y-11483984D01*
X7043992Y-11350650D02*
X7120182Y-11350650D01*
X7072563Y-11283984D02*
X7072563Y-11455412D01*
X7072563Y-11455412D02*
X7082087Y-11474460D01*
X7082087Y-11474460D02*
X7101134Y-11483984D01*
X7101134Y-11483984D02*
X7120182Y-11483984D01*
X7339230Y-11350650D02*
X7339230Y-11550650D01*
X7339230Y-11360174D02*
X7358277Y-11350650D01*
X7358277Y-11350650D02*
X7396373Y-11350650D01*
X7396373Y-11350650D02*
X7415420Y-11360174D01*
X7415420Y-11360174D02*
X7424944Y-11369698D01*
X7424944Y-11369698D02*
X7434468Y-11388746D01*
X7434468Y-11388746D02*
X7434468Y-11445888D01*
X7434468Y-11445888D02*
X7424944Y-11464936D01*
X7424944Y-11464936D02*
X7415420Y-11474460D01*
X7415420Y-11474460D02*
X7396373Y-11483984D01*
X7396373Y-11483984D02*
X7358277Y-11483984D01*
X7358277Y-11483984D02*
X7339230Y-11474460D01*
X7548753Y-11483984D02*
X7529706Y-11474460D01*
X7529706Y-11474460D02*
X7520182Y-11455412D01*
X7520182Y-11455412D02*
X7520182Y-11283984D01*
X7710658Y-11483984D02*
X7710658Y-11379222D01*
X7710658Y-11379222D02*
X7701134Y-11360174D01*
X7701134Y-11360174D02*
X7682087Y-11350650D01*
X7682087Y-11350650D02*
X7643992Y-11350650D01*
X7643992Y-11350650D02*
X7624944Y-11360174D01*
X7710658Y-11474460D02*
X7691611Y-11483984D01*
X7691611Y-11483984D02*
X7643992Y-11483984D01*
X7643992Y-11483984D02*
X7624944Y-11474460D01*
X7624944Y-11474460D02*
X7615420Y-11455412D01*
X7615420Y-11455412D02*
X7615420Y-11436365D01*
X7615420Y-11436365D02*
X7624944Y-11417317D01*
X7624944Y-11417317D02*
X7643992Y-11407793D01*
X7643992Y-11407793D02*
X7691611Y-11407793D01*
X7691611Y-11407793D02*
X7710658Y-11398269D01*
X7777325Y-11350650D02*
X7853515Y-11350650D01*
X7805896Y-11283984D02*
X7805896Y-11455412D01*
X7805896Y-11455412D02*
X7815420Y-11474460D01*
X7815420Y-11474460D02*
X7834468Y-11483984D01*
X7834468Y-11483984D02*
X7853515Y-11483984D01*
X7996373Y-11474460D02*
X7977325Y-11483984D01*
X7977325Y-11483984D02*
X7939230Y-11483984D01*
X7939230Y-11483984D02*
X7920182Y-11474460D01*
X7920182Y-11474460D02*
X7910658Y-11455412D01*
X7910658Y-11455412D02*
X7910658Y-11379222D01*
X7910658Y-11379222D02*
X7920182Y-11360174D01*
X7920182Y-11360174D02*
X7939230Y-11350650D01*
X7939230Y-11350650D02*
X7977325Y-11350650D01*
X7977325Y-11350650D02*
X7996373Y-11360174D01*
X7996373Y-11360174D02*
X8005896Y-11379222D01*
X8005896Y-11379222D02*
X8005896Y-11398269D01*
X8005896Y-11398269D02*
X7910658Y-11417317D01*
X8177325Y-11483984D02*
X8177325Y-11283984D01*
X8177325Y-11474460D02*
X8158277Y-11483984D01*
X8158277Y-11483984D02*
X8120182Y-11483984D01*
X8120182Y-11483984D02*
X8101134Y-11474460D01*
X8101134Y-11474460D02*
X8091611Y-11464936D01*
X8091611Y-11464936D02*
X8082087Y-11445888D01*
X8082087Y-11445888D02*
X8082087Y-11388746D01*
X8082087Y-11388746D02*
X8091611Y-11369698D01*
X8091611Y-11369698D02*
X8101134Y-11360174D01*
X8101134Y-11360174D02*
X8120182Y-11350650D01*
X8120182Y-11350650D02*
X8158277Y-11350650D01*
X8158277Y-11350650D02*
X8177325Y-11360174D01*
X8253515Y-11560174D02*
X8263039Y-11550650D01*
X8263039Y-11550650D02*
X8282087Y-11522079D01*
X8282087Y-11522079D02*
X8291611Y-11503031D01*
X8291611Y-11503031D02*
X8301134Y-11474460D01*
X8301134Y-11474460D02*
X8310658Y-11426841D01*
X8310658Y-11426841D02*
X8310658Y-11388746D01*
X8310658Y-11388746D02*
X8301134Y-11341127D01*
X8301134Y-11341127D02*
X8291611Y-11312555D01*
X8291611Y-11312555D02*
X8282087Y-11293508D01*
X8282087Y-11293508D02*
X8263039Y-11264936D01*
X8263039Y-11264936D02*
X8253515Y-11255412D01*
M02*
