%TF.GenerationSoftware,KiCad,Pcbnew,10.0.0*%
%TF.CreationDate,2026-04-09T18:33:00-07:00*%
%TF.ProjectId,aircon-hat,61697263-6f6e-42d6-9861-742e6b696361,rev?*%
%TF.SameCoordinates,Original*%
%TF.FileFunction,Drillmap*%
%TF.FilePolarity,Positive*%
%FSLAX45Y45*%
G04 Gerber Fmt 4.5, Leading zero omitted, Abs format (unit mm)*
G04 Created by KiCad (PCBNEW 10.0.0) date 2026-04-09 18:33:00*
%MOMM*%
%LPD*%
G01*
G04 APERTURE LIST*
%ADD10C,0.050000*%
%ADD11C,0.200000*%
G04 APERTURE END LIST*
D10*
X5969000Y-9300000D02*
X11430000Y-9300000D01*
X5969000Y-13300000D02*
X5969000Y-9300000D01*
X11430000Y-9300000D02*
X11430000Y-13300000D01*
X11430000Y-13300000D02*
X5969000Y-13300000D01*
D11*
X6227277Y-13613984D02*
X6227277Y-13413984D01*
X6227277Y-13413984D02*
X6274896Y-13413984D01*
X6274896Y-13413984D02*
X6303467Y-13423508D01*
X6303467Y-13423508D02*
X6322515Y-13442555D01*
X6322515Y-13442555D02*
X6332039Y-13461603D01*
X6332039Y-13461603D02*
X6341562Y-13499698D01*
X6341562Y-13499698D02*
X6341562Y-13528269D01*
X6341562Y-13528269D02*
X6332039Y-13566365D01*
X6332039Y-13566365D02*
X6322515Y-13585412D01*
X6322515Y-13585412D02*
X6303467Y-13604460D01*
X6303467Y-13604460D02*
X6274896Y-13613984D01*
X6274896Y-13613984D02*
X6227277Y-13613984D01*
X6427277Y-13613984D02*
X6427277Y-13480650D01*
X6427277Y-13518746D02*
X6436801Y-13499698D01*
X6436801Y-13499698D02*
X6446324Y-13490174D01*
X6446324Y-13490174D02*
X6465372Y-13480650D01*
X6465372Y-13480650D02*
X6484420Y-13480650D01*
X6551086Y-13613984D02*
X6551086Y-13480650D01*
X6551086Y-13413984D02*
X6541562Y-13423508D01*
X6541562Y-13423508D02*
X6551086Y-13433031D01*
X6551086Y-13433031D02*
X6560610Y-13423508D01*
X6560610Y-13423508D02*
X6551086Y-13413984D01*
X6551086Y-13413984D02*
X6551086Y-13433031D01*
X6674896Y-13613984D02*
X6655848Y-13604460D01*
X6655848Y-13604460D02*
X6646324Y-13585412D01*
X6646324Y-13585412D02*
X6646324Y-13413984D01*
X6779658Y-13613984D02*
X6760610Y-13604460D01*
X6760610Y-13604460D02*
X6751086Y-13585412D01*
X6751086Y-13585412D02*
X6751086Y-13413984D01*
X7008229Y-13613984D02*
X7008229Y-13413984D01*
X7008229Y-13413984D02*
X7074896Y-13556841D01*
X7074896Y-13556841D02*
X7141562Y-13413984D01*
X7141562Y-13413984D02*
X7141562Y-13613984D01*
X7322515Y-13613984D02*
X7322515Y-13509222D01*
X7322515Y-13509222D02*
X7312991Y-13490174D01*
X7312991Y-13490174D02*
X7293943Y-13480650D01*
X7293943Y-13480650D02*
X7255848Y-13480650D01*
X7255848Y-13480650D02*
X7236801Y-13490174D01*
X7322515Y-13604460D02*
X7303467Y-13613984D01*
X7303467Y-13613984D02*
X7255848Y-13613984D01*
X7255848Y-13613984D02*
X7236801Y-13604460D01*
X7236801Y-13604460D02*
X7227277Y-13585412D01*
X7227277Y-13585412D02*
X7227277Y-13566365D01*
X7227277Y-13566365D02*
X7236801Y-13547317D01*
X7236801Y-13547317D02*
X7255848Y-13537793D01*
X7255848Y-13537793D02*
X7303467Y-13537793D01*
X7303467Y-13537793D02*
X7322515Y-13528269D01*
X7417753Y-13480650D02*
X7417753Y-13680650D01*
X7417753Y-13490174D02*
X7436801Y-13480650D01*
X7436801Y-13480650D02*
X7474896Y-13480650D01*
X7474896Y-13480650D02*
X7493943Y-13490174D01*
X7493943Y-13490174D02*
X7503467Y-13499698D01*
X7503467Y-13499698D02*
X7512991Y-13518746D01*
X7512991Y-13518746D02*
X7512991Y-13575888D01*
X7512991Y-13575888D02*
X7503467Y-13594936D01*
X7503467Y-13594936D02*
X7493943Y-13604460D01*
X7493943Y-13604460D02*
X7474896Y-13613984D01*
X7474896Y-13613984D02*
X7436801Y-13613984D01*
X7436801Y-13613984D02*
X7417753Y-13604460D01*
X7598705Y-13594936D02*
X7608229Y-13604460D01*
X7608229Y-13604460D02*
X7598705Y-13613984D01*
X7598705Y-13613984D02*
X7589182Y-13604460D01*
X7589182Y-13604460D02*
X7598705Y-13594936D01*
X7598705Y-13594936D02*
X7598705Y-13613984D01*
X7598705Y-13490174D02*
X7608229Y-13499698D01*
X7608229Y-13499698D02*
X7598705Y-13509222D01*
X7598705Y-13509222D02*
X7589182Y-13499698D01*
X7589182Y-13499698D02*
X7598705Y-13490174D01*
X7598705Y-13490174D02*
X7598705Y-13509222D01*
M02*
