%TF.GenerationSoftware,KiCad,Pcbnew,10.0.0*%
%TF.CreationDate,2026-04-09T18:33:15-07:00*%
%TF.ProjectId,aircon-hat,61697263-6f6e-42d6-9861-742e6b696361,rev?*%
%TF.SameCoordinates,Original*%
%TF.FileFunction,Legend,Top*%
%TF.FilePolarity,Positive*%
%FSLAX46Y46*%
G04 Gerber Fmt 4.6, Leading zero omitted, Abs format (unit mm)*
G04 Created by KiCad (PCBNEW 10.0.0) date 2026-04-09 18:33:15*
%MOMM*%
%LPD*%
G01*
G04 APERTURE LIST*
G04 Aperture macros list*
%AMRoundRect*
0 Rectangle with rounded corners*
0 $1 Rounding radius*
0 $2 $3 $4 $5 $6 $7 $8 $9 X,Y pos of 4 corners*
0 Add a 4 corners polygon primitive as box body*
4,1,4,$2,$3,$4,$5,$6,$7,$8,$9,$2,$3,0*
0 Add four circle primitives for the rounded corners*
1,1,$1+$1,$2,$3*
1,1,$1+$1,$4,$5*
1,1,$1+$1,$6,$7*
1,1,$1+$1,$8,$9*
0 Add four rect primitives between the rounded corners*
20,1,$1+$1,$2,$3,$4,$5,0*
20,1,$1+$1,$4,$5,$6,$7,0*
20,1,$1+$1,$6,$7,$8,$9,0*
20,1,$1+$1,$8,$9,$2,$3,0*%
G04 Aperture macros list end*
%ADD10C,0.000000*%
%ADD11C,0.200000*%
%ADD12C,0.150000*%
%ADD13C,0.100000*%
%ADD14C,0.120000*%
%ADD15R,2.540000X2.540000*%
%ADD16R,1.270000X2.540000*%
%ADD17C,1.400000*%
%ADD18RoundRect,0.250000X0.750000X-0.600000X0.750000X0.600000X-0.750000X0.600000X-0.750000X-0.600000X0*%
%ADD19O,2.000000X1.700000*%
%ADD20RoundRect,0.250000X-0.600000X-0.725000X0.600000X-0.725000X0.600000X0.725000X-0.600000X0.725000X0*%
%ADD21O,1.700000X1.950000*%
%ADD22RoundRect,0.250000X0.550000X-0.550000X0.550000X0.550000X-0.550000X0.550000X-0.550000X-0.550000X0*%
%ADD23C,1.600000*%
G04 APERTURE END LIST*
D10*
G36*
X88420689Y-106825334D02*
G01*
X88156272Y-106825334D01*
X88156272Y-106657654D01*
X88420689Y-106657654D01*
X88420689Y-106825334D01*
G37*
G36*
X88420689Y-107560557D02*
G01*
X88156272Y-107560557D01*
X88156272Y-106902727D01*
X88420689Y-106902727D01*
X88420689Y-107560557D01*
G37*
G36*
X92058104Y-106825334D02*
G01*
X91793680Y-106825334D01*
X91793680Y-106657654D01*
X92058104Y-106657654D01*
X92058104Y-106825334D01*
G37*
G36*
X92058104Y-107560557D02*
G01*
X91793680Y-107560557D01*
X91793680Y-106902727D01*
X92058104Y-106902727D01*
X92058104Y-107560557D01*
G37*
G36*
X94325234Y-106825334D02*
G01*
X94060815Y-106825334D01*
X94060815Y-106657654D01*
X94325234Y-106657654D01*
X94325234Y-106825334D01*
G37*
G36*
X94325234Y-107560557D02*
G01*
X94060815Y-107560557D01*
X94060815Y-106902727D01*
X94325234Y-106902727D01*
X94325234Y-107560557D01*
G37*
G36*
X88046828Y-106449663D02*
G01*
X87192295Y-106449663D01*
X87192295Y-106738065D01*
X87811835Y-106738065D01*
X87811835Y-107101251D01*
X87192295Y-107101251D01*
X87192295Y-107560557D01*
X86722298Y-107560557D01*
X86722298Y-106065123D01*
X88046828Y-106065123D01*
X88046828Y-106449663D01*
G37*
G36*
X94692850Y-106954319D02*
G01*
X94718651Y-106954319D01*
X94776686Y-106902727D01*
X95002422Y-106902727D01*
X95002422Y-107109112D01*
X94783134Y-107109112D01*
X94744445Y-107141344D01*
X94744445Y-107560557D01*
X94480024Y-107560557D01*
X94480024Y-106902727D01*
X94692850Y-106902727D01*
X94692850Y-106954319D01*
G37*
G36*
X90929475Y-107109112D02*
G01*
X90594115Y-107109112D01*
X90561862Y-107141344D01*
X90561862Y-107321937D01*
X90594115Y-107354181D01*
X90929475Y-107354181D01*
X90929475Y-107560557D01*
X90452223Y-107560557D01*
X90297443Y-107405777D01*
X90297443Y-107057506D01*
X90452223Y-106902727D01*
X90929475Y-106902727D01*
X90929475Y-107109112D01*
G37*
G36*
X91658242Y-107109112D02*
G01*
X91322878Y-107109112D01*
X91290634Y-107141344D01*
X91290634Y-107321937D01*
X91322878Y-107354181D01*
X91658242Y-107354181D01*
X91658242Y-107560557D01*
X91180996Y-107560557D01*
X91026212Y-107405777D01*
X91026212Y-107057506D01*
X91180996Y-106902727D01*
X91658242Y-106902727D01*
X91658242Y-107109112D01*
G37*
G36*
X89710556Y-107328385D02*
G01*
X89736353Y-107354181D01*
X89852439Y-107354181D01*
X89891129Y-107321937D01*
X89891129Y-106902727D01*
X90155563Y-106902727D01*
X90155563Y-107560557D01*
X89942733Y-107560557D01*
X89942733Y-107508966D01*
X89916930Y-107508966D01*
X89858891Y-107560557D01*
X89594471Y-107560557D01*
X89446129Y-107412222D01*
X89446129Y-106902727D01*
X89710556Y-106902727D01*
X89710556Y-107328385D01*
G37*
G36*
X93951379Y-107432375D02*
G01*
X93951379Y-107560557D01*
X93494203Y-107560557D01*
X93402341Y-107314882D01*
X92708032Y-107314882D01*
X92614035Y-107560557D01*
X92167537Y-107560557D01*
X92167537Y-107432375D01*
X92380123Y-106930339D01*
X92855438Y-106930339D01*
X93259201Y-106930339D01*
X93086160Y-106471024D01*
X93032757Y-106471024D01*
X92855438Y-106930339D01*
X92380123Y-106930339D01*
X92746484Y-106065123D01*
X93383112Y-106065123D01*
X93951379Y-107432375D01*
G37*
G36*
X89291346Y-107560557D02*
G01*
X89078521Y-107560557D01*
X89078521Y-107508966D01*
X89050146Y-107508966D01*
X88988232Y-107560557D01*
X88717360Y-107560557D01*
X88562574Y-107405777D01*
X88562574Y-107321937D01*
X88826999Y-107321937D01*
X88859241Y-107354181D01*
X88981778Y-107354181D01*
X89026929Y-107321937D01*
X89026929Y-107109112D01*
X88859241Y-107109112D01*
X88826999Y-107141344D01*
X88826999Y-107321937D01*
X88562574Y-107321937D01*
X88562574Y-107141344D01*
X88562574Y-107057506D01*
X88717360Y-106902727D01*
X89026929Y-106902727D01*
X89026929Y-106657654D01*
X89291346Y-106657654D01*
X89291346Y-107560557D01*
G37*
G36*
X90855130Y-104489932D02*
G01*
X90992168Y-104501968D01*
X91137887Y-104525658D01*
X91293143Y-104561509D01*
X91458790Y-104610045D01*
X91635685Y-104671783D01*
X91824694Y-104747228D01*
X92026657Y-104836907D01*
X92242444Y-104941335D01*
X92472916Y-105061023D01*
X92537732Y-105095071D01*
X92553857Y-105103935D01*
X92600607Y-105130057D01*
X92600607Y-105462441D01*
X92463913Y-105373743D01*
X92327254Y-105287373D01*
X92190017Y-105203688D01*
X92051600Y-105123042D01*
X91911383Y-105045799D01*
X91768774Y-104972315D01*
X91623142Y-104902966D01*
X91549009Y-104869944D01*
X91473887Y-104838092D01*
X91308383Y-104774170D01*
X91229683Y-104747719D01*
X91153500Y-104724881D01*
X91079686Y-104705586D01*
X91008096Y-104689785D01*
X90938586Y-104677421D01*
X90871003Y-104668440D01*
X90805217Y-104662781D01*
X90741079Y-104660395D01*
X90678434Y-104661228D01*
X90617151Y-104665216D01*
X90557074Y-104672308D01*
X90498072Y-104682447D01*
X90439994Y-104695579D01*
X90382691Y-104711651D01*
X90326026Y-104730602D01*
X90269851Y-104752380D01*
X90158385Y-104804197D01*
X90047146Y-104866653D01*
X89934985Y-104939296D01*
X89820736Y-105021699D01*
X89703246Y-105113398D01*
X89581363Y-105213966D01*
X89453924Y-105322942D01*
X89296204Y-105458569D01*
X89137399Y-105591663D01*
X88976922Y-105721799D01*
X88814211Y-105848519D01*
X88648689Y-105971404D01*
X88479780Y-106090020D01*
X88306905Y-106203912D01*
X88218806Y-106258961D01*
X88129494Y-106312666D01*
X88129494Y-106241396D01*
X88303241Y-106127938D01*
X88465971Y-106014256D01*
X88761799Y-105788302D01*
X89023841Y-105567649D01*
X89258941Y-105356436D01*
X89675746Y-104978837D01*
X89871140Y-104820708D01*
X89968588Y-104751119D01*
X90067005Y-104688539D01*
X90167255Y-104633473D01*
X90270188Y-104586447D01*
X90376666Y-104547972D01*
X90487546Y-104518573D01*
X90603679Y-104498750D01*
X90725921Y-104489037D01*
X90855130Y-104489932D01*
G37*
G36*
X90539205Y-105135361D02*
G01*
X90638829Y-105143363D01*
X90739322Y-105158383D01*
X90840374Y-105179829D01*
X90941656Y-105207095D01*
X91042832Y-105239599D01*
X91143583Y-105276735D01*
X91243581Y-105317913D01*
X91342495Y-105362529D01*
X91440000Y-105410000D01*
X91535771Y-105459723D01*
X91629485Y-105511096D01*
X91809406Y-105616426D01*
X91977156Y-105721227D01*
X92071487Y-105782900D01*
X92164943Y-105846085D01*
X92257536Y-105910306D01*
X92349237Y-105975097D01*
X92239428Y-106081237D01*
X92182489Y-106035571D01*
X92126514Y-105991443D01*
X92071022Y-105948564D01*
X92015547Y-105906634D01*
X91959596Y-105865353D01*
X91902720Y-105824424D01*
X91844436Y-105783544D01*
X91784271Y-105742422D01*
X91646784Y-105653068D01*
X91506018Y-105566575D01*
X91434373Y-105525022D01*
X91361879Y-105484912D01*
X91288521Y-105446496D01*
X91214297Y-105410019D01*
X91139174Y-105375720D01*
X91063173Y-105343847D01*
X90986255Y-105314647D01*
X90908426Y-105288366D01*
X90829666Y-105265236D01*
X90749964Y-105245513D01*
X90669319Y-105229431D01*
X90587714Y-105217249D01*
X90541889Y-105212719D01*
X90495626Y-105211015D01*
X90448972Y-105212002D01*
X90401975Y-105215555D01*
X90354683Y-105221563D01*
X90307149Y-105229890D01*
X90211537Y-105253027D01*
X90115519Y-105283968D01*
X90019482Y-105321730D01*
X89923816Y-105365313D01*
X89828912Y-105413741D01*
X89735141Y-105466015D01*
X89642913Y-105521137D01*
X89464578Y-105636007D01*
X89143274Y-105856432D01*
X88897803Y-106027598D01*
X88774124Y-106112393D01*
X88649266Y-106195487D01*
X88522791Y-106276028D01*
X88394285Y-106353137D01*
X88329141Y-106390131D01*
X88263328Y-106425938D01*
X88196797Y-106460454D01*
X88129494Y-106493573D01*
X88129494Y-106436073D01*
X88229224Y-106386348D01*
X88326742Y-106333834D01*
X88422299Y-106278815D01*
X88516158Y-106221601D01*
X88608573Y-106162485D01*
X88699817Y-106101767D01*
X88879756Y-105976725D01*
X89236737Y-105720630D01*
X89417881Y-105594355D01*
X89603535Y-105472455D01*
X89700320Y-105413302D01*
X89798995Y-105355907D01*
X89849108Y-105328352D01*
X89899746Y-105301815D01*
X89950957Y-105276498D01*
X90002747Y-105252576D01*
X90055143Y-105230259D01*
X90108171Y-105209729D01*
X90161846Y-105191188D01*
X90216193Y-105174820D01*
X90271247Y-105160821D01*
X90327015Y-105149387D01*
X90383522Y-105140706D01*
X90440792Y-105134974D01*
X90539205Y-105135361D01*
G37*
G36*
X90179851Y-105659980D02*
G01*
X90198788Y-105660944D01*
X90217691Y-105662325D01*
X90236552Y-105664133D01*
X90255372Y-105666355D01*
X90274136Y-105668997D01*
X90292847Y-105672057D01*
X90311485Y-105675533D01*
X90353507Y-105684819D01*
X90395089Y-105695559D01*
X90436229Y-105707702D01*
X90476951Y-105721139D01*
X90517249Y-105735781D01*
X90557134Y-105751563D01*
X90596637Y-105768384D01*
X90635744Y-105786169D01*
X90674478Y-105804831D01*
X90712840Y-105824274D01*
X90788522Y-105865189D01*
X90862850Y-105908241D01*
X90935923Y-105952740D01*
X91043367Y-106022438D01*
X91148521Y-106095342D01*
X91251823Y-106170766D01*
X91353760Y-106248041D01*
X91756911Y-106561973D01*
X91659702Y-106660337D01*
X91634735Y-106640643D01*
X91611072Y-106621621D01*
X91566163Y-106584661D01*
X91475220Y-106508323D01*
X91342479Y-106398396D01*
X91196846Y-106280399D01*
X91041056Y-106160538D01*
X90960187Y-106101848D01*
X90877787Y-106045030D01*
X90794192Y-105990846D01*
X90709756Y-105940078D01*
X90624798Y-105893509D01*
X90539655Y-105851908D01*
X90454682Y-105816055D01*
X90370205Y-105786721D01*
X90328256Y-105774746D01*
X90286564Y-105764693D01*
X90245157Y-105756653D01*
X90204094Y-105750738D01*
X90159970Y-105747969D01*
X90115265Y-105748334D01*
X90070119Y-105751575D01*
X90024634Y-105757473D01*
X89978964Y-105765771D01*
X89933207Y-105776241D01*
X89887497Y-105788642D01*
X89841951Y-105802728D01*
X89796705Y-105818263D01*
X89751886Y-105835012D01*
X89663994Y-105871174D01*
X89579276Y-105909292D01*
X89498727Y-105947464D01*
X89356993Y-106019325D01*
X89216216Y-106093377D01*
X88936076Y-106244799D01*
X88655316Y-106395211D01*
X88513768Y-106468002D01*
X88370937Y-106538098D01*
X88341724Y-106552536D01*
X88311783Y-106567912D01*
X88250618Y-106600081D01*
X88219843Y-106616174D01*
X88189257Y-106631802D01*
X88159060Y-106646611D01*
X88129494Y-106660245D01*
X88129494Y-106619927D01*
X88146130Y-106611426D01*
X88317233Y-106528097D01*
X88484422Y-106440719D01*
X88648797Y-106350277D01*
X88811484Y-106257714D01*
X89136221Y-106070145D01*
X89300496Y-105977076D01*
X89467521Y-105885767D01*
X89543458Y-105847264D01*
X89620479Y-105809846D01*
X89698686Y-105774463D01*
X89738237Y-105757824D01*
X89778118Y-105742051D01*
X89818327Y-105727264D01*
X89858873Y-105713556D01*
X89899771Y-105701083D01*
X89941036Y-105689934D01*
X89982661Y-105680241D01*
X90024653Y-105672114D01*
X90067056Y-105665677D01*
X90109845Y-105661048D01*
X90160900Y-105659437D01*
X90179851Y-105659980D01*
G37*
G36*
X91164894Y-103900638D02*
G01*
X91275868Y-103908641D01*
X91387060Y-103921199D01*
X91498206Y-103938001D01*
X91609052Y-103958736D01*
X91719342Y-103983103D01*
X91828809Y-104010772D01*
X91937204Y-104041451D01*
X92044280Y-104074812D01*
X92149766Y-104110561D01*
X92253412Y-104148370D01*
X92454138Y-104228956D01*
X92487195Y-104242841D01*
X92507883Y-104250867D01*
X92528491Y-104257880D01*
X92536563Y-104261139D01*
X92548621Y-104267099D01*
X92568728Y-104277891D01*
X92600962Y-104295661D01*
X92600962Y-104633767D01*
X92531680Y-104590627D01*
X92461485Y-104549479D01*
X92390395Y-104510258D01*
X92318454Y-104472927D01*
X92245697Y-104437421D01*
X92172149Y-104403697D01*
X92097852Y-104371705D01*
X92022841Y-104341386D01*
X91947139Y-104312693D01*
X91870791Y-104285581D01*
X91793825Y-104259984D01*
X91716277Y-104235859D01*
X91559566Y-104191811D01*
X91400921Y-104153027D01*
X91325219Y-104137317D01*
X91251669Y-104123822D01*
X91180008Y-104112686D01*
X91109981Y-104104099D01*
X91041321Y-104098209D01*
X90973782Y-104095183D01*
X90907098Y-104095183D01*
X90841010Y-104098372D01*
X90775264Y-104104911D01*
X90709607Y-104114961D01*
X90643768Y-104128698D01*
X90577491Y-104146264D01*
X90510532Y-104167840D01*
X90442618Y-104193573D01*
X90373495Y-104223635D01*
X90302903Y-104258196D01*
X90248336Y-104287445D01*
X90194873Y-104318254D01*
X90142377Y-104350527D01*
X90090740Y-104384165D01*
X90039809Y-104419071D01*
X89989473Y-104455144D01*
X89939588Y-104492277D01*
X89890042Y-104530392D01*
X89807104Y-104596756D01*
X89725477Y-104664593D01*
X89565564Y-104804071D01*
X89409181Y-104947587D01*
X89255235Y-105093910D01*
X88950139Y-105390019D01*
X88796765Y-105537336D01*
X88641347Y-105682513D01*
X88517953Y-105793925D01*
X88457966Y-105846760D01*
X88397595Y-105897633D01*
X88366914Y-105922336D01*
X88335709Y-105946549D01*
X88303840Y-105970253D01*
X88271153Y-105993464D01*
X88237526Y-106016171D01*
X88202796Y-106038371D01*
X88166842Y-106060058D01*
X88129494Y-106081237D01*
X88129494Y-106015247D01*
X88164319Y-105993182D01*
X88197260Y-105970991D01*
X88228539Y-105948658D01*
X88258358Y-105926102D01*
X88286952Y-105903283D01*
X88314528Y-105880148D01*
X88341306Y-105856641D01*
X88367491Y-105832715D01*
X88418964Y-105783398D01*
X88470660Y-105731783D01*
X88581617Y-105620000D01*
X88701057Y-105498080D01*
X88819169Y-105374797D01*
X89053767Y-105126438D01*
X89171471Y-105002501D01*
X89290245Y-104879487D01*
X89410686Y-104757964D01*
X89533424Y-104638506D01*
X89661880Y-104518230D01*
X89727930Y-104459185D01*
X89795278Y-104401314D01*
X89863996Y-104344947D01*
X89934145Y-104290429D01*
X90005779Y-104238087D01*
X90078984Y-104188265D01*
X90153795Y-104141288D01*
X90230298Y-104097504D01*
X90308543Y-104057234D01*
X90388617Y-104020825D01*
X90470556Y-103988601D01*
X90554434Y-103960904D01*
X90640323Y-103938078D01*
X90728284Y-103920445D01*
X90835832Y-103907103D01*
X90944614Y-103899561D01*
X91054391Y-103897516D01*
X91164894Y-103900638D01*
G37*
G36*
X91646233Y-103134907D02*
G01*
X91803763Y-103143265D01*
X91960762Y-103157942D01*
X92038954Y-103167840D01*
X92116883Y-103179561D01*
X92194518Y-103193184D01*
X92271798Y-103208766D01*
X92348691Y-103226418D01*
X92425157Y-103246202D01*
X92462737Y-103255996D01*
X92487615Y-103261964D01*
X92515759Y-103268220D01*
X92527265Y-103271369D01*
X92542577Y-103276458D01*
X92565796Y-103284906D01*
X92601051Y-103298154D01*
X92601051Y-103755542D01*
X92524725Y-103728775D01*
X92454381Y-103704746D01*
X92384338Y-103681974D01*
X92308910Y-103658970D01*
X92182273Y-103623147D01*
X92054397Y-103592199D01*
X91925457Y-103565820D01*
X91795665Y-103543740D01*
X91665186Y-103525618D01*
X91534235Y-103511190D01*
X91402978Y-103500152D01*
X91271614Y-103492205D01*
X91233682Y-103491924D01*
X91195760Y-103492560D01*
X91157863Y-103494069D01*
X91120017Y-103496439D01*
X91044488Y-103503643D01*
X90969277Y-103513962D01*
X90894461Y-103527202D01*
X90820149Y-103543138D01*
X90746418Y-103561594D01*
X90673378Y-103582340D01*
X90613513Y-103601400D01*
X90554318Y-103622168D01*
X90495820Y-103644628D01*
X90438061Y-103668741D01*
X90381073Y-103694498D01*
X90324898Y-103721887D01*
X90269559Y-103750876D01*
X90215089Y-103781448D01*
X90161527Y-103813587D01*
X90108916Y-103847268D01*
X90057271Y-103882480D01*
X90006648Y-103919184D01*
X89957062Y-103957386D01*
X89908558Y-103997045D01*
X89861168Y-104038152D01*
X89814927Y-104080690D01*
X89752093Y-104140784D01*
X89720476Y-104171356D01*
X89689737Y-104201415D01*
X89549046Y-104342228D01*
X89410557Y-104485220D01*
X89273731Y-104629855D01*
X89138008Y-104775598D01*
X88867692Y-105068338D01*
X88595210Y-105359248D01*
X88502051Y-105455419D01*
X88455050Y-105503167D01*
X88407574Y-105550490D01*
X88359531Y-105597229D01*
X88310788Y-105643229D01*
X88261217Y-105688336D01*
X88210692Y-105732407D01*
X88202859Y-105739170D01*
X88196240Y-105744997D01*
X88185983Y-105754331D01*
X88172104Y-105767250D01*
X88168946Y-105770006D01*
X88165528Y-105772833D01*
X88161687Y-105775847D01*
X88157220Y-105779174D01*
X88151957Y-105782940D01*
X88145709Y-105787269D01*
X88129494Y-105798132D01*
X88129494Y-105721772D01*
X88145635Y-105709319D01*
X88159642Y-105698167D01*
X88171796Y-105688066D01*
X88182377Y-105678841D01*
X88191674Y-105670266D01*
X88199967Y-105662130D01*
X88207526Y-105654235D01*
X88214663Y-105646371D01*
X88228735Y-105629907D01*
X88244441Y-105611070D01*
X88264055Y-105588201D01*
X88276034Y-105574737D01*
X88289827Y-105559643D01*
X88461388Y-105363075D01*
X88627934Y-105162375D01*
X88791116Y-104958883D01*
X88952571Y-104753925D01*
X89276852Y-104344973D01*
X89442960Y-104143645D01*
X89613905Y-103946201D01*
X89690849Y-103865249D01*
X89771283Y-103787289D01*
X89855065Y-103712561D01*
X89942030Y-103641304D01*
X90032001Y-103573747D01*
X90124824Y-103510112D01*
X90220328Y-103450646D01*
X90318361Y-103395580D01*
X90418752Y-103345143D01*
X90521336Y-103299576D01*
X90625954Y-103259103D01*
X90732437Y-103223962D01*
X90840627Y-103194396D01*
X90950360Y-103170623D01*
X91061465Y-103152870D01*
X91173787Y-103141400D01*
X91330906Y-103134609D01*
X91488499Y-103132233D01*
X91646233Y-103134907D01*
G37*
D11*
X71904761Y-114257275D02*
X72142856Y-115257275D01*
X72142856Y-115257275D02*
X72333332Y-114542989D01*
X72333332Y-114542989D02*
X72523808Y-115257275D01*
X72523808Y-115257275D02*
X72761904Y-114257275D01*
X73571427Y-115257275D02*
X73571427Y-114733465D01*
X73571427Y-114733465D02*
X73523808Y-114638227D01*
X73523808Y-114638227D02*
X73428570Y-114590608D01*
X73428570Y-114590608D02*
X73238094Y-114590608D01*
X73238094Y-114590608D02*
X73142856Y-114638227D01*
X73571427Y-115209656D02*
X73476189Y-115257275D01*
X73476189Y-115257275D02*
X73238094Y-115257275D01*
X73238094Y-115257275D02*
X73142856Y-115209656D01*
X73142856Y-115209656D02*
X73095237Y-115114417D01*
X73095237Y-115114417D02*
X73095237Y-115019179D01*
X73095237Y-115019179D02*
X73142856Y-114923941D01*
X73142856Y-114923941D02*
X73238094Y-114876322D01*
X73238094Y-114876322D02*
X73476189Y-114876322D01*
X73476189Y-114876322D02*
X73571427Y-114828703D01*
X73952380Y-114590608D02*
X74190475Y-115257275D01*
X74190475Y-115257275D02*
X74428570Y-114590608D01*
X75190475Y-115209656D02*
X75095237Y-115257275D01*
X75095237Y-115257275D02*
X74904761Y-115257275D01*
X74904761Y-115257275D02*
X74809523Y-115209656D01*
X74809523Y-115209656D02*
X74761904Y-115114417D01*
X74761904Y-115114417D02*
X74761904Y-114733465D01*
X74761904Y-114733465D02*
X74809523Y-114638227D01*
X74809523Y-114638227D02*
X74904761Y-114590608D01*
X74904761Y-114590608D02*
X75095237Y-114590608D01*
X75095237Y-114590608D02*
X75190475Y-114638227D01*
X75190475Y-114638227D02*
X75238094Y-114733465D01*
X75238094Y-114733465D02*
X75238094Y-114828703D01*
X75238094Y-114828703D02*
X74761904Y-114923941D01*
X75619047Y-115209656D02*
X75761904Y-115257275D01*
X75761904Y-115257275D02*
X75999999Y-115257275D01*
X75999999Y-115257275D02*
X76095237Y-115209656D01*
X76095237Y-115209656D02*
X76142856Y-115162036D01*
X76142856Y-115162036D02*
X76190475Y-115066798D01*
X76190475Y-115066798D02*
X76190475Y-114971560D01*
X76190475Y-114971560D02*
X76142856Y-114876322D01*
X76142856Y-114876322D02*
X76095237Y-114828703D01*
X76095237Y-114828703D02*
X75999999Y-114781084D01*
X75999999Y-114781084D02*
X75809523Y-114733465D01*
X75809523Y-114733465D02*
X75714285Y-114685846D01*
X75714285Y-114685846D02*
X75666666Y-114638227D01*
X75666666Y-114638227D02*
X75619047Y-114542989D01*
X75619047Y-114542989D02*
X75619047Y-114447751D01*
X75619047Y-114447751D02*
X75666666Y-114352513D01*
X75666666Y-114352513D02*
X75714285Y-114304894D01*
X75714285Y-114304894D02*
X75809523Y-114257275D01*
X75809523Y-114257275D02*
X76047618Y-114257275D01*
X76047618Y-114257275D02*
X76190475Y-114304894D01*
X76619047Y-115257275D02*
X76619047Y-114257275D01*
X77047618Y-115257275D02*
X77047618Y-114733465D01*
X77047618Y-114733465D02*
X76999999Y-114638227D01*
X76999999Y-114638227D02*
X76904761Y-114590608D01*
X76904761Y-114590608D02*
X76761904Y-114590608D01*
X76761904Y-114590608D02*
X76666666Y-114638227D01*
X76666666Y-114638227D02*
X76619047Y-114685846D01*
X77952380Y-115257275D02*
X77952380Y-114733465D01*
X77952380Y-114733465D02*
X77904761Y-114638227D01*
X77904761Y-114638227D02*
X77809523Y-114590608D01*
X77809523Y-114590608D02*
X77619047Y-114590608D01*
X77619047Y-114590608D02*
X77523809Y-114638227D01*
X77952380Y-115209656D02*
X77857142Y-115257275D01*
X77857142Y-115257275D02*
X77619047Y-115257275D01*
X77619047Y-115257275D02*
X77523809Y-115209656D01*
X77523809Y-115209656D02*
X77476190Y-115114417D01*
X77476190Y-115114417D02*
X77476190Y-115019179D01*
X77476190Y-115019179D02*
X77523809Y-114923941D01*
X77523809Y-114923941D02*
X77619047Y-114876322D01*
X77619047Y-114876322D02*
X77857142Y-114876322D01*
X77857142Y-114876322D02*
X77952380Y-114828703D01*
X78428571Y-115257275D02*
X78428571Y-114590608D01*
X78428571Y-114781084D02*
X78476190Y-114685846D01*
X78476190Y-114685846D02*
X78523809Y-114638227D01*
X78523809Y-114638227D02*
X78619047Y-114590608D01*
X78619047Y-114590608D02*
X78714285Y-114590608D01*
X79428571Y-115209656D02*
X79333333Y-115257275D01*
X79333333Y-115257275D02*
X79142857Y-115257275D01*
X79142857Y-115257275D02*
X79047619Y-115209656D01*
X79047619Y-115209656D02*
X79000000Y-115114417D01*
X79000000Y-115114417D02*
X79000000Y-114733465D01*
X79000000Y-114733465D02*
X79047619Y-114638227D01*
X79047619Y-114638227D02*
X79142857Y-114590608D01*
X79142857Y-114590608D02*
X79333333Y-114590608D01*
X79333333Y-114590608D02*
X79428571Y-114638227D01*
X79428571Y-114638227D02*
X79476190Y-114733465D01*
X79476190Y-114733465D02*
X79476190Y-114828703D01*
X79476190Y-114828703D02*
X79000000Y-114923941D01*
X81238095Y-115257275D02*
X80904762Y-114781084D01*
X80666667Y-115257275D02*
X80666667Y-114257275D01*
X80666667Y-114257275D02*
X81047619Y-114257275D01*
X81047619Y-114257275D02*
X81142857Y-114304894D01*
X81142857Y-114304894D02*
X81190476Y-114352513D01*
X81190476Y-114352513D02*
X81238095Y-114447751D01*
X81238095Y-114447751D02*
X81238095Y-114590608D01*
X81238095Y-114590608D02*
X81190476Y-114685846D01*
X81190476Y-114685846D02*
X81142857Y-114733465D01*
X81142857Y-114733465D02*
X81047619Y-114781084D01*
X81047619Y-114781084D02*
X80666667Y-114781084D01*
X81666667Y-115257275D02*
X81666667Y-114257275D01*
X81666667Y-114257275D02*
X82047619Y-114257275D01*
X82047619Y-114257275D02*
X82142857Y-114304894D01*
X82142857Y-114304894D02*
X82190476Y-114352513D01*
X82190476Y-114352513D02*
X82238095Y-114447751D01*
X82238095Y-114447751D02*
X82238095Y-114590608D01*
X82238095Y-114590608D02*
X82190476Y-114685846D01*
X82190476Y-114685846D02*
X82142857Y-114733465D01*
X82142857Y-114733465D02*
X82047619Y-114781084D01*
X82047619Y-114781084D02*
X81666667Y-114781084D01*
X82619048Y-114352513D02*
X82666667Y-114304894D01*
X82666667Y-114304894D02*
X82761905Y-114257275D01*
X82761905Y-114257275D02*
X83000000Y-114257275D01*
X83000000Y-114257275D02*
X83095238Y-114304894D01*
X83095238Y-114304894D02*
X83142857Y-114352513D01*
X83142857Y-114352513D02*
X83190476Y-114447751D01*
X83190476Y-114447751D02*
X83190476Y-114542989D01*
X83190476Y-114542989D02*
X83142857Y-114685846D01*
X83142857Y-114685846D02*
X82571429Y-115257275D01*
X82571429Y-115257275D02*
X83190476Y-115257275D01*
X83523810Y-114257275D02*
X84142857Y-114257275D01*
X84142857Y-114257275D02*
X83809524Y-114638227D01*
X83809524Y-114638227D02*
X83952381Y-114638227D01*
X83952381Y-114638227D02*
X84047619Y-114685846D01*
X84047619Y-114685846D02*
X84095238Y-114733465D01*
X84095238Y-114733465D02*
X84142857Y-114828703D01*
X84142857Y-114828703D02*
X84142857Y-115066798D01*
X84142857Y-115066798D02*
X84095238Y-115162036D01*
X84095238Y-115162036D02*
X84047619Y-115209656D01*
X84047619Y-115209656D02*
X83952381Y-115257275D01*
X83952381Y-115257275D02*
X83666667Y-115257275D01*
X83666667Y-115257275D02*
X83571429Y-115209656D01*
X83571429Y-115209656D02*
X83523810Y-115162036D01*
X85047619Y-114257275D02*
X84571429Y-114257275D01*
X84571429Y-114257275D02*
X84523810Y-114733465D01*
X84523810Y-114733465D02*
X84571429Y-114685846D01*
X84571429Y-114685846D02*
X84666667Y-114638227D01*
X84666667Y-114638227D02*
X84904762Y-114638227D01*
X84904762Y-114638227D02*
X85000000Y-114685846D01*
X85000000Y-114685846D02*
X85047619Y-114733465D01*
X85047619Y-114733465D02*
X85095238Y-114828703D01*
X85095238Y-114828703D02*
X85095238Y-115066798D01*
X85095238Y-115066798D02*
X85047619Y-115162036D01*
X85047619Y-115162036D02*
X85000000Y-115209656D01*
X85000000Y-115209656D02*
X84904762Y-115257275D01*
X84904762Y-115257275D02*
X84666667Y-115257275D01*
X84666667Y-115257275D02*
X84571429Y-115209656D01*
X84571429Y-115209656D02*
X84523810Y-115162036D01*
X85714286Y-114257275D02*
X85809524Y-114257275D01*
X85809524Y-114257275D02*
X85904762Y-114304894D01*
X85904762Y-114304894D02*
X85952381Y-114352513D01*
X85952381Y-114352513D02*
X86000000Y-114447751D01*
X86000000Y-114447751D02*
X86047619Y-114638227D01*
X86047619Y-114638227D02*
X86047619Y-114876322D01*
X86047619Y-114876322D02*
X86000000Y-115066798D01*
X86000000Y-115066798D02*
X85952381Y-115162036D01*
X85952381Y-115162036D02*
X85904762Y-115209656D01*
X85904762Y-115209656D02*
X85809524Y-115257275D01*
X85809524Y-115257275D02*
X85714286Y-115257275D01*
X85714286Y-115257275D02*
X85619048Y-115209656D01*
X85619048Y-115209656D02*
X85571429Y-115162036D01*
X85571429Y-115162036D02*
X85523810Y-115066798D01*
X85523810Y-115066798D02*
X85476191Y-114876322D01*
X85476191Y-114876322D02*
X85476191Y-114638227D01*
X85476191Y-114638227D02*
X85523810Y-114447751D01*
X85523810Y-114447751D02*
X85571429Y-114352513D01*
X85571429Y-114352513D02*
X85619048Y-114304894D01*
X85619048Y-114304894D02*
X85714286Y-114257275D01*
X74476190Y-116867219D02*
X74142857Y-116391028D01*
X73904762Y-116867219D02*
X73904762Y-115867219D01*
X73904762Y-115867219D02*
X74285714Y-115867219D01*
X74285714Y-115867219D02*
X74380952Y-115914838D01*
X74380952Y-115914838D02*
X74428571Y-115962457D01*
X74428571Y-115962457D02*
X74476190Y-116057695D01*
X74476190Y-116057695D02*
X74476190Y-116200552D01*
X74476190Y-116200552D02*
X74428571Y-116295790D01*
X74428571Y-116295790D02*
X74380952Y-116343409D01*
X74380952Y-116343409D02*
X74285714Y-116391028D01*
X74285714Y-116391028D02*
X73904762Y-116391028D01*
X75285714Y-116819600D02*
X75190476Y-116867219D01*
X75190476Y-116867219D02*
X75000000Y-116867219D01*
X75000000Y-116867219D02*
X74904762Y-116819600D01*
X74904762Y-116819600D02*
X74857143Y-116724361D01*
X74857143Y-116724361D02*
X74857143Y-116343409D01*
X74857143Y-116343409D02*
X74904762Y-116248171D01*
X74904762Y-116248171D02*
X75000000Y-116200552D01*
X75000000Y-116200552D02*
X75190476Y-116200552D01*
X75190476Y-116200552D02*
X75285714Y-116248171D01*
X75285714Y-116248171D02*
X75333333Y-116343409D01*
X75333333Y-116343409D02*
X75333333Y-116438647D01*
X75333333Y-116438647D02*
X74857143Y-116533885D01*
X75904762Y-116867219D02*
X75809524Y-116819600D01*
X75809524Y-116819600D02*
X75761905Y-116724361D01*
X75761905Y-116724361D02*
X75761905Y-115867219D01*
X76714286Y-116867219D02*
X76714286Y-116343409D01*
X76714286Y-116343409D02*
X76666667Y-116248171D01*
X76666667Y-116248171D02*
X76571429Y-116200552D01*
X76571429Y-116200552D02*
X76380953Y-116200552D01*
X76380953Y-116200552D02*
X76285715Y-116248171D01*
X76714286Y-116819600D02*
X76619048Y-116867219D01*
X76619048Y-116867219D02*
X76380953Y-116867219D01*
X76380953Y-116867219D02*
X76285715Y-116819600D01*
X76285715Y-116819600D02*
X76238096Y-116724361D01*
X76238096Y-116724361D02*
X76238096Y-116629123D01*
X76238096Y-116629123D02*
X76285715Y-116533885D01*
X76285715Y-116533885D02*
X76380953Y-116486266D01*
X76380953Y-116486266D02*
X76619048Y-116486266D01*
X76619048Y-116486266D02*
X76714286Y-116438647D01*
X77095239Y-116200552D02*
X77333334Y-116867219D01*
X77571429Y-116200552D02*
X77333334Y-116867219D01*
X77333334Y-116867219D02*
X77238096Y-117105314D01*
X77238096Y-117105314D02*
X77190477Y-117152933D01*
X77190477Y-117152933D02*
X77095239Y-117200552D01*
X77952382Y-116486266D02*
X78714287Y-116486266D01*
X79619048Y-115867219D02*
X79428572Y-115867219D01*
X79428572Y-115867219D02*
X79333334Y-115914838D01*
X79333334Y-115914838D02*
X79285715Y-115962457D01*
X79285715Y-115962457D02*
X79190477Y-116105314D01*
X79190477Y-116105314D02*
X79142858Y-116295790D01*
X79142858Y-116295790D02*
X79142858Y-116676742D01*
X79142858Y-116676742D02*
X79190477Y-116771980D01*
X79190477Y-116771980D02*
X79238096Y-116819600D01*
X79238096Y-116819600D02*
X79333334Y-116867219D01*
X79333334Y-116867219D02*
X79523810Y-116867219D01*
X79523810Y-116867219D02*
X79619048Y-116819600D01*
X79619048Y-116819600D02*
X79666667Y-116771980D01*
X79666667Y-116771980D02*
X79714286Y-116676742D01*
X79714286Y-116676742D02*
X79714286Y-116438647D01*
X79714286Y-116438647D02*
X79666667Y-116343409D01*
X79666667Y-116343409D02*
X79619048Y-116295790D01*
X79619048Y-116295790D02*
X79523810Y-116248171D01*
X79523810Y-116248171D02*
X79333334Y-116248171D01*
X79333334Y-116248171D02*
X79238096Y-116295790D01*
X79238096Y-116295790D02*
X79190477Y-116343409D01*
X79190477Y-116343409D02*
X79142858Y-116438647D01*
X80714286Y-116771980D02*
X80666667Y-116819600D01*
X80666667Y-116819600D02*
X80523810Y-116867219D01*
X80523810Y-116867219D02*
X80428572Y-116867219D01*
X80428572Y-116867219D02*
X80285715Y-116819600D01*
X80285715Y-116819600D02*
X80190477Y-116724361D01*
X80190477Y-116724361D02*
X80142858Y-116629123D01*
X80142858Y-116629123D02*
X80095239Y-116438647D01*
X80095239Y-116438647D02*
X80095239Y-116295790D01*
X80095239Y-116295790D02*
X80142858Y-116105314D01*
X80142858Y-116105314D02*
X80190477Y-116010076D01*
X80190477Y-116010076D02*
X80285715Y-115914838D01*
X80285715Y-115914838D02*
X80428572Y-115867219D01*
X80428572Y-115867219D02*
X80523810Y-115867219D01*
X80523810Y-115867219D02*
X80666667Y-115914838D01*
X80666667Y-115914838D02*
X80714286Y-115962457D01*
X81142858Y-116867219D02*
X81142858Y-115867219D01*
X81142858Y-116343409D02*
X81714286Y-116343409D01*
X81714286Y-116867219D02*
X81714286Y-115867219D01*
X82190477Y-116486266D02*
X82952382Y-116486266D01*
X83333334Y-115867219D02*
X83571429Y-116867219D01*
X83571429Y-116867219D02*
X83761905Y-116152933D01*
X83761905Y-116152933D02*
X83952381Y-116867219D01*
X83952381Y-116867219D02*
X84190477Y-115867219D01*
X101922054Y-105286560D02*
X102398244Y-105286560D01*
X101826816Y-105572275D02*
X102160149Y-104572275D01*
X102160149Y-104572275D02*
X102493482Y-105572275D01*
X102826816Y-105572275D02*
X102826816Y-104905608D01*
X102826816Y-104572275D02*
X102779197Y-104619894D01*
X102779197Y-104619894D02*
X102826816Y-104667513D01*
X102826816Y-104667513D02*
X102874435Y-104619894D01*
X102874435Y-104619894D02*
X102826816Y-104572275D01*
X102826816Y-104572275D02*
X102826816Y-104667513D01*
X103303006Y-105572275D02*
X103303006Y-104905608D01*
X103303006Y-105096084D02*
X103350625Y-105000846D01*
X103350625Y-105000846D02*
X103398244Y-104953227D01*
X103398244Y-104953227D02*
X103493482Y-104905608D01*
X103493482Y-104905608D02*
X103588720Y-104905608D01*
X104493482Y-105477036D02*
X104445863Y-105524656D01*
X104445863Y-105524656D02*
X104303006Y-105572275D01*
X104303006Y-105572275D02*
X104207768Y-105572275D01*
X104207768Y-105572275D02*
X104064911Y-105524656D01*
X104064911Y-105524656D02*
X103969673Y-105429417D01*
X103969673Y-105429417D02*
X103922054Y-105334179D01*
X103922054Y-105334179D02*
X103874435Y-105143703D01*
X103874435Y-105143703D02*
X103874435Y-105000846D01*
X103874435Y-105000846D02*
X103922054Y-104810370D01*
X103922054Y-104810370D02*
X103969673Y-104715132D01*
X103969673Y-104715132D02*
X104064911Y-104619894D01*
X104064911Y-104619894D02*
X104207768Y-104572275D01*
X104207768Y-104572275D02*
X104303006Y-104572275D01*
X104303006Y-104572275D02*
X104445863Y-104619894D01*
X104445863Y-104619894D02*
X104493482Y-104667513D01*
X105064911Y-105572275D02*
X104969673Y-105524656D01*
X104969673Y-105524656D02*
X104922054Y-105477036D01*
X104922054Y-105477036D02*
X104874435Y-105381798D01*
X104874435Y-105381798D02*
X104874435Y-105096084D01*
X104874435Y-105096084D02*
X104922054Y-105000846D01*
X104922054Y-105000846D02*
X104969673Y-104953227D01*
X104969673Y-104953227D02*
X105064911Y-104905608D01*
X105064911Y-104905608D02*
X105207768Y-104905608D01*
X105207768Y-104905608D02*
X105303006Y-104953227D01*
X105303006Y-104953227D02*
X105350625Y-105000846D01*
X105350625Y-105000846D02*
X105398244Y-105096084D01*
X105398244Y-105096084D02*
X105398244Y-105381798D01*
X105398244Y-105381798D02*
X105350625Y-105477036D01*
X105350625Y-105477036D02*
X105303006Y-105524656D01*
X105303006Y-105524656D02*
X105207768Y-105572275D01*
X105207768Y-105572275D02*
X105064911Y-105572275D01*
X105826816Y-104905608D02*
X105826816Y-105572275D01*
X105826816Y-105000846D02*
X105874435Y-104953227D01*
X105874435Y-104953227D02*
X105969673Y-104905608D01*
X105969673Y-104905608D02*
X106112530Y-104905608D01*
X106112530Y-104905608D02*
X106207768Y-104953227D01*
X106207768Y-104953227D02*
X106255387Y-105048465D01*
X106255387Y-105048465D02*
X106255387Y-105572275D01*
X101874435Y-106515552D02*
X102112530Y-107182219D01*
X102112530Y-107182219D02*
X102350625Y-106515552D01*
X103255387Y-107182219D02*
X102683959Y-107182219D01*
X102969673Y-107182219D02*
X102969673Y-106182219D01*
X102969673Y-106182219D02*
X102874435Y-106325076D01*
X102874435Y-106325076D02*
X102779197Y-106420314D01*
X102779197Y-106420314D02*
X102683959Y-106467933D01*
X103683959Y-107086980D02*
X103731578Y-107134600D01*
X103731578Y-107134600D02*
X103683959Y-107182219D01*
X103683959Y-107182219D02*
X103636340Y-107134600D01*
X103636340Y-107134600D02*
X103683959Y-107086980D01*
X103683959Y-107086980D02*
X103683959Y-107182219D01*
X104350625Y-106182219D02*
X104445863Y-106182219D01*
X104445863Y-106182219D02*
X104541101Y-106229838D01*
X104541101Y-106229838D02*
X104588720Y-106277457D01*
X104588720Y-106277457D02*
X104636339Y-106372695D01*
X104636339Y-106372695D02*
X104683958Y-106563171D01*
X104683958Y-106563171D02*
X104683958Y-106801266D01*
X104683958Y-106801266D02*
X104636339Y-106991742D01*
X104636339Y-106991742D02*
X104588720Y-107086980D01*
X104588720Y-107086980D02*
X104541101Y-107134600D01*
X104541101Y-107134600D02*
X104445863Y-107182219D01*
X104445863Y-107182219D02*
X104350625Y-107182219D01*
X104350625Y-107182219D02*
X104255387Y-107134600D01*
X104255387Y-107134600D02*
X104207768Y-107086980D01*
X104207768Y-107086980D02*
X104160149Y-106991742D01*
X104160149Y-106991742D02*
X104112530Y-106801266D01*
X104112530Y-106801266D02*
X104112530Y-106563171D01*
X104112530Y-106563171D02*
X104160149Y-106372695D01*
X104160149Y-106372695D02*
X104207768Y-106277457D01*
X104207768Y-106277457D02*
X104255387Y-106229838D01*
X104255387Y-106229838D02*
X104350625Y-106182219D01*
X62372219Y-116765625D02*
X62372219Y-116194197D01*
X63372219Y-116479911D02*
X62372219Y-116479911D01*
X62372219Y-115956101D02*
X63372219Y-115289435D01*
X62372219Y-115289435D02*
X63372219Y-115956101D01*
X63372219Y-114908482D02*
X62372219Y-114908482D01*
X62372219Y-114908482D02*
X62372219Y-114670387D01*
X62372219Y-114670387D02*
X62419838Y-114527530D01*
X62419838Y-114527530D02*
X62515076Y-114432292D01*
X62515076Y-114432292D02*
X62610314Y-114384673D01*
X62610314Y-114384673D02*
X62800790Y-114337054D01*
X62800790Y-114337054D02*
X62943647Y-114337054D01*
X62943647Y-114337054D02*
X63134123Y-114384673D01*
X63134123Y-114384673D02*
X63229361Y-114432292D01*
X63229361Y-114432292D02*
X63324600Y-114527530D01*
X63324600Y-114527530D02*
X63372219Y-114670387D01*
X63372219Y-114670387D02*
X63372219Y-114908482D01*
X62372219Y-127139136D02*
X62372219Y-127615326D01*
X62372219Y-127615326D02*
X62848409Y-127662945D01*
X62848409Y-127662945D02*
X62800790Y-127615326D01*
X62800790Y-127615326D02*
X62753171Y-127520088D01*
X62753171Y-127520088D02*
X62753171Y-127281993D01*
X62753171Y-127281993D02*
X62800790Y-127186755D01*
X62800790Y-127186755D02*
X62848409Y-127139136D01*
X62848409Y-127139136D02*
X62943647Y-127091517D01*
X62943647Y-127091517D02*
X63181742Y-127091517D01*
X63181742Y-127091517D02*
X63276980Y-127139136D01*
X63276980Y-127139136D02*
X63324600Y-127186755D01*
X63324600Y-127186755D02*
X63372219Y-127281993D01*
X63372219Y-127281993D02*
X63372219Y-127520088D01*
X63372219Y-127520088D02*
X63324600Y-127615326D01*
X63324600Y-127615326D02*
X63276980Y-127662945D01*
X62372219Y-126805802D02*
X63372219Y-126472469D01*
X63372219Y-126472469D02*
X62372219Y-126139136D01*
X65912219Y-116289435D02*
X65436028Y-116622768D01*
X65912219Y-116860863D02*
X64912219Y-116860863D01*
X64912219Y-116860863D02*
X64912219Y-116479911D01*
X64912219Y-116479911D02*
X64959838Y-116384673D01*
X64959838Y-116384673D02*
X65007457Y-116337054D01*
X65007457Y-116337054D02*
X65102695Y-116289435D01*
X65102695Y-116289435D02*
X65245552Y-116289435D01*
X65245552Y-116289435D02*
X65340790Y-116337054D01*
X65340790Y-116337054D02*
X65388409Y-116384673D01*
X65388409Y-116384673D02*
X65436028Y-116479911D01*
X65436028Y-116479911D02*
X65436028Y-116860863D01*
X64912219Y-115956101D02*
X65912219Y-115289435D01*
X64912219Y-115289435D02*
X65912219Y-115956101D01*
X65912219Y-114908482D02*
X64912219Y-114908482D01*
X64912219Y-114908482D02*
X64912219Y-114670387D01*
X64912219Y-114670387D02*
X64959838Y-114527530D01*
X64959838Y-114527530D02*
X65055076Y-114432292D01*
X65055076Y-114432292D02*
X65150314Y-114384673D01*
X65150314Y-114384673D02*
X65340790Y-114337054D01*
X65340790Y-114337054D02*
X65483647Y-114337054D01*
X65483647Y-114337054D02*
X65674123Y-114384673D01*
X65674123Y-114384673D02*
X65769361Y-114432292D01*
X65769361Y-114432292D02*
X65864600Y-114527530D01*
X65864600Y-114527530D02*
X65912219Y-114670387D01*
X65912219Y-114670387D02*
X65912219Y-114908482D01*
X64912219Y-127758183D02*
X65912219Y-127424850D01*
X65912219Y-127424850D02*
X64912219Y-127091517D01*
X65864600Y-126805802D02*
X65912219Y-126662945D01*
X65912219Y-126662945D02*
X65912219Y-126424850D01*
X65912219Y-126424850D02*
X65864600Y-126329612D01*
X65864600Y-126329612D02*
X65816980Y-126281993D01*
X65816980Y-126281993D02*
X65721742Y-126234374D01*
X65721742Y-126234374D02*
X65626504Y-126234374D01*
X65626504Y-126234374D02*
X65531266Y-126281993D01*
X65531266Y-126281993D02*
X65483647Y-126329612D01*
X65483647Y-126329612D02*
X65436028Y-126424850D01*
X65436028Y-126424850D02*
X65388409Y-126615326D01*
X65388409Y-126615326D02*
X65340790Y-126710564D01*
X65340790Y-126710564D02*
X65293171Y-126758183D01*
X65293171Y-126758183D02*
X65197933Y-126805802D01*
X65197933Y-126805802D02*
X65102695Y-126805802D01*
X65102695Y-126805802D02*
X65007457Y-126758183D01*
X65007457Y-126758183D02*
X64959838Y-126710564D01*
X64959838Y-126710564D02*
X64912219Y-126615326D01*
X64912219Y-126615326D02*
X64912219Y-126377231D01*
X64912219Y-126377231D02*
X64959838Y-126234374D01*
X65436028Y-125615326D02*
X65912219Y-125615326D01*
X64912219Y-125948659D02*
X65436028Y-125615326D01*
X65436028Y-125615326D02*
X64912219Y-125281993D01*
X65864600Y-124996278D02*
X65912219Y-124853421D01*
X65912219Y-124853421D02*
X65912219Y-124615326D01*
X65912219Y-124615326D02*
X65864600Y-124520088D01*
X65864600Y-124520088D02*
X65816980Y-124472469D01*
X65816980Y-124472469D02*
X65721742Y-124424850D01*
X65721742Y-124424850D02*
X65626504Y-124424850D01*
X65626504Y-124424850D02*
X65531266Y-124472469D01*
X65531266Y-124472469D02*
X65483647Y-124520088D01*
X65483647Y-124520088D02*
X65436028Y-124615326D01*
X65436028Y-124615326D02*
X65388409Y-124805802D01*
X65388409Y-124805802D02*
X65340790Y-124901040D01*
X65340790Y-124901040D02*
X65293171Y-124948659D01*
X65293171Y-124948659D02*
X65197933Y-124996278D01*
X65197933Y-124996278D02*
X65102695Y-124996278D01*
X65102695Y-124996278D02*
X65007457Y-124948659D01*
X65007457Y-124948659D02*
X64959838Y-124901040D01*
X64959838Y-124901040D02*
X64912219Y-124805802D01*
X64912219Y-124805802D02*
X64912219Y-124567707D01*
X64912219Y-124567707D02*
X64959838Y-124424850D01*
X67499838Y-116432292D02*
X67452219Y-116527530D01*
X67452219Y-116527530D02*
X67452219Y-116670387D01*
X67452219Y-116670387D02*
X67499838Y-116813244D01*
X67499838Y-116813244D02*
X67595076Y-116908482D01*
X67595076Y-116908482D02*
X67690314Y-116956101D01*
X67690314Y-116956101D02*
X67880790Y-117003720D01*
X67880790Y-117003720D02*
X68023647Y-117003720D01*
X68023647Y-117003720D02*
X68214123Y-116956101D01*
X68214123Y-116956101D02*
X68309361Y-116908482D01*
X68309361Y-116908482D02*
X68404600Y-116813244D01*
X68404600Y-116813244D02*
X68452219Y-116670387D01*
X68452219Y-116670387D02*
X68452219Y-116575149D01*
X68452219Y-116575149D02*
X68404600Y-116432292D01*
X68404600Y-116432292D02*
X68356980Y-116384673D01*
X68356980Y-116384673D02*
X68023647Y-116384673D01*
X68023647Y-116384673D02*
X68023647Y-116575149D01*
X68452219Y-115956101D02*
X67452219Y-115956101D01*
X67452219Y-115956101D02*
X68452219Y-115384673D01*
X68452219Y-115384673D02*
X67452219Y-115384673D01*
X68452219Y-114908482D02*
X67452219Y-114908482D01*
X67452219Y-114908482D02*
X67452219Y-114670387D01*
X67452219Y-114670387D02*
X67499838Y-114527530D01*
X67499838Y-114527530D02*
X67595076Y-114432292D01*
X67595076Y-114432292D02*
X67690314Y-114384673D01*
X67690314Y-114384673D02*
X67880790Y-114337054D01*
X67880790Y-114337054D02*
X68023647Y-114337054D01*
X68023647Y-114337054D02*
X68214123Y-114384673D01*
X68214123Y-114384673D02*
X68309361Y-114432292D01*
X68309361Y-114432292D02*
X68404600Y-114527530D01*
X68404600Y-114527530D02*
X68452219Y-114670387D01*
X68452219Y-114670387D02*
X68452219Y-114908482D01*
X67499838Y-127091517D02*
X67452219Y-127186755D01*
X67452219Y-127186755D02*
X67452219Y-127329612D01*
X67452219Y-127329612D02*
X67499838Y-127472469D01*
X67499838Y-127472469D02*
X67595076Y-127567707D01*
X67595076Y-127567707D02*
X67690314Y-127615326D01*
X67690314Y-127615326D02*
X67880790Y-127662945D01*
X67880790Y-127662945D02*
X68023647Y-127662945D01*
X68023647Y-127662945D02*
X68214123Y-127615326D01*
X68214123Y-127615326D02*
X68309361Y-127567707D01*
X68309361Y-127567707D02*
X68404600Y-127472469D01*
X68404600Y-127472469D02*
X68452219Y-127329612D01*
X68452219Y-127329612D02*
X68452219Y-127234374D01*
X68452219Y-127234374D02*
X68404600Y-127091517D01*
X68404600Y-127091517D02*
X68356980Y-127043898D01*
X68356980Y-127043898D02*
X68023647Y-127043898D01*
X68023647Y-127043898D02*
X68023647Y-127234374D01*
X68452219Y-126615326D02*
X67452219Y-126615326D01*
X67452219Y-126615326D02*
X68452219Y-126043898D01*
X68452219Y-126043898D02*
X67452219Y-126043898D01*
X68452219Y-125567707D02*
X67452219Y-125567707D01*
X67452219Y-125567707D02*
X67452219Y-125329612D01*
X67452219Y-125329612D02*
X67499838Y-125186755D01*
X67499838Y-125186755D02*
X67595076Y-125091517D01*
X67595076Y-125091517D02*
X67690314Y-125043898D01*
X67690314Y-125043898D02*
X67880790Y-124996279D01*
X67880790Y-124996279D02*
X68023647Y-124996279D01*
X68023647Y-124996279D02*
X68214123Y-125043898D01*
X68214123Y-125043898D02*
X68309361Y-125091517D01*
X68309361Y-125091517D02*
X68404600Y-125186755D01*
X68404600Y-125186755D02*
X68452219Y-125329612D01*
X68452219Y-125329612D02*
X68452219Y-125567707D01*
X69992219Y-127710564D02*
X69992219Y-127091517D01*
X69992219Y-127091517D02*
X70373171Y-127424850D01*
X70373171Y-127424850D02*
X70373171Y-127281993D01*
X70373171Y-127281993D02*
X70420790Y-127186755D01*
X70420790Y-127186755D02*
X70468409Y-127139136D01*
X70468409Y-127139136D02*
X70563647Y-127091517D01*
X70563647Y-127091517D02*
X70801742Y-127091517D01*
X70801742Y-127091517D02*
X70896980Y-127139136D01*
X70896980Y-127139136D02*
X70944600Y-127186755D01*
X70944600Y-127186755D02*
X70992219Y-127281993D01*
X70992219Y-127281993D02*
X70992219Y-127567707D01*
X70992219Y-127567707D02*
X70944600Y-127662945D01*
X70944600Y-127662945D02*
X70896980Y-127710564D01*
X69992219Y-126805802D02*
X70992219Y-126472469D01*
X70992219Y-126472469D02*
X69992219Y-126139136D01*
X69992219Y-125901040D02*
X69992219Y-125281993D01*
X69992219Y-125281993D02*
X70373171Y-125615326D01*
X70373171Y-125615326D02*
X70373171Y-125472469D01*
X70373171Y-125472469D02*
X70420790Y-125377231D01*
X70420790Y-125377231D02*
X70468409Y-125329612D01*
X70468409Y-125329612D02*
X70563647Y-125281993D01*
X70563647Y-125281993D02*
X70801742Y-125281993D01*
X70801742Y-125281993D02*
X70896980Y-125329612D01*
X70896980Y-125329612D02*
X70944600Y-125377231D01*
X70944600Y-125377231D02*
X70992219Y-125472469D01*
X70992219Y-125472469D02*
X70992219Y-125758183D01*
X70992219Y-125758183D02*
X70944600Y-125853421D01*
X70944600Y-125853421D02*
X70896980Y-125901040D01*
X72532219Y-127710564D02*
X72532219Y-127091517D01*
X72532219Y-127091517D02*
X72913171Y-127424850D01*
X72913171Y-127424850D02*
X72913171Y-127281993D01*
X72913171Y-127281993D02*
X72960790Y-127186755D01*
X72960790Y-127186755D02*
X73008409Y-127139136D01*
X73008409Y-127139136D02*
X73103647Y-127091517D01*
X73103647Y-127091517D02*
X73341742Y-127091517D01*
X73341742Y-127091517D02*
X73436980Y-127139136D01*
X73436980Y-127139136D02*
X73484600Y-127186755D01*
X73484600Y-127186755D02*
X73532219Y-127281993D01*
X73532219Y-127281993D02*
X73532219Y-127567707D01*
X73532219Y-127567707D02*
X73484600Y-127662945D01*
X73484600Y-127662945D02*
X73436980Y-127710564D01*
X72532219Y-126805802D02*
X73532219Y-126472469D01*
X73532219Y-126472469D02*
X72532219Y-126139136D01*
X72532219Y-125901040D02*
X72532219Y-125281993D01*
X72532219Y-125281993D02*
X72913171Y-125615326D01*
X72913171Y-125615326D02*
X72913171Y-125472469D01*
X72913171Y-125472469D02*
X72960790Y-125377231D01*
X72960790Y-125377231D02*
X73008409Y-125329612D01*
X73008409Y-125329612D02*
X73103647Y-125281993D01*
X73103647Y-125281993D02*
X73341742Y-125281993D01*
X73341742Y-125281993D02*
X73436980Y-125329612D01*
X73436980Y-125329612D02*
X73484600Y-125377231D01*
X73484600Y-125377231D02*
X73532219Y-125472469D01*
X73532219Y-125472469D02*
X73532219Y-125758183D01*
X73532219Y-125758183D02*
X73484600Y-125853421D01*
X73484600Y-125853421D02*
X73436980Y-125901040D01*
X75786504Y-127662945D02*
X75786504Y-127186755D01*
X76072219Y-127758183D02*
X75072219Y-127424850D01*
X75072219Y-127424850D02*
X76072219Y-127091517D01*
X75072219Y-126901040D02*
X76072219Y-126567707D01*
X76072219Y-126567707D02*
X75072219Y-126234374D01*
X78612219Y-127615326D02*
X77612219Y-127615326D01*
X77612219Y-126948660D02*
X77612219Y-126758184D01*
X77612219Y-126758184D02*
X77659838Y-126662946D01*
X77659838Y-126662946D02*
X77755076Y-126567708D01*
X77755076Y-126567708D02*
X77945552Y-126520089D01*
X77945552Y-126520089D02*
X78278885Y-126520089D01*
X78278885Y-126520089D02*
X78469361Y-126567708D01*
X78469361Y-126567708D02*
X78564600Y-126662946D01*
X78564600Y-126662946D02*
X78612219Y-126758184D01*
X78612219Y-126758184D02*
X78612219Y-126948660D01*
X78612219Y-126948660D02*
X78564600Y-127043898D01*
X78564600Y-127043898D02*
X78469361Y-127139136D01*
X78469361Y-127139136D02*
X78278885Y-127186755D01*
X78278885Y-127186755D02*
X77945552Y-127186755D01*
X77945552Y-127186755D02*
X77755076Y-127139136D01*
X77755076Y-127139136D02*
X77659838Y-127043898D01*
X77659838Y-127043898D02*
X77612219Y-126948660D01*
X77945552Y-125662946D02*
X78612219Y-125662946D01*
X77564600Y-125901041D02*
X78278885Y-126139136D01*
X78278885Y-126139136D02*
X78278885Y-125520089D01*
X77707457Y-125186755D02*
X77659838Y-125139136D01*
X77659838Y-125139136D02*
X77612219Y-125043898D01*
X77612219Y-125043898D02*
X77612219Y-124805803D01*
X77612219Y-124805803D02*
X77659838Y-124710565D01*
X77659838Y-124710565D02*
X77707457Y-124662946D01*
X77707457Y-124662946D02*
X77802695Y-124615327D01*
X77802695Y-124615327D02*
X77897933Y-124615327D01*
X77897933Y-124615327D02*
X78040790Y-124662946D01*
X78040790Y-124662946D02*
X78612219Y-125234374D01*
X78612219Y-125234374D02*
X78612219Y-124615327D01*
X80199838Y-127091517D02*
X80152219Y-127186755D01*
X80152219Y-127186755D02*
X80152219Y-127329612D01*
X80152219Y-127329612D02*
X80199838Y-127472469D01*
X80199838Y-127472469D02*
X80295076Y-127567707D01*
X80295076Y-127567707D02*
X80390314Y-127615326D01*
X80390314Y-127615326D02*
X80580790Y-127662945D01*
X80580790Y-127662945D02*
X80723647Y-127662945D01*
X80723647Y-127662945D02*
X80914123Y-127615326D01*
X80914123Y-127615326D02*
X81009361Y-127567707D01*
X81009361Y-127567707D02*
X81104600Y-127472469D01*
X81104600Y-127472469D02*
X81152219Y-127329612D01*
X81152219Y-127329612D02*
X81152219Y-127234374D01*
X81152219Y-127234374D02*
X81104600Y-127091517D01*
X81104600Y-127091517D02*
X81056980Y-127043898D01*
X81056980Y-127043898D02*
X80723647Y-127043898D01*
X80723647Y-127043898D02*
X80723647Y-127234374D01*
X81152219Y-126615326D02*
X80152219Y-126615326D01*
X80152219Y-126615326D02*
X81152219Y-126043898D01*
X81152219Y-126043898D02*
X80152219Y-126043898D01*
X81152219Y-125567707D02*
X80152219Y-125567707D01*
X80152219Y-125567707D02*
X80152219Y-125329612D01*
X80152219Y-125329612D02*
X80199838Y-125186755D01*
X80199838Y-125186755D02*
X80295076Y-125091517D01*
X80295076Y-125091517D02*
X80390314Y-125043898D01*
X80390314Y-125043898D02*
X80580790Y-124996279D01*
X80580790Y-124996279D02*
X80723647Y-124996279D01*
X80723647Y-124996279D02*
X80914123Y-125043898D01*
X80914123Y-125043898D02*
X81009361Y-125091517D01*
X81009361Y-125091517D02*
X81104600Y-125186755D01*
X81104600Y-125186755D02*
X81152219Y-125329612D01*
X81152219Y-125329612D02*
X81152219Y-125567707D01*
X83692219Y-127615326D02*
X82692219Y-127615326D01*
X82692219Y-126948660D02*
X82692219Y-126758184D01*
X82692219Y-126758184D02*
X82739838Y-126662946D01*
X82739838Y-126662946D02*
X82835076Y-126567708D01*
X82835076Y-126567708D02*
X83025552Y-126520089D01*
X83025552Y-126520089D02*
X83358885Y-126520089D01*
X83358885Y-126520089D02*
X83549361Y-126567708D01*
X83549361Y-126567708D02*
X83644600Y-126662946D01*
X83644600Y-126662946D02*
X83692219Y-126758184D01*
X83692219Y-126758184D02*
X83692219Y-126948660D01*
X83692219Y-126948660D02*
X83644600Y-127043898D01*
X83644600Y-127043898D02*
X83549361Y-127139136D01*
X83549361Y-127139136D02*
X83358885Y-127186755D01*
X83358885Y-127186755D02*
X83025552Y-127186755D01*
X83025552Y-127186755D02*
X82835076Y-127139136D01*
X82835076Y-127139136D02*
X82739838Y-127043898D01*
X82739838Y-127043898D02*
X82692219Y-126948660D01*
X83025552Y-125662946D02*
X83692219Y-125662946D01*
X82644600Y-125901041D02*
X83358885Y-126139136D01*
X83358885Y-126139136D02*
X83358885Y-125520089D01*
X83692219Y-124615327D02*
X83692219Y-125186755D01*
X83692219Y-124901041D02*
X82692219Y-124901041D01*
X82692219Y-124901041D02*
X82835076Y-124996279D01*
X82835076Y-124996279D02*
X82930314Y-125091517D01*
X82930314Y-125091517D02*
X82977933Y-125186755D01*
X86232219Y-127615326D02*
X85232219Y-127615326D01*
X85232219Y-126948660D02*
X85232219Y-126758184D01*
X85232219Y-126758184D02*
X85279838Y-126662946D01*
X85279838Y-126662946D02*
X85375076Y-126567708D01*
X85375076Y-126567708D02*
X85565552Y-126520089D01*
X85565552Y-126520089D02*
X85898885Y-126520089D01*
X85898885Y-126520089D02*
X86089361Y-126567708D01*
X86089361Y-126567708D02*
X86184600Y-126662946D01*
X86184600Y-126662946D02*
X86232219Y-126758184D01*
X86232219Y-126758184D02*
X86232219Y-126948660D01*
X86232219Y-126948660D02*
X86184600Y-127043898D01*
X86184600Y-127043898D02*
X86089361Y-127139136D01*
X86089361Y-127139136D02*
X85898885Y-127186755D01*
X85898885Y-127186755D02*
X85565552Y-127186755D01*
X85565552Y-127186755D02*
X85375076Y-127139136D01*
X85375076Y-127139136D02*
X85279838Y-127043898D01*
X85279838Y-127043898D02*
X85232219Y-126948660D01*
X85565552Y-125662946D02*
X86232219Y-125662946D01*
X85184600Y-125901041D02*
X85898885Y-126139136D01*
X85898885Y-126139136D02*
X85898885Y-125520089D01*
X85232219Y-124948660D02*
X85232219Y-124853422D01*
X85232219Y-124853422D02*
X85279838Y-124758184D01*
X85279838Y-124758184D02*
X85327457Y-124710565D01*
X85327457Y-124710565D02*
X85422695Y-124662946D01*
X85422695Y-124662946D02*
X85613171Y-124615327D01*
X85613171Y-124615327D02*
X85851266Y-124615327D01*
X85851266Y-124615327D02*
X86041742Y-124662946D01*
X86041742Y-124662946D02*
X86136980Y-124710565D01*
X86136980Y-124710565D02*
X86184600Y-124758184D01*
X86184600Y-124758184D02*
X86232219Y-124853422D01*
X86232219Y-124853422D02*
X86232219Y-124948660D01*
X86232219Y-124948660D02*
X86184600Y-125043898D01*
X86184600Y-125043898D02*
X86136980Y-125091517D01*
X86136980Y-125091517D02*
X86041742Y-125139136D01*
X86041742Y-125139136D02*
X85851266Y-125186755D01*
X85851266Y-125186755D02*
X85613171Y-125186755D01*
X85613171Y-125186755D02*
X85422695Y-125139136D01*
X85422695Y-125139136D02*
X85327457Y-125091517D01*
X85327457Y-125091517D02*
X85279838Y-125043898D01*
X85279838Y-125043898D02*
X85232219Y-124948660D01*
X88772219Y-127043898D02*
X88296028Y-127377231D01*
X88772219Y-127615326D02*
X87772219Y-127615326D01*
X87772219Y-127615326D02*
X87772219Y-127234374D01*
X87772219Y-127234374D02*
X87819838Y-127139136D01*
X87819838Y-127139136D02*
X87867457Y-127091517D01*
X87867457Y-127091517D02*
X87962695Y-127043898D01*
X87962695Y-127043898D02*
X88105552Y-127043898D01*
X88105552Y-127043898D02*
X88200790Y-127091517D01*
X88200790Y-127091517D02*
X88248409Y-127139136D01*
X88248409Y-127139136D02*
X88296028Y-127234374D01*
X88296028Y-127234374D02*
X88296028Y-127615326D01*
X87772219Y-126615326D02*
X88581742Y-126615326D01*
X88581742Y-126615326D02*
X88676980Y-126567707D01*
X88676980Y-126567707D02*
X88724600Y-126520088D01*
X88724600Y-126520088D02*
X88772219Y-126424850D01*
X88772219Y-126424850D02*
X88772219Y-126234374D01*
X88772219Y-126234374D02*
X88724600Y-126139136D01*
X88724600Y-126139136D02*
X88676980Y-126091517D01*
X88676980Y-126091517D02*
X88581742Y-126043898D01*
X88581742Y-126043898D02*
X87772219Y-126043898D01*
X88772219Y-125567707D02*
X87772219Y-125567707D01*
X87772219Y-125567707D02*
X88772219Y-124996279D01*
X88772219Y-124996279D02*
X87772219Y-124996279D01*
X91312219Y-116384672D02*
X90312219Y-116384672D01*
X90312219Y-115718006D02*
X90312219Y-115527530D01*
X90312219Y-115527530D02*
X90359838Y-115432292D01*
X90359838Y-115432292D02*
X90455076Y-115337054D01*
X90455076Y-115337054D02*
X90645552Y-115289435D01*
X90645552Y-115289435D02*
X90978885Y-115289435D01*
X90978885Y-115289435D02*
X91169361Y-115337054D01*
X91169361Y-115337054D02*
X91264600Y-115432292D01*
X91264600Y-115432292D02*
X91312219Y-115527530D01*
X91312219Y-115527530D02*
X91312219Y-115718006D01*
X91312219Y-115718006D02*
X91264600Y-115813244D01*
X91264600Y-115813244D02*
X91169361Y-115908482D01*
X91169361Y-115908482D02*
X90978885Y-115956101D01*
X90978885Y-115956101D02*
X90645552Y-115956101D01*
X90645552Y-115956101D02*
X90455076Y-115908482D01*
X90455076Y-115908482D02*
X90359838Y-115813244D01*
X90359838Y-115813244D02*
X90312219Y-115718006D01*
X91312219Y-114813244D02*
X91312219Y-114622768D01*
X91312219Y-114622768D02*
X91264600Y-114527530D01*
X91264600Y-114527530D02*
X91216980Y-114479911D01*
X91216980Y-114479911D02*
X91074123Y-114384673D01*
X91074123Y-114384673D02*
X90883647Y-114337054D01*
X90883647Y-114337054D02*
X90502695Y-114337054D01*
X90502695Y-114337054D02*
X90407457Y-114384673D01*
X90407457Y-114384673D02*
X90359838Y-114432292D01*
X90359838Y-114432292D02*
X90312219Y-114527530D01*
X90312219Y-114527530D02*
X90312219Y-114718006D01*
X90312219Y-114718006D02*
X90359838Y-114813244D01*
X90359838Y-114813244D02*
X90407457Y-114860863D01*
X90407457Y-114860863D02*
X90502695Y-114908482D01*
X90502695Y-114908482D02*
X90740790Y-114908482D01*
X90740790Y-114908482D02*
X90836028Y-114860863D01*
X90836028Y-114860863D02*
X90883647Y-114813244D01*
X90883647Y-114813244D02*
X90931266Y-114718006D01*
X90931266Y-114718006D02*
X90931266Y-114527530D01*
X90931266Y-114527530D02*
X90883647Y-114432292D01*
X90883647Y-114432292D02*
X90836028Y-114384673D01*
X90836028Y-114384673D02*
X90740790Y-114337054D01*
X91312219Y-127615326D02*
X90312219Y-127615326D01*
X90312219Y-126948660D02*
X90312219Y-126758184D01*
X90312219Y-126758184D02*
X90359838Y-126662946D01*
X90359838Y-126662946D02*
X90455076Y-126567708D01*
X90455076Y-126567708D02*
X90645552Y-126520089D01*
X90645552Y-126520089D02*
X90978885Y-126520089D01*
X90978885Y-126520089D02*
X91169361Y-126567708D01*
X91169361Y-126567708D02*
X91264600Y-126662946D01*
X91264600Y-126662946D02*
X91312219Y-126758184D01*
X91312219Y-126758184D02*
X91312219Y-126948660D01*
X91312219Y-126948660D02*
X91264600Y-127043898D01*
X91264600Y-127043898D02*
X91169361Y-127139136D01*
X91169361Y-127139136D02*
X90978885Y-127186755D01*
X90978885Y-127186755D02*
X90645552Y-127186755D01*
X90645552Y-127186755D02*
X90455076Y-127139136D01*
X90455076Y-127139136D02*
X90359838Y-127043898D01*
X90359838Y-127043898D02*
X90312219Y-126948660D01*
X90407457Y-126139136D02*
X90359838Y-126091517D01*
X90359838Y-126091517D02*
X90312219Y-125996279D01*
X90312219Y-125996279D02*
X90312219Y-125758184D01*
X90312219Y-125758184D02*
X90359838Y-125662946D01*
X90359838Y-125662946D02*
X90407457Y-125615327D01*
X90407457Y-125615327D02*
X90502695Y-125567708D01*
X90502695Y-125567708D02*
X90597933Y-125567708D01*
X90597933Y-125567708D02*
X90740790Y-125615327D01*
X90740790Y-125615327D02*
X91312219Y-126186755D01*
X91312219Y-126186755D02*
X91312219Y-125567708D01*
X90407457Y-125186755D02*
X90359838Y-125139136D01*
X90359838Y-125139136D02*
X90312219Y-125043898D01*
X90312219Y-125043898D02*
X90312219Y-124805803D01*
X90312219Y-124805803D02*
X90359838Y-124710565D01*
X90359838Y-124710565D02*
X90407457Y-124662946D01*
X90407457Y-124662946D02*
X90502695Y-124615327D01*
X90502695Y-124615327D02*
X90597933Y-124615327D01*
X90597933Y-124615327D02*
X90740790Y-124662946D01*
X90740790Y-124662946D02*
X91312219Y-125234374D01*
X91312219Y-125234374D02*
X91312219Y-124615327D01*
X92899838Y-116432292D02*
X92852219Y-116527530D01*
X92852219Y-116527530D02*
X92852219Y-116670387D01*
X92852219Y-116670387D02*
X92899838Y-116813244D01*
X92899838Y-116813244D02*
X92995076Y-116908482D01*
X92995076Y-116908482D02*
X93090314Y-116956101D01*
X93090314Y-116956101D02*
X93280790Y-117003720D01*
X93280790Y-117003720D02*
X93423647Y-117003720D01*
X93423647Y-117003720D02*
X93614123Y-116956101D01*
X93614123Y-116956101D02*
X93709361Y-116908482D01*
X93709361Y-116908482D02*
X93804600Y-116813244D01*
X93804600Y-116813244D02*
X93852219Y-116670387D01*
X93852219Y-116670387D02*
X93852219Y-116575149D01*
X93852219Y-116575149D02*
X93804600Y-116432292D01*
X93804600Y-116432292D02*
X93756980Y-116384673D01*
X93756980Y-116384673D02*
X93423647Y-116384673D01*
X93423647Y-116384673D02*
X93423647Y-116575149D01*
X93852219Y-115956101D02*
X92852219Y-115956101D01*
X92852219Y-115956101D02*
X93852219Y-115384673D01*
X93852219Y-115384673D02*
X92852219Y-115384673D01*
X93852219Y-114908482D02*
X92852219Y-114908482D01*
X92852219Y-114908482D02*
X92852219Y-114670387D01*
X92852219Y-114670387D02*
X92899838Y-114527530D01*
X92899838Y-114527530D02*
X92995076Y-114432292D01*
X92995076Y-114432292D02*
X93090314Y-114384673D01*
X93090314Y-114384673D02*
X93280790Y-114337054D01*
X93280790Y-114337054D02*
X93423647Y-114337054D01*
X93423647Y-114337054D02*
X93614123Y-114384673D01*
X93614123Y-114384673D02*
X93709361Y-114432292D01*
X93709361Y-114432292D02*
X93804600Y-114527530D01*
X93804600Y-114527530D02*
X93852219Y-114670387D01*
X93852219Y-114670387D02*
X93852219Y-114908482D01*
X92899838Y-127091517D02*
X92852219Y-127186755D01*
X92852219Y-127186755D02*
X92852219Y-127329612D01*
X92852219Y-127329612D02*
X92899838Y-127472469D01*
X92899838Y-127472469D02*
X92995076Y-127567707D01*
X92995076Y-127567707D02*
X93090314Y-127615326D01*
X93090314Y-127615326D02*
X93280790Y-127662945D01*
X93280790Y-127662945D02*
X93423647Y-127662945D01*
X93423647Y-127662945D02*
X93614123Y-127615326D01*
X93614123Y-127615326D02*
X93709361Y-127567707D01*
X93709361Y-127567707D02*
X93804600Y-127472469D01*
X93804600Y-127472469D02*
X93852219Y-127329612D01*
X93852219Y-127329612D02*
X93852219Y-127234374D01*
X93852219Y-127234374D02*
X93804600Y-127091517D01*
X93804600Y-127091517D02*
X93756980Y-127043898D01*
X93756980Y-127043898D02*
X93423647Y-127043898D01*
X93423647Y-127043898D02*
X93423647Y-127234374D01*
X93852219Y-126615326D02*
X92852219Y-126615326D01*
X92852219Y-126615326D02*
X93852219Y-126043898D01*
X93852219Y-126043898D02*
X92852219Y-126043898D01*
X93852219Y-125567707D02*
X92852219Y-125567707D01*
X92852219Y-125567707D02*
X92852219Y-125329612D01*
X92852219Y-125329612D02*
X92899838Y-125186755D01*
X92899838Y-125186755D02*
X92995076Y-125091517D01*
X92995076Y-125091517D02*
X93090314Y-125043898D01*
X93090314Y-125043898D02*
X93280790Y-124996279D01*
X93280790Y-124996279D02*
X93423647Y-124996279D01*
X93423647Y-124996279D02*
X93614123Y-125043898D01*
X93614123Y-125043898D02*
X93709361Y-125091517D01*
X93709361Y-125091517D02*
X93804600Y-125186755D01*
X93804600Y-125186755D02*
X93852219Y-125329612D01*
X93852219Y-125329612D02*
X93852219Y-125567707D01*
X96392219Y-117337053D02*
X95392219Y-117337053D01*
X95392219Y-116670387D02*
X95392219Y-116479911D01*
X95392219Y-116479911D02*
X95439838Y-116384673D01*
X95439838Y-116384673D02*
X95535076Y-116289435D01*
X95535076Y-116289435D02*
X95725552Y-116241816D01*
X95725552Y-116241816D02*
X96058885Y-116241816D01*
X96058885Y-116241816D02*
X96249361Y-116289435D01*
X96249361Y-116289435D02*
X96344600Y-116384673D01*
X96344600Y-116384673D02*
X96392219Y-116479911D01*
X96392219Y-116479911D02*
X96392219Y-116670387D01*
X96392219Y-116670387D02*
X96344600Y-116765625D01*
X96344600Y-116765625D02*
X96249361Y-116860863D01*
X96249361Y-116860863D02*
X96058885Y-116908482D01*
X96058885Y-116908482D02*
X95725552Y-116908482D01*
X95725552Y-116908482D02*
X95535076Y-116860863D01*
X95535076Y-116860863D02*
X95439838Y-116765625D01*
X95439838Y-116765625D02*
X95392219Y-116670387D01*
X96392219Y-115289435D02*
X96392219Y-115860863D01*
X96392219Y-115575149D02*
X95392219Y-115575149D01*
X95392219Y-115575149D02*
X95535076Y-115670387D01*
X95535076Y-115670387D02*
X95630314Y-115765625D01*
X95630314Y-115765625D02*
X95677933Y-115860863D01*
X95392219Y-114670387D02*
X95392219Y-114575149D01*
X95392219Y-114575149D02*
X95439838Y-114479911D01*
X95439838Y-114479911D02*
X95487457Y-114432292D01*
X95487457Y-114432292D02*
X95582695Y-114384673D01*
X95582695Y-114384673D02*
X95773171Y-114337054D01*
X95773171Y-114337054D02*
X96011266Y-114337054D01*
X96011266Y-114337054D02*
X96201742Y-114384673D01*
X96201742Y-114384673D02*
X96296980Y-114432292D01*
X96296980Y-114432292D02*
X96344600Y-114479911D01*
X96344600Y-114479911D02*
X96392219Y-114575149D01*
X96392219Y-114575149D02*
X96392219Y-114670387D01*
X96392219Y-114670387D02*
X96344600Y-114765625D01*
X96344600Y-114765625D02*
X96296980Y-114813244D01*
X96296980Y-114813244D02*
X96201742Y-114860863D01*
X96201742Y-114860863D02*
X96011266Y-114908482D01*
X96011266Y-114908482D02*
X95773171Y-114908482D01*
X95773171Y-114908482D02*
X95582695Y-114860863D01*
X95582695Y-114860863D02*
X95487457Y-114813244D01*
X95487457Y-114813244D02*
X95439838Y-114765625D01*
X95439838Y-114765625D02*
X95392219Y-114670387D01*
X96392219Y-127615326D02*
X95392219Y-127615326D01*
X95392219Y-126948660D02*
X95392219Y-126758184D01*
X95392219Y-126758184D02*
X95439838Y-126662946D01*
X95439838Y-126662946D02*
X95535076Y-126567708D01*
X95535076Y-126567708D02*
X95725552Y-126520089D01*
X95725552Y-126520089D02*
X96058885Y-126520089D01*
X96058885Y-126520089D02*
X96249361Y-126567708D01*
X96249361Y-126567708D02*
X96344600Y-126662946D01*
X96344600Y-126662946D02*
X96392219Y-126758184D01*
X96392219Y-126758184D02*
X96392219Y-126948660D01*
X96392219Y-126948660D02*
X96344600Y-127043898D01*
X96344600Y-127043898D02*
X96249361Y-127139136D01*
X96249361Y-127139136D02*
X96058885Y-127186755D01*
X96058885Y-127186755D02*
X95725552Y-127186755D01*
X95725552Y-127186755D02*
X95535076Y-127139136D01*
X95535076Y-127139136D02*
X95439838Y-127043898D01*
X95439838Y-127043898D02*
X95392219Y-126948660D01*
X95487457Y-126139136D02*
X95439838Y-126091517D01*
X95439838Y-126091517D02*
X95392219Y-125996279D01*
X95392219Y-125996279D02*
X95392219Y-125758184D01*
X95392219Y-125758184D02*
X95439838Y-125662946D01*
X95439838Y-125662946D02*
X95487457Y-125615327D01*
X95487457Y-125615327D02*
X95582695Y-125567708D01*
X95582695Y-125567708D02*
X95677933Y-125567708D01*
X95677933Y-125567708D02*
X95820790Y-125615327D01*
X95820790Y-125615327D02*
X96392219Y-126186755D01*
X96392219Y-126186755D02*
X96392219Y-125567708D01*
X96392219Y-124615327D02*
X96392219Y-125186755D01*
X96392219Y-124901041D02*
X95392219Y-124901041D01*
X95392219Y-124901041D02*
X95535076Y-124996279D01*
X95535076Y-124996279D02*
X95630314Y-125091517D01*
X95630314Y-125091517D02*
X95677933Y-125186755D01*
X98932219Y-117337053D02*
X97932219Y-117337053D01*
X97932219Y-116670387D02*
X97932219Y-116479911D01*
X97932219Y-116479911D02*
X97979838Y-116384673D01*
X97979838Y-116384673D02*
X98075076Y-116289435D01*
X98075076Y-116289435D02*
X98265552Y-116241816D01*
X98265552Y-116241816D02*
X98598885Y-116241816D01*
X98598885Y-116241816D02*
X98789361Y-116289435D01*
X98789361Y-116289435D02*
X98884600Y-116384673D01*
X98884600Y-116384673D02*
X98932219Y-116479911D01*
X98932219Y-116479911D02*
X98932219Y-116670387D01*
X98932219Y-116670387D02*
X98884600Y-116765625D01*
X98884600Y-116765625D02*
X98789361Y-116860863D01*
X98789361Y-116860863D02*
X98598885Y-116908482D01*
X98598885Y-116908482D02*
X98265552Y-116908482D01*
X98265552Y-116908482D02*
X98075076Y-116860863D01*
X98075076Y-116860863D02*
X97979838Y-116765625D01*
X97979838Y-116765625D02*
X97932219Y-116670387D01*
X98932219Y-115289435D02*
X98932219Y-115860863D01*
X98932219Y-115575149D02*
X97932219Y-115575149D01*
X97932219Y-115575149D02*
X98075076Y-115670387D01*
X98075076Y-115670387D02*
X98170314Y-115765625D01*
X98170314Y-115765625D02*
X98217933Y-115860863D01*
X98932219Y-114337054D02*
X98932219Y-114908482D01*
X98932219Y-114622768D02*
X97932219Y-114622768D01*
X97932219Y-114622768D02*
X98075076Y-114718006D01*
X98075076Y-114718006D02*
X98170314Y-114813244D01*
X98170314Y-114813244D02*
X98217933Y-114908482D01*
X98932219Y-127615326D02*
X97932219Y-127615326D01*
X97932219Y-126948660D02*
X97932219Y-126758184D01*
X97932219Y-126758184D02*
X97979838Y-126662946D01*
X97979838Y-126662946D02*
X98075076Y-126567708D01*
X98075076Y-126567708D02*
X98265552Y-126520089D01*
X98265552Y-126520089D02*
X98598885Y-126520089D01*
X98598885Y-126520089D02*
X98789361Y-126567708D01*
X98789361Y-126567708D02*
X98884600Y-126662946D01*
X98884600Y-126662946D02*
X98932219Y-126758184D01*
X98932219Y-126758184D02*
X98932219Y-126948660D01*
X98932219Y-126948660D02*
X98884600Y-127043898D01*
X98884600Y-127043898D02*
X98789361Y-127139136D01*
X98789361Y-127139136D02*
X98598885Y-127186755D01*
X98598885Y-127186755D02*
X98265552Y-127186755D01*
X98265552Y-127186755D02*
X98075076Y-127139136D01*
X98075076Y-127139136D02*
X97979838Y-127043898D01*
X97979838Y-127043898D02*
X97932219Y-126948660D01*
X98027457Y-126139136D02*
X97979838Y-126091517D01*
X97979838Y-126091517D02*
X97932219Y-125996279D01*
X97932219Y-125996279D02*
X97932219Y-125758184D01*
X97932219Y-125758184D02*
X97979838Y-125662946D01*
X97979838Y-125662946D02*
X98027457Y-125615327D01*
X98027457Y-125615327D02*
X98122695Y-125567708D01*
X98122695Y-125567708D02*
X98217933Y-125567708D01*
X98217933Y-125567708D02*
X98360790Y-125615327D01*
X98360790Y-125615327D02*
X98932219Y-126186755D01*
X98932219Y-126186755D02*
X98932219Y-125567708D01*
X97932219Y-124948660D02*
X97932219Y-124853422D01*
X97932219Y-124853422D02*
X97979838Y-124758184D01*
X97979838Y-124758184D02*
X98027457Y-124710565D01*
X98027457Y-124710565D02*
X98122695Y-124662946D01*
X98122695Y-124662946D02*
X98313171Y-124615327D01*
X98313171Y-124615327D02*
X98551266Y-124615327D01*
X98551266Y-124615327D02*
X98741742Y-124662946D01*
X98741742Y-124662946D02*
X98836980Y-124710565D01*
X98836980Y-124710565D02*
X98884600Y-124758184D01*
X98884600Y-124758184D02*
X98932219Y-124853422D01*
X98932219Y-124853422D02*
X98932219Y-124948660D01*
X98932219Y-124948660D02*
X98884600Y-125043898D01*
X98884600Y-125043898D02*
X98836980Y-125091517D01*
X98836980Y-125091517D02*
X98741742Y-125139136D01*
X98741742Y-125139136D02*
X98551266Y-125186755D01*
X98551266Y-125186755D02*
X98313171Y-125186755D01*
X98313171Y-125186755D02*
X98122695Y-125139136D01*
X98122695Y-125139136D02*
X98027457Y-125091517D01*
X98027457Y-125091517D02*
X97979838Y-125043898D01*
X97979838Y-125043898D02*
X97932219Y-124948660D01*
X101472219Y-117337053D02*
X100472219Y-117337053D01*
X100472219Y-116670387D02*
X100472219Y-116479911D01*
X100472219Y-116479911D02*
X100519838Y-116384673D01*
X100519838Y-116384673D02*
X100615076Y-116289435D01*
X100615076Y-116289435D02*
X100805552Y-116241816D01*
X100805552Y-116241816D02*
X101138885Y-116241816D01*
X101138885Y-116241816D02*
X101329361Y-116289435D01*
X101329361Y-116289435D02*
X101424600Y-116384673D01*
X101424600Y-116384673D02*
X101472219Y-116479911D01*
X101472219Y-116479911D02*
X101472219Y-116670387D01*
X101472219Y-116670387D02*
X101424600Y-116765625D01*
X101424600Y-116765625D02*
X101329361Y-116860863D01*
X101329361Y-116860863D02*
X101138885Y-116908482D01*
X101138885Y-116908482D02*
X100805552Y-116908482D01*
X100805552Y-116908482D02*
X100615076Y-116860863D01*
X100615076Y-116860863D02*
X100519838Y-116765625D01*
X100519838Y-116765625D02*
X100472219Y-116670387D01*
X101472219Y-115289435D02*
X101472219Y-115860863D01*
X101472219Y-115575149D02*
X100472219Y-115575149D01*
X100472219Y-115575149D02*
X100615076Y-115670387D01*
X100615076Y-115670387D02*
X100710314Y-115765625D01*
X100710314Y-115765625D02*
X100757933Y-115860863D01*
X100567457Y-114908482D02*
X100519838Y-114860863D01*
X100519838Y-114860863D02*
X100472219Y-114765625D01*
X100472219Y-114765625D02*
X100472219Y-114527530D01*
X100472219Y-114527530D02*
X100519838Y-114432292D01*
X100519838Y-114432292D02*
X100567457Y-114384673D01*
X100567457Y-114384673D02*
X100662695Y-114337054D01*
X100662695Y-114337054D02*
X100757933Y-114337054D01*
X100757933Y-114337054D02*
X100900790Y-114384673D01*
X100900790Y-114384673D02*
X101472219Y-114956101D01*
X101472219Y-114956101D02*
X101472219Y-114337054D01*
X101472219Y-127615326D02*
X100472219Y-127615326D01*
X100472219Y-126948660D02*
X100472219Y-126758184D01*
X100472219Y-126758184D02*
X100519838Y-126662946D01*
X100519838Y-126662946D02*
X100615076Y-126567708D01*
X100615076Y-126567708D02*
X100805552Y-126520089D01*
X100805552Y-126520089D02*
X101138885Y-126520089D01*
X101138885Y-126520089D02*
X101329361Y-126567708D01*
X101329361Y-126567708D02*
X101424600Y-126662946D01*
X101424600Y-126662946D02*
X101472219Y-126758184D01*
X101472219Y-126758184D02*
X101472219Y-126948660D01*
X101472219Y-126948660D02*
X101424600Y-127043898D01*
X101424600Y-127043898D02*
X101329361Y-127139136D01*
X101329361Y-127139136D02*
X101138885Y-127186755D01*
X101138885Y-127186755D02*
X100805552Y-127186755D01*
X100805552Y-127186755D02*
X100615076Y-127139136D01*
X100615076Y-127139136D02*
X100519838Y-127043898D01*
X100519838Y-127043898D02*
X100472219Y-126948660D01*
X101472219Y-125567708D02*
X101472219Y-126139136D01*
X101472219Y-125853422D02*
X100472219Y-125853422D01*
X100472219Y-125853422D02*
X100615076Y-125948660D01*
X100615076Y-125948660D02*
X100710314Y-126043898D01*
X100710314Y-126043898D02*
X100757933Y-126139136D01*
X101472219Y-125091517D02*
X101472219Y-124901041D01*
X101472219Y-124901041D02*
X101424600Y-124805803D01*
X101424600Y-124805803D02*
X101376980Y-124758184D01*
X101376980Y-124758184D02*
X101234123Y-124662946D01*
X101234123Y-124662946D02*
X101043647Y-124615327D01*
X101043647Y-124615327D02*
X100662695Y-124615327D01*
X100662695Y-124615327D02*
X100567457Y-124662946D01*
X100567457Y-124662946D02*
X100519838Y-124710565D01*
X100519838Y-124710565D02*
X100472219Y-124805803D01*
X100472219Y-124805803D02*
X100472219Y-124996279D01*
X100472219Y-124996279D02*
X100519838Y-125091517D01*
X100519838Y-125091517D02*
X100567457Y-125139136D01*
X100567457Y-125139136D02*
X100662695Y-125186755D01*
X100662695Y-125186755D02*
X100900790Y-125186755D01*
X100900790Y-125186755D02*
X100996028Y-125139136D01*
X100996028Y-125139136D02*
X101043647Y-125091517D01*
X101043647Y-125091517D02*
X101091266Y-124996279D01*
X101091266Y-124996279D02*
X101091266Y-124805803D01*
X101091266Y-124805803D02*
X101043647Y-124710565D01*
X101043647Y-124710565D02*
X100996028Y-124662946D01*
X100996028Y-124662946D02*
X100900790Y-124615327D01*
X104012219Y-117337053D02*
X103012219Y-117337053D01*
X103012219Y-116670387D02*
X103012219Y-116479911D01*
X103012219Y-116479911D02*
X103059838Y-116384673D01*
X103059838Y-116384673D02*
X103155076Y-116289435D01*
X103155076Y-116289435D02*
X103345552Y-116241816D01*
X103345552Y-116241816D02*
X103678885Y-116241816D01*
X103678885Y-116241816D02*
X103869361Y-116289435D01*
X103869361Y-116289435D02*
X103964600Y-116384673D01*
X103964600Y-116384673D02*
X104012219Y-116479911D01*
X104012219Y-116479911D02*
X104012219Y-116670387D01*
X104012219Y-116670387D02*
X103964600Y-116765625D01*
X103964600Y-116765625D02*
X103869361Y-116860863D01*
X103869361Y-116860863D02*
X103678885Y-116908482D01*
X103678885Y-116908482D02*
X103345552Y-116908482D01*
X103345552Y-116908482D02*
X103155076Y-116860863D01*
X103155076Y-116860863D02*
X103059838Y-116765625D01*
X103059838Y-116765625D02*
X103012219Y-116670387D01*
X104012219Y-115289435D02*
X104012219Y-115860863D01*
X104012219Y-115575149D02*
X103012219Y-115575149D01*
X103012219Y-115575149D02*
X103155076Y-115670387D01*
X103155076Y-115670387D02*
X103250314Y-115765625D01*
X103250314Y-115765625D02*
X103297933Y-115860863D01*
X103012219Y-114956101D02*
X103012219Y-114337054D01*
X103012219Y-114337054D02*
X103393171Y-114670387D01*
X103393171Y-114670387D02*
X103393171Y-114527530D01*
X103393171Y-114527530D02*
X103440790Y-114432292D01*
X103440790Y-114432292D02*
X103488409Y-114384673D01*
X103488409Y-114384673D02*
X103583647Y-114337054D01*
X103583647Y-114337054D02*
X103821742Y-114337054D01*
X103821742Y-114337054D02*
X103916980Y-114384673D01*
X103916980Y-114384673D02*
X103964600Y-114432292D01*
X103964600Y-114432292D02*
X104012219Y-114527530D01*
X104012219Y-114527530D02*
X104012219Y-114813244D01*
X104012219Y-114813244D02*
X103964600Y-114908482D01*
X103964600Y-114908482D02*
X103916980Y-114956101D01*
X104012219Y-127615326D02*
X103012219Y-127615326D01*
X103012219Y-126948660D02*
X103012219Y-126758184D01*
X103012219Y-126758184D02*
X103059838Y-126662946D01*
X103059838Y-126662946D02*
X103155076Y-126567708D01*
X103155076Y-126567708D02*
X103345552Y-126520089D01*
X103345552Y-126520089D02*
X103678885Y-126520089D01*
X103678885Y-126520089D02*
X103869361Y-126567708D01*
X103869361Y-126567708D02*
X103964600Y-126662946D01*
X103964600Y-126662946D02*
X104012219Y-126758184D01*
X104012219Y-126758184D02*
X104012219Y-126948660D01*
X104012219Y-126948660D02*
X103964600Y-127043898D01*
X103964600Y-127043898D02*
X103869361Y-127139136D01*
X103869361Y-127139136D02*
X103678885Y-127186755D01*
X103678885Y-127186755D02*
X103345552Y-127186755D01*
X103345552Y-127186755D02*
X103155076Y-127139136D01*
X103155076Y-127139136D02*
X103059838Y-127043898D01*
X103059838Y-127043898D02*
X103012219Y-126948660D01*
X104012219Y-125567708D02*
X104012219Y-126139136D01*
X104012219Y-125853422D02*
X103012219Y-125853422D01*
X103012219Y-125853422D02*
X103155076Y-125948660D01*
X103155076Y-125948660D02*
X103250314Y-126043898D01*
X103250314Y-126043898D02*
X103297933Y-126139136D01*
X103440790Y-124996279D02*
X103393171Y-125091517D01*
X103393171Y-125091517D02*
X103345552Y-125139136D01*
X103345552Y-125139136D02*
X103250314Y-125186755D01*
X103250314Y-125186755D02*
X103202695Y-125186755D01*
X103202695Y-125186755D02*
X103107457Y-125139136D01*
X103107457Y-125139136D02*
X103059838Y-125091517D01*
X103059838Y-125091517D02*
X103012219Y-124996279D01*
X103012219Y-124996279D02*
X103012219Y-124805803D01*
X103012219Y-124805803D02*
X103059838Y-124710565D01*
X103059838Y-124710565D02*
X103107457Y-124662946D01*
X103107457Y-124662946D02*
X103202695Y-124615327D01*
X103202695Y-124615327D02*
X103250314Y-124615327D01*
X103250314Y-124615327D02*
X103345552Y-124662946D01*
X103345552Y-124662946D02*
X103393171Y-124710565D01*
X103393171Y-124710565D02*
X103440790Y-124805803D01*
X103440790Y-124805803D02*
X103440790Y-124996279D01*
X103440790Y-124996279D02*
X103488409Y-125091517D01*
X103488409Y-125091517D02*
X103536028Y-125139136D01*
X103536028Y-125139136D02*
X103631266Y-125186755D01*
X103631266Y-125186755D02*
X103821742Y-125186755D01*
X103821742Y-125186755D02*
X103916980Y-125139136D01*
X103916980Y-125139136D02*
X103964600Y-125091517D01*
X103964600Y-125091517D02*
X104012219Y-124996279D01*
X104012219Y-124996279D02*
X104012219Y-124805803D01*
X104012219Y-124805803D02*
X103964600Y-124710565D01*
X103964600Y-124710565D02*
X103916980Y-124662946D01*
X103916980Y-124662946D02*
X103821742Y-124615327D01*
X103821742Y-124615327D02*
X103631266Y-124615327D01*
X103631266Y-124615327D02*
X103536028Y-124662946D01*
X103536028Y-124662946D02*
X103488409Y-124710565D01*
X103488409Y-124710565D02*
X103440790Y-124805803D01*
X105599838Y-116432292D02*
X105552219Y-116527530D01*
X105552219Y-116527530D02*
X105552219Y-116670387D01*
X105552219Y-116670387D02*
X105599838Y-116813244D01*
X105599838Y-116813244D02*
X105695076Y-116908482D01*
X105695076Y-116908482D02*
X105790314Y-116956101D01*
X105790314Y-116956101D02*
X105980790Y-117003720D01*
X105980790Y-117003720D02*
X106123647Y-117003720D01*
X106123647Y-117003720D02*
X106314123Y-116956101D01*
X106314123Y-116956101D02*
X106409361Y-116908482D01*
X106409361Y-116908482D02*
X106504600Y-116813244D01*
X106504600Y-116813244D02*
X106552219Y-116670387D01*
X106552219Y-116670387D02*
X106552219Y-116575149D01*
X106552219Y-116575149D02*
X106504600Y-116432292D01*
X106504600Y-116432292D02*
X106456980Y-116384673D01*
X106456980Y-116384673D02*
X106123647Y-116384673D01*
X106123647Y-116384673D02*
X106123647Y-116575149D01*
X106552219Y-115956101D02*
X105552219Y-115956101D01*
X105552219Y-115956101D02*
X106552219Y-115384673D01*
X106552219Y-115384673D02*
X105552219Y-115384673D01*
X106552219Y-114908482D02*
X105552219Y-114908482D01*
X105552219Y-114908482D02*
X105552219Y-114670387D01*
X105552219Y-114670387D02*
X105599838Y-114527530D01*
X105599838Y-114527530D02*
X105695076Y-114432292D01*
X105695076Y-114432292D02*
X105790314Y-114384673D01*
X105790314Y-114384673D02*
X105980790Y-114337054D01*
X105980790Y-114337054D02*
X106123647Y-114337054D01*
X106123647Y-114337054D02*
X106314123Y-114384673D01*
X106314123Y-114384673D02*
X106409361Y-114432292D01*
X106409361Y-114432292D02*
X106504600Y-114527530D01*
X106504600Y-114527530D02*
X106552219Y-114670387D01*
X106552219Y-114670387D02*
X106552219Y-114908482D01*
X105599838Y-127091517D02*
X105552219Y-127186755D01*
X105552219Y-127186755D02*
X105552219Y-127329612D01*
X105552219Y-127329612D02*
X105599838Y-127472469D01*
X105599838Y-127472469D02*
X105695076Y-127567707D01*
X105695076Y-127567707D02*
X105790314Y-127615326D01*
X105790314Y-127615326D02*
X105980790Y-127662945D01*
X105980790Y-127662945D02*
X106123647Y-127662945D01*
X106123647Y-127662945D02*
X106314123Y-127615326D01*
X106314123Y-127615326D02*
X106409361Y-127567707D01*
X106409361Y-127567707D02*
X106504600Y-127472469D01*
X106504600Y-127472469D02*
X106552219Y-127329612D01*
X106552219Y-127329612D02*
X106552219Y-127234374D01*
X106552219Y-127234374D02*
X106504600Y-127091517D01*
X106504600Y-127091517D02*
X106456980Y-127043898D01*
X106456980Y-127043898D02*
X106123647Y-127043898D01*
X106123647Y-127043898D02*
X106123647Y-127234374D01*
X106552219Y-126615326D02*
X105552219Y-126615326D01*
X105552219Y-126615326D02*
X106552219Y-126043898D01*
X106552219Y-126043898D02*
X105552219Y-126043898D01*
X106552219Y-125567707D02*
X105552219Y-125567707D01*
X105552219Y-125567707D02*
X105552219Y-125329612D01*
X105552219Y-125329612D02*
X105599838Y-125186755D01*
X105599838Y-125186755D02*
X105695076Y-125091517D01*
X105695076Y-125091517D02*
X105790314Y-125043898D01*
X105790314Y-125043898D02*
X105980790Y-124996279D01*
X105980790Y-124996279D02*
X106123647Y-124996279D01*
X106123647Y-124996279D02*
X106314123Y-125043898D01*
X106314123Y-125043898D02*
X106409361Y-125091517D01*
X106409361Y-125091517D02*
X106504600Y-125186755D01*
X106504600Y-125186755D02*
X106552219Y-125329612D01*
X106552219Y-125329612D02*
X106552219Y-125567707D01*
X109092219Y-117337053D02*
X108092219Y-117337053D01*
X108092219Y-116670387D02*
X108092219Y-116479911D01*
X108092219Y-116479911D02*
X108139838Y-116384673D01*
X108139838Y-116384673D02*
X108235076Y-116289435D01*
X108235076Y-116289435D02*
X108425552Y-116241816D01*
X108425552Y-116241816D02*
X108758885Y-116241816D01*
X108758885Y-116241816D02*
X108949361Y-116289435D01*
X108949361Y-116289435D02*
X109044600Y-116384673D01*
X109044600Y-116384673D02*
X109092219Y-116479911D01*
X109092219Y-116479911D02*
X109092219Y-116670387D01*
X109092219Y-116670387D02*
X109044600Y-116765625D01*
X109044600Y-116765625D02*
X108949361Y-116860863D01*
X108949361Y-116860863D02*
X108758885Y-116908482D01*
X108758885Y-116908482D02*
X108425552Y-116908482D01*
X108425552Y-116908482D02*
X108235076Y-116860863D01*
X108235076Y-116860863D02*
X108139838Y-116765625D01*
X108139838Y-116765625D02*
X108092219Y-116670387D01*
X109092219Y-115289435D02*
X109092219Y-115860863D01*
X109092219Y-115575149D02*
X108092219Y-115575149D01*
X108092219Y-115575149D02*
X108235076Y-115670387D01*
X108235076Y-115670387D02*
X108330314Y-115765625D01*
X108330314Y-115765625D02*
X108377933Y-115860863D01*
X108425552Y-114432292D02*
X109092219Y-114432292D01*
X108044600Y-114670387D02*
X108758885Y-114908482D01*
X108758885Y-114908482D02*
X108758885Y-114289435D01*
X109092219Y-127615326D02*
X108092219Y-127615326D01*
X108092219Y-126948660D02*
X108092219Y-126758184D01*
X108092219Y-126758184D02*
X108139838Y-126662946D01*
X108139838Y-126662946D02*
X108235076Y-126567708D01*
X108235076Y-126567708D02*
X108425552Y-126520089D01*
X108425552Y-126520089D02*
X108758885Y-126520089D01*
X108758885Y-126520089D02*
X108949361Y-126567708D01*
X108949361Y-126567708D02*
X109044600Y-126662946D01*
X109044600Y-126662946D02*
X109092219Y-126758184D01*
X109092219Y-126758184D02*
X109092219Y-126948660D01*
X109092219Y-126948660D02*
X109044600Y-127043898D01*
X109044600Y-127043898D02*
X108949361Y-127139136D01*
X108949361Y-127139136D02*
X108758885Y-127186755D01*
X108758885Y-127186755D02*
X108425552Y-127186755D01*
X108425552Y-127186755D02*
X108235076Y-127139136D01*
X108235076Y-127139136D02*
X108139838Y-127043898D01*
X108139838Y-127043898D02*
X108092219Y-126948660D01*
X109092219Y-125567708D02*
X109092219Y-126139136D01*
X109092219Y-125853422D02*
X108092219Y-125853422D01*
X108092219Y-125853422D02*
X108235076Y-125948660D01*
X108235076Y-125948660D02*
X108330314Y-126043898D01*
X108330314Y-126043898D02*
X108377933Y-126139136D01*
X108092219Y-125234374D02*
X108092219Y-124567708D01*
X108092219Y-124567708D02*
X109092219Y-124996279D01*
X111632219Y-117337053D02*
X110632219Y-117337053D01*
X110632219Y-116670387D02*
X110632219Y-116479911D01*
X110632219Y-116479911D02*
X110679838Y-116384673D01*
X110679838Y-116384673D02*
X110775076Y-116289435D01*
X110775076Y-116289435D02*
X110965552Y-116241816D01*
X110965552Y-116241816D02*
X111298885Y-116241816D01*
X111298885Y-116241816D02*
X111489361Y-116289435D01*
X111489361Y-116289435D02*
X111584600Y-116384673D01*
X111584600Y-116384673D02*
X111632219Y-116479911D01*
X111632219Y-116479911D02*
X111632219Y-116670387D01*
X111632219Y-116670387D02*
X111584600Y-116765625D01*
X111584600Y-116765625D02*
X111489361Y-116860863D01*
X111489361Y-116860863D02*
X111298885Y-116908482D01*
X111298885Y-116908482D02*
X110965552Y-116908482D01*
X110965552Y-116908482D02*
X110775076Y-116860863D01*
X110775076Y-116860863D02*
X110679838Y-116765625D01*
X110679838Y-116765625D02*
X110632219Y-116670387D01*
X111632219Y-115289435D02*
X111632219Y-115860863D01*
X111632219Y-115575149D02*
X110632219Y-115575149D01*
X110632219Y-115575149D02*
X110775076Y-115670387D01*
X110775076Y-115670387D02*
X110870314Y-115765625D01*
X110870314Y-115765625D02*
X110917933Y-115860863D01*
X110632219Y-114384673D02*
X110632219Y-114860863D01*
X110632219Y-114860863D02*
X111108409Y-114908482D01*
X111108409Y-114908482D02*
X111060790Y-114860863D01*
X111060790Y-114860863D02*
X111013171Y-114765625D01*
X111013171Y-114765625D02*
X111013171Y-114527530D01*
X111013171Y-114527530D02*
X111060790Y-114432292D01*
X111060790Y-114432292D02*
X111108409Y-114384673D01*
X111108409Y-114384673D02*
X111203647Y-114337054D01*
X111203647Y-114337054D02*
X111441742Y-114337054D01*
X111441742Y-114337054D02*
X111536980Y-114384673D01*
X111536980Y-114384673D02*
X111584600Y-114432292D01*
X111584600Y-114432292D02*
X111632219Y-114527530D01*
X111632219Y-114527530D02*
X111632219Y-114765625D01*
X111632219Y-114765625D02*
X111584600Y-114860863D01*
X111584600Y-114860863D02*
X111536980Y-114908482D01*
X111632219Y-127615326D02*
X110632219Y-127615326D01*
X110632219Y-126948660D02*
X110632219Y-126758184D01*
X110632219Y-126758184D02*
X110679838Y-126662946D01*
X110679838Y-126662946D02*
X110775076Y-126567708D01*
X110775076Y-126567708D02*
X110965552Y-126520089D01*
X110965552Y-126520089D02*
X111298885Y-126520089D01*
X111298885Y-126520089D02*
X111489361Y-126567708D01*
X111489361Y-126567708D02*
X111584600Y-126662946D01*
X111584600Y-126662946D02*
X111632219Y-126758184D01*
X111632219Y-126758184D02*
X111632219Y-126948660D01*
X111632219Y-126948660D02*
X111584600Y-127043898D01*
X111584600Y-127043898D02*
X111489361Y-127139136D01*
X111489361Y-127139136D02*
X111298885Y-127186755D01*
X111298885Y-127186755D02*
X110965552Y-127186755D01*
X110965552Y-127186755D02*
X110775076Y-127139136D01*
X110775076Y-127139136D02*
X110679838Y-127043898D01*
X110679838Y-127043898D02*
X110632219Y-126948660D01*
X111632219Y-125567708D02*
X111632219Y-126139136D01*
X111632219Y-125853422D02*
X110632219Y-125853422D01*
X110632219Y-125853422D02*
X110775076Y-125948660D01*
X110775076Y-125948660D02*
X110870314Y-126043898D01*
X110870314Y-126043898D02*
X110917933Y-126139136D01*
X110632219Y-124710565D02*
X110632219Y-124901041D01*
X110632219Y-124901041D02*
X110679838Y-124996279D01*
X110679838Y-124996279D02*
X110727457Y-125043898D01*
X110727457Y-125043898D02*
X110870314Y-125139136D01*
X110870314Y-125139136D02*
X111060790Y-125186755D01*
X111060790Y-125186755D02*
X111441742Y-125186755D01*
X111441742Y-125186755D02*
X111536980Y-125139136D01*
X111536980Y-125139136D02*
X111584600Y-125091517D01*
X111584600Y-125091517D02*
X111632219Y-124996279D01*
X111632219Y-124996279D02*
X111632219Y-124805803D01*
X111632219Y-124805803D02*
X111584600Y-124710565D01*
X111584600Y-124710565D02*
X111536980Y-124662946D01*
X111536980Y-124662946D02*
X111441742Y-124615327D01*
X111441742Y-124615327D02*
X111203647Y-124615327D01*
X111203647Y-124615327D02*
X111108409Y-124662946D01*
X111108409Y-124662946D02*
X111060790Y-124710565D01*
X111060790Y-124710565D02*
X111013171Y-124805803D01*
X111013171Y-124805803D02*
X111013171Y-124996279D01*
X111013171Y-124996279D02*
X111060790Y-125091517D01*
X111060790Y-125091517D02*
X111108409Y-125139136D01*
X111108409Y-125139136D02*
X111203647Y-125186755D01*
D12*
X63333333Y-119199819D02*
X63000000Y-118723628D01*
X62761905Y-119199819D02*
X62761905Y-118199819D01*
X62761905Y-118199819D02*
X63142857Y-118199819D01*
X63142857Y-118199819D02*
X63238095Y-118247438D01*
X63238095Y-118247438D02*
X63285714Y-118295057D01*
X63285714Y-118295057D02*
X63333333Y-118390295D01*
X63333333Y-118390295D02*
X63333333Y-118533152D01*
X63333333Y-118533152D02*
X63285714Y-118628390D01*
X63285714Y-118628390D02*
X63238095Y-118676009D01*
X63238095Y-118676009D02*
X63142857Y-118723628D01*
X63142857Y-118723628D02*
X62761905Y-118723628D01*
X63904762Y-118628390D02*
X63809524Y-118580771D01*
X63809524Y-118580771D02*
X63761905Y-118533152D01*
X63761905Y-118533152D02*
X63714286Y-118437914D01*
X63714286Y-118437914D02*
X63714286Y-118390295D01*
X63714286Y-118390295D02*
X63761905Y-118295057D01*
X63761905Y-118295057D02*
X63809524Y-118247438D01*
X63809524Y-118247438D02*
X63904762Y-118199819D01*
X63904762Y-118199819D02*
X64095238Y-118199819D01*
X64095238Y-118199819D02*
X64190476Y-118247438D01*
X64190476Y-118247438D02*
X64238095Y-118295057D01*
X64238095Y-118295057D02*
X64285714Y-118390295D01*
X64285714Y-118390295D02*
X64285714Y-118437914D01*
X64285714Y-118437914D02*
X64238095Y-118533152D01*
X64238095Y-118533152D02*
X64190476Y-118580771D01*
X64190476Y-118580771D02*
X64095238Y-118628390D01*
X64095238Y-118628390D02*
X63904762Y-118628390D01*
X63904762Y-118628390D02*
X63809524Y-118676009D01*
X63809524Y-118676009D02*
X63761905Y-118723628D01*
X63761905Y-118723628D02*
X63714286Y-118818866D01*
X63714286Y-118818866D02*
X63714286Y-119009342D01*
X63714286Y-119009342D02*
X63761905Y-119104580D01*
X63761905Y-119104580D02*
X63809524Y-119152200D01*
X63809524Y-119152200D02*
X63904762Y-119199819D01*
X63904762Y-119199819D02*
X64095238Y-119199819D01*
X64095238Y-119199819D02*
X64190476Y-119152200D01*
X64190476Y-119152200D02*
X64238095Y-119104580D01*
X64238095Y-119104580D02*
X64285714Y-119009342D01*
X64285714Y-119009342D02*
X64285714Y-118818866D01*
X64285714Y-118818866D02*
X64238095Y-118723628D01*
X64238095Y-118723628D02*
X64190476Y-118676009D01*
X64190476Y-118676009D02*
X64095238Y-118628390D01*
X69683333Y-94534819D02*
X69350000Y-94058628D01*
X69111905Y-94534819D02*
X69111905Y-93534819D01*
X69111905Y-93534819D02*
X69492857Y-93534819D01*
X69492857Y-93534819D02*
X69588095Y-93582438D01*
X69588095Y-93582438D02*
X69635714Y-93630057D01*
X69635714Y-93630057D02*
X69683333Y-93725295D01*
X69683333Y-93725295D02*
X69683333Y-93868152D01*
X69683333Y-93868152D02*
X69635714Y-93963390D01*
X69635714Y-93963390D02*
X69588095Y-94011009D01*
X69588095Y-94011009D02*
X69492857Y-94058628D01*
X69492857Y-94058628D02*
X69111905Y-94058628D01*
X70635714Y-94534819D02*
X70064286Y-94534819D01*
X70350000Y-94534819D02*
X70350000Y-93534819D01*
X70350000Y-93534819D02*
X70254762Y-93677676D01*
X70254762Y-93677676D02*
X70159524Y-93772914D01*
X70159524Y-93772914D02*
X70064286Y-93820533D01*
D11*
X62905000Y-108402219D02*
X62905000Y-107402219D01*
X62905000Y-107402219D02*
X63285952Y-107402219D01*
X63285952Y-107402219D02*
X63381190Y-107449838D01*
X63381190Y-107449838D02*
X63428809Y-107497457D01*
X63428809Y-107497457D02*
X63476428Y-107592695D01*
X63476428Y-107592695D02*
X63476428Y-107735552D01*
X63476428Y-107735552D02*
X63428809Y-107830790D01*
X63428809Y-107830790D02*
X63381190Y-107878409D01*
X63381190Y-107878409D02*
X63285952Y-107926028D01*
X63285952Y-107926028D02*
X62905000Y-107926028D01*
X63809762Y-107402219D02*
X64047857Y-108402219D01*
X64047857Y-108402219D02*
X64238333Y-107687933D01*
X64238333Y-107687933D02*
X64428809Y-108402219D01*
X64428809Y-108402219D02*
X64666905Y-107402219D01*
X65047857Y-108402219D02*
X65047857Y-107402219D01*
X65047857Y-107402219D02*
X65381190Y-108116504D01*
X65381190Y-108116504D02*
X65714523Y-107402219D01*
X65714523Y-107402219D02*
X65714523Y-108402219D01*
X66190714Y-108306980D02*
X66238333Y-108354600D01*
X66238333Y-108354600D02*
X66190714Y-108402219D01*
X66190714Y-108402219D02*
X66143095Y-108354600D01*
X66143095Y-108354600D02*
X66190714Y-108306980D01*
X66190714Y-108306980D02*
X66190714Y-108402219D01*
X66190714Y-107783171D02*
X66238333Y-107830790D01*
X66238333Y-107830790D02*
X66190714Y-107878409D01*
X66190714Y-107878409D02*
X66143095Y-107830790D01*
X66143095Y-107830790D02*
X66190714Y-107783171D01*
X66190714Y-107783171D02*
X66190714Y-107878409D01*
X67381190Y-107497457D02*
X67428809Y-107449838D01*
X67428809Y-107449838D02*
X67524047Y-107402219D01*
X67524047Y-107402219D02*
X67762142Y-107402219D01*
X67762142Y-107402219D02*
X67857380Y-107449838D01*
X67857380Y-107449838D02*
X67904999Y-107497457D01*
X67904999Y-107497457D02*
X67952618Y-107592695D01*
X67952618Y-107592695D02*
X67952618Y-107687933D01*
X67952618Y-107687933D02*
X67904999Y-107830790D01*
X67904999Y-107830790D02*
X67333571Y-108402219D01*
X67333571Y-108402219D02*
X67952618Y-108402219D01*
D12*
X104894429Y-93815819D02*
X105465857Y-93815819D01*
X105180143Y-94815819D02*
X105180143Y-93815819D01*
X106180143Y-94768200D02*
X106084905Y-94815819D01*
X106084905Y-94815819D02*
X105894429Y-94815819D01*
X105894429Y-94815819D02*
X105799191Y-94768200D01*
X105799191Y-94768200D02*
X105751572Y-94672961D01*
X105751572Y-94672961D02*
X105751572Y-94292009D01*
X105751572Y-94292009D02*
X105799191Y-94196771D01*
X105799191Y-94196771D02*
X105894429Y-94149152D01*
X105894429Y-94149152D02*
X106084905Y-94149152D01*
X106084905Y-94149152D02*
X106180143Y-94196771D01*
X106180143Y-94196771D02*
X106227762Y-94292009D01*
X106227762Y-94292009D02*
X106227762Y-94387247D01*
X106227762Y-94387247D02*
X105751572Y-94482485D01*
X106656334Y-94815819D02*
X106656334Y-94149152D01*
X106656334Y-94244390D02*
X106703953Y-94196771D01*
X106703953Y-94196771D02*
X106799191Y-94149152D01*
X106799191Y-94149152D02*
X106942048Y-94149152D01*
X106942048Y-94149152D02*
X107037286Y-94196771D01*
X107037286Y-94196771D02*
X107084905Y-94292009D01*
X107084905Y-94292009D02*
X107084905Y-94815819D01*
X107084905Y-94292009D02*
X107132524Y-94196771D01*
X107132524Y-94196771D02*
X107227762Y-94149152D01*
X107227762Y-94149152D02*
X107370619Y-94149152D01*
X107370619Y-94149152D02*
X107465858Y-94196771D01*
X107465858Y-94196771D02*
X107513477Y-94292009D01*
X107513477Y-94292009D02*
X107513477Y-94815819D01*
X107989667Y-94149152D02*
X107989667Y-95149152D01*
X107989667Y-94196771D02*
X108084905Y-94149152D01*
X108084905Y-94149152D02*
X108275381Y-94149152D01*
X108275381Y-94149152D02*
X108370619Y-94196771D01*
X108370619Y-94196771D02*
X108418238Y-94244390D01*
X108418238Y-94244390D02*
X108465857Y-94339628D01*
X108465857Y-94339628D02*
X108465857Y-94625342D01*
X108465857Y-94625342D02*
X108418238Y-94720580D01*
X108418238Y-94720580D02*
X108370619Y-94768200D01*
X108370619Y-94768200D02*
X108275381Y-94815819D01*
X108275381Y-94815819D02*
X108084905Y-94815819D01*
X108084905Y-94815819D02*
X107989667Y-94768200D01*
X108894429Y-94720580D02*
X108942048Y-94768200D01*
X108942048Y-94768200D02*
X108894429Y-94815819D01*
X108894429Y-94815819D02*
X108846810Y-94768200D01*
X108846810Y-94768200D02*
X108894429Y-94720580D01*
X108894429Y-94720580D02*
X108894429Y-94815819D01*
X108894429Y-94196771D02*
X108942048Y-94244390D01*
X108942048Y-94244390D02*
X108894429Y-94292009D01*
X108894429Y-94292009D02*
X108846810Y-94244390D01*
X108846810Y-94244390D02*
X108894429Y-94196771D01*
X108894429Y-94196771D02*
X108894429Y-94292009D01*
X110275381Y-94244390D02*
X110180143Y-94196771D01*
X110180143Y-94196771D02*
X110132524Y-94149152D01*
X110132524Y-94149152D02*
X110084905Y-94053914D01*
X110084905Y-94053914D02*
X110084905Y-94006295D01*
X110084905Y-94006295D02*
X110132524Y-93911057D01*
X110132524Y-93911057D02*
X110180143Y-93863438D01*
X110180143Y-93863438D02*
X110275381Y-93815819D01*
X110275381Y-93815819D02*
X110465857Y-93815819D01*
X110465857Y-93815819D02*
X110561095Y-93863438D01*
X110561095Y-93863438D02*
X110608714Y-93911057D01*
X110608714Y-93911057D02*
X110656333Y-94006295D01*
X110656333Y-94006295D02*
X110656333Y-94053914D01*
X110656333Y-94053914D02*
X110608714Y-94149152D01*
X110608714Y-94149152D02*
X110561095Y-94196771D01*
X110561095Y-94196771D02*
X110465857Y-94244390D01*
X110465857Y-94244390D02*
X110275381Y-94244390D01*
X110275381Y-94244390D02*
X110180143Y-94292009D01*
X110180143Y-94292009D02*
X110132524Y-94339628D01*
X110132524Y-94339628D02*
X110084905Y-94434866D01*
X110084905Y-94434866D02*
X110084905Y-94625342D01*
X110084905Y-94625342D02*
X110132524Y-94720580D01*
X110132524Y-94720580D02*
X110180143Y-94768200D01*
X110180143Y-94768200D02*
X110275381Y-94815819D01*
X110275381Y-94815819D02*
X110465857Y-94815819D01*
X110465857Y-94815819D02*
X110561095Y-94768200D01*
X110561095Y-94768200D02*
X110608714Y-94720580D01*
X110608714Y-94720580D02*
X110656333Y-94625342D01*
X110656333Y-94625342D02*
X110656333Y-94434866D01*
X110656333Y-94434866D02*
X110608714Y-94339628D01*
X110608714Y-94339628D02*
X110561095Y-94292009D01*
X110561095Y-94292009D02*
X110465857Y-94244390D01*
X93591429Y-93815819D02*
X94162857Y-93815819D01*
X93877143Y-94815819D02*
X93877143Y-93815819D01*
X94877143Y-94768200D02*
X94781905Y-94815819D01*
X94781905Y-94815819D02*
X94591429Y-94815819D01*
X94591429Y-94815819D02*
X94496191Y-94768200D01*
X94496191Y-94768200D02*
X94448572Y-94672961D01*
X94448572Y-94672961D02*
X94448572Y-94292009D01*
X94448572Y-94292009D02*
X94496191Y-94196771D01*
X94496191Y-94196771D02*
X94591429Y-94149152D01*
X94591429Y-94149152D02*
X94781905Y-94149152D01*
X94781905Y-94149152D02*
X94877143Y-94196771D01*
X94877143Y-94196771D02*
X94924762Y-94292009D01*
X94924762Y-94292009D02*
X94924762Y-94387247D01*
X94924762Y-94387247D02*
X94448572Y-94482485D01*
X95353334Y-94815819D02*
X95353334Y-94149152D01*
X95353334Y-94244390D02*
X95400953Y-94196771D01*
X95400953Y-94196771D02*
X95496191Y-94149152D01*
X95496191Y-94149152D02*
X95639048Y-94149152D01*
X95639048Y-94149152D02*
X95734286Y-94196771D01*
X95734286Y-94196771D02*
X95781905Y-94292009D01*
X95781905Y-94292009D02*
X95781905Y-94815819D01*
X95781905Y-94292009D02*
X95829524Y-94196771D01*
X95829524Y-94196771D02*
X95924762Y-94149152D01*
X95924762Y-94149152D02*
X96067619Y-94149152D01*
X96067619Y-94149152D02*
X96162858Y-94196771D01*
X96162858Y-94196771D02*
X96210477Y-94292009D01*
X96210477Y-94292009D02*
X96210477Y-94815819D01*
X96686667Y-94149152D02*
X96686667Y-95149152D01*
X96686667Y-94196771D02*
X96781905Y-94149152D01*
X96781905Y-94149152D02*
X96972381Y-94149152D01*
X96972381Y-94149152D02*
X97067619Y-94196771D01*
X97067619Y-94196771D02*
X97115238Y-94244390D01*
X97115238Y-94244390D02*
X97162857Y-94339628D01*
X97162857Y-94339628D02*
X97162857Y-94625342D01*
X97162857Y-94625342D02*
X97115238Y-94720580D01*
X97115238Y-94720580D02*
X97067619Y-94768200D01*
X97067619Y-94768200D02*
X96972381Y-94815819D01*
X96972381Y-94815819D02*
X96781905Y-94815819D01*
X96781905Y-94815819D02*
X96686667Y-94768200D01*
X97591429Y-94720580D02*
X97639048Y-94768200D01*
X97639048Y-94768200D02*
X97591429Y-94815819D01*
X97591429Y-94815819D02*
X97543810Y-94768200D01*
X97543810Y-94768200D02*
X97591429Y-94720580D01*
X97591429Y-94720580D02*
X97591429Y-94815819D01*
X97591429Y-94196771D02*
X97639048Y-94244390D01*
X97639048Y-94244390D02*
X97591429Y-94292009D01*
X97591429Y-94292009D02*
X97543810Y-94244390D01*
X97543810Y-94244390D02*
X97591429Y-94196771D01*
X97591429Y-94196771D02*
X97591429Y-94292009D01*
X98734286Y-93815819D02*
X99400952Y-93815819D01*
X99400952Y-93815819D02*
X98972381Y-94815819D01*
X70124819Y-104901904D02*
X70934342Y-104901904D01*
X70934342Y-104901904D02*
X71029580Y-104854285D01*
X71029580Y-104854285D02*
X71077200Y-104806666D01*
X71077200Y-104806666D02*
X71124819Y-104711428D01*
X71124819Y-104711428D02*
X71124819Y-104520952D01*
X71124819Y-104520952D02*
X71077200Y-104425714D01*
X71077200Y-104425714D02*
X71029580Y-104378095D01*
X71029580Y-104378095D02*
X70934342Y-104330476D01*
X70934342Y-104330476D02*
X70124819Y-104330476D01*
X71124819Y-103330476D02*
X71124819Y-103901904D01*
X71124819Y-103616190D02*
X70124819Y-103616190D01*
X70124819Y-103616190D02*
X70267676Y-103711428D01*
X70267676Y-103711428D02*
X70362914Y-103806666D01*
X70362914Y-103806666D02*
X70410533Y-103901904D01*
X74763333Y-94534819D02*
X74430000Y-94058628D01*
X74191905Y-94534819D02*
X74191905Y-93534819D01*
X74191905Y-93534819D02*
X74572857Y-93534819D01*
X74572857Y-93534819D02*
X74668095Y-93582438D01*
X74668095Y-93582438D02*
X74715714Y-93630057D01*
X74715714Y-93630057D02*
X74763333Y-93725295D01*
X74763333Y-93725295D02*
X74763333Y-93868152D01*
X74763333Y-93868152D02*
X74715714Y-93963390D01*
X74715714Y-93963390D02*
X74668095Y-94011009D01*
X74668095Y-94011009D02*
X74572857Y-94058628D01*
X74572857Y-94058628D02*
X74191905Y-94058628D01*
X75144286Y-93630057D02*
X75191905Y-93582438D01*
X75191905Y-93582438D02*
X75287143Y-93534819D01*
X75287143Y-93534819D02*
X75525238Y-93534819D01*
X75525238Y-93534819D02*
X75620476Y-93582438D01*
X75620476Y-93582438D02*
X75668095Y-93630057D01*
X75668095Y-93630057D02*
X75715714Y-93725295D01*
X75715714Y-93725295D02*
X75715714Y-93820533D01*
X75715714Y-93820533D02*
X75668095Y-93963390D01*
X75668095Y-93963390D02*
X75096667Y-94534819D01*
X75096667Y-94534819D02*
X75715714Y-94534819D01*
X82004819Y-124213570D02*
X82004819Y-123642142D01*
X83004819Y-123927856D02*
X82004819Y-123927856D01*
X82957200Y-122927856D02*
X83004819Y-123023094D01*
X83004819Y-123023094D02*
X83004819Y-123213570D01*
X83004819Y-123213570D02*
X82957200Y-123308808D01*
X82957200Y-123308808D02*
X82861961Y-123356427D01*
X82861961Y-123356427D02*
X82481009Y-123356427D01*
X82481009Y-123356427D02*
X82385771Y-123308808D01*
X82385771Y-123308808D02*
X82338152Y-123213570D01*
X82338152Y-123213570D02*
X82338152Y-123023094D01*
X82338152Y-123023094D02*
X82385771Y-122927856D01*
X82385771Y-122927856D02*
X82481009Y-122880237D01*
X82481009Y-122880237D02*
X82576247Y-122880237D01*
X82576247Y-122880237D02*
X82671485Y-123356427D01*
X83004819Y-122451665D02*
X82338152Y-122451665D01*
X82433390Y-122451665D02*
X82385771Y-122404046D01*
X82385771Y-122404046D02*
X82338152Y-122308808D01*
X82338152Y-122308808D02*
X82338152Y-122165951D01*
X82338152Y-122165951D02*
X82385771Y-122070713D01*
X82385771Y-122070713D02*
X82481009Y-122023094D01*
X82481009Y-122023094D02*
X83004819Y-122023094D01*
X82481009Y-122023094D02*
X82385771Y-121975475D01*
X82385771Y-121975475D02*
X82338152Y-121880237D01*
X82338152Y-121880237D02*
X82338152Y-121737380D01*
X82338152Y-121737380D02*
X82385771Y-121642141D01*
X82385771Y-121642141D02*
X82481009Y-121594522D01*
X82481009Y-121594522D02*
X83004819Y-121594522D01*
X82338152Y-121118332D02*
X83338152Y-121118332D01*
X82385771Y-121118332D02*
X82338152Y-121023094D01*
X82338152Y-121023094D02*
X82338152Y-120832618D01*
X82338152Y-120832618D02*
X82385771Y-120737380D01*
X82385771Y-120737380D02*
X82433390Y-120689761D01*
X82433390Y-120689761D02*
X82528628Y-120642142D01*
X82528628Y-120642142D02*
X82814342Y-120642142D01*
X82814342Y-120642142D02*
X82909580Y-120689761D01*
X82909580Y-120689761D02*
X82957200Y-120737380D01*
X82957200Y-120737380D02*
X83004819Y-120832618D01*
X83004819Y-120832618D02*
X83004819Y-121023094D01*
X83004819Y-121023094D02*
X82957200Y-121118332D01*
X82909580Y-120213570D02*
X82957200Y-120165951D01*
X82957200Y-120165951D02*
X83004819Y-120213570D01*
X83004819Y-120213570D02*
X82957200Y-120261189D01*
X82957200Y-120261189D02*
X82909580Y-120213570D01*
X82909580Y-120213570D02*
X83004819Y-120213570D01*
X82385771Y-120213570D02*
X82433390Y-120165951D01*
X82433390Y-120165951D02*
X82481009Y-120213570D01*
X82481009Y-120213570D02*
X82433390Y-120261189D01*
X82433390Y-120261189D02*
X82385771Y-120213570D01*
X82385771Y-120213570D02*
X82481009Y-120213570D01*
X82004819Y-119070713D02*
X82004819Y-118451666D01*
X82004819Y-118451666D02*
X82385771Y-118784999D01*
X82385771Y-118784999D02*
X82385771Y-118642142D01*
X82385771Y-118642142D02*
X82433390Y-118546904D01*
X82433390Y-118546904D02*
X82481009Y-118499285D01*
X82481009Y-118499285D02*
X82576247Y-118451666D01*
X82576247Y-118451666D02*
X82814342Y-118451666D01*
X82814342Y-118451666D02*
X82909580Y-118499285D01*
X82909580Y-118499285D02*
X82957200Y-118546904D01*
X82957200Y-118546904D02*
X83004819Y-118642142D01*
X83004819Y-118642142D02*
X83004819Y-118927856D01*
X83004819Y-118927856D02*
X82957200Y-119023094D01*
X82957200Y-119023094D02*
X82909580Y-119070713D01*
X82161429Y-93815819D02*
X82732857Y-93815819D01*
X82447143Y-94815819D02*
X82447143Y-93815819D01*
X83447143Y-94768200D02*
X83351905Y-94815819D01*
X83351905Y-94815819D02*
X83161429Y-94815819D01*
X83161429Y-94815819D02*
X83066191Y-94768200D01*
X83066191Y-94768200D02*
X83018572Y-94672961D01*
X83018572Y-94672961D02*
X83018572Y-94292009D01*
X83018572Y-94292009D02*
X83066191Y-94196771D01*
X83066191Y-94196771D02*
X83161429Y-94149152D01*
X83161429Y-94149152D02*
X83351905Y-94149152D01*
X83351905Y-94149152D02*
X83447143Y-94196771D01*
X83447143Y-94196771D02*
X83494762Y-94292009D01*
X83494762Y-94292009D02*
X83494762Y-94387247D01*
X83494762Y-94387247D02*
X83018572Y-94482485D01*
X83923334Y-94815819D02*
X83923334Y-94149152D01*
X83923334Y-94244390D02*
X83970953Y-94196771D01*
X83970953Y-94196771D02*
X84066191Y-94149152D01*
X84066191Y-94149152D02*
X84209048Y-94149152D01*
X84209048Y-94149152D02*
X84304286Y-94196771D01*
X84304286Y-94196771D02*
X84351905Y-94292009D01*
X84351905Y-94292009D02*
X84351905Y-94815819D01*
X84351905Y-94292009D02*
X84399524Y-94196771D01*
X84399524Y-94196771D02*
X84494762Y-94149152D01*
X84494762Y-94149152D02*
X84637619Y-94149152D01*
X84637619Y-94149152D02*
X84732858Y-94196771D01*
X84732858Y-94196771D02*
X84780477Y-94292009D01*
X84780477Y-94292009D02*
X84780477Y-94815819D01*
X85256667Y-94149152D02*
X85256667Y-95149152D01*
X85256667Y-94196771D02*
X85351905Y-94149152D01*
X85351905Y-94149152D02*
X85542381Y-94149152D01*
X85542381Y-94149152D02*
X85637619Y-94196771D01*
X85637619Y-94196771D02*
X85685238Y-94244390D01*
X85685238Y-94244390D02*
X85732857Y-94339628D01*
X85732857Y-94339628D02*
X85732857Y-94625342D01*
X85732857Y-94625342D02*
X85685238Y-94720580D01*
X85685238Y-94720580D02*
X85637619Y-94768200D01*
X85637619Y-94768200D02*
X85542381Y-94815819D01*
X85542381Y-94815819D02*
X85351905Y-94815819D01*
X85351905Y-94815819D02*
X85256667Y-94768200D01*
X86161429Y-94720580D02*
X86209048Y-94768200D01*
X86209048Y-94768200D02*
X86161429Y-94815819D01*
X86161429Y-94815819D02*
X86113810Y-94768200D01*
X86113810Y-94768200D02*
X86161429Y-94720580D01*
X86161429Y-94720580D02*
X86161429Y-94815819D01*
X86161429Y-94196771D02*
X86209048Y-94244390D01*
X86209048Y-94244390D02*
X86161429Y-94292009D01*
X86161429Y-94292009D02*
X86113810Y-94244390D01*
X86113810Y-94244390D02*
X86161429Y-94196771D01*
X86161429Y-94196771D02*
X86161429Y-94292009D01*
X87828095Y-93815819D02*
X87637619Y-93815819D01*
X87637619Y-93815819D02*
X87542381Y-93863438D01*
X87542381Y-93863438D02*
X87494762Y-93911057D01*
X87494762Y-93911057D02*
X87399524Y-94053914D01*
X87399524Y-94053914D02*
X87351905Y-94244390D01*
X87351905Y-94244390D02*
X87351905Y-94625342D01*
X87351905Y-94625342D02*
X87399524Y-94720580D01*
X87399524Y-94720580D02*
X87447143Y-94768200D01*
X87447143Y-94768200D02*
X87542381Y-94815819D01*
X87542381Y-94815819D02*
X87732857Y-94815819D01*
X87732857Y-94815819D02*
X87828095Y-94768200D01*
X87828095Y-94768200D02*
X87875714Y-94720580D01*
X87875714Y-94720580D02*
X87923333Y-94625342D01*
X87923333Y-94625342D02*
X87923333Y-94387247D01*
X87923333Y-94387247D02*
X87875714Y-94292009D01*
X87875714Y-94292009D02*
X87828095Y-94244390D01*
X87828095Y-94244390D02*
X87732857Y-94196771D01*
X87732857Y-94196771D02*
X87542381Y-94196771D01*
X87542381Y-94196771D02*
X87447143Y-94244390D01*
X87447143Y-94244390D02*
X87399524Y-94292009D01*
X87399524Y-94292009D02*
X87351905Y-94387247D01*
X109053333Y-105214819D02*
X108720000Y-104738628D01*
X108481905Y-105214819D02*
X108481905Y-104214819D01*
X108481905Y-104214819D02*
X108862857Y-104214819D01*
X108862857Y-104214819D02*
X108958095Y-104262438D01*
X108958095Y-104262438D02*
X109005714Y-104310057D01*
X109005714Y-104310057D02*
X109053333Y-104405295D01*
X109053333Y-104405295D02*
X109053333Y-104548152D01*
X109053333Y-104548152D02*
X109005714Y-104643390D01*
X109005714Y-104643390D02*
X108958095Y-104691009D01*
X108958095Y-104691009D02*
X108862857Y-104738628D01*
X108862857Y-104738628D02*
X108481905Y-104738628D01*
X109386667Y-104214819D02*
X110005714Y-104214819D01*
X110005714Y-104214819D02*
X109672381Y-104595771D01*
X109672381Y-104595771D02*
X109815238Y-104595771D01*
X109815238Y-104595771D02*
X109910476Y-104643390D01*
X109910476Y-104643390D02*
X109958095Y-104691009D01*
X109958095Y-104691009D02*
X110005714Y-104786247D01*
X110005714Y-104786247D02*
X110005714Y-105024342D01*
X110005714Y-105024342D02*
X109958095Y-105119580D01*
X109958095Y-105119580D02*
X109910476Y-105167200D01*
X109910476Y-105167200D02*
X109815238Y-105214819D01*
X109815238Y-105214819D02*
X109529524Y-105214819D01*
X109529524Y-105214819D02*
X109434286Y-105167200D01*
X109434286Y-105167200D02*
X109386667Y-105119580D01*
X65873333Y-119199819D02*
X65540000Y-118723628D01*
X65301905Y-119199819D02*
X65301905Y-118199819D01*
X65301905Y-118199819D02*
X65682857Y-118199819D01*
X65682857Y-118199819D02*
X65778095Y-118247438D01*
X65778095Y-118247438D02*
X65825714Y-118295057D01*
X65825714Y-118295057D02*
X65873333Y-118390295D01*
X65873333Y-118390295D02*
X65873333Y-118533152D01*
X65873333Y-118533152D02*
X65825714Y-118628390D01*
X65825714Y-118628390D02*
X65778095Y-118676009D01*
X65778095Y-118676009D02*
X65682857Y-118723628D01*
X65682857Y-118723628D02*
X65301905Y-118723628D01*
X66206667Y-118199819D02*
X66873333Y-118199819D01*
X66873333Y-118199819D02*
X66444762Y-119199819D01*
X96954819Y-124178570D02*
X96954819Y-123607142D01*
X97954819Y-123892856D02*
X96954819Y-123892856D01*
X97907200Y-122892856D02*
X97954819Y-122988094D01*
X97954819Y-122988094D02*
X97954819Y-123178570D01*
X97954819Y-123178570D02*
X97907200Y-123273808D01*
X97907200Y-123273808D02*
X97811961Y-123321427D01*
X97811961Y-123321427D02*
X97431009Y-123321427D01*
X97431009Y-123321427D02*
X97335771Y-123273808D01*
X97335771Y-123273808D02*
X97288152Y-123178570D01*
X97288152Y-123178570D02*
X97288152Y-122988094D01*
X97288152Y-122988094D02*
X97335771Y-122892856D01*
X97335771Y-122892856D02*
X97431009Y-122845237D01*
X97431009Y-122845237D02*
X97526247Y-122845237D01*
X97526247Y-122845237D02*
X97621485Y-123321427D01*
X97954819Y-122416665D02*
X97288152Y-122416665D01*
X97383390Y-122416665D02*
X97335771Y-122369046D01*
X97335771Y-122369046D02*
X97288152Y-122273808D01*
X97288152Y-122273808D02*
X97288152Y-122130951D01*
X97288152Y-122130951D02*
X97335771Y-122035713D01*
X97335771Y-122035713D02*
X97431009Y-121988094D01*
X97431009Y-121988094D02*
X97954819Y-121988094D01*
X97431009Y-121988094D02*
X97335771Y-121940475D01*
X97335771Y-121940475D02*
X97288152Y-121845237D01*
X97288152Y-121845237D02*
X97288152Y-121702380D01*
X97288152Y-121702380D02*
X97335771Y-121607141D01*
X97335771Y-121607141D02*
X97431009Y-121559522D01*
X97431009Y-121559522D02*
X97954819Y-121559522D01*
X97288152Y-121083332D02*
X98288152Y-121083332D01*
X97335771Y-121083332D02*
X97288152Y-120988094D01*
X97288152Y-120988094D02*
X97288152Y-120797618D01*
X97288152Y-120797618D02*
X97335771Y-120702380D01*
X97335771Y-120702380D02*
X97383390Y-120654761D01*
X97383390Y-120654761D02*
X97478628Y-120607142D01*
X97478628Y-120607142D02*
X97764342Y-120607142D01*
X97764342Y-120607142D02*
X97859580Y-120654761D01*
X97859580Y-120654761D02*
X97907200Y-120702380D01*
X97907200Y-120702380D02*
X97954819Y-120797618D01*
X97954819Y-120797618D02*
X97954819Y-120988094D01*
X97954819Y-120988094D02*
X97907200Y-121083332D01*
X97859580Y-120178570D02*
X97907200Y-120130951D01*
X97907200Y-120130951D02*
X97954819Y-120178570D01*
X97954819Y-120178570D02*
X97907200Y-120226189D01*
X97907200Y-120226189D02*
X97859580Y-120178570D01*
X97859580Y-120178570D02*
X97954819Y-120178570D01*
X97335771Y-120178570D02*
X97383390Y-120130951D01*
X97383390Y-120130951D02*
X97431009Y-120178570D01*
X97431009Y-120178570D02*
X97383390Y-120226189D01*
X97383390Y-120226189D02*
X97335771Y-120178570D01*
X97335771Y-120178570D02*
X97431009Y-120178570D01*
X97288152Y-118511904D02*
X97954819Y-118511904D01*
X96907200Y-118749999D02*
X97621485Y-118988094D01*
X97621485Y-118988094D02*
X97621485Y-118369047D01*
X112103819Y-124213570D02*
X112103819Y-123642142D01*
X113103819Y-123927856D02*
X112103819Y-123927856D01*
X113056200Y-122927856D02*
X113103819Y-123023094D01*
X113103819Y-123023094D02*
X113103819Y-123213570D01*
X113103819Y-123213570D02*
X113056200Y-123308808D01*
X113056200Y-123308808D02*
X112960961Y-123356427D01*
X112960961Y-123356427D02*
X112580009Y-123356427D01*
X112580009Y-123356427D02*
X112484771Y-123308808D01*
X112484771Y-123308808D02*
X112437152Y-123213570D01*
X112437152Y-123213570D02*
X112437152Y-123023094D01*
X112437152Y-123023094D02*
X112484771Y-122927856D01*
X112484771Y-122927856D02*
X112580009Y-122880237D01*
X112580009Y-122880237D02*
X112675247Y-122880237D01*
X112675247Y-122880237D02*
X112770485Y-123356427D01*
X113103819Y-122451665D02*
X112437152Y-122451665D01*
X112532390Y-122451665D02*
X112484771Y-122404046D01*
X112484771Y-122404046D02*
X112437152Y-122308808D01*
X112437152Y-122308808D02*
X112437152Y-122165951D01*
X112437152Y-122165951D02*
X112484771Y-122070713D01*
X112484771Y-122070713D02*
X112580009Y-122023094D01*
X112580009Y-122023094D02*
X113103819Y-122023094D01*
X112580009Y-122023094D02*
X112484771Y-121975475D01*
X112484771Y-121975475D02*
X112437152Y-121880237D01*
X112437152Y-121880237D02*
X112437152Y-121737380D01*
X112437152Y-121737380D02*
X112484771Y-121642141D01*
X112484771Y-121642141D02*
X112580009Y-121594522D01*
X112580009Y-121594522D02*
X113103819Y-121594522D01*
X112437152Y-121118332D02*
X113437152Y-121118332D01*
X112484771Y-121118332D02*
X112437152Y-121023094D01*
X112437152Y-121023094D02*
X112437152Y-120832618D01*
X112437152Y-120832618D02*
X112484771Y-120737380D01*
X112484771Y-120737380D02*
X112532390Y-120689761D01*
X112532390Y-120689761D02*
X112627628Y-120642142D01*
X112627628Y-120642142D02*
X112913342Y-120642142D01*
X112913342Y-120642142D02*
X113008580Y-120689761D01*
X113008580Y-120689761D02*
X113056200Y-120737380D01*
X113056200Y-120737380D02*
X113103819Y-120832618D01*
X113103819Y-120832618D02*
X113103819Y-121023094D01*
X113103819Y-121023094D02*
X113056200Y-121118332D01*
X113008580Y-120213570D02*
X113056200Y-120165951D01*
X113056200Y-120165951D02*
X113103819Y-120213570D01*
X113103819Y-120213570D02*
X113056200Y-120261189D01*
X113056200Y-120261189D02*
X113008580Y-120213570D01*
X113008580Y-120213570D02*
X113103819Y-120213570D01*
X112484771Y-120213570D02*
X112532390Y-120165951D01*
X112532390Y-120165951D02*
X112580009Y-120213570D01*
X112580009Y-120213570D02*
X112532390Y-120261189D01*
X112532390Y-120261189D02*
X112484771Y-120213570D01*
X112484771Y-120213570D02*
X112580009Y-120213570D01*
X112103819Y-118499285D02*
X112103819Y-118975475D01*
X112103819Y-118975475D02*
X112580009Y-119023094D01*
X112580009Y-119023094D02*
X112532390Y-118975475D01*
X112532390Y-118975475D02*
X112484771Y-118880237D01*
X112484771Y-118880237D02*
X112484771Y-118642142D01*
X112484771Y-118642142D02*
X112532390Y-118546904D01*
X112532390Y-118546904D02*
X112580009Y-118499285D01*
X112580009Y-118499285D02*
X112675247Y-118451666D01*
X112675247Y-118451666D02*
X112913342Y-118451666D01*
X112913342Y-118451666D02*
X113008580Y-118499285D01*
X113008580Y-118499285D02*
X113056200Y-118546904D01*
X113056200Y-118546904D02*
X113103819Y-118642142D01*
X113103819Y-118642142D02*
X113103819Y-118880237D01*
X113103819Y-118880237D02*
X113056200Y-118975475D01*
X113056200Y-118975475D02*
X113008580Y-119023094D01*
X83653333Y-105214819D02*
X83320000Y-104738628D01*
X83081905Y-105214819D02*
X83081905Y-104214819D01*
X83081905Y-104214819D02*
X83462857Y-104214819D01*
X83462857Y-104214819D02*
X83558095Y-104262438D01*
X83558095Y-104262438D02*
X83605714Y-104310057D01*
X83605714Y-104310057D02*
X83653333Y-104405295D01*
X83653333Y-104405295D02*
X83653333Y-104548152D01*
X83653333Y-104548152D02*
X83605714Y-104643390D01*
X83605714Y-104643390D02*
X83558095Y-104691009D01*
X83558095Y-104691009D02*
X83462857Y-104738628D01*
X83462857Y-104738628D02*
X83081905Y-104738628D01*
X84558095Y-104214819D02*
X84081905Y-104214819D01*
X84081905Y-104214819D02*
X84034286Y-104691009D01*
X84034286Y-104691009D02*
X84081905Y-104643390D01*
X84081905Y-104643390D02*
X84177143Y-104595771D01*
X84177143Y-104595771D02*
X84415238Y-104595771D01*
X84415238Y-104595771D02*
X84510476Y-104643390D01*
X84510476Y-104643390D02*
X84558095Y-104691009D01*
X84558095Y-104691009D02*
X84605714Y-104786247D01*
X84605714Y-104786247D02*
X84605714Y-105024342D01*
X84605714Y-105024342D02*
X84558095Y-105119580D01*
X84558095Y-105119580D02*
X84510476Y-105167200D01*
X84510476Y-105167200D02*
X84415238Y-105214819D01*
X84415238Y-105214819D02*
X84177143Y-105214819D01*
X84177143Y-105214819D02*
X84081905Y-105167200D01*
X84081905Y-105167200D02*
X84034286Y-105119580D01*
X97623333Y-105214819D02*
X97290000Y-104738628D01*
X97051905Y-105214819D02*
X97051905Y-104214819D01*
X97051905Y-104214819D02*
X97432857Y-104214819D01*
X97432857Y-104214819D02*
X97528095Y-104262438D01*
X97528095Y-104262438D02*
X97575714Y-104310057D01*
X97575714Y-104310057D02*
X97623333Y-104405295D01*
X97623333Y-104405295D02*
X97623333Y-104548152D01*
X97623333Y-104548152D02*
X97575714Y-104643390D01*
X97575714Y-104643390D02*
X97528095Y-104691009D01*
X97528095Y-104691009D02*
X97432857Y-104738628D01*
X97432857Y-104738628D02*
X97051905Y-104738628D01*
X98480476Y-104548152D02*
X98480476Y-105214819D01*
X98242381Y-104167200D02*
X98004286Y-104881485D01*
X98004286Y-104881485D02*
X98623333Y-104881485D01*
X68413333Y-119199819D02*
X68080000Y-118723628D01*
X67841905Y-119199819D02*
X67841905Y-118199819D01*
X67841905Y-118199819D02*
X68222857Y-118199819D01*
X68222857Y-118199819D02*
X68318095Y-118247438D01*
X68318095Y-118247438D02*
X68365714Y-118295057D01*
X68365714Y-118295057D02*
X68413333Y-118390295D01*
X68413333Y-118390295D02*
X68413333Y-118533152D01*
X68413333Y-118533152D02*
X68365714Y-118628390D01*
X68365714Y-118628390D02*
X68318095Y-118676009D01*
X68318095Y-118676009D02*
X68222857Y-118723628D01*
X68222857Y-118723628D02*
X67841905Y-118723628D01*
X69270476Y-118199819D02*
X69080000Y-118199819D01*
X69080000Y-118199819D02*
X68984762Y-118247438D01*
X68984762Y-118247438D02*
X68937143Y-118295057D01*
X68937143Y-118295057D02*
X68841905Y-118437914D01*
X68841905Y-118437914D02*
X68794286Y-118628390D01*
X68794286Y-118628390D02*
X68794286Y-119009342D01*
X68794286Y-119009342D02*
X68841905Y-119104580D01*
X68841905Y-119104580D02*
X68889524Y-119152200D01*
X68889524Y-119152200D02*
X68984762Y-119199819D01*
X68984762Y-119199819D02*
X69175238Y-119199819D01*
X69175238Y-119199819D02*
X69270476Y-119152200D01*
X69270476Y-119152200D02*
X69318095Y-119104580D01*
X69318095Y-119104580D02*
X69365714Y-119009342D01*
X69365714Y-119009342D02*
X69365714Y-118771247D01*
X69365714Y-118771247D02*
X69318095Y-118676009D01*
X69318095Y-118676009D02*
X69270476Y-118628390D01*
X69270476Y-118628390D02*
X69175238Y-118580771D01*
X69175238Y-118580771D02*
X68984762Y-118580771D01*
X68984762Y-118580771D02*
X68889524Y-118628390D01*
X68889524Y-118628390D02*
X68841905Y-118676009D01*
X68841905Y-118676009D02*
X68794286Y-118771247D01*
%TO.C,RP2350-Relay-6CH-W1*%
D13*
X60330000Y-109570000D02*
X60330000Y-132430000D01*
X60330000Y-132430000D02*
X113670000Y-132430000D01*
X113670000Y-109570000D02*
X60330000Y-109570000D01*
X113670000Y-109570000D02*
X113670000Y-132430000D01*
%TO.C,R8*%
D14*
X63500000Y-121570000D02*
X63500000Y-122190000D01*
X64420000Y-120650000D02*
G75*
G02*
X62580000Y-120650000I-920000J0D01*
G01*
X62580000Y-120650000D02*
G75*
G02*
X64420000Y-120650000I920000J0D01*
G01*
%TO.C,R1*%
X69500000Y-96000000D02*
X70120000Y-96000000D01*
X69500000Y-96000000D02*
G75*
G02*
X67660000Y-96000000I-920000J0D01*
G01*
X67660000Y-96000000D02*
G75*
G02*
X69500000Y-96000000I920000J0D01*
G01*
%TO.C,J1*%
X62020000Y-105700000D02*
X62020000Y-106950000D01*
X62020000Y-106950000D02*
X63270000Y-106950000D01*
X64570000Y-99050000D02*
X64570000Y-99800000D01*
X64570000Y-99800000D02*
X67520000Y-99800000D01*
X64570000Y-105900000D02*
X67520000Y-105900000D01*
X64570000Y-106650000D02*
X64570000Y-105900000D01*
X67520000Y-99800000D02*
X67520000Y-102850000D01*
X67520000Y-105900000D02*
X67520000Y-102850000D01*
X62310000Y-99040000D02*
X68280000Y-99040000D01*
X68280000Y-106660000D01*
X62310000Y-106660000D01*
X62310000Y-99040000D01*
X62320000Y-99050000D02*
X63070000Y-99050000D01*
X63070000Y-100850000D01*
X62320000Y-100850000D01*
X62320000Y-99050000D01*
X62320000Y-102350000D02*
X63070000Y-102350000D01*
X63070000Y-103350000D01*
X62320000Y-103350000D01*
X62320000Y-102350000D01*
X62320000Y-104850000D02*
X63070000Y-104850000D01*
X63070000Y-106650000D01*
X62320000Y-106650000D01*
X62320000Y-104850000D01*
%TO.C,J2*%
X102560000Y-95040000D02*
X102560000Y-96290000D01*
X102860000Y-97590000D02*
X103610000Y-97590000D01*
X103610000Y-97590000D02*
X103610000Y-100540000D01*
X103610000Y-100540000D02*
X107910000Y-100540000D01*
X103810000Y-95040000D02*
X102560000Y-95040000D01*
X112210000Y-97590000D02*
X112210000Y-100540000D01*
X112210000Y-100540000D02*
X107910000Y-100540000D01*
X112960000Y-97590000D02*
X112210000Y-97590000D01*
X102850000Y-95330000D02*
X112970000Y-95330000D01*
X112970000Y-101300000D01*
X102850000Y-101300000D01*
X102850000Y-95330000D01*
X102860000Y-95340000D02*
X104660000Y-95340000D01*
X104660000Y-96090000D01*
X102860000Y-96090000D01*
X102860000Y-95340000D01*
X106160000Y-95340000D02*
X109660000Y-95340000D01*
X109660000Y-96090000D01*
X106160000Y-96090000D01*
X106160000Y-95340000D01*
X111160000Y-95340000D02*
X112960000Y-95340000D01*
X112960000Y-96090000D01*
X111160000Y-96090000D01*
X111160000Y-95340000D01*
%TO.C,J3*%
X91170000Y-95040000D02*
X91170000Y-96290000D01*
X91470000Y-97590000D02*
X92220000Y-97590000D01*
X92220000Y-97590000D02*
X92220000Y-100540000D01*
X92220000Y-100540000D02*
X96520000Y-100540000D01*
X92420000Y-95040000D02*
X91170000Y-95040000D01*
X100820000Y-97590000D02*
X100820000Y-100540000D01*
X100820000Y-100540000D02*
X96520000Y-100540000D01*
X101570000Y-97590000D02*
X100820000Y-97590000D01*
X91460000Y-95330000D02*
X101580000Y-95330000D01*
X101580000Y-101300000D01*
X91460000Y-101300000D01*
X91460000Y-95330000D01*
X91470000Y-95340000D02*
X93270000Y-95340000D01*
X93270000Y-96090000D01*
X91470000Y-96090000D01*
X91470000Y-95340000D01*
X94770000Y-95340000D02*
X98270000Y-95340000D01*
X98270000Y-96090000D01*
X94770000Y-96090000D01*
X94770000Y-95340000D01*
X99770000Y-95340000D02*
X101570000Y-95340000D01*
X101570000Y-96090000D01*
X99770000Y-96090000D01*
X99770000Y-95340000D01*
%TO.C,U1*%
X71670000Y-101490000D02*
X71670000Y-103140000D01*
X71670000Y-105140000D02*
X71670000Y-106790000D01*
X71670000Y-106790000D02*
X79410000Y-106790000D01*
X79410000Y-101490000D02*
X71670000Y-101490000D01*
X79410000Y-106790000D02*
X79410000Y-101490000D01*
X71670000Y-103140000D02*
G75*
G02*
X71670000Y-105140000I0J-1000000D01*
G01*
%TO.C,R2*%
X74580000Y-96000000D02*
X75200000Y-96000000D01*
X74580000Y-96000000D02*
G75*
G02*
X72740000Y-96000000I-920000J0D01*
G01*
X72740000Y-96000000D02*
G75*
G02*
X74580000Y-96000000I920000J0D01*
G01*
%TO.C,J7*%
X70890000Y-117900000D02*
X70890000Y-119150000D01*
X71190000Y-120450000D02*
X71940000Y-120450000D01*
X71940000Y-120450000D02*
X71940000Y-123400000D01*
X71940000Y-123400000D02*
X76240000Y-123400000D01*
X72140000Y-117900000D02*
X70890000Y-117900000D01*
X80540000Y-120450000D02*
X80540000Y-123400000D01*
X80540000Y-123400000D02*
X76240000Y-123400000D01*
X81290000Y-120450000D02*
X80540000Y-120450000D01*
X71180000Y-118190000D02*
X81300000Y-118190000D01*
X81300000Y-124160000D01*
X71180000Y-124160000D01*
X71180000Y-118190000D01*
X71190000Y-118200000D02*
X72990000Y-118200000D01*
X72990000Y-118950000D01*
X71190000Y-118950000D01*
X71190000Y-118200000D01*
X74490000Y-118200000D02*
X77990000Y-118200000D01*
X77990000Y-118950000D01*
X74490000Y-118950000D01*
X74490000Y-118200000D01*
X79490000Y-118200000D02*
X81290000Y-118200000D01*
X81290000Y-118950000D01*
X79490000Y-118950000D01*
X79490000Y-118200000D01*
%TO.C,J4*%
X79740000Y-95040000D02*
X79740000Y-96290000D01*
X80040000Y-97590000D02*
X80790000Y-97590000D01*
X80790000Y-97590000D02*
X80790000Y-100540000D01*
X80790000Y-100540000D02*
X85090000Y-100540000D01*
X80990000Y-95040000D02*
X79740000Y-95040000D01*
X89390000Y-97590000D02*
X89390000Y-100540000D01*
X89390000Y-100540000D02*
X85090000Y-100540000D01*
X90140000Y-97590000D02*
X89390000Y-97590000D01*
X80030000Y-95330000D02*
X90150000Y-95330000D01*
X90150000Y-101300000D01*
X80030000Y-101300000D01*
X80030000Y-95330000D01*
X80040000Y-95340000D02*
X81840000Y-95340000D01*
X81840000Y-96090000D01*
X80040000Y-96090000D01*
X80040000Y-95340000D01*
X83340000Y-95340000D02*
X86840000Y-95340000D01*
X86840000Y-96090000D01*
X83340000Y-96090000D01*
X83340000Y-95340000D01*
X88340000Y-95340000D02*
X90140000Y-95340000D01*
X90140000Y-96090000D01*
X88340000Y-96090000D01*
X88340000Y-95340000D01*
%TO.C,R3*%
X108870000Y-106680000D02*
X109490000Y-106680000D01*
X108870000Y-106680000D02*
G75*
G02*
X107030000Y-106680000I-920000J0D01*
G01*
X107030000Y-106680000D02*
G75*
G02*
X108870000Y-106680000I920000J0D01*
G01*
%TO.C,R7*%
X66040000Y-121570000D02*
X66040000Y-122190000D01*
X66960000Y-120650000D02*
G75*
G02*
X65120000Y-120650000I-920000J0D01*
G01*
X65120000Y-120650000D02*
G75*
G02*
X66960000Y-120650000I920000J0D01*
G01*
%TO.C,J6*%
X86090000Y-117900000D02*
X86090000Y-119150000D01*
X86390000Y-120450000D02*
X87140000Y-120450000D01*
X87140000Y-120450000D02*
X87140000Y-123400000D01*
X87140000Y-123400000D02*
X91440000Y-123400000D01*
X87340000Y-117900000D02*
X86090000Y-117900000D01*
X95740000Y-120450000D02*
X95740000Y-123400000D01*
X95740000Y-123400000D02*
X91440000Y-123400000D01*
X96490000Y-120450000D02*
X95740000Y-120450000D01*
X86380000Y-118190000D02*
X96500000Y-118190000D01*
X96500000Y-124160000D01*
X86380000Y-124160000D01*
X86380000Y-118190000D01*
X86390000Y-118200000D02*
X88190000Y-118200000D01*
X88190000Y-118950000D01*
X86390000Y-118950000D01*
X86390000Y-118200000D01*
X89690000Y-118200000D02*
X93190000Y-118200000D01*
X93190000Y-118950000D01*
X89690000Y-118950000D01*
X89690000Y-118200000D01*
X94690000Y-118200000D02*
X96490000Y-118200000D01*
X96490000Y-118950000D01*
X94690000Y-118950000D01*
X94690000Y-118200000D01*
%TO.C,J5*%
X101370000Y-117900000D02*
X101370000Y-119150000D01*
X101670000Y-120450000D02*
X102420000Y-120450000D01*
X102420000Y-120450000D02*
X102420000Y-123400000D01*
X102420000Y-123400000D02*
X106720000Y-123400000D01*
X102620000Y-117900000D02*
X101370000Y-117900000D01*
X111020000Y-120450000D02*
X111020000Y-123400000D01*
X111020000Y-123400000D02*
X106720000Y-123400000D01*
X111770000Y-120450000D02*
X111020000Y-120450000D01*
X101660000Y-118190000D02*
X111780000Y-118190000D01*
X111780000Y-124160000D01*
X101660000Y-124160000D01*
X101660000Y-118190000D01*
X101670000Y-118200000D02*
X103470000Y-118200000D01*
X103470000Y-118950000D01*
X101670000Y-118950000D01*
X101670000Y-118200000D01*
X104970000Y-118200000D02*
X108470000Y-118200000D01*
X108470000Y-118950000D01*
X104970000Y-118950000D01*
X104970000Y-118200000D01*
X109970000Y-118200000D02*
X111770000Y-118200000D01*
X111770000Y-118950000D01*
X109970000Y-118950000D01*
X109970000Y-118200000D01*
%TO.C,R5*%
X83470000Y-106680000D02*
X84090000Y-106680000D01*
X83470000Y-106680000D02*
G75*
G02*
X81630000Y-106680000I-920000J0D01*
G01*
X81630000Y-106680000D02*
G75*
G02*
X83470000Y-106680000I920000J0D01*
G01*
%TO.C,R4*%
X97440000Y-106680000D02*
X98060000Y-106680000D01*
X97440000Y-106680000D02*
G75*
G02*
X95600000Y-106680000I-920000J0D01*
G01*
X95600000Y-106680000D02*
G75*
G02*
X97440000Y-106680000I920000J0D01*
G01*
%TO.C,R6*%
X68580000Y-121570000D02*
X68580000Y-122190000D01*
X69500000Y-120650000D02*
G75*
G02*
X67660000Y-120650000I-920000J0D01*
G01*
X67660000Y-120650000D02*
G75*
G02*
X69500000Y-120650000I920000J0D01*
G01*
%TD*%
%LPC*%
D15*
%TO.C,RP2350-Relay-6CH-W1*%
X62870000Y-129890000D03*
D16*
X65410000Y-129890000D03*
X67950000Y-129890000D03*
X70490000Y-129890000D03*
X73030000Y-129890000D03*
X75570000Y-129890000D03*
X78110000Y-129890000D03*
X80650000Y-129890000D03*
X83190000Y-129890000D03*
X85730000Y-129890000D03*
X88270000Y-129890000D03*
X90810000Y-129890000D03*
X93350000Y-129890000D03*
X95890000Y-129890000D03*
X98430000Y-129890000D03*
X100970000Y-129890000D03*
X103510000Y-129890000D03*
X106050000Y-129890000D03*
X108590000Y-129890000D03*
X111130000Y-129890000D03*
X111130000Y-112110000D03*
X108590000Y-112110000D03*
X106050000Y-112110000D03*
X103510000Y-112110000D03*
X100970000Y-112110000D03*
X98430000Y-112110000D03*
X95890000Y-112110000D03*
X93350000Y-112110000D03*
X90810000Y-112110000D03*
X88270000Y-112110000D03*
X85730000Y-112110000D03*
X83190000Y-112110000D03*
X80650000Y-112110000D03*
X78110000Y-112110000D03*
X75570000Y-112110000D03*
X73030000Y-112110000D03*
X70490000Y-112110000D03*
X67950000Y-112110000D03*
X65410000Y-112110000D03*
X62870000Y-112110000D03*
%TD*%
D17*
%TO.C,R8*%
X63500000Y-120650000D03*
X63500000Y-123190000D03*
%TD*%
%TO.C,R1*%
X68580000Y-96000000D03*
X71120000Y-96000000D03*
%TD*%
D18*
%TO.C,J1*%
X64770000Y-104100000D03*
D19*
X64770000Y-101600000D03*
%TD*%
D20*
%TO.C,J2*%
X105410000Y-97790000D03*
D21*
X107910000Y-97790000D03*
X110410000Y-97790000D03*
%TD*%
D20*
%TO.C,J3*%
X94020000Y-97790000D03*
D21*
X96520000Y-97790000D03*
X99020000Y-97790000D03*
%TD*%
D22*
%TO.C,U1*%
X73000000Y-107950000D03*
D23*
X75540000Y-107950000D03*
X78080000Y-107950000D03*
X78080000Y-100330000D03*
X75540000Y-100330000D03*
X73000000Y-100330000D03*
%TD*%
D17*
%TO.C,R2*%
X73660000Y-96000000D03*
X76200000Y-96000000D03*
%TD*%
D20*
%TO.C,J7*%
X73740000Y-120650000D03*
D21*
X76240000Y-120650000D03*
X78740000Y-120650000D03*
%TD*%
D20*
%TO.C,J4*%
X82590000Y-97790000D03*
D21*
X85090000Y-97790000D03*
X87590000Y-97790000D03*
%TD*%
D17*
%TO.C,R3*%
X107950000Y-106680000D03*
X110490000Y-106680000D03*
%TD*%
%TO.C,R7*%
X66040000Y-120650000D03*
X66040000Y-123190000D03*
%TD*%
D20*
%TO.C,J6*%
X88940000Y-120650000D03*
D21*
X91440000Y-120650000D03*
X93940000Y-120650000D03*
%TD*%
D20*
%TO.C,J5*%
X104220000Y-120650000D03*
D21*
X106720000Y-120650000D03*
X109220000Y-120650000D03*
%TD*%
D17*
%TO.C,R5*%
X82550000Y-106680000D03*
X85090000Y-106680000D03*
%TD*%
%TO.C,R4*%
X96520000Y-106680000D03*
X99060000Y-106680000D03*
%TD*%
%TO.C,R6*%
X68580000Y-120650000D03*
X68580000Y-123190000D03*
%TD*%
%LPD*%
M02*
