%TF.GenerationSoftware,KiCad,Pcbnew,10.0.0*%
%TF.CreationDate,2026-04-09T18:33:15-07:00*%
%TF.ProjectId,aircon-hat,61697263-6f6e-42d6-9861-742e6b696361,rev?*%
%TF.SameCoordinates,Original*%
%TF.FileFunction,Legend,Bot*%
%TF.FilePolarity,Positive*%
%FSLAX46Y46*%
G04 Gerber Fmt 4.6, Leading zero omitted, Abs format (unit mm)*
G04 Created by KiCad (PCBNEW 10.0.0) date 2026-04-09 18:33:15*
%MOMM*%
%LPD*%
G01*
G04 APERTURE LIST*
G04 Aperture macros list*
%AMRoundRect*
0 Rectangle with rounded corners*
0 $1 Rounding radius*
0 $2 $3 $4 $5 $6 $7 $8 $9 X,Y pos of 4 corners*
0 Add a 4 corners polygon primitive as box body*
4,1,4,$2,$3,$4,$5,$6,$7,$8,$9,$2,$3,0*
0 Add four circle primitives for the rounded corners*
1,1,$1+$1,$2,$3*
1,1,$1+$1,$4,$5*
1,1,$1+$1,$6,$7*
1,1,$1+$1,$8,$9*
0 Add four rect primitives between the rounded corners*
20,1,$1+$1,$2,$3,$4,$5,0*
20,1,$1+$1,$4,$5,$6,$7,0*
20,1,$1+$1,$6,$7,$8,$9,0*
20,1,$1+$1,$8,$9,$2,$3,0*%
G04 Aperture macros list end*
%ADD10C,0.100000*%
%ADD11R,2.540000X2.540000*%
%ADD12R,1.270000X2.540000*%
%ADD13C,1.400000*%
%ADD14RoundRect,0.250000X0.750000X-0.600000X0.750000X0.600000X-0.750000X0.600000X-0.750000X-0.600000X0*%
%ADD15O,2.000000X1.700000*%
%ADD16RoundRect,0.250000X-0.600000X-0.725000X0.600000X-0.725000X0.600000X0.725000X-0.600000X0.725000X0*%
%ADD17O,1.700000X1.950000*%
%ADD18RoundRect,0.250000X0.550000X-0.550000X0.550000X0.550000X-0.550000X0.550000X-0.550000X-0.550000X0*%
%ADD19C,1.600000*%
G04 APERTURE END LIST*
D10*
X82910401Y-115122419D02*
X82910401Y-115836704D01*
X82910401Y-115836704D02*
X82958020Y-115979561D01*
X82958020Y-115979561D02*
X83053258Y-116074800D01*
X83053258Y-116074800D02*
X83196115Y-116122419D01*
X83196115Y-116122419D02*
X83291353Y-116122419D01*
X81958020Y-116122419D02*
X82434210Y-116122419D01*
X82434210Y-116122419D02*
X82434210Y-115122419D01*
X81053258Y-116027180D02*
X81100877Y-116074800D01*
X81100877Y-116074800D02*
X81243734Y-116122419D01*
X81243734Y-116122419D02*
X81338972Y-116122419D01*
X81338972Y-116122419D02*
X81481829Y-116074800D01*
X81481829Y-116074800D02*
X81577067Y-115979561D01*
X81577067Y-115979561D02*
X81624686Y-115884323D01*
X81624686Y-115884323D02*
X81672305Y-115693847D01*
X81672305Y-115693847D02*
X81672305Y-115550990D01*
X81672305Y-115550990D02*
X81624686Y-115360514D01*
X81624686Y-115360514D02*
X81577067Y-115265276D01*
X81577067Y-115265276D02*
X81481829Y-115170038D01*
X81481829Y-115170038D02*
X81338972Y-115122419D01*
X81338972Y-115122419D02*
X81243734Y-115122419D01*
X81243734Y-115122419D02*
X81100877Y-115170038D01*
X81100877Y-115170038D02*
X81053258Y-115217657D01*
X80338972Y-115122419D02*
X80338972Y-115836704D01*
X80338972Y-115836704D02*
X80386591Y-115979561D01*
X80386591Y-115979561D02*
X80481829Y-116074800D01*
X80481829Y-116074800D02*
X80624686Y-116122419D01*
X80624686Y-116122419D02*
X80719924Y-116122419D01*
X79386591Y-116122419D02*
X79862781Y-116122419D01*
X79862781Y-116122419D02*
X79862781Y-115122419D01*
X78481829Y-116027180D02*
X78529448Y-116074800D01*
X78529448Y-116074800D02*
X78672305Y-116122419D01*
X78672305Y-116122419D02*
X78767543Y-116122419D01*
X78767543Y-116122419D02*
X78910400Y-116074800D01*
X78910400Y-116074800D02*
X79005638Y-115979561D01*
X79005638Y-115979561D02*
X79053257Y-115884323D01*
X79053257Y-115884323D02*
X79100876Y-115693847D01*
X79100876Y-115693847D02*
X79100876Y-115550990D01*
X79100876Y-115550990D02*
X79053257Y-115360514D01*
X79053257Y-115360514D02*
X79005638Y-115265276D01*
X79005638Y-115265276D02*
X78910400Y-115170038D01*
X78910400Y-115170038D02*
X78767543Y-115122419D01*
X78767543Y-115122419D02*
X78672305Y-115122419D01*
X78672305Y-115122419D02*
X78529448Y-115170038D01*
X78529448Y-115170038D02*
X78481829Y-115217657D01*
X77767543Y-115122419D02*
X77767543Y-115836704D01*
X77767543Y-115836704D02*
X77815162Y-115979561D01*
X77815162Y-115979561D02*
X77910400Y-116074800D01*
X77910400Y-116074800D02*
X78053257Y-116122419D01*
X78053257Y-116122419D02*
X78148495Y-116122419D01*
X76815162Y-116122419D02*
X77291352Y-116122419D01*
X77291352Y-116122419D02*
X77291352Y-115122419D01*
X75910400Y-116027180D02*
X75958019Y-116074800D01*
X75958019Y-116074800D02*
X76100876Y-116122419D01*
X76100876Y-116122419D02*
X76196114Y-116122419D01*
X76196114Y-116122419D02*
X76338971Y-116074800D01*
X76338971Y-116074800D02*
X76434209Y-115979561D01*
X76434209Y-115979561D02*
X76481828Y-115884323D01*
X76481828Y-115884323D02*
X76529447Y-115693847D01*
X76529447Y-115693847D02*
X76529447Y-115550990D01*
X76529447Y-115550990D02*
X76481828Y-115360514D01*
X76481828Y-115360514D02*
X76434209Y-115265276D01*
X76434209Y-115265276D02*
X76338971Y-115170038D01*
X76338971Y-115170038D02*
X76196114Y-115122419D01*
X76196114Y-115122419D02*
X76100876Y-115122419D01*
X76100876Y-115122419D02*
X75958019Y-115170038D01*
X75958019Y-115170038D02*
X75910400Y-115217657D01*
X75196114Y-115122419D02*
X75196114Y-115836704D01*
X75196114Y-115836704D02*
X75243733Y-115979561D01*
X75243733Y-115979561D02*
X75338971Y-116074800D01*
X75338971Y-116074800D02*
X75481828Y-116122419D01*
X75481828Y-116122419D02*
X75577066Y-116122419D01*
X74243733Y-116122419D02*
X74719923Y-116122419D01*
X74719923Y-116122419D02*
X74719923Y-115122419D01*
X73338971Y-116027180D02*
X73386590Y-116074800D01*
X73386590Y-116074800D02*
X73529447Y-116122419D01*
X73529447Y-116122419D02*
X73624685Y-116122419D01*
X73624685Y-116122419D02*
X73767542Y-116074800D01*
X73767542Y-116074800D02*
X73862780Y-115979561D01*
X73862780Y-115979561D02*
X73910399Y-115884323D01*
X73910399Y-115884323D02*
X73958018Y-115693847D01*
X73958018Y-115693847D02*
X73958018Y-115550990D01*
X73958018Y-115550990D02*
X73910399Y-115360514D01*
X73910399Y-115360514D02*
X73862780Y-115265276D01*
X73862780Y-115265276D02*
X73767542Y-115170038D01*
X73767542Y-115170038D02*
X73624685Y-115122419D01*
X73624685Y-115122419D02*
X73529447Y-115122419D01*
X73529447Y-115122419D02*
X73386590Y-115170038D01*
X73386590Y-115170038D02*
X73338971Y-115217657D01*
%LPC*%
D11*
%TO.C,RP2350-Relay-6CH-W1*%
X62870000Y-129890000D03*
D12*
X65410000Y-129890000D03*
X67950000Y-129890000D03*
X70490000Y-129890000D03*
X73030000Y-129890000D03*
X75570000Y-129890000D03*
X78110000Y-129890000D03*
X80650000Y-129890000D03*
X83190000Y-129890000D03*
X85730000Y-129890000D03*
X88270000Y-129890000D03*
X90810000Y-129890000D03*
X93350000Y-129890000D03*
X95890000Y-129890000D03*
X98430000Y-129890000D03*
X100970000Y-129890000D03*
X103510000Y-129890000D03*
X106050000Y-129890000D03*
X108590000Y-129890000D03*
X111130000Y-129890000D03*
X111130000Y-112110000D03*
X108590000Y-112110000D03*
X106050000Y-112110000D03*
X103510000Y-112110000D03*
X100970000Y-112110000D03*
X98430000Y-112110000D03*
X95890000Y-112110000D03*
X93350000Y-112110000D03*
X90810000Y-112110000D03*
X88270000Y-112110000D03*
X85730000Y-112110000D03*
X83190000Y-112110000D03*
X80650000Y-112110000D03*
X78110000Y-112110000D03*
X75570000Y-112110000D03*
X73030000Y-112110000D03*
X70490000Y-112110000D03*
X67950000Y-112110000D03*
X65410000Y-112110000D03*
X62870000Y-112110000D03*
%TD*%
D13*
%TO.C,R8*%
X63500000Y-120650000D03*
X63500000Y-123190000D03*
%TD*%
%TO.C,R1*%
X68580000Y-96000000D03*
X71120000Y-96000000D03*
%TD*%
D14*
%TO.C,J1*%
X64770000Y-104100000D03*
D15*
X64770000Y-101600000D03*
%TD*%
D16*
%TO.C,J2*%
X105410000Y-97790000D03*
D17*
X107910000Y-97790000D03*
X110410000Y-97790000D03*
%TD*%
D16*
%TO.C,J3*%
X94020000Y-97790000D03*
D17*
X96520000Y-97790000D03*
X99020000Y-97790000D03*
%TD*%
D18*
%TO.C,U1*%
X73000000Y-107950000D03*
D19*
X75540000Y-107950000D03*
X78080000Y-107950000D03*
X78080000Y-100330000D03*
X75540000Y-100330000D03*
X73000000Y-100330000D03*
%TD*%
D13*
%TO.C,R2*%
X73660000Y-96000000D03*
X76200000Y-96000000D03*
%TD*%
D16*
%TO.C,J7*%
X73740000Y-120650000D03*
D17*
X76240000Y-120650000D03*
X78740000Y-120650000D03*
%TD*%
D16*
%TO.C,J4*%
X82590000Y-97790000D03*
D17*
X85090000Y-97790000D03*
X87590000Y-97790000D03*
%TD*%
D13*
%TO.C,R3*%
X107950000Y-106680000D03*
X110490000Y-106680000D03*
%TD*%
%TO.C,R7*%
X66040000Y-120650000D03*
X66040000Y-123190000D03*
%TD*%
D16*
%TO.C,J6*%
X88940000Y-120650000D03*
D17*
X91440000Y-120650000D03*
X93940000Y-120650000D03*
%TD*%
D16*
%TO.C,J5*%
X104220000Y-120650000D03*
D17*
X106720000Y-120650000D03*
X109220000Y-120650000D03*
%TD*%
D13*
%TO.C,R5*%
X82550000Y-106680000D03*
X85090000Y-106680000D03*
%TD*%
%TO.C,R4*%
X96520000Y-106680000D03*
X99060000Y-106680000D03*
%TD*%
%TO.C,R6*%
X68580000Y-120650000D03*
X68580000Y-123190000D03*
%TD*%
%LPD*%
M02*
