M48
; DRILL file KiCad 10.0.0 date 2026-05-03T01:36:07
; FORMAT={-:-/ absolute / metric / decimal}
; #@! TF.CreationDate,2026-05-03T01:36:07-07:00
; #@! TF.GenerationSoftware,Kicad,Pcbnew,10.0.0
; #@! TF.FileFunction,Plated,1,2,PTH
FMAT,2
METRIC
; #@! TA.AperFunction,Plated,PTH,ViaDrill
T1C0.300
; #@! TA.AperFunction,Plated,PTH,ViaDrill
T2C0.600
; #@! TA.AperFunction,Plated,PTH,ComponentDrill
T3C0.800
; #@! TA.AperFunction,Plated,PTH,ComponentDrill
T4C0.900
; #@! TA.AperFunction,Plated,PTH,ComponentDrill
T5C1.000
; #@! TA.AperFunction,Plated,PTH,ComponentDrill
T6C1.200
; #@! TA.AperFunction,Plated,PTH,ComponentDrill
T7C3.000
; #@! TA.AperFunction,Plated,PTH,ComponentDrill
T8C3.050
%
G90
G05
T1
X58.178Y-47.921
X81.161Y-43.072
X85.117Y-43.031
X88.642Y-39.855
X106.061Y-42.283
X108.918Y-41.536
X115.0Y-38.169
X117.096Y-38.588
X132.71Y-45.135
X149.113Y-47.168
T2
X28.439Y-24.699
X154.4Y-27.8
X167.3Y-28.1
T3
X22.4Y-29.8
X27.4Y-29.8
X44.0Y-27.0
X44.0Y-34.0
X44.0Y-41.0
X44.0Y-48.0
X51.62Y-27.0
X51.62Y-34.0
X51.62Y-41.0
X51.62Y-48.0
X55.88Y-27.94
X55.88Y-33.02
X55.88Y-38.1
X55.88Y-43.18
X60.88Y-27.94
X60.88Y-33.02
X60.88Y-38.1
X60.88Y-43.18
X64.77Y-27.94
X64.77Y-33.02
X64.77Y-38.1
X64.77Y-43.18
X72.39Y-27.94
X72.39Y-33.02
X72.39Y-38.1
X72.39Y-43.18
X83.82Y-44.704
X91.44Y-44.704
X93.726Y-44.704
X101.346Y-44.704
X119.38Y-19.09
X119.38Y-21.63
X119.38Y-24.17
X119.38Y-26.71
X119.38Y-29.25
X119.38Y-31.79
X119.38Y-34.33
X119.38Y-36.87
X119.38Y-39.41
X119.38Y-41.95
X119.38Y-44.49
X119.38Y-47.03
X119.38Y-49.57
X119.38Y-52.11
X127.0Y-19.09
X127.0Y-21.63
X127.0Y-24.17
X127.0Y-26.71
X127.0Y-29.25
X127.0Y-31.79
X127.0Y-34.33
X127.0Y-36.87
X127.0Y-39.41
X127.0Y-41.95
X127.0Y-44.49
X127.0Y-47.03
X127.0Y-49.57
X127.0Y-52.11
X138.8Y-27.96
X138.8Y-30.5
X138.8Y-33.04
X138.8Y-35.58
X138.8Y-38.12
X138.8Y-40.66
X138.8Y-43.2
X138.8Y-45.74
X141.34Y-27.96
X141.34Y-30.5
X141.34Y-33.04
X141.34Y-35.58
X141.34Y-38.12
X141.34Y-40.66
X141.34Y-43.2
X141.34Y-45.74
X154.4Y-31.0
X159.4Y-31.0
X162.3Y-31.0
X167.3Y-31.0
T4
X37.025Y-25.0
X37.025Y-32.0
X37.025Y-39.0
X37.025Y-46.0
X39.565Y-25.0
X39.565Y-32.0
X39.565Y-39.0
X39.565Y-46.0
T5
X17.2Y-43.8
X17.2Y-46.8
X21.2Y-46.8
X23.5Y-37.5
X23.5Y-53.1
X24.0Y-39.52
X26.0Y-52.28
X26.5Y-37.5
X31.86Y-49.05
X32.8Y-43.8
X32.8Y-46.8
X87.02Y-33.58
X88.39Y-36.42
X89.76Y-33.58
X91.13Y-36.42
X92.5Y-33.58
X93.87Y-36.42
X95.24Y-33.58
X96.61Y-36.42
X97.98Y-33.58
T6
X158.5Y-36.0
X158.5Y-38.5
X158.5Y-53.0
X161.0Y-36.0
X161.0Y-53.0
X163.5Y-36.0
X163.5Y-38.5
X163.5Y-53.0
T7
X155.5Y-45.5
X166.5Y-45.5
T8
X80.0Y-35.0
X105.0Y-35.0
M30
