%TF.GenerationSoftware,KiCad,Pcbnew,10.0.0*%
%TF.CreationDate,2026-05-03T01:35:46-07:00*%
%TF.ProjectId,panel,70616e65-6c2e-46b6-9963-61645f706362,rev?*%
%TF.SameCoordinates,Original*%
%TF.FileFunction,Copper,L2,Bot*%
%TF.FilePolarity,Positive*%
%FSLAX46Y46*%
G04 Gerber Fmt 4.6, Leading zero omitted, Abs format (unit mm)*
G04 Created by KiCad (PCBNEW 10.0.0) date 2026-05-03 01:35:46*
%MOMM*%
%LPD*%
G01*
G04 APERTURE LIST*
G04 Aperture macros list*
%AMRoundRect*
0 Rectangle with rounded corners*
0 $1 Rounding radius*
0 $2 $3 $4 $5 $6 $7 $8 $9 X,Y pos of 4 corners*
0 Add a 4 corners polygon primitive as box body*
4,1,4,$2,$3,$4,$5,$6,$7,$8,$9,$2,$3,0*
0 Add four circle primitives for the rounded corners*
1,1,$1+$1,$2,$3*
1,1,$1+$1,$4,$5*
1,1,$1+$1,$6,$7*
1,1,$1+$1,$8,$9*
0 Add four rect primitives between the rounded corners*
20,1,$1+$1,$2,$3,$4,$5,0*
20,1,$1+$1,$4,$5,$6,$7,0*
20,1,$1+$1,$6,$7,$8,$9,0*
20,1,$1+$1,$8,$9,$2,$3,0*%
G04 Aperture macros list end*
%TA.AperFunction,ComponentPad*%
%ADD10C,2.000000*%
%TD*%
%TA.AperFunction,ComponentPad*%
%ADD11C,1.600000*%
%TD*%
%TA.AperFunction,ComponentPad*%
%ADD12C,4.575000*%
%TD*%
%TA.AperFunction,ComponentPad*%
%ADD13C,1.500000*%
%TD*%
%TA.AperFunction,ComponentPad*%
%ADD14R,1.500000X1.500000*%
%TD*%
%TA.AperFunction,ComponentPad*%
%ADD15C,1.800000*%
%TD*%
%TA.AperFunction,ComponentPad*%
%ADD16R,1.800000X1.800000*%
%TD*%
%TA.AperFunction,ComponentPad*%
%ADD17RoundRect,0.250000X-0.550000X-0.550000X0.550000X-0.550000X0.550000X0.550000X-0.550000X0.550000X0*%
%TD*%
%TA.AperFunction,ComponentPad*%
%ADD18C,4.500000*%
%TD*%
%TA.AperFunction,ViaPad*%
%ADD19C,1.200000*%
%TD*%
%TA.AperFunction,ViaPad*%
%ADD20C,0.600000*%
%TD*%
%TA.AperFunction,Conductor*%
%ADD21C,0.200000*%
%TD*%
%TA.AperFunction,Conductor*%
%ADD22C,0.400000*%
%TD*%
G04 APERTURE END LIST*
D10*
%TO.P,U3,16,CS$_16*%
%TO.N,CS*%
X141340000Y-27960000D03*
%TO.P,U3,15,RES#_15*%
%TO.N,RESET*%
X138800000Y-27960000D03*
%TO.P,U3,14,D/C#_14*%
%TO.N,DC*%
X141340000Y-30500000D03*
%TO.P,U3,13,R/W#_13*%
%TO.N,unconnected-(U3-R{slash}W#-Pad13)*%
X138800000Y-30500000D03*
%TO.P,U3,12,E/RD#_12*%
%TO.N,unconnected-(U3-E{slash}RD#-Pad12)*%
X141340000Y-33040000D03*
%TO.P,U3,11,D7_11*%
%TO.N,unconnected-(U3-D7-Pad11)*%
X138800000Y-33040000D03*
%TO.P,U3,10,D6_10*%
%TO.N,unconnected-(U3-D6-Pad10)*%
X141340000Y-35580000D03*
%TO.P,U3,9,D5_9*%
%TO.N,unconnected-(U3-D5-Pad9)*%
X138800000Y-35580000D03*
%TO.P,U3,8,D4_8*%
%TO.N,unconnected-(U3-D4-Pad8)*%
X141340000Y-38120000D03*
%TO.P,U3,7,D3_7*%
%TO.N,unconnected-(U3-D3-Pad7)*%
X138800000Y-38120000D03*
%TO.P,U3,6,D2_6*%
%TO.N,unconnected-(U3-D2-Pad6)*%
X141340000Y-40660000D03*
%TO.P,U3,5,D1/Din_5*%
%TO.N,SIN*%
X138800000Y-40660000D03*
%TO.P,U3,4,D0/Clk_4*%
%TO.N,SCLK*%
X141340000Y-43200000D03*
%TO.P,U3,3,NC_3*%
%TO.N,unconnected-(U3-NC-Pad3)*%
X138800000Y-43200000D03*
%TO.P,U3,2,Vcc_2*%
%TO.N,+3.3V*%
X141340000Y-45740000D03*
%TO.P,U3,1,Gnd_1*%
%TO.N,GND*%
X138800000Y-45740000D03*
%TD*%
D11*
%TO.P,C6,2*%
%TO.N,GND*%
X154400000Y-31000000D03*
%TO.P,C6,1*%
%TO.N,+3.3V*%
X159400000Y-31000000D03*
%TD*%
%TO.P,C7,2*%
%TO.N,GND*%
X22400000Y-29800000D03*
%TO.P,C7,1*%
%TO.N,+3.3V*%
X27400000Y-29800000D03*
%TD*%
%TO.P,C5,1*%
%TO.N,+3.3V*%
X162300000Y-31000000D03*
%TO.P,C5,2*%
%TO.N,GND*%
X167300000Y-31000000D03*
%TD*%
D12*
%TO.P,J1,MH2*%
%TO.N,N/C*%
X80000000Y-35000000D03*
%TO.P,J1,MH1*%
X105000000Y-35000000D03*
D13*
%TO.P,J1,9,9_9*%
%TO.N,+3.3V*%
X96610000Y-36420000D03*
%TO.P,J1,8,8_8*%
%TO.N,SCK*%
X93870000Y-36420000D03*
%TO.P,J1,7,7_7*%
%TO.N,SDA*%
X91130000Y-36420000D03*
%TO.P,J1,6,6_6*%
%TO.N,GND*%
X88390000Y-36420000D03*
%TO.P,J1,5,5_5*%
%TO.N,RESET*%
X97980000Y-33580000D03*
%TO.P,J1,4,4_4*%
%TO.N,DC*%
X95240000Y-33580000D03*
%TO.P,J1,3,3_3*%
%TO.N,CS*%
X92500000Y-33580000D03*
%TO.P,J1,2,2_2*%
%TO.N,SIN*%
X89760000Y-33580000D03*
D14*
%TO.P,J1,1,1_1*%
%TO.N,SCLK*%
X87020000Y-33580000D03*
%TD*%
D11*
%TO.P,R9,2*%
%TO.N,GND*%
X44000000Y-41000000D03*
%TO.P,R9,1*%
%TO.N,Net-(D3-K)*%
X51620000Y-41000000D03*
%TD*%
D15*
%TO.P,D1,2,A_2*%
%TO.N,Net-(D1-A)*%
X39565000Y-25000000D03*
D16*
%TO.P,D1,1,K_1*%
%TO.N,Net-(D1-K)*%
X37025000Y-25000000D03*
%TD*%
%TO.P,D2,1,K_1*%
%TO.N,Net-(D2-K)*%
X37025000Y-32000000D03*
D15*
%TO.P,D2,2,A_2*%
%TO.N,Net-(D2-A)*%
X39565000Y-32000000D03*
%TD*%
%TO.P,D3,2,A_2*%
%TO.N,Net-(D3-A)*%
X39565000Y-39000000D03*
D16*
%TO.P,D3,1,K_1*%
%TO.N,Net-(D3-K)*%
X37025000Y-39000000D03*
%TD*%
D15*
%TO.P,D4,2,A_2*%
%TO.N,Net-(D4-A)*%
X39565000Y-46000000D03*
D16*
%TO.P,D4,1,K_1*%
%TO.N,Net-(D4-K)*%
X37025000Y-46000000D03*
%TD*%
D13*
%TO.P,S1,1,A_1*%
%TO.N,Net-(S1-A)*%
X23500000Y-53100000D03*
%TO.P,S1,2,PUSH_2*%
%TO.N,Net-(S1-PUSH)*%
X26000000Y-52280000D03*
%TO.P,S1,3,GND_TERMINAL_3*%
%TO.N,GND*%
X31860000Y-49050000D03*
%TO.P,S1,4,B_4*%
%TO.N,Net-(S1-B)*%
X32800000Y-46800000D03*
%TO.P,S1,5,ENCODER_B_5*%
%TO.N,Net-(S1-ENCODER_B)*%
X32800000Y-43800000D03*
%TO.P,S1,6,C_6*%
%TO.N,Net-(S1-C)*%
X26500000Y-37500000D03*
%TO.P,S1,7,COM_7*%
%TO.N,GND*%
X24000000Y-39520000D03*
%TO.P,S1,8,ENCODER_COM_8*%
X23500000Y-37500000D03*
%TO.P,S1,9,D_9*%
%TO.N,Net-(S1-D)*%
X17200000Y-43800000D03*
%TO.P,S1,10,ENCODER_A_10*%
%TO.N,Net-(S1-ENCODER_A)*%
X17200000Y-46800000D03*
%TO.P,S1,11,Pos_11*%
%TO.N,unconnected-(S1-Pos-Pad11)*%
X21200000Y-46800000D03*
%TD*%
D11*
%TO.P,R2,1*%
%TO.N,Net-(U1-CCW_2)*%
X72390000Y-38100000D03*
%TO.P,R2,2*%
%TO.N,Net-(C2-Pad1)*%
X64770000Y-38100000D03*
%TD*%
%TO.P,C2,1*%
%TO.N,Net-(C2-Pad1)*%
X60880000Y-38100000D03*
%TO.P,C2,2*%
%TO.N,GND*%
X55880000Y-38100000D03*
%TD*%
%TO.P,R4,1*%
%TO.N,Net-(U1-CW_2)*%
X72390000Y-27940000D03*
%TO.P,R4,2*%
%TO.N,Net-(C4-Pad1)*%
X64770000Y-27940000D03*
%TD*%
%TO.P,R1,1*%
%TO.N,Net-(U1-CCW_1)*%
X72390000Y-43180000D03*
%TO.P,R1,2*%
%TO.N,Net-(C1-Pad1)*%
X64770000Y-43180000D03*
%TD*%
%TO.P,C3,1*%
%TO.N,Net-(C3-Pad1)*%
X60880000Y-33020000D03*
%TO.P,C3,2*%
%TO.N,GND*%
X55880000Y-33020000D03*
%TD*%
D17*
%TO.P,U2,1,GPB0_1*%
%TO.N,Net-(D4-A)*%
X119380000Y-52110000D03*
D11*
%TO.P,U2,2,GPB1_2*%
%TO.N,Net-(S1-PUSH)*%
X119380000Y-49570000D03*
%TO.P,U2,3,GPB2_3*%
%TO.N,Net-(S1-A)*%
X119380000Y-47030000D03*
%TO.P,U2,4,GPB3_4*%
%TO.N,Net-(S1-B)*%
X119380000Y-44490000D03*
%TO.P,U2,5,GPB4_5*%
%TO.N,Net-(S1-C)*%
X119380000Y-41950000D03*
%TO.P,U2,6,GPB5_6*%
%TO.N,Net-(S1-D)*%
X119380000Y-39410000D03*
%TO.P,U2,7,GPB6_7*%
%TO.N,Net-(S1-ENCODER_A)*%
X119380000Y-36870000D03*
%TO.P,U2,8,GPB7_8*%
%TO.N,Net-(S1-ENCODER_B)*%
X119380000Y-34330000D03*
%TO.P,U2,9,V_{DD}_9*%
%TO.N,+3.3V*%
X119380000Y-31790000D03*
%TO.P,U2,10,V_{SS}_10*%
%TO.N,GND*%
X119380000Y-29250000D03*
%TO.P,U2,11,NC_11*%
%TO.N,unconnected-(U2-NC-Pad11)*%
X119380000Y-26710000D03*
%TO.P,U2,12,SCK_12*%
%TO.N,SCK*%
X119380000Y-24170000D03*
%TO.P,U2,13,SDA_13*%
%TO.N,SDA*%
X119380000Y-21630000D03*
%TO.P,U2,14,NC_14*%
%TO.N,unconnected-(U2-NC-Pad14)*%
X119380000Y-19090000D03*
%TO.P,U2,15,A0_15*%
%TO.N,+3.3V*%
X127000000Y-19090000D03*
%TO.P,U2,16,A1_16*%
X127000000Y-21630000D03*
%TO.P,U2,17,A2_17*%
X127000000Y-24170000D03*
%TO.P,U2,18,~{RESET}_18*%
%TO.N,RESET*%
X127000000Y-26710000D03*
%TO.P,U2,19,INTB_19*%
%TO.N,unconnected-(U2-INTB-Pad19)*%
X127000000Y-29250000D03*
%TO.P,U2,20,INTA_20*%
%TO.N,unconnected-(U2-INTA-Pad20)*%
X127000000Y-31790000D03*
%TO.P,U2,21,GPA0_21*%
%TO.N,Net-(U1-CCW_1)*%
X127000000Y-34330000D03*
%TO.P,U2,22,GPA1_22*%
%TO.N,Net-(U1-CCW_2)*%
X127000000Y-36870000D03*
%TO.P,U2,23,GPA2_23*%
%TO.N,Net-(U1-CW_1)*%
X127000000Y-39410000D03*
%TO.P,U2,24,GPA3_24*%
%TO.N,Net-(U1-CW_2)*%
X127000000Y-41950000D03*
%TO.P,U2,25,GPA4_25*%
%TO.N,Net-(U1-W)*%
X127000000Y-44490000D03*
%TO.P,U2,26,GPA5_26*%
%TO.N,Net-(D1-A)*%
X127000000Y-47030000D03*
%TO.P,U2,27,GPA6_27*%
%TO.N,Net-(D2-A)*%
X127000000Y-49570000D03*
%TO.P,U2,28,GPA7_28*%
%TO.N,Net-(D3-A)*%
X127000000Y-52110000D03*
%TD*%
%TO.P,C4,1*%
%TO.N,Net-(C4-Pad1)*%
X60880000Y-27940000D03*
%TO.P,C4,2*%
%TO.N,GND*%
X55880000Y-27940000D03*
%TD*%
%TO.P,C1,1*%
%TO.N,Net-(C1-Pad1)*%
X60880000Y-43180000D03*
%TO.P,C1,2*%
%TO.N,GND*%
X55880000Y-43180000D03*
%TD*%
%TO.P,R7,1*%
%TO.N,Net-(D1-K)*%
X51620000Y-27000000D03*
%TO.P,R7,2*%
%TO.N,GND*%
X44000000Y-27000000D03*
%TD*%
%TO.P,R10,1*%
%TO.N,Net-(D4-K)*%
X51620000Y-48000000D03*
%TO.P,R10,2*%
%TO.N,GND*%
X44000000Y-48000000D03*
%TD*%
%TO.P,R5,1*%
%TO.N,SDA*%
X83820000Y-44704000D03*
%TO.P,R5,2*%
%TO.N,+3.3V*%
X91440000Y-44704000D03*
%TD*%
%TO.P,R8,1*%
%TO.N,Net-(D2-K)*%
X51620000Y-34000000D03*
%TO.P,R8,2*%
%TO.N,GND*%
X44000000Y-34000000D03*
%TD*%
%TO.P,R3,1*%
%TO.N,Net-(U1-CW_1)*%
X72390000Y-33020000D03*
%TO.P,R3,2*%
%TO.N,Net-(C3-Pad1)*%
X64770000Y-33020000D03*
%TD*%
%TO.P,R6,1*%
%TO.N,SCK*%
X93726000Y-44704000D03*
%TO.P,R6,2*%
%TO.N,+3.3V*%
X101346000Y-44704000D03*
%TD*%
D16*
%TO.P,U1,A1,CCW_1_A1*%
%TO.N,Net-(U1-CCW_1)*%
X158500000Y-53000000D03*
D15*
%TO.P,U1,A2,CCW_2_A2*%
%TO.N,Net-(U1-CCW_2)*%
X158500000Y-36000000D03*
%TO.P,U1,B1,CW_1_B1*%
%TO.N,Net-(U1-CW_1)*%
X163500000Y-53000000D03*
%TO.P,U1,B2,CW_2_B2*%
%TO.N,Net-(U1-CW_2)*%
X163500000Y-36000000D03*
%TO.P,U1,C1,WIPER_1_C1*%
%TO.N,GND*%
X161000000Y-53000000D03*
%TO.P,U1,C2,WIPER_2_C2*%
X161000000Y-36000000D03*
D18*
%TO.P,U1,MH1,MH1_MH1*%
%TO.N,unconnected-(U1-PadMH1)*%
X155500000Y-45500000D03*
%TO.P,U1,MH2,MH2_MH2*%
%TO.N,unconnected-(U1-PadMH2)*%
X166500000Y-45500000D03*
D15*
%TO.P,U1,S1,S_S1*%
%TO.N,GND*%
X158500000Y-38500000D03*
%TO.P,U1,W1,W_W1*%
%TO.N,Net-(U1-W)*%
X163500000Y-38500000D03*
%TD*%
D19*
%TO.N,GND*%
X167300000Y-28100000D03*
X154400000Y-27800000D03*
D20*
%TO.N,SIN*%
X88642100Y-39855400D03*
%TO.N,Net-(U1-CW_2)*%
X81161400Y-43072300D03*
X149113500Y-47167800D03*
%TO.N,Net-(U1-CW_1)*%
X85117500Y-43030800D03*
X132710000Y-45135400D03*
%TO.N,Net-(D2-A)*%
X58178200Y-47921200D03*
D19*
%TO.N,+3.3V*%
X28439400Y-24699300D03*
D20*
%TO.N,Net-(S1-ENCODER_A)*%
X106061400Y-42283300D03*
%TO.N,Net-(S1-D)*%
X117095700Y-38588500D03*
%TO.N,Net-(S1-C)*%
X115000000Y-38169400D03*
%TO.N,Net-(S1-ENCODER_B)*%
X108918100Y-41535800D03*
%TD*%
%TO.N,Net-(U1-W)*%
D21*
X127000000Y-44490000D02*
X136031000Y-53521000D01*
X160201700Y-41798300D02*
X163500000Y-38500000D01*
X136031000Y-53521000D02*
X143682100Y-53521000D01*
X143682100Y-53521000D02*
X155404800Y-41798300D01*
X155404800Y-41798300D02*
X160201700Y-41798300D01*
%TO.N,Net-(U1-CCW_1)*%
X124650000Y-44750000D02*
X125600000Y-45700000D01*
X125600000Y-45700000D02*
X127635200Y-45700000D01*
X127635200Y-45700000D02*
X135783200Y-53848000D01*
X135783200Y-53848000D02*
X156450300Y-53848000D01*
X156450300Y-53848000D02*
X157298300Y-53000000D01*
X157298300Y-53000000D02*
X158500000Y-53000000D01*
%TO.N,Net-(U1-CCW_2)*%
X145900000Y-48600000D02*
X138730000Y-48600000D01*
X127000000Y-36870000D02*
X138730000Y-48600000D01*
X158500000Y-36000000D02*
X145900000Y-48600000D01*
%TO.N,Net-(U1-CCW_1)*%
X127000000Y-34330000D02*
X124650000Y-36680000D01*
X124650000Y-36680000D02*
X124650000Y-44750000D01*
X75660000Y-46450000D02*
X108173400Y-46450000D01*
X108173400Y-46450000D02*
X109023400Y-45600000D01*
X72390000Y-43180000D02*
X75660000Y-46450000D01*
X109023400Y-45600000D02*
X123800000Y-45600000D01*
X123800000Y-45600000D02*
X124650000Y-44750000D01*
%TO.N,Net-(S1-ENCODER_A)*%
X106061400Y-42283300D02*
X109516700Y-42283300D01*
X109516700Y-42283300D02*
X114930000Y-36870000D01*
X114930000Y-36870000D02*
X119380000Y-36870000D01*
%TO.N,Net-(S1-C)*%
X115000000Y-38169400D02*
X115000000Y-39674800D01*
X115000000Y-39674800D02*
X117275200Y-41950000D01*
X117275200Y-41950000D02*
X119380000Y-41950000D01*
%TO.N,+3.3V*%
D22*
X101346000Y-44704000D02*
X100350000Y-45700000D01*
X100350000Y-45700000D02*
X98759600Y-45700000D01*
X98759600Y-45700000D02*
X96610000Y-43550400D01*
%TO.N,SDA*%
D21*
X83820000Y-44704000D02*
X84644400Y-44704000D01*
X84644400Y-44704000D02*
X84648400Y-44700000D01*
X84648400Y-44700000D02*
X87200000Y-44700000D01*
X87200000Y-44700000D02*
X91130000Y-40770000D01*
X91130000Y-40770000D02*
X91130000Y-36420000D01*
%TO.N,GND*%
D22*
X154400000Y-27800000D02*
X154400000Y-31000000D01*
%TO.N,DC*%
D21*
X142655800Y-29184200D02*
X141340000Y-30500000D01*
X142655800Y-27419400D02*
X142655800Y-29184200D01*
X141882700Y-26646300D02*
X142655800Y-27419400D01*
X137772000Y-26646300D02*
X141882700Y-26646300D01*
X129065000Y-17939300D02*
X137772000Y-26646300D01*
X110880700Y-17939300D02*
X129065000Y-17939300D01*
X95240000Y-33580000D02*
X110880700Y-17939300D01*
%TO.N,SIN*%
X89760000Y-38737500D02*
X88642100Y-39855400D01*
X89760000Y-33580000D02*
X89760000Y-38737500D01*
%TO.N,SCLK*%
X104151500Y-17500200D02*
X88071700Y-33580000D01*
X130997500Y-17500200D02*
X104151500Y-17500200D01*
X138528500Y-25031200D02*
X130997500Y-17500200D01*
X140893300Y-25031200D02*
X138528500Y-25031200D01*
X143082800Y-27220700D02*
X140893300Y-25031200D01*
X143082800Y-41457200D02*
X143082800Y-27220700D01*
X141340000Y-43200000D02*
X143082800Y-41457200D01*
X87020000Y-33580000D02*
X88071700Y-33580000D01*
%TO.N,Net-(U1-CW_2)*%
X80884300Y-43072300D02*
X81161400Y-43072300D01*
X71220200Y-33408200D02*
X80884300Y-43072300D01*
X71220200Y-29109800D02*
X71220200Y-33408200D01*
X72390000Y-27940000D02*
X71220200Y-29109800D01*
X158809400Y-40690600D02*
X163500000Y-36000000D01*
X155590700Y-40690600D02*
X158809400Y-40690600D01*
X149113500Y-47167800D02*
X155590700Y-40690600D01*
%TO.N,Net-(U1-CW_1)*%
X82400800Y-43030800D02*
X85117500Y-43030800D01*
X72390000Y-33020000D02*
X82400800Y-43030800D01*
X132710000Y-45120000D02*
X132710000Y-45135400D01*
X127000000Y-39410000D02*
X132710000Y-45120000D01*
%TO.N,Net-(D1-A)*%
X125888800Y-48141200D02*
X127000000Y-47030000D01*
X73199900Y-48141200D02*
X125888800Y-48141200D01*
X62825100Y-37766400D02*
X73199900Y-48141200D01*
X62825100Y-36597300D02*
X62825100Y-37766400D01*
X51227800Y-25000000D02*
X62825100Y-36597300D01*
X39565000Y-25000000D02*
X51227800Y-25000000D01*
%TO.N,Net-(D1-K)*%
X38226700Y-25375600D02*
X38226700Y-25000000D01*
X39052800Y-26201700D02*
X38226700Y-25375600D01*
X40279200Y-26201700D02*
X39052800Y-26201700D01*
X40583100Y-25897800D02*
X40279200Y-26201700D01*
X50517800Y-25897800D02*
X40583100Y-25897800D01*
X51620000Y-27000000D02*
X50517800Y-25897800D01*
X37025000Y-25000000D02*
X38226700Y-25000000D01*
%TO.N,Net-(D2-A)*%
X46259400Y-32000000D02*
X39565000Y-32000000D01*
X58178200Y-43918800D02*
X46259400Y-32000000D01*
X58178200Y-47921200D02*
X58178200Y-43918800D01*
%TO.N,Net-(D2-K)*%
X38226700Y-31624400D02*
X38226700Y-32000000D01*
X39052800Y-30798300D02*
X38226700Y-31624400D01*
X48418300Y-30798300D02*
X39052800Y-30798300D01*
X51620000Y-34000000D02*
X48418300Y-30798300D01*
X37025000Y-32000000D02*
X38226700Y-32000000D01*
%TO.N,SCK*%
X93870000Y-44560000D02*
X93870000Y-36420000D01*
X93726000Y-44704000D02*
X93870000Y-44560000D01*
X111175600Y-24170000D02*
X119380000Y-24170000D01*
X100116100Y-35229500D02*
X111175600Y-24170000D01*
X95060500Y-35229500D02*
X100116100Y-35229500D01*
X93870000Y-36420000D02*
X95060500Y-35229500D01*
%TO.N,+3.3V*%
D22*
X96610000Y-43550400D02*
X96610000Y-36420000D01*
X127000000Y-24170000D02*
X127000000Y-21630000D01*
X127000000Y-21630000D02*
X127000000Y-19090000D01*
X127000000Y-24170000D02*
X119380000Y-31790000D01*
X92646500Y-45910500D02*
X91440000Y-44704000D01*
X94249900Y-45910500D02*
X92646500Y-45910500D01*
X96610000Y-43550400D02*
X94249900Y-45910500D01*
X144660000Y-45740000D02*
X141340000Y-45740000D01*
X159400000Y-31000000D02*
X144660000Y-45740000D01*
X137074300Y-34244300D02*
X127000000Y-24170000D01*
X137074300Y-46031000D02*
X137074300Y-34244300D01*
X138247900Y-47204600D02*
X137074300Y-46031000D01*
X139875400Y-47204600D02*
X138247900Y-47204600D01*
X141340000Y-45740000D02*
X139875400Y-47204600D01*
X114260000Y-31790000D02*
X101346000Y-44704000D01*
X119380000Y-31790000D02*
X114260000Y-31790000D01*
X30470100Y-26729900D02*
X28439400Y-24699300D01*
X36536600Y-20663400D02*
X30470100Y-26729900D01*
X50402200Y-20663400D02*
X36536600Y-20663400D01*
X59126900Y-29388100D02*
X50402200Y-20663400D01*
X65478100Y-29388100D02*
X59126900Y-29388100D01*
X82016200Y-45926200D02*
X65478100Y-29388100D01*
X90217800Y-45926200D02*
X82016200Y-45926200D01*
X91440000Y-44704000D02*
X90217800Y-45926200D01*
X30470100Y-26729900D02*
X27400000Y-29800000D01*
%TO.N,SDA*%
D21*
X108403600Y-21630000D02*
X119380000Y-21630000D01*
X96610000Y-33423600D02*
X108403600Y-21630000D01*
X96610000Y-33725700D02*
X96610000Y-33423600D01*
X95606700Y-34729000D02*
X96610000Y-33725700D01*
X92821000Y-34729000D02*
X95606700Y-34729000D01*
X91130000Y-36420000D02*
X92821000Y-34729000D01*
%TO.N,Net-(S1-D)*%
X117917200Y-39410000D02*
X117095700Y-38588500D01*
X119380000Y-39410000D02*
X117917200Y-39410000D01*
%TO.N,Net-(S1-ENCODER_B)*%
X116123900Y-34330000D02*
X119380000Y-34330000D01*
X108918100Y-41535800D02*
X116123900Y-34330000D01*
%TO.N,Net-(D3-A)*%
X51341000Y-50776000D02*
X39565000Y-39000000D01*
X125666000Y-50776000D02*
X51341000Y-50776000D01*
X127000000Y-52110000D02*
X125666000Y-50776000D01*
%TO.N,Net-(D3-K)*%
X47956200Y-37336200D02*
X51620000Y-41000000D01*
X38688800Y-37336200D02*
X47956200Y-37336200D01*
X37025000Y-39000000D02*
X38688800Y-37336200D01*
%TO.N,Net-(D4-A)*%
X43765200Y-46000000D02*
X39565000Y-46000000D01*
X49875200Y-52110000D02*
X43765200Y-46000000D01*
X119380000Y-52110000D02*
X49875200Y-52110000D01*
%TO.N,Net-(D4-K)*%
X49442000Y-48000000D02*
X51620000Y-48000000D01*
X42898300Y-41456300D02*
X49442000Y-48000000D01*
X42898300Y-40616200D02*
X42898300Y-41456300D01*
X40069800Y-37787700D02*
X42898300Y-40616200D01*
X39073700Y-37787700D02*
X40069800Y-37787700D01*
X38226700Y-38634700D02*
X39073700Y-37787700D01*
X38226700Y-43596600D02*
X38226700Y-38634700D01*
X37025000Y-44798300D02*
X38226700Y-43596600D01*
X37025000Y-46000000D02*
X37025000Y-44798300D01*
%TO.N,GND*%
D22*
X167300000Y-28100000D02*
X167300000Y-31000000D01*
%TD*%
%TA.AperFunction,Conductor*%
%TO.N,GND*%
G36*
X169458691Y-15519407D02*
G01*
X169494655Y-15568907D01*
X169499500Y-15599500D01*
X169499500Y-54400500D01*
X169480593Y-54458691D01*
X169431093Y-54494655D01*
X169400500Y-54499500D01*
X164042192Y-54499500D01*
X163984001Y-54480593D01*
X163948037Y-54431093D01*
X163948037Y-54369907D01*
X163984001Y-54320407D01*
X164011600Y-54306345D01*
X164024427Y-54302176D01*
X164037606Y-54297895D01*
X164234022Y-54197815D01*
X164412365Y-54068242D01*
X164568242Y-53912365D01*
X164697815Y-53734022D01*
X164797895Y-53537606D01*
X164866015Y-53327951D01*
X164889592Y-53179093D01*
X164900500Y-53110225D01*
X164900500Y-52889774D01*
X164866015Y-52672051D01*
X164866015Y-52672049D01*
X164797895Y-52462394D01*
X164697815Y-52265978D01*
X164568242Y-52087635D01*
X164412365Y-51931758D01*
X164234022Y-51802185D01*
X164234021Y-51802184D01*
X164234019Y-51802183D01*
X164116802Y-51742458D01*
X164037606Y-51702105D01*
X164037602Y-51702104D01*
X164037599Y-51702102D01*
X163827948Y-51633984D01*
X163610225Y-51599500D01*
X163610222Y-51599500D01*
X163389778Y-51599500D01*
X163389775Y-51599500D01*
X163172051Y-51633984D01*
X162962400Y-51702102D01*
X162765980Y-51802183D01*
X162700854Y-51849500D01*
X162587635Y-51931758D01*
X162431758Y-52087635D01*
X162389229Y-52146172D01*
X162302183Y-52265980D01*
X162202102Y-52462400D01*
X162133984Y-52672051D01*
X162099500Y-52889774D01*
X162099500Y-53110225D01*
X162133984Y-53327948D01*
X162202102Y-53537599D01*
X162202104Y-53537602D01*
X162202105Y-53537606D01*
X162302185Y-53734022D01*
X162431758Y-53912365D01*
X162587635Y-54068242D01*
X162765978Y-54197815D01*
X162962394Y-54297895D01*
X162962399Y-54297896D01*
X162962400Y-54297897D01*
X162988400Y-54306345D01*
X163037901Y-54342309D01*
X163056808Y-54400500D01*
X163037901Y-54458691D01*
X162988401Y-54494655D01*
X162957808Y-54499500D01*
X159731782Y-54499500D01*
X159673591Y-54480593D01*
X159637627Y-54431093D01*
X159637627Y-54369907D01*
X159672453Y-54321247D01*
X159703647Y-54297895D01*
X159757546Y-54257546D01*
X159843796Y-54142331D01*
X159894091Y-54007483D01*
X159900500Y-53947873D01*
X159900499Y-52052128D01*
X159894091Y-51992517D01*
X159871430Y-51931760D01*
X159843797Y-51857670D01*
X159757549Y-51742458D01*
X159757548Y-51742457D01*
X159757546Y-51742454D01*
X159703643Y-51702102D01*
X159642329Y-51656202D01*
X159507488Y-51605910D01*
X159507483Y-51605909D01*
X159507481Y-51605908D01*
X159507477Y-51605908D01*
X159476249Y-51602550D01*
X159447873Y-51599500D01*
X159447870Y-51599500D01*
X157552133Y-51599500D01*
X157552129Y-51599500D01*
X157552128Y-51599501D01*
X157544949Y-51600272D01*
X157492519Y-51605908D01*
X157492514Y-51605909D01*
X157357670Y-51656202D01*
X157242458Y-51742450D01*
X157242450Y-51742458D01*
X157156202Y-51857670D01*
X157105910Y-51992511D01*
X157105908Y-51992522D01*
X157099500Y-52052129D01*
X157099500Y-52364221D01*
X157080593Y-52422412D01*
X157050001Y-52449957D01*
X157028462Y-52462393D01*
X157028461Y-52462393D01*
X156929584Y-52519479D01*
X156817779Y-52631283D01*
X156817780Y-52631284D01*
X156817778Y-52631286D01*
X156513660Y-52935405D01*
X156230561Y-53218504D01*
X156176044Y-53246281D01*
X156160557Y-53247500D01*
X145043843Y-53247500D01*
X144985652Y-53228593D01*
X144949688Y-53179093D01*
X144949688Y-53117907D01*
X144973839Y-53078496D01*
X152580496Y-45471838D01*
X152635013Y-45444061D01*
X152695445Y-45453632D01*
X152738710Y-45496897D01*
X152749500Y-45541842D01*
X152749500Y-45654466D01*
X152784088Y-45961450D01*
X152852832Y-46262637D01*
X152954863Y-46554225D01*
X153088905Y-46832566D01*
X153208779Y-47023344D01*
X153253265Y-47094143D01*
X153445880Y-47335674D01*
X153664326Y-47554120D01*
X153905857Y-47746735D01*
X154019568Y-47818184D01*
X154146027Y-47897644D01*
X154167435Y-47911095D01*
X154445771Y-48045135D01*
X154737364Y-48147168D01*
X155038548Y-48215911D01*
X155345535Y-48250500D01*
X155345536Y-48250500D01*
X155654464Y-48250500D01*
X155654465Y-48250500D01*
X155961452Y-48215911D01*
X156262636Y-48147168D01*
X156554229Y-48045135D01*
X156832565Y-47911095D01*
X157094143Y-47746735D01*
X157335674Y-47554120D01*
X157554120Y-47335674D01*
X157746735Y-47094143D01*
X157911095Y-46832565D01*
X158045135Y-46554229D01*
X158147168Y-46262636D01*
X158215911Y-45961452D01*
X158250500Y-45654465D01*
X158250500Y-45345535D01*
X158250500Y-45345533D01*
X163749500Y-45345533D01*
X163749500Y-45654466D01*
X163784088Y-45961450D01*
X163852832Y-46262637D01*
X163954863Y-46554225D01*
X164088905Y-46832566D01*
X164208779Y-47023344D01*
X164253265Y-47094143D01*
X164445880Y-47335674D01*
X164664326Y-47554120D01*
X164905857Y-47746735D01*
X165019568Y-47818184D01*
X165146027Y-47897644D01*
X165167435Y-47911095D01*
X165445771Y-48045135D01*
X165737364Y-48147168D01*
X166038548Y-48215911D01*
X166345535Y-48250500D01*
X166345536Y-48250500D01*
X166654464Y-48250500D01*
X166654465Y-48250500D01*
X166961452Y-48215911D01*
X167262636Y-48147168D01*
X167554229Y-48045135D01*
X167832565Y-47911095D01*
X168094143Y-47746735D01*
X168335674Y-47554120D01*
X168554120Y-47335674D01*
X168746735Y-47094143D01*
X168911095Y-46832565D01*
X169045135Y-46554229D01*
X169147168Y-46262636D01*
X169215911Y-45961452D01*
X169250500Y-45654465D01*
X169250500Y-45345535D01*
X169215911Y-45038548D01*
X169147168Y-44737364D01*
X169045135Y-44445771D01*
X168911095Y-44167435D01*
X168899503Y-44148987D01*
X168822988Y-44027213D01*
X168746735Y-43905857D01*
X168554120Y-43664326D01*
X168335674Y-43445880D01*
X168094143Y-43253265D01*
X167832566Y-43088905D01*
X167554225Y-42954863D01*
X167262637Y-42852832D01*
X166961450Y-42784088D01*
X166654466Y-42749500D01*
X166654465Y-42749500D01*
X166345535Y-42749500D01*
X166345533Y-42749500D01*
X166038549Y-42784088D01*
X165737362Y-42852832D01*
X165445774Y-42954863D01*
X165167433Y-43088905D01*
X164905856Y-43253265D01*
X164664327Y-43445879D01*
X164445879Y-43664327D01*
X164253265Y-43905856D01*
X164088905Y-44167433D01*
X163954863Y-44445774D01*
X163852832Y-44737362D01*
X163784088Y-45038549D01*
X163749500Y-45345533D01*
X158250500Y-45345533D01*
X158215911Y-45038548D01*
X158147168Y-44737364D01*
X158045135Y-44445771D01*
X157911095Y-44167435D01*
X157899503Y-44148987D01*
X157822988Y-44027213D01*
X157746735Y-43905857D01*
X157554120Y-43664326D01*
X157335674Y-43445880D01*
X157094143Y-43253265D01*
X156832566Y-43088905D01*
X156554225Y-42954863D01*
X156262637Y-42852832D01*
X155961450Y-42784088D01*
X155654466Y-42749500D01*
X155654465Y-42749500D01*
X155541841Y-42749500D01*
X155483650Y-42730593D01*
X155447686Y-42681093D01*
X155447686Y-42619907D01*
X155471838Y-42580496D01*
X155482928Y-42569407D01*
X155624539Y-42427796D01*
X155679055Y-42400019D01*
X155694542Y-42398800D01*
X160116564Y-42398800D01*
X160116580Y-42398801D01*
X160122643Y-42398801D01*
X160280755Y-42398801D01*
X160280757Y-42398801D01*
X160433485Y-42357877D01*
X160524140Y-42305537D01*
X160570416Y-42278820D01*
X160682220Y-42167016D01*
X160682221Y-42167013D01*
X162986630Y-39862603D01*
X163041145Y-39834828D01*
X163087224Y-39838454D01*
X163104318Y-39844008D01*
X163172049Y-39866015D01*
X163259140Y-39879809D01*
X163389775Y-39900500D01*
X163389778Y-39900500D01*
X163610225Y-39900500D01*
X163719086Y-39883257D01*
X163827951Y-39866015D01*
X164037606Y-39797895D01*
X164234022Y-39697815D01*
X164412365Y-39568242D01*
X164568242Y-39412365D01*
X164697815Y-39234022D01*
X164797895Y-39037606D01*
X164866015Y-38827951D01*
X164889392Y-38680355D01*
X164900500Y-38610225D01*
X164900500Y-38389774D01*
X164874145Y-38223380D01*
X164866015Y-38172049D01*
X164797895Y-37962394D01*
X164697815Y-37765978D01*
X164568242Y-37587635D01*
X164412365Y-37431758D01*
X164272431Y-37330091D01*
X164236469Y-37280593D01*
X164236469Y-37219407D01*
X164272431Y-37169908D01*
X164412365Y-37068242D01*
X164568242Y-36912365D01*
X164697815Y-36734022D01*
X164797895Y-36537606D01*
X164866015Y-36327951D01*
X164888120Y-36188386D01*
X164900500Y-36110225D01*
X164900500Y-35889774D01*
X164872029Y-35710019D01*
X164866015Y-35672049D01*
X164797895Y-35462394D01*
X164697815Y-35265978D01*
X164568242Y-35087635D01*
X164412365Y-34931758D01*
X164234022Y-34802185D01*
X164234021Y-34802184D01*
X164234019Y-34802183D01*
X164108379Y-34738166D01*
X164037606Y-34702105D01*
X164037602Y-34702104D01*
X164037599Y-34702102D01*
X163827948Y-34633984D01*
X163610225Y-34599500D01*
X163610222Y-34599500D01*
X163389778Y-34599500D01*
X163389775Y-34599500D01*
X163172051Y-34633984D01*
X162962400Y-34702102D01*
X162765980Y-34802183D01*
X162676806Y-34866971D01*
X162587635Y-34931758D01*
X162431758Y-35087635D01*
X162381674Y-35156570D01*
X162302183Y-35265980D01*
X162202102Y-35462400D01*
X162133984Y-35672051D01*
X162099500Y-35889774D01*
X162099500Y-36110225D01*
X162133984Y-36327948D01*
X162161545Y-36412773D01*
X162161545Y-36473958D01*
X162137394Y-36513369D01*
X158589661Y-40061104D01*
X158535144Y-40088881D01*
X158519657Y-40090100D01*
X155511638Y-40090100D01*
X155509997Y-40090316D01*
X155508832Y-40090100D01*
X155505154Y-40090100D01*
X155505154Y-40089418D01*
X155449837Y-40079165D01*
X155407721Y-40034781D01*
X155399736Y-39974119D01*
X155427072Y-39922161D01*
X157986630Y-37362603D01*
X158041145Y-37334828D01*
X158087224Y-37338454D01*
X158106512Y-37344721D01*
X158172049Y-37366015D01*
X158259140Y-37379809D01*
X158389775Y-37400500D01*
X158389778Y-37400500D01*
X158610225Y-37400500D01*
X158719086Y-37383257D01*
X158827951Y-37366015D01*
X159037606Y-37297895D01*
X159234022Y-37197815D01*
X159412365Y-37068242D01*
X159568242Y-36912365D01*
X159697815Y-36734022D01*
X159797895Y-36537606D01*
X159866015Y-36327951D01*
X159888120Y-36188386D01*
X159900500Y-36110225D01*
X159900500Y-35889774D01*
X159872029Y-35710019D01*
X159866015Y-35672049D01*
X159797895Y-35462394D01*
X159697815Y-35265978D01*
X159568242Y-35087635D01*
X159412365Y-34931758D01*
X159234022Y-34802185D01*
X159234021Y-34802184D01*
X159234019Y-34802183D01*
X159108379Y-34738166D01*
X159037606Y-34702105D01*
X159037602Y-34702104D01*
X159037599Y-34702102D01*
X158827948Y-34633984D01*
X158610225Y-34599500D01*
X158610222Y-34599500D01*
X158389778Y-34599500D01*
X158389775Y-34599500D01*
X158172051Y-34633984D01*
X157962400Y-34702102D01*
X157765980Y-34802183D01*
X157676806Y-34866971D01*
X157587635Y-34931758D01*
X157431758Y-35087635D01*
X157381674Y-35156570D01*
X157302183Y-35265980D01*
X157202102Y-35462400D01*
X157133984Y-35672051D01*
X157099500Y-35889774D01*
X157099500Y-36110225D01*
X157133984Y-36327948D01*
X157161545Y-36412773D01*
X157161545Y-36473958D01*
X157137394Y-36513369D01*
X145680261Y-47970504D01*
X145625744Y-47998281D01*
X145610257Y-47999500D01*
X140272974Y-47999500D01*
X140214783Y-47980593D01*
X140178819Y-47931093D01*
X140178819Y-47869907D01*
X140214783Y-47820407D01*
X140217973Y-47818184D01*
X140321943Y-47748714D01*
X140854009Y-47216646D01*
X140908526Y-47188870D01*
X140954605Y-47192496D01*
X140988632Y-47203553D01*
X140988635Y-47203553D01*
X140988637Y-47203554D01*
X140988635Y-47203554D01*
X141221905Y-47240500D01*
X141221908Y-47240500D01*
X141458095Y-47240500D01*
X141691363Y-47203554D01*
X141691364Y-47203553D01*
X141691368Y-47203553D01*
X141915992Y-47130568D01*
X142126433Y-47023343D01*
X142317510Y-46884517D01*
X142484517Y-46717510D01*
X142623343Y-46526433D01*
X142633156Y-46507174D01*
X142639587Y-46494554D01*
X142682852Y-46451290D01*
X142727796Y-46440500D01*
X144728993Y-46440500D01*
X144728994Y-46440500D01*
X144864328Y-46413580D01*
X144991811Y-46360775D01*
X145106543Y-46284114D01*
X159082860Y-32307795D01*
X159137375Y-32280020D01*
X159168347Y-32280020D01*
X159226425Y-32289219D01*
X159297645Y-32300500D01*
X159297648Y-32300500D01*
X159502355Y-32300500D01*
X159704529Y-32268478D01*
X159704530Y-32268477D01*
X159704534Y-32268477D01*
X159899219Y-32205220D01*
X160081610Y-32112287D01*
X160247219Y-31991966D01*
X160391966Y-31847219D01*
X160507900Y-31687648D01*
X160512285Y-31681613D01*
X160512287Y-31681610D01*
X160605220Y-31499219D01*
X160668477Y-31304534D01*
X160668478Y-31304529D01*
X160700500Y-31102355D01*
X160700500Y-30897644D01*
X160999500Y-30897644D01*
X160999500Y-31102355D01*
X161031521Y-31304529D01*
X161094780Y-31499219D01*
X161187712Y-31681609D01*
X161187714Y-31681613D01*
X161308029Y-31847213D01*
X161308031Y-31847215D01*
X161308034Y-31847219D01*
X161452781Y-31991966D01*
X161452784Y-31991968D01*
X161452786Y-31991970D01*
X161618386Y-32112285D01*
X161618390Y-32112287D01*
X161800781Y-32205220D01*
X161995466Y-32268477D01*
X161995467Y-32268477D01*
X161995470Y-32268478D01*
X162197645Y-32300500D01*
X162197648Y-32300500D01*
X162402355Y-32300500D01*
X162604529Y-32268478D01*
X162604530Y-32268477D01*
X162604534Y-32268477D01*
X162799219Y-32205220D01*
X162981610Y-32112287D01*
X163147219Y-31991966D01*
X163291966Y-31847219D01*
X163407900Y-31687648D01*
X163412285Y-31681613D01*
X163412287Y-31681610D01*
X163505220Y-31499219D01*
X163568477Y-31304534D01*
X163568478Y-31304529D01*
X163600500Y-31102355D01*
X163600500Y-30897644D01*
X163568478Y-30695470D01*
X163562709Y-30677714D01*
X163505220Y-30500781D01*
X163412287Y-30318390D01*
X163412285Y-30318386D01*
X163291970Y-30152786D01*
X163291968Y-30152784D01*
X163291966Y-30152781D01*
X163147219Y-30008034D01*
X163147215Y-30008031D01*
X163147213Y-30008029D01*
X162981613Y-29887714D01*
X162981609Y-29887712D01*
X162799219Y-29794780D01*
X162604529Y-29731521D01*
X162402355Y-29699500D01*
X162402352Y-29699500D01*
X162197648Y-29699500D01*
X162197645Y-29699500D01*
X161995470Y-29731521D01*
X161800780Y-29794780D01*
X161618390Y-29887712D01*
X161618386Y-29887714D01*
X161452786Y-30008029D01*
X161308029Y-30152786D01*
X161187714Y-30318386D01*
X161187712Y-30318390D01*
X161094780Y-30500780D01*
X161031521Y-30695470D01*
X160999500Y-30897644D01*
X160700500Y-30897644D01*
X160668478Y-30695470D01*
X160662709Y-30677714D01*
X160605220Y-30500781D01*
X160512287Y-30318390D01*
X160512285Y-30318386D01*
X160391970Y-30152786D01*
X160391968Y-30152784D01*
X160391966Y-30152781D01*
X160247219Y-30008034D01*
X160247215Y-30008031D01*
X160247213Y-30008029D01*
X160081613Y-29887714D01*
X160081609Y-29887712D01*
X159899219Y-29794780D01*
X159704529Y-29731521D01*
X159502355Y-29699500D01*
X159502352Y-29699500D01*
X159297648Y-29699500D01*
X159297645Y-29699500D01*
X159095470Y-29731521D01*
X158900780Y-29794780D01*
X158718390Y-29887712D01*
X158718386Y-29887714D01*
X158552786Y-30008029D01*
X158408029Y-30152786D01*
X158287714Y-30318386D01*
X158287712Y-30318390D01*
X158194780Y-30500780D01*
X158131521Y-30695470D01*
X158099500Y-30897644D01*
X158099500Y-31102355D01*
X158119978Y-31231649D01*
X158110407Y-31292081D01*
X158092201Y-31317140D01*
X144398839Y-45010504D01*
X144344322Y-45038281D01*
X144328835Y-45039500D01*
X142727796Y-45039500D01*
X142669605Y-45020593D01*
X142639587Y-44985446D01*
X142623346Y-44953572D01*
X142623345Y-44953570D01*
X142610325Y-44935650D01*
X142484517Y-44762490D01*
X142317510Y-44595483D01*
X142255033Y-44550091D01*
X142219071Y-44500593D01*
X142219071Y-44439407D01*
X142255033Y-44389908D01*
X142317510Y-44344517D01*
X142484517Y-44177510D01*
X142623343Y-43986433D01*
X142730568Y-43775992D01*
X142803553Y-43551368D01*
X142803554Y-43551363D01*
X142840500Y-43318095D01*
X142840500Y-43081904D01*
X142803553Y-42848630D01*
X142803552Y-42848626D01*
X142757815Y-42707865D01*
X142757814Y-42646680D01*
X142781963Y-42607270D01*
X143451513Y-41937721D01*
X143451516Y-41937720D01*
X143563320Y-41825916D01*
X143642377Y-41688984D01*
X143676804Y-41560500D01*
X143683300Y-41536258D01*
X143683300Y-41378143D01*
X143683300Y-27307745D01*
X143683301Y-27307732D01*
X143683301Y-27141642D01*
X143683300Y-27141640D01*
X143672773Y-27102355D01*
X143649370Y-27015013D01*
X143642378Y-26988919D01*
X143642378Y-26988918D01*
X143618771Y-26948029D01*
X143563320Y-26851984D01*
X141373821Y-24662486D01*
X141373820Y-24662484D01*
X141262016Y-24550680D01*
X141207976Y-24519480D01*
X141165555Y-24494988D01*
X141165552Y-24494987D01*
X141125088Y-24471624D01*
X141125085Y-24471623D01*
X140972357Y-24430699D01*
X140947148Y-24430699D01*
X140888957Y-24411792D01*
X140852993Y-24362292D01*
X140852993Y-24301106D01*
X140886879Y-24253158D01*
X140996661Y-24168919D01*
X141158919Y-24006661D01*
X141298611Y-23824612D01*
X141413344Y-23625888D01*
X141501158Y-23413887D01*
X141560548Y-23192238D01*
X141590500Y-22964734D01*
X141590500Y-22735266D01*
X141560548Y-22507762D01*
X141501158Y-22286113D01*
X141413344Y-22074112D01*
X141298611Y-21875388D01*
X141158919Y-21693339D01*
X140996661Y-21531081D01*
X140814612Y-21391389D01*
X140814613Y-21391389D01*
X140814611Y-21391388D01*
X140615883Y-21276653D01*
X140403885Y-21188841D01*
X140182238Y-21129452D01*
X139954734Y-21099500D01*
X139725266Y-21099500D01*
X139725265Y-21099500D01*
X139497761Y-21129452D01*
X139276114Y-21188841D01*
X139064116Y-21276653D01*
X138865388Y-21391388D01*
X138683342Y-21531078D01*
X138521078Y-21693342D01*
X138381388Y-21875388D01*
X138266653Y-22074116D01*
X138178841Y-22286114D01*
X138119452Y-22507761D01*
X138089500Y-22735265D01*
X138089500Y-22964734D01*
X138119452Y-23192238D01*
X138178841Y-23413885D01*
X138266653Y-23625883D01*
X138266656Y-23625888D01*
X138292574Y-23670780D01*
X138292595Y-23670815D01*
X138305316Y-23730664D01*
X138280429Y-23786559D01*
X138227441Y-23817152D01*
X138166591Y-23810756D01*
X138136854Y-23790319D01*
X133021245Y-18674710D01*
X164265500Y-18674710D01*
X164265500Y-18917289D01*
X164297161Y-19157781D01*
X164297161Y-19157786D01*
X164359944Y-19392092D01*
X164359948Y-19392105D01*
X164452772Y-19616204D01*
X164452774Y-19616208D01*
X164452776Y-19616212D01*
X164542495Y-19771610D01*
X164574066Y-19826292D01*
X164721729Y-20018731D01*
X164721731Y-20018733D01*
X164721735Y-20018738D01*
X164893262Y-20190265D01*
X164893266Y-20190268D01*
X164893268Y-20190270D01*
X165030042Y-20295220D01*
X165085711Y-20337936D01*
X165295788Y-20459224D01*
X165519900Y-20552054D01*
X165754211Y-20614838D01*
X165994712Y-20646500D01*
X165994713Y-20646500D01*
X166237287Y-20646500D01*
X166237288Y-20646500D01*
X166477789Y-20614838D01*
X166712100Y-20552054D01*
X166936212Y-20459224D01*
X167146289Y-20337936D01*
X167338738Y-20190265D01*
X167510265Y-20018738D01*
X167657936Y-19826289D01*
X167779224Y-19616212D01*
X167872054Y-19392100D01*
X167934838Y-19157789D01*
X167966500Y-18917288D01*
X167966500Y-18674712D01*
X167934838Y-18434211D01*
X167872054Y-18199900D01*
X167779224Y-17975788D01*
X167657936Y-17765711D01*
X167510265Y-17573262D01*
X167338738Y-17401735D01*
X167338733Y-17401731D01*
X167338731Y-17401729D01*
X167146292Y-17254066D01*
X167146289Y-17254064D01*
X166936212Y-17132776D01*
X166936208Y-17132774D01*
X166936204Y-17132772D01*
X166712105Y-17039948D01*
X166712104Y-17039947D01*
X166712100Y-17039946D01*
X166477789Y-16977162D01*
X166477786Y-16977161D01*
X166477784Y-16977161D01*
X166237289Y-16945500D01*
X166237288Y-16945500D01*
X165994712Y-16945500D01*
X165994710Y-16945500D01*
X165754218Y-16977161D01*
X165754213Y-16977161D01*
X165519907Y-17039944D01*
X165519894Y-17039948D01*
X165295795Y-17132772D01*
X165085707Y-17254066D01*
X164893268Y-17401729D01*
X164721729Y-17573268D01*
X164574066Y-17765707D01*
X164452772Y-17975795D01*
X164359948Y-18199894D01*
X164359944Y-18199907D01*
X164297161Y-18434213D01*
X164297161Y-18434218D01*
X164265500Y-18674710D01*
X133021245Y-18674710D01*
X131478021Y-17131486D01*
X131478020Y-17131484D01*
X131366216Y-17019680D01*
X131279404Y-16969560D01*
X131279403Y-16969559D01*
X131229288Y-16940625D01*
X131229285Y-16940623D01*
X131076557Y-16899699D01*
X130918443Y-16899699D01*
X130912380Y-16899699D01*
X130912364Y-16899700D01*
X104230557Y-16899700D01*
X104072442Y-16899700D01*
X103978969Y-16924745D01*
X103919710Y-16940624D01*
X103869595Y-16969559D01*
X103782784Y-17019679D01*
X103670979Y-17131483D01*
X103670980Y-17131484D01*
X103670978Y-17131486D01*
X88295011Y-32507452D01*
X88240494Y-32535229D01*
X88180062Y-32525658D01*
X88145756Y-32496779D01*
X88127546Y-32472454D01*
X88126419Y-32471610D01*
X88012329Y-32386202D01*
X87877488Y-32335910D01*
X87877483Y-32335909D01*
X87877481Y-32335908D01*
X87877477Y-32335908D01*
X87846249Y-32332550D01*
X87817873Y-32329500D01*
X87817870Y-32329500D01*
X86222133Y-32329500D01*
X86222129Y-32329500D01*
X86222128Y-32329501D01*
X86214949Y-32330272D01*
X86162519Y-32335908D01*
X86162514Y-32335909D01*
X86027670Y-32386202D01*
X85912458Y-32472450D01*
X85912450Y-32472458D01*
X85826202Y-32587670D01*
X85775910Y-32722511D01*
X85775908Y-32722522D01*
X85774672Y-32734018D01*
X85769518Y-32781966D01*
X85769500Y-32782129D01*
X85769500Y-34377866D01*
X85769501Y-34377870D01*
X85775908Y-34437480D01*
X85775909Y-34437485D01*
X85826202Y-34572329D01*
X85912450Y-34687541D01*
X85912454Y-34687546D01*
X85912457Y-34687548D01*
X85912458Y-34687549D01*
X86027670Y-34773797D01*
X86162511Y-34824089D01*
X86162512Y-34824089D01*
X86162517Y-34824091D01*
X86222127Y-34830500D01*
X87817872Y-34830499D01*
X87877483Y-34824091D01*
X87944907Y-34798943D01*
X88012329Y-34773797D01*
X88012329Y-34773796D01*
X88012331Y-34773796D01*
X88127546Y-34687546D01*
X88213796Y-34572331D01*
X88218404Y-34559978D01*
X88264089Y-34437488D01*
X88264090Y-34437485D01*
X88264091Y-34437483D01*
X88270500Y-34377873D01*
X88270499Y-34215778D01*
X88289406Y-34157588D01*
X88319997Y-34130043D01*
X88375124Y-34098216D01*
X88375124Y-34098215D01*
X88375127Y-34098215D01*
X88414807Y-34075305D01*
X88440416Y-34060520D01*
X88450688Y-34050247D01*
X88505202Y-34022469D01*
X88565634Y-34032039D01*
X88608899Y-34075301D01*
X88626372Y-34109593D01*
X88687674Y-34229907D01*
X88690476Y-34235405D01*
X88806172Y-34394646D01*
X88945354Y-34533828D01*
X89050323Y-34610093D01*
X89083207Y-34633985D01*
X89104595Y-34649524D01*
X89105437Y-34649953D01*
X89105662Y-34650178D01*
X89107909Y-34651555D01*
X89107578Y-34652094D01*
X89148705Y-34693211D01*
X89159500Y-34738166D01*
X89159500Y-38447757D01*
X89140593Y-38505948D01*
X89130504Y-38517761D01*
X88621701Y-39026563D01*
X88568020Y-39053913D01*
X88568028Y-39053951D01*
X88567895Y-39053977D01*
X88567184Y-39054340D01*
X88564046Y-39054742D01*
X88408603Y-39085663D01*
X88408601Y-39085663D01*
X88262925Y-39146003D01*
X88262914Y-39146009D01*
X88131811Y-39233611D01*
X88131807Y-39233614D01*
X88020314Y-39345107D01*
X88020311Y-39345111D01*
X87932709Y-39476214D01*
X87932703Y-39476225D01*
X87872363Y-39621901D01*
X87872363Y-39621903D01*
X87841600Y-39776555D01*
X87841600Y-39934244D01*
X87872363Y-40088896D01*
X87872363Y-40088898D01*
X87932703Y-40234574D01*
X87932709Y-40234585D01*
X87975012Y-40297895D01*
X88020311Y-40365689D01*
X88131811Y-40477189D01*
X88199302Y-40522285D01*
X88262914Y-40564790D01*
X88262925Y-40564796D01*
X88316738Y-40587085D01*
X88408603Y-40625137D01*
X88563258Y-40655900D01*
X88563259Y-40655900D01*
X88720941Y-40655900D01*
X88720942Y-40655900D01*
X88875597Y-40625137D01*
X89021279Y-40564794D01*
X89152389Y-40477189D01*
X89263889Y-40365689D01*
X89351494Y-40234579D01*
X89411837Y-40088897D01*
X89442600Y-39934242D01*
X89443549Y-39929472D01*
X89445181Y-39929796D01*
X89466917Y-39880063D01*
X89470920Y-39875814D01*
X90128713Y-39218021D01*
X90128716Y-39218020D01*
X90240520Y-39106216D01*
X90319577Y-38969284D01*
X90334873Y-38912195D01*
X90368197Y-38860882D01*
X90425319Y-38838956D01*
X90484419Y-38854792D01*
X90522925Y-38902342D01*
X90529500Y-38937820D01*
X90529500Y-40480257D01*
X90510593Y-40538448D01*
X90500504Y-40550261D01*
X86980261Y-44070504D01*
X86925744Y-44098281D01*
X86910257Y-44099500D01*
X85032244Y-44099500D01*
X84974053Y-44080593D01*
X84949046Y-44054157D01*
X84946318Y-44049927D01*
X84932287Y-44022390D01*
X84899093Y-43976702D01*
X84897600Y-43974387D01*
X84890444Y-43947341D01*
X84881798Y-43920729D01*
X84882683Y-43918004D01*
X84881951Y-43915237D01*
X84892057Y-43889154D01*
X84900706Y-43862539D01*
X84903023Y-43860855D01*
X84904058Y-43858185D01*
X84927567Y-43843022D01*
X84950206Y-43826575D01*
X84953358Y-43826389D01*
X84955477Y-43825023D01*
X84966315Y-43825625D01*
X85000114Y-43823633D01*
X85038650Y-43831299D01*
X85038656Y-43831299D01*
X85038658Y-43831300D01*
X85038659Y-43831300D01*
X85196341Y-43831300D01*
X85196342Y-43831300D01*
X85350997Y-43800537D01*
X85496679Y-43740194D01*
X85627789Y-43652589D01*
X85739289Y-43541089D01*
X85826894Y-43409979D01*
X85887237Y-43264297D01*
X85918000Y-43109642D01*
X85918000Y-42951958D01*
X85887237Y-42797303D01*
X85839102Y-42681093D01*
X85826896Y-42651625D01*
X85826890Y-42651614D01*
X85771960Y-42569407D01*
X85739289Y-42520511D01*
X85627789Y-42409011D01*
X85551262Y-42357877D01*
X85496685Y-42321409D01*
X85496674Y-42321403D01*
X85350997Y-42261063D01*
X85196344Y-42230300D01*
X85196342Y-42230300D01*
X85038658Y-42230300D01*
X85038655Y-42230300D01*
X84884003Y-42261063D01*
X84884001Y-42261063D01*
X84738325Y-42321403D01*
X84738314Y-42321409D01*
X84636573Y-42389391D01*
X84607211Y-42409011D01*
X84607209Y-42409012D01*
X84603168Y-42411713D01*
X84602248Y-42410336D01*
X84551668Y-42430129D01*
X84545848Y-42430300D01*
X82690543Y-42430300D01*
X82632352Y-42411393D01*
X82620539Y-42401304D01*
X75062664Y-34843429D01*
X77212000Y-34843429D01*
X77212000Y-35156570D01*
X77212001Y-35156587D01*
X77247058Y-35467733D01*
X77316741Y-35773037D01*
X77420163Y-36068599D01*
X77529657Y-36295966D01*
X77556032Y-36350733D01*
X77722634Y-36615878D01*
X77722636Y-36615881D01*
X77722638Y-36615884D01*
X77917864Y-36860691D01*
X77917870Y-36860697D01*
X77917874Y-36860702D01*
X78139298Y-37082126D01*
X78139302Y-37082129D01*
X78139308Y-37082135D01*
X78384115Y-37277361D01*
X78384119Y-37277363D01*
X78384122Y-37277366D01*
X78649267Y-37443968D01*
X78931397Y-37579835D01*
X78931400Y-37579836D01*
X79226962Y-37683258D01*
X79226965Y-37683258D01*
X79226966Y-37683259D01*
X79532257Y-37752939D01*
X79532266Y-37752941D01*
X79818838Y-37785229D01*
X79843429Y-37788000D01*
X79843430Y-37788000D01*
X80156570Y-37788000D01*
X80156571Y-37788000D01*
X80213910Y-37781539D01*
X80467733Y-37752941D01*
X80467740Y-37752939D01*
X80467743Y-37752939D01*
X80773034Y-37683259D01*
X81068603Y-37579835D01*
X81350733Y-37443968D01*
X81615878Y-37277366D01*
X81750628Y-37169907D01*
X81860691Y-37082135D01*
X81860692Y-37082133D01*
X81860702Y-37082126D01*
X82082126Y-36860702D01*
X82105396Y-36831523D01*
X82277361Y-36615884D01*
X82277366Y-36615878D01*
X82443968Y-36350733D01*
X82579835Y-36068603D01*
X82683259Y-35773034D01*
X82752939Y-35467743D01*
X82752939Y-35467740D01*
X82752941Y-35467733D01*
X82781539Y-35213910D01*
X82788000Y-35156571D01*
X82788000Y-34843429D01*
X82783353Y-34802183D01*
X82752941Y-34532266D01*
X82730137Y-34432355D01*
X82683259Y-34226966D01*
X82668405Y-34184517D01*
X82579836Y-33931400D01*
X82551628Y-33872826D01*
X82443968Y-33649267D01*
X82277366Y-33384122D01*
X82277363Y-33384118D01*
X82277361Y-33384115D01*
X82082135Y-33139308D01*
X82082129Y-33139302D01*
X82082126Y-33139298D01*
X81860702Y-32917874D01*
X81860697Y-32917870D01*
X81860691Y-32917864D01*
X81615884Y-32722638D01*
X81615881Y-32722636D01*
X81615682Y-32722511D01*
X81350733Y-32556032D01*
X81307535Y-32535229D01*
X81068599Y-32420163D01*
X80773037Y-32316741D01*
X80467733Y-32247058D01*
X80156587Y-32212001D01*
X80156572Y-32212000D01*
X80156571Y-32212000D01*
X79843429Y-32212000D01*
X79843428Y-32212000D01*
X79843412Y-32212001D01*
X79532266Y-32247058D01*
X79226962Y-32316741D01*
X78931400Y-32420163D01*
X78649274Y-32556028D01*
X78649269Y-32556031D01*
X78384118Y-32722636D01*
X78384115Y-32722638D01*
X78139308Y-32917864D01*
X77917864Y-33139308D01*
X77722638Y-33384115D01*
X77722636Y-33384118D01*
X77556031Y-33649269D01*
X77556028Y-33649274D01*
X77420163Y-33931400D01*
X77316741Y-34226962D01*
X77247058Y-34532266D01*
X77212001Y-34843412D01*
X77212000Y-34843429D01*
X75062664Y-34843429D01*
X73673243Y-33454008D01*
X73645466Y-33399491D01*
X73649093Y-33353412D01*
X73658477Y-33324534D01*
X73658478Y-33324529D01*
X73690500Y-33122355D01*
X73690500Y-32917644D01*
X73658478Y-32715470D01*
X73633051Y-32637213D01*
X73595220Y-32520781D01*
X73502287Y-32338390D01*
X73502285Y-32338386D01*
X73381970Y-32172786D01*
X73381968Y-32172784D01*
X73381966Y-32172781D01*
X73237219Y-32028034D01*
X73237215Y-32028031D01*
X73237213Y-32028029D01*
X73071613Y-31907714D01*
X73071609Y-31907712D01*
X72889219Y-31814780D01*
X72694529Y-31751521D01*
X72492355Y-31719500D01*
X72492352Y-31719500D01*
X72287648Y-31719500D01*
X72287645Y-31719500D01*
X72085468Y-31751522D01*
X71950292Y-31795443D01*
X71889107Y-31795442D01*
X71839607Y-31759478D01*
X71820700Y-31701288D01*
X71820700Y-29399541D01*
X71839607Y-29341350D01*
X71849685Y-29329549D01*
X71955991Y-29223242D01*
X72010506Y-29195467D01*
X72056586Y-29199094D01*
X72085465Y-29208477D01*
X72085463Y-29208477D01*
X72287645Y-29240500D01*
X72287648Y-29240500D01*
X72492355Y-29240500D01*
X72694529Y-29208478D01*
X72694530Y-29208477D01*
X72694534Y-29208477D01*
X72889219Y-29145220D01*
X73071610Y-29052287D01*
X73237219Y-28931966D01*
X73381966Y-28787219D01*
X73467887Y-28668958D01*
X73502285Y-28621613D01*
X73502287Y-28621610D01*
X73595220Y-28439219D01*
X73658477Y-28244534D01*
X73675396Y-28137713D01*
X73690500Y-28042355D01*
X73690500Y-27837644D01*
X73658478Y-27635470D01*
X73633051Y-27557213D01*
X73595220Y-27440781D01*
X73502287Y-27258390D01*
X73502285Y-27258386D01*
X73381970Y-27092786D01*
X73381968Y-27092784D01*
X73381966Y-27092781D01*
X73237219Y-26948034D01*
X73237215Y-26948031D01*
X73237213Y-26948029D01*
X73071613Y-26827714D01*
X73071609Y-26827712D01*
X72889219Y-26734780D01*
X72694529Y-26671521D01*
X72492355Y-26639500D01*
X72492352Y-26639500D01*
X72287648Y-26639500D01*
X72287645Y-26639500D01*
X72085470Y-26671521D01*
X71890780Y-26734780D01*
X71708390Y-26827712D01*
X71708386Y-26827714D01*
X71542786Y-26948029D01*
X71398029Y-27092786D01*
X71277714Y-27258386D01*
X71277712Y-27258390D01*
X71184780Y-27440780D01*
X71121521Y-27635470D01*
X71089500Y-27837644D01*
X71089500Y-28042355D01*
X71121521Y-28244529D01*
X71121523Y-28244534D01*
X71129302Y-28268477D01*
X71130906Y-28273411D01*
X71130906Y-28334596D01*
X71106755Y-28374007D01*
X70851486Y-28629277D01*
X70851486Y-28629278D01*
X70851484Y-28629280D01*
X70851483Y-28629279D01*
X70739680Y-28741083D01*
X70727942Y-28761415D01*
X70701027Y-28808034D01*
X70700201Y-28809465D01*
X70660624Y-28878012D01*
X70660623Y-28878014D01*
X70660623Y-28878015D01*
X70619699Y-29030743D01*
X70619699Y-29030745D01*
X70619699Y-29196831D01*
X70619700Y-29196844D01*
X70619700Y-33300035D01*
X70600793Y-33358226D01*
X70551293Y-33394190D01*
X70490107Y-33394190D01*
X70450696Y-33370039D01*
X68189043Y-31108386D01*
X65924643Y-28843986D01*
X65917287Y-28839071D01*
X65872978Y-28809465D01*
X65835098Y-28761415D01*
X65832696Y-28700277D01*
X65847884Y-28668961D01*
X65882287Y-28621610D01*
X65975220Y-28439219D01*
X66038477Y-28244534D01*
X66055396Y-28137713D01*
X66070500Y-28042355D01*
X66070500Y-27837644D01*
X66038478Y-27635470D01*
X66013051Y-27557213D01*
X65975220Y-27440781D01*
X65882287Y-27258390D01*
X65882285Y-27258386D01*
X65761970Y-27092786D01*
X65761968Y-27092784D01*
X65761966Y-27092781D01*
X65617219Y-26948034D01*
X65617215Y-26948031D01*
X65617213Y-26948029D01*
X65451613Y-26827714D01*
X65451609Y-26827712D01*
X65269219Y-26734780D01*
X65074529Y-26671521D01*
X64872355Y-26639500D01*
X64872352Y-26639500D01*
X64667648Y-26639500D01*
X64667645Y-26639500D01*
X64465470Y-26671521D01*
X64270780Y-26734780D01*
X64088390Y-26827712D01*
X64088386Y-26827714D01*
X63922786Y-26948029D01*
X63778029Y-27092786D01*
X63657714Y-27258386D01*
X63657712Y-27258390D01*
X63564780Y-27440780D01*
X63501521Y-27635470D01*
X63469500Y-27837644D01*
X63469500Y-28042355D01*
X63501521Y-28244529D01*
X63564780Y-28439219D01*
X63617993Y-28543655D01*
X63627564Y-28604087D01*
X63599787Y-28658603D01*
X63545270Y-28686381D01*
X63529783Y-28687600D01*
X62120217Y-28687600D01*
X62062026Y-28668693D01*
X62026062Y-28619193D01*
X62026062Y-28558007D01*
X62032007Y-28543655D01*
X62085220Y-28439219D01*
X62148477Y-28244534D01*
X62165396Y-28137713D01*
X62180500Y-28042355D01*
X62180500Y-27837644D01*
X62148478Y-27635470D01*
X62123051Y-27557213D01*
X62085220Y-27440781D01*
X61992287Y-27258390D01*
X61992285Y-27258386D01*
X61871970Y-27092786D01*
X61871968Y-27092784D01*
X61871966Y-27092781D01*
X61727219Y-26948034D01*
X61727215Y-26948031D01*
X61727213Y-26948029D01*
X61561613Y-26827714D01*
X61561609Y-26827712D01*
X61379219Y-26734780D01*
X61184529Y-26671521D01*
X60982355Y-26639500D01*
X60982352Y-26639500D01*
X60777648Y-26639500D01*
X60777645Y-26639500D01*
X60575470Y-26671521D01*
X60380780Y-26734780D01*
X60198390Y-26827712D01*
X60198386Y-26827714D01*
X60032786Y-26948029D01*
X59888029Y-27092786D01*
X59767714Y-27258386D01*
X59767712Y-27258390D01*
X59674780Y-27440780D01*
X59611521Y-27635470D01*
X59579500Y-27837644D01*
X59579500Y-28042355D01*
X59611521Y-28244529D01*
X59674780Y-28439219D01*
X59727993Y-28543655D01*
X59737564Y-28604087D01*
X59709787Y-28658603D01*
X59655270Y-28686381D01*
X59639783Y-28687600D01*
X59458065Y-28687600D01*
X59399874Y-28668693D01*
X59388061Y-28658604D01*
X55128956Y-24399499D01*
X50848743Y-20119286D01*
X50792895Y-20081970D01*
X50734008Y-20042623D01*
X50606528Y-19989820D01*
X50471196Y-19962900D01*
X50471194Y-19962900D01*
X50471193Y-19962900D01*
X36605594Y-19962900D01*
X36467606Y-19962900D01*
X36467603Y-19962900D01*
X36332272Y-19989820D01*
X36332270Y-19989820D01*
X36204791Y-20042623D01*
X36090060Y-20119283D01*
X30540088Y-25669253D01*
X30485571Y-25697030D01*
X30425139Y-25687459D01*
X30400084Y-25669255D01*
X29852540Y-25121738D01*
X29568898Y-24838110D01*
X29541119Y-24783594D01*
X29539900Y-24768105D01*
X29539900Y-24612685D01*
X29512802Y-24441597D01*
X29512801Y-24441593D01*
X29459276Y-24276861D01*
X29459274Y-24276858D01*
X29459273Y-24276857D01*
X29459273Y-24276855D01*
X29380632Y-24122512D01*
X29278814Y-23982372D01*
X29156328Y-23859886D01*
X29016188Y-23758068D01*
X29016187Y-23758067D01*
X29016185Y-23758066D01*
X28861841Y-23679425D01*
X28861838Y-23679423D01*
X28697106Y-23625898D01*
X28697102Y-23625897D01*
X28526014Y-23598800D01*
X28526011Y-23598800D01*
X28352789Y-23598800D01*
X28352786Y-23598800D01*
X28181697Y-23625897D01*
X28181693Y-23625898D01*
X28016961Y-23679423D01*
X28016958Y-23679425D01*
X27862614Y-23758066D01*
X27722473Y-23859885D01*
X27599985Y-23982373D01*
X27498166Y-24122514D01*
X27419525Y-24276858D01*
X27419523Y-24276861D01*
X27365998Y-24441593D01*
X27365997Y-24441597D01*
X27338900Y-24612685D01*
X27338900Y-24785914D01*
X27365997Y-24957002D01*
X27365998Y-24957006D01*
X27419523Y-25121738D01*
X27419525Y-25121741D01*
X27419526Y-25121744D01*
X27419527Y-25121745D01*
X27498168Y-25276088D01*
X27599986Y-25416228D01*
X27722472Y-25538714D01*
X27862612Y-25640532D01*
X28016955Y-25719173D01*
X28016957Y-25719173D01*
X28016958Y-25719174D01*
X28016961Y-25719176D01*
X28181693Y-25772701D01*
X28181697Y-25772702D01*
X28352786Y-25799800D01*
X28508268Y-25799800D01*
X28566459Y-25818707D01*
X28578267Y-25828792D01*
X28626273Y-25876796D01*
X29409423Y-26659907D01*
X29437202Y-26714423D01*
X29427632Y-26774855D01*
X29409425Y-26799916D01*
X27717140Y-28492201D01*
X27662623Y-28519978D01*
X27631649Y-28519978D01*
X27502355Y-28499500D01*
X27502352Y-28499500D01*
X27297648Y-28499500D01*
X27297645Y-28499500D01*
X27095470Y-28531521D01*
X26900780Y-28594780D01*
X26718390Y-28687712D01*
X26718386Y-28687714D01*
X26552786Y-28808029D01*
X26408029Y-28952786D01*
X26287714Y-29118386D01*
X26287712Y-29118390D01*
X26194780Y-29300780D01*
X26131521Y-29495470D01*
X26099500Y-29697644D01*
X26099500Y-29902355D01*
X26131521Y-30104529D01*
X26194780Y-30299219D01*
X26287712Y-30481609D01*
X26287714Y-30481613D01*
X26408029Y-30647213D01*
X26408031Y-30647215D01*
X26408034Y-30647219D01*
X26552781Y-30791966D01*
X26552784Y-30791968D01*
X26552786Y-30791970D01*
X26718386Y-30912285D01*
X26718390Y-30912287D01*
X26900781Y-31005220D01*
X27095466Y-31068477D01*
X27095467Y-31068477D01*
X27095470Y-31068478D01*
X27297645Y-31100500D01*
X27297648Y-31100500D01*
X27502355Y-31100500D01*
X27704529Y-31068478D01*
X27704530Y-31068477D01*
X27704534Y-31068477D01*
X27754848Y-31052129D01*
X35624500Y-31052129D01*
X35624500Y-32947866D01*
X35624501Y-32947870D01*
X35630908Y-33007480D01*
X35630909Y-33007485D01*
X35681202Y-33142329D01*
X35753020Y-33238265D01*
X35767454Y-33257546D01*
X35767457Y-33257548D01*
X35767458Y-33257549D01*
X35882670Y-33343797D01*
X36017511Y-33394089D01*
X36017512Y-33394089D01*
X36017517Y-33394091D01*
X36077127Y-33400500D01*
X37972872Y-33400499D01*
X38032483Y-33394091D01*
X38146590Y-33351532D01*
X38167329Y-33343797D01*
X38167329Y-33343796D01*
X38167331Y-33343796D01*
X38282546Y-33257546D01*
X38368796Y-33142331D01*
X38412195Y-33025969D01*
X38450245Y-32978056D01*
X38509192Y-32961658D01*
X38566519Y-32983039D01*
X38574947Y-32990554D01*
X38652635Y-33068242D01*
X38830978Y-33197815D01*
X39027394Y-33297895D01*
X39237049Y-33366015D01*
X39324140Y-33379809D01*
X39454775Y-33400500D01*
X39454778Y-33400500D01*
X39675225Y-33400500D01*
X39784086Y-33383257D01*
X39892951Y-33366015D01*
X40102606Y-33297895D01*
X40299022Y-33197815D01*
X40477365Y-33068242D01*
X40633242Y-32912365D01*
X40762815Y-32734022D01*
X40803307Y-32654554D01*
X40846571Y-32611290D01*
X40891516Y-32600500D01*
X45969657Y-32600500D01*
X46027848Y-32619407D01*
X46039661Y-32629496D01*
X57548704Y-44138539D01*
X57576481Y-44193056D01*
X57577700Y-44208543D01*
X57577700Y-47349547D01*
X57559082Y-47406847D01*
X57559113Y-47406868D01*
X57559040Y-47406976D01*
X57558793Y-47407738D01*
X57556855Y-47410246D01*
X57468809Y-47542014D01*
X57468803Y-47542025D01*
X57408463Y-47687701D01*
X57408463Y-47687703D01*
X57377700Y-47842355D01*
X57377700Y-48000044D01*
X57386670Y-48045136D01*
X57406965Y-48147168D01*
X57408463Y-48154696D01*
X57408463Y-48154698D01*
X57468803Y-48300374D01*
X57468809Y-48300385D01*
X57498584Y-48344945D01*
X57556411Y-48431489D01*
X57667911Y-48542989D01*
X57746076Y-48595217D01*
X57799014Y-48630590D01*
X57799025Y-48630596D01*
X57852838Y-48652885D01*
X57944703Y-48690937D01*
X58099358Y-48721700D01*
X58099359Y-48721700D01*
X58257041Y-48721700D01*
X58257042Y-48721700D01*
X58411697Y-48690937D01*
X58557379Y-48630594D01*
X58688489Y-48542989D01*
X58799989Y-48431489D01*
X58887594Y-48300379D01*
X58947937Y-48154697D01*
X58978700Y-48000042D01*
X58978700Y-47842358D01*
X58947937Y-47687703D01*
X58887594Y-47542021D01*
X58887593Y-47542019D01*
X58887590Y-47542014D01*
X58806804Y-47421111D01*
X58799989Y-47410911D01*
X58799987Y-47410909D01*
X58797287Y-47406868D01*
X58798659Y-47405951D01*
X58778870Y-47355346D01*
X58778700Y-47349547D01*
X58778700Y-44005845D01*
X58778701Y-44005832D01*
X58778701Y-43839742D01*
X58778700Y-43839740D01*
X58778328Y-43838353D01*
X58739671Y-43694085D01*
X58737778Y-43687019D01*
X58737778Y-43687018D01*
X58733275Y-43679219D01*
X58658720Y-43550084D01*
X58186280Y-43077644D01*
X59579500Y-43077644D01*
X59579500Y-43282355D01*
X59611521Y-43484529D01*
X59674780Y-43679219D01*
X59767712Y-43861609D01*
X59767714Y-43861613D01*
X59888029Y-44027213D01*
X59888031Y-44027215D01*
X59888034Y-44027219D01*
X60032781Y-44171966D01*
X60032784Y-44171968D01*
X60032786Y-44171970D01*
X60198386Y-44292285D01*
X60198390Y-44292287D01*
X60380781Y-44385220D01*
X60575466Y-44448477D01*
X60575467Y-44448477D01*
X60575470Y-44448478D01*
X60777645Y-44480500D01*
X60777648Y-44480500D01*
X60982355Y-44480500D01*
X61184529Y-44448478D01*
X61184530Y-44448477D01*
X61184534Y-44448477D01*
X61379219Y-44385220D01*
X61561610Y-44292287D01*
X61578488Y-44280025D01*
X61647000Y-44230248D01*
X61727219Y-44171966D01*
X61871966Y-44027219D01*
X61992287Y-43861610D01*
X62085220Y-43679219D01*
X62148477Y-43484534D01*
X62149194Y-43480010D01*
X62180500Y-43282355D01*
X62180500Y-43077644D01*
X63469500Y-43077644D01*
X63469500Y-43282355D01*
X63501521Y-43484529D01*
X63564780Y-43679219D01*
X63657712Y-43861609D01*
X63657714Y-43861613D01*
X63778029Y-44027213D01*
X63778031Y-44027215D01*
X63778034Y-44027219D01*
X63922781Y-44171966D01*
X63922784Y-44171968D01*
X63922786Y-44171970D01*
X64088386Y-44292285D01*
X64088390Y-44292287D01*
X64270781Y-44385220D01*
X64465466Y-44448477D01*
X64465467Y-44448477D01*
X64465470Y-44448478D01*
X64667645Y-44480500D01*
X64667648Y-44480500D01*
X64872355Y-44480500D01*
X65074529Y-44448478D01*
X65074530Y-44448477D01*
X65074534Y-44448477D01*
X65269219Y-44385220D01*
X65451610Y-44292287D01*
X65468488Y-44280025D01*
X65537000Y-44230248D01*
X65617219Y-44171966D01*
X65761966Y-44027219D01*
X65882287Y-43861610D01*
X65975220Y-43679219D01*
X66038477Y-43484534D01*
X66039194Y-43480010D01*
X66070500Y-43282355D01*
X66070500Y-43077644D01*
X66038478Y-42875470D01*
X66038477Y-42875466D01*
X65975220Y-42680781D01*
X65882287Y-42498390D01*
X65882285Y-42498386D01*
X65761970Y-42332786D01*
X65761968Y-42332784D01*
X65761966Y-42332781D01*
X65617219Y-42188034D01*
X65617215Y-42188031D01*
X65617213Y-42188029D01*
X65451613Y-42067714D01*
X65451609Y-42067712D01*
X65269219Y-41974780D01*
X65074529Y-41911521D01*
X64872355Y-41879500D01*
X64872352Y-41879500D01*
X64667648Y-41879500D01*
X64667645Y-41879500D01*
X64465470Y-41911521D01*
X64270780Y-41974780D01*
X64088390Y-42067712D01*
X64088386Y-42067714D01*
X63922786Y-42188029D01*
X63778029Y-42332786D01*
X63657714Y-42498386D01*
X63657712Y-42498390D01*
X63564780Y-42680780D01*
X63501521Y-42875470D01*
X63469500Y-43077644D01*
X62180500Y-43077644D01*
X62148478Y-42875470D01*
X62148477Y-42875466D01*
X62085220Y-42680781D01*
X61992287Y-42498390D01*
X61992285Y-42498386D01*
X61871970Y-42332786D01*
X61871968Y-42332784D01*
X61871966Y-42332781D01*
X61727219Y-42188034D01*
X61727215Y-42188031D01*
X61727213Y-42188029D01*
X61561613Y-42067714D01*
X61561609Y-42067712D01*
X61379219Y-41974780D01*
X61184529Y-41911521D01*
X60982355Y-41879500D01*
X60982352Y-41879500D01*
X60777648Y-41879500D01*
X60777645Y-41879500D01*
X60575470Y-41911521D01*
X60380780Y-41974780D01*
X60198390Y-42067712D01*
X60198386Y-42067714D01*
X60032786Y-42188029D01*
X59888029Y-42332786D01*
X59767714Y-42498386D01*
X59767712Y-42498390D01*
X59674780Y-42680780D01*
X59611521Y-42875470D01*
X59579500Y-43077644D01*
X58186280Y-43077644D01*
X46739921Y-31631286D01*
X46739920Y-31631284D01*
X46676437Y-31567801D01*
X46648662Y-31513287D01*
X46658233Y-31452855D01*
X46701498Y-31409590D01*
X46746443Y-31398800D01*
X48128557Y-31398800D01*
X48186748Y-31417707D01*
X48198561Y-31427796D01*
X50336755Y-33565991D01*
X50364532Y-33620508D01*
X50360906Y-33666587D01*
X50351522Y-33695468D01*
X50319500Y-33897644D01*
X50319500Y-34102355D01*
X50351521Y-34304529D01*
X50414780Y-34499219D01*
X50507712Y-34681609D01*
X50507714Y-34681613D01*
X50628029Y-34847213D01*
X50628031Y-34847215D01*
X50628034Y-34847219D01*
X50772781Y-34991966D01*
X50772784Y-34991968D01*
X50772786Y-34991970D01*
X50938386Y-35112285D01*
X50938390Y-35112287D01*
X51120781Y-35205220D01*
X51315466Y-35268477D01*
X51315467Y-35268477D01*
X51315470Y-35268478D01*
X51517645Y-35300500D01*
X51517648Y-35300500D01*
X51722355Y-35300500D01*
X51924529Y-35268478D01*
X51924530Y-35268477D01*
X51924534Y-35268477D01*
X52119219Y-35205220D01*
X52301610Y-35112287D01*
X52467219Y-34991966D01*
X52611966Y-34847219D01*
X52718252Y-34700928D01*
X52732285Y-34681613D01*
X52732287Y-34681610D01*
X52825220Y-34499219D01*
X52888477Y-34304534D01*
X52899427Y-34235402D01*
X52920500Y-34102355D01*
X52920500Y-33897644D01*
X52888478Y-33695470D01*
X52882937Y-33678417D01*
X52825220Y-33500781D01*
X52732287Y-33318390D01*
X52732285Y-33318386D01*
X52611970Y-33152786D01*
X52611968Y-33152784D01*
X52611966Y-33152781D01*
X52467219Y-33008034D01*
X52467215Y-33008031D01*
X52467213Y-33008029D01*
X52301613Y-32887714D01*
X52301609Y-32887712D01*
X52119219Y-32794780D01*
X51924529Y-32731521D01*
X51722355Y-32699500D01*
X51722352Y-32699500D01*
X51517648Y-32699500D01*
X51517645Y-32699500D01*
X51315468Y-32731522D01*
X51286587Y-32740906D01*
X51225402Y-32740905D01*
X51185991Y-32716755D01*
X48898821Y-30429586D01*
X48898820Y-30429584D01*
X48787016Y-30317780D01*
X48787013Y-30317778D01*
X48663630Y-30246542D01*
X48663630Y-30246543D01*
X48650087Y-30238724D01*
X48650084Y-30238722D01*
X48538280Y-30208764D01*
X48497357Y-30197799D01*
X48339243Y-30197799D01*
X48333180Y-30197799D01*
X48333164Y-30197800D01*
X39137936Y-30197800D01*
X39137920Y-30197799D01*
X39131857Y-30197799D01*
X38973743Y-30197799D01*
X38941468Y-30206447D01*
X38821015Y-30238722D01*
X38821012Y-30238724D01*
X38807470Y-30246543D01*
X38807469Y-30246542D01*
X38684084Y-30317779D01*
X38572279Y-30429583D01*
X38572280Y-30429584D01*
X38572278Y-30429586D01*
X38572277Y-30429586D01*
X38329972Y-30671890D01*
X38275456Y-30699667D01*
X38215024Y-30690096D01*
X38200640Y-30681139D01*
X38167329Y-30656202D01*
X38032488Y-30605910D01*
X38032483Y-30605909D01*
X38032481Y-30605908D01*
X38032477Y-30605908D01*
X38001249Y-30602550D01*
X37972873Y-30599500D01*
X37972870Y-30599500D01*
X36077133Y-30599500D01*
X36077129Y-30599500D01*
X36077128Y-30599501D01*
X36069949Y-30600272D01*
X36017519Y-30605908D01*
X36017514Y-30605909D01*
X35882670Y-30656202D01*
X35767458Y-30742450D01*
X35767450Y-30742458D01*
X35681202Y-30857670D01*
X35630910Y-30992511D01*
X35630909Y-30992517D01*
X35624870Y-31048691D01*
X35624500Y-31052129D01*
X27754848Y-31052129D01*
X27899219Y-31005220D01*
X28081610Y-30912287D01*
X28247219Y-30791966D01*
X28391966Y-30647219D01*
X28512287Y-30481610D01*
X28605220Y-30299219D01*
X28668477Y-30104534D01*
X28683628Y-30008875D01*
X28700500Y-29902355D01*
X28700500Y-29697645D01*
X28680020Y-29568350D01*
X28689591Y-29507918D01*
X28707794Y-29482861D01*
X30916649Y-27274007D01*
X30916656Y-27274003D01*
X30965440Y-27225216D01*
X31014214Y-27176443D01*
X36797761Y-21392896D01*
X36852278Y-21365119D01*
X36867765Y-21363900D01*
X43611513Y-21363900D01*
X43669704Y-21382807D01*
X43705668Y-21432307D01*
X43705668Y-21493493D01*
X43681518Y-21532901D01*
X43521081Y-21693339D01*
X43521078Y-21693342D01*
X43381388Y-21875388D01*
X43266653Y-22074116D01*
X43178841Y-22286114D01*
X43119452Y-22507761D01*
X43089500Y-22735265D01*
X43089500Y-22964734D01*
X43119452Y-23192238D01*
X43178841Y-23413885D01*
X43266653Y-23625883D01*
X43381388Y-23824611D01*
X43463607Y-23931760D01*
X43521081Y-24006661D01*
X43683339Y-24168919D01*
X43683342Y-24168921D01*
X43683345Y-24168924D01*
X43752460Y-24221958D01*
X43787116Y-24272383D01*
X43785515Y-24333547D01*
X43748267Y-24382089D01*
X43692193Y-24399500D01*
X40891516Y-24399500D01*
X40833325Y-24380593D01*
X40803307Y-24345446D01*
X40762818Y-24265983D01*
X40762817Y-24265981D01*
X40753500Y-24253157D01*
X40633242Y-24087635D01*
X40477365Y-23931758D01*
X40299022Y-23802185D01*
X40299021Y-23802184D01*
X40299019Y-23802183D01*
X40181802Y-23742458D01*
X40102606Y-23702105D01*
X40102602Y-23702104D01*
X40102599Y-23702102D01*
X39892948Y-23633984D01*
X39675225Y-23599500D01*
X39675222Y-23599500D01*
X39454778Y-23599500D01*
X39454775Y-23599500D01*
X39237051Y-23633984D01*
X39027400Y-23702102D01*
X38830980Y-23802183D01*
X38754610Y-23857669D01*
X38652635Y-23931758D01*
X38652633Y-23931759D01*
X38652630Y-23931762D01*
X38574956Y-24009436D01*
X38520439Y-24037213D01*
X38460007Y-24027641D01*
X38416743Y-23984377D01*
X38412195Y-23974028D01*
X38368797Y-23857670D01*
X38282549Y-23742458D01*
X38282548Y-23742457D01*
X38282546Y-23742454D01*
X38198353Y-23679427D01*
X38167329Y-23656202D01*
X38032488Y-23605910D01*
X38032483Y-23605909D01*
X38032481Y-23605908D01*
X38032477Y-23605908D01*
X38001249Y-23602550D01*
X37972873Y-23599500D01*
X37972870Y-23599500D01*
X36077133Y-23599500D01*
X36077129Y-23599500D01*
X36077128Y-23599501D01*
X36069949Y-23600272D01*
X36017519Y-23605908D01*
X36017514Y-23605909D01*
X35882670Y-23656202D01*
X35767458Y-23742450D01*
X35767450Y-23742458D01*
X35681202Y-23857670D01*
X35630910Y-23992511D01*
X35630908Y-23992522D01*
X35629388Y-24006661D01*
X35626104Y-24037213D01*
X35624500Y-24052129D01*
X35624500Y-25947866D01*
X35624501Y-25947870D01*
X35630908Y-26007480D01*
X35630909Y-26007485D01*
X35681202Y-26142329D01*
X35767450Y-26257541D01*
X35767454Y-26257546D01*
X35767457Y-26257548D01*
X35767458Y-26257549D01*
X35882670Y-26343797D01*
X36017511Y-26394089D01*
X36017512Y-26394089D01*
X36017517Y-26394091D01*
X36077127Y-26400500D01*
X37972872Y-26400499D01*
X38032483Y-26394091D01*
X38099907Y-26368943D01*
X38167329Y-26343797D01*
X38167329Y-26343796D01*
X38167331Y-26343796D01*
X38200640Y-26318860D01*
X38258552Y-26299122D01*
X38317007Y-26317195D01*
X38329973Y-26328108D01*
X38572278Y-26570413D01*
X38572280Y-26570416D01*
X38684084Y-26682220D01*
X38684086Y-26682221D01*
X38758789Y-26725351D01*
X38758793Y-26725353D01*
X38758800Y-26725357D01*
X38799304Y-26748742D01*
X38821011Y-26761275D01*
X38821012Y-26761275D01*
X38821015Y-26761277D01*
X38973743Y-26802201D01*
X38973745Y-26802201D01*
X39137920Y-26802201D01*
X39137936Y-26802200D01*
X40194064Y-26802200D01*
X40194080Y-26802201D01*
X40200143Y-26802201D01*
X40358255Y-26802201D01*
X40358257Y-26802201D01*
X40510985Y-26761277D01*
X40573200Y-26725357D01*
X40573202Y-26725355D01*
X40573204Y-26725355D01*
X40616834Y-26700165D01*
X40647916Y-26682220D01*
X40759720Y-26570416D01*
X40759720Y-26570414D01*
X40773644Y-26556491D01*
X40773645Y-26556488D01*
X40802841Y-26527294D01*
X40857358Y-26499518D01*
X40872842Y-26498300D01*
X50228057Y-26498300D01*
X50286248Y-26517207D01*
X50298061Y-26527296D01*
X50336755Y-26565990D01*
X50364532Y-26620507D01*
X50360906Y-26666585D01*
X50351522Y-26695466D01*
X50319500Y-26897644D01*
X50319500Y-27102355D01*
X50351521Y-27304529D01*
X50414780Y-27499219D01*
X50507712Y-27681609D01*
X50507714Y-27681613D01*
X50628029Y-27847213D01*
X50628031Y-27847215D01*
X50628034Y-27847219D01*
X50772781Y-27991966D01*
X50772784Y-27991968D01*
X50772786Y-27991970D01*
X50938386Y-28112285D01*
X50938390Y-28112287D01*
X51120781Y-28205220D01*
X51315466Y-28268477D01*
X51315467Y-28268477D01*
X51315470Y-28268478D01*
X51517645Y-28300500D01*
X51517648Y-28300500D01*
X51722355Y-28300500D01*
X51924529Y-28268478D01*
X51924530Y-28268477D01*
X51924534Y-28268477D01*
X52119219Y-28205220D01*
X52301610Y-28112287D01*
X52467219Y-27991966D01*
X52611966Y-27847219D01*
X52732287Y-27681610D01*
X52781101Y-27585806D01*
X52824365Y-27542544D01*
X52884797Y-27532972D01*
X52939313Y-27560749D01*
X52939314Y-27560749D01*
X62195604Y-36817039D01*
X62223381Y-36871556D01*
X62224600Y-36887043D01*
X62224600Y-37461964D01*
X62205693Y-37520155D01*
X62156193Y-37556119D01*
X62095007Y-37556119D01*
X62045507Y-37520155D01*
X62037390Y-37506909D01*
X61992287Y-37418390D01*
X61992285Y-37418386D01*
X61871970Y-37252786D01*
X61871968Y-37252784D01*
X61871966Y-37252781D01*
X61727219Y-37108034D01*
X61727215Y-37108031D01*
X61727213Y-37108029D01*
X61561613Y-36987714D01*
X61561609Y-36987712D01*
X61379219Y-36894780D01*
X61184529Y-36831521D01*
X60982355Y-36799500D01*
X60982352Y-36799500D01*
X60777648Y-36799500D01*
X60777645Y-36799500D01*
X60575470Y-36831521D01*
X60380780Y-36894780D01*
X60198390Y-36987712D01*
X60198386Y-36987714D01*
X60032786Y-37108029D01*
X59888029Y-37252786D01*
X59767714Y-37418386D01*
X59767712Y-37418390D01*
X59674780Y-37600780D01*
X59611521Y-37795470D01*
X59579500Y-37997644D01*
X59579500Y-38202355D01*
X59611521Y-38404529D01*
X59674780Y-38599219D01*
X59767712Y-38781609D01*
X59767714Y-38781613D01*
X59888029Y-38947213D01*
X59888031Y-38947215D01*
X59888034Y-38947219D01*
X60032781Y-39091966D01*
X60032784Y-39091968D01*
X60032786Y-39091970D01*
X60198386Y-39212285D01*
X60198390Y-39212287D01*
X60380781Y-39305220D01*
X60575466Y-39368477D01*
X60575467Y-39368477D01*
X60575470Y-39368478D01*
X60777645Y-39400500D01*
X60777648Y-39400500D01*
X60982355Y-39400500D01*
X61184529Y-39368478D01*
X61184530Y-39368477D01*
X61184534Y-39368477D01*
X61379219Y-39305220D01*
X61561610Y-39212287D01*
X61564362Y-39210288D01*
X61629728Y-39162797D01*
X61727219Y-39091966D01*
X61871966Y-38947219D01*
X61992287Y-38781610D01*
X62085220Y-38599219D01*
X62148477Y-38404534D01*
X62148737Y-38402896D01*
X62173231Y-38248244D01*
X62180500Y-38202352D01*
X62180500Y-38202331D01*
X62180525Y-38202022D01*
X62180569Y-38201913D01*
X62181109Y-38198510D01*
X62181925Y-38198639D01*
X62203926Y-38145488D01*
X62256087Y-38113506D01*
X62317085Y-38118291D01*
X62349222Y-38139758D01*
X62456384Y-38246920D01*
X62456386Y-38246921D01*
X72719378Y-48509913D01*
X72719380Y-48509916D01*
X72831184Y-48621720D01*
X72846554Y-48630594D01*
X72913931Y-48669494D01*
X72913935Y-48669496D01*
X72913942Y-48669500D01*
X72968115Y-48700777D01*
X73120843Y-48741701D01*
X73120845Y-48741701D01*
X73285020Y-48741701D01*
X73285036Y-48741700D01*
X118180902Y-48741700D01*
X118239093Y-48760607D01*
X118275057Y-48810107D01*
X118275057Y-48871293D01*
X118269112Y-48885645D01*
X118174780Y-49070780D01*
X118111521Y-49265470D01*
X118079500Y-49467644D01*
X118079500Y-49672355D01*
X118111521Y-49874529D01*
X118134634Y-49945662D01*
X118167206Y-50045908D01*
X118167206Y-50107093D01*
X118131242Y-50156593D01*
X118073051Y-50175500D01*
X51630743Y-50175500D01*
X51572552Y-50156593D01*
X51560739Y-50146504D01*
X50183739Y-48769504D01*
X50155962Y-48714987D01*
X50165533Y-48654555D01*
X50208798Y-48611290D01*
X50253743Y-48600500D01*
X50405718Y-48600500D01*
X50463909Y-48619407D01*
X50493928Y-48654555D01*
X50507712Y-48681609D01*
X50507714Y-48681613D01*
X50628029Y-48847213D01*
X50628031Y-48847215D01*
X50628034Y-48847219D01*
X50772781Y-48991966D01*
X50772784Y-48991968D01*
X50772786Y-48991970D01*
X50938386Y-49112285D01*
X50938390Y-49112287D01*
X51120781Y-49205220D01*
X51315466Y-49268477D01*
X51315467Y-49268477D01*
X51315470Y-49268478D01*
X51517645Y-49300500D01*
X51517648Y-49300500D01*
X51722355Y-49300500D01*
X51924529Y-49268478D01*
X51924530Y-49268477D01*
X51924534Y-49268477D01*
X52119219Y-49205220D01*
X52301610Y-49112287D01*
X52467219Y-48991966D01*
X52611966Y-48847219D01*
X52708037Y-48714987D01*
X52732285Y-48681613D01*
X52732287Y-48681610D01*
X52825220Y-48499219D01*
X52888477Y-48304534D01*
X52889195Y-48300000D01*
X52920500Y-48102355D01*
X52920500Y-47897644D01*
X52888478Y-47695470D01*
X52888477Y-47695466D01*
X52825220Y-47500781D01*
X52732287Y-47318390D01*
X52732285Y-47318386D01*
X52611970Y-47152786D01*
X52611968Y-47152784D01*
X52611966Y-47152781D01*
X52467219Y-47008034D01*
X52467215Y-47008031D01*
X52467213Y-47008029D01*
X52301613Y-46887714D01*
X52301609Y-46887712D01*
X52119219Y-46794780D01*
X51924529Y-46731521D01*
X51722355Y-46699500D01*
X51722352Y-46699500D01*
X51517648Y-46699500D01*
X51517645Y-46699500D01*
X51315470Y-46731521D01*
X51120780Y-46794780D01*
X50938390Y-46887712D01*
X50938386Y-46887714D01*
X50772786Y-47008029D01*
X50628029Y-47152786D01*
X50507714Y-47318386D01*
X50507712Y-47318390D01*
X50499487Y-47334534D01*
X50494768Y-47343797D01*
X50493928Y-47345445D01*
X50450664Y-47388709D01*
X50405718Y-47399500D01*
X49731743Y-47399500D01*
X49673552Y-47380593D01*
X49661739Y-47370504D01*
X43527796Y-41236561D01*
X43500019Y-41182044D01*
X43498800Y-41166557D01*
X43498800Y-40537144D01*
X43498800Y-40537143D01*
X43494819Y-40522287D01*
X43457877Y-40384415D01*
X43409449Y-40300536D01*
X43378820Y-40247484D01*
X43267016Y-40135680D01*
X43267013Y-40135678D01*
X41237039Y-38105704D01*
X41209262Y-38051187D01*
X41218833Y-37990755D01*
X41262098Y-37947490D01*
X41307043Y-37936700D01*
X47666457Y-37936700D01*
X47724648Y-37955607D01*
X47736461Y-37965696D01*
X50336755Y-40565991D01*
X50364532Y-40620508D01*
X50360906Y-40666587D01*
X50351522Y-40695468D01*
X50319500Y-40897644D01*
X50319500Y-41102355D01*
X50351521Y-41304529D01*
X50414780Y-41499219D01*
X50507712Y-41681609D01*
X50507714Y-41681613D01*
X50628029Y-41847213D01*
X50628031Y-41847215D01*
X50628034Y-41847219D01*
X50772781Y-41991966D01*
X50772784Y-41991968D01*
X50772786Y-41991970D01*
X50938386Y-42112285D01*
X50938390Y-42112287D01*
X51120781Y-42205220D01*
X51315466Y-42268477D01*
X51315467Y-42268477D01*
X51315470Y-42268478D01*
X51517645Y-42300500D01*
X51517648Y-42300500D01*
X51722355Y-42300500D01*
X51924529Y-42268478D01*
X51924530Y-42268477D01*
X51924534Y-42268477D01*
X52119219Y-42205220D01*
X52301610Y-42112287D01*
X52314155Y-42103173D01*
X52379796Y-42055482D01*
X52467219Y-41991966D01*
X52611966Y-41847219D01*
X52726930Y-41688983D01*
X52732285Y-41681613D01*
X52732287Y-41681610D01*
X52825220Y-41499219D01*
X52888477Y-41304534D01*
X52888478Y-41304529D01*
X52920500Y-41102355D01*
X52920500Y-40897644D01*
X52888478Y-40695470D01*
X52887007Y-40690943D01*
X52825220Y-40500781D01*
X52732287Y-40318390D01*
X52732285Y-40318386D01*
X52611970Y-40152786D01*
X52611968Y-40152784D01*
X52611966Y-40152781D01*
X52467219Y-40008034D01*
X52467215Y-40008031D01*
X52467213Y-40008029D01*
X52301613Y-39887714D01*
X52301609Y-39887712D01*
X52119219Y-39794780D01*
X51924529Y-39731521D01*
X51722355Y-39699500D01*
X51722352Y-39699500D01*
X51517648Y-39699500D01*
X51517645Y-39699500D01*
X51315468Y-39731522D01*
X51286587Y-39740906D01*
X51225402Y-39740905D01*
X51185991Y-39716755D01*
X48436721Y-36967486D01*
X48436720Y-36967484D01*
X48324916Y-36855680D01*
X48238104Y-36805560D01*
X48238103Y-36805559D01*
X48187988Y-36776625D01*
X48187985Y-36776623D01*
X48035257Y-36735699D01*
X47877143Y-36735699D01*
X47871080Y-36735699D01*
X47871064Y-36735700D01*
X38773937Y-36735700D01*
X38773921Y-36735699D01*
X38767858Y-36735699D01*
X38609743Y-36735699D01*
X38609740Y-36735699D01*
X38457019Y-36776621D01*
X38457018Y-36776621D01*
X38320084Y-36855680D01*
X37605260Y-37570504D01*
X37550743Y-37598281D01*
X37535256Y-37599500D01*
X36077133Y-37599500D01*
X36077129Y-37599500D01*
X36077128Y-37599501D01*
X36069949Y-37600272D01*
X36017519Y-37605908D01*
X36017514Y-37605909D01*
X35882670Y-37656202D01*
X35767458Y-37742450D01*
X35767450Y-37742458D01*
X35681202Y-37857670D01*
X35630910Y-37992511D01*
X35630908Y-37992522D01*
X35624500Y-38052129D01*
X35624500Y-39947866D01*
X35624501Y-39947870D01*
X35630908Y-40007480D01*
X35630909Y-40007485D01*
X35681202Y-40142329D01*
X35767209Y-40257219D01*
X35767454Y-40257546D01*
X35767457Y-40257548D01*
X35767458Y-40257549D01*
X35882670Y-40343797D01*
X36017511Y-40394089D01*
X36017512Y-40394089D01*
X36017517Y-40394091D01*
X36077127Y-40400500D01*
X37527200Y-40400499D01*
X37585391Y-40419406D01*
X37621355Y-40468906D01*
X37626200Y-40499499D01*
X37626200Y-43306856D01*
X37607293Y-43365047D01*
X37597204Y-43376860D01*
X36656284Y-44317780D01*
X36656283Y-44317779D01*
X36544479Y-44429584D01*
X36535133Y-44445774D01*
X36519867Y-44472216D01*
X36501421Y-44504166D01*
X36474957Y-44550001D01*
X36429487Y-44590942D01*
X36389221Y-44599500D01*
X36077133Y-44599500D01*
X36077129Y-44599500D01*
X36077128Y-44599501D01*
X36069949Y-44600272D01*
X36017519Y-44605908D01*
X36017514Y-44605909D01*
X35882670Y-44656202D01*
X35767458Y-44742450D01*
X35767450Y-44742458D01*
X35681202Y-44857670D01*
X35630910Y-44992511D01*
X35630908Y-44992522D01*
X35627133Y-45027641D01*
X35626104Y-45037213D01*
X35624500Y-45052129D01*
X35624500Y-46947866D01*
X35624501Y-46947870D01*
X35630908Y-47007480D01*
X35630909Y-47007485D01*
X35681202Y-47142329D01*
X35754693Y-47240500D01*
X35767454Y-47257546D01*
X35767457Y-47257548D01*
X35767458Y-47257549D01*
X35882670Y-47343797D01*
X36017511Y-47394089D01*
X36017512Y-47394089D01*
X36017517Y-47394091D01*
X36077127Y-47400500D01*
X37972872Y-47400499D01*
X38032483Y-47394091D01*
X38162910Y-47345445D01*
X38167329Y-47343797D01*
X38167329Y-47343796D01*
X38167331Y-47343796D01*
X38282546Y-47257546D01*
X38368796Y-47142331D01*
X38412195Y-47025969D01*
X38450245Y-46978056D01*
X38509192Y-46961658D01*
X38566519Y-46983039D01*
X38574947Y-46990554D01*
X38652635Y-47068242D01*
X38830978Y-47197815D01*
X39027394Y-47297895D01*
X39237049Y-47366015D01*
X39324140Y-47379809D01*
X39454775Y-47400500D01*
X39454778Y-47400500D01*
X39675225Y-47400500D01*
X39800909Y-47380593D01*
X39892951Y-47366015D01*
X40102606Y-47297895D01*
X40299022Y-47197815D01*
X40477365Y-47068242D01*
X40633242Y-46912365D01*
X40762815Y-46734022D01*
X40803307Y-46654554D01*
X40846571Y-46611290D01*
X40891516Y-46600500D01*
X43475457Y-46600500D01*
X43533648Y-46619407D01*
X43545461Y-46629496D01*
X49394678Y-52478713D01*
X49394680Y-52478716D01*
X49506484Y-52590520D01*
X49568087Y-52626086D01*
X49643415Y-52669577D01*
X49796143Y-52710501D01*
X49796145Y-52710501D01*
X49960320Y-52710501D01*
X49960336Y-52710500D01*
X117990149Y-52710500D01*
X118048340Y-52729407D01*
X118084304Y-52778907D01*
X118088636Y-52799438D01*
X118089427Y-52807178D01*
X118090001Y-52812797D01*
X118130629Y-52935405D01*
X118145187Y-52979336D01*
X118237285Y-53128652D01*
X118237286Y-53128653D01*
X118237288Y-53128656D01*
X118361344Y-53252712D01*
X118510666Y-53344814D01*
X118677203Y-53399999D01*
X118779991Y-53410500D01*
X119980008Y-53410499D01*
X119980016Y-53410499D01*
X120082788Y-53400000D01*
X120082788Y-53399999D01*
X120082797Y-53399999D01*
X120249334Y-53344814D01*
X120398656Y-53252712D01*
X120522712Y-53128656D01*
X120614814Y-52979334D01*
X120669999Y-52812797D01*
X120680500Y-52710009D01*
X120680499Y-51509992D01*
X120680499Y-51509984D01*
X120678004Y-51485562D01*
X120690899Y-51425751D01*
X120736488Y-51384942D01*
X120776491Y-51376500D01*
X125376257Y-51376500D01*
X125434448Y-51395407D01*
X125446261Y-51405496D01*
X125716755Y-51675990D01*
X125744532Y-51730507D01*
X125740906Y-51776585D01*
X125731522Y-51805466D01*
X125699500Y-52007644D01*
X125699500Y-52212355D01*
X125731521Y-52414529D01*
X125794780Y-52609219D01*
X125887712Y-52791609D01*
X125887714Y-52791613D01*
X126008029Y-52957213D01*
X126008031Y-52957215D01*
X126008034Y-52957219D01*
X126152781Y-53101966D01*
X126152784Y-53101968D01*
X126152786Y-53101970D01*
X126318386Y-53222285D01*
X126318390Y-53222287D01*
X126500781Y-53315220D01*
X126695466Y-53378477D01*
X126695467Y-53378477D01*
X126695470Y-53378478D01*
X126897645Y-53410500D01*
X126897648Y-53410500D01*
X127102355Y-53410500D01*
X127304529Y-53378478D01*
X127304530Y-53378477D01*
X127304534Y-53378477D01*
X127499219Y-53315220D01*
X127681610Y-53222287D01*
X127847219Y-53101966D01*
X127991966Y-52957219D01*
X128112287Y-52791610D01*
X128205220Y-52609219D01*
X128268477Y-52414534D01*
X128268478Y-52414529D01*
X128300500Y-52212355D01*
X128300500Y-52007644D01*
X128268478Y-51805470D01*
X128266693Y-51799975D01*
X128205220Y-51610781D01*
X128112287Y-51428390D01*
X128112285Y-51428386D01*
X127991970Y-51262786D01*
X127991968Y-51262784D01*
X127991966Y-51262781D01*
X127847219Y-51118034D01*
X127847215Y-51118031D01*
X127847213Y-51118029D01*
X127681613Y-50997714D01*
X127681609Y-50997712D01*
X127610847Y-50961657D01*
X127545201Y-50928209D01*
X127501937Y-50884945D01*
X127492366Y-50824513D01*
X127520143Y-50769997D01*
X127545199Y-50751791D01*
X127681610Y-50682287D01*
X127847219Y-50561966D01*
X127991966Y-50417219D01*
X128112287Y-50251610D01*
X128205220Y-50069219D01*
X128268477Y-49874534D01*
X128283980Y-49776653D01*
X128300500Y-49672355D01*
X128300500Y-49467644D01*
X128268478Y-49265470D01*
X128268477Y-49265466D01*
X128205220Y-49070781D01*
X128112287Y-48888390D01*
X128112285Y-48888386D01*
X127991970Y-48722786D01*
X127991968Y-48722784D01*
X127991966Y-48722781D01*
X127847219Y-48578034D01*
X127847215Y-48578031D01*
X127847213Y-48578029D01*
X127681613Y-48457714D01*
X127681609Y-48457712D01*
X127610847Y-48421657D01*
X127545201Y-48388209D01*
X127501937Y-48344945D01*
X127492366Y-48284513D01*
X127520143Y-48229997D01*
X127545199Y-48211791D01*
X127681610Y-48142287D01*
X127847219Y-48021966D01*
X127991966Y-47877219D01*
X128072180Y-47766813D01*
X128112285Y-47711613D01*
X128112287Y-47711610D01*
X128205220Y-47529219D01*
X128255835Y-47373440D01*
X128291799Y-47323940D01*
X128349990Y-47305033D01*
X128408180Y-47323940D01*
X128419994Y-47334029D01*
X135302678Y-54216713D01*
X135302680Y-54216716D01*
X135414484Y-54328520D01*
X135414486Y-54328521D01*
X135416461Y-54330496D01*
X135444238Y-54385013D01*
X135434667Y-54445445D01*
X135391402Y-54488710D01*
X135346457Y-54499500D01*
X23864548Y-54499500D01*
X23806357Y-54480593D01*
X23770393Y-54431093D01*
X23770393Y-54369907D01*
X23806357Y-54320407D01*
X23833953Y-54306345D01*
X23980025Y-54258884D01*
X24155405Y-54169524D01*
X24314646Y-54053828D01*
X24453828Y-53914646D01*
X24569524Y-53755405D01*
X24658884Y-53580025D01*
X24719709Y-53392826D01*
X24719710Y-53392821D01*
X24750500Y-53198420D01*
X24750500Y-53001587D01*
X24750336Y-52999504D01*
X24750500Y-52998820D01*
X24750500Y-52997693D01*
X24750771Y-52997693D01*
X24764619Y-52940009D01*
X24811144Y-52900272D01*
X24872141Y-52895470D01*
X24924310Y-52927438D01*
X24929123Y-52933544D01*
X25046167Y-53094640D01*
X25046169Y-53094642D01*
X25046172Y-53094646D01*
X25185354Y-53233828D01*
X25344595Y-53349524D01*
X25519975Y-53438884D01*
X25707174Y-53499709D01*
X25707175Y-53499709D01*
X25707178Y-53499710D01*
X25901580Y-53530500D01*
X25901583Y-53530500D01*
X26098420Y-53530500D01*
X26292821Y-53499710D01*
X26292822Y-53499709D01*
X26292826Y-53499709D01*
X26480025Y-53438884D01*
X26655405Y-53349524D01*
X26814646Y-53233828D01*
X26953828Y-53094646D01*
X27069524Y-52935405D01*
X27158884Y-52760025D01*
X27219709Y-52572826D01*
X27228158Y-52519480D01*
X27250500Y-52378420D01*
X27250500Y-52181579D01*
X27219710Y-51987178D01*
X27219709Y-51987174D01*
X27158884Y-51799975D01*
X27069524Y-51624595D01*
X26953828Y-51465354D01*
X26814646Y-51326172D01*
X26689524Y-51235265D01*
X43089500Y-51235265D01*
X43089500Y-51464734D01*
X43119452Y-51692238D01*
X43178841Y-51913885D01*
X43266653Y-52125883D01*
X43381388Y-52324611D01*
X43425660Y-52382307D01*
X43521081Y-52506661D01*
X43683339Y-52668919D01*
X43865388Y-52808611D01*
X44064112Y-52923344D01*
X44064113Y-52923344D01*
X44064116Y-52923346D01*
X44145879Y-52957213D01*
X44276113Y-53011158D01*
X44497762Y-53070548D01*
X44725266Y-53100500D01*
X44725267Y-53100500D01*
X44954733Y-53100500D01*
X44954734Y-53100500D01*
X45182238Y-53070548D01*
X45403887Y-53011158D01*
X45615888Y-52923344D01*
X45814612Y-52808611D01*
X45996661Y-52668919D01*
X46158919Y-52506661D01*
X46298611Y-52324612D01*
X46413344Y-52125888D01*
X46501158Y-51913887D01*
X46560548Y-51692238D01*
X46590500Y-51464734D01*
X46590500Y-51235266D01*
X46560548Y-51007762D01*
X46501158Y-50786113D01*
X46413344Y-50574112D01*
X46298611Y-50375388D01*
X46158919Y-50193339D01*
X45996661Y-50031081D01*
X45814612Y-49891389D01*
X45814613Y-49891389D01*
X45814611Y-49891388D01*
X45615883Y-49776653D01*
X45403885Y-49688841D01*
X45182238Y-49629452D01*
X44954734Y-49599500D01*
X44725266Y-49599500D01*
X44725265Y-49599500D01*
X44497761Y-49629452D01*
X44276114Y-49688841D01*
X44064116Y-49776653D01*
X43865388Y-49891388D01*
X43683342Y-50031078D01*
X43521078Y-50193342D01*
X43381388Y-50375388D01*
X43266653Y-50574116D01*
X43178841Y-50786114D01*
X43119452Y-51007761D01*
X43089500Y-51235265D01*
X26689524Y-51235265D01*
X26655405Y-51210476D01*
X26655404Y-51210475D01*
X26655402Y-51210474D01*
X26480025Y-51121116D01*
X26292821Y-51060289D01*
X26098420Y-51029500D01*
X26098417Y-51029500D01*
X25901583Y-51029500D01*
X25901580Y-51029500D01*
X25707178Y-51060289D01*
X25519974Y-51121116D01*
X25344597Y-51210474D01*
X25185355Y-51326171D01*
X25046171Y-51465355D01*
X24930474Y-51624597D01*
X24841116Y-51799974D01*
X24780289Y-51987178D01*
X24749500Y-52181579D01*
X24749500Y-52378422D01*
X24749664Y-52380510D01*
X24749500Y-52381192D01*
X24749500Y-52382307D01*
X24749232Y-52382307D01*
X24735372Y-52440003D01*
X24688841Y-52479733D01*
X24627844Y-52484525D01*
X24575679Y-52452549D01*
X24570876Y-52446455D01*
X24453832Y-52285359D01*
X24453830Y-52285357D01*
X24453828Y-52285354D01*
X24314646Y-52146172D01*
X24155405Y-52030476D01*
X24155404Y-52030475D01*
X24155402Y-52030474D01*
X23980025Y-51941116D01*
X23792821Y-51880289D01*
X23598420Y-51849500D01*
X23598417Y-51849500D01*
X23401583Y-51849500D01*
X23401580Y-51849500D01*
X23207178Y-51880289D01*
X23019974Y-51941116D01*
X22844597Y-52030474D01*
X22685355Y-52146171D01*
X22546171Y-52285355D01*
X22430474Y-52444597D01*
X22341116Y-52619974D01*
X22280289Y-52807178D01*
X22249500Y-53001579D01*
X22249500Y-53198420D01*
X22280289Y-53392821D01*
X22341116Y-53580025D01*
X22419580Y-53734022D01*
X22430476Y-53755405D01*
X22546172Y-53914646D01*
X22685354Y-54053828D01*
X22844595Y-54169524D01*
X23019975Y-54258884D01*
X23166045Y-54306345D01*
X23215545Y-54342309D01*
X23234452Y-54400500D01*
X23215545Y-54458691D01*
X23166045Y-54494655D01*
X23135452Y-54499500D01*
X15599500Y-54499500D01*
X15541309Y-54480593D01*
X15505345Y-54431093D01*
X15500500Y-54400500D01*
X15500500Y-46701579D01*
X15949500Y-46701579D01*
X15949500Y-46898420D01*
X15980289Y-47092821D01*
X16041116Y-47280025D01*
X16107905Y-47411108D01*
X16130476Y-47455405D01*
X16246172Y-47614646D01*
X16385354Y-47753828D01*
X16544595Y-47869524D01*
X16719975Y-47958884D01*
X16907174Y-48019709D01*
X16907175Y-48019709D01*
X16907178Y-48019710D01*
X17101580Y-48050500D01*
X17101583Y-48050500D01*
X17298420Y-48050500D01*
X17492821Y-48019710D01*
X17492822Y-48019709D01*
X17492826Y-48019709D01*
X17680025Y-47958884D01*
X17855405Y-47869524D01*
X18014646Y-47753828D01*
X18153828Y-47614646D01*
X18269524Y-47455405D01*
X18358884Y-47280025D01*
X18419709Y-47092826D01*
X18430746Y-47023143D01*
X18450500Y-46898420D01*
X18450500Y-46701579D01*
X19949500Y-46701579D01*
X19949500Y-46898420D01*
X19980289Y-47092821D01*
X20041116Y-47280025D01*
X20107905Y-47411108D01*
X20130476Y-47455405D01*
X20246172Y-47614646D01*
X20385354Y-47753828D01*
X20544595Y-47869524D01*
X20719975Y-47958884D01*
X20907174Y-48019709D01*
X20907175Y-48019709D01*
X20907178Y-48019710D01*
X21101580Y-48050500D01*
X21101583Y-48050500D01*
X21298420Y-48050500D01*
X21492821Y-48019710D01*
X21492822Y-48019709D01*
X21492826Y-48019709D01*
X21680025Y-47958884D01*
X21855405Y-47869524D01*
X22014646Y-47753828D01*
X22153828Y-47614646D01*
X22269524Y-47455405D01*
X22358884Y-47280025D01*
X22419709Y-47092826D01*
X22430746Y-47023143D01*
X22450500Y-46898420D01*
X22450500Y-46701579D01*
X31549500Y-46701579D01*
X31549500Y-46898420D01*
X31580289Y-47092821D01*
X31641116Y-47280025D01*
X31707905Y-47411108D01*
X31730476Y-47455405D01*
X31846172Y-47614646D01*
X31985354Y-47753828D01*
X32144595Y-47869524D01*
X32319975Y-47958884D01*
X32507174Y-48019709D01*
X32507175Y-48019709D01*
X32507178Y-48019710D01*
X32701580Y-48050500D01*
X32701583Y-48050500D01*
X32898420Y-48050500D01*
X33092821Y-48019710D01*
X33092822Y-48019709D01*
X33092826Y-48019709D01*
X33280025Y-47958884D01*
X33455405Y-47869524D01*
X33614646Y-47753828D01*
X33753828Y-47614646D01*
X33869524Y-47455405D01*
X33958884Y-47280025D01*
X34019709Y-47092826D01*
X34030746Y-47023143D01*
X34050500Y-46898420D01*
X34050500Y-46701579D01*
X34019710Y-46507178D01*
X34012567Y-46485193D01*
X33958884Y-46319975D01*
X33869524Y-46144595D01*
X33753828Y-45985354D01*
X33614646Y-45846172D01*
X33455405Y-45730476D01*
X33455404Y-45730475D01*
X33455402Y-45730474D01*
X33280025Y-45641116D01*
X33092821Y-45580289D01*
X32898420Y-45549500D01*
X32898417Y-45549500D01*
X32701583Y-45549500D01*
X32701580Y-45549500D01*
X32507178Y-45580289D01*
X32319974Y-45641116D01*
X32144597Y-45730474D01*
X31985355Y-45846171D01*
X31846171Y-45985355D01*
X31730474Y-46144597D01*
X31641116Y-46319974D01*
X31580289Y-46507178D01*
X31549500Y-46701579D01*
X22450500Y-46701579D01*
X22419710Y-46507178D01*
X22412567Y-46485193D01*
X22358884Y-46319975D01*
X22269524Y-46144595D01*
X22153828Y-45985354D01*
X22014646Y-45846172D01*
X21855405Y-45730476D01*
X21855404Y-45730475D01*
X21855402Y-45730474D01*
X21680025Y-45641116D01*
X21492821Y-45580289D01*
X21298420Y-45549500D01*
X21298417Y-45549500D01*
X21101583Y-45549500D01*
X21101580Y-45549500D01*
X20907178Y-45580289D01*
X20719974Y-45641116D01*
X20544597Y-45730474D01*
X20385355Y-45846171D01*
X20246171Y-45985355D01*
X20130474Y-46144597D01*
X20041116Y-46319974D01*
X19980289Y-46507178D01*
X19949500Y-46701579D01*
X18450500Y-46701579D01*
X18419710Y-46507178D01*
X18412567Y-46485193D01*
X18358884Y-46319975D01*
X18269524Y-46144595D01*
X18153828Y-45985354D01*
X18014646Y-45846172D01*
X17855405Y-45730476D01*
X17855404Y-45730475D01*
X17855402Y-45730474D01*
X17680025Y-45641116D01*
X17492821Y-45580289D01*
X17298420Y-45549500D01*
X17298417Y-45549500D01*
X17101583Y-45549500D01*
X17101580Y-45549500D01*
X16907178Y-45580289D01*
X16719974Y-45641116D01*
X16544597Y-45730474D01*
X16385355Y-45846171D01*
X16246171Y-45985355D01*
X16130474Y-46144597D01*
X16041116Y-46319974D01*
X15980289Y-46507178D01*
X15949500Y-46701579D01*
X15500500Y-46701579D01*
X15500500Y-43701579D01*
X15949500Y-43701579D01*
X15949500Y-43898420D01*
X15980289Y-44092821D01*
X16041116Y-44280025D01*
X16126946Y-44448478D01*
X16130476Y-44455405D01*
X16246172Y-44614646D01*
X16385354Y-44753828D01*
X16544595Y-44869524D01*
X16719975Y-44958884D01*
X16907174Y-45019709D01*
X16907175Y-45019709D01*
X16907178Y-45019710D01*
X17101580Y-45050500D01*
X17101583Y-45050500D01*
X17298420Y-45050500D01*
X17492821Y-45019710D01*
X17492822Y-45019709D01*
X17492826Y-45019709D01*
X17680025Y-44958884D01*
X17855405Y-44869524D01*
X18014646Y-44753828D01*
X18153828Y-44614646D01*
X18269524Y-44455405D01*
X18358884Y-44280025D01*
X18419709Y-44092826D01*
X18421318Y-44082667D01*
X18450500Y-43898420D01*
X18450500Y-43701579D01*
X31549500Y-43701579D01*
X31549500Y-43898420D01*
X31580289Y-44092821D01*
X31641116Y-44280025D01*
X31726946Y-44448478D01*
X31730476Y-44455405D01*
X31846172Y-44614646D01*
X31985354Y-44753828D01*
X32144595Y-44869524D01*
X32319975Y-44958884D01*
X32507174Y-45019709D01*
X32507175Y-45019709D01*
X32507178Y-45019710D01*
X32701580Y-45050500D01*
X32701583Y-45050500D01*
X32898420Y-45050500D01*
X33092821Y-45019710D01*
X33092822Y-45019709D01*
X33092826Y-45019709D01*
X33280025Y-44958884D01*
X33455405Y-44869524D01*
X33614646Y-44753828D01*
X33753828Y-44614646D01*
X33869524Y-44455405D01*
X33958884Y-44280025D01*
X34019709Y-44092826D01*
X34021318Y-44082667D01*
X34050500Y-43898420D01*
X34050500Y-43701579D01*
X34019710Y-43507178D01*
X34018858Y-43504556D01*
X33958884Y-43319975D01*
X33869524Y-43144595D01*
X33753828Y-42985354D01*
X33614646Y-42846172D01*
X33455405Y-42730476D01*
X33455404Y-42730475D01*
X33455402Y-42730474D01*
X33280025Y-42641116D01*
X33092821Y-42580289D01*
X32898420Y-42549500D01*
X32898417Y-42549500D01*
X32701583Y-42549500D01*
X32701580Y-42549500D01*
X32507178Y-42580289D01*
X32319974Y-42641116D01*
X32144597Y-42730474D01*
X31985355Y-42846171D01*
X31846171Y-42985355D01*
X31730474Y-43144597D01*
X31641116Y-43319974D01*
X31580289Y-43507178D01*
X31549500Y-43701579D01*
X18450500Y-43701579D01*
X18419710Y-43507178D01*
X18418858Y-43504556D01*
X18358884Y-43319975D01*
X18269524Y-43144595D01*
X18153828Y-42985354D01*
X18014646Y-42846172D01*
X17855405Y-42730476D01*
X17855404Y-42730475D01*
X17855402Y-42730474D01*
X17680025Y-42641116D01*
X17492821Y-42580289D01*
X17298420Y-42549500D01*
X17298417Y-42549500D01*
X17101583Y-42549500D01*
X17101580Y-42549500D01*
X16907178Y-42580289D01*
X16719974Y-42641116D01*
X16544597Y-42730474D01*
X16385355Y-42846171D01*
X16246171Y-42985355D01*
X16130474Y-43144597D01*
X16041116Y-43319974D01*
X15980289Y-43507178D01*
X15949500Y-43701579D01*
X15500500Y-43701579D01*
X15500500Y-37401579D01*
X25249500Y-37401579D01*
X25249500Y-37598420D01*
X25280289Y-37792821D01*
X25341116Y-37980025D01*
X25423402Y-38141523D01*
X25430476Y-38155405D01*
X25546172Y-38314646D01*
X25685354Y-38453828D01*
X25844595Y-38569524D01*
X26019975Y-38658884D01*
X26207174Y-38719709D01*
X26207175Y-38719709D01*
X26207178Y-38719710D01*
X26401580Y-38750500D01*
X26401583Y-38750500D01*
X26598420Y-38750500D01*
X26792821Y-38719710D01*
X26792822Y-38719709D01*
X26792826Y-38719709D01*
X26980025Y-38658884D01*
X27155405Y-38569524D01*
X27314646Y-38453828D01*
X27453828Y-38314646D01*
X27569524Y-38155405D01*
X27658884Y-37980025D01*
X27719709Y-37792826D01*
X27720123Y-37790214D01*
X27750500Y-37598420D01*
X27750500Y-37401579D01*
X27719710Y-37207178D01*
X27716668Y-37197815D01*
X27658884Y-37019975D01*
X27569524Y-36844595D01*
X27453828Y-36685354D01*
X27314646Y-36546172D01*
X27155405Y-36430476D01*
X27155404Y-36430475D01*
X27155402Y-36430474D01*
X26980025Y-36341116D01*
X26792821Y-36280289D01*
X26598420Y-36249500D01*
X26598417Y-36249500D01*
X26401583Y-36249500D01*
X26401580Y-36249500D01*
X26207178Y-36280289D01*
X26019974Y-36341116D01*
X25844597Y-36430474D01*
X25685355Y-36546171D01*
X25546171Y-36685355D01*
X25430474Y-36844597D01*
X25341116Y-37019974D01*
X25280289Y-37207178D01*
X25249500Y-37401579D01*
X15500500Y-37401579D01*
X15500500Y-18674710D01*
X16945500Y-18674710D01*
X16945500Y-18917289D01*
X16977161Y-19157781D01*
X16977161Y-19157786D01*
X17039944Y-19392092D01*
X17039948Y-19392105D01*
X17132772Y-19616204D01*
X17132774Y-19616208D01*
X17132776Y-19616212D01*
X17222495Y-19771610D01*
X17254066Y-19826292D01*
X17401729Y-20018731D01*
X17401731Y-20018733D01*
X17401735Y-20018738D01*
X17573262Y-20190265D01*
X17573266Y-20190268D01*
X17573268Y-20190270D01*
X17710042Y-20295220D01*
X17765711Y-20337936D01*
X17975788Y-20459224D01*
X18199900Y-20552054D01*
X18434211Y-20614838D01*
X18674712Y-20646500D01*
X18674713Y-20646500D01*
X18917287Y-20646500D01*
X18917288Y-20646500D01*
X19157789Y-20614838D01*
X19392100Y-20552054D01*
X19616212Y-20459224D01*
X19826289Y-20337936D01*
X20018738Y-20190265D01*
X20190265Y-20018738D01*
X20337936Y-19826289D01*
X20459224Y-19616212D01*
X20552054Y-19392100D01*
X20614838Y-19157789D01*
X20646500Y-18917288D01*
X20646500Y-18674712D01*
X20614838Y-18434211D01*
X20552054Y-18199900D01*
X20459224Y-17975788D01*
X20337936Y-17765711D01*
X20190265Y-17573262D01*
X20018738Y-17401735D01*
X20018733Y-17401731D01*
X20018731Y-17401729D01*
X19826292Y-17254066D01*
X19826289Y-17254064D01*
X19616212Y-17132776D01*
X19616208Y-17132774D01*
X19616204Y-17132772D01*
X19392105Y-17039948D01*
X19392104Y-17039947D01*
X19392100Y-17039946D01*
X19157789Y-16977162D01*
X19157786Y-16977161D01*
X19157784Y-16977161D01*
X18917289Y-16945500D01*
X18917288Y-16945500D01*
X18674712Y-16945500D01*
X18674710Y-16945500D01*
X18434218Y-16977161D01*
X18434213Y-16977161D01*
X18199907Y-17039944D01*
X18199894Y-17039948D01*
X17975795Y-17132772D01*
X17765707Y-17254066D01*
X17573268Y-17401729D01*
X17401729Y-17573268D01*
X17254066Y-17765707D01*
X17132772Y-17975795D01*
X17039948Y-18199894D01*
X17039944Y-18199907D01*
X16977161Y-18434213D01*
X16977161Y-18434218D01*
X16945500Y-18674710D01*
X15500500Y-18674710D01*
X15500500Y-15599500D01*
X15519407Y-15541309D01*
X15568907Y-15505345D01*
X15599500Y-15500500D01*
X169400500Y-15500500D01*
X169458691Y-15519407D01*
G37*
%TD.AperFunction*%
%TA.AperFunction,Conductor*%
G36*
X50129226Y-21382807D02*
G01*
X50141039Y-21392896D01*
X58680357Y-29932214D01*
X58795089Y-30008875D01*
X58922572Y-30061680D01*
X59057906Y-30088600D01*
X59057907Y-30088600D01*
X65146935Y-30088600D01*
X65205126Y-30107507D01*
X65216939Y-30117596D01*
X68553351Y-33454008D01*
X71862890Y-36763546D01*
X71890667Y-36818063D01*
X71881096Y-36878495D01*
X71837832Y-36921758D01*
X71790019Y-36946120D01*
X71708390Y-36987712D01*
X71708386Y-36987714D01*
X71542786Y-37108029D01*
X71398029Y-37252786D01*
X71277714Y-37418386D01*
X71277712Y-37418390D01*
X71184780Y-37600780D01*
X71121521Y-37795470D01*
X71089500Y-37997644D01*
X71089500Y-38202355D01*
X71121521Y-38404529D01*
X71184780Y-38599219D01*
X71277712Y-38781609D01*
X71277714Y-38781613D01*
X71398029Y-38947213D01*
X71398031Y-38947215D01*
X71398034Y-38947219D01*
X71542781Y-39091966D01*
X71542784Y-39091968D01*
X71542786Y-39091970D01*
X71708386Y-39212285D01*
X71708390Y-39212287D01*
X71890781Y-39305220D01*
X72085466Y-39368477D01*
X72085467Y-39368477D01*
X72085470Y-39368478D01*
X72287645Y-39400500D01*
X72287648Y-39400500D01*
X72492355Y-39400500D01*
X72694529Y-39368478D01*
X72694530Y-39368477D01*
X72694534Y-39368477D01*
X72889219Y-39305220D01*
X73071610Y-39212287D01*
X73074362Y-39210288D01*
X73139728Y-39162797D01*
X73237219Y-39091966D01*
X73381966Y-38947219D01*
X73502287Y-38781610D01*
X73568241Y-38652167D01*
X73611505Y-38608904D01*
X73671937Y-38599333D01*
X73726453Y-38627110D01*
X73726454Y-38627110D01*
X80779840Y-45680496D01*
X80807617Y-45735013D01*
X80798046Y-45795445D01*
X80754781Y-45838710D01*
X80709836Y-45849500D01*
X75949743Y-45849500D01*
X75891552Y-45830593D01*
X75879739Y-45820504D01*
X73673243Y-43614008D01*
X73645466Y-43559491D01*
X73649093Y-43513412D01*
X73658477Y-43484534D01*
X73659194Y-43480010D01*
X73690500Y-43282355D01*
X73690500Y-43077644D01*
X73658478Y-42875470D01*
X73658477Y-42875466D01*
X73595220Y-42680781D01*
X73502287Y-42498390D01*
X73502285Y-42498386D01*
X73381970Y-42332786D01*
X73381968Y-42332784D01*
X73381966Y-42332781D01*
X73237219Y-42188034D01*
X73237215Y-42188031D01*
X73237213Y-42188029D01*
X73071613Y-42067714D01*
X73071609Y-42067712D01*
X72889219Y-41974780D01*
X72694529Y-41911521D01*
X72492355Y-41879500D01*
X72492352Y-41879500D01*
X72287648Y-41879500D01*
X72287645Y-41879500D01*
X72085470Y-41911521D01*
X71890780Y-41974780D01*
X71708390Y-42067712D01*
X71708386Y-42067714D01*
X71542786Y-42188029D01*
X71398029Y-42332786D01*
X71277714Y-42498386D01*
X71277712Y-42498390D01*
X71184780Y-42680780D01*
X71121521Y-42875470D01*
X71089500Y-43077644D01*
X71089500Y-43282355D01*
X71121521Y-43484529D01*
X71184780Y-43679219D01*
X71277712Y-43861609D01*
X71277714Y-43861613D01*
X71398029Y-44027213D01*
X71398031Y-44027215D01*
X71398034Y-44027219D01*
X71542781Y-44171966D01*
X71542784Y-44171968D01*
X71542786Y-44171970D01*
X71708386Y-44292285D01*
X71708390Y-44292287D01*
X71890781Y-44385220D01*
X72085466Y-44448477D01*
X72085467Y-44448477D01*
X72085470Y-44448478D01*
X72287645Y-44480500D01*
X72287648Y-44480500D01*
X72492355Y-44480500D01*
X72694530Y-44448478D01*
X72694530Y-44448477D01*
X72694534Y-44448477D01*
X72723411Y-44439093D01*
X72784593Y-44439091D01*
X72824008Y-44463243D01*
X75179478Y-46818713D01*
X75179480Y-46818716D01*
X75291284Y-46930520D01*
X75428216Y-47009577D01*
X75540019Y-47039534D01*
X75580942Y-47050500D01*
X75580943Y-47050500D01*
X108088264Y-47050500D01*
X108088280Y-47050501D01*
X108094343Y-47050501D01*
X108252455Y-47050501D01*
X108252457Y-47050501D01*
X108405185Y-47009577D01*
X108459780Y-46978056D01*
X108542116Y-46930520D01*
X108653920Y-46818716D01*
X108653920Y-46818714D01*
X108662070Y-46810565D01*
X108662071Y-46810562D01*
X109243140Y-46229496D01*
X109297656Y-46201719D01*
X109313143Y-46200500D01*
X118181563Y-46200500D01*
X118239754Y-46219407D01*
X118275718Y-46268907D01*
X118275718Y-46330093D01*
X118268989Y-46344674D01*
X118269479Y-46344924D01*
X118174780Y-46530780D01*
X118111521Y-46725470D01*
X118079500Y-46927644D01*
X118079500Y-47132355D01*
X118111522Y-47334531D01*
X118136403Y-47411108D01*
X118136402Y-47472293D01*
X118100438Y-47521793D01*
X118042248Y-47540700D01*
X73489643Y-47540700D01*
X73431452Y-47521793D01*
X73419639Y-47511704D01*
X65328430Y-39420495D01*
X65300653Y-39365978D01*
X65310224Y-39305546D01*
X65353486Y-39262283D01*
X65451610Y-39212287D01*
X65454362Y-39210288D01*
X65519728Y-39162797D01*
X65617219Y-39091966D01*
X65761966Y-38947219D01*
X65882287Y-38781610D01*
X65975220Y-38599219D01*
X66038477Y-38404534D01*
X66038736Y-38402897D01*
X66070500Y-38202355D01*
X66070500Y-37997644D01*
X66038478Y-37795470D01*
X66037619Y-37792826D01*
X65975220Y-37600781D01*
X65882287Y-37418390D01*
X65882285Y-37418386D01*
X65761970Y-37252786D01*
X65761968Y-37252784D01*
X65761966Y-37252781D01*
X65617219Y-37108034D01*
X65617215Y-37108031D01*
X65617213Y-37108029D01*
X65451613Y-36987714D01*
X65451609Y-36987712D01*
X65269219Y-36894780D01*
X65074529Y-36831521D01*
X64872355Y-36799500D01*
X64872352Y-36799500D01*
X64667648Y-36799500D01*
X64667645Y-36799500D01*
X64465470Y-36831521D01*
X64270780Y-36894780D01*
X64088390Y-36987712D01*
X64088386Y-36987714D01*
X63922786Y-37108029D01*
X63778029Y-37252786D01*
X63657714Y-37418386D01*
X63657706Y-37418400D01*
X63612809Y-37506516D01*
X63569545Y-37549781D01*
X63509113Y-37559352D01*
X63454596Y-37531574D01*
X63426819Y-37477058D01*
X63425600Y-37461571D01*
X63425600Y-36684344D01*
X63425601Y-36684331D01*
X63425601Y-36518245D01*
X63425601Y-36518243D01*
X63384677Y-36365515D01*
X63344522Y-36295965D01*
X63344521Y-36295964D01*
X63344521Y-36295961D01*
X63305621Y-36228586D01*
X63305620Y-36228584D01*
X63193816Y-36116780D01*
X63193813Y-36116778D01*
X61424585Y-34347550D01*
X61396808Y-34293033D01*
X61406379Y-34232601D01*
X61449642Y-34189337D01*
X61561610Y-34132287D01*
X61566823Y-34128500D01*
X61640044Y-34075302D01*
X61727219Y-34011966D01*
X61871966Y-33867219D01*
X61992287Y-33701610D01*
X62085220Y-33519219D01*
X62148477Y-33324534D01*
X62148478Y-33324529D01*
X62180500Y-33122355D01*
X62180500Y-32917644D01*
X63469500Y-32917644D01*
X63469500Y-33122355D01*
X63501521Y-33324529D01*
X63564780Y-33519219D01*
X63657712Y-33701609D01*
X63657714Y-33701613D01*
X63778029Y-33867213D01*
X63778031Y-33867215D01*
X63778034Y-33867219D01*
X63922781Y-34011966D01*
X63922784Y-34011968D01*
X63922786Y-34011970D01*
X64088386Y-34132285D01*
X64088390Y-34132287D01*
X64270781Y-34225220D01*
X64465466Y-34288477D01*
X64465467Y-34288477D01*
X64465470Y-34288478D01*
X64667645Y-34320500D01*
X64667648Y-34320500D01*
X64872355Y-34320500D01*
X65074529Y-34288478D01*
X65074530Y-34288477D01*
X65074534Y-34288477D01*
X65269219Y-34225220D01*
X65451610Y-34132287D01*
X65456823Y-34128500D01*
X65530044Y-34075302D01*
X65617219Y-34011966D01*
X65761966Y-33867219D01*
X65882287Y-33701610D01*
X65975220Y-33519219D01*
X66038477Y-33324534D01*
X66038478Y-33324529D01*
X66070500Y-33122355D01*
X66070500Y-32917644D01*
X66038478Y-32715470D01*
X66013051Y-32637213D01*
X65975220Y-32520781D01*
X65882287Y-32338390D01*
X65882285Y-32338386D01*
X65761970Y-32172786D01*
X65761968Y-32172784D01*
X65761966Y-32172781D01*
X65617219Y-32028034D01*
X65617215Y-32028031D01*
X65617213Y-32028029D01*
X65451613Y-31907714D01*
X65451609Y-31907712D01*
X65269219Y-31814780D01*
X65074529Y-31751521D01*
X64872355Y-31719500D01*
X64872352Y-31719500D01*
X64667648Y-31719500D01*
X64667645Y-31719500D01*
X64465470Y-31751521D01*
X64270780Y-31814780D01*
X64088390Y-31907712D01*
X64088386Y-31907714D01*
X63922786Y-32028029D01*
X63778029Y-32172786D01*
X63657714Y-32338386D01*
X63657712Y-32338390D01*
X63564780Y-32520780D01*
X63501521Y-32715470D01*
X63469500Y-32917644D01*
X62180500Y-32917644D01*
X62148478Y-32715470D01*
X62123051Y-32637213D01*
X62085220Y-32520781D01*
X61992287Y-32338390D01*
X61992285Y-32338386D01*
X61871970Y-32172786D01*
X61871968Y-32172784D01*
X61871966Y-32172781D01*
X61727219Y-32028034D01*
X61727215Y-32028031D01*
X61727213Y-32028029D01*
X61561613Y-31907714D01*
X61561609Y-31907712D01*
X61379219Y-31814780D01*
X61184529Y-31751521D01*
X60982355Y-31719500D01*
X60982352Y-31719500D01*
X60777648Y-31719500D01*
X60777645Y-31719500D01*
X60575470Y-31751521D01*
X60380780Y-31814780D01*
X60198390Y-31907712D01*
X60198386Y-31907714D01*
X60032786Y-32028029D01*
X59888029Y-32172786D01*
X59767714Y-32338386D01*
X59767709Y-32338395D01*
X59710662Y-32450356D01*
X59667397Y-32493620D01*
X59606965Y-32503191D01*
X59552449Y-32475414D01*
X51708321Y-24631286D01*
X51708320Y-24631284D01*
X51596516Y-24519480D01*
X51596513Y-24519478D01*
X51497640Y-24462394D01*
X51497637Y-24462393D01*
X51497098Y-24462082D01*
X51461622Y-24441599D01*
X51459587Y-24440424D01*
X51459586Y-24440423D01*
X51459585Y-24440423D01*
X51306857Y-24399499D01*
X51148743Y-24399499D01*
X51142680Y-24399499D01*
X51142664Y-24399500D01*
X45987807Y-24399500D01*
X45929616Y-24380593D01*
X45893652Y-24331093D01*
X45893652Y-24269907D01*
X45927540Y-24221958D01*
X45996654Y-24168924D01*
X45996661Y-24168919D01*
X46158919Y-24006661D01*
X46298611Y-23824612D01*
X46413344Y-23625888D01*
X46501158Y-23413887D01*
X46560548Y-23192238D01*
X46590500Y-22964734D01*
X46590500Y-22735266D01*
X46560548Y-22507762D01*
X46501158Y-22286113D01*
X46413344Y-22074112D01*
X46298611Y-21875388D01*
X46158919Y-21693339D01*
X45998481Y-21532901D01*
X45970706Y-21478387D01*
X45980277Y-21417955D01*
X46023542Y-21374690D01*
X46068487Y-21363900D01*
X50071035Y-21363900D01*
X50129226Y-21382807D01*
G37*
%TD.AperFunction*%
%TA.AperFunction,Conductor*%
G36*
X140149691Y-44114487D02*
G01*
X140149898Y-44114768D01*
X140195483Y-44177510D01*
X140362490Y-44344517D01*
X140362493Y-44344519D01*
X140362495Y-44344521D01*
X140424964Y-44389908D01*
X140460928Y-44439408D01*
X140460927Y-44500593D01*
X140424964Y-44550092D01*
X140362495Y-44595478D01*
X140195482Y-44762491D01*
X140056655Y-44953569D01*
X139949432Y-45164007D01*
X139876445Y-45388636D01*
X139839500Y-45621904D01*
X139839500Y-45858095D01*
X139876446Y-46091368D01*
X139887502Y-46125396D01*
X139887501Y-46186582D01*
X139863351Y-46225990D01*
X139614240Y-46475103D01*
X139559723Y-46502881D01*
X139544236Y-46504100D01*
X138579065Y-46504100D01*
X138520874Y-46485193D01*
X138509061Y-46475104D01*
X137803796Y-45769839D01*
X137776019Y-45715322D01*
X137774800Y-45699835D01*
X137774800Y-44504166D01*
X137793707Y-44445975D01*
X137843207Y-44410011D01*
X137904393Y-44410011D01*
X137931989Y-44424073D01*
X138013567Y-44483343D01*
X138224008Y-44590568D01*
X138448632Y-44663553D01*
X138448633Y-44663553D01*
X138448636Y-44663554D01*
X138681905Y-44700500D01*
X138681908Y-44700500D01*
X138918095Y-44700500D01*
X139151363Y-44663554D01*
X139151364Y-44663553D01*
X139151368Y-44663553D01*
X139375992Y-44590568D01*
X139586433Y-44483343D01*
X139777510Y-44344517D01*
X139944517Y-44177510D01*
X139989908Y-44115033D01*
X140039407Y-44079071D01*
X140100593Y-44079071D01*
X140149691Y-44114487D01*
G37*
%TD.AperFunction*%
%TA.AperFunction,Conductor*%
G36*
X125733274Y-18558707D02*
G01*
X125769238Y-18608207D01*
X125769238Y-18669391D01*
X125767509Y-18674713D01*
X125731521Y-18785470D01*
X125699500Y-18987644D01*
X125699500Y-19192355D01*
X125731521Y-19394529D01*
X125794780Y-19589219D01*
X125887712Y-19771609D01*
X125887714Y-19771613D01*
X126008029Y-19937213D01*
X126008031Y-19937215D01*
X126008034Y-19937219D01*
X126152781Y-20081966D01*
X126152784Y-20081968D01*
X126152786Y-20081970D01*
X126258690Y-20158912D01*
X126294654Y-20208411D01*
X126299500Y-20239005D01*
X126299500Y-20480993D01*
X126280593Y-20539184D01*
X126258691Y-20561085D01*
X126152784Y-20638031D01*
X126008029Y-20782786D01*
X125887714Y-20948386D01*
X125887712Y-20948390D01*
X125794780Y-21130780D01*
X125731521Y-21325470D01*
X125699500Y-21527644D01*
X125699500Y-21732355D01*
X125731521Y-21934529D01*
X125794780Y-22129219D01*
X125887712Y-22311609D01*
X125887714Y-22311613D01*
X126008029Y-22477213D01*
X126008031Y-22477215D01*
X126008034Y-22477219D01*
X126152781Y-22621966D01*
X126152784Y-22621968D01*
X126152786Y-22621970D01*
X126258690Y-22698912D01*
X126294654Y-22748411D01*
X126299500Y-22779005D01*
X126299500Y-23020993D01*
X126280593Y-23079184D01*
X126258691Y-23101085D01*
X126152784Y-23178031D01*
X126008029Y-23322786D01*
X125887714Y-23488386D01*
X125887712Y-23488390D01*
X125794780Y-23670780D01*
X125731521Y-23865470D01*
X125699500Y-24067644D01*
X125699500Y-24272355D01*
X125719978Y-24401650D01*
X125710407Y-24462082D01*
X125692201Y-24487141D01*
X119697140Y-30482201D01*
X119642623Y-30509978D01*
X119611649Y-30509978D01*
X119482355Y-30489500D01*
X119482352Y-30489500D01*
X119277648Y-30489500D01*
X119277645Y-30489500D01*
X119075470Y-30521521D01*
X118880780Y-30584780D01*
X118698390Y-30677712D01*
X118698386Y-30677714D01*
X118532786Y-30798029D01*
X118532781Y-30798034D01*
X118388034Y-30942781D01*
X118311085Y-31048692D01*
X118261587Y-31084655D01*
X118230994Y-31089500D01*
X114191003Y-31089500D01*
X114055672Y-31116420D01*
X114055670Y-31116420D01*
X113928191Y-31169223D01*
X113813460Y-31245883D01*
X101663140Y-43396201D01*
X101608623Y-43423978D01*
X101577649Y-43423978D01*
X101448355Y-43403500D01*
X101448352Y-43403500D01*
X101243648Y-43403500D01*
X101243645Y-43403500D01*
X101041470Y-43435521D01*
X100846780Y-43498780D01*
X100664390Y-43591712D01*
X100664386Y-43591714D01*
X100498786Y-43712029D01*
X100354029Y-43856786D01*
X100233714Y-44022386D01*
X100233712Y-44022390D01*
X100140780Y-44204780D01*
X100077521Y-44399470D01*
X100045500Y-44601644D01*
X100045500Y-44806355D01*
X100057958Y-44885013D01*
X100048387Y-44945445D01*
X100005122Y-44988710D01*
X99960177Y-44999500D01*
X99090764Y-44999500D01*
X99032573Y-44980593D01*
X99020760Y-44970504D01*
X97339496Y-43289239D01*
X97311719Y-43234722D01*
X97310500Y-43219235D01*
X97310500Y-37507203D01*
X97329407Y-37449012D01*
X97351307Y-37427111D01*
X97424646Y-37373828D01*
X97563828Y-37234646D01*
X97679524Y-37075405D01*
X97768884Y-36900025D01*
X97829709Y-36712826D01*
X97841085Y-36641001D01*
X97860500Y-36518420D01*
X97860500Y-36321579D01*
X97829710Y-36127178D01*
X97828435Y-36123254D01*
X97775258Y-35959592D01*
X97775258Y-35898408D01*
X97811222Y-35848907D01*
X97869413Y-35830000D01*
X100030964Y-35830000D01*
X100030980Y-35830001D01*
X100037043Y-35830001D01*
X100195156Y-35830001D01*
X100195157Y-35830001D01*
X100347885Y-35789077D01*
X100385941Y-35767103D01*
X100398001Y-35760141D01*
X100398004Y-35760139D01*
X100402208Y-35757712D01*
X100484816Y-35710020D01*
X100596620Y-35598216D01*
X100596621Y-35598213D01*
X102197820Y-33997013D01*
X102252335Y-33969238D01*
X102312767Y-33978809D01*
X102356032Y-34022074D01*
X102365603Y-34082506D01*
X102361267Y-34099716D01*
X102316740Y-34226967D01*
X102247058Y-34532266D01*
X102212001Y-34843412D01*
X102212000Y-34843429D01*
X102212000Y-35156570D01*
X102212001Y-35156587D01*
X102247058Y-35467733D01*
X102316741Y-35773037D01*
X102420163Y-36068599D01*
X102529657Y-36295966D01*
X102556032Y-36350733D01*
X102722634Y-36615878D01*
X102722636Y-36615881D01*
X102722638Y-36615884D01*
X102917864Y-36860691D01*
X102917870Y-36860697D01*
X102917874Y-36860702D01*
X103139298Y-37082126D01*
X103139302Y-37082129D01*
X103139308Y-37082135D01*
X103384115Y-37277361D01*
X103384119Y-37277363D01*
X103384122Y-37277366D01*
X103649267Y-37443968D01*
X103931397Y-37579835D01*
X103931400Y-37579836D01*
X104226962Y-37683258D01*
X104226965Y-37683258D01*
X104226966Y-37683259D01*
X104532257Y-37752939D01*
X104532266Y-37752941D01*
X104818838Y-37785229D01*
X104843429Y-37788000D01*
X104843430Y-37788000D01*
X105156570Y-37788000D01*
X105156571Y-37788000D01*
X105213910Y-37781539D01*
X105467733Y-37752941D01*
X105467740Y-37752939D01*
X105467743Y-37752939D01*
X105773034Y-37683259D01*
X106068603Y-37579835D01*
X106350733Y-37443968D01*
X106615878Y-37277366D01*
X106750628Y-37169907D01*
X106860691Y-37082135D01*
X106860692Y-37082133D01*
X106860702Y-37082126D01*
X107082126Y-36860702D01*
X107105396Y-36831523D01*
X107277361Y-36615884D01*
X107277366Y-36615878D01*
X107443968Y-36350733D01*
X107579835Y-36068603D01*
X107683259Y-35773034D01*
X107752939Y-35467743D01*
X107752939Y-35467740D01*
X107752941Y-35467733D01*
X107781539Y-35213910D01*
X107788000Y-35156571D01*
X107788000Y-34843429D01*
X107783353Y-34802183D01*
X107752941Y-34532266D01*
X107730137Y-34432355D01*
X107683259Y-34226966D01*
X107668405Y-34184517D01*
X107579836Y-33931400D01*
X107551628Y-33872826D01*
X107443968Y-33649267D01*
X107277366Y-33384122D01*
X107277363Y-33384118D01*
X107277361Y-33384115D01*
X107082135Y-33139308D01*
X107082129Y-33139302D01*
X107082126Y-33139298D01*
X106860702Y-32917874D01*
X106860697Y-32917870D01*
X106860691Y-32917864D01*
X106615884Y-32722638D01*
X106615881Y-32722636D01*
X106615682Y-32722511D01*
X106350733Y-32556032D01*
X106307535Y-32535229D01*
X106068599Y-32420163D01*
X105773037Y-32316741D01*
X105467733Y-32247058D01*
X105156587Y-32212001D01*
X105156572Y-32212000D01*
X105156571Y-32212000D01*
X104843429Y-32212000D01*
X104843428Y-32212000D01*
X104843412Y-32212001D01*
X104532266Y-32247058D01*
X104226967Y-32316740D01*
X104099716Y-32361267D01*
X104038546Y-32362639D01*
X103988252Y-32327795D01*
X103968044Y-32270043D01*
X103985641Y-32211443D01*
X103997009Y-32197824D01*
X111395339Y-24799496D01*
X111449856Y-24771719D01*
X111465343Y-24770500D01*
X118165718Y-24770500D01*
X118223909Y-24789407D01*
X118253928Y-24824555D01*
X118267712Y-24851609D01*
X118267714Y-24851613D01*
X118388029Y-25017213D01*
X118388031Y-25017215D01*
X118388034Y-25017219D01*
X118532781Y-25161966D01*
X118532784Y-25161968D01*
X118532786Y-25161970D01*
X118698386Y-25282285D01*
X118698390Y-25282287D01*
X118834797Y-25351790D01*
X118878062Y-25395055D01*
X118887633Y-25455487D01*
X118859856Y-25510004D01*
X118834797Y-25528210D01*
X118698390Y-25597712D01*
X118698386Y-25597714D01*
X118532786Y-25718029D01*
X118388029Y-25862786D01*
X118267714Y-26028386D01*
X118267712Y-26028390D01*
X118174780Y-26210780D01*
X118111521Y-26405470D01*
X118079500Y-26607644D01*
X118079500Y-26812355D01*
X118111521Y-27014529D01*
X118174780Y-27209219D01*
X118267712Y-27391609D01*
X118267714Y-27391613D01*
X118388029Y-27557213D01*
X118388031Y-27557215D01*
X118388034Y-27557219D01*
X118532781Y-27701966D01*
X118532784Y-27701968D01*
X118532786Y-27701970D01*
X118698386Y-27822285D01*
X118698390Y-27822287D01*
X118880781Y-27915220D01*
X119075466Y-27978477D01*
X119075467Y-27978477D01*
X119075470Y-27978478D01*
X119277645Y-28010500D01*
X119277648Y-28010500D01*
X119482355Y-28010500D01*
X119684529Y-27978478D01*
X119684530Y-27978477D01*
X119684534Y-27978477D01*
X119879219Y-27915220D01*
X120061610Y-27822287D01*
X120227219Y-27701966D01*
X120371966Y-27557219D01*
X120492287Y-27391610D01*
X120585220Y-27209219D01*
X120648477Y-27014534D01*
X120659011Y-26948029D01*
X120680500Y-26812355D01*
X120680500Y-26607644D01*
X120648478Y-26405470D01*
X120646863Y-26400499D01*
X120585220Y-26210781D01*
X120492287Y-26028390D01*
X120492285Y-26028386D01*
X120371970Y-25862786D01*
X120371968Y-25862784D01*
X120371966Y-25862781D01*
X120227219Y-25718034D01*
X120227215Y-25718031D01*
X120227213Y-25718029D01*
X120061613Y-25597714D01*
X120061609Y-25597712D01*
X119945818Y-25538714D01*
X119925201Y-25528209D01*
X119881937Y-25484945D01*
X119872366Y-25424513D01*
X119900143Y-25369997D01*
X119925199Y-25351791D01*
X120061610Y-25282287D01*
X120070147Y-25276085D01*
X120227213Y-25161970D01*
X120227219Y-25161966D01*
X120371966Y-25017219D01*
X120492287Y-24851610D01*
X120585220Y-24669219D01*
X120648477Y-24474534D01*
X120652130Y-24451472D01*
X120680500Y-24272355D01*
X120680500Y-24067644D01*
X120648478Y-23865470D01*
X120646664Y-23859886D01*
X120585220Y-23670781D01*
X120492287Y-23488390D01*
X120492285Y-23488386D01*
X120371970Y-23322786D01*
X120371968Y-23322784D01*
X120371966Y-23322781D01*
X120227219Y-23178034D01*
X120227215Y-23178031D01*
X120227213Y-23178029D01*
X120061613Y-23057714D01*
X120061609Y-23057712D01*
X119989543Y-23020993D01*
X119925201Y-22988209D01*
X119881937Y-22944945D01*
X119872366Y-22884513D01*
X119900143Y-22829997D01*
X119925199Y-22811791D01*
X120061610Y-22742287D01*
X120227219Y-22621966D01*
X120371966Y-22477219D01*
X120492287Y-22311610D01*
X120585220Y-22129219D01*
X120648477Y-21934534D01*
X120680500Y-21732352D01*
X120680500Y-21527648D01*
X120680500Y-21527644D01*
X120648478Y-21325470D01*
X120648477Y-21325466D01*
X120585220Y-21130781D01*
X120492287Y-20948390D01*
X120492285Y-20948386D01*
X120371970Y-20782786D01*
X120371968Y-20782784D01*
X120371966Y-20782781D01*
X120227219Y-20638034D01*
X120227215Y-20638031D01*
X120227213Y-20638029D01*
X120061613Y-20517714D01*
X120061609Y-20517712D01*
X119989543Y-20480993D01*
X119925201Y-20448209D01*
X119881937Y-20404945D01*
X119872366Y-20344513D01*
X119900143Y-20289997D01*
X119925199Y-20271791D01*
X120061610Y-20202287D01*
X120227219Y-20081966D01*
X120371966Y-19937219D01*
X120492287Y-19771610D01*
X120585220Y-19589219D01*
X120648477Y-19394534D01*
X120680500Y-19192352D01*
X120680500Y-18987648D01*
X120680500Y-18987644D01*
X120648478Y-18785470D01*
X120612491Y-18674713D01*
X120610762Y-18669391D01*
X120610762Y-18608208D01*
X120646726Y-18558707D01*
X120704917Y-18539800D01*
X125675083Y-18539800D01*
X125733274Y-18558707D01*
G37*
%TD.AperFunction*%
%TD*%
M02*
