%TF.GenerationSoftware,KiCad,Pcbnew,10.0.0*%
%TF.CreationDate,2026-05-03T01:36:07-07:00*%
%TF.ProjectId,panel,70616e65-6c2e-46b6-9963-61645f706362,rev?*%
%TF.SameCoordinates,Original*%
%TF.FileFunction,Drillmap*%
%TF.FilePolarity,Positive*%
%FSLAX45Y45*%
G04 Gerber Fmt 4.5, Leading zero omitted, Abs format (unit mm)*
G04 Created by KiCad (PCBNEW 10.0.0) date 2026-05-03 01:36:07*
%MOMM*%
%LPD*%
G01*
G04 APERTURE LIST*
%ADD10C,0.050000*%
%ADD11C,0.200000*%
%ADD12C,0.300000*%
%ADD13C,0.320000*%
G04 APERTURE END LIST*
D10*
X1500000Y-1500000D02*
X1500000Y-5500000D01*
X1500000Y-5500000D02*
X17000000Y-5500000D01*
X17000000Y-1500000D02*
X1500000Y-1500000D01*
X17000000Y-5500000D02*
X17000000Y-1500000D01*
D11*
D12*
X4334000Y-2135000D02*
X4634000Y-2435000D01*
X4634000Y-2135000D02*
X4334000Y-2435000D01*
X4334000Y-4985000D02*
X4634000Y-5285000D01*
X4634000Y-4985000D02*
X4334000Y-5285000D01*
X13834000Y-2135000D02*
X14134000Y-2435000D01*
X14134000Y-2135000D02*
X13834000Y-2435000D01*
X13834000Y-4985000D02*
X14134000Y-5285000D01*
X14134000Y-4985000D02*
X13834000Y-5285000D01*
D13*
X2039600Y-1879600D02*
G75*
G02*
X1719600Y-1879600I-160000J0D01*
G01*
X1719600Y-1879600D02*
G75*
G02*
X2039600Y-1879600I160000J0D01*
G01*
X16771600Y-1879600D02*
G75*
G02*
X16451600Y-1879600I-160000J0D01*
G01*
X16451600Y-1879600D02*
G75*
G02*
X16771600Y-1879600I160000J0D01*
G01*
D11*
X1758277Y-5813984D02*
X1758277Y-5613984D01*
X1758277Y-5613984D02*
X1805896Y-5613984D01*
X1805896Y-5613984D02*
X1834467Y-5623508D01*
X1834467Y-5623508D02*
X1853515Y-5642555D01*
X1853515Y-5642555D02*
X1863039Y-5661603D01*
X1863039Y-5661603D02*
X1872562Y-5699698D01*
X1872562Y-5699698D02*
X1872562Y-5728269D01*
X1872562Y-5728269D02*
X1863039Y-5766365D01*
X1863039Y-5766365D02*
X1853515Y-5785412D01*
X1853515Y-5785412D02*
X1834467Y-5804460D01*
X1834467Y-5804460D02*
X1805896Y-5813984D01*
X1805896Y-5813984D02*
X1758277Y-5813984D01*
X1958277Y-5813984D02*
X1958277Y-5680650D01*
X1958277Y-5718746D02*
X1967801Y-5699698D01*
X1967801Y-5699698D02*
X1977324Y-5690174D01*
X1977324Y-5690174D02*
X1996372Y-5680650D01*
X1996372Y-5680650D02*
X2015420Y-5680650D01*
X2082086Y-5813984D02*
X2082086Y-5680650D01*
X2082086Y-5613984D02*
X2072562Y-5623508D01*
X2072562Y-5623508D02*
X2082086Y-5633031D01*
X2082086Y-5633031D02*
X2091610Y-5623508D01*
X2091610Y-5623508D02*
X2082086Y-5613984D01*
X2082086Y-5613984D02*
X2082086Y-5633031D01*
X2205896Y-5813984D02*
X2186848Y-5804460D01*
X2186848Y-5804460D02*
X2177324Y-5785412D01*
X2177324Y-5785412D02*
X2177324Y-5613984D01*
X2310658Y-5813984D02*
X2291610Y-5804460D01*
X2291610Y-5804460D02*
X2282086Y-5785412D01*
X2282086Y-5785412D02*
X2282086Y-5613984D01*
X2539229Y-5813984D02*
X2539229Y-5613984D01*
X2539229Y-5613984D02*
X2605896Y-5756841D01*
X2605896Y-5756841D02*
X2672563Y-5613984D01*
X2672563Y-5613984D02*
X2672563Y-5813984D01*
X2853515Y-5813984D02*
X2853515Y-5709222D01*
X2853515Y-5709222D02*
X2843991Y-5690174D01*
X2843991Y-5690174D02*
X2824943Y-5680650D01*
X2824943Y-5680650D02*
X2786848Y-5680650D01*
X2786848Y-5680650D02*
X2767801Y-5690174D01*
X2853515Y-5804460D02*
X2834467Y-5813984D01*
X2834467Y-5813984D02*
X2786848Y-5813984D01*
X2786848Y-5813984D02*
X2767801Y-5804460D01*
X2767801Y-5804460D02*
X2758277Y-5785412D01*
X2758277Y-5785412D02*
X2758277Y-5766365D01*
X2758277Y-5766365D02*
X2767801Y-5747317D01*
X2767801Y-5747317D02*
X2786848Y-5737793D01*
X2786848Y-5737793D02*
X2834467Y-5737793D01*
X2834467Y-5737793D02*
X2853515Y-5728269D01*
X2948753Y-5680650D02*
X2948753Y-5880650D01*
X2948753Y-5690174D02*
X2967801Y-5680650D01*
X2967801Y-5680650D02*
X3005896Y-5680650D01*
X3005896Y-5680650D02*
X3024943Y-5690174D01*
X3024943Y-5690174D02*
X3034467Y-5699698D01*
X3034467Y-5699698D02*
X3043991Y-5718746D01*
X3043991Y-5718746D02*
X3043991Y-5775888D01*
X3043991Y-5775888D02*
X3034467Y-5794936D01*
X3034467Y-5794936D02*
X3024943Y-5804460D01*
X3024943Y-5804460D02*
X3005896Y-5813984D01*
X3005896Y-5813984D02*
X2967801Y-5813984D01*
X2967801Y-5813984D02*
X2948753Y-5804460D01*
X3129705Y-5794936D02*
X3139229Y-5804460D01*
X3139229Y-5804460D02*
X3129705Y-5813984D01*
X3129705Y-5813984D02*
X3120182Y-5804460D01*
X3120182Y-5804460D02*
X3129705Y-5794936D01*
X3129705Y-5794936D02*
X3129705Y-5813984D01*
X3129705Y-5690174D02*
X3139229Y-5699698D01*
X3139229Y-5699698D02*
X3129705Y-5709222D01*
X3129705Y-5709222D02*
X3120182Y-5699698D01*
X3120182Y-5699698D02*
X3129705Y-5690174D01*
X3129705Y-5690174D02*
X3129705Y-5709222D01*
X1297500Y-6042500D02*
X1497500Y-6242500D01*
X1497500Y-6042500D02*
X1297500Y-6242500D01*
X1739229Y-6033984D02*
X1863039Y-6033984D01*
X1863039Y-6033984D02*
X1796372Y-6110174D01*
X1796372Y-6110174D02*
X1824943Y-6110174D01*
X1824943Y-6110174D02*
X1843991Y-6119698D01*
X1843991Y-6119698D02*
X1853515Y-6129222D01*
X1853515Y-6129222D02*
X1863039Y-6148269D01*
X1863039Y-6148269D02*
X1863039Y-6195888D01*
X1863039Y-6195888D02*
X1853515Y-6214936D01*
X1853515Y-6214936D02*
X1843991Y-6224460D01*
X1843991Y-6224460D02*
X1824943Y-6233984D01*
X1824943Y-6233984D02*
X1767801Y-6233984D01*
X1767801Y-6233984D02*
X1748753Y-6224460D01*
X1748753Y-6224460D02*
X1739229Y-6214936D01*
X1948753Y-6214936D02*
X1958277Y-6224460D01*
X1958277Y-6224460D02*
X1948753Y-6233984D01*
X1948753Y-6233984D02*
X1939229Y-6224460D01*
X1939229Y-6224460D02*
X1948753Y-6214936D01*
X1948753Y-6214936D02*
X1948753Y-6233984D01*
X2082086Y-6033984D02*
X2101134Y-6033984D01*
X2101134Y-6033984D02*
X2120182Y-6043508D01*
X2120182Y-6043508D02*
X2129705Y-6053031D01*
X2129705Y-6053031D02*
X2139229Y-6072079D01*
X2139229Y-6072079D02*
X2148753Y-6110174D01*
X2148753Y-6110174D02*
X2148753Y-6157793D01*
X2148753Y-6157793D02*
X2139229Y-6195888D01*
X2139229Y-6195888D02*
X2129705Y-6214936D01*
X2129705Y-6214936D02*
X2120182Y-6224460D01*
X2120182Y-6224460D02*
X2101134Y-6233984D01*
X2101134Y-6233984D02*
X2082086Y-6233984D01*
X2082086Y-6233984D02*
X2063039Y-6224460D01*
X2063039Y-6224460D02*
X2053515Y-6214936D01*
X2053515Y-6214936D02*
X2043991Y-6195888D01*
X2043991Y-6195888D02*
X2034467Y-6157793D01*
X2034467Y-6157793D02*
X2034467Y-6110174D01*
X2034467Y-6110174D02*
X2043991Y-6072079D01*
X2043991Y-6072079D02*
X2053515Y-6053031D01*
X2053515Y-6053031D02*
X2063039Y-6043508D01*
X2063039Y-6043508D02*
X2082086Y-6033984D01*
X2272563Y-6033984D02*
X2291610Y-6033984D01*
X2291610Y-6033984D02*
X2310658Y-6043508D01*
X2310658Y-6043508D02*
X2320182Y-6053031D01*
X2320182Y-6053031D02*
X2329705Y-6072079D01*
X2329705Y-6072079D02*
X2339229Y-6110174D01*
X2339229Y-6110174D02*
X2339229Y-6157793D01*
X2339229Y-6157793D02*
X2329705Y-6195888D01*
X2329705Y-6195888D02*
X2320182Y-6214936D01*
X2320182Y-6214936D02*
X2310658Y-6224460D01*
X2310658Y-6224460D02*
X2291610Y-6233984D01*
X2291610Y-6233984D02*
X2272563Y-6233984D01*
X2272563Y-6233984D02*
X2253515Y-6224460D01*
X2253515Y-6224460D02*
X2243991Y-6214936D01*
X2243991Y-6214936D02*
X2234467Y-6195888D01*
X2234467Y-6195888D02*
X2224944Y-6157793D01*
X2224944Y-6157793D02*
X2224944Y-6110174D01*
X2224944Y-6110174D02*
X2234467Y-6072079D01*
X2234467Y-6072079D02*
X2243991Y-6053031D01*
X2243991Y-6053031D02*
X2253515Y-6043508D01*
X2253515Y-6043508D02*
X2272563Y-6033984D01*
X2463039Y-6033984D02*
X2482086Y-6033984D01*
X2482086Y-6033984D02*
X2501134Y-6043508D01*
X2501134Y-6043508D02*
X2510658Y-6053031D01*
X2510658Y-6053031D02*
X2520182Y-6072079D01*
X2520182Y-6072079D02*
X2529705Y-6110174D01*
X2529705Y-6110174D02*
X2529705Y-6157793D01*
X2529705Y-6157793D02*
X2520182Y-6195888D01*
X2520182Y-6195888D02*
X2510658Y-6214936D01*
X2510658Y-6214936D02*
X2501134Y-6224460D01*
X2501134Y-6224460D02*
X2482086Y-6233984D01*
X2482086Y-6233984D02*
X2463039Y-6233984D01*
X2463039Y-6233984D02*
X2443991Y-6224460D01*
X2443991Y-6224460D02*
X2434467Y-6214936D01*
X2434467Y-6214936D02*
X2424944Y-6195888D01*
X2424944Y-6195888D02*
X2415420Y-6157793D01*
X2415420Y-6157793D02*
X2415420Y-6110174D01*
X2415420Y-6110174D02*
X2424944Y-6072079D01*
X2424944Y-6072079D02*
X2434467Y-6053031D01*
X2434467Y-6053031D02*
X2443991Y-6043508D01*
X2443991Y-6043508D02*
X2463039Y-6033984D01*
X2615420Y-6233984D02*
X2615420Y-6100650D01*
X2615420Y-6119698D02*
X2624944Y-6110174D01*
X2624944Y-6110174D02*
X2643991Y-6100650D01*
X2643991Y-6100650D02*
X2672563Y-6100650D01*
X2672563Y-6100650D02*
X2691610Y-6110174D01*
X2691610Y-6110174D02*
X2701134Y-6129222D01*
X2701134Y-6129222D02*
X2701134Y-6233984D01*
X2701134Y-6129222D02*
X2710658Y-6110174D01*
X2710658Y-6110174D02*
X2729705Y-6100650D01*
X2729705Y-6100650D02*
X2758277Y-6100650D01*
X2758277Y-6100650D02*
X2777325Y-6110174D01*
X2777325Y-6110174D02*
X2786848Y-6129222D01*
X2786848Y-6129222D02*
X2786848Y-6233984D01*
X2882086Y-6233984D02*
X2882086Y-6100650D01*
X2882086Y-6119698D02*
X2891610Y-6110174D01*
X2891610Y-6110174D02*
X2910658Y-6100650D01*
X2910658Y-6100650D02*
X2939229Y-6100650D01*
X2939229Y-6100650D02*
X2958277Y-6110174D01*
X2958277Y-6110174D02*
X2967801Y-6129222D01*
X2967801Y-6129222D02*
X2967801Y-6233984D01*
X2967801Y-6129222D02*
X2977324Y-6110174D01*
X2977324Y-6110174D02*
X2996372Y-6100650D01*
X2996372Y-6100650D02*
X3024943Y-6100650D01*
X3024943Y-6100650D02*
X3043991Y-6110174D01*
X3043991Y-6110174D02*
X3053515Y-6129222D01*
X3053515Y-6129222D02*
X3053515Y-6233984D01*
X3443991Y-6024460D02*
X3272563Y-6281603D01*
X3701134Y-6033984D02*
X3720182Y-6033984D01*
X3720182Y-6033984D02*
X3739229Y-6043508D01*
X3739229Y-6043508D02*
X3748753Y-6053031D01*
X3748753Y-6053031D02*
X3758277Y-6072079D01*
X3758277Y-6072079D02*
X3767801Y-6110174D01*
X3767801Y-6110174D02*
X3767801Y-6157793D01*
X3767801Y-6157793D02*
X3758277Y-6195888D01*
X3758277Y-6195888D02*
X3748753Y-6214936D01*
X3748753Y-6214936D02*
X3739229Y-6224460D01*
X3739229Y-6224460D02*
X3720182Y-6233984D01*
X3720182Y-6233984D02*
X3701134Y-6233984D01*
X3701134Y-6233984D02*
X3682086Y-6224460D01*
X3682086Y-6224460D02*
X3672563Y-6214936D01*
X3672563Y-6214936D02*
X3663039Y-6195888D01*
X3663039Y-6195888D02*
X3653515Y-6157793D01*
X3653515Y-6157793D02*
X3653515Y-6110174D01*
X3653515Y-6110174D02*
X3663039Y-6072079D01*
X3663039Y-6072079D02*
X3672563Y-6053031D01*
X3672563Y-6053031D02*
X3682086Y-6043508D01*
X3682086Y-6043508D02*
X3701134Y-6033984D01*
X3853515Y-6214936D02*
X3863039Y-6224460D01*
X3863039Y-6224460D02*
X3853515Y-6233984D01*
X3853515Y-6233984D02*
X3843991Y-6224460D01*
X3843991Y-6224460D02*
X3853515Y-6214936D01*
X3853515Y-6214936D02*
X3853515Y-6233984D01*
X4053515Y-6233984D02*
X3939229Y-6233984D01*
X3996372Y-6233984D02*
X3996372Y-6033984D01*
X3996372Y-6033984D02*
X3977325Y-6062555D01*
X3977325Y-6062555D02*
X3958277Y-6081603D01*
X3958277Y-6081603D02*
X3939229Y-6091127D01*
X4243991Y-6233984D02*
X4129706Y-6233984D01*
X4186848Y-6233984D02*
X4186848Y-6033984D01*
X4186848Y-6033984D02*
X4167801Y-6062555D01*
X4167801Y-6062555D02*
X4148753Y-6081603D01*
X4148753Y-6081603D02*
X4129706Y-6091127D01*
X4358277Y-6119698D02*
X4339229Y-6110174D01*
X4339229Y-6110174D02*
X4329706Y-6100650D01*
X4329706Y-6100650D02*
X4320182Y-6081603D01*
X4320182Y-6081603D02*
X4320182Y-6072079D01*
X4320182Y-6072079D02*
X4329706Y-6053031D01*
X4329706Y-6053031D02*
X4339229Y-6043508D01*
X4339229Y-6043508D02*
X4358277Y-6033984D01*
X4358277Y-6033984D02*
X4396372Y-6033984D01*
X4396372Y-6033984D02*
X4415420Y-6043508D01*
X4415420Y-6043508D02*
X4424944Y-6053031D01*
X4424944Y-6053031D02*
X4434468Y-6072079D01*
X4434468Y-6072079D02*
X4434468Y-6081603D01*
X4434468Y-6081603D02*
X4424944Y-6100650D01*
X4424944Y-6100650D02*
X4415420Y-6110174D01*
X4415420Y-6110174D02*
X4396372Y-6119698D01*
X4396372Y-6119698D02*
X4358277Y-6119698D01*
X4358277Y-6119698D02*
X4339229Y-6129222D01*
X4339229Y-6129222D02*
X4329706Y-6138746D01*
X4329706Y-6138746D02*
X4320182Y-6157793D01*
X4320182Y-6157793D02*
X4320182Y-6195888D01*
X4320182Y-6195888D02*
X4329706Y-6214936D01*
X4329706Y-6214936D02*
X4339229Y-6224460D01*
X4339229Y-6224460D02*
X4358277Y-6233984D01*
X4358277Y-6233984D02*
X4396372Y-6233984D01*
X4396372Y-6233984D02*
X4415420Y-6224460D01*
X4415420Y-6224460D02*
X4424944Y-6214936D01*
X4424944Y-6214936D02*
X4434468Y-6195888D01*
X4434468Y-6195888D02*
X4434468Y-6157793D01*
X4434468Y-6157793D02*
X4424944Y-6138746D01*
X4424944Y-6138746D02*
X4415420Y-6129222D01*
X4415420Y-6129222D02*
X4396372Y-6119698D01*
X4624944Y-6233984D02*
X4510658Y-6233984D01*
X4567801Y-6233984D02*
X4567801Y-6033984D01*
X4567801Y-6033984D02*
X4548753Y-6062555D01*
X4548753Y-6062555D02*
X4529706Y-6081603D01*
X4529706Y-6081603D02*
X4510658Y-6091127D01*
X4701134Y-6033984D02*
X4701134Y-6072079D01*
X4777325Y-6033984D02*
X4777325Y-6072079D01*
X5072563Y-6310174D02*
X5063039Y-6300650D01*
X5063039Y-6300650D02*
X5043991Y-6272079D01*
X5043991Y-6272079D02*
X5034468Y-6253031D01*
X5034468Y-6253031D02*
X5024944Y-6224460D01*
X5024944Y-6224460D02*
X5015420Y-6176841D01*
X5015420Y-6176841D02*
X5015420Y-6138746D01*
X5015420Y-6138746D02*
X5024944Y-6091127D01*
X5024944Y-6091127D02*
X5034468Y-6062555D01*
X5034468Y-6062555D02*
X5043991Y-6043508D01*
X5043991Y-6043508D02*
X5063039Y-6014936D01*
X5063039Y-6014936D02*
X5072563Y-6005412D01*
X5234468Y-6100650D02*
X5234468Y-6233984D01*
X5186849Y-6024460D02*
X5139230Y-6167317D01*
X5139230Y-6167317D02*
X5263039Y-6167317D01*
X5491611Y-6233984D02*
X5491611Y-6033984D01*
X5577325Y-6233984D02*
X5577325Y-6129222D01*
X5577325Y-6129222D02*
X5567801Y-6110174D01*
X5567801Y-6110174D02*
X5548753Y-6100650D01*
X5548753Y-6100650D02*
X5520182Y-6100650D01*
X5520182Y-6100650D02*
X5501134Y-6110174D01*
X5501134Y-6110174D02*
X5491611Y-6119698D01*
X5701134Y-6233984D02*
X5682087Y-6224460D01*
X5682087Y-6224460D02*
X5672563Y-6214936D01*
X5672563Y-6214936D02*
X5663039Y-6195888D01*
X5663039Y-6195888D02*
X5663039Y-6138746D01*
X5663039Y-6138746D02*
X5672563Y-6119698D01*
X5672563Y-6119698D02*
X5682087Y-6110174D01*
X5682087Y-6110174D02*
X5701134Y-6100650D01*
X5701134Y-6100650D02*
X5729706Y-6100650D01*
X5729706Y-6100650D02*
X5748753Y-6110174D01*
X5748753Y-6110174D02*
X5758277Y-6119698D01*
X5758277Y-6119698D02*
X5767801Y-6138746D01*
X5767801Y-6138746D02*
X5767801Y-6195888D01*
X5767801Y-6195888D02*
X5758277Y-6214936D01*
X5758277Y-6214936D02*
X5748753Y-6224460D01*
X5748753Y-6224460D02*
X5729706Y-6233984D01*
X5729706Y-6233984D02*
X5701134Y-6233984D01*
X5882087Y-6233984D02*
X5863039Y-6224460D01*
X5863039Y-6224460D02*
X5853515Y-6205412D01*
X5853515Y-6205412D02*
X5853515Y-6033984D01*
X6034468Y-6224460D02*
X6015420Y-6233984D01*
X6015420Y-6233984D02*
X5977325Y-6233984D01*
X5977325Y-6233984D02*
X5958277Y-6224460D01*
X5958277Y-6224460D02*
X5948753Y-6205412D01*
X5948753Y-6205412D02*
X5948753Y-6129222D01*
X5948753Y-6129222D02*
X5958277Y-6110174D01*
X5958277Y-6110174D02*
X5977325Y-6100650D01*
X5977325Y-6100650D02*
X6015420Y-6100650D01*
X6015420Y-6100650D02*
X6034468Y-6110174D01*
X6034468Y-6110174D02*
X6043991Y-6129222D01*
X6043991Y-6129222D02*
X6043991Y-6148269D01*
X6043991Y-6148269D02*
X5948753Y-6167317D01*
X6120182Y-6224460D02*
X6139230Y-6233984D01*
X6139230Y-6233984D02*
X6177325Y-6233984D01*
X6177325Y-6233984D02*
X6196372Y-6224460D01*
X6196372Y-6224460D02*
X6205896Y-6205412D01*
X6205896Y-6205412D02*
X6205896Y-6195888D01*
X6205896Y-6195888D02*
X6196372Y-6176841D01*
X6196372Y-6176841D02*
X6177325Y-6167317D01*
X6177325Y-6167317D02*
X6148753Y-6167317D01*
X6148753Y-6167317D02*
X6129706Y-6157793D01*
X6129706Y-6157793D02*
X6120182Y-6138746D01*
X6120182Y-6138746D02*
X6120182Y-6129222D01*
X6120182Y-6129222D02*
X6129706Y-6110174D01*
X6129706Y-6110174D02*
X6148753Y-6100650D01*
X6148753Y-6100650D02*
X6177325Y-6100650D01*
X6177325Y-6100650D02*
X6196372Y-6110174D01*
X6272563Y-6310174D02*
X6282087Y-6300650D01*
X6282087Y-6300650D02*
X6301134Y-6272079D01*
X6301134Y-6272079D02*
X6310658Y-6253031D01*
X6310658Y-6253031D02*
X6320182Y-6224460D01*
X6320182Y-6224460D02*
X6329706Y-6176841D01*
X6329706Y-6176841D02*
X6329706Y-6138746D01*
X6329706Y-6138746D02*
X6320182Y-6091127D01*
X6320182Y-6091127D02*
X6310658Y-6062555D01*
X6310658Y-6062555D02*
X6301134Y-6043508D01*
X6301134Y-6043508D02*
X6282087Y-6014936D01*
X6282087Y-6014936D02*
X6272563Y-6005412D01*
X6634468Y-6310174D02*
X6624944Y-6300650D01*
X6624944Y-6300650D02*
X6605896Y-6272079D01*
X6605896Y-6272079D02*
X6596372Y-6253031D01*
X6596372Y-6253031D02*
X6586849Y-6224460D01*
X6586849Y-6224460D02*
X6577325Y-6176841D01*
X6577325Y-6176841D02*
X6577325Y-6138746D01*
X6577325Y-6138746D02*
X6586849Y-6091127D01*
X6586849Y-6091127D02*
X6596372Y-6062555D01*
X6596372Y-6062555D02*
X6605896Y-6043508D01*
X6605896Y-6043508D02*
X6624944Y-6014936D01*
X6624944Y-6014936D02*
X6634468Y-6005412D01*
X6710658Y-6100650D02*
X6710658Y-6233984D01*
X6710658Y-6119698D02*
X6720182Y-6110174D01*
X6720182Y-6110174D02*
X6739230Y-6100650D01*
X6739230Y-6100650D02*
X6767801Y-6100650D01*
X6767801Y-6100650D02*
X6786849Y-6110174D01*
X6786849Y-6110174D02*
X6796372Y-6129222D01*
X6796372Y-6129222D02*
X6796372Y-6233984D01*
X6920182Y-6233984D02*
X6901134Y-6224460D01*
X6901134Y-6224460D02*
X6891611Y-6214936D01*
X6891611Y-6214936D02*
X6882087Y-6195888D01*
X6882087Y-6195888D02*
X6882087Y-6138746D01*
X6882087Y-6138746D02*
X6891611Y-6119698D01*
X6891611Y-6119698D02*
X6901134Y-6110174D01*
X6901134Y-6110174D02*
X6920182Y-6100650D01*
X6920182Y-6100650D02*
X6948753Y-6100650D01*
X6948753Y-6100650D02*
X6967801Y-6110174D01*
X6967801Y-6110174D02*
X6977325Y-6119698D01*
X6977325Y-6119698D02*
X6986849Y-6138746D01*
X6986849Y-6138746D02*
X6986849Y-6195888D01*
X6986849Y-6195888D02*
X6977325Y-6214936D01*
X6977325Y-6214936D02*
X6967801Y-6224460D01*
X6967801Y-6224460D02*
X6948753Y-6233984D01*
X6948753Y-6233984D02*
X6920182Y-6233984D01*
X7043992Y-6100650D02*
X7120182Y-6100650D01*
X7072563Y-6033984D02*
X7072563Y-6205412D01*
X7072563Y-6205412D02*
X7082087Y-6224460D01*
X7082087Y-6224460D02*
X7101134Y-6233984D01*
X7101134Y-6233984D02*
X7120182Y-6233984D01*
X7339230Y-6100650D02*
X7339230Y-6300650D01*
X7339230Y-6110174D02*
X7358277Y-6100650D01*
X7358277Y-6100650D02*
X7396373Y-6100650D01*
X7396373Y-6100650D02*
X7415420Y-6110174D01*
X7415420Y-6110174D02*
X7424944Y-6119698D01*
X7424944Y-6119698D02*
X7434468Y-6138746D01*
X7434468Y-6138746D02*
X7434468Y-6195888D01*
X7434468Y-6195888D02*
X7424944Y-6214936D01*
X7424944Y-6214936D02*
X7415420Y-6224460D01*
X7415420Y-6224460D02*
X7396373Y-6233984D01*
X7396373Y-6233984D02*
X7358277Y-6233984D01*
X7358277Y-6233984D02*
X7339230Y-6224460D01*
X7548753Y-6233984D02*
X7529706Y-6224460D01*
X7529706Y-6224460D02*
X7520182Y-6205412D01*
X7520182Y-6205412D02*
X7520182Y-6033984D01*
X7710658Y-6233984D02*
X7710658Y-6129222D01*
X7710658Y-6129222D02*
X7701134Y-6110174D01*
X7701134Y-6110174D02*
X7682087Y-6100650D01*
X7682087Y-6100650D02*
X7643992Y-6100650D01*
X7643992Y-6100650D02*
X7624944Y-6110174D01*
X7710658Y-6224460D02*
X7691611Y-6233984D01*
X7691611Y-6233984D02*
X7643992Y-6233984D01*
X7643992Y-6233984D02*
X7624944Y-6224460D01*
X7624944Y-6224460D02*
X7615420Y-6205412D01*
X7615420Y-6205412D02*
X7615420Y-6186365D01*
X7615420Y-6186365D02*
X7624944Y-6167317D01*
X7624944Y-6167317D02*
X7643992Y-6157793D01*
X7643992Y-6157793D02*
X7691611Y-6157793D01*
X7691611Y-6157793D02*
X7710658Y-6148269D01*
X7777325Y-6100650D02*
X7853515Y-6100650D01*
X7805896Y-6033984D02*
X7805896Y-6205412D01*
X7805896Y-6205412D02*
X7815420Y-6224460D01*
X7815420Y-6224460D02*
X7834468Y-6233984D01*
X7834468Y-6233984D02*
X7853515Y-6233984D01*
X7996373Y-6224460D02*
X7977325Y-6233984D01*
X7977325Y-6233984D02*
X7939230Y-6233984D01*
X7939230Y-6233984D02*
X7920182Y-6224460D01*
X7920182Y-6224460D02*
X7910658Y-6205412D01*
X7910658Y-6205412D02*
X7910658Y-6129222D01*
X7910658Y-6129222D02*
X7920182Y-6110174D01*
X7920182Y-6110174D02*
X7939230Y-6100650D01*
X7939230Y-6100650D02*
X7977325Y-6100650D01*
X7977325Y-6100650D02*
X7996373Y-6110174D01*
X7996373Y-6110174D02*
X8005896Y-6129222D01*
X8005896Y-6129222D02*
X8005896Y-6148269D01*
X8005896Y-6148269D02*
X7910658Y-6167317D01*
X8177325Y-6233984D02*
X8177325Y-6033984D01*
X8177325Y-6224460D02*
X8158277Y-6233984D01*
X8158277Y-6233984D02*
X8120182Y-6233984D01*
X8120182Y-6233984D02*
X8101134Y-6224460D01*
X8101134Y-6224460D02*
X8091611Y-6214936D01*
X8091611Y-6214936D02*
X8082087Y-6195888D01*
X8082087Y-6195888D02*
X8082087Y-6138746D01*
X8082087Y-6138746D02*
X8091611Y-6119698D01*
X8091611Y-6119698D02*
X8101134Y-6110174D01*
X8101134Y-6110174D02*
X8120182Y-6100650D01*
X8120182Y-6100650D02*
X8158277Y-6100650D01*
X8158277Y-6100650D02*
X8177325Y-6110174D01*
X8253515Y-6310174D02*
X8263039Y-6300650D01*
X8263039Y-6300650D02*
X8282087Y-6272079D01*
X8282087Y-6272079D02*
X8291611Y-6253031D01*
X8291611Y-6253031D02*
X8301134Y-6224460D01*
X8301134Y-6224460D02*
X8310658Y-6176841D01*
X8310658Y-6176841D02*
X8310658Y-6138746D01*
X8310658Y-6138746D02*
X8301134Y-6091127D01*
X8301134Y-6091127D02*
X8291611Y-6062555D01*
X8291611Y-6062555D02*
X8282087Y-6043508D01*
X8282087Y-6043508D02*
X8263039Y-6014936D01*
X8263039Y-6014936D02*
X8253515Y-6005412D01*
X1497500Y-6462500D02*
G75*
G02*
X1297500Y-6462500I-100000J0D01*
G01*
X1297500Y-6462500D02*
G75*
G02*
X1497500Y-6462500I100000J0D01*
G01*
X1739229Y-6353984D02*
X1863039Y-6353984D01*
X1863039Y-6353984D02*
X1796372Y-6430174D01*
X1796372Y-6430174D02*
X1824943Y-6430174D01*
X1824943Y-6430174D02*
X1843991Y-6439698D01*
X1843991Y-6439698D02*
X1853515Y-6449222D01*
X1853515Y-6449222D02*
X1863039Y-6468269D01*
X1863039Y-6468269D02*
X1863039Y-6515888D01*
X1863039Y-6515888D02*
X1853515Y-6534936D01*
X1853515Y-6534936D02*
X1843991Y-6544460D01*
X1843991Y-6544460D02*
X1824943Y-6553984D01*
X1824943Y-6553984D02*
X1767801Y-6553984D01*
X1767801Y-6553984D02*
X1748753Y-6544460D01*
X1748753Y-6544460D02*
X1739229Y-6534936D01*
X1948753Y-6534936D02*
X1958277Y-6544460D01*
X1958277Y-6544460D02*
X1948753Y-6553984D01*
X1948753Y-6553984D02*
X1939229Y-6544460D01*
X1939229Y-6544460D02*
X1948753Y-6534936D01*
X1948753Y-6534936D02*
X1948753Y-6553984D01*
X2034467Y-6373031D02*
X2043991Y-6363508D01*
X2043991Y-6363508D02*
X2063039Y-6353984D01*
X2063039Y-6353984D02*
X2110658Y-6353984D01*
X2110658Y-6353984D02*
X2129705Y-6363508D01*
X2129705Y-6363508D02*
X2139229Y-6373031D01*
X2139229Y-6373031D02*
X2148753Y-6392079D01*
X2148753Y-6392079D02*
X2148753Y-6411127D01*
X2148753Y-6411127D02*
X2139229Y-6439698D01*
X2139229Y-6439698D02*
X2024943Y-6553984D01*
X2024943Y-6553984D02*
X2148753Y-6553984D01*
X2272563Y-6353984D02*
X2291610Y-6353984D01*
X2291610Y-6353984D02*
X2310658Y-6363508D01*
X2310658Y-6363508D02*
X2320182Y-6373031D01*
X2320182Y-6373031D02*
X2329705Y-6392079D01*
X2329705Y-6392079D02*
X2339229Y-6430174D01*
X2339229Y-6430174D02*
X2339229Y-6477793D01*
X2339229Y-6477793D02*
X2329705Y-6515888D01*
X2329705Y-6515888D02*
X2320182Y-6534936D01*
X2320182Y-6534936D02*
X2310658Y-6544460D01*
X2310658Y-6544460D02*
X2291610Y-6553984D01*
X2291610Y-6553984D02*
X2272563Y-6553984D01*
X2272563Y-6553984D02*
X2253515Y-6544460D01*
X2253515Y-6544460D02*
X2243991Y-6534936D01*
X2243991Y-6534936D02*
X2234467Y-6515888D01*
X2234467Y-6515888D02*
X2224944Y-6477793D01*
X2224944Y-6477793D02*
X2224944Y-6430174D01*
X2224944Y-6430174D02*
X2234467Y-6392079D01*
X2234467Y-6392079D02*
X2243991Y-6373031D01*
X2243991Y-6373031D02*
X2253515Y-6363508D01*
X2253515Y-6363508D02*
X2272563Y-6353984D01*
X2463039Y-6353984D02*
X2482086Y-6353984D01*
X2482086Y-6353984D02*
X2501134Y-6363508D01*
X2501134Y-6363508D02*
X2510658Y-6373031D01*
X2510658Y-6373031D02*
X2520182Y-6392079D01*
X2520182Y-6392079D02*
X2529705Y-6430174D01*
X2529705Y-6430174D02*
X2529705Y-6477793D01*
X2529705Y-6477793D02*
X2520182Y-6515888D01*
X2520182Y-6515888D02*
X2510658Y-6534936D01*
X2510658Y-6534936D02*
X2501134Y-6544460D01*
X2501134Y-6544460D02*
X2482086Y-6553984D01*
X2482086Y-6553984D02*
X2463039Y-6553984D01*
X2463039Y-6553984D02*
X2443991Y-6544460D01*
X2443991Y-6544460D02*
X2434467Y-6534936D01*
X2434467Y-6534936D02*
X2424944Y-6515888D01*
X2424944Y-6515888D02*
X2415420Y-6477793D01*
X2415420Y-6477793D02*
X2415420Y-6430174D01*
X2415420Y-6430174D02*
X2424944Y-6392079D01*
X2424944Y-6392079D02*
X2434467Y-6373031D01*
X2434467Y-6373031D02*
X2443991Y-6363508D01*
X2443991Y-6363508D02*
X2463039Y-6353984D01*
X2615420Y-6553984D02*
X2615420Y-6420650D01*
X2615420Y-6439698D02*
X2624944Y-6430174D01*
X2624944Y-6430174D02*
X2643991Y-6420650D01*
X2643991Y-6420650D02*
X2672563Y-6420650D01*
X2672563Y-6420650D02*
X2691610Y-6430174D01*
X2691610Y-6430174D02*
X2701134Y-6449222D01*
X2701134Y-6449222D02*
X2701134Y-6553984D01*
X2701134Y-6449222D02*
X2710658Y-6430174D01*
X2710658Y-6430174D02*
X2729705Y-6420650D01*
X2729705Y-6420650D02*
X2758277Y-6420650D01*
X2758277Y-6420650D02*
X2777325Y-6430174D01*
X2777325Y-6430174D02*
X2786848Y-6449222D01*
X2786848Y-6449222D02*
X2786848Y-6553984D01*
X2882086Y-6553984D02*
X2882086Y-6420650D01*
X2882086Y-6439698D02*
X2891610Y-6430174D01*
X2891610Y-6430174D02*
X2910658Y-6420650D01*
X2910658Y-6420650D02*
X2939229Y-6420650D01*
X2939229Y-6420650D02*
X2958277Y-6430174D01*
X2958277Y-6430174D02*
X2967801Y-6449222D01*
X2967801Y-6449222D02*
X2967801Y-6553984D01*
X2967801Y-6449222D02*
X2977324Y-6430174D01*
X2977324Y-6430174D02*
X2996372Y-6420650D01*
X2996372Y-6420650D02*
X3024943Y-6420650D01*
X3024943Y-6420650D02*
X3043991Y-6430174D01*
X3043991Y-6430174D02*
X3053515Y-6449222D01*
X3053515Y-6449222D02*
X3053515Y-6553984D01*
X3443991Y-6344460D02*
X3272563Y-6601603D01*
X3701134Y-6353984D02*
X3720182Y-6353984D01*
X3720182Y-6353984D02*
X3739229Y-6363508D01*
X3739229Y-6363508D02*
X3748753Y-6373031D01*
X3748753Y-6373031D02*
X3758277Y-6392079D01*
X3758277Y-6392079D02*
X3767801Y-6430174D01*
X3767801Y-6430174D02*
X3767801Y-6477793D01*
X3767801Y-6477793D02*
X3758277Y-6515888D01*
X3758277Y-6515888D02*
X3748753Y-6534936D01*
X3748753Y-6534936D02*
X3739229Y-6544460D01*
X3739229Y-6544460D02*
X3720182Y-6553984D01*
X3720182Y-6553984D02*
X3701134Y-6553984D01*
X3701134Y-6553984D02*
X3682086Y-6544460D01*
X3682086Y-6544460D02*
X3672563Y-6534936D01*
X3672563Y-6534936D02*
X3663039Y-6515888D01*
X3663039Y-6515888D02*
X3653515Y-6477793D01*
X3653515Y-6477793D02*
X3653515Y-6430174D01*
X3653515Y-6430174D02*
X3663039Y-6392079D01*
X3663039Y-6392079D02*
X3672563Y-6373031D01*
X3672563Y-6373031D02*
X3682086Y-6363508D01*
X3682086Y-6363508D02*
X3701134Y-6353984D01*
X3853515Y-6534936D02*
X3863039Y-6544460D01*
X3863039Y-6544460D02*
X3853515Y-6553984D01*
X3853515Y-6553984D02*
X3843991Y-6544460D01*
X3843991Y-6544460D02*
X3853515Y-6534936D01*
X3853515Y-6534936D02*
X3853515Y-6553984D01*
X4053515Y-6553984D02*
X3939229Y-6553984D01*
X3996372Y-6553984D02*
X3996372Y-6353984D01*
X3996372Y-6353984D02*
X3977325Y-6382555D01*
X3977325Y-6382555D02*
X3958277Y-6401603D01*
X3958277Y-6401603D02*
X3939229Y-6411127D01*
X4129706Y-6373031D02*
X4139229Y-6363508D01*
X4139229Y-6363508D02*
X4158277Y-6353984D01*
X4158277Y-6353984D02*
X4205896Y-6353984D01*
X4205896Y-6353984D02*
X4224944Y-6363508D01*
X4224944Y-6363508D02*
X4234468Y-6373031D01*
X4234468Y-6373031D02*
X4243991Y-6392079D01*
X4243991Y-6392079D02*
X4243991Y-6411127D01*
X4243991Y-6411127D02*
X4234468Y-6439698D01*
X4234468Y-6439698D02*
X4120182Y-6553984D01*
X4120182Y-6553984D02*
X4243991Y-6553984D01*
X4415420Y-6353984D02*
X4377325Y-6353984D01*
X4377325Y-6353984D02*
X4358277Y-6363508D01*
X4358277Y-6363508D02*
X4348753Y-6373031D01*
X4348753Y-6373031D02*
X4329706Y-6401603D01*
X4329706Y-6401603D02*
X4320182Y-6439698D01*
X4320182Y-6439698D02*
X4320182Y-6515888D01*
X4320182Y-6515888D02*
X4329706Y-6534936D01*
X4329706Y-6534936D02*
X4339229Y-6544460D01*
X4339229Y-6544460D02*
X4358277Y-6553984D01*
X4358277Y-6553984D02*
X4396372Y-6553984D01*
X4396372Y-6553984D02*
X4415420Y-6544460D01*
X4415420Y-6544460D02*
X4424944Y-6534936D01*
X4424944Y-6534936D02*
X4434468Y-6515888D01*
X4434468Y-6515888D02*
X4434468Y-6468269D01*
X4434468Y-6468269D02*
X4424944Y-6449222D01*
X4424944Y-6449222D02*
X4415420Y-6439698D01*
X4415420Y-6439698D02*
X4396372Y-6430174D01*
X4396372Y-6430174D02*
X4358277Y-6430174D01*
X4358277Y-6430174D02*
X4339229Y-6439698D01*
X4339229Y-6439698D02*
X4329706Y-6449222D01*
X4329706Y-6449222D02*
X4320182Y-6468269D01*
X4558277Y-6353984D02*
X4577325Y-6353984D01*
X4577325Y-6353984D02*
X4596372Y-6363508D01*
X4596372Y-6363508D02*
X4605896Y-6373031D01*
X4605896Y-6373031D02*
X4615420Y-6392079D01*
X4615420Y-6392079D02*
X4624944Y-6430174D01*
X4624944Y-6430174D02*
X4624944Y-6477793D01*
X4624944Y-6477793D02*
X4615420Y-6515888D01*
X4615420Y-6515888D02*
X4605896Y-6534936D01*
X4605896Y-6534936D02*
X4596372Y-6544460D01*
X4596372Y-6544460D02*
X4577325Y-6553984D01*
X4577325Y-6553984D02*
X4558277Y-6553984D01*
X4558277Y-6553984D02*
X4539229Y-6544460D01*
X4539229Y-6544460D02*
X4529706Y-6534936D01*
X4529706Y-6534936D02*
X4520182Y-6515888D01*
X4520182Y-6515888D02*
X4510658Y-6477793D01*
X4510658Y-6477793D02*
X4510658Y-6430174D01*
X4510658Y-6430174D02*
X4520182Y-6392079D01*
X4520182Y-6392079D02*
X4529706Y-6373031D01*
X4529706Y-6373031D02*
X4539229Y-6363508D01*
X4539229Y-6363508D02*
X4558277Y-6353984D01*
X4701134Y-6353984D02*
X4701134Y-6392079D01*
X4777325Y-6353984D02*
X4777325Y-6392079D01*
X5072563Y-6630174D02*
X5063039Y-6620650D01*
X5063039Y-6620650D02*
X5043991Y-6592079D01*
X5043991Y-6592079D02*
X5034468Y-6573031D01*
X5034468Y-6573031D02*
X5024944Y-6544460D01*
X5024944Y-6544460D02*
X5015420Y-6496841D01*
X5015420Y-6496841D02*
X5015420Y-6458746D01*
X5015420Y-6458746D02*
X5024944Y-6411127D01*
X5024944Y-6411127D02*
X5034468Y-6382555D01*
X5034468Y-6382555D02*
X5043991Y-6363508D01*
X5043991Y-6363508D02*
X5063039Y-6334936D01*
X5063039Y-6334936D02*
X5072563Y-6325412D01*
X5139230Y-6373031D02*
X5148753Y-6363508D01*
X5148753Y-6363508D02*
X5167801Y-6353984D01*
X5167801Y-6353984D02*
X5215420Y-6353984D01*
X5215420Y-6353984D02*
X5234468Y-6363508D01*
X5234468Y-6363508D02*
X5243991Y-6373031D01*
X5243991Y-6373031D02*
X5253515Y-6392079D01*
X5253515Y-6392079D02*
X5253515Y-6411127D01*
X5253515Y-6411127D02*
X5243991Y-6439698D01*
X5243991Y-6439698D02*
X5129706Y-6553984D01*
X5129706Y-6553984D02*
X5253515Y-6553984D01*
X5491611Y-6553984D02*
X5491611Y-6353984D01*
X5577325Y-6553984D02*
X5577325Y-6449222D01*
X5577325Y-6449222D02*
X5567801Y-6430174D01*
X5567801Y-6430174D02*
X5548753Y-6420650D01*
X5548753Y-6420650D02*
X5520182Y-6420650D01*
X5520182Y-6420650D02*
X5501134Y-6430174D01*
X5501134Y-6430174D02*
X5491611Y-6439698D01*
X5701134Y-6553984D02*
X5682087Y-6544460D01*
X5682087Y-6544460D02*
X5672563Y-6534936D01*
X5672563Y-6534936D02*
X5663039Y-6515888D01*
X5663039Y-6515888D02*
X5663039Y-6458746D01*
X5663039Y-6458746D02*
X5672563Y-6439698D01*
X5672563Y-6439698D02*
X5682087Y-6430174D01*
X5682087Y-6430174D02*
X5701134Y-6420650D01*
X5701134Y-6420650D02*
X5729706Y-6420650D01*
X5729706Y-6420650D02*
X5748753Y-6430174D01*
X5748753Y-6430174D02*
X5758277Y-6439698D01*
X5758277Y-6439698D02*
X5767801Y-6458746D01*
X5767801Y-6458746D02*
X5767801Y-6515888D01*
X5767801Y-6515888D02*
X5758277Y-6534936D01*
X5758277Y-6534936D02*
X5748753Y-6544460D01*
X5748753Y-6544460D02*
X5729706Y-6553984D01*
X5729706Y-6553984D02*
X5701134Y-6553984D01*
X5882087Y-6553984D02*
X5863039Y-6544460D01*
X5863039Y-6544460D02*
X5853515Y-6525412D01*
X5853515Y-6525412D02*
X5853515Y-6353984D01*
X6034468Y-6544460D02*
X6015420Y-6553984D01*
X6015420Y-6553984D02*
X5977325Y-6553984D01*
X5977325Y-6553984D02*
X5958277Y-6544460D01*
X5958277Y-6544460D02*
X5948753Y-6525412D01*
X5948753Y-6525412D02*
X5948753Y-6449222D01*
X5948753Y-6449222D02*
X5958277Y-6430174D01*
X5958277Y-6430174D02*
X5977325Y-6420650D01*
X5977325Y-6420650D02*
X6015420Y-6420650D01*
X6015420Y-6420650D02*
X6034468Y-6430174D01*
X6034468Y-6430174D02*
X6043991Y-6449222D01*
X6043991Y-6449222D02*
X6043991Y-6468269D01*
X6043991Y-6468269D02*
X5948753Y-6487317D01*
X6120182Y-6544460D02*
X6139230Y-6553984D01*
X6139230Y-6553984D02*
X6177325Y-6553984D01*
X6177325Y-6553984D02*
X6196372Y-6544460D01*
X6196372Y-6544460D02*
X6205896Y-6525412D01*
X6205896Y-6525412D02*
X6205896Y-6515888D01*
X6205896Y-6515888D02*
X6196372Y-6496841D01*
X6196372Y-6496841D02*
X6177325Y-6487317D01*
X6177325Y-6487317D02*
X6148753Y-6487317D01*
X6148753Y-6487317D02*
X6129706Y-6477793D01*
X6129706Y-6477793D02*
X6120182Y-6458746D01*
X6120182Y-6458746D02*
X6120182Y-6449222D01*
X6120182Y-6449222D02*
X6129706Y-6430174D01*
X6129706Y-6430174D02*
X6148753Y-6420650D01*
X6148753Y-6420650D02*
X6177325Y-6420650D01*
X6177325Y-6420650D02*
X6196372Y-6430174D01*
X6272563Y-6630174D02*
X6282087Y-6620650D01*
X6282087Y-6620650D02*
X6301134Y-6592079D01*
X6301134Y-6592079D02*
X6310658Y-6573031D01*
X6310658Y-6573031D02*
X6320182Y-6544460D01*
X6320182Y-6544460D02*
X6329706Y-6496841D01*
X6329706Y-6496841D02*
X6329706Y-6458746D01*
X6329706Y-6458746D02*
X6320182Y-6411127D01*
X6320182Y-6411127D02*
X6310658Y-6382555D01*
X6310658Y-6382555D02*
X6301134Y-6363508D01*
X6301134Y-6363508D02*
X6282087Y-6334936D01*
X6282087Y-6334936D02*
X6272563Y-6325412D01*
X6634468Y-6630174D02*
X6624944Y-6620650D01*
X6624944Y-6620650D02*
X6605896Y-6592079D01*
X6605896Y-6592079D02*
X6596372Y-6573031D01*
X6596372Y-6573031D02*
X6586849Y-6544460D01*
X6586849Y-6544460D02*
X6577325Y-6496841D01*
X6577325Y-6496841D02*
X6577325Y-6458746D01*
X6577325Y-6458746D02*
X6586849Y-6411127D01*
X6586849Y-6411127D02*
X6596372Y-6382555D01*
X6596372Y-6382555D02*
X6605896Y-6363508D01*
X6605896Y-6363508D02*
X6624944Y-6334936D01*
X6624944Y-6334936D02*
X6634468Y-6325412D01*
X6710658Y-6420650D02*
X6710658Y-6553984D01*
X6710658Y-6439698D02*
X6720182Y-6430174D01*
X6720182Y-6430174D02*
X6739230Y-6420650D01*
X6739230Y-6420650D02*
X6767801Y-6420650D01*
X6767801Y-6420650D02*
X6786849Y-6430174D01*
X6786849Y-6430174D02*
X6796372Y-6449222D01*
X6796372Y-6449222D02*
X6796372Y-6553984D01*
X6920182Y-6553984D02*
X6901134Y-6544460D01*
X6901134Y-6544460D02*
X6891611Y-6534936D01*
X6891611Y-6534936D02*
X6882087Y-6515888D01*
X6882087Y-6515888D02*
X6882087Y-6458746D01*
X6882087Y-6458746D02*
X6891611Y-6439698D01*
X6891611Y-6439698D02*
X6901134Y-6430174D01*
X6901134Y-6430174D02*
X6920182Y-6420650D01*
X6920182Y-6420650D02*
X6948753Y-6420650D01*
X6948753Y-6420650D02*
X6967801Y-6430174D01*
X6967801Y-6430174D02*
X6977325Y-6439698D01*
X6977325Y-6439698D02*
X6986849Y-6458746D01*
X6986849Y-6458746D02*
X6986849Y-6515888D01*
X6986849Y-6515888D02*
X6977325Y-6534936D01*
X6977325Y-6534936D02*
X6967801Y-6544460D01*
X6967801Y-6544460D02*
X6948753Y-6553984D01*
X6948753Y-6553984D02*
X6920182Y-6553984D01*
X7043992Y-6420650D02*
X7120182Y-6420650D01*
X7072563Y-6353984D02*
X7072563Y-6525412D01*
X7072563Y-6525412D02*
X7082087Y-6544460D01*
X7082087Y-6544460D02*
X7101134Y-6553984D01*
X7101134Y-6553984D02*
X7120182Y-6553984D01*
X7339230Y-6420650D02*
X7339230Y-6620650D01*
X7339230Y-6430174D02*
X7358277Y-6420650D01*
X7358277Y-6420650D02*
X7396373Y-6420650D01*
X7396373Y-6420650D02*
X7415420Y-6430174D01*
X7415420Y-6430174D02*
X7424944Y-6439698D01*
X7424944Y-6439698D02*
X7434468Y-6458746D01*
X7434468Y-6458746D02*
X7434468Y-6515888D01*
X7434468Y-6515888D02*
X7424944Y-6534936D01*
X7424944Y-6534936D02*
X7415420Y-6544460D01*
X7415420Y-6544460D02*
X7396373Y-6553984D01*
X7396373Y-6553984D02*
X7358277Y-6553984D01*
X7358277Y-6553984D02*
X7339230Y-6544460D01*
X7548753Y-6553984D02*
X7529706Y-6544460D01*
X7529706Y-6544460D02*
X7520182Y-6525412D01*
X7520182Y-6525412D02*
X7520182Y-6353984D01*
X7710658Y-6553984D02*
X7710658Y-6449222D01*
X7710658Y-6449222D02*
X7701134Y-6430174D01*
X7701134Y-6430174D02*
X7682087Y-6420650D01*
X7682087Y-6420650D02*
X7643992Y-6420650D01*
X7643992Y-6420650D02*
X7624944Y-6430174D01*
X7710658Y-6544460D02*
X7691611Y-6553984D01*
X7691611Y-6553984D02*
X7643992Y-6553984D01*
X7643992Y-6553984D02*
X7624944Y-6544460D01*
X7624944Y-6544460D02*
X7615420Y-6525412D01*
X7615420Y-6525412D02*
X7615420Y-6506365D01*
X7615420Y-6506365D02*
X7624944Y-6487317D01*
X7624944Y-6487317D02*
X7643992Y-6477793D01*
X7643992Y-6477793D02*
X7691611Y-6477793D01*
X7691611Y-6477793D02*
X7710658Y-6468269D01*
X7777325Y-6420650D02*
X7853515Y-6420650D01*
X7805896Y-6353984D02*
X7805896Y-6525412D01*
X7805896Y-6525412D02*
X7815420Y-6544460D01*
X7815420Y-6544460D02*
X7834468Y-6553984D01*
X7834468Y-6553984D02*
X7853515Y-6553984D01*
X7996373Y-6544460D02*
X7977325Y-6553984D01*
X7977325Y-6553984D02*
X7939230Y-6553984D01*
X7939230Y-6553984D02*
X7920182Y-6544460D01*
X7920182Y-6544460D02*
X7910658Y-6525412D01*
X7910658Y-6525412D02*
X7910658Y-6449222D01*
X7910658Y-6449222D02*
X7920182Y-6430174D01*
X7920182Y-6430174D02*
X7939230Y-6420650D01*
X7939230Y-6420650D02*
X7977325Y-6420650D01*
X7977325Y-6420650D02*
X7996373Y-6430174D01*
X7996373Y-6430174D02*
X8005896Y-6449222D01*
X8005896Y-6449222D02*
X8005896Y-6468269D01*
X8005896Y-6468269D02*
X7910658Y-6487317D01*
X8177325Y-6553984D02*
X8177325Y-6353984D01*
X8177325Y-6544460D02*
X8158277Y-6553984D01*
X8158277Y-6553984D02*
X8120182Y-6553984D01*
X8120182Y-6553984D02*
X8101134Y-6544460D01*
X8101134Y-6544460D02*
X8091611Y-6534936D01*
X8091611Y-6534936D02*
X8082087Y-6515888D01*
X8082087Y-6515888D02*
X8082087Y-6458746D01*
X8082087Y-6458746D02*
X8091611Y-6439698D01*
X8091611Y-6439698D02*
X8101134Y-6430174D01*
X8101134Y-6430174D02*
X8120182Y-6420650D01*
X8120182Y-6420650D02*
X8158277Y-6420650D01*
X8158277Y-6420650D02*
X8177325Y-6430174D01*
X8253515Y-6630174D02*
X8263039Y-6620650D01*
X8263039Y-6620650D02*
X8282087Y-6592079D01*
X8282087Y-6592079D02*
X8291611Y-6573031D01*
X8291611Y-6573031D02*
X8301134Y-6544460D01*
X8301134Y-6544460D02*
X8310658Y-6496841D01*
X8310658Y-6496841D02*
X8310658Y-6458746D01*
X8310658Y-6458746D02*
X8301134Y-6411127D01*
X8301134Y-6411127D02*
X8291611Y-6382555D01*
X8291611Y-6382555D02*
X8282087Y-6363508D01*
X8282087Y-6363508D02*
X8263039Y-6334936D01*
X8263039Y-6334936D02*
X8253515Y-6325412D01*
M02*
