%TF.GenerationSoftware,KiCad,Pcbnew,10.0.0*%
%TF.CreationDate,2026-05-03T01:35:47-07:00*%
%TF.ProjectId,panel,70616e65-6c2e-46b6-9963-61645f706362,rev?*%
%TF.SameCoordinates,Original*%
%TF.FileFunction,Soldermask,Bot*%
%TF.FilePolarity,Negative*%
%FSLAX46Y46*%
G04 Gerber Fmt 4.6, Leading zero omitted, Abs format (unit mm)*
G04 Created by KiCad (PCBNEW 10.0.0) date 2026-05-03 01:35:47*
%MOMM*%
%LPD*%
G01*
G04 APERTURE LIST*
G04 Aperture macros list*
%AMRoundRect*
0 Rectangle with rounded corners*
0 $1 Rounding radius*
0 $2 $3 $4 $5 $6 $7 $8 $9 X,Y pos of 4 corners*
0 Add a 4 corners polygon primitive as box body*
4,1,4,$2,$3,$4,$5,$6,$7,$8,$9,$2,$3,0*
0 Add four circle primitives for the rounded corners*
1,1,$1+$1,$2,$3*
1,1,$1+$1,$4,$5*
1,1,$1+$1,$6,$7*
1,1,$1+$1,$8,$9*
0 Add four rect primitives between the rounded corners*
20,1,$1+$1,$2,$3,$4,$5,0*
20,1,$1+$1,$4,$5,$6,$7,0*
20,1,$1+$1,$6,$7,$8,$9,0*
20,1,$1+$1,$8,$9,$2,$3,0*%
G04 Aperture macros list end*
%ADD10C,3.200000*%
%ADD11C,2.000000*%
%ADD12C,3.000000*%
%ADD13C,1.600000*%
%ADD14C,4.575000*%
%ADD15C,1.500000*%
%ADD16R,1.500000X1.500000*%
%ADD17C,1.800000*%
%ADD18R,1.800000X1.800000*%
%ADD19RoundRect,0.250000X-0.550000X-0.550000X0.550000X-0.550000X0.550000X0.550000X-0.550000X0.550000X0*%
%ADD20C,4.500000*%
G04 APERTURE END LIST*
D10*
%TO.C,REF\u002A\u002A*%
X18796000Y-18796000D03*
%TD*%
%TO.C,REF\u002A\u002A*%
X166116000Y-18796000D03*
%TD*%
D11*
%TO.C,U3*%
X141340000Y-27960000D03*
X138800000Y-27960000D03*
X141340000Y-30500000D03*
X138800000Y-30500000D03*
X141340000Y-33040000D03*
X138800000Y-33040000D03*
X141340000Y-35580000D03*
X138800000Y-35580000D03*
X141340000Y-38120000D03*
X138800000Y-38120000D03*
X141340000Y-40660000D03*
X138800000Y-40660000D03*
X141340000Y-43200000D03*
X138800000Y-43200000D03*
X141340000Y-45740000D03*
X138800000Y-45740000D03*
D12*
X139840000Y-51350000D03*
X139840000Y-22850000D03*
X44840000Y-51350000D03*
X44840000Y-22850000D03*
%TD*%
D13*
%TO.C,C6*%
X154400000Y-31000000D03*
X159400000Y-31000000D03*
%TD*%
%TO.C,C7*%
X22400000Y-29800000D03*
X27400000Y-29800000D03*
%TD*%
%TO.C,C5*%
X162300000Y-31000000D03*
X167300000Y-31000000D03*
%TD*%
D14*
%TO.C,J1*%
X80000000Y-35000000D03*
X105000000Y-35000000D03*
D15*
X96610000Y-36420000D03*
X93870000Y-36420000D03*
X91130000Y-36420000D03*
X88390000Y-36420000D03*
X97980000Y-33580000D03*
X95240000Y-33580000D03*
X92500000Y-33580000D03*
X89760000Y-33580000D03*
D16*
X87020000Y-33580000D03*
%TD*%
D13*
%TO.C,R9*%
X44000000Y-41000000D03*
X51620000Y-41000000D03*
%TD*%
D17*
%TO.C,D1*%
X39565000Y-25000000D03*
D18*
X37025000Y-25000000D03*
%TD*%
%TO.C,D2*%
X37025000Y-32000000D03*
D17*
X39565000Y-32000000D03*
%TD*%
%TO.C,D3*%
X39565000Y-39000000D03*
D18*
X37025000Y-39000000D03*
%TD*%
D17*
%TO.C,D4*%
X39565000Y-46000000D03*
D18*
X37025000Y-46000000D03*
%TD*%
D15*
%TO.C,S1*%
X23500000Y-53100000D03*
X26000000Y-52280000D03*
X31860000Y-49050000D03*
X32800000Y-46800000D03*
X32800000Y-43800000D03*
X26500000Y-37500000D03*
X24000000Y-39520000D03*
X23500000Y-37500000D03*
X17200000Y-43800000D03*
X17200000Y-46800000D03*
X21200000Y-46800000D03*
%TD*%
D13*
%TO.C,R2*%
X72390000Y-38100000D03*
X64770000Y-38100000D03*
%TD*%
%TO.C,C2*%
X60880000Y-38100000D03*
X55880000Y-38100000D03*
%TD*%
%TO.C,R4*%
X72390000Y-27940000D03*
X64770000Y-27940000D03*
%TD*%
%TO.C,R1*%
X72390000Y-43180000D03*
X64770000Y-43180000D03*
%TD*%
%TO.C,C3*%
X60880000Y-33020000D03*
X55880000Y-33020000D03*
%TD*%
D19*
%TO.C,U2*%
X119380000Y-52110000D03*
D13*
X119380000Y-49570000D03*
X119380000Y-47030000D03*
X119380000Y-44490000D03*
X119380000Y-41950000D03*
X119380000Y-39410000D03*
X119380000Y-36870000D03*
X119380000Y-34330000D03*
X119380000Y-31790000D03*
X119380000Y-29250000D03*
X119380000Y-26710000D03*
X119380000Y-24170000D03*
X119380000Y-21630000D03*
X119380000Y-19090000D03*
X127000000Y-19090000D03*
X127000000Y-21630000D03*
X127000000Y-24170000D03*
X127000000Y-26710000D03*
X127000000Y-29250000D03*
X127000000Y-31790000D03*
X127000000Y-34330000D03*
X127000000Y-36870000D03*
X127000000Y-39410000D03*
X127000000Y-41950000D03*
X127000000Y-44490000D03*
X127000000Y-47030000D03*
X127000000Y-49570000D03*
X127000000Y-52110000D03*
%TD*%
%TO.C,C4*%
X60880000Y-27940000D03*
X55880000Y-27940000D03*
%TD*%
%TO.C,C1*%
X60880000Y-43180000D03*
X55880000Y-43180000D03*
%TD*%
%TO.C,R7*%
X51620000Y-27000000D03*
X44000000Y-27000000D03*
%TD*%
%TO.C,R10*%
X51620000Y-48000000D03*
X44000000Y-48000000D03*
%TD*%
%TO.C,R5*%
X83820000Y-44704000D03*
X91440000Y-44704000D03*
%TD*%
%TO.C,R8*%
X51620000Y-34000000D03*
X44000000Y-34000000D03*
%TD*%
%TO.C,R3*%
X72390000Y-33020000D03*
X64770000Y-33020000D03*
%TD*%
%TO.C,R6*%
X93726000Y-44704000D03*
X101346000Y-44704000D03*
%TD*%
D18*
%TO.C,U1*%
X158500000Y-53000000D03*
D17*
X158500000Y-36000000D03*
X163500000Y-53000000D03*
X163500000Y-36000000D03*
X161000000Y-53000000D03*
X161000000Y-36000000D03*
D20*
X155500000Y-45500000D03*
X166500000Y-45500000D03*
D17*
X158500000Y-38500000D03*
X163500000Y-38500000D03*
%TD*%
M02*
