%TF.GenerationSoftware,KiCad,Pcbnew,10.0.0*%
%TF.CreationDate,2026-05-03T01:35:46-07:00*%
%TF.ProjectId,panel,70616e65-6c2e-46b6-9963-61645f706362,rev?*%
%TF.SameCoordinates,Original*%
%TF.FileFunction,Copper,L1,Top*%
%TF.FilePolarity,Positive*%
%FSLAX46Y46*%
G04 Gerber Fmt 4.6, Leading zero omitted, Abs format (unit mm)*
G04 Created by KiCad (PCBNEW 10.0.0) date 2026-05-03 01:35:46*
%MOMM*%
%LPD*%
G01*
G04 APERTURE LIST*
G04 Aperture macros list*
%AMRoundRect*
0 Rectangle with rounded corners*
0 $1 Rounding radius*
0 $2 $3 $4 $5 $6 $7 $8 $9 X,Y pos of 4 corners*
0 Add a 4 corners polygon primitive as box body*
4,1,4,$2,$3,$4,$5,$6,$7,$8,$9,$2,$3,0*
0 Add four circle primitives for the rounded corners*
1,1,$1+$1,$2,$3*
1,1,$1+$1,$4,$5*
1,1,$1+$1,$6,$7*
1,1,$1+$1,$8,$9*
0 Add four rect primitives between the rounded corners*
20,1,$1+$1,$2,$3,$4,$5,0*
20,1,$1+$1,$4,$5,$6,$7,0*
20,1,$1+$1,$6,$7,$8,$9,0*
20,1,$1+$1,$8,$9,$2,$3,0*%
G04 Aperture macros list end*
%TA.AperFunction,ComponentPad*%
%ADD10C,2.000000*%
%TD*%
%TA.AperFunction,ComponentPad*%
%ADD11C,1.600000*%
%TD*%
%TA.AperFunction,ComponentPad*%
%ADD12C,4.575000*%
%TD*%
%TA.AperFunction,ComponentPad*%
%ADD13C,1.500000*%
%TD*%
%TA.AperFunction,ComponentPad*%
%ADD14R,1.500000X1.500000*%
%TD*%
%TA.AperFunction,ComponentPad*%
%ADD15C,1.800000*%
%TD*%
%TA.AperFunction,ComponentPad*%
%ADD16R,1.800000X1.800000*%
%TD*%
%TA.AperFunction,SMDPad,CuDef*%
%ADD17R,0.550000X0.300000*%
%TD*%
%TA.AperFunction,SMDPad,CuDef*%
%ADD18R,0.500000X0.350000*%
%TD*%
%TA.AperFunction,ComponentPad*%
%ADD19RoundRect,0.250000X-0.550000X-0.550000X0.550000X-0.550000X0.550000X0.550000X-0.550000X0.550000X0*%
%TD*%
%TA.AperFunction,ComponentPad*%
%ADD20C,4.500000*%
%TD*%
%TA.AperFunction,ViaPad*%
%ADD21C,1.200000*%
%TD*%
%TA.AperFunction,ViaPad*%
%ADD22C,0.600000*%
%TD*%
%TA.AperFunction,Conductor*%
%ADD23C,0.200000*%
%TD*%
%TA.AperFunction,Conductor*%
%ADD24C,0.400000*%
%TD*%
%TA.AperFunction,Conductor*%
%ADD25C,0.349800*%
%TD*%
%TA.AperFunction,Conductor*%
%ADD26C,0.299800*%
%TD*%
G04 APERTURE END LIST*
D10*
%TO.P,U3,16,CS$_16*%
%TO.N,CS*%
X141340000Y-27960000D03*
%TO.P,U3,15,RES#_15*%
%TO.N,RESET*%
X138800000Y-27960000D03*
%TO.P,U3,14,D/C#_14*%
%TO.N,DC*%
X141340000Y-30500000D03*
%TO.P,U3,13,R/W#_13*%
%TO.N,unconnected-(U3-R{slash}W#-Pad13)*%
X138800000Y-30500000D03*
%TO.P,U3,12,E/RD#_12*%
%TO.N,unconnected-(U3-E{slash}RD#-Pad12)*%
X141340000Y-33040000D03*
%TO.P,U3,11,D7_11*%
%TO.N,unconnected-(U3-D7-Pad11)*%
X138800000Y-33040000D03*
%TO.P,U3,10,D6_10*%
%TO.N,unconnected-(U3-D6-Pad10)*%
X141340000Y-35580000D03*
%TO.P,U3,9,D5_9*%
%TO.N,unconnected-(U3-D5-Pad9)*%
X138800000Y-35580000D03*
%TO.P,U3,8,D4_8*%
%TO.N,unconnected-(U3-D4-Pad8)*%
X141340000Y-38120000D03*
%TO.P,U3,7,D3_7*%
%TO.N,unconnected-(U3-D3-Pad7)*%
X138800000Y-38120000D03*
%TO.P,U3,6,D2_6*%
%TO.N,unconnected-(U3-D2-Pad6)*%
X141340000Y-40660000D03*
%TO.P,U3,5,D1/Din_5*%
%TO.N,SIN*%
X138800000Y-40660000D03*
%TO.P,U3,4,D0/Clk_4*%
%TO.N,SCLK*%
X141340000Y-43200000D03*
%TO.P,U3,3,NC_3*%
%TO.N,unconnected-(U3-NC-Pad3)*%
X138800000Y-43200000D03*
%TO.P,U3,2,Vcc_2*%
%TO.N,+3.3V*%
X141340000Y-45740000D03*
%TO.P,U3,1,Gnd_1*%
%TO.N,GND*%
X138800000Y-45740000D03*
%TD*%
D11*
%TO.P,C6,2*%
%TO.N,GND*%
X154400000Y-31000000D03*
%TO.P,C6,1*%
%TO.N,+3.3V*%
X159400000Y-31000000D03*
%TD*%
%TO.P,C7,2*%
%TO.N,GND*%
X22400000Y-29800000D03*
%TO.P,C7,1*%
%TO.N,+3.3V*%
X27400000Y-29800000D03*
%TD*%
%TO.P,C5,1*%
%TO.N,+3.3V*%
X162300000Y-31000000D03*
%TO.P,C5,2*%
%TO.N,GND*%
X167300000Y-31000000D03*
%TD*%
D12*
%TO.P,J1,MH2*%
%TO.N,N/C*%
X80000000Y-35000000D03*
%TO.P,J1,MH1*%
X105000000Y-35000000D03*
D13*
%TO.P,J1,9,9_9*%
%TO.N,+3.3V*%
X96610000Y-36420000D03*
%TO.P,J1,8,8_8*%
%TO.N,SCK*%
X93870000Y-36420000D03*
%TO.P,J1,7,7_7*%
%TO.N,SDA*%
X91130000Y-36420000D03*
%TO.P,J1,6,6_6*%
%TO.N,GND*%
X88390000Y-36420000D03*
%TO.P,J1,5,5_5*%
%TO.N,RESET*%
X97980000Y-33580000D03*
%TO.P,J1,4,4_4*%
%TO.N,DC*%
X95240000Y-33580000D03*
%TO.P,J1,3,3_3*%
%TO.N,CS*%
X92500000Y-33580000D03*
%TO.P,J1,2,2_2*%
%TO.N,SIN*%
X89760000Y-33580000D03*
D14*
%TO.P,J1,1,1_1*%
%TO.N,SCLK*%
X87020000Y-33580000D03*
%TD*%
D11*
%TO.P,R9,2*%
%TO.N,GND*%
X44000000Y-41000000D03*
%TO.P,R9,1*%
%TO.N,Net-(D3-K)*%
X51620000Y-41000000D03*
%TD*%
D15*
%TO.P,D1,2,A_2*%
%TO.N,Net-(D1-A)*%
X39565000Y-25000000D03*
D16*
%TO.P,D1,1,K_1*%
%TO.N,Net-(D1-K)*%
X37025000Y-25000000D03*
%TD*%
%TO.P,D2,1,K_1*%
%TO.N,Net-(D2-K)*%
X37025000Y-32000000D03*
D15*
%TO.P,D2,2,A_2*%
%TO.N,Net-(D2-A)*%
X39565000Y-32000000D03*
%TD*%
%TO.P,D3,2,A_2*%
%TO.N,Net-(D3-A)*%
X39565000Y-39000000D03*
D16*
%TO.P,D3,1,K_1*%
%TO.N,Net-(D3-K)*%
X37025000Y-39000000D03*
%TD*%
D15*
%TO.P,D4,2,A_2*%
%TO.N,Net-(D4-A)*%
X39565000Y-46000000D03*
D16*
%TO.P,D4,1,K_1*%
%TO.N,Net-(D4-K)*%
X37025000Y-46000000D03*
%TD*%
D13*
%TO.P,S1,1,A_1*%
%TO.N,Net-(S1-A)*%
X23500000Y-53100000D03*
%TO.P,S1,2,PUSH_2*%
%TO.N,Net-(S1-PUSH)*%
X26000000Y-52280000D03*
%TO.P,S1,3,GND_TERMINAL_3*%
%TO.N,GND*%
X31860000Y-49050000D03*
%TO.P,S1,4,B_4*%
%TO.N,Net-(S1-B)*%
X32800000Y-46800000D03*
%TO.P,S1,5,ENCODER_B_5*%
%TO.N,Net-(S1-ENCODER_B)*%
X32800000Y-43800000D03*
%TO.P,S1,6,C_6*%
%TO.N,Net-(S1-C)*%
X26500000Y-37500000D03*
%TO.P,S1,7,COM_7*%
%TO.N,GND*%
X24000000Y-39520000D03*
%TO.P,S1,8,ENCODER_COM_8*%
X23500000Y-37500000D03*
%TO.P,S1,9,D_9*%
%TO.N,Net-(S1-D)*%
X17200000Y-43800000D03*
%TO.P,S1,10,ENCODER_A_10*%
%TO.N,Net-(S1-ENCODER_A)*%
X17200000Y-46800000D03*
%TO.P,S1,11,Pos_11*%
%TO.N,unconnected-(S1-Pos-Pad11)*%
X21200000Y-46800000D03*
%TD*%
D17*
%TO.P,U5,1*%
%TO.N,GND*%
X23960000Y-24350000D03*
%TO.P,U5,2*%
%TO.N,SDA*%
X23960000Y-25000000D03*
%TO.P,U5,3*%
%TO.N,unconnected-(U5-Pad3)*%
X23960000Y-25650000D03*
%TO.P,U5,4*%
%TO.N,+3.3V*%
X25710000Y-25650000D03*
%TO.P,U5,5*%
%TO.N,SCK*%
X25710000Y-25000000D03*
%TO.P,U5,6*%
%TO.N,+3.3V*%
X25710000Y-24350000D03*
%TD*%
D18*
%TO.P,U4,1,GND_1*%
%TO.N,GND*%
X159500000Y-26450000D03*
%TO.P,U4,2,CSB_2*%
%TO.N,+3.3V*%
X159500000Y-25800000D03*
%TO.P,U4,3,SDI_3*%
%TO.N,SDA*%
X159500000Y-25150000D03*
%TO.P,U4,4,SCK_4*%
%TO.N,SCK*%
X159500000Y-24500000D03*
%TO.P,U4,5,SDO_5*%
%TO.N,+3.3V*%
X161550000Y-24500000D03*
%TO.P,U4,6,VDDIO_6*%
X161550000Y-25150000D03*
%TO.P,U4,7,GND_7*%
%TO.N,GND*%
X161550000Y-25800000D03*
%TO.P,U4,8,VDD_8*%
%TO.N,+3.3V*%
X161550000Y-26450000D03*
%TD*%
D11*
%TO.P,R2,1*%
%TO.N,Net-(U1-CCW_2)*%
X72390000Y-38100000D03*
%TO.P,R2,2*%
%TO.N,Net-(C2-Pad1)*%
X64770000Y-38100000D03*
%TD*%
%TO.P,C2,1*%
%TO.N,Net-(C2-Pad1)*%
X60880000Y-38100000D03*
%TO.P,C2,2*%
%TO.N,GND*%
X55880000Y-38100000D03*
%TD*%
%TO.P,R4,1*%
%TO.N,Net-(U1-CW_2)*%
X72390000Y-27940000D03*
%TO.P,R4,2*%
%TO.N,Net-(C4-Pad1)*%
X64770000Y-27940000D03*
%TD*%
%TO.P,R1,1*%
%TO.N,Net-(U1-CCW_1)*%
X72390000Y-43180000D03*
%TO.P,R1,2*%
%TO.N,Net-(C1-Pad1)*%
X64770000Y-43180000D03*
%TD*%
%TO.P,C3,1*%
%TO.N,Net-(C3-Pad1)*%
X60880000Y-33020000D03*
%TO.P,C3,2*%
%TO.N,GND*%
X55880000Y-33020000D03*
%TD*%
D19*
%TO.P,U2,1,GPB0_1*%
%TO.N,Net-(D4-A)*%
X119380000Y-52110000D03*
D11*
%TO.P,U2,2,GPB1_2*%
%TO.N,Net-(S1-PUSH)*%
X119380000Y-49570000D03*
%TO.P,U2,3,GPB2_3*%
%TO.N,Net-(S1-A)*%
X119380000Y-47030000D03*
%TO.P,U2,4,GPB3_4*%
%TO.N,Net-(S1-B)*%
X119380000Y-44490000D03*
%TO.P,U2,5,GPB4_5*%
%TO.N,Net-(S1-C)*%
X119380000Y-41950000D03*
%TO.P,U2,6,GPB5_6*%
%TO.N,Net-(S1-D)*%
X119380000Y-39410000D03*
%TO.P,U2,7,GPB6_7*%
%TO.N,Net-(S1-ENCODER_A)*%
X119380000Y-36870000D03*
%TO.P,U2,8,GPB7_8*%
%TO.N,Net-(S1-ENCODER_B)*%
X119380000Y-34330000D03*
%TO.P,U2,9,V_{DD}_9*%
%TO.N,+3.3V*%
X119380000Y-31790000D03*
%TO.P,U2,10,V_{SS}_10*%
%TO.N,GND*%
X119380000Y-29250000D03*
%TO.P,U2,11,NC_11*%
%TO.N,unconnected-(U2-NC-Pad11)*%
X119380000Y-26710000D03*
%TO.P,U2,12,SCK_12*%
%TO.N,SCK*%
X119380000Y-24170000D03*
%TO.P,U2,13,SDA_13*%
%TO.N,SDA*%
X119380000Y-21630000D03*
%TO.P,U2,14,NC_14*%
%TO.N,unconnected-(U2-NC-Pad14)*%
X119380000Y-19090000D03*
%TO.P,U2,15,A0_15*%
%TO.N,+3.3V*%
X127000000Y-19090000D03*
%TO.P,U2,16,A1_16*%
X127000000Y-21630000D03*
%TO.P,U2,17,A2_17*%
X127000000Y-24170000D03*
%TO.P,U2,18,~{RESET}_18*%
%TO.N,RESET*%
X127000000Y-26710000D03*
%TO.P,U2,19,INTB_19*%
%TO.N,unconnected-(U2-INTB-Pad19)*%
X127000000Y-29250000D03*
%TO.P,U2,20,INTA_20*%
%TO.N,unconnected-(U2-INTA-Pad20)*%
X127000000Y-31790000D03*
%TO.P,U2,21,GPA0_21*%
%TO.N,Net-(U1-CCW_1)*%
X127000000Y-34330000D03*
%TO.P,U2,22,GPA1_22*%
%TO.N,Net-(U1-CCW_2)*%
X127000000Y-36870000D03*
%TO.P,U2,23,GPA2_23*%
%TO.N,Net-(U1-CW_1)*%
X127000000Y-39410000D03*
%TO.P,U2,24,GPA3_24*%
%TO.N,Net-(U1-CW_2)*%
X127000000Y-41950000D03*
%TO.P,U2,25,GPA4_25*%
%TO.N,Net-(U1-W)*%
X127000000Y-44490000D03*
%TO.P,U2,26,GPA5_26*%
%TO.N,Net-(D1-A)*%
X127000000Y-47030000D03*
%TO.P,U2,27,GPA6_27*%
%TO.N,Net-(D2-A)*%
X127000000Y-49570000D03*
%TO.P,U2,28,GPA7_28*%
%TO.N,Net-(D3-A)*%
X127000000Y-52110000D03*
%TD*%
%TO.P,C4,1*%
%TO.N,Net-(C4-Pad1)*%
X60880000Y-27940000D03*
%TO.P,C4,2*%
%TO.N,GND*%
X55880000Y-27940000D03*
%TD*%
%TO.P,C1,1*%
%TO.N,Net-(C1-Pad1)*%
X60880000Y-43180000D03*
%TO.P,C1,2*%
%TO.N,GND*%
X55880000Y-43180000D03*
%TD*%
%TO.P,R7,1*%
%TO.N,Net-(D1-K)*%
X51620000Y-27000000D03*
%TO.P,R7,2*%
%TO.N,GND*%
X44000000Y-27000000D03*
%TD*%
%TO.P,R10,1*%
%TO.N,Net-(D4-K)*%
X51620000Y-48000000D03*
%TO.P,R10,2*%
%TO.N,GND*%
X44000000Y-48000000D03*
%TD*%
%TO.P,R5,1*%
%TO.N,SDA*%
X83820000Y-44704000D03*
%TO.P,R5,2*%
%TO.N,+3.3V*%
X91440000Y-44704000D03*
%TD*%
%TO.P,R8,1*%
%TO.N,Net-(D2-K)*%
X51620000Y-34000000D03*
%TO.P,R8,2*%
%TO.N,GND*%
X44000000Y-34000000D03*
%TD*%
%TO.P,R3,1*%
%TO.N,Net-(U1-CW_1)*%
X72390000Y-33020000D03*
%TO.P,R3,2*%
%TO.N,Net-(C3-Pad1)*%
X64770000Y-33020000D03*
%TD*%
%TO.P,R6,1*%
%TO.N,SCK*%
X93726000Y-44704000D03*
%TO.P,R6,2*%
%TO.N,+3.3V*%
X101346000Y-44704000D03*
%TD*%
D16*
%TO.P,U1,A1,CCW_1_A1*%
%TO.N,Net-(U1-CCW_1)*%
X158500000Y-53000000D03*
D15*
%TO.P,U1,A2,CCW_2_A2*%
%TO.N,Net-(U1-CCW_2)*%
X158500000Y-36000000D03*
%TO.P,U1,B1,CW_1_B1*%
%TO.N,Net-(U1-CW_1)*%
X163500000Y-53000000D03*
%TO.P,U1,B2,CW_2_B2*%
%TO.N,Net-(U1-CW_2)*%
X163500000Y-36000000D03*
%TO.P,U1,C1,WIPER_1_C1*%
%TO.N,GND*%
X161000000Y-53000000D03*
%TO.P,U1,C2,WIPER_2_C2*%
X161000000Y-36000000D03*
D20*
%TO.P,U1,MH1,MH1_MH1*%
%TO.N,unconnected-(U1-PadMH1)*%
X155500000Y-45500000D03*
%TO.P,U1,MH2,MH2_MH2*%
%TO.N,unconnected-(U1-PadMH2)*%
X166500000Y-45500000D03*
D15*
%TO.P,U1,S1,S_S1*%
%TO.N,GND*%
X158500000Y-38500000D03*
%TO.P,U1,W1,W_W1*%
%TO.N,Net-(U1-W)*%
X163500000Y-38500000D03*
%TD*%
D21*
%TO.N,GND*%
X167300000Y-28100000D03*
X154400000Y-27800000D03*
D22*
%TO.N,SIN*%
X88642100Y-39855400D03*
%TO.N,Net-(U1-CW_2)*%
X81161400Y-43072300D03*
X149113500Y-47167800D03*
%TO.N,Net-(U1-CW_1)*%
X85117500Y-43030800D03*
X132710000Y-45135400D03*
%TO.N,Net-(D2-A)*%
X58178200Y-47921200D03*
D21*
%TO.N,+3.3V*%
X28439400Y-24699300D03*
D22*
%TO.N,Net-(S1-ENCODER_A)*%
X106061400Y-42283300D03*
%TO.N,Net-(S1-D)*%
X117095700Y-38588500D03*
%TO.N,Net-(S1-C)*%
X115000000Y-38169400D03*
%TO.N,Net-(S1-ENCODER_B)*%
X108918100Y-41535800D03*
%TD*%
%TO.N,Net-(S1-C)*%
D23*
X115000000Y-38169400D02*
X114993900Y-38163300D01*
X114993900Y-38163300D02*
X76479900Y-38163300D01*
X76479900Y-38163300D02*
X75302800Y-36986200D01*
X75302800Y-36986200D02*
X27013800Y-36986200D01*
X27013800Y-36986200D02*
X26500000Y-37500000D01*
%TO.N,GND*%
D24*
X138800000Y-45740000D02*
X138800000Y-47800000D01*
X138800000Y-47800000D02*
X139000000Y-48000000D01*
X139000000Y-48000000D02*
X144891350Y-48000000D01*
X144891350Y-48000000D02*
X154391350Y-38500000D01*
X154391350Y-38500000D02*
X158500000Y-38500000D01*
%TO.N,Net-(U1-CW_2)*%
D23*
X149113500Y-47167800D02*
X147581300Y-48700000D01*
X147581300Y-48700000D02*
X137400000Y-48700000D01*
X137400000Y-48700000D02*
X132005000Y-43305000D01*
X132005000Y-43305000D02*
X127000000Y-43305000D01*
%TO.N,GND*%
D24*
X155750000Y-26450000D02*
X154400000Y-27800000D01*
X159500000Y-26450000D02*
X155750000Y-26450000D01*
%TO.N,Net-(C3-Pad1)*%
D23*
X60880000Y-33020000D02*
X64770000Y-33020000D01*
%TO.N,Net-(C1-Pad1)*%
X60880000Y-43180000D02*
X64770000Y-43180000D01*
%TO.N,Net-(C4-Pad1)*%
X60880000Y-27940000D02*
X64770000Y-27940000D01*
%TO.N,Net-(C2-Pad1)*%
X60880000Y-38100000D02*
X64770000Y-38100000D01*
%TO.N,CS*%
X138981800Y-25601800D02*
X141340000Y-27960000D01*
X124816600Y-25601800D02*
X138981800Y-25601800D01*
X122438400Y-27980000D02*
X124816600Y-25601800D01*
X98100000Y-27980000D02*
X122438400Y-27980000D01*
X92500000Y-33580000D02*
X98100000Y-27980000D01*
%TO.N,RESET*%
X137550000Y-26710000D02*
X138800000Y-27960000D01*
X127000000Y-26710000D02*
X137550000Y-26710000D01*
X123190000Y-30520000D02*
X127000000Y-26710000D01*
X101040000Y-30520000D02*
X123190000Y-30520000D01*
X97980000Y-33580000D02*
X101040000Y-30520000D01*
%TO.N,SIN*%
X136415000Y-38275000D02*
X138800000Y-40660000D01*
X118333600Y-38275000D02*
X136415000Y-38275000D01*
X116753200Y-39855400D02*
X118333600Y-38275000D01*
X88642100Y-39855400D02*
X116753200Y-39855400D01*
%TO.N,Net-(U1-CW_2)*%
X127000000Y-43305000D02*
X127000000Y-41950000D01*
X117699800Y-43305000D02*
X127000000Y-43305000D01*
X117504200Y-43500600D02*
X117699800Y-43305000D01*
X88092600Y-43500600D02*
X117504200Y-43500600D01*
X87935700Y-43657500D02*
X88092600Y-43500600D01*
X84459600Y-43657500D02*
X87935700Y-43657500D01*
X83874400Y-43072300D02*
X84459600Y-43657500D01*
X81161400Y-43072300D02*
X83874400Y-43072300D01*
%TO.N,Net-(U1-CW_1)*%
X116499200Y-43030800D02*
X85117500Y-43030800D01*
X118850000Y-40680000D02*
X116499200Y-43030800D01*
X125730000Y-40680000D02*
X118850000Y-40680000D01*
X127000000Y-39410000D02*
X125730000Y-40680000D01*
%TO.N,Net-(U1-CCW_2)*%
X73059400Y-38769400D02*
X72390000Y-38100000D01*
X115357600Y-38769400D02*
X73059400Y-38769400D01*
X118368300Y-35758700D02*
X115357600Y-38769400D01*
X125888700Y-35758700D02*
X118368300Y-35758700D01*
X127000000Y-36870000D02*
X125888700Y-35758700D01*
%TO.N,Net-(D2-A)*%
X116870200Y-47921200D02*
X58178200Y-47921200D01*
X118874800Y-45916600D02*
X116870200Y-47921200D01*
X123346600Y-45916600D02*
X118874800Y-45916600D01*
X127000000Y-49570000D02*
X123346600Y-45916600D01*
%TO.N,SCK*%
X142570600Y-24500000D02*
X159500000Y-24500000D01*
X142120600Y-24950000D02*
X142570600Y-24500000D01*
X132858800Y-24950000D02*
X142120600Y-24950000D01*
X130967500Y-23058700D02*
X132858800Y-24950000D01*
X120491300Y-23058700D02*
X130967500Y-23058700D01*
X119380000Y-24170000D02*
X120491300Y-23058700D01*
X26461700Y-25000000D02*
X25710000Y-25000000D01*
X27663400Y-26201700D02*
X26461700Y-25000000D01*
X40062800Y-26201700D02*
X27663400Y-26201700D01*
X40464700Y-25799800D02*
X40062800Y-26201700D01*
X117750200Y-25799800D02*
X40464700Y-25799800D01*
X119380000Y-24170000D02*
X117750200Y-25799800D01*
%TO.N,+3.3V*%
D24*
X160898300Y-26423300D02*
X160349800Y-25874800D01*
X160898300Y-26450000D02*
X160898300Y-26423300D01*
D25*
X159549800Y-25874800D02*
X159500000Y-25825000D01*
X160349800Y-25874800D02*
X159549800Y-25874800D01*
D24*
X159500000Y-25825000D02*
X159500000Y-25800000D01*
X161550000Y-25150000D02*
X161550000Y-24500000D01*
X161075200Y-24500000D02*
X160899800Y-24675400D01*
X161550000Y-24500000D02*
X161075200Y-24500000D01*
X159500000Y-25775000D02*
X159500000Y-25800000D01*
X161550000Y-26450000D02*
X161224200Y-26450000D01*
X161224200Y-26450000D02*
X160898300Y-26450000D01*
X161224200Y-29924200D02*
X162300000Y-31000000D01*
X161224200Y-26450000D02*
X161224200Y-29924200D01*
X25710000Y-25650000D02*
X26386700Y-25650000D01*
X162300000Y-31000000D02*
X159400000Y-31000000D01*
X26386700Y-28786700D02*
X27400000Y-29800000D01*
X26386700Y-25650000D02*
X26386700Y-28786700D01*
D25*
X160899800Y-24709800D02*
X160899800Y-24675400D01*
X159834600Y-25775000D02*
X160899800Y-24709800D01*
X159500000Y-25775000D02*
X159834600Y-25775000D01*
D24*
X28439400Y-24699300D02*
X28439400Y-24449800D01*
D26*
X26436400Y-24449800D02*
X26336600Y-24350000D01*
X28439400Y-24449800D02*
X26436400Y-24449800D01*
X25710000Y-24350000D02*
X26336600Y-24350000D01*
%TO.N,SDA*%
D23*
X23960000Y-25000000D02*
X24536700Y-25000000D01*
X118536300Y-20786300D02*
X119380000Y-21630000D01*
X28421900Y-20786300D02*
X118536300Y-20786300D01*
X24536700Y-24671500D02*
X28421900Y-20786300D01*
X24536700Y-25000000D02*
X24536700Y-24671500D01*
X159701700Y-25150000D02*
X159500000Y-25150000D01*
X160051700Y-24800000D02*
X159701700Y-25150000D01*
X160051700Y-24170900D02*
X160051700Y-24800000D01*
X156394000Y-20513200D02*
X160051700Y-24170900D01*
X120496800Y-20513200D02*
X156394000Y-20513200D01*
X119380000Y-21630000D02*
X120496800Y-20513200D01*
%TO.N,Net-(S1-ENCODER_A)*%
X19124600Y-44875400D02*
X17200000Y-46800000D01*
X33239500Y-44875400D02*
X19124600Y-44875400D01*
X33333600Y-44781300D02*
X33239500Y-44875400D01*
X72346800Y-44781300D02*
X33333600Y-44781300D01*
X74844800Y-42283300D02*
X72346800Y-44781300D01*
X106061400Y-42283300D02*
X74844800Y-42283300D01*
%TO.N,Net-(S1-D)*%
X116465700Y-39218500D02*
X117095700Y-38588500D01*
X55964700Y-39218500D02*
X116465700Y-39218500D01*
X52696800Y-42486400D02*
X55964700Y-39218500D01*
X18513600Y-42486400D02*
X52696800Y-42486400D01*
X17200000Y-43800000D02*
X18513600Y-42486400D01*
%TO.N,Net-(S1-ENCODER_B)*%
X55658000Y-41535800D02*
X108918100Y-41535800D01*
X53393800Y-43800000D02*
X55658000Y-41535800D01*
X32800000Y-43800000D02*
X53393800Y-43800000D01*
%TO.N,Net-(S1-B)*%
X33201700Y-47201700D02*
X32800000Y-46800000D01*
X41367600Y-47201700D02*
X33201700Y-47201700D01*
X42255700Y-46313600D02*
X41367600Y-47201700D01*
X117556400Y-46313600D02*
X42255700Y-46313600D01*
X119380000Y-44490000D02*
X117556400Y-46313600D01*
%TO.N,Net-(S1-PUSH)*%
X27148600Y-53428600D02*
X26000000Y-52280000D01*
X115521400Y-53428600D02*
X27148600Y-53428600D01*
X119380000Y-49570000D02*
X115521400Y-53428600D01*
%TO.N,Net-(S1-A)*%
X26441100Y-50158900D02*
X23500000Y-53100000D01*
X40279900Y-50158900D02*
X26441100Y-50158900D01*
X43578200Y-46860600D02*
X40279900Y-50158900D01*
X54124000Y-46860600D02*
X43578200Y-46860600D01*
X55791000Y-48527600D02*
X54124000Y-46860600D01*
X117882400Y-48527600D02*
X55791000Y-48527600D01*
X119380000Y-47030000D02*
X117882400Y-48527600D01*
%TO.N,GND*%
D24*
X165000000Y-25800000D02*
X167300000Y-28100000D01*
X161550000Y-25800000D02*
X165000000Y-25800000D01*
%TO.N,Net-(U1-CW_1)*%
D23*
X132710000Y-45135400D02*
X135927500Y-48352900D01*
X135927500Y-48352900D02*
X135952900Y-48352900D01*
X135952900Y-48352900D02*
X136700000Y-49100000D01*
X136700000Y-49100000D02*
X159600000Y-49100000D01*
X159600000Y-49100000D02*
X163500000Y-53000000D01*
%TD*%
%TA.AperFunction,Conductor*%
%TO.N,GND*%
G36*
X169458691Y-15519407D02*
G01*
X169494655Y-15568907D01*
X169499500Y-15599500D01*
X169499500Y-54400500D01*
X169480593Y-54458691D01*
X169431093Y-54494655D01*
X169400500Y-54499500D01*
X164042192Y-54499500D01*
X163984001Y-54480593D01*
X163948037Y-54431093D01*
X163948037Y-54369907D01*
X163984001Y-54320407D01*
X164011600Y-54306345D01*
X164024427Y-54302176D01*
X164037606Y-54297895D01*
X164234022Y-54197815D01*
X164412365Y-54068242D01*
X164568242Y-53912365D01*
X164697815Y-53734022D01*
X164797895Y-53537606D01*
X164866015Y-53327951D01*
X164886531Y-53198417D01*
X164900500Y-53110225D01*
X164900500Y-52889774D01*
X164872027Y-52710008D01*
X164866015Y-52672049D01*
X164797895Y-52462394D01*
X164697815Y-52265978D01*
X164568242Y-52087635D01*
X164412365Y-51931758D01*
X164234022Y-51802185D01*
X164234021Y-51802184D01*
X164234019Y-51802183D01*
X164116802Y-51742458D01*
X164037606Y-51702105D01*
X164037602Y-51702104D01*
X164037599Y-51702102D01*
X163827948Y-51633984D01*
X163610225Y-51599500D01*
X163610222Y-51599500D01*
X163389778Y-51599500D01*
X163389775Y-51599500D01*
X163172051Y-51633984D01*
X163087225Y-51661545D01*
X163026039Y-51661544D01*
X162986629Y-51637394D01*
X160080521Y-48731286D01*
X160080520Y-48731284D01*
X159968716Y-48619480D01*
X159881904Y-48569360D01*
X159881903Y-48569359D01*
X159831788Y-48540425D01*
X159831785Y-48540423D01*
X159679057Y-48499499D01*
X159520943Y-48499499D01*
X159514880Y-48499499D01*
X159514864Y-48499500D01*
X148870043Y-48499500D01*
X148811852Y-48480593D01*
X148775888Y-48431093D01*
X148775888Y-48369907D01*
X148800039Y-48330497D01*
X149133898Y-47996637D01*
X149187579Y-47969284D01*
X149187572Y-47969249D01*
X149187699Y-47969223D01*
X149188415Y-47968859D01*
X149191557Y-47968456D01*
X149192341Y-47968300D01*
X149192342Y-47968300D01*
X149346997Y-47937537D01*
X149492679Y-47877194D01*
X149623789Y-47789589D01*
X149735289Y-47678089D01*
X149822894Y-47546979D01*
X149883237Y-47401297D01*
X149914000Y-47246642D01*
X149914000Y-47088958D01*
X149883237Y-46934303D01*
X149862615Y-46884517D01*
X149822896Y-46788625D01*
X149822890Y-46788614D01*
X149764734Y-46701579D01*
X149735289Y-46657511D01*
X149623789Y-46546011D01*
X149565667Y-46507175D01*
X149492685Y-46458409D01*
X149492674Y-46458403D01*
X149346997Y-46398063D01*
X149192344Y-46367300D01*
X149192342Y-46367300D01*
X149034658Y-46367300D01*
X149034655Y-46367300D01*
X148880003Y-46398063D01*
X148880001Y-46398063D01*
X148734325Y-46458403D01*
X148734314Y-46458409D01*
X148603211Y-46546011D01*
X148603207Y-46546014D01*
X148491714Y-46657507D01*
X148491711Y-46657511D01*
X148404109Y-46788614D01*
X148404103Y-46788625D01*
X148343763Y-46934301D01*
X148343763Y-46934303D01*
X148312051Y-47093728D01*
X148310426Y-47093404D01*
X148288658Y-47143163D01*
X148284663Y-47147401D01*
X147361561Y-48070504D01*
X147307044Y-48098281D01*
X147291557Y-48099500D01*
X137689743Y-48099500D01*
X137631552Y-48080593D01*
X137619739Y-48070504D01*
X132485521Y-42936286D01*
X132485520Y-42936284D01*
X132373716Y-42824480D01*
X132373713Y-42824478D01*
X132285335Y-42773453D01*
X132285332Y-42773452D01*
X132236788Y-42745424D01*
X132236785Y-42745423D01*
X132084057Y-42704499D01*
X131925943Y-42704499D01*
X131919880Y-42704499D01*
X131919864Y-42704500D01*
X128236701Y-42704500D01*
X128178510Y-42685593D01*
X128142546Y-42636093D01*
X128142546Y-42574907D01*
X128148491Y-42560555D01*
X128154124Y-42549500D01*
X128205220Y-42449219D01*
X128268477Y-42254534D01*
X128269004Y-42251207D01*
X128300500Y-42052355D01*
X128300500Y-41847644D01*
X128268478Y-41645470D01*
X128258462Y-41614644D01*
X128205220Y-41450781D01*
X128112287Y-41268390D01*
X128112285Y-41268386D01*
X127991970Y-41102786D01*
X127991968Y-41102784D01*
X127991966Y-41102781D01*
X127847219Y-40958034D01*
X127847215Y-40958031D01*
X127847213Y-40958029D01*
X127681613Y-40837714D01*
X127681609Y-40837712D01*
X127564597Y-40778092D01*
X127545201Y-40768209D01*
X127501937Y-40724945D01*
X127492366Y-40664513D01*
X127520143Y-40609997D01*
X127545199Y-40591791D01*
X127681610Y-40522287D01*
X127847219Y-40401966D01*
X127991966Y-40257219D01*
X128112287Y-40091610D01*
X128205220Y-39909219D01*
X128268477Y-39714534D01*
X128273552Y-39682491D01*
X128300500Y-39512355D01*
X128300500Y-39307644D01*
X128279151Y-39172860D01*
X128268477Y-39105466D01*
X128235864Y-39005092D01*
X128235865Y-38943907D01*
X128271829Y-38894407D01*
X128330019Y-38875500D01*
X136125257Y-38875500D01*
X136183448Y-38894407D01*
X136195261Y-38904496D01*
X137358033Y-40067268D01*
X137385810Y-40121785D01*
X137382184Y-40167864D01*
X137336446Y-40308634D01*
X137299500Y-40541904D01*
X137299500Y-40778095D01*
X137336445Y-41011363D01*
X137409432Y-41235992D01*
X137505453Y-41424445D01*
X137516657Y-41446433D01*
X137655483Y-41637510D01*
X137822490Y-41804517D01*
X137822493Y-41804519D01*
X137822495Y-41804521D01*
X137884964Y-41849908D01*
X137920928Y-41899408D01*
X137920927Y-41960593D01*
X137884964Y-42010092D01*
X137822495Y-42055478D01*
X137655482Y-42222491D01*
X137516655Y-42413569D01*
X137409432Y-42624007D01*
X137336445Y-42848636D01*
X137299500Y-43081904D01*
X137299500Y-43318095D01*
X137336445Y-43551363D01*
X137409432Y-43775992D01*
X137513949Y-43981120D01*
X137516657Y-43986433D01*
X137655483Y-44177510D01*
X137822490Y-44344517D01*
X138013567Y-44483343D01*
X138224008Y-44590568D01*
X138448632Y-44663553D01*
X138448633Y-44663553D01*
X138448636Y-44663554D01*
X138681905Y-44700500D01*
X138681908Y-44700500D01*
X138918095Y-44700500D01*
X139151363Y-44663554D01*
X139151364Y-44663553D01*
X139151368Y-44663553D01*
X139375992Y-44590568D01*
X139586433Y-44483343D01*
X139777510Y-44344517D01*
X139944517Y-44177510D01*
X139989908Y-44115033D01*
X140039407Y-44079071D01*
X140100593Y-44079071D01*
X140150091Y-44115033D01*
X140195483Y-44177510D01*
X140362490Y-44344517D01*
X140362493Y-44344519D01*
X140362495Y-44344521D01*
X140424964Y-44389908D01*
X140460928Y-44439408D01*
X140460927Y-44500593D01*
X140424964Y-44550092D01*
X140362495Y-44595478D01*
X140195482Y-44762491D01*
X140056655Y-44953569D01*
X139949432Y-45164007D01*
X139876445Y-45388636D01*
X139839500Y-45621904D01*
X139839500Y-45858095D01*
X139876445Y-46091363D01*
X139949432Y-46315992D01*
X140052198Y-46517683D01*
X140056657Y-46526433D01*
X140195483Y-46717510D01*
X140362490Y-46884517D01*
X140553567Y-47023343D01*
X140764008Y-47130568D01*
X140988632Y-47203553D01*
X140988633Y-47203553D01*
X140988636Y-47203554D01*
X141221905Y-47240500D01*
X141221908Y-47240500D01*
X141458095Y-47240500D01*
X141691363Y-47203554D01*
X141691364Y-47203553D01*
X141691368Y-47203553D01*
X141915992Y-47130568D01*
X142126433Y-47023343D01*
X142317510Y-46884517D01*
X142484517Y-46717510D01*
X142623343Y-46526433D01*
X142730568Y-46315992D01*
X142803553Y-46091368D01*
X142824325Y-45960219D01*
X142840500Y-45858095D01*
X142840500Y-45621904D01*
X142803553Y-45388632D01*
X142798588Y-45373351D01*
X142798587Y-45373350D01*
X142789549Y-45345533D01*
X152749500Y-45345533D01*
X152749500Y-45654466D01*
X152784088Y-45961450D01*
X152852832Y-46262637D01*
X152954863Y-46554225D01*
X153088905Y-46832566D01*
X153221565Y-47043693D01*
X153253265Y-47094143D01*
X153445880Y-47335674D01*
X153664326Y-47554120D01*
X153905857Y-47746735D01*
X154024220Y-47821107D01*
X154146027Y-47897644D01*
X154167435Y-47911095D01*
X154445771Y-48045135D01*
X154737364Y-48147168D01*
X155038548Y-48215911D01*
X155345535Y-48250500D01*
X155345536Y-48250500D01*
X155654464Y-48250500D01*
X155654465Y-48250500D01*
X155961452Y-48215911D01*
X156262636Y-48147168D01*
X156554229Y-48045135D01*
X156832565Y-47911095D01*
X157094143Y-47746735D01*
X157335674Y-47554120D01*
X157554120Y-47335674D01*
X157746735Y-47094143D01*
X157911095Y-46832565D01*
X158045135Y-46554229D01*
X158147168Y-46262636D01*
X158215911Y-45961452D01*
X158250500Y-45654465D01*
X158250500Y-45345535D01*
X158250500Y-45345533D01*
X163749500Y-45345533D01*
X163749500Y-45654466D01*
X163784088Y-45961450D01*
X163852832Y-46262637D01*
X163954863Y-46554225D01*
X164088905Y-46832566D01*
X164221565Y-47043693D01*
X164253265Y-47094143D01*
X164445880Y-47335674D01*
X164664326Y-47554120D01*
X164905857Y-47746735D01*
X165024220Y-47821107D01*
X165146027Y-47897644D01*
X165167435Y-47911095D01*
X165445771Y-48045135D01*
X165737364Y-48147168D01*
X166038548Y-48215911D01*
X166345535Y-48250500D01*
X166345536Y-48250500D01*
X166654464Y-48250500D01*
X166654465Y-48250500D01*
X166961452Y-48215911D01*
X167262636Y-48147168D01*
X167554229Y-48045135D01*
X167832565Y-47911095D01*
X168094143Y-47746735D01*
X168335674Y-47554120D01*
X168554120Y-47335674D01*
X168746735Y-47094143D01*
X168911095Y-46832565D01*
X169045135Y-46554229D01*
X169147168Y-46262636D01*
X169215911Y-45961452D01*
X169250500Y-45654465D01*
X169250500Y-45345535D01*
X169215911Y-45038548D01*
X169147168Y-44737364D01*
X169045135Y-44445771D01*
X168911095Y-44167435D01*
X168892612Y-44138020D01*
X168838064Y-44051207D01*
X168746735Y-43905857D01*
X168554120Y-43664326D01*
X168335674Y-43445880D01*
X168094143Y-43253265D01*
X168035621Y-43216493D01*
X167832566Y-43088905D01*
X167554225Y-42954863D01*
X167262637Y-42852832D01*
X166961450Y-42784088D01*
X166654466Y-42749500D01*
X166654465Y-42749500D01*
X166345535Y-42749500D01*
X166345533Y-42749500D01*
X166038549Y-42784088D01*
X165737362Y-42852832D01*
X165445774Y-42954863D01*
X165167433Y-43088905D01*
X164905856Y-43253265D01*
X164664327Y-43445879D01*
X164445879Y-43664327D01*
X164253265Y-43905856D01*
X164088905Y-44167433D01*
X163954863Y-44445774D01*
X163852832Y-44737362D01*
X163784088Y-45038549D01*
X163749500Y-45345533D01*
X158250500Y-45345533D01*
X158215911Y-45038548D01*
X158147168Y-44737364D01*
X158045135Y-44445771D01*
X157911095Y-44167435D01*
X157892612Y-44138020D01*
X157838064Y-44051207D01*
X157746735Y-43905857D01*
X157554120Y-43664326D01*
X157335674Y-43445880D01*
X157094143Y-43253265D01*
X157035621Y-43216493D01*
X156832566Y-43088905D01*
X156554225Y-42954863D01*
X156262637Y-42852832D01*
X155961450Y-42784088D01*
X155654466Y-42749500D01*
X155654465Y-42749500D01*
X155345535Y-42749500D01*
X155345533Y-42749500D01*
X155038549Y-42784088D01*
X154737362Y-42852832D01*
X154445774Y-42954863D01*
X154167433Y-43088905D01*
X153905856Y-43253265D01*
X153664327Y-43445879D01*
X153445879Y-43664327D01*
X153253265Y-43905856D01*
X153088905Y-44167433D01*
X152954863Y-44445774D01*
X152852832Y-44737362D01*
X152784088Y-45038549D01*
X152749500Y-45345533D01*
X142789549Y-45345533D01*
X142730568Y-45164008D01*
X142623343Y-44953567D01*
X142484517Y-44762490D01*
X142317510Y-44595483D01*
X142255033Y-44550091D01*
X142219071Y-44500593D01*
X142219071Y-44439407D01*
X142255033Y-44389908D01*
X142317510Y-44344517D01*
X142484517Y-44177510D01*
X142623343Y-43986433D01*
X142730568Y-43775992D01*
X142803553Y-43551368D01*
X142810553Y-43507174D01*
X142840500Y-43318095D01*
X142840500Y-43081904D01*
X142803554Y-42848636D01*
X142803010Y-42846962D01*
X142730568Y-42624008D01*
X142623343Y-42413567D01*
X142484517Y-42222490D01*
X142317510Y-42055483D01*
X142255033Y-42010091D01*
X142219071Y-41960593D01*
X142219071Y-41899407D01*
X142255033Y-41849908D01*
X142317510Y-41804517D01*
X142484517Y-41637510D01*
X142623343Y-41446433D01*
X142730568Y-41235992D01*
X142803553Y-41011368D01*
X142803554Y-41011363D01*
X142840500Y-40778095D01*
X142840500Y-40541904D01*
X142803554Y-40308636D01*
X142800064Y-40297895D01*
X142730568Y-40084008D01*
X142623343Y-39873567D01*
X142484517Y-39682490D01*
X142317510Y-39515483D01*
X142255033Y-39470091D01*
X142219071Y-39420593D01*
X142219071Y-39359407D01*
X142255033Y-39309908D01*
X142317510Y-39264517D01*
X142484517Y-39097510D01*
X142623343Y-38906433D01*
X142730568Y-38695992D01*
X142803553Y-38471368D01*
X142803554Y-38471363D01*
X142840500Y-38238095D01*
X142840500Y-38001904D01*
X142803554Y-37768636D01*
X142802691Y-37765980D01*
X142730568Y-37544008D01*
X142623343Y-37333567D01*
X142484517Y-37142490D01*
X142317510Y-36975483D01*
X142255033Y-36930091D01*
X142219071Y-36880593D01*
X142219071Y-36819407D01*
X142255033Y-36769908D01*
X142317510Y-36724517D01*
X142484517Y-36557510D01*
X142623343Y-36366433D01*
X142730568Y-36155992D01*
X142803553Y-35931368D01*
X142803554Y-35931363D01*
X142810141Y-35889774D01*
X157099500Y-35889774D01*
X157099500Y-36110225D01*
X157133984Y-36327948D01*
X157202102Y-36537599D01*
X157202104Y-36537602D01*
X157202105Y-36537606D01*
X157206470Y-36546172D01*
X157297341Y-36724517D01*
X157302185Y-36734022D01*
X157431758Y-36912365D01*
X157587635Y-37068242D01*
X157765978Y-37197815D01*
X157962394Y-37297895D01*
X158172049Y-37366015D01*
X158259140Y-37379809D01*
X158389775Y-37400500D01*
X158389778Y-37400500D01*
X158610225Y-37400500D01*
X158719086Y-37383257D01*
X158827951Y-37366015D01*
X159037606Y-37297895D01*
X159234022Y-37197815D01*
X159412365Y-37068242D01*
X159568242Y-36912365D01*
X159697815Y-36734022D01*
X159797895Y-36537606D01*
X159866015Y-36327951D01*
X159893251Y-36155992D01*
X159900500Y-36110225D01*
X159900500Y-35889774D01*
X162099500Y-35889774D01*
X162099500Y-36110225D01*
X162133984Y-36327948D01*
X162202102Y-36537599D01*
X162202104Y-36537602D01*
X162202105Y-36537606D01*
X162206470Y-36546172D01*
X162297341Y-36724517D01*
X162302185Y-36734022D01*
X162431758Y-36912365D01*
X162587635Y-37068242D01*
X162727566Y-37169907D01*
X162763530Y-37219408D01*
X162763530Y-37280593D01*
X162727566Y-37330092D01*
X162587635Y-37431758D01*
X162431758Y-37587635D01*
X162398083Y-37633985D01*
X162302183Y-37765980D01*
X162202102Y-37962400D01*
X162133984Y-38172051D01*
X162099500Y-38389774D01*
X162099500Y-38610225D01*
X162133984Y-38827948D01*
X162202102Y-39037599D01*
X162202104Y-39037602D01*
X162202105Y-39037606D01*
X162302185Y-39234022D01*
X162431758Y-39412365D01*
X162587635Y-39568242D01*
X162765978Y-39697815D01*
X162962394Y-39797895D01*
X163172049Y-39866015D01*
X163259140Y-39879809D01*
X163389775Y-39900500D01*
X163389778Y-39900500D01*
X163610225Y-39900500D01*
X163719086Y-39883257D01*
X163827951Y-39866015D01*
X164037606Y-39797895D01*
X164234022Y-39697815D01*
X164412365Y-39568242D01*
X164568242Y-39412365D01*
X164697815Y-39234022D01*
X164797895Y-39037606D01*
X164866015Y-38827951D01*
X164890708Y-38672049D01*
X164900500Y-38610225D01*
X164900500Y-38389774D01*
X164870815Y-38202355D01*
X164866015Y-38172049D01*
X164797895Y-37962394D01*
X164697815Y-37765978D01*
X164568242Y-37587635D01*
X164412365Y-37431758D01*
X164272431Y-37330091D01*
X164236469Y-37280593D01*
X164236469Y-37219407D01*
X164272431Y-37169908D01*
X164412365Y-37068242D01*
X164568242Y-36912365D01*
X164697815Y-36734022D01*
X164797895Y-36537606D01*
X164866015Y-36327951D01*
X164893251Y-36155992D01*
X164900500Y-36110225D01*
X164900500Y-35889774D01*
X164870140Y-35698092D01*
X164866015Y-35672049D01*
X164797895Y-35462394D01*
X164697815Y-35265978D01*
X164568242Y-35087635D01*
X164412365Y-34931758D01*
X164234022Y-34802185D01*
X164234021Y-34802184D01*
X164234019Y-34802183D01*
X164109786Y-34738883D01*
X164037606Y-34702105D01*
X164037602Y-34702104D01*
X164037599Y-34702102D01*
X163827948Y-34633984D01*
X163610225Y-34599500D01*
X163610222Y-34599500D01*
X163389778Y-34599500D01*
X163389775Y-34599500D01*
X163172051Y-34633984D01*
X162962400Y-34702102D01*
X162765980Y-34802183D01*
X162676806Y-34866971D01*
X162587635Y-34931758D01*
X162431758Y-35087635D01*
X162380491Y-35158199D01*
X162302183Y-35265980D01*
X162202102Y-35462400D01*
X162133984Y-35672051D01*
X162099500Y-35889774D01*
X159900500Y-35889774D01*
X159870140Y-35698092D01*
X159866015Y-35672049D01*
X159797895Y-35462394D01*
X159697815Y-35265978D01*
X159568242Y-35087635D01*
X159412365Y-34931758D01*
X159234022Y-34802185D01*
X159234021Y-34802184D01*
X159234019Y-34802183D01*
X159109786Y-34738883D01*
X159037606Y-34702105D01*
X159037602Y-34702104D01*
X159037599Y-34702102D01*
X158827948Y-34633984D01*
X158610225Y-34599500D01*
X158610222Y-34599500D01*
X158389778Y-34599500D01*
X158389775Y-34599500D01*
X158172051Y-34633984D01*
X157962400Y-34702102D01*
X157765980Y-34802183D01*
X157676806Y-34866971D01*
X157587635Y-34931758D01*
X157431758Y-35087635D01*
X157380491Y-35158199D01*
X157302183Y-35265980D01*
X157202102Y-35462400D01*
X157133984Y-35672051D01*
X157099500Y-35889774D01*
X142810141Y-35889774D01*
X142813210Y-35870401D01*
X142840500Y-35698095D01*
X142840500Y-35461904D01*
X142803554Y-35228636D01*
X142795946Y-35205220D01*
X142730568Y-35004008D01*
X142623343Y-34793567D01*
X142484517Y-34602490D01*
X142317510Y-34435483D01*
X142255033Y-34390091D01*
X142219071Y-34340593D01*
X142219071Y-34279407D01*
X142255033Y-34229908D01*
X142317510Y-34184517D01*
X142484517Y-34017510D01*
X142623343Y-33826433D01*
X142730568Y-33615992D01*
X142803553Y-33391368D01*
X142804702Y-33384115D01*
X142840500Y-33158095D01*
X142840500Y-32921904D01*
X142803554Y-32688636D01*
X142803553Y-32688632D01*
X142730568Y-32464008D01*
X142623343Y-32253567D01*
X142484517Y-32062490D01*
X142317510Y-31895483D01*
X142255033Y-31850091D01*
X142219071Y-31800593D01*
X142219071Y-31739407D01*
X142255033Y-31689908D01*
X142317510Y-31644517D01*
X142484517Y-31477510D01*
X142623343Y-31286433D01*
X142730568Y-31075992D01*
X142803553Y-30851368D01*
X142812961Y-30791970D01*
X142840500Y-30618095D01*
X142840500Y-30381904D01*
X142803554Y-30148636D01*
X142801545Y-30142453D01*
X142730568Y-29924008D01*
X142623343Y-29713567D01*
X142484517Y-29522490D01*
X142317510Y-29355483D01*
X142255033Y-29310091D01*
X142219071Y-29260593D01*
X142219071Y-29199407D01*
X142255033Y-29149908D01*
X142317510Y-29104517D01*
X142484517Y-28937510D01*
X142623343Y-28746433D01*
X142730568Y-28535992D01*
X142803553Y-28311368D01*
X142803554Y-28311363D01*
X142840500Y-28078095D01*
X142840500Y-27841904D01*
X142803554Y-27608636D01*
X142803553Y-27608632D01*
X142730568Y-27384008D01*
X142623343Y-27173567D01*
X142484517Y-26982490D01*
X142317510Y-26815483D01*
X142126433Y-26676657D01*
X142126432Y-26676656D01*
X142126430Y-26676655D01*
X141915992Y-26569432D01*
X141691363Y-26496445D01*
X141458095Y-26459500D01*
X141458092Y-26459500D01*
X141221908Y-26459500D01*
X141221905Y-26459500D01*
X140988634Y-26496446D01*
X140847864Y-26542184D01*
X140786679Y-26542183D01*
X140747268Y-26518033D01*
X139948739Y-25719504D01*
X139920962Y-25664987D01*
X139930533Y-25604555D01*
X139973798Y-25561290D01*
X140018743Y-25550500D01*
X142035464Y-25550500D01*
X142035480Y-25550501D01*
X142041543Y-25550501D01*
X142199655Y-25550501D01*
X142199657Y-25550501D01*
X142352385Y-25509577D01*
X142422602Y-25469037D01*
X142489316Y-25430520D01*
X142601120Y-25318716D01*
X142601120Y-25318714D01*
X142609270Y-25310565D01*
X142609271Y-25310562D01*
X142790339Y-25129496D01*
X142844856Y-25101719D01*
X142860342Y-25100500D01*
X158650500Y-25100500D01*
X158708691Y-25119407D01*
X158744655Y-25168907D01*
X158749500Y-25199499D01*
X158749500Y-25372868D01*
X158749500Y-25372869D01*
X158749501Y-25372872D01*
X158751613Y-25392515D01*
X158755909Y-25432484D01*
X158758864Y-25440408D01*
X158761481Y-25501537D01*
X158758864Y-25509592D01*
X158755909Y-25517514D01*
X158755909Y-25517516D01*
X158755909Y-25517517D01*
X158750554Y-25567329D01*
X158749500Y-25577129D01*
X158749500Y-26022866D01*
X158749501Y-26022870D01*
X158755908Y-26082480D01*
X158755909Y-26082485D01*
X158806202Y-26217329D01*
X158872090Y-26305343D01*
X158892454Y-26332546D01*
X158892457Y-26332548D01*
X158892458Y-26332549D01*
X159007670Y-26418797D01*
X159142511Y-26469089D01*
X159142512Y-26469089D01*
X159142517Y-26469091D01*
X159202127Y-26475500D01*
X159215416Y-26475499D01*
X159253303Y-26483034D01*
X159352793Y-26524245D01*
X159483279Y-26550200D01*
X159993535Y-26550200D01*
X160051726Y-26569107D01*
X160063539Y-26579196D01*
X160293529Y-26809186D01*
X160305840Y-26824188D01*
X160354187Y-26896544D01*
X160405673Y-26948029D01*
X160451758Y-26994114D01*
X160479702Y-27012785D01*
X160517581Y-27060834D01*
X160523700Y-27095100D01*
X160523700Y-29993196D01*
X160532366Y-30036762D01*
X160525174Y-30097523D01*
X160483641Y-30142453D01*
X160423632Y-30154390D01*
X160368067Y-30128774D01*
X160365289Y-30126104D01*
X160247219Y-30008034D01*
X160247215Y-30008031D01*
X160247213Y-30008029D01*
X160081613Y-29887714D01*
X160081609Y-29887712D01*
X159899219Y-29794780D01*
X159704529Y-29731521D01*
X159502355Y-29699500D01*
X159502352Y-29699500D01*
X159297648Y-29699500D01*
X159297645Y-29699500D01*
X159095470Y-29731521D01*
X158900780Y-29794780D01*
X158718390Y-29887712D01*
X158718386Y-29887714D01*
X158552786Y-30008029D01*
X158408029Y-30152786D01*
X158287714Y-30318386D01*
X158287712Y-30318390D01*
X158194780Y-30500780D01*
X158131521Y-30695470D01*
X158099500Y-30897644D01*
X158099500Y-31102355D01*
X158131521Y-31304529D01*
X158194780Y-31499219D01*
X158287712Y-31681609D01*
X158287714Y-31681613D01*
X158408029Y-31847213D01*
X158408031Y-31847215D01*
X158408034Y-31847219D01*
X158552781Y-31991966D01*
X158552784Y-31991968D01*
X158552786Y-31991970D01*
X158718386Y-32112285D01*
X158718390Y-32112287D01*
X158900781Y-32205220D01*
X159095466Y-32268477D01*
X159095467Y-32268477D01*
X159095470Y-32268478D01*
X159297645Y-32300500D01*
X159297648Y-32300500D01*
X159502355Y-32300500D01*
X159704529Y-32268478D01*
X159704530Y-32268477D01*
X159704534Y-32268477D01*
X159899219Y-32205220D01*
X160081610Y-32112287D01*
X160247219Y-31991966D01*
X160391966Y-31847219D01*
X160468914Y-31741307D01*
X160518413Y-31705345D01*
X160549006Y-31700500D01*
X161150994Y-31700500D01*
X161209185Y-31719407D01*
X161231084Y-31741306D01*
X161308034Y-31847219D01*
X161452781Y-31991966D01*
X161452784Y-31991968D01*
X161452786Y-31991970D01*
X161618386Y-32112285D01*
X161618390Y-32112287D01*
X161800781Y-32205220D01*
X161995466Y-32268477D01*
X161995467Y-32268477D01*
X161995470Y-32268478D01*
X162197645Y-32300500D01*
X162197648Y-32300500D01*
X162402355Y-32300500D01*
X162604529Y-32268478D01*
X162604530Y-32268477D01*
X162604534Y-32268477D01*
X162799219Y-32205220D01*
X162981610Y-32112287D01*
X163147219Y-31991966D01*
X163291966Y-31847219D01*
X163412287Y-31681610D01*
X163505220Y-31499219D01*
X163568477Y-31304534D01*
X163568478Y-31304529D01*
X163600500Y-31102355D01*
X163600500Y-30897644D01*
X163568478Y-30695470D01*
X163562709Y-30677714D01*
X163505220Y-30500781D01*
X163412287Y-30318390D01*
X163412285Y-30318386D01*
X163291970Y-30152786D01*
X163291968Y-30152784D01*
X163291966Y-30152781D01*
X163147219Y-30008034D01*
X163147215Y-30008031D01*
X163147213Y-30008029D01*
X162981613Y-29887714D01*
X162981609Y-29887712D01*
X162799219Y-29794780D01*
X162604529Y-29731521D01*
X162402355Y-29699500D01*
X162402352Y-29699500D01*
X162197648Y-29699500D01*
X162197645Y-29699500D01*
X162068349Y-29719978D01*
X162007917Y-29710406D01*
X161982858Y-29692201D01*
X161953696Y-29663039D01*
X161925919Y-29608522D01*
X161924700Y-29593035D01*
X161924700Y-27181406D01*
X161943607Y-27123215D01*
X161989102Y-27088648D01*
X162042331Y-27068796D01*
X162157546Y-26982546D01*
X162243796Y-26867331D01*
X162263135Y-26815482D01*
X162276627Y-26779305D01*
X162294091Y-26732483D01*
X162300500Y-26672873D01*
X162300499Y-26227128D01*
X162294091Y-26167517D01*
X162290370Y-26157541D01*
X162243797Y-26032670D01*
X162157549Y-25917458D01*
X162157548Y-25917457D01*
X162157546Y-25917454D01*
X162144226Y-25907483D01*
X162106516Y-25879253D01*
X162071263Y-25829245D01*
X162072137Y-25768066D01*
X162106516Y-25720747D01*
X162157546Y-25682546D01*
X162243796Y-25567331D01*
X162246385Y-25560391D01*
X162280458Y-25469035D01*
X162294091Y-25432483D01*
X162300500Y-25372873D01*
X162300499Y-24927128D01*
X162294091Y-24867517D01*
X162291136Y-24859596D01*
X162288515Y-24798471D01*
X162291129Y-24790423D01*
X162294091Y-24782483D01*
X162300500Y-24722873D01*
X162300499Y-24277128D01*
X162294091Y-24217517D01*
X162294090Y-24217514D01*
X162243797Y-24082670D01*
X162157549Y-23967458D01*
X162157548Y-23967457D01*
X162157546Y-23967454D01*
X162155668Y-23966048D01*
X162042329Y-23881202D01*
X161907488Y-23830910D01*
X161907483Y-23830909D01*
X161907481Y-23830908D01*
X161907477Y-23830908D01*
X161876249Y-23827550D01*
X161847873Y-23824500D01*
X161847870Y-23824500D01*
X161754428Y-23824500D01*
X161735114Y-23822598D01*
X161618995Y-23799500D01*
X161618993Y-23799500D01*
X161144194Y-23799500D01*
X161006206Y-23799500D01*
X161006203Y-23799500D01*
X160870872Y-23826420D01*
X160870870Y-23826420D01*
X160743391Y-23879223D01*
X160710989Y-23900874D01*
X160652101Y-23917482D01*
X160594698Y-23896304D01*
X160570252Y-23868060D01*
X160532220Y-23802184D01*
X160420416Y-23690380D01*
X160420413Y-23690378D01*
X156874521Y-20144486D01*
X156874520Y-20144484D01*
X156762716Y-20032680D01*
X156738568Y-20018738D01*
X156629719Y-19955893D01*
X156629719Y-19955894D01*
X156625788Y-19953624D01*
X156625785Y-19953623D01*
X156473057Y-19912699D01*
X156314943Y-19912699D01*
X156308880Y-19912699D01*
X156308864Y-19912700D01*
X128201952Y-19912700D01*
X128143761Y-19893793D01*
X128107797Y-19844293D01*
X128107797Y-19783107D01*
X128113742Y-19768755D01*
X128191470Y-19616204D01*
X128205220Y-19589219D01*
X128268477Y-19394534D01*
X128300500Y-19192352D01*
X128300500Y-18987648D01*
X128300500Y-18987644D01*
X128268478Y-18785470D01*
X128241378Y-18702064D01*
X128232490Y-18674710D01*
X164265500Y-18674710D01*
X164265500Y-18917289D01*
X164297161Y-19157781D01*
X164297161Y-19157786D01*
X164359944Y-19392092D01*
X164359948Y-19392105D01*
X164452772Y-19616204D01*
X164452774Y-19616208D01*
X164452776Y-19616212D01*
X164542495Y-19771610D01*
X164574066Y-19826292D01*
X164721729Y-20018731D01*
X164721731Y-20018733D01*
X164721735Y-20018738D01*
X164893262Y-20190265D01*
X164893266Y-20190268D01*
X164893268Y-20190270D01*
X165038619Y-20301801D01*
X165085711Y-20337936D01*
X165295788Y-20459224D01*
X165519900Y-20552054D01*
X165754211Y-20614838D01*
X165994712Y-20646500D01*
X165994713Y-20646500D01*
X166237287Y-20646500D01*
X166237288Y-20646500D01*
X166477789Y-20614838D01*
X166712100Y-20552054D01*
X166936212Y-20459224D01*
X167146289Y-20337936D01*
X167338738Y-20190265D01*
X167510265Y-20018738D01*
X167657936Y-19826289D01*
X167779224Y-19616212D01*
X167872054Y-19392100D01*
X167934838Y-19157789D01*
X167966500Y-18917288D01*
X167966500Y-18674712D01*
X167934838Y-18434211D01*
X167872054Y-18199900D01*
X167779224Y-17975788D01*
X167657936Y-17765711D01*
X167510265Y-17573262D01*
X167338738Y-17401735D01*
X167338733Y-17401731D01*
X167338731Y-17401729D01*
X167146292Y-17254066D01*
X167146289Y-17254064D01*
X166936212Y-17132776D01*
X166936208Y-17132774D01*
X166936204Y-17132772D01*
X166712105Y-17039948D01*
X166712104Y-17039947D01*
X166712100Y-17039946D01*
X166477789Y-16977162D01*
X166477786Y-16977161D01*
X166477784Y-16977161D01*
X166237289Y-16945500D01*
X166237288Y-16945500D01*
X165994712Y-16945500D01*
X165994710Y-16945500D01*
X165754218Y-16977161D01*
X165754213Y-16977161D01*
X165519907Y-17039944D01*
X165519894Y-17039948D01*
X165295795Y-17132772D01*
X165085707Y-17254066D01*
X164893268Y-17401729D01*
X164721729Y-17573268D01*
X164574066Y-17765707D01*
X164452772Y-17975795D01*
X164359948Y-18199894D01*
X164359944Y-18199907D01*
X164297161Y-18434213D01*
X164297161Y-18434218D01*
X164265500Y-18674710D01*
X128232490Y-18674710D01*
X128205220Y-18590781D01*
X128112287Y-18408390D01*
X128112285Y-18408386D01*
X127991970Y-18242786D01*
X127991968Y-18242784D01*
X127991966Y-18242781D01*
X127847219Y-18098034D01*
X127847215Y-18098031D01*
X127847213Y-18098029D01*
X127681613Y-17977714D01*
X127681609Y-17977712D01*
X127499219Y-17884780D01*
X127304529Y-17821521D01*
X127102355Y-17789500D01*
X127102352Y-17789500D01*
X126897648Y-17789500D01*
X126897645Y-17789500D01*
X126695470Y-17821521D01*
X126500780Y-17884780D01*
X126318390Y-17977712D01*
X126318386Y-17977714D01*
X126152786Y-18098029D01*
X126008029Y-18242786D01*
X125887714Y-18408386D01*
X125887712Y-18408390D01*
X125794780Y-18590780D01*
X125731521Y-18785470D01*
X125699500Y-18987644D01*
X125699500Y-19192355D01*
X125731521Y-19394529D01*
X125794780Y-19589219D01*
X125886258Y-19768755D01*
X125895829Y-19829187D01*
X125868052Y-19883704D01*
X125813535Y-19911481D01*
X125798048Y-19912700D01*
X120581952Y-19912700D01*
X120523761Y-19893793D01*
X120487797Y-19844293D01*
X120487797Y-19783107D01*
X120493742Y-19768755D01*
X120571470Y-19616204D01*
X120585220Y-19589219D01*
X120648477Y-19394534D01*
X120680500Y-19192352D01*
X120680500Y-18987648D01*
X120680500Y-18987644D01*
X120648478Y-18785470D01*
X120612491Y-18674713D01*
X120585220Y-18590781D01*
X120492287Y-18408390D01*
X120492285Y-18408386D01*
X120371970Y-18242786D01*
X120371968Y-18242784D01*
X120371966Y-18242781D01*
X120227219Y-18098034D01*
X120227215Y-18098031D01*
X120227213Y-18098029D01*
X120061613Y-17977714D01*
X120061609Y-17977712D01*
X119879219Y-17884780D01*
X119684529Y-17821521D01*
X119482355Y-17789500D01*
X119482352Y-17789500D01*
X119277648Y-17789500D01*
X119277645Y-17789500D01*
X119075470Y-17821521D01*
X118880780Y-17884780D01*
X118698390Y-17977712D01*
X118698386Y-17977714D01*
X118532786Y-18098029D01*
X118388029Y-18242786D01*
X118267714Y-18408386D01*
X118267712Y-18408390D01*
X118174780Y-18590780D01*
X118111521Y-18785470D01*
X118079500Y-18987644D01*
X118079500Y-19192355D01*
X118111521Y-19394529D01*
X118174780Y-19589219D01*
X118267712Y-19771609D01*
X118267714Y-19771613D01*
X118388029Y-19937213D01*
X118388031Y-19937215D01*
X118388034Y-19937219D01*
X118467613Y-20016798D01*
X118495389Y-20071313D01*
X118485818Y-20131745D01*
X118442553Y-20175010D01*
X118397608Y-20185800D01*
X28507037Y-20185800D01*
X28507021Y-20185799D01*
X28500958Y-20185799D01*
X28342843Y-20185799D01*
X28342840Y-20185799D01*
X28190119Y-20226721D01*
X28190118Y-20226721D01*
X28063824Y-20299637D01*
X28053184Y-20305780D01*
X24167986Y-24190978D01*
X24167984Y-24190980D01*
X24167983Y-24190979D01*
X24056180Y-24302783D01*
X24052229Y-24307933D01*
X24050475Y-24306587D01*
X24012302Y-24340948D01*
X23972050Y-24349500D01*
X23637133Y-24349500D01*
X23637129Y-24349500D01*
X23637128Y-24349501D01*
X23629949Y-24350272D01*
X23577519Y-24355908D01*
X23577514Y-24355909D01*
X23442670Y-24406202D01*
X23327458Y-24492450D01*
X23327450Y-24492458D01*
X23241202Y-24607670D01*
X23190910Y-24742511D01*
X23190909Y-24742517D01*
X23186244Y-24785911D01*
X23184500Y-24802129D01*
X23184500Y-25197866D01*
X23184500Y-25197869D01*
X23184501Y-25197872D01*
X23184655Y-25199300D01*
X23190909Y-25257483D01*
X23190909Y-25257486D01*
X23203187Y-25290403D01*
X23205807Y-25351532D01*
X23203188Y-25359595D01*
X23190909Y-25392515D01*
X23190909Y-25392517D01*
X23184584Y-25451352D01*
X23184500Y-25452129D01*
X23184500Y-25847866D01*
X23184501Y-25847870D01*
X23190908Y-25907480D01*
X23190909Y-25907485D01*
X23241202Y-26042329D01*
X23271263Y-26082485D01*
X23327454Y-26157546D01*
X23327457Y-26157548D01*
X23327458Y-26157549D01*
X23442670Y-26243797D01*
X23577511Y-26294089D01*
X23577512Y-26294089D01*
X23577517Y-26294091D01*
X23637127Y-26300500D01*
X24282872Y-26300499D01*
X24342483Y-26294091D01*
X24443659Y-26256355D01*
X24477329Y-26243797D01*
X24477329Y-26243796D01*
X24477331Y-26243796D01*
X24592546Y-26157546D01*
X24678796Y-26042331D01*
X24682400Y-26032670D01*
X24711627Y-25954305D01*
X24729091Y-25907483D01*
X24735500Y-25847873D01*
X24735499Y-25635777D01*
X24754406Y-25577588D01*
X24784990Y-25550046D01*
X24785998Y-25549465D01*
X24845843Y-25536742D01*
X24901740Y-25561625D01*
X24932335Y-25614611D01*
X24934500Y-25635200D01*
X24934500Y-25847866D01*
X24934501Y-25847870D01*
X24940908Y-25907480D01*
X24940909Y-25907485D01*
X24991202Y-26042329D01*
X25021263Y-26082485D01*
X25077454Y-26157546D01*
X25077457Y-26157548D01*
X25077458Y-26157549D01*
X25192670Y-26243797D01*
X25327511Y-26294089D01*
X25327512Y-26294089D01*
X25327517Y-26294091D01*
X25387127Y-26300500D01*
X25430258Y-26300499D01*
X25455417Y-26303749D01*
X25461925Y-26305459D01*
X25505672Y-26323580D01*
X25609469Y-26344226D01*
X25612359Y-26344986D01*
X25635691Y-26359978D01*
X25659898Y-26373534D01*
X25661206Y-26376372D01*
X25663834Y-26378061D01*
X25673896Y-26403899D01*
X25685514Y-26429099D01*
X25685835Y-26434555D01*
X25686038Y-26435075D01*
X25685897Y-26435608D01*
X25686200Y-26440736D01*
X25686200Y-28855696D01*
X25713120Y-28991027D01*
X25713120Y-28991029D01*
X25765923Y-29118508D01*
X25842585Y-29233242D01*
X26092201Y-29482859D01*
X26119978Y-29537375D01*
X26119978Y-29568349D01*
X26099500Y-29697644D01*
X26099500Y-29902355D01*
X26131521Y-30104529D01*
X26194780Y-30299219D01*
X26287712Y-30481609D01*
X26287714Y-30481613D01*
X26408029Y-30647213D01*
X26408031Y-30647215D01*
X26408034Y-30647219D01*
X26552781Y-30791966D01*
X26552784Y-30791968D01*
X26552786Y-30791970D01*
X26718386Y-30912285D01*
X26718390Y-30912287D01*
X26900781Y-31005220D01*
X27095466Y-31068477D01*
X27095467Y-31068477D01*
X27095470Y-31068478D01*
X27297645Y-31100500D01*
X27297648Y-31100500D01*
X27502355Y-31100500D01*
X27704529Y-31068478D01*
X27704530Y-31068477D01*
X27704534Y-31068477D01*
X27754848Y-31052129D01*
X35624500Y-31052129D01*
X35624500Y-32947866D01*
X35624501Y-32947870D01*
X35630908Y-33007480D01*
X35630909Y-33007485D01*
X35681202Y-33142329D01*
X35743151Y-33225082D01*
X35767454Y-33257546D01*
X35767457Y-33257548D01*
X35767458Y-33257549D01*
X35882670Y-33343797D01*
X36017511Y-33394089D01*
X36017512Y-33394089D01*
X36017517Y-33394091D01*
X36077127Y-33400500D01*
X37972872Y-33400499D01*
X38032483Y-33394091D01*
X38107759Y-33366015D01*
X38167329Y-33343797D01*
X38167329Y-33343796D01*
X38167331Y-33343796D01*
X38282546Y-33257546D01*
X38368796Y-33142331D01*
X38383102Y-33103976D01*
X38396429Y-33068242D01*
X38412195Y-33025969D01*
X38450245Y-32978056D01*
X38509192Y-32961658D01*
X38566519Y-32983039D01*
X38574947Y-32990554D01*
X38652635Y-33068242D01*
X38830978Y-33197815D01*
X39027394Y-33297895D01*
X39237049Y-33366015D01*
X39324140Y-33379809D01*
X39454775Y-33400500D01*
X39454778Y-33400500D01*
X39675225Y-33400500D01*
X39784086Y-33383257D01*
X39892951Y-33366015D01*
X40102606Y-33297895D01*
X40299022Y-33197815D01*
X40477365Y-33068242D01*
X40633242Y-32912365D01*
X40762815Y-32734022D01*
X40862895Y-32537606D01*
X40931015Y-32327951D01*
X40965173Y-32112287D01*
X40965500Y-32110225D01*
X40965500Y-31889774D01*
X40941683Y-31739407D01*
X40931015Y-31672049D01*
X40862895Y-31462394D01*
X40762815Y-31265978D01*
X40633242Y-31087635D01*
X40477365Y-30931758D01*
X40299022Y-30802185D01*
X40299021Y-30802184D01*
X40299019Y-30802183D01*
X40181802Y-30742458D01*
X40102606Y-30702105D01*
X40102602Y-30702104D01*
X40102599Y-30702102D01*
X39892948Y-30633984D01*
X39675225Y-30599500D01*
X39675222Y-30599500D01*
X39454778Y-30599500D01*
X39454775Y-30599500D01*
X39237051Y-30633984D01*
X39027400Y-30702102D01*
X38830980Y-30802183D01*
X38763290Y-30851363D01*
X38652635Y-30931758D01*
X38652633Y-30931759D01*
X38652630Y-30931762D01*
X38574956Y-31009436D01*
X38520439Y-31037213D01*
X38460007Y-31027641D01*
X38416743Y-30984377D01*
X38412195Y-30974028D01*
X38368797Y-30857670D01*
X38282549Y-30742458D01*
X38282548Y-30742457D01*
X38282546Y-30742454D01*
X38219784Y-30695470D01*
X38167329Y-30656202D01*
X38032488Y-30605910D01*
X38032483Y-30605909D01*
X38032481Y-30605908D01*
X38032477Y-30605908D01*
X38001249Y-30602550D01*
X37972873Y-30599500D01*
X37972870Y-30599500D01*
X36077133Y-30599500D01*
X36077129Y-30599500D01*
X36077128Y-30599501D01*
X36069949Y-30600272D01*
X36017519Y-30605908D01*
X36017514Y-30605909D01*
X35882670Y-30656202D01*
X35767458Y-30742450D01*
X35767450Y-30742458D01*
X35681202Y-30857670D01*
X35630910Y-30992511D01*
X35630908Y-30992522D01*
X35629543Y-31005219D01*
X35624783Y-31049501D01*
X35624500Y-31052129D01*
X27754848Y-31052129D01*
X27899219Y-31005220D01*
X28081610Y-30912287D01*
X28247219Y-30791966D01*
X28391966Y-30647219D01*
X28512287Y-30481610D01*
X28605220Y-30299219D01*
X28668477Y-30104534D01*
X28668478Y-30104529D01*
X28700500Y-29902355D01*
X28700500Y-29697644D01*
X28668478Y-29495470D01*
X28668477Y-29495466D01*
X28605220Y-29300781D01*
X28512287Y-29118390D01*
X28512285Y-29118386D01*
X28391970Y-28952786D01*
X28391968Y-28952784D01*
X28391966Y-28952781D01*
X28247219Y-28808034D01*
X28247215Y-28808031D01*
X28247213Y-28808029D01*
X28081613Y-28687714D01*
X28081609Y-28687712D01*
X27899219Y-28594780D01*
X27704529Y-28531521D01*
X27502355Y-28499500D01*
X27502352Y-28499500D01*
X27297648Y-28499500D01*
X27297645Y-28499500D01*
X27201687Y-28514698D01*
X27141255Y-28505127D01*
X27097990Y-28461862D01*
X27087200Y-28416917D01*
X27087200Y-26713743D01*
X27106107Y-26655552D01*
X27155607Y-26619588D01*
X27216793Y-26619588D01*
X27256201Y-26643737D01*
X27294684Y-26682220D01*
X27431616Y-26761277D01*
X27535293Y-26789057D01*
X27584342Y-26802200D01*
X27584343Y-26802200D01*
X39977664Y-26802200D01*
X39977680Y-26802201D01*
X39983743Y-26802201D01*
X40141856Y-26802201D01*
X40141857Y-26802201D01*
X40294585Y-26761277D01*
X40332641Y-26739303D01*
X40344701Y-26732341D01*
X40344704Y-26732339D01*
X40376914Y-26713743D01*
X40431516Y-26682220D01*
X40543320Y-26570416D01*
X40543320Y-26570414D01*
X40551470Y-26562265D01*
X40551471Y-26562262D01*
X40684439Y-26429296D01*
X40738956Y-26401519D01*
X40754442Y-26400300D01*
X50311166Y-26400300D01*
X50369357Y-26419207D01*
X50405321Y-26468707D01*
X50405321Y-26529893D01*
X50351521Y-26695470D01*
X50319500Y-26897644D01*
X50319500Y-27102355D01*
X50351521Y-27304529D01*
X50414780Y-27499219D01*
X50507712Y-27681609D01*
X50507714Y-27681613D01*
X50628029Y-27847213D01*
X50628031Y-27847215D01*
X50628034Y-27847219D01*
X50772781Y-27991966D01*
X50772784Y-27991968D01*
X50772786Y-27991970D01*
X50938386Y-28112285D01*
X50938390Y-28112287D01*
X51120781Y-28205220D01*
X51315466Y-28268477D01*
X51315467Y-28268477D01*
X51315470Y-28268478D01*
X51517645Y-28300500D01*
X51517648Y-28300500D01*
X51722355Y-28300500D01*
X51924529Y-28268478D01*
X51924530Y-28268477D01*
X51924534Y-28268477D01*
X52119219Y-28205220D01*
X52301610Y-28112287D01*
X52467219Y-27991966D01*
X52611966Y-27847219D01*
X52618923Y-27837644D01*
X59579500Y-27837644D01*
X59579500Y-28042355D01*
X59611521Y-28244529D01*
X59674780Y-28439219D01*
X59767712Y-28621609D01*
X59767714Y-28621613D01*
X59888029Y-28787213D01*
X59888031Y-28787215D01*
X59888034Y-28787219D01*
X60032781Y-28931966D01*
X60032784Y-28931968D01*
X60032786Y-28931970D01*
X60198386Y-29052285D01*
X60198390Y-29052287D01*
X60380781Y-29145220D01*
X60575466Y-29208477D01*
X60575467Y-29208477D01*
X60575470Y-29208478D01*
X60777645Y-29240500D01*
X60777648Y-29240500D01*
X60982355Y-29240500D01*
X61184529Y-29208478D01*
X61184530Y-29208477D01*
X61184534Y-29208477D01*
X61379219Y-29145220D01*
X61561610Y-29052287D01*
X61727219Y-28931966D01*
X61871966Y-28787219D01*
X61992287Y-28621610D01*
X62006072Y-28594554D01*
X62049336Y-28551291D01*
X62094282Y-28540500D01*
X63555718Y-28540500D01*
X63613909Y-28559407D01*
X63643927Y-28594554D01*
X63649584Y-28605657D01*
X63657712Y-28621609D01*
X63657714Y-28621613D01*
X63778029Y-28787213D01*
X63778031Y-28787215D01*
X63778034Y-28787219D01*
X63922781Y-28931966D01*
X63922784Y-28931968D01*
X63922786Y-28931970D01*
X64088386Y-29052285D01*
X64088390Y-29052287D01*
X64270781Y-29145220D01*
X64465466Y-29208477D01*
X64465467Y-29208477D01*
X64465470Y-29208478D01*
X64667645Y-29240500D01*
X64667648Y-29240500D01*
X64872355Y-29240500D01*
X65074529Y-29208478D01*
X65074530Y-29208477D01*
X65074534Y-29208477D01*
X65269219Y-29145220D01*
X65451610Y-29052287D01*
X65617219Y-28931966D01*
X65761966Y-28787219D01*
X65882287Y-28621610D01*
X65975220Y-28439219D01*
X66038477Y-28244534D01*
X66055396Y-28137713D01*
X66070500Y-28042355D01*
X66070500Y-27837644D01*
X71089500Y-27837644D01*
X71089500Y-28042355D01*
X71121521Y-28244529D01*
X71184780Y-28439219D01*
X71277712Y-28621609D01*
X71277714Y-28621613D01*
X71398029Y-28787213D01*
X71398031Y-28787215D01*
X71398034Y-28787219D01*
X71542781Y-28931966D01*
X71542784Y-28931968D01*
X71542786Y-28931970D01*
X71708386Y-29052285D01*
X71708390Y-29052287D01*
X71890781Y-29145220D01*
X72085466Y-29208477D01*
X72085467Y-29208477D01*
X72085470Y-29208478D01*
X72287645Y-29240500D01*
X72287648Y-29240500D01*
X72492355Y-29240500D01*
X72694529Y-29208478D01*
X72694530Y-29208477D01*
X72694534Y-29208477D01*
X72889219Y-29145220D01*
X73071610Y-29052287D01*
X73237219Y-28931966D01*
X73381966Y-28787219D01*
X73502287Y-28621610D01*
X73595220Y-28439219D01*
X73658477Y-28244534D01*
X73675396Y-28137713D01*
X73690500Y-28042355D01*
X73690500Y-27837644D01*
X73658478Y-27635470D01*
X73650620Y-27611286D01*
X73595220Y-27440781D01*
X73502287Y-27258390D01*
X73502285Y-27258386D01*
X73381970Y-27092786D01*
X73381968Y-27092784D01*
X73381966Y-27092781D01*
X73237219Y-26948034D01*
X73237215Y-26948031D01*
X73237213Y-26948029D01*
X73071613Y-26827714D01*
X73071609Y-26827712D01*
X72889219Y-26734780D01*
X72694529Y-26671521D01*
X72492355Y-26639500D01*
X72492352Y-26639500D01*
X72287648Y-26639500D01*
X72287645Y-26639500D01*
X72085470Y-26671521D01*
X71890780Y-26734780D01*
X71708390Y-26827712D01*
X71708386Y-26827714D01*
X71542786Y-26948029D01*
X71398029Y-27092786D01*
X71277714Y-27258386D01*
X71277712Y-27258390D01*
X71184780Y-27440780D01*
X71121521Y-27635470D01*
X71089500Y-27837644D01*
X66070500Y-27837644D01*
X66038478Y-27635470D01*
X66030620Y-27611286D01*
X65975220Y-27440781D01*
X65882287Y-27258390D01*
X65882285Y-27258386D01*
X65761970Y-27092786D01*
X65761968Y-27092784D01*
X65761966Y-27092781D01*
X65617219Y-26948034D01*
X65617215Y-26948031D01*
X65617213Y-26948029D01*
X65451613Y-26827714D01*
X65451609Y-26827712D01*
X65269219Y-26734780D01*
X65074529Y-26671521D01*
X64872355Y-26639500D01*
X64872352Y-26639500D01*
X64667648Y-26639500D01*
X64667645Y-26639500D01*
X64465470Y-26671521D01*
X64270780Y-26734780D01*
X64088390Y-26827712D01*
X64088386Y-26827714D01*
X63922786Y-26948029D01*
X63778029Y-27092786D01*
X63657714Y-27258386D01*
X63657712Y-27258390D01*
X63643928Y-27285445D01*
X63600664Y-27328709D01*
X63555718Y-27339500D01*
X62094282Y-27339500D01*
X62036091Y-27320593D01*
X62006072Y-27285445D01*
X61992287Y-27258390D01*
X61992285Y-27258386D01*
X61871970Y-27092786D01*
X61871968Y-27092784D01*
X61871966Y-27092781D01*
X61727219Y-26948034D01*
X61727215Y-26948031D01*
X61727213Y-26948029D01*
X61561613Y-26827714D01*
X61561609Y-26827712D01*
X61379219Y-26734780D01*
X61184529Y-26671521D01*
X60982355Y-26639500D01*
X60982352Y-26639500D01*
X60777648Y-26639500D01*
X60777645Y-26639500D01*
X60575470Y-26671521D01*
X60380780Y-26734780D01*
X60198390Y-26827712D01*
X60198386Y-26827714D01*
X60032786Y-26948029D01*
X59888029Y-27092786D01*
X59767714Y-27258386D01*
X59767712Y-27258390D01*
X59674780Y-27440780D01*
X59611521Y-27635470D01*
X59579500Y-27837644D01*
X52618923Y-27837644D01*
X52732287Y-27681610D01*
X52825220Y-27499219D01*
X52888477Y-27304534D01*
X52889831Y-27295987D01*
X52920500Y-27102355D01*
X52920500Y-26897644D01*
X52888478Y-26695470D01*
X52884173Y-26682222D01*
X52834679Y-26529892D01*
X52834679Y-26468707D01*
X52870643Y-26419207D01*
X52928834Y-26400300D01*
X117665064Y-26400300D01*
X117665080Y-26400301D01*
X117671143Y-26400301D01*
X117829258Y-26400301D01*
X117829258Y-26400300D01*
X117977633Y-26360543D01*
X118038735Y-26363744D01*
X118086285Y-26402249D01*
X118102121Y-26461350D01*
X118101038Y-26471656D01*
X118079500Y-26607644D01*
X118079500Y-26812355D01*
X118111521Y-27014529D01*
X118174780Y-27209219D01*
X118188199Y-27235555D01*
X118197771Y-27295987D01*
X118169994Y-27350503D01*
X118115477Y-27378281D01*
X118099990Y-27379500D01*
X98185136Y-27379500D01*
X98185120Y-27379499D01*
X98179057Y-27379499D01*
X98020943Y-27379499D01*
X97868215Y-27420423D01*
X97868213Y-27420423D01*
X97868209Y-27420425D01*
X97818095Y-27449359D01*
X97731284Y-27499479D01*
X97619479Y-27611283D01*
X97619480Y-27611284D01*
X97619478Y-27611286D01*
X92894329Y-32336434D01*
X92839812Y-32364211D01*
X92796697Y-32360820D01*
X92796607Y-32361198D01*
X92794223Y-32360625D01*
X92793743Y-32360588D01*
X92792826Y-32360290D01*
X92792829Y-32360290D01*
X92598420Y-32329500D01*
X92598417Y-32329500D01*
X92401583Y-32329500D01*
X92401580Y-32329500D01*
X92207178Y-32360289D01*
X92019974Y-32421116D01*
X91844597Y-32510474D01*
X91685355Y-32626171D01*
X91546171Y-32765355D01*
X91430474Y-32924597D01*
X91341116Y-33099974D01*
X91280289Y-33287178D01*
X91249500Y-33481579D01*
X91249500Y-33678420D01*
X91280289Y-33872821D01*
X91341116Y-34060025D01*
X91427674Y-34229907D01*
X91430476Y-34235405D01*
X91546172Y-34394646D01*
X91685354Y-34533828D01*
X91844595Y-34649524D01*
X92019975Y-34738884D01*
X92207174Y-34799709D01*
X92207175Y-34799709D01*
X92207178Y-34799710D01*
X92401580Y-34830500D01*
X92401583Y-34830500D01*
X92598420Y-34830500D01*
X92792821Y-34799710D01*
X92792822Y-34799709D01*
X92792826Y-34799709D01*
X92980025Y-34738884D01*
X93155405Y-34649524D01*
X93314646Y-34533828D01*
X93453828Y-34394646D01*
X93569524Y-34235405D01*
X93658884Y-34060025D01*
X93719709Y-33872826D01*
X93726368Y-33830781D01*
X93750500Y-33678420D01*
X93750500Y-33481579D01*
X93719710Y-33287178D01*
X93719414Y-33286267D01*
X93719413Y-33285944D01*
X93718803Y-33283401D01*
X93719413Y-33283254D01*
X93719413Y-33225082D01*
X93743562Y-33185671D01*
X93910750Y-33018483D01*
X93965265Y-32990708D01*
X94025697Y-33000279D01*
X94068962Y-33043544D01*
X94078533Y-33103976D01*
X94074907Y-33119081D01*
X94020290Y-33287176D01*
X93989500Y-33481579D01*
X93989500Y-33678420D01*
X94020289Y-33872821D01*
X94081116Y-34060025D01*
X94167674Y-34229907D01*
X94170476Y-34235405D01*
X94286172Y-34394646D01*
X94425354Y-34533828D01*
X94584595Y-34649524D01*
X94759975Y-34738884D01*
X94947174Y-34799709D01*
X94947175Y-34799709D01*
X94947178Y-34799710D01*
X95141580Y-34830500D01*
X95141583Y-34830500D01*
X95338420Y-34830500D01*
X95532821Y-34799710D01*
X95532822Y-34799709D01*
X95532826Y-34799709D01*
X95720025Y-34738884D01*
X95895405Y-34649524D01*
X96054646Y-34533828D01*
X96193828Y-34394646D01*
X96309524Y-34235405D01*
X96398884Y-34060025D01*
X96459709Y-33872826D01*
X96466368Y-33830781D01*
X96490500Y-33678420D01*
X96490500Y-33481579D01*
X96459710Y-33287178D01*
X96450082Y-33257546D01*
X96398884Y-33099975D01*
X96309524Y-32924595D01*
X96193828Y-32765354D01*
X96054646Y-32626172D01*
X95895405Y-32510476D01*
X95895404Y-32510475D01*
X95895402Y-32510474D01*
X95720025Y-32421116D01*
X95532821Y-32360289D01*
X95338420Y-32329500D01*
X95338417Y-32329500D01*
X95141583Y-32329500D01*
X95141580Y-32329500D01*
X94947176Y-32360290D01*
X94779081Y-32414907D01*
X94717896Y-32414906D01*
X94668396Y-32378942D01*
X94649489Y-32320752D01*
X94668397Y-32262561D01*
X94678477Y-32250756D01*
X98319739Y-28609496D01*
X98374256Y-28581719D01*
X98389743Y-28580500D01*
X122353264Y-28580500D01*
X122353280Y-28580501D01*
X122359343Y-28580501D01*
X122517456Y-28580501D01*
X122517457Y-28580501D01*
X122670185Y-28539577D01*
X122720304Y-28510639D01*
X122807116Y-28460520D01*
X122918920Y-28348716D01*
X122918921Y-28348713D01*
X125036340Y-26231296D01*
X125090857Y-26203519D01*
X125106344Y-26202300D01*
X125661274Y-26202300D01*
X125719465Y-26221207D01*
X125755429Y-26270707D01*
X125755429Y-26331890D01*
X125755428Y-26331893D01*
X125731522Y-26405464D01*
X125699500Y-26607644D01*
X125699500Y-26812355D01*
X125731522Y-27014536D01*
X125740905Y-27043414D01*
X125740904Y-27104599D01*
X125716754Y-27144008D01*
X122970261Y-29890504D01*
X122915744Y-29918281D01*
X122900257Y-29919500D01*
X101125137Y-29919500D01*
X101125121Y-29919499D01*
X101119058Y-29919499D01*
X100960943Y-29919499D01*
X100960940Y-29919499D01*
X100808219Y-29960421D01*
X100808218Y-29960421D01*
X100671284Y-30039480D01*
X98374329Y-32336434D01*
X98319812Y-32364211D01*
X98276697Y-32360820D01*
X98276607Y-32361198D01*
X98274223Y-32360625D01*
X98273743Y-32360588D01*
X98272826Y-32360290D01*
X98272829Y-32360290D01*
X98078420Y-32329500D01*
X98078417Y-32329500D01*
X97881583Y-32329500D01*
X97881580Y-32329500D01*
X97687178Y-32360289D01*
X97499974Y-32421116D01*
X97324597Y-32510474D01*
X97165355Y-32626171D01*
X97026171Y-32765355D01*
X96910474Y-32924597D01*
X96821116Y-33099974D01*
X96760289Y-33287178D01*
X96729500Y-33481579D01*
X96729500Y-33678420D01*
X96760289Y-33872821D01*
X96821116Y-34060025D01*
X96907674Y-34229907D01*
X96910476Y-34235405D01*
X97026172Y-34394646D01*
X97165354Y-34533828D01*
X97324595Y-34649524D01*
X97499975Y-34738884D01*
X97687174Y-34799709D01*
X97687175Y-34799709D01*
X97687178Y-34799710D01*
X97881580Y-34830500D01*
X97881583Y-34830500D01*
X98078420Y-34830500D01*
X98272821Y-34799710D01*
X98272822Y-34799709D01*
X98272826Y-34799709D01*
X98460025Y-34738884D01*
X98635405Y-34649524D01*
X98794646Y-34533828D01*
X98933828Y-34394646D01*
X99049524Y-34235405D01*
X99138884Y-34060025D01*
X99199709Y-33872826D01*
X99206368Y-33830781D01*
X99230500Y-33678420D01*
X99230500Y-33481579D01*
X99199710Y-33287178D01*
X99199414Y-33286267D01*
X99199413Y-33285944D01*
X99198803Y-33283401D01*
X99199413Y-33283254D01*
X99199413Y-33225082D01*
X99223562Y-33185671D01*
X101259740Y-31149496D01*
X101314257Y-31121719D01*
X101329744Y-31120500D01*
X118099990Y-31120500D01*
X118158181Y-31139407D01*
X118194145Y-31188907D01*
X118194145Y-31250093D01*
X118188199Y-31264445D01*
X118174780Y-31290780D01*
X118111521Y-31485470D01*
X118079500Y-31687644D01*
X118079500Y-31892355D01*
X118111521Y-32094529D01*
X118174780Y-32289219D01*
X118267712Y-32471609D01*
X118267714Y-32471613D01*
X118388029Y-32637213D01*
X118388031Y-32637215D01*
X118388034Y-32637219D01*
X118532781Y-32781966D01*
X118532784Y-32781968D01*
X118532786Y-32781970D01*
X118698386Y-32902285D01*
X118698390Y-32902287D01*
X118834797Y-32971790D01*
X118878062Y-33015055D01*
X118887633Y-33075487D01*
X118859856Y-33130004D01*
X118834797Y-33148210D01*
X118698390Y-33217712D01*
X118698386Y-33217714D01*
X118532786Y-33338029D01*
X118388029Y-33482786D01*
X118267714Y-33648386D01*
X118267712Y-33648390D01*
X118174780Y-33830780D01*
X118111521Y-34025470D01*
X118079500Y-34227644D01*
X118079500Y-34432355D01*
X118111521Y-34634529D01*
X118174780Y-34829219D01*
X118267712Y-35011609D01*
X118275703Y-35022608D01*
X118294608Y-35080800D01*
X118275699Y-35138990D01*
X118226197Y-35174952D01*
X118221232Y-35176422D01*
X118136519Y-35199121D01*
X118136518Y-35199121D01*
X117999584Y-35278180D01*
X115690225Y-37587539D01*
X115635708Y-37615316D01*
X115575276Y-37605745D01*
X115550217Y-37587539D01*
X115510292Y-37547614D01*
X115510289Y-37547611D01*
X115423356Y-37489524D01*
X115379185Y-37460009D01*
X115379174Y-37460003D01*
X115233497Y-37399663D01*
X115078844Y-37368900D01*
X115078842Y-37368900D01*
X114921158Y-37368900D01*
X114921155Y-37368900D01*
X114766503Y-37399663D01*
X114766501Y-37399663D01*
X114620825Y-37460003D01*
X114620814Y-37460009D01*
X114530723Y-37520207D01*
X114491949Y-37546115D01*
X114436949Y-37562800D01*
X106505249Y-37562800D01*
X106447058Y-37543893D01*
X106411094Y-37494393D01*
X106411094Y-37433207D01*
X106447058Y-37383707D01*
X106452569Y-37379979D01*
X106615878Y-37277366D01*
X106750628Y-37169907D01*
X106860691Y-37082135D01*
X106860692Y-37082133D01*
X106860702Y-37082126D01*
X107082126Y-36860702D01*
X107277366Y-36615878D01*
X107443968Y-36350733D01*
X107579835Y-36068603D01*
X107683259Y-35773034D01*
X107752939Y-35467743D01*
X107752939Y-35467740D01*
X107752941Y-35467733D01*
X107781539Y-35213910D01*
X107788000Y-35156571D01*
X107788000Y-34843429D01*
X107782382Y-34793567D01*
X107752941Y-34532266D01*
X107730137Y-34432355D01*
X107683259Y-34226966D01*
X107668405Y-34184517D01*
X107579836Y-33931400D01*
X107551628Y-33872826D01*
X107443968Y-33649267D01*
X107277366Y-33384122D01*
X107277363Y-33384118D01*
X107277361Y-33384115D01*
X107082135Y-33139308D01*
X107082129Y-33139302D01*
X107082126Y-33139298D01*
X106860702Y-32917874D01*
X106860696Y-32917869D01*
X106860691Y-32917864D01*
X106615884Y-32722638D01*
X106615881Y-32722636D01*
X106615682Y-32722511D01*
X106350733Y-32556032D01*
X106175429Y-32471610D01*
X106068599Y-32420163D01*
X105773037Y-32316741D01*
X105467733Y-32247058D01*
X105156587Y-32212001D01*
X105156572Y-32212000D01*
X105156571Y-32212000D01*
X104843429Y-32212000D01*
X104843428Y-32212000D01*
X104843412Y-32212001D01*
X104532266Y-32247058D01*
X104226962Y-32316741D01*
X103931400Y-32420163D01*
X103649274Y-32556028D01*
X103649269Y-32556031D01*
X103384118Y-32722636D01*
X103384115Y-32722638D01*
X103139308Y-32917864D01*
X102917864Y-33139308D01*
X102722638Y-33384115D01*
X102722636Y-33384118D01*
X102661395Y-33481583D01*
X102562228Y-33639407D01*
X102556031Y-33649269D01*
X102556028Y-33649274D01*
X102420163Y-33931400D01*
X102316741Y-34226962D01*
X102247058Y-34532266D01*
X102212001Y-34843412D01*
X102212000Y-34843429D01*
X102212000Y-35156570D01*
X102212001Y-35156587D01*
X102247058Y-35467733D01*
X102316741Y-35773037D01*
X102420163Y-36068599D01*
X102477851Y-36188390D01*
X102556032Y-36350733D01*
X102722634Y-36615878D01*
X102722636Y-36615881D01*
X102722638Y-36615884D01*
X102917864Y-36860691D01*
X102917870Y-36860697D01*
X102917874Y-36860702D01*
X103139298Y-37082126D01*
X103139302Y-37082129D01*
X103139308Y-37082135D01*
X103384115Y-37277361D01*
X103384119Y-37277363D01*
X103384122Y-37277366D01*
X103547422Y-37379974D01*
X103586634Y-37426943D01*
X103590750Y-37487990D01*
X103558198Y-37539797D01*
X103501411Y-37562576D01*
X103494751Y-37562800D01*
X97469239Y-37562800D01*
X97411048Y-37543893D01*
X97375084Y-37494393D01*
X97375084Y-37433207D01*
X97411047Y-37383708D01*
X97424646Y-37373828D01*
X97563828Y-37234646D01*
X97679524Y-37075405D01*
X97768884Y-36900025D01*
X97829709Y-36712826D01*
X97834060Y-36685354D01*
X97860500Y-36518420D01*
X97860500Y-36321579D01*
X97829710Y-36127178D01*
X97810678Y-36068603D01*
X97768884Y-35939975D01*
X97679524Y-35764595D01*
X97563828Y-35605354D01*
X97424646Y-35466172D01*
X97265405Y-35350476D01*
X97265404Y-35350475D01*
X97265402Y-35350474D01*
X97090025Y-35261116D01*
X96902821Y-35200289D01*
X96708420Y-35169500D01*
X96708417Y-35169500D01*
X96511583Y-35169500D01*
X96511580Y-35169500D01*
X96317178Y-35200289D01*
X96129974Y-35261116D01*
X95954597Y-35350474D01*
X95795355Y-35466171D01*
X95656171Y-35605355D01*
X95540474Y-35764597D01*
X95451116Y-35939974D01*
X95390289Y-36127178D01*
X95359500Y-36321579D01*
X95359500Y-36518420D01*
X95390289Y-36712821D01*
X95451116Y-36900025D01*
X95536824Y-37068239D01*
X95540476Y-37075405D01*
X95656172Y-37234646D01*
X95795354Y-37373828D01*
X95808952Y-37383708D01*
X95844916Y-37433207D01*
X95844916Y-37494393D01*
X95808952Y-37543893D01*
X95750761Y-37562800D01*
X94729239Y-37562800D01*
X94671048Y-37543893D01*
X94635084Y-37494393D01*
X94635084Y-37433207D01*
X94671047Y-37383708D01*
X94684646Y-37373828D01*
X94823828Y-37234646D01*
X94939524Y-37075405D01*
X95028884Y-36900025D01*
X95089709Y-36712826D01*
X95094060Y-36685354D01*
X95120500Y-36518420D01*
X95120500Y-36321579D01*
X95089710Y-36127178D01*
X95070678Y-36068603D01*
X95028884Y-35939975D01*
X94939524Y-35764595D01*
X94823828Y-35605354D01*
X94684646Y-35466172D01*
X94525405Y-35350476D01*
X94525404Y-35350475D01*
X94525402Y-35350474D01*
X94350025Y-35261116D01*
X94162821Y-35200289D01*
X93968420Y-35169500D01*
X93968417Y-35169500D01*
X93771583Y-35169500D01*
X93771580Y-35169500D01*
X93577178Y-35200289D01*
X93389974Y-35261116D01*
X93214597Y-35350474D01*
X93055355Y-35466171D01*
X92916171Y-35605355D01*
X92800474Y-35764597D01*
X92711116Y-35939974D01*
X92650289Y-36127178D01*
X92619500Y-36321579D01*
X92619500Y-36518420D01*
X92650289Y-36712821D01*
X92711116Y-36900025D01*
X92796824Y-37068239D01*
X92800476Y-37075405D01*
X92916172Y-37234646D01*
X93055354Y-37373828D01*
X93068952Y-37383708D01*
X93104916Y-37433207D01*
X93104916Y-37494393D01*
X93068952Y-37543893D01*
X93010761Y-37562800D01*
X91989239Y-37562800D01*
X91931048Y-37543893D01*
X91895084Y-37494393D01*
X91895084Y-37433207D01*
X91931047Y-37383708D01*
X91944646Y-37373828D01*
X92083828Y-37234646D01*
X92199524Y-37075405D01*
X92288884Y-36900025D01*
X92349709Y-36712826D01*
X92354060Y-36685354D01*
X92380500Y-36518420D01*
X92380500Y-36321579D01*
X92349710Y-36127178D01*
X92330678Y-36068603D01*
X92288884Y-35939975D01*
X92199524Y-35764595D01*
X92083828Y-35605354D01*
X91944646Y-35466172D01*
X91785405Y-35350476D01*
X91785404Y-35350475D01*
X91785402Y-35350474D01*
X91610025Y-35261116D01*
X91422821Y-35200289D01*
X91228420Y-35169500D01*
X91228417Y-35169500D01*
X91031583Y-35169500D01*
X91031580Y-35169500D01*
X90837178Y-35200289D01*
X90649974Y-35261116D01*
X90474597Y-35350474D01*
X90315355Y-35466171D01*
X90176171Y-35605355D01*
X90060474Y-35764597D01*
X89971116Y-35939974D01*
X89910289Y-36127178D01*
X89879500Y-36321579D01*
X89879500Y-36518420D01*
X89910289Y-36712821D01*
X89971116Y-36900025D01*
X90056824Y-37068239D01*
X90060476Y-37075405D01*
X90176172Y-37234646D01*
X90315354Y-37373828D01*
X90328952Y-37383708D01*
X90364916Y-37433207D01*
X90364916Y-37494393D01*
X90328952Y-37543893D01*
X90270761Y-37562800D01*
X81505249Y-37562800D01*
X81447058Y-37543893D01*
X81411094Y-37494393D01*
X81411094Y-37433207D01*
X81447058Y-37383707D01*
X81452569Y-37379979D01*
X81615878Y-37277366D01*
X81750628Y-37169907D01*
X81860691Y-37082135D01*
X81860692Y-37082133D01*
X81860702Y-37082126D01*
X82082126Y-36860702D01*
X82277366Y-36615878D01*
X82443968Y-36350733D01*
X82579835Y-36068603D01*
X82683259Y-35773034D01*
X82752939Y-35467743D01*
X82752939Y-35467740D01*
X82752941Y-35467733D01*
X82781539Y-35213910D01*
X82788000Y-35156571D01*
X82788000Y-34843429D01*
X82782382Y-34793567D01*
X82752941Y-34532266D01*
X82730137Y-34432355D01*
X82683259Y-34226966D01*
X82668405Y-34184517D01*
X82579836Y-33931400D01*
X82551628Y-33872826D01*
X82443968Y-33649267D01*
X82277366Y-33384122D01*
X82277363Y-33384118D01*
X82277361Y-33384115D01*
X82082135Y-33139308D01*
X82082129Y-33139302D01*
X82082126Y-33139298D01*
X81860702Y-32917874D01*
X81860689Y-32917864D01*
X81784215Y-32856878D01*
X81784213Y-32856875D01*
X81690484Y-32782129D01*
X85769500Y-32782129D01*
X85769500Y-34377866D01*
X85769501Y-34377870D01*
X85775908Y-34437480D01*
X85775909Y-34437485D01*
X85826202Y-34572329D01*
X85912450Y-34687541D01*
X85912454Y-34687546D01*
X85912457Y-34687548D01*
X85912458Y-34687549D01*
X86027670Y-34773797D01*
X86162511Y-34824089D01*
X86162512Y-34824089D01*
X86162517Y-34824091D01*
X86222127Y-34830500D01*
X87817872Y-34830499D01*
X87877483Y-34824091D01*
X87959322Y-34793567D01*
X88012329Y-34773797D01*
X88012329Y-34773796D01*
X88012331Y-34773796D01*
X88127546Y-34687546D01*
X88213796Y-34572331D01*
X88264091Y-34437483D01*
X88270500Y-34377873D01*
X88270499Y-33481579D01*
X88509500Y-33481579D01*
X88509500Y-33678420D01*
X88540289Y-33872821D01*
X88601116Y-34060025D01*
X88687674Y-34229907D01*
X88690476Y-34235405D01*
X88806172Y-34394646D01*
X88945354Y-34533828D01*
X89104595Y-34649524D01*
X89279975Y-34738884D01*
X89467174Y-34799709D01*
X89467175Y-34799709D01*
X89467178Y-34799710D01*
X89661580Y-34830500D01*
X89661583Y-34830500D01*
X89858420Y-34830500D01*
X90052821Y-34799710D01*
X90052822Y-34799709D01*
X90052826Y-34799709D01*
X90240025Y-34738884D01*
X90415405Y-34649524D01*
X90574646Y-34533828D01*
X90713828Y-34394646D01*
X90829524Y-34235405D01*
X90918884Y-34060025D01*
X90979709Y-33872826D01*
X90986368Y-33830781D01*
X91010500Y-33678420D01*
X91010500Y-33481579D01*
X90979710Y-33287178D01*
X90970082Y-33257546D01*
X90918884Y-33099975D01*
X90829524Y-32924595D01*
X90713828Y-32765354D01*
X90574646Y-32626172D01*
X90415405Y-32510476D01*
X90415404Y-32510475D01*
X90415402Y-32510474D01*
X90240025Y-32421116D01*
X90052821Y-32360289D01*
X89858420Y-32329500D01*
X89858417Y-32329500D01*
X89661583Y-32329500D01*
X89661580Y-32329500D01*
X89467178Y-32360289D01*
X89279974Y-32421116D01*
X89104597Y-32510474D01*
X88945355Y-32626171D01*
X88806171Y-32765355D01*
X88690474Y-32924597D01*
X88601116Y-33099974D01*
X88540289Y-33287178D01*
X88509500Y-33481579D01*
X88270499Y-33481579D01*
X88270499Y-32782128D01*
X88264091Y-32722517D01*
X88228157Y-32626172D01*
X88213797Y-32587670D01*
X88127549Y-32472458D01*
X88127548Y-32472457D01*
X88127546Y-32472454D01*
X88126419Y-32471610D01*
X88012329Y-32386202D01*
X87877488Y-32335910D01*
X87877483Y-32335909D01*
X87877481Y-32335908D01*
X87877477Y-32335908D01*
X87846249Y-32332550D01*
X87817873Y-32329500D01*
X87817870Y-32329500D01*
X86222133Y-32329500D01*
X86222129Y-32329500D01*
X86222128Y-32329501D01*
X86214949Y-32330272D01*
X86162519Y-32335908D01*
X86162514Y-32335909D01*
X86027670Y-32386202D01*
X85912458Y-32472450D01*
X85912450Y-32472458D01*
X85826202Y-32587670D01*
X85775910Y-32722511D01*
X85775908Y-32722522D01*
X85774672Y-32734019D01*
X85769518Y-32781966D01*
X85769500Y-32782129D01*
X81690484Y-32782129D01*
X81615884Y-32722638D01*
X81615881Y-32722636D01*
X81615682Y-32722511D01*
X81350733Y-32556032D01*
X81175429Y-32471610D01*
X81068599Y-32420163D01*
X80773037Y-32316741D01*
X80467733Y-32247058D01*
X80156587Y-32212001D01*
X80156572Y-32212000D01*
X80156571Y-32212000D01*
X79843429Y-32212000D01*
X79843428Y-32212000D01*
X79843412Y-32212001D01*
X79532266Y-32247058D01*
X79226962Y-32316741D01*
X78931400Y-32420163D01*
X78649274Y-32556028D01*
X78649269Y-32556031D01*
X78384118Y-32722636D01*
X78384115Y-32722638D01*
X78139308Y-32917864D01*
X77917864Y-33139308D01*
X77722638Y-33384115D01*
X77722636Y-33384118D01*
X77661395Y-33481583D01*
X77562228Y-33639407D01*
X77556031Y-33649269D01*
X77556028Y-33649274D01*
X77420163Y-33931400D01*
X77316741Y-34226962D01*
X77247058Y-34532266D01*
X77212001Y-34843412D01*
X77212000Y-34843429D01*
X77212000Y-35156570D01*
X77212001Y-35156587D01*
X77247058Y-35467733D01*
X77316741Y-35773037D01*
X77420163Y-36068599D01*
X77477851Y-36188390D01*
X77556032Y-36350733D01*
X77722634Y-36615878D01*
X77722636Y-36615881D01*
X77722638Y-36615884D01*
X77917864Y-36860691D01*
X77917870Y-36860697D01*
X77917874Y-36860702D01*
X78139298Y-37082126D01*
X78139302Y-37082129D01*
X78139308Y-37082135D01*
X78384115Y-37277361D01*
X78384119Y-37277363D01*
X78384122Y-37277366D01*
X78547422Y-37379974D01*
X78586634Y-37426943D01*
X78590750Y-37487990D01*
X78558198Y-37539797D01*
X78501411Y-37562576D01*
X78494751Y-37562800D01*
X76769644Y-37562800D01*
X76711453Y-37543893D01*
X76699640Y-37533804D01*
X75783321Y-36617486D01*
X75783320Y-36617484D01*
X75671516Y-36505680D01*
X75671513Y-36505678D01*
X75563736Y-36443453D01*
X75563733Y-36443452D01*
X75534587Y-36426624D01*
X75534586Y-36426623D01*
X75534585Y-36426623D01*
X75381857Y-36385699D01*
X75223743Y-36385699D01*
X75217680Y-36385699D01*
X75217664Y-36385700D01*
X27098923Y-36385700D01*
X27092857Y-36385699D01*
X27091280Y-36385699D01*
X27091243Y-36385687D01*
X27046348Y-36374909D01*
X27038244Y-36370780D01*
X26980025Y-36341116D01*
X26939508Y-36327951D01*
X26792821Y-36280289D01*
X26598420Y-36249500D01*
X26598417Y-36249500D01*
X26401583Y-36249500D01*
X26401580Y-36249500D01*
X26207178Y-36280289D01*
X26019974Y-36341116D01*
X25844597Y-36430474D01*
X25685355Y-36546171D01*
X25546171Y-36685355D01*
X25430474Y-36844597D01*
X25341116Y-37019974D01*
X25280289Y-37207178D01*
X25249500Y-37401579D01*
X25249500Y-37598420D01*
X25280289Y-37792821D01*
X25341116Y-37980025D01*
X25409809Y-38114845D01*
X25430476Y-38155405D01*
X25546172Y-38314646D01*
X25685354Y-38453828D01*
X25844595Y-38569524D01*
X26019975Y-38658884D01*
X26207174Y-38719709D01*
X26207175Y-38719709D01*
X26207178Y-38719710D01*
X26401580Y-38750500D01*
X26401583Y-38750500D01*
X26598420Y-38750500D01*
X26792821Y-38719710D01*
X26792822Y-38719709D01*
X26792826Y-38719709D01*
X26980025Y-38658884D01*
X27155405Y-38569524D01*
X27314646Y-38453828D01*
X27453828Y-38314646D01*
X27569524Y-38155405D01*
X27658884Y-37980025D01*
X27719709Y-37792826D01*
X27727385Y-37744360D01*
X27739129Y-37670213D01*
X27766906Y-37615697D01*
X27821423Y-37587919D01*
X27836910Y-37586700D01*
X35686273Y-37586700D01*
X35744464Y-37605607D01*
X35780428Y-37655107D01*
X35780428Y-37716293D01*
X35765526Y-37745029D01*
X35681202Y-37857670D01*
X35630910Y-37992511D01*
X35630908Y-37992522D01*
X35629899Y-38001908D01*
X35626104Y-38037213D01*
X35624500Y-38052129D01*
X35624500Y-39947866D01*
X35624501Y-39947870D01*
X35630908Y-40007480D01*
X35630909Y-40007485D01*
X35681202Y-40142329D01*
X35767209Y-40257219D01*
X35767454Y-40257546D01*
X35767457Y-40257548D01*
X35767458Y-40257549D01*
X35882670Y-40343797D01*
X36017511Y-40394089D01*
X36017512Y-40394089D01*
X36017517Y-40394091D01*
X36077127Y-40400500D01*
X37972872Y-40400499D01*
X38032483Y-40394091D01*
X38108633Y-40365689D01*
X38167329Y-40343797D01*
X38167329Y-40343796D01*
X38167331Y-40343796D01*
X38282546Y-40257546D01*
X38368796Y-40142331D01*
X38412195Y-40025969D01*
X38450245Y-39978056D01*
X38509192Y-39961658D01*
X38566519Y-39983039D01*
X38574947Y-39990554D01*
X38652635Y-40068242D01*
X38830978Y-40197815D01*
X39027394Y-40297895D01*
X39237049Y-40366015D01*
X39324140Y-40379809D01*
X39454775Y-40400500D01*
X39454778Y-40400500D01*
X39675225Y-40400500D01*
X39784086Y-40383257D01*
X39892951Y-40366015D01*
X40102606Y-40297895D01*
X40299022Y-40197815D01*
X40477365Y-40068242D01*
X40633242Y-39912365D01*
X40762815Y-39734022D01*
X40862895Y-39537606D01*
X40931015Y-39327951D01*
X40965500Y-39110222D01*
X40965500Y-38889778D01*
X40965500Y-38889774D01*
X40931015Y-38672051D01*
X40931015Y-38672049D01*
X40862895Y-38462394D01*
X40762815Y-38265978D01*
X40633242Y-38087635D01*
X40477365Y-37931758D01*
X40299022Y-37802185D01*
X40299021Y-37802184D01*
X40299019Y-37802183D01*
X40266135Y-37785428D01*
X40243528Y-37773909D01*
X40200264Y-37730645D01*
X40190693Y-37670213D01*
X40218470Y-37615697D01*
X40272987Y-37587919D01*
X40288474Y-37586700D01*
X59543093Y-37586700D01*
X59601284Y-37605607D01*
X59637248Y-37655107D01*
X59637248Y-37716293D01*
X59611521Y-37795470D01*
X59579500Y-37997644D01*
X59579500Y-38202355D01*
X59611522Y-38404531D01*
X59638775Y-38488408D01*
X59638775Y-38549593D01*
X59602811Y-38599093D01*
X59544620Y-38618000D01*
X56049837Y-38618000D01*
X56049821Y-38617999D01*
X56043758Y-38617999D01*
X55885643Y-38617999D01*
X55885640Y-38617999D01*
X55732919Y-38658921D01*
X55732918Y-38658921D01*
X55595984Y-38737980D01*
X53077401Y-41256562D01*
X53022884Y-41284339D01*
X52962452Y-41274768D01*
X52919187Y-41231503D01*
X52909616Y-41171071D01*
X52909616Y-41171070D01*
X52920500Y-41102353D01*
X52920500Y-40897644D01*
X52888478Y-40695470D01*
X52888477Y-40695466D01*
X52825220Y-40500781D01*
X52732287Y-40318390D01*
X52732285Y-40318386D01*
X52611970Y-40152786D01*
X52611968Y-40152784D01*
X52611966Y-40152781D01*
X52467219Y-40008034D01*
X52467215Y-40008031D01*
X52467213Y-40008029D01*
X52301613Y-39887714D01*
X52301609Y-39887712D01*
X52119219Y-39794780D01*
X51924529Y-39731521D01*
X51722355Y-39699500D01*
X51722352Y-39699500D01*
X51517648Y-39699500D01*
X51517645Y-39699500D01*
X51315470Y-39731521D01*
X51120780Y-39794780D01*
X50938390Y-39887712D01*
X50938386Y-39887714D01*
X50772786Y-40008029D01*
X50628029Y-40152786D01*
X50507714Y-40318386D01*
X50507712Y-40318390D01*
X50414780Y-40500780D01*
X50351521Y-40695470D01*
X50319500Y-40897644D01*
X50319500Y-41102355D01*
X50351521Y-41304529D01*
X50414780Y-41499219D01*
X50489298Y-41645470D01*
X50507713Y-41681610D01*
X50541933Y-41728711D01*
X50560840Y-41786900D01*
X50541933Y-41845091D01*
X50492433Y-41881055D01*
X50461840Y-41885900D01*
X18598736Y-41885900D01*
X18598720Y-41885899D01*
X18592657Y-41885899D01*
X18434543Y-41885899D01*
X18281815Y-41926823D01*
X18281813Y-41926823D01*
X18281809Y-41926825D01*
X18231695Y-41955759D01*
X18144884Y-42005879D01*
X18033079Y-42117683D01*
X18033080Y-42117684D01*
X18033078Y-42117686D01*
X18033077Y-42117686D01*
X17594328Y-42556434D01*
X17539812Y-42584211D01*
X17496697Y-42580820D01*
X17496607Y-42581198D01*
X17494223Y-42580625D01*
X17493743Y-42580588D01*
X17492826Y-42580290D01*
X17492829Y-42580290D01*
X17298420Y-42549500D01*
X17298417Y-42549500D01*
X17101583Y-42549500D01*
X17101580Y-42549500D01*
X16907178Y-42580289D01*
X16719974Y-42641116D01*
X16544597Y-42730474D01*
X16385355Y-42846171D01*
X16246171Y-42985355D01*
X16130474Y-43144597D01*
X16041116Y-43319974D01*
X15980289Y-43507178D01*
X15949500Y-43701579D01*
X15949500Y-43898420D01*
X15980289Y-44092821D01*
X16041116Y-44280025D01*
X16125568Y-44445774D01*
X16130476Y-44455405D01*
X16246172Y-44614646D01*
X16385354Y-44753828D01*
X16544595Y-44869524D01*
X16719975Y-44958884D01*
X16907174Y-45019709D01*
X16907175Y-45019709D01*
X16907178Y-45019710D01*
X17101580Y-45050500D01*
X17101583Y-45050500D01*
X17298420Y-45050500D01*
X17492821Y-45019710D01*
X17492822Y-45019709D01*
X17492826Y-45019709D01*
X17680025Y-44958884D01*
X17855405Y-44869524D01*
X18014646Y-44753828D01*
X18153828Y-44614646D01*
X18269524Y-44455405D01*
X18358884Y-44280025D01*
X18419709Y-44092826D01*
X18419710Y-44092821D01*
X18450500Y-43898420D01*
X18450500Y-43701579D01*
X18419710Y-43507178D01*
X18419414Y-43506267D01*
X18419413Y-43505944D01*
X18418803Y-43503401D01*
X18419413Y-43503254D01*
X18419413Y-43445082D01*
X18443565Y-43405669D01*
X18733339Y-43115896D01*
X18787855Y-43088119D01*
X18803342Y-43086900D01*
X31598320Y-43086900D01*
X31656511Y-43105807D01*
X31692475Y-43155307D01*
X31692475Y-43216493D01*
X31686530Y-43230845D01*
X31641116Y-43319974D01*
X31580289Y-43507178D01*
X31549500Y-43701579D01*
X31549500Y-43898420D01*
X31580290Y-44092823D01*
X31597343Y-44145308D01*
X31597342Y-44206493D01*
X31561378Y-44255993D01*
X31503188Y-44274900D01*
X19045542Y-44274900D01*
X19004618Y-44285865D01*
X19004617Y-44285864D01*
X18892819Y-44315821D01*
X18892818Y-44315821D01*
X18812219Y-44362355D01*
X18768411Y-44387648D01*
X18755881Y-44394882D01*
X18644079Y-44506683D01*
X18644080Y-44506684D01*
X18644078Y-44506686D01*
X17594329Y-45556434D01*
X17539812Y-45584211D01*
X17496697Y-45580820D01*
X17496607Y-45581198D01*
X17494223Y-45580625D01*
X17493743Y-45580588D01*
X17492826Y-45580290D01*
X17492829Y-45580290D01*
X17298420Y-45549500D01*
X17298417Y-45549500D01*
X17101583Y-45549500D01*
X17101580Y-45549500D01*
X16907178Y-45580289D01*
X16719974Y-45641116D01*
X16544597Y-45730474D01*
X16385355Y-45846171D01*
X16246171Y-45985355D01*
X16130474Y-46144597D01*
X16041116Y-46319974D01*
X15980289Y-46507178D01*
X15949500Y-46701579D01*
X15949500Y-46898420D01*
X15980289Y-47092821D01*
X16041116Y-47280025D01*
X16102906Y-47401297D01*
X16130476Y-47455405D01*
X16246172Y-47614646D01*
X16385354Y-47753828D01*
X16544595Y-47869524D01*
X16719975Y-47958884D01*
X16907174Y-48019709D01*
X16907175Y-48019709D01*
X16907178Y-48019710D01*
X17101580Y-48050500D01*
X17101583Y-48050500D01*
X17298420Y-48050500D01*
X17492821Y-48019710D01*
X17492822Y-48019709D01*
X17492826Y-48019709D01*
X17680025Y-47958884D01*
X17855405Y-47869524D01*
X18014646Y-47753828D01*
X18153828Y-47614646D01*
X18269524Y-47455405D01*
X18358884Y-47280025D01*
X18419709Y-47092826D01*
X18419710Y-47092821D01*
X18450500Y-46898420D01*
X18450500Y-46701579D01*
X18419710Y-46507178D01*
X18419414Y-46506267D01*
X18419413Y-46505944D01*
X18418803Y-46503401D01*
X18419413Y-46503254D01*
X18419413Y-46445082D01*
X18443565Y-46405669D01*
X19344340Y-45504896D01*
X19398856Y-45477119D01*
X19414343Y-45475900D01*
X20631864Y-45475900D01*
X20690055Y-45494807D01*
X20726019Y-45544307D01*
X20726019Y-45605493D01*
X20690055Y-45654993D01*
X20676809Y-45663110D01*
X20544597Y-45730474D01*
X20385355Y-45846171D01*
X20246171Y-45985355D01*
X20130474Y-46144597D01*
X20041116Y-46319974D01*
X19980289Y-46507178D01*
X19949500Y-46701579D01*
X19949500Y-46898420D01*
X19980289Y-47092821D01*
X20041116Y-47280025D01*
X20102906Y-47401297D01*
X20130476Y-47455405D01*
X20246172Y-47614646D01*
X20385354Y-47753828D01*
X20544595Y-47869524D01*
X20719975Y-47958884D01*
X20907174Y-48019709D01*
X20907175Y-48019709D01*
X20907178Y-48019710D01*
X21101580Y-48050500D01*
X21101583Y-48050500D01*
X21298420Y-48050500D01*
X21492821Y-48019710D01*
X21492822Y-48019709D01*
X21492826Y-48019709D01*
X21680025Y-47958884D01*
X21855405Y-47869524D01*
X22014646Y-47753828D01*
X22153828Y-47614646D01*
X22269524Y-47455405D01*
X22358884Y-47280025D01*
X22419709Y-47092826D01*
X22419710Y-47092821D01*
X22450500Y-46898420D01*
X22450500Y-46701579D01*
X22419710Y-46507178D01*
X22418093Y-46502200D01*
X22358884Y-46319975D01*
X22269524Y-46144595D01*
X22153828Y-45985354D01*
X22014646Y-45846172D01*
X21855405Y-45730476D01*
X21855404Y-45730475D01*
X21855402Y-45730474D01*
X21723191Y-45663110D01*
X21679926Y-45619845D01*
X21670355Y-45559413D01*
X21698132Y-45504897D01*
X21752649Y-45477119D01*
X21768136Y-45475900D01*
X32231864Y-45475900D01*
X32290055Y-45494807D01*
X32326019Y-45544307D01*
X32326019Y-45605493D01*
X32290055Y-45654993D01*
X32276809Y-45663110D01*
X32144597Y-45730474D01*
X31985355Y-45846171D01*
X31846171Y-45985355D01*
X31730474Y-46144597D01*
X31641116Y-46319974D01*
X31580289Y-46507178D01*
X31549500Y-46701579D01*
X31549500Y-46898420D01*
X31580289Y-47092821D01*
X31641116Y-47280025D01*
X31702906Y-47401297D01*
X31730476Y-47455405D01*
X31846172Y-47614646D01*
X31985354Y-47753828D01*
X32144595Y-47869524D01*
X32319975Y-47958884D01*
X32507174Y-48019709D01*
X32507175Y-48019709D01*
X32507178Y-48019710D01*
X32701580Y-48050500D01*
X32701583Y-48050500D01*
X32898420Y-48050500D01*
X33092821Y-48019710D01*
X33092822Y-48019709D01*
X33092826Y-48019709D01*
X33280025Y-47958884D01*
X33455405Y-47869524D01*
X33522045Y-47821107D01*
X33580236Y-47802200D01*
X41282464Y-47802200D01*
X41282480Y-47802201D01*
X41288543Y-47802201D01*
X41446658Y-47802201D01*
X41446658Y-47802200D01*
X41555186Y-47773120D01*
X41616286Y-47776321D01*
X41663837Y-47814826D01*
X41679673Y-47873926D01*
X41657747Y-47931048D01*
X41650813Y-47938750D01*
X40060161Y-49529404D01*
X40005644Y-49557181D01*
X39990157Y-49558400D01*
X26526237Y-49558400D01*
X26526221Y-49558399D01*
X26520158Y-49558399D01*
X26362043Y-49558399D01*
X26362040Y-49558399D01*
X26209319Y-49599321D01*
X26209318Y-49599321D01*
X26072384Y-49678380D01*
X23894329Y-51856434D01*
X23839812Y-51884211D01*
X23796697Y-51880820D01*
X23796607Y-51881198D01*
X23794223Y-51880625D01*
X23793743Y-51880588D01*
X23792826Y-51880290D01*
X23792829Y-51880290D01*
X23598420Y-51849500D01*
X23598417Y-51849500D01*
X23401583Y-51849500D01*
X23401580Y-51849500D01*
X23207178Y-51880289D01*
X23019974Y-51941116D01*
X22844597Y-52030474D01*
X22685355Y-52146171D01*
X22546171Y-52285355D01*
X22430474Y-52444597D01*
X22341116Y-52619974D01*
X22280289Y-52807178D01*
X22249500Y-53001579D01*
X22249500Y-53198420D01*
X22280289Y-53392821D01*
X22341116Y-53580025D01*
X22419580Y-53734022D01*
X22430476Y-53755405D01*
X22546172Y-53914646D01*
X22685354Y-54053828D01*
X22844595Y-54169524D01*
X23019975Y-54258884D01*
X23166045Y-54306345D01*
X23215545Y-54342309D01*
X23234452Y-54400500D01*
X23215545Y-54458691D01*
X23166045Y-54494655D01*
X23135452Y-54499500D01*
X15599500Y-54499500D01*
X15541309Y-54480593D01*
X15505345Y-54431093D01*
X15500500Y-54400500D01*
X15500500Y-33897644D01*
X50319500Y-33897644D01*
X50319500Y-34102355D01*
X50351521Y-34304529D01*
X50414780Y-34499219D01*
X50507712Y-34681609D01*
X50507714Y-34681613D01*
X50628029Y-34847213D01*
X50628031Y-34847215D01*
X50628034Y-34847219D01*
X50772781Y-34991966D01*
X50772784Y-34991968D01*
X50772786Y-34991970D01*
X50938386Y-35112285D01*
X50938390Y-35112287D01*
X51120781Y-35205220D01*
X51315466Y-35268477D01*
X51315467Y-35268477D01*
X51315470Y-35268478D01*
X51517645Y-35300500D01*
X51517648Y-35300500D01*
X51722355Y-35300500D01*
X51924529Y-35268478D01*
X51924530Y-35268477D01*
X51924534Y-35268477D01*
X52119219Y-35205220D01*
X52301610Y-35112287D01*
X52344949Y-35080800D01*
X52356813Y-35072180D01*
X52467219Y-34991966D01*
X52611966Y-34847219D01*
X52718252Y-34700928D01*
X52732285Y-34681613D01*
X52732287Y-34681610D01*
X52825220Y-34499219D01*
X52888477Y-34304534D01*
X52900655Y-34227648D01*
X52920500Y-34102355D01*
X52920500Y-33897644D01*
X52888478Y-33695470D01*
X52882937Y-33678417D01*
X52825220Y-33500781D01*
X52732287Y-33318390D01*
X52732285Y-33318386D01*
X52611970Y-33152786D01*
X52611968Y-33152784D01*
X52611966Y-33152781D01*
X52467219Y-33008034D01*
X52467215Y-33008031D01*
X52467213Y-33008029D01*
X52447698Y-32993851D01*
X52342808Y-32917644D01*
X59579500Y-32917644D01*
X59579500Y-33122355D01*
X59611521Y-33324529D01*
X59674780Y-33519219D01*
X59767712Y-33701609D01*
X59767714Y-33701613D01*
X59888029Y-33867213D01*
X59888031Y-33867215D01*
X59888034Y-33867219D01*
X60032781Y-34011966D01*
X60032784Y-34011968D01*
X60032786Y-34011970D01*
X60198386Y-34132285D01*
X60198390Y-34132287D01*
X60380781Y-34225220D01*
X60575466Y-34288477D01*
X60575467Y-34288477D01*
X60575470Y-34288478D01*
X60777645Y-34320500D01*
X60777648Y-34320500D01*
X60982355Y-34320500D01*
X61184529Y-34288478D01*
X61184530Y-34288477D01*
X61184534Y-34288477D01*
X61379219Y-34225220D01*
X61561610Y-34132287D01*
X61727219Y-34011966D01*
X61871966Y-33867219D01*
X61992287Y-33701610D01*
X62006072Y-33674554D01*
X62049336Y-33631291D01*
X62094282Y-33620500D01*
X63555718Y-33620500D01*
X63613909Y-33639407D01*
X63643927Y-33674554D01*
X63645897Y-33678420D01*
X63657712Y-33701609D01*
X63657714Y-33701613D01*
X63778029Y-33867213D01*
X63778031Y-33867215D01*
X63778034Y-33867219D01*
X63922781Y-34011966D01*
X63922784Y-34011968D01*
X63922786Y-34011970D01*
X64088386Y-34132285D01*
X64088390Y-34132287D01*
X64270781Y-34225220D01*
X64465466Y-34288477D01*
X64465467Y-34288477D01*
X64465470Y-34288478D01*
X64667645Y-34320500D01*
X64667648Y-34320500D01*
X64872355Y-34320500D01*
X65074529Y-34288478D01*
X65074530Y-34288477D01*
X65074534Y-34288477D01*
X65269219Y-34225220D01*
X65451610Y-34132287D01*
X65617219Y-34011966D01*
X65761966Y-33867219D01*
X65882287Y-33701610D01*
X65975220Y-33519219D01*
X66038477Y-33324534D01*
X66042696Y-33297897D01*
X66070500Y-33122355D01*
X66070500Y-32917644D01*
X71089500Y-32917644D01*
X71089500Y-33122355D01*
X71121521Y-33324529D01*
X71184780Y-33519219D01*
X71277712Y-33701609D01*
X71277714Y-33701613D01*
X71398029Y-33867213D01*
X71398031Y-33867215D01*
X71398034Y-33867219D01*
X71542781Y-34011966D01*
X71542784Y-34011968D01*
X71542786Y-34011970D01*
X71708386Y-34132285D01*
X71708390Y-34132287D01*
X71890781Y-34225220D01*
X72085466Y-34288477D01*
X72085467Y-34288477D01*
X72085470Y-34288478D01*
X72287645Y-34320500D01*
X72287648Y-34320500D01*
X72492355Y-34320500D01*
X72694529Y-34288478D01*
X72694530Y-34288477D01*
X72694534Y-34288477D01*
X72889219Y-34225220D01*
X73071610Y-34132287D01*
X73237219Y-34011966D01*
X73381966Y-33867219D01*
X73502287Y-33701610D01*
X73595220Y-33519219D01*
X73658477Y-33324534D01*
X73662696Y-33297897D01*
X73690500Y-33122355D01*
X73690500Y-32917644D01*
X73658478Y-32715470D01*
X73633051Y-32637213D01*
X73595220Y-32520781D01*
X73502287Y-32338390D01*
X73502285Y-32338386D01*
X73381970Y-32172786D01*
X73381968Y-32172784D01*
X73381966Y-32172781D01*
X73237219Y-32028034D01*
X73237215Y-32028031D01*
X73237213Y-32028029D01*
X73071613Y-31907714D01*
X73071609Y-31907712D01*
X72889219Y-31814780D01*
X72694529Y-31751521D01*
X72492355Y-31719500D01*
X72492352Y-31719500D01*
X72287648Y-31719500D01*
X72287645Y-31719500D01*
X72085470Y-31751521D01*
X71890780Y-31814780D01*
X71708390Y-31907712D01*
X71708386Y-31907714D01*
X71542786Y-32028029D01*
X71398029Y-32172786D01*
X71277714Y-32338386D01*
X71277712Y-32338390D01*
X71184780Y-32520780D01*
X71121521Y-32715470D01*
X71089500Y-32917644D01*
X66070500Y-32917644D01*
X66038478Y-32715470D01*
X66013051Y-32637213D01*
X65975220Y-32520781D01*
X65882287Y-32338390D01*
X65882285Y-32338386D01*
X65761970Y-32172786D01*
X65761968Y-32172784D01*
X65761966Y-32172781D01*
X65617219Y-32028034D01*
X65617215Y-32028031D01*
X65617213Y-32028029D01*
X65451613Y-31907714D01*
X65451609Y-31907712D01*
X65269219Y-31814780D01*
X65074529Y-31751521D01*
X64872355Y-31719500D01*
X64872352Y-31719500D01*
X64667648Y-31719500D01*
X64667645Y-31719500D01*
X64465470Y-31751521D01*
X64270780Y-31814780D01*
X64088390Y-31907712D01*
X64088386Y-31907714D01*
X63922786Y-32028029D01*
X63778029Y-32172786D01*
X63657714Y-32338386D01*
X63657712Y-32338390D01*
X63647436Y-32358559D01*
X63644557Y-32364211D01*
X63643928Y-32365445D01*
X63600664Y-32408709D01*
X63555718Y-32419500D01*
X62094282Y-32419500D01*
X62036091Y-32400593D01*
X62006072Y-32365445D01*
X62005443Y-32364211D01*
X61992287Y-32338390D01*
X61992285Y-32338386D01*
X61871970Y-32172786D01*
X61871968Y-32172784D01*
X61871966Y-32172781D01*
X61727219Y-32028034D01*
X61727215Y-32028031D01*
X61727213Y-32028029D01*
X61561613Y-31907714D01*
X61561609Y-31907712D01*
X61379219Y-31814780D01*
X61184529Y-31751521D01*
X60982355Y-31719500D01*
X60982352Y-31719500D01*
X60777648Y-31719500D01*
X60777645Y-31719500D01*
X60575470Y-31751521D01*
X60380780Y-31814780D01*
X60198390Y-31907712D01*
X60198386Y-31907714D01*
X60032786Y-32028029D01*
X59888029Y-32172786D01*
X59767714Y-32338386D01*
X59767712Y-32338390D01*
X59674780Y-32520780D01*
X59611521Y-32715470D01*
X59579500Y-32917644D01*
X52342808Y-32917644D01*
X52301613Y-32887714D01*
X52301609Y-32887712D01*
X52119219Y-32794780D01*
X51924529Y-32731521D01*
X51722355Y-32699500D01*
X51722352Y-32699500D01*
X51517648Y-32699500D01*
X51517645Y-32699500D01*
X51315470Y-32731521D01*
X51120780Y-32794780D01*
X50938390Y-32887712D01*
X50938386Y-32887714D01*
X50772786Y-33008029D01*
X50628029Y-33152786D01*
X50507714Y-33318386D01*
X50507712Y-33318390D01*
X50414780Y-33500780D01*
X50351521Y-33695470D01*
X50319500Y-33897644D01*
X15500500Y-33897644D01*
X15500500Y-18674710D01*
X16945500Y-18674710D01*
X16945500Y-18917289D01*
X16977161Y-19157781D01*
X16977161Y-19157786D01*
X17039944Y-19392092D01*
X17039948Y-19392105D01*
X17132772Y-19616204D01*
X17132774Y-19616208D01*
X17132776Y-19616212D01*
X17222495Y-19771610D01*
X17254066Y-19826292D01*
X17401729Y-20018731D01*
X17401731Y-20018733D01*
X17401735Y-20018738D01*
X17573262Y-20190265D01*
X17573266Y-20190268D01*
X17573268Y-20190270D01*
X17718619Y-20301801D01*
X17765711Y-20337936D01*
X17975788Y-20459224D01*
X18199900Y-20552054D01*
X18434211Y-20614838D01*
X18674712Y-20646500D01*
X18674713Y-20646500D01*
X18917287Y-20646500D01*
X18917288Y-20646500D01*
X19157789Y-20614838D01*
X19392100Y-20552054D01*
X19616212Y-20459224D01*
X19826289Y-20337936D01*
X20018738Y-20190265D01*
X20190265Y-20018738D01*
X20337936Y-19826289D01*
X20459224Y-19616212D01*
X20552054Y-19392100D01*
X20614838Y-19157789D01*
X20646500Y-18917288D01*
X20646500Y-18674712D01*
X20614838Y-18434211D01*
X20552054Y-18199900D01*
X20459224Y-17975788D01*
X20337936Y-17765711D01*
X20190265Y-17573262D01*
X20018738Y-17401735D01*
X20018733Y-17401731D01*
X20018731Y-17401729D01*
X19826292Y-17254066D01*
X19826289Y-17254064D01*
X19616212Y-17132776D01*
X19616208Y-17132774D01*
X19616204Y-17132772D01*
X19392105Y-17039948D01*
X19392104Y-17039947D01*
X19392100Y-17039946D01*
X19157789Y-16977162D01*
X19157786Y-16977161D01*
X19157784Y-16977161D01*
X18917289Y-16945500D01*
X18917288Y-16945500D01*
X18674712Y-16945500D01*
X18674710Y-16945500D01*
X18434218Y-16977161D01*
X18434213Y-16977161D01*
X18199907Y-17039944D01*
X18199894Y-17039948D01*
X17975795Y-17132772D01*
X17765707Y-17254066D01*
X17573268Y-17401729D01*
X17401729Y-17573268D01*
X17254066Y-17765707D01*
X17132772Y-17975795D01*
X17039948Y-18199894D01*
X17039944Y-18199907D01*
X16977161Y-18434213D01*
X16977161Y-18434218D01*
X16945500Y-18674710D01*
X15500500Y-18674710D01*
X15500500Y-15599500D01*
X15519407Y-15541309D01*
X15568907Y-15505345D01*
X15599500Y-15500500D01*
X169400500Y-15500500D01*
X169458691Y-15519407D01*
G37*
%TD.AperFunction*%
%TA.AperFunction,Conductor*%
G36*
X131773448Y-43924407D02*
G01*
X131785261Y-43934496D01*
X132213120Y-44362355D01*
X132240897Y-44416872D01*
X132231326Y-44477304D01*
X132202671Y-44509560D01*
X132203466Y-44510529D01*
X132199714Y-44513607D01*
X132088214Y-44625107D01*
X132088211Y-44625111D01*
X132000609Y-44756214D01*
X132000603Y-44756225D01*
X131940263Y-44901901D01*
X131940263Y-44901903D01*
X131909500Y-45056555D01*
X131909500Y-45056558D01*
X131909500Y-45214242D01*
X131934689Y-45340877D01*
X131940263Y-45368896D01*
X131940263Y-45368898D01*
X132000603Y-45514574D01*
X132000609Y-45514585D01*
X132044867Y-45580820D01*
X132088211Y-45645689D01*
X132199711Y-45757189D01*
X132271183Y-45804945D01*
X132330814Y-45844790D01*
X132330825Y-45844796D01*
X132384638Y-45867085D01*
X132476503Y-45905137D01*
X132606466Y-45930988D01*
X132635928Y-45936849D01*
X132635603Y-45938480D01*
X132685338Y-45960219D01*
X132689601Y-45964236D01*
X135446978Y-48721613D01*
X135446980Y-48721616D01*
X135558784Y-48833420D01*
X135607591Y-48861598D01*
X135628096Y-48877331D01*
X136219478Y-49468713D01*
X136219480Y-49468716D01*
X136331284Y-49580520D01*
X136331286Y-49580521D01*
X136331289Y-49580524D01*
X136331288Y-49580524D01*
X136418091Y-49630637D01*
X136418093Y-49630639D01*
X136418094Y-49630639D01*
X136447032Y-49647346D01*
X136468215Y-49659577D01*
X136620943Y-49700501D01*
X136620944Y-49700501D01*
X136785120Y-49700501D01*
X136785136Y-49700500D01*
X138826544Y-49700500D01*
X138884735Y-49719407D01*
X138920699Y-49768907D01*
X138920699Y-49830093D01*
X138884735Y-49879593D01*
X138876045Y-49885236D01*
X138865391Y-49891386D01*
X138683342Y-50031078D01*
X138521078Y-50193342D01*
X138381388Y-50375388D01*
X138266653Y-50574116D01*
X138178841Y-50786114D01*
X138119452Y-51007761D01*
X138089500Y-51235265D01*
X138089500Y-51464734D01*
X138119452Y-51692238D01*
X138178841Y-51913885D01*
X138266653Y-52125883D01*
X138381388Y-52324611D01*
X138450385Y-52414529D01*
X138521081Y-52506661D01*
X138683339Y-52668919D01*
X138865388Y-52808611D01*
X139064112Y-52923344D01*
X139064113Y-52923344D01*
X139064116Y-52923346D01*
X139145879Y-52957213D01*
X139276113Y-53011158D01*
X139497762Y-53070548D01*
X139725266Y-53100500D01*
X139725267Y-53100500D01*
X139954733Y-53100500D01*
X139954734Y-53100500D01*
X140182238Y-53070548D01*
X140403887Y-53011158D01*
X140615888Y-52923344D01*
X140814612Y-52808611D01*
X140996661Y-52668919D01*
X141158919Y-52506661D01*
X141298611Y-52324612D01*
X141413344Y-52125888D01*
X141501158Y-51913887D01*
X141560548Y-51692238D01*
X141590500Y-51464734D01*
X141590500Y-51235266D01*
X141560548Y-51007762D01*
X141501158Y-50786113D01*
X141413344Y-50574112D01*
X141298611Y-50375388D01*
X141158919Y-50193339D01*
X140996661Y-50031081D01*
X140814612Y-49891389D01*
X140814611Y-49891388D01*
X140814608Y-49891386D01*
X140803955Y-49885236D01*
X140763015Y-49839766D01*
X140756620Y-49778916D01*
X140787213Y-49725928D01*
X140843108Y-49701042D01*
X140853456Y-49700500D01*
X159310257Y-49700500D01*
X159368448Y-49719407D01*
X159380261Y-49729496D01*
X162137394Y-52486629D01*
X162165171Y-52541146D01*
X162161545Y-52587225D01*
X162133984Y-52672051D01*
X162099500Y-52889774D01*
X162099500Y-53110225D01*
X162133984Y-53327948D01*
X162202102Y-53537599D01*
X162202104Y-53537602D01*
X162202105Y-53537606D01*
X162302185Y-53734022D01*
X162431758Y-53912365D01*
X162587635Y-54068242D01*
X162765978Y-54197815D01*
X162962394Y-54297895D01*
X162962399Y-54297896D01*
X162962400Y-54297897D01*
X162988400Y-54306345D01*
X163037901Y-54342309D01*
X163056808Y-54400500D01*
X163037901Y-54458691D01*
X162988401Y-54494655D01*
X162957808Y-54499500D01*
X159731782Y-54499500D01*
X159673591Y-54480593D01*
X159637627Y-54431093D01*
X159637627Y-54369907D01*
X159672453Y-54321247D01*
X159703647Y-54297895D01*
X159757546Y-54257546D01*
X159843796Y-54142331D01*
X159894091Y-54007483D01*
X159900500Y-53947873D01*
X159900499Y-52052128D01*
X159894091Y-51992517D01*
X159892098Y-51987174D01*
X159843797Y-51857670D01*
X159757549Y-51742458D01*
X159757548Y-51742457D01*
X159757546Y-51742454D01*
X159703643Y-51702102D01*
X159642329Y-51656202D01*
X159507488Y-51605910D01*
X159507483Y-51605909D01*
X159507481Y-51605908D01*
X159507477Y-51605908D01*
X159476249Y-51602550D01*
X159447873Y-51599500D01*
X159447870Y-51599500D01*
X157552133Y-51599500D01*
X157552129Y-51599500D01*
X157552128Y-51599501D01*
X157544949Y-51600272D01*
X157492519Y-51605908D01*
X157492514Y-51605909D01*
X157357670Y-51656202D01*
X157242458Y-51742450D01*
X157242450Y-51742458D01*
X157156202Y-51857670D01*
X157105910Y-51992511D01*
X157105908Y-51992522D01*
X157099500Y-52052129D01*
X157099500Y-53947866D01*
X157099501Y-53947870D01*
X157105908Y-54007480D01*
X157105909Y-54007485D01*
X157156202Y-54142329D01*
X157176561Y-54169525D01*
X157242454Y-54257546D01*
X157242457Y-54257548D01*
X157242458Y-54257549D01*
X157327547Y-54321247D01*
X157362800Y-54371256D01*
X157361926Y-54432435D01*
X157325258Y-54481416D01*
X157268218Y-54499500D01*
X23864548Y-54499500D01*
X23806357Y-54480593D01*
X23770393Y-54431093D01*
X23770393Y-54369907D01*
X23806357Y-54320407D01*
X23833953Y-54306345D01*
X23980025Y-54258884D01*
X24155405Y-54169524D01*
X24314646Y-54053828D01*
X24453828Y-53914646D01*
X24569524Y-53755405D01*
X24658884Y-53580025D01*
X24719709Y-53392826D01*
X24719710Y-53392821D01*
X24750500Y-53198420D01*
X24750500Y-53001587D01*
X24750336Y-52999504D01*
X24750500Y-52998820D01*
X24750500Y-52997693D01*
X24750771Y-52997693D01*
X24764619Y-52940009D01*
X24811144Y-52900272D01*
X24872141Y-52895470D01*
X24924310Y-52927438D01*
X24929123Y-52933544D01*
X25046167Y-53094640D01*
X25046169Y-53094642D01*
X25046172Y-53094646D01*
X25185354Y-53233828D01*
X25344595Y-53349524D01*
X25519975Y-53438884D01*
X25707174Y-53499709D01*
X25707175Y-53499709D01*
X25707178Y-53499710D01*
X25901580Y-53530500D01*
X25901583Y-53530500D01*
X26098420Y-53530500D01*
X26292820Y-53499710D01*
X26292820Y-53499709D01*
X26292826Y-53499709D01*
X26293727Y-53499415D01*
X26294046Y-53499415D01*
X26296599Y-53498803D01*
X26296746Y-53499415D01*
X26354911Y-53499411D01*
X26394329Y-53523564D01*
X26779884Y-53909120D01*
X26916816Y-53988177D01*
X26916818Y-53988177D01*
X26916819Y-53988178D01*
X26988843Y-54007477D01*
X27069540Y-54029100D01*
X27069542Y-54029101D01*
X27069543Y-54029101D01*
X27233721Y-54029101D01*
X27233737Y-54029100D01*
X115436264Y-54029100D01*
X115436280Y-54029101D01*
X115442343Y-54029101D01*
X115600455Y-54029101D01*
X115600457Y-54029101D01*
X115753185Y-53988177D01*
X115822995Y-53947872D01*
X115890116Y-53909120D01*
X116001920Y-53797316D01*
X116001921Y-53797313D01*
X117910498Y-51888735D01*
X117965013Y-51860960D01*
X118025445Y-51870531D01*
X118068710Y-51913796D01*
X118079500Y-51958741D01*
X118079500Y-52710016D01*
X118089999Y-52812788D01*
X118090000Y-52812795D01*
X118090001Y-52812797D01*
X118130629Y-52935405D01*
X118145187Y-52979336D01*
X118237285Y-53128652D01*
X118237286Y-53128653D01*
X118237288Y-53128656D01*
X118361344Y-53252712D01*
X118510666Y-53344814D01*
X118677203Y-53399999D01*
X118779991Y-53410500D01*
X119980008Y-53410499D01*
X119980016Y-53410499D01*
X120082788Y-53400000D01*
X120082788Y-53399999D01*
X120082797Y-53399999D01*
X120249334Y-53344814D01*
X120398656Y-53252712D01*
X120522712Y-53128656D01*
X120614814Y-52979334D01*
X120669999Y-52812797D01*
X120680500Y-52710009D01*
X120680499Y-51509992D01*
X120680499Y-51509983D01*
X120670000Y-51407211D01*
X120669999Y-51407209D01*
X120669999Y-51407203D01*
X120614814Y-51240666D01*
X120568763Y-51166005D01*
X120522714Y-51091347D01*
X120522713Y-51091346D01*
X120522712Y-51091344D01*
X120398656Y-50967288D01*
X120398653Y-50967286D01*
X120398652Y-50967285D01*
X120249337Y-50875187D01*
X120143150Y-50840000D01*
X120121185Y-50832721D01*
X120071897Y-50796470D01*
X120053329Y-50738170D01*
X120072575Y-50680091D01*
X120094133Y-50658657D01*
X120227219Y-50561966D01*
X120371966Y-50417219D01*
X120492287Y-50251610D01*
X120585220Y-50069219D01*
X120648477Y-49874534D01*
X120665207Y-49768907D01*
X120680500Y-49672355D01*
X120680500Y-49467644D01*
X120648478Y-49265470D01*
X120633365Y-49218956D01*
X120585220Y-49070781D01*
X120492287Y-48888390D01*
X120492285Y-48888386D01*
X120371970Y-48722786D01*
X120371968Y-48722784D01*
X120371966Y-48722781D01*
X120227219Y-48578034D01*
X120227215Y-48578031D01*
X120227213Y-48578029D01*
X120061613Y-48457714D01*
X120061609Y-48457712D01*
X119990847Y-48421657D01*
X119925201Y-48388209D01*
X119881937Y-48344945D01*
X119872366Y-48284513D01*
X119900143Y-48229997D01*
X119925199Y-48211791D01*
X120061610Y-48142287D01*
X120227219Y-48021966D01*
X120371966Y-47877219D01*
X120466768Y-47746734D01*
X120492285Y-47711613D01*
X120492287Y-47711610D01*
X120585220Y-47529219D01*
X120648477Y-47334534D01*
X120657111Y-47280025D01*
X120680500Y-47132355D01*
X120680500Y-46927644D01*
X120648478Y-46725470D01*
X120640715Y-46701579D01*
X120622882Y-46646692D01*
X120622882Y-46585507D01*
X120658846Y-46536007D01*
X120717037Y-46517100D01*
X123056857Y-46517100D01*
X123115048Y-46536007D01*
X123126861Y-46546096D01*
X125716755Y-49135990D01*
X125744532Y-49190507D01*
X125740906Y-49236585D01*
X125731522Y-49265466D01*
X125699500Y-49467644D01*
X125699500Y-49672355D01*
X125731521Y-49874529D01*
X125794780Y-50069219D01*
X125887712Y-50251609D01*
X125887714Y-50251613D01*
X126008029Y-50417213D01*
X126008031Y-50417215D01*
X126008034Y-50417219D01*
X126152781Y-50561966D01*
X126152784Y-50561968D01*
X126152786Y-50561970D01*
X126318386Y-50682285D01*
X126318390Y-50682287D01*
X126454797Y-50751790D01*
X126498062Y-50795055D01*
X126507633Y-50855487D01*
X126479856Y-50910004D01*
X126454797Y-50928210D01*
X126318390Y-50997712D01*
X126318386Y-50997714D01*
X126152786Y-51118029D01*
X126008029Y-51262786D01*
X125887714Y-51428386D01*
X125887712Y-51428390D01*
X125794780Y-51610780D01*
X125731521Y-51805470D01*
X125699500Y-52007644D01*
X125699500Y-52212355D01*
X125731521Y-52414529D01*
X125794780Y-52609219D01*
X125887712Y-52791609D01*
X125887714Y-52791613D01*
X126008029Y-52957213D01*
X126008031Y-52957215D01*
X126008034Y-52957219D01*
X126152781Y-53101966D01*
X126152784Y-53101968D01*
X126152786Y-53101970D01*
X126318386Y-53222285D01*
X126318390Y-53222287D01*
X126500781Y-53315220D01*
X126695466Y-53378477D01*
X126695467Y-53378477D01*
X126695470Y-53378478D01*
X126897645Y-53410500D01*
X126897648Y-53410500D01*
X127102355Y-53410500D01*
X127304529Y-53378478D01*
X127304530Y-53378477D01*
X127304534Y-53378477D01*
X127499219Y-53315220D01*
X127681610Y-53222287D01*
X127847219Y-53101966D01*
X127991966Y-52957219D01*
X128096896Y-52812794D01*
X128112285Y-52791613D01*
X128112287Y-52791610D01*
X128205220Y-52609219D01*
X128268477Y-52414534D01*
X128274197Y-52378420D01*
X128300500Y-52212355D01*
X128300500Y-52007644D01*
X128268478Y-51805470D01*
X128266693Y-51799975D01*
X128205220Y-51610781D01*
X128112287Y-51428390D01*
X128112285Y-51428386D01*
X127991970Y-51262786D01*
X127991968Y-51262784D01*
X127991966Y-51262781D01*
X127847219Y-51118034D01*
X127847215Y-51118031D01*
X127847213Y-51118029D01*
X127681613Y-50997714D01*
X127681609Y-50997712D01*
X127610847Y-50961657D01*
X127545201Y-50928209D01*
X127501937Y-50884945D01*
X127492366Y-50824513D01*
X127520143Y-50769997D01*
X127545199Y-50751791D01*
X127681610Y-50682287D01*
X127847219Y-50561966D01*
X127991966Y-50417219D01*
X128112287Y-50251610D01*
X128205220Y-50069219D01*
X128268477Y-49874534D01*
X128285207Y-49768907D01*
X128300500Y-49672355D01*
X128300500Y-49467644D01*
X128268478Y-49265470D01*
X128253365Y-49218956D01*
X128205220Y-49070781D01*
X128112287Y-48888390D01*
X128112285Y-48888386D01*
X127991970Y-48722786D01*
X127991968Y-48722784D01*
X127991966Y-48722781D01*
X127847219Y-48578034D01*
X127847215Y-48578031D01*
X127847213Y-48578029D01*
X127681613Y-48457714D01*
X127681609Y-48457712D01*
X127610847Y-48421657D01*
X127545201Y-48388209D01*
X127501937Y-48344945D01*
X127492366Y-48284513D01*
X127520143Y-48229997D01*
X127545199Y-48211791D01*
X127681610Y-48142287D01*
X127847219Y-48021966D01*
X127991966Y-47877219D01*
X128086768Y-47746734D01*
X128112285Y-47711613D01*
X128112287Y-47711610D01*
X128205220Y-47529219D01*
X128268477Y-47334534D01*
X128277111Y-47280025D01*
X128300500Y-47132355D01*
X128300500Y-46927644D01*
X128268478Y-46725470D01*
X128260717Y-46701583D01*
X128205220Y-46530781D01*
X128112287Y-46348390D01*
X128112285Y-46348386D01*
X127991970Y-46182786D01*
X127991968Y-46182784D01*
X127991966Y-46182781D01*
X127847219Y-46038034D01*
X127847215Y-46038031D01*
X127847213Y-46038029D01*
X127681613Y-45917714D01*
X127681609Y-45917712D01*
X127564597Y-45858092D01*
X127545201Y-45848209D01*
X127501937Y-45804945D01*
X127492366Y-45744513D01*
X127520143Y-45689997D01*
X127545199Y-45671791D01*
X127681610Y-45602287D01*
X127711426Y-45580625D01*
X127744722Y-45556434D01*
X127847219Y-45481966D01*
X127991966Y-45337219D01*
X128112287Y-45171610D01*
X128205220Y-44989219D01*
X128268477Y-44794534D01*
X128273552Y-44762491D01*
X128300500Y-44592355D01*
X128300500Y-44387644D01*
X128268477Y-44185468D01*
X128268477Y-44185466D01*
X128238376Y-44092826D01*
X128219618Y-44035092D01*
X128219618Y-43973907D01*
X128255582Y-43924407D01*
X128313773Y-43905500D01*
X131715257Y-43905500D01*
X131773448Y-43924407D01*
G37*
%TD.AperFunction*%
%TA.AperFunction,Conductor*%
G36*
X50349602Y-47480007D02*
G01*
X50385566Y-47529507D01*
X50385566Y-47590693D01*
X50351521Y-47695470D01*
X50319500Y-47897644D01*
X50319500Y-48102355D01*
X50351521Y-48304529D01*
X50414780Y-48499219D01*
X50507712Y-48681609D01*
X50507714Y-48681613D01*
X50628029Y-48847213D01*
X50628031Y-48847215D01*
X50628034Y-48847219D01*
X50772781Y-48991966D01*
X50772784Y-48991968D01*
X50772786Y-48991970D01*
X50938386Y-49112285D01*
X50938390Y-49112287D01*
X51120781Y-49205220D01*
X51315466Y-49268477D01*
X51315467Y-49268477D01*
X51315470Y-49268478D01*
X51517645Y-49300500D01*
X51517648Y-49300500D01*
X51722355Y-49300500D01*
X51924529Y-49268478D01*
X51924530Y-49268477D01*
X51924534Y-49268477D01*
X52119219Y-49205220D01*
X52301610Y-49112287D01*
X52467219Y-48991966D01*
X52611966Y-48847219D01*
X52732287Y-48681610D01*
X52825220Y-48499219D01*
X52888477Y-48304534D01*
X52889195Y-48300000D01*
X52920500Y-48102355D01*
X52920500Y-47897644D01*
X52888478Y-47695470D01*
X52885954Y-47687703D01*
X52854434Y-47590692D01*
X52854434Y-47529507D01*
X52890398Y-47480007D01*
X52948589Y-47461100D01*
X53834257Y-47461100D01*
X53892448Y-47480007D01*
X53904261Y-47490096D01*
X55310478Y-48896313D01*
X55310480Y-48896316D01*
X55422284Y-49008120D01*
X55422286Y-49008121D01*
X55422289Y-49008124D01*
X55422288Y-49008124D01*
X55509091Y-49058237D01*
X55509093Y-49058239D01*
X55509094Y-49058239D01*
X55530817Y-49070781D01*
X55559215Y-49087177D01*
X55711943Y-49128101D01*
X55711944Y-49128101D01*
X55876120Y-49128101D01*
X55876136Y-49128100D01*
X117797264Y-49128100D01*
X117797280Y-49128101D01*
X117803343Y-49128101D01*
X117961458Y-49128101D01*
X117961458Y-49128100D01*
X117986652Y-49121350D01*
X117998599Y-49118149D01*
X118059701Y-49121350D01*
X118107251Y-49159855D01*
X118123087Y-49218956D01*
X118118378Y-49244366D01*
X118111522Y-49265466D01*
X118079500Y-49467644D01*
X118079500Y-49672355D01*
X118111521Y-49874529D01*
X118111523Y-49874534D01*
X118116999Y-49891389D01*
X118120906Y-49903411D01*
X118120906Y-49964596D01*
X118096755Y-50004008D01*
X115301661Y-52799104D01*
X115247144Y-52826881D01*
X115231657Y-52828100D01*
X46076487Y-52828100D01*
X46018296Y-52809193D01*
X45982332Y-52759693D01*
X45982332Y-52698507D01*
X46006481Y-52659098D01*
X46158919Y-52506661D01*
X46298611Y-52324612D01*
X46413344Y-52125888D01*
X46501158Y-51913887D01*
X46560548Y-51692238D01*
X46590500Y-51464734D01*
X46590500Y-51235266D01*
X46560548Y-51007762D01*
X46501158Y-50786113D01*
X46413344Y-50574112D01*
X46298611Y-50375388D01*
X46158919Y-50193339D01*
X45996661Y-50031081D01*
X45905475Y-49961111D01*
X45814611Y-49891388D01*
X45615883Y-49776653D01*
X45403885Y-49688841D01*
X45182238Y-49629452D01*
X44954734Y-49599500D01*
X44725266Y-49599500D01*
X44725265Y-49599500D01*
X44497761Y-49629452D01*
X44276114Y-49688841D01*
X44064116Y-49776653D01*
X43865388Y-49891388D01*
X43683342Y-50031078D01*
X43521078Y-50193342D01*
X43381388Y-50375388D01*
X43266653Y-50574116D01*
X43178841Y-50786114D01*
X43119452Y-51007761D01*
X43089500Y-51235265D01*
X43089500Y-51464734D01*
X43119452Y-51692238D01*
X43178841Y-51913885D01*
X43266653Y-52125883D01*
X43381388Y-52324611D01*
X43450385Y-52414529D01*
X43521081Y-52506661D01*
X43673518Y-52659098D01*
X43701294Y-52713613D01*
X43691723Y-52774045D01*
X43648458Y-52817310D01*
X43603513Y-52828100D01*
X27438343Y-52828100D01*
X27380152Y-52809193D01*
X27368340Y-52799104D01*
X27243565Y-52674330D01*
X27215787Y-52619813D01*
X27219182Y-52576690D01*
X27218803Y-52576599D01*
X27219378Y-52574203D01*
X27219415Y-52573728D01*
X27219709Y-52572826D01*
X27226567Y-52529527D01*
X27250500Y-52378420D01*
X27250500Y-52181579D01*
X27219710Y-51987178D01*
X27219709Y-51987174D01*
X27158884Y-51799975D01*
X27069524Y-51624595D01*
X26953828Y-51465354D01*
X26814646Y-51326172D01*
X26655405Y-51210476D01*
X26655404Y-51210475D01*
X26655402Y-51210474D01*
X26500803Y-51131703D01*
X26457539Y-51088438D01*
X26447967Y-51028006D01*
X26475742Y-50973492D01*
X26660840Y-50788396D01*
X26715357Y-50760619D01*
X26730843Y-50759400D01*
X40194764Y-50759400D01*
X40194780Y-50759401D01*
X40200843Y-50759401D01*
X40358955Y-50759401D01*
X40358957Y-50759401D01*
X40511685Y-50718477D01*
X40574367Y-50682287D01*
X40648616Y-50639420D01*
X40760420Y-50527616D01*
X40760421Y-50527613D01*
X43797940Y-47490096D01*
X43852457Y-47462319D01*
X43867944Y-47461100D01*
X50291411Y-47461100D01*
X50349602Y-47480007D01*
G37*
%TD.AperFunction*%
%TA.AperFunction,Conductor*%
G36*
X59903699Y-42155207D02*
G01*
X59939663Y-42204707D01*
X59939663Y-42265893D01*
X59915513Y-42305301D01*
X59899888Y-42320927D01*
X59888029Y-42332786D01*
X59767714Y-42498386D01*
X59767712Y-42498390D01*
X59674780Y-42680780D01*
X59611521Y-42875470D01*
X59579500Y-43077644D01*
X59579500Y-43282355D01*
X59611521Y-43484529D01*
X59674780Y-43679219D01*
X59757739Y-43842036D01*
X59767713Y-43861610D01*
X59885412Y-44023610D01*
X59904319Y-44081800D01*
X59885412Y-44139991D01*
X59835911Y-44175955D01*
X59805319Y-44180800D01*
X54101242Y-44180800D01*
X54043051Y-44161893D01*
X54007087Y-44112393D01*
X54007087Y-44051207D01*
X54031238Y-44011796D01*
X54891891Y-43151144D01*
X55877739Y-42165296D01*
X55932256Y-42137519D01*
X55947743Y-42136300D01*
X59845508Y-42136300D01*
X59903699Y-42155207D01*
G37*
%TD.AperFunction*%
%TD*%
M02*
