%TF.GenerationSoftware,KiCad,Pcbnew,10.0.0*%
%TF.CreationDate,2026-05-03T01:35:47-07:00*%
%TF.ProjectId,panel,70616e65-6c2e-46b6-9963-61645f706362,rev?*%
%TF.SameCoordinates,Original*%
%TF.FileFunction,Legend,Bot*%
%TF.FilePolarity,Positive*%
%FSLAX46Y46*%
G04 Gerber Fmt 4.6, Leading zero omitted, Abs format (unit mm)*
G04 Created by KiCad (PCBNEW 10.0.0) date 2026-05-03 01:35:47*
%MOMM*%
%LPD*%
G01*
G04 APERTURE LIST*
%ADD10C,0.150000*%
%ADD11C,0.254000*%
%ADD12C,0.120000*%
%ADD13C,0.100000*%
%ADD14C,0.200000*%
%ADD15C,0.000000*%
G04 APERTURE END LIST*
D10*
X157066666Y-28859580D02*
X157114285Y-28907200D01*
X157114285Y-28907200D02*
X157257142Y-28954819D01*
X157257142Y-28954819D02*
X157352380Y-28954819D01*
X157352380Y-28954819D02*
X157495237Y-28907200D01*
X157495237Y-28907200D02*
X157590475Y-28811961D01*
X157590475Y-28811961D02*
X157638094Y-28716723D01*
X157638094Y-28716723D02*
X157685713Y-28526247D01*
X157685713Y-28526247D02*
X157685713Y-28383390D01*
X157685713Y-28383390D02*
X157638094Y-28192914D01*
X157638094Y-28192914D02*
X157590475Y-28097676D01*
X157590475Y-28097676D02*
X157495237Y-28002438D01*
X157495237Y-28002438D02*
X157352380Y-27954819D01*
X157352380Y-27954819D02*
X157257142Y-27954819D01*
X157257142Y-27954819D02*
X157114285Y-28002438D01*
X157114285Y-28002438D02*
X157066666Y-28050057D01*
X156209523Y-27954819D02*
X156399999Y-27954819D01*
X156399999Y-27954819D02*
X156495237Y-28002438D01*
X156495237Y-28002438D02*
X156542856Y-28050057D01*
X156542856Y-28050057D02*
X156638094Y-28192914D01*
X156638094Y-28192914D02*
X156685713Y-28383390D01*
X156685713Y-28383390D02*
X156685713Y-28764342D01*
X156685713Y-28764342D02*
X156638094Y-28859580D01*
X156638094Y-28859580D02*
X156590475Y-28907200D01*
X156590475Y-28907200D02*
X156495237Y-28954819D01*
X156495237Y-28954819D02*
X156304761Y-28954819D01*
X156304761Y-28954819D02*
X156209523Y-28907200D01*
X156209523Y-28907200D02*
X156161904Y-28859580D01*
X156161904Y-28859580D02*
X156114285Y-28764342D01*
X156114285Y-28764342D02*
X156114285Y-28526247D01*
X156114285Y-28526247D02*
X156161904Y-28431009D01*
X156161904Y-28431009D02*
X156209523Y-28383390D01*
X156209523Y-28383390D02*
X156304761Y-28335771D01*
X156304761Y-28335771D02*
X156495237Y-28335771D01*
X156495237Y-28335771D02*
X156590475Y-28383390D01*
X156590475Y-28383390D02*
X156638094Y-28431009D01*
X156638094Y-28431009D02*
X156685713Y-28526247D01*
X25066666Y-27659580D02*
X25114285Y-27707200D01*
X25114285Y-27707200D02*
X25257142Y-27754819D01*
X25257142Y-27754819D02*
X25352380Y-27754819D01*
X25352380Y-27754819D02*
X25495237Y-27707200D01*
X25495237Y-27707200D02*
X25590475Y-27611961D01*
X25590475Y-27611961D02*
X25638094Y-27516723D01*
X25638094Y-27516723D02*
X25685713Y-27326247D01*
X25685713Y-27326247D02*
X25685713Y-27183390D01*
X25685713Y-27183390D02*
X25638094Y-26992914D01*
X25638094Y-26992914D02*
X25590475Y-26897676D01*
X25590475Y-26897676D02*
X25495237Y-26802438D01*
X25495237Y-26802438D02*
X25352380Y-26754819D01*
X25352380Y-26754819D02*
X25257142Y-26754819D01*
X25257142Y-26754819D02*
X25114285Y-26802438D01*
X25114285Y-26802438D02*
X25066666Y-26850057D01*
X24733332Y-26754819D02*
X24066666Y-26754819D01*
X24066666Y-26754819D02*
X24495237Y-27754819D01*
X164966666Y-33859580D02*
X165014285Y-33907200D01*
X165014285Y-33907200D02*
X165157142Y-33954819D01*
X165157142Y-33954819D02*
X165252380Y-33954819D01*
X165252380Y-33954819D02*
X165395237Y-33907200D01*
X165395237Y-33907200D02*
X165490475Y-33811961D01*
X165490475Y-33811961D02*
X165538094Y-33716723D01*
X165538094Y-33716723D02*
X165585713Y-33526247D01*
X165585713Y-33526247D02*
X165585713Y-33383390D01*
X165585713Y-33383390D02*
X165538094Y-33192914D01*
X165538094Y-33192914D02*
X165490475Y-33097676D01*
X165490475Y-33097676D02*
X165395237Y-33002438D01*
X165395237Y-33002438D02*
X165252380Y-32954819D01*
X165252380Y-32954819D02*
X165157142Y-32954819D01*
X165157142Y-32954819D02*
X165014285Y-33002438D01*
X165014285Y-33002438D02*
X164966666Y-33050057D01*
X164061904Y-32954819D02*
X164538094Y-32954819D01*
X164538094Y-32954819D02*
X164585713Y-33431009D01*
X164585713Y-33431009D02*
X164538094Y-33383390D01*
X164538094Y-33383390D02*
X164442856Y-33335771D01*
X164442856Y-33335771D02*
X164204761Y-33335771D01*
X164204761Y-33335771D02*
X164109523Y-33383390D01*
X164109523Y-33383390D02*
X164061904Y-33431009D01*
X164061904Y-33431009D02*
X164014285Y-33526247D01*
X164014285Y-33526247D02*
X164014285Y-33764342D01*
X164014285Y-33764342D02*
X164061904Y-33859580D01*
X164061904Y-33859580D02*
X164109523Y-33907200D01*
X164109523Y-33907200D02*
X164204761Y-33954819D01*
X164204761Y-33954819D02*
X164442856Y-33954819D01*
X164442856Y-33954819D02*
X164538094Y-33907200D01*
X164538094Y-33907200D02*
X164585713Y-33859580D01*
D11*
X92923332Y-30804318D02*
X92923332Y-31711461D01*
X92923332Y-31711461D02*
X92983809Y-31892889D01*
X92983809Y-31892889D02*
X93104761Y-32013842D01*
X93104761Y-32013842D02*
X93286190Y-32074318D01*
X93286190Y-32074318D02*
X93407142Y-32074318D01*
X91653332Y-32074318D02*
X92379047Y-32074318D01*
X92016190Y-32074318D02*
X92016190Y-30804318D01*
X92016190Y-30804318D02*
X92137142Y-30985746D01*
X92137142Y-30985746D02*
X92258094Y-31106699D01*
X92258094Y-31106699D02*
X92379047Y-31167175D01*
D10*
X47976666Y-39084819D02*
X48309999Y-38608628D01*
X48548094Y-39084819D02*
X48548094Y-38084819D01*
X48548094Y-38084819D02*
X48167142Y-38084819D01*
X48167142Y-38084819D02*
X48071904Y-38132438D01*
X48071904Y-38132438D02*
X48024285Y-38180057D01*
X48024285Y-38180057D02*
X47976666Y-38275295D01*
X47976666Y-38275295D02*
X47976666Y-38418152D01*
X47976666Y-38418152D02*
X48024285Y-38513390D01*
X48024285Y-38513390D02*
X48071904Y-38561009D01*
X48071904Y-38561009D02*
X48167142Y-38608628D01*
X48167142Y-38608628D02*
X48548094Y-38608628D01*
X47500475Y-39084819D02*
X47309999Y-39084819D01*
X47309999Y-39084819D02*
X47214761Y-39037200D01*
X47214761Y-39037200D02*
X47167142Y-38989580D01*
X47167142Y-38989580D02*
X47071904Y-38846723D01*
X47071904Y-38846723D02*
X47024285Y-38656247D01*
X47024285Y-38656247D02*
X47024285Y-38275295D01*
X47024285Y-38275295D02*
X47071904Y-38180057D01*
X47071904Y-38180057D02*
X47119523Y-38132438D01*
X47119523Y-38132438D02*
X47214761Y-38084819D01*
X47214761Y-38084819D02*
X47405237Y-38084819D01*
X47405237Y-38084819D02*
X47500475Y-38132438D01*
X47500475Y-38132438D02*
X47548094Y-38180057D01*
X47548094Y-38180057D02*
X47595713Y-38275295D01*
X47595713Y-38275295D02*
X47595713Y-38513390D01*
X47595713Y-38513390D02*
X47548094Y-38608628D01*
X47548094Y-38608628D02*
X47500475Y-38656247D01*
X47500475Y-38656247D02*
X47405237Y-38703866D01*
X47405237Y-38703866D02*
X47214761Y-38703866D01*
X47214761Y-38703866D02*
X47119523Y-38656247D01*
X47119523Y-38656247D02*
X47071904Y-38608628D01*
X47071904Y-38608628D02*
X47024285Y-38513390D01*
X68746666Y-36184819D02*
X69079999Y-35708628D01*
X69318094Y-36184819D02*
X69318094Y-35184819D01*
X69318094Y-35184819D02*
X68937142Y-35184819D01*
X68937142Y-35184819D02*
X68841904Y-35232438D01*
X68841904Y-35232438D02*
X68794285Y-35280057D01*
X68794285Y-35280057D02*
X68746666Y-35375295D01*
X68746666Y-35375295D02*
X68746666Y-35518152D01*
X68746666Y-35518152D02*
X68794285Y-35613390D01*
X68794285Y-35613390D02*
X68841904Y-35661009D01*
X68841904Y-35661009D02*
X68937142Y-35708628D01*
X68937142Y-35708628D02*
X69318094Y-35708628D01*
X68365713Y-35280057D02*
X68318094Y-35232438D01*
X68318094Y-35232438D02*
X68222856Y-35184819D01*
X68222856Y-35184819D02*
X67984761Y-35184819D01*
X67984761Y-35184819D02*
X67889523Y-35232438D01*
X67889523Y-35232438D02*
X67841904Y-35280057D01*
X67841904Y-35280057D02*
X67794285Y-35375295D01*
X67794285Y-35375295D02*
X67794285Y-35470533D01*
X67794285Y-35470533D02*
X67841904Y-35613390D01*
X67841904Y-35613390D02*
X68413332Y-36184819D01*
X68413332Y-36184819D02*
X67794285Y-36184819D01*
X58546666Y-35959580D02*
X58594285Y-36007200D01*
X58594285Y-36007200D02*
X58737142Y-36054819D01*
X58737142Y-36054819D02*
X58832380Y-36054819D01*
X58832380Y-36054819D02*
X58975237Y-36007200D01*
X58975237Y-36007200D02*
X59070475Y-35911961D01*
X59070475Y-35911961D02*
X59118094Y-35816723D01*
X59118094Y-35816723D02*
X59165713Y-35626247D01*
X59165713Y-35626247D02*
X59165713Y-35483390D01*
X59165713Y-35483390D02*
X59118094Y-35292914D01*
X59118094Y-35292914D02*
X59070475Y-35197676D01*
X59070475Y-35197676D02*
X58975237Y-35102438D01*
X58975237Y-35102438D02*
X58832380Y-35054819D01*
X58832380Y-35054819D02*
X58737142Y-35054819D01*
X58737142Y-35054819D02*
X58594285Y-35102438D01*
X58594285Y-35102438D02*
X58546666Y-35150057D01*
X58165713Y-35150057D02*
X58118094Y-35102438D01*
X58118094Y-35102438D02*
X58022856Y-35054819D01*
X58022856Y-35054819D02*
X57784761Y-35054819D01*
X57784761Y-35054819D02*
X57689523Y-35102438D01*
X57689523Y-35102438D02*
X57641904Y-35150057D01*
X57641904Y-35150057D02*
X57594285Y-35245295D01*
X57594285Y-35245295D02*
X57594285Y-35340533D01*
X57594285Y-35340533D02*
X57641904Y-35483390D01*
X57641904Y-35483390D02*
X58213332Y-36054819D01*
X58213332Y-36054819D02*
X57594285Y-36054819D01*
X68746666Y-26024819D02*
X69079999Y-25548628D01*
X69318094Y-26024819D02*
X69318094Y-25024819D01*
X69318094Y-25024819D02*
X68937142Y-25024819D01*
X68937142Y-25024819D02*
X68841904Y-25072438D01*
X68841904Y-25072438D02*
X68794285Y-25120057D01*
X68794285Y-25120057D02*
X68746666Y-25215295D01*
X68746666Y-25215295D02*
X68746666Y-25358152D01*
X68746666Y-25358152D02*
X68794285Y-25453390D01*
X68794285Y-25453390D02*
X68841904Y-25501009D01*
X68841904Y-25501009D02*
X68937142Y-25548628D01*
X68937142Y-25548628D02*
X69318094Y-25548628D01*
X67889523Y-25358152D02*
X67889523Y-26024819D01*
X68127618Y-24977200D02*
X68365713Y-25691485D01*
X68365713Y-25691485D02*
X67746666Y-25691485D01*
X68746666Y-41264819D02*
X69079999Y-40788628D01*
X69318094Y-41264819D02*
X69318094Y-40264819D01*
X69318094Y-40264819D02*
X68937142Y-40264819D01*
X68937142Y-40264819D02*
X68841904Y-40312438D01*
X68841904Y-40312438D02*
X68794285Y-40360057D01*
X68794285Y-40360057D02*
X68746666Y-40455295D01*
X68746666Y-40455295D02*
X68746666Y-40598152D01*
X68746666Y-40598152D02*
X68794285Y-40693390D01*
X68794285Y-40693390D02*
X68841904Y-40741009D01*
X68841904Y-40741009D02*
X68937142Y-40788628D01*
X68937142Y-40788628D02*
X69318094Y-40788628D01*
X67794285Y-41264819D02*
X68365713Y-41264819D01*
X68079999Y-41264819D02*
X68079999Y-40264819D01*
X68079999Y-40264819D02*
X68175237Y-40407676D01*
X68175237Y-40407676D02*
X68270475Y-40502914D01*
X68270475Y-40502914D02*
X68365713Y-40550533D01*
X58546666Y-30879580D02*
X58594285Y-30927200D01*
X58594285Y-30927200D02*
X58737142Y-30974819D01*
X58737142Y-30974819D02*
X58832380Y-30974819D01*
X58832380Y-30974819D02*
X58975237Y-30927200D01*
X58975237Y-30927200D02*
X59070475Y-30831961D01*
X59070475Y-30831961D02*
X59118094Y-30736723D01*
X59118094Y-30736723D02*
X59165713Y-30546247D01*
X59165713Y-30546247D02*
X59165713Y-30403390D01*
X59165713Y-30403390D02*
X59118094Y-30212914D01*
X59118094Y-30212914D02*
X59070475Y-30117676D01*
X59070475Y-30117676D02*
X58975237Y-30022438D01*
X58975237Y-30022438D02*
X58832380Y-29974819D01*
X58832380Y-29974819D02*
X58737142Y-29974819D01*
X58737142Y-29974819D02*
X58594285Y-30022438D01*
X58594285Y-30022438D02*
X58546666Y-30070057D01*
X58213332Y-29974819D02*
X57594285Y-29974819D01*
X57594285Y-29974819D02*
X57927618Y-30355771D01*
X57927618Y-30355771D02*
X57784761Y-30355771D01*
X57784761Y-30355771D02*
X57689523Y-30403390D01*
X57689523Y-30403390D02*
X57641904Y-30451009D01*
X57641904Y-30451009D02*
X57594285Y-30546247D01*
X57594285Y-30546247D02*
X57594285Y-30784342D01*
X57594285Y-30784342D02*
X57641904Y-30879580D01*
X57641904Y-30879580D02*
X57689523Y-30927200D01*
X57689523Y-30927200D02*
X57784761Y-30974819D01*
X57784761Y-30974819D02*
X58070475Y-30974819D01*
X58070475Y-30974819D02*
X58165713Y-30927200D01*
X58165713Y-30927200D02*
X58213332Y-30879580D01*
X123951904Y-53894819D02*
X123951904Y-54704342D01*
X123951904Y-54704342D02*
X123904285Y-54799580D01*
X123904285Y-54799580D02*
X123856666Y-54847200D01*
X123856666Y-54847200D02*
X123761428Y-54894819D01*
X123761428Y-54894819D02*
X123570952Y-54894819D01*
X123570952Y-54894819D02*
X123475714Y-54847200D01*
X123475714Y-54847200D02*
X123428095Y-54799580D01*
X123428095Y-54799580D02*
X123380476Y-54704342D01*
X123380476Y-54704342D02*
X123380476Y-53894819D01*
X122951904Y-53990057D02*
X122904285Y-53942438D01*
X122904285Y-53942438D02*
X122809047Y-53894819D01*
X122809047Y-53894819D02*
X122570952Y-53894819D01*
X122570952Y-53894819D02*
X122475714Y-53942438D01*
X122475714Y-53942438D02*
X122428095Y-53990057D01*
X122428095Y-53990057D02*
X122380476Y-54085295D01*
X122380476Y-54085295D02*
X122380476Y-54180533D01*
X122380476Y-54180533D02*
X122428095Y-54323390D01*
X122428095Y-54323390D02*
X122999523Y-54894819D01*
X122999523Y-54894819D02*
X122380476Y-54894819D01*
X58546666Y-25799580D02*
X58594285Y-25847200D01*
X58594285Y-25847200D02*
X58737142Y-25894819D01*
X58737142Y-25894819D02*
X58832380Y-25894819D01*
X58832380Y-25894819D02*
X58975237Y-25847200D01*
X58975237Y-25847200D02*
X59070475Y-25751961D01*
X59070475Y-25751961D02*
X59118094Y-25656723D01*
X59118094Y-25656723D02*
X59165713Y-25466247D01*
X59165713Y-25466247D02*
X59165713Y-25323390D01*
X59165713Y-25323390D02*
X59118094Y-25132914D01*
X59118094Y-25132914D02*
X59070475Y-25037676D01*
X59070475Y-25037676D02*
X58975237Y-24942438D01*
X58975237Y-24942438D02*
X58832380Y-24894819D01*
X58832380Y-24894819D02*
X58737142Y-24894819D01*
X58737142Y-24894819D02*
X58594285Y-24942438D01*
X58594285Y-24942438D02*
X58546666Y-24990057D01*
X57689523Y-25228152D02*
X57689523Y-25894819D01*
X57927618Y-24847200D02*
X58165713Y-25561485D01*
X58165713Y-25561485D02*
X57546666Y-25561485D01*
X58546666Y-41039580D02*
X58594285Y-41087200D01*
X58594285Y-41087200D02*
X58737142Y-41134819D01*
X58737142Y-41134819D02*
X58832380Y-41134819D01*
X58832380Y-41134819D02*
X58975237Y-41087200D01*
X58975237Y-41087200D02*
X59070475Y-40991961D01*
X59070475Y-40991961D02*
X59118094Y-40896723D01*
X59118094Y-40896723D02*
X59165713Y-40706247D01*
X59165713Y-40706247D02*
X59165713Y-40563390D01*
X59165713Y-40563390D02*
X59118094Y-40372914D01*
X59118094Y-40372914D02*
X59070475Y-40277676D01*
X59070475Y-40277676D02*
X58975237Y-40182438D01*
X58975237Y-40182438D02*
X58832380Y-40134819D01*
X58832380Y-40134819D02*
X58737142Y-40134819D01*
X58737142Y-40134819D02*
X58594285Y-40182438D01*
X58594285Y-40182438D02*
X58546666Y-40230057D01*
X57594285Y-41134819D02*
X58165713Y-41134819D01*
X57879999Y-41134819D02*
X57879999Y-40134819D01*
X57879999Y-40134819D02*
X57975237Y-40277676D01*
X57975237Y-40277676D02*
X58070475Y-40372914D01*
X58070475Y-40372914D02*
X58165713Y-40420533D01*
X47976666Y-25084819D02*
X48309999Y-24608628D01*
X48548094Y-25084819D02*
X48548094Y-24084819D01*
X48548094Y-24084819D02*
X48167142Y-24084819D01*
X48167142Y-24084819D02*
X48071904Y-24132438D01*
X48071904Y-24132438D02*
X48024285Y-24180057D01*
X48024285Y-24180057D02*
X47976666Y-24275295D01*
X47976666Y-24275295D02*
X47976666Y-24418152D01*
X47976666Y-24418152D02*
X48024285Y-24513390D01*
X48024285Y-24513390D02*
X48071904Y-24561009D01*
X48071904Y-24561009D02*
X48167142Y-24608628D01*
X48167142Y-24608628D02*
X48548094Y-24608628D01*
X47643332Y-24084819D02*
X46976666Y-24084819D01*
X46976666Y-24084819D02*
X47405237Y-25084819D01*
X48452857Y-46084819D02*
X48786190Y-45608628D01*
X49024285Y-46084819D02*
X49024285Y-45084819D01*
X49024285Y-45084819D02*
X48643333Y-45084819D01*
X48643333Y-45084819D02*
X48548095Y-45132438D01*
X48548095Y-45132438D02*
X48500476Y-45180057D01*
X48500476Y-45180057D02*
X48452857Y-45275295D01*
X48452857Y-45275295D02*
X48452857Y-45418152D01*
X48452857Y-45418152D02*
X48500476Y-45513390D01*
X48500476Y-45513390D02*
X48548095Y-45561009D01*
X48548095Y-45561009D02*
X48643333Y-45608628D01*
X48643333Y-45608628D02*
X49024285Y-45608628D01*
X47500476Y-46084819D02*
X48071904Y-46084819D01*
X47786190Y-46084819D02*
X47786190Y-45084819D01*
X47786190Y-45084819D02*
X47881428Y-45227676D01*
X47881428Y-45227676D02*
X47976666Y-45322914D01*
X47976666Y-45322914D02*
X48071904Y-45370533D01*
X46881428Y-45084819D02*
X46786190Y-45084819D01*
X46786190Y-45084819D02*
X46690952Y-45132438D01*
X46690952Y-45132438D02*
X46643333Y-45180057D01*
X46643333Y-45180057D02*
X46595714Y-45275295D01*
X46595714Y-45275295D02*
X46548095Y-45465771D01*
X46548095Y-45465771D02*
X46548095Y-45703866D01*
X46548095Y-45703866D02*
X46595714Y-45894342D01*
X46595714Y-45894342D02*
X46643333Y-45989580D01*
X46643333Y-45989580D02*
X46690952Y-46037200D01*
X46690952Y-46037200D02*
X46786190Y-46084819D01*
X46786190Y-46084819D02*
X46881428Y-46084819D01*
X46881428Y-46084819D02*
X46976666Y-46037200D01*
X46976666Y-46037200D02*
X47024285Y-45989580D01*
X47024285Y-45989580D02*
X47071904Y-45894342D01*
X47071904Y-45894342D02*
X47119523Y-45703866D01*
X47119523Y-45703866D02*
X47119523Y-45465771D01*
X47119523Y-45465771D02*
X47071904Y-45275295D01*
X47071904Y-45275295D02*
X47024285Y-45180057D01*
X47024285Y-45180057D02*
X46976666Y-45132438D01*
X46976666Y-45132438D02*
X46881428Y-45084819D01*
X87796666Y-47528819D02*
X88129999Y-47052628D01*
X88368094Y-47528819D02*
X88368094Y-46528819D01*
X88368094Y-46528819D02*
X87987142Y-46528819D01*
X87987142Y-46528819D02*
X87891904Y-46576438D01*
X87891904Y-46576438D02*
X87844285Y-46624057D01*
X87844285Y-46624057D02*
X87796666Y-46719295D01*
X87796666Y-46719295D02*
X87796666Y-46862152D01*
X87796666Y-46862152D02*
X87844285Y-46957390D01*
X87844285Y-46957390D02*
X87891904Y-47005009D01*
X87891904Y-47005009D02*
X87987142Y-47052628D01*
X87987142Y-47052628D02*
X88368094Y-47052628D01*
X86891904Y-46528819D02*
X87368094Y-46528819D01*
X87368094Y-46528819D02*
X87415713Y-47005009D01*
X87415713Y-47005009D02*
X87368094Y-46957390D01*
X87368094Y-46957390D02*
X87272856Y-46909771D01*
X87272856Y-46909771D02*
X87034761Y-46909771D01*
X87034761Y-46909771D02*
X86939523Y-46957390D01*
X86939523Y-46957390D02*
X86891904Y-47005009D01*
X86891904Y-47005009D02*
X86844285Y-47100247D01*
X86844285Y-47100247D02*
X86844285Y-47338342D01*
X86844285Y-47338342D02*
X86891904Y-47433580D01*
X86891904Y-47433580D02*
X86939523Y-47481200D01*
X86939523Y-47481200D02*
X87034761Y-47528819D01*
X87034761Y-47528819D02*
X87272856Y-47528819D01*
X87272856Y-47528819D02*
X87368094Y-47481200D01*
X87368094Y-47481200D02*
X87415713Y-47433580D01*
X47976666Y-32084819D02*
X48309999Y-31608628D01*
X48548094Y-32084819D02*
X48548094Y-31084819D01*
X48548094Y-31084819D02*
X48167142Y-31084819D01*
X48167142Y-31084819D02*
X48071904Y-31132438D01*
X48071904Y-31132438D02*
X48024285Y-31180057D01*
X48024285Y-31180057D02*
X47976666Y-31275295D01*
X47976666Y-31275295D02*
X47976666Y-31418152D01*
X47976666Y-31418152D02*
X48024285Y-31513390D01*
X48024285Y-31513390D02*
X48071904Y-31561009D01*
X48071904Y-31561009D02*
X48167142Y-31608628D01*
X48167142Y-31608628D02*
X48548094Y-31608628D01*
X47405237Y-31513390D02*
X47500475Y-31465771D01*
X47500475Y-31465771D02*
X47548094Y-31418152D01*
X47548094Y-31418152D02*
X47595713Y-31322914D01*
X47595713Y-31322914D02*
X47595713Y-31275295D01*
X47595713Y-31275295D02*
X47548094Y-31180057D01*
X47548094Y-31180057D02*
X47500475Y-31132438D01*
X47500475Y-31132438D02*
X47405237Y-31084819D01*
X47405237Y-31084819D02*
X47214761Y-31084819D01*
X47214761Y-31084819D02*
X47119523Y-31132438D01*
X47119523Y-31132438D02*
X47071904Y-31180057D01*
X47071904Y-31180057D02*
X47024285Y-31275295D01*
X47024285Y-31275295D02*
X47024285Y-31322914D01*
X47024285Y-31322914D02*
X47071904Y-31418152D01*
X47071904Y-31418152D02*
X47119523Y-31465771D01*
X47119523Y-31465771D02*
X47214761Y-31513390D01*
X47214761Y-31513390D02*
X47405237Y-31513390D01*
X47405237Y-31513390D02*
X47500475Y-31561009D01*
X47500475Y-31561009D02*
X47548094Y-31608628D01*
X47548094Y-31608628D02*
X47595713Y-31703866D01*
X47595713Y-31703866D02*
X47595713Y-31894342D01*
X47595713Y-31894342D02*
X47548094Y-31989580D01*
X47548094Y-31989580D02*
X47500475Y-32037200D01*
X47500475Y-32037200D02*
X47405237Y-32084819D01*
X47405237Y-32084819D02*
X47214761Y-32084819D01*
X47214761Y-32084819D02*
X47119523Y-32037200D01*
X47119523Y-32037200D02*
X47071904Y-31989580D01*
X47071904Y-31989580D02*
X47024285Y-31894342D01*
X47024285Y-31894342D02*
X47024285Y-31703866D01*
X47024285Y-31703866D02*
X47071904Y-31608628D01*
X47071904Y-31608628D02*
X47119523Y-31561009D01*
X47119523Y-31561009D02*
X47214761Y-31513390D01*
X68746666Y-31104819D02*
X69079999Y-30628628D01*
X69318094Y-31104819D02*
X69318094Y-30104819D01*
X69318094Y-30104819D02*
X68937142Y-30104819D01*
X68937142Y-30104819D02*
X68841904Y-30152438D01*
X68841904Y-30152438D02*
X68794285Y-30200057D01*
X68794285Y-30200057D02*
X68746666Y-30295295D01*
X68746666Y-30295295D02*
X68746666Y-30438152D01*
X68746666Y-30438152D02*
X68794285Y-30533390D01*
X68794285Y-30533390D02*
X68841904Y-30581009D01*
X68841904Y-30581009D02*
X68937142Y-30628628D01*
X68937142Y-30628628D02*
X69318094Y-30628628D01*
X68413332Y-30104819D02*
X67794285Y-30104819D01*
X67794285Y-30104819D02*
X68127618Y-30485771D01*
X68127618Y-30485771D02*
X67984761Y-30485771D01*
X67984761Y-30485771D02*
X67889523Y-30533390D01*
X67889523Y-30533390D02*
X67841904Y-30581009D01*
X67841904Y-30581009D02*
X67794285Y-30676247D01*
X67794285Y-30676247D02*
X67794285Y-30914342D01*
X67794285Y-30914342D02*
X67841904Y-31009580D01*
X67841904Y-31009580D02*
X67889523Y-31057200D01*
X67889523Y-31057200D02*
X67984761Y-31104819D01*
X67984761Y-31104819D02*
X68270475Y-31104819D01*
X68270475Y-31104819D02*
X68365713Y-31057200D01*
X68365713Y-31057200D02*
X68413332Y-31009580D01*
X97702666Y-47528819D02*
X98035999Y-47052628D01*
X98274094Y-47528819D02*
X98274094Y-46528819D01*
X98274094Y-46528819D02*
X97893142Y-46528819D01*
X97893142Y-46528819D02*
X97797904Y-46576438D01*
X97797904Y-46576438D02*
X97750285Y-46624057D01*
X97750285Y-46624057D02*
X97702666Y-46719295D01*
X97702666Y-46719295D02*
X97702666Y-46862152D01*
X97702666Y-46862152D02*
X97750285Y-46957390D01*
X97750285Y-46957390D02*
X97797904Y-47005009D01*
X97797904Y-47005009D02*
X97893142Y-47052628D01*
X97893142Y-47052628D02*
X98274094Y-47052628D01*
X96845523Y-46528819D02*
X97035999Y-46528819D01*
X97035999Y-46528819D02*
X97131237Y-46576438D01*
X97131237Y-46576438D02*
X97178856Y-46624057D01*
X97178856Y-46624057D02*
X97274094Y-46766914D01*
X97274094Y-46766914D02*
X97321713Y-46957390D01*
X97321713Y-46957390D02*
X97321713Y-47338342D01*
X97321713Y-47338342D02*
X97274094Y-47433580D01*
X97274094Y-47433580D02*
X97226475Y-47481200D01*
X97226475Y-47481200D02*
X97131237Y-47528819D01*
X97131237Y-47528819D02*
X96940761Y-47528819D01*
X96940761Y-47528819D02*
X96845523Y-47481200D01*
X96845523Y-47481200D02*
X96797904Y-47433580D01*
X96797904Y-47433580D02*
X96750285Y-47338342D01*
X96750285Y-47338342D02*
X96750285Y-47100247D01*
X96750285Y-47100247D02*
X96797904Y-47005009D01*
X96797904Y-47005009D02*
X96845523Y-46957390D01*
X96845523Y-46957390D02*
X96940761Y-46909771D01*
X96940761Y-46909771D02*
X97131237Y-46909771D01*
X97131237Y-46909771D02*
X97226475Y-46957390D01*
X97226475Y-46957390D02*
X97274094Y-47005009D01*
X97274094Y-47005009D02*
X97321713Y-47100247D01*
%TO.C,C6*%
D12*
X159520000Y-32370000D02*
X159520000Y-32033000D01*
X159520000Y-29967000D02*
X159520000Y-29630000D01*
X159520000Y-29630000D02*
X154280000Y-29630000D01*
X154280000Y-32370000D02*
X159520000Y-32370000D01*
X154280000Y-32033000D02*
X154280000Y-32370000D01*
X154280000Y-29630000D02*
X154280000Y-29967000D01*
%TO.C,C7*%
X27520000Y-31170000D02*
X27520000Y-30833000D01*
X27520000Y-28767000D02*
X27520000Y-28430000D01*
X27520000Y-28430000D02*
X22280000Y-28430000D01*
X22280000Y-31170000D02*
X27520000Y-31170000D01*
X22280000Y-30833000D02*
X22280000Y-31170000D01*
X22280000Y-28430000D02*
X22280000Y-28767000D01*
%TO.C,C5*%
X167420000Y-32370000D02*
X167420000Y-32033000D01*
X167420000Y-29967000D02*
X167420000Y-29630000D01*
X167420000Y-29630000D02*
X162180000Y-29630000D01*
X162180000Y-32370000D02*
X167420000Y-32370000D01*
X162180000Y-32033000D02*
X162180000Y-32370000D01*
X162180000Y-29630000D02*
X162180000Y-29967000D01*
%TO.C,J1*%
D13*
X87020000Y-28280000D02*
G75*
G02*
X87020000Y-28180000I0J50000D01*
G01*
X87020000Y-28180000D02*
G75*
G02*
X87020000Y-28280000I0J-50000D01*
G01*
D14*
X107905000Y-41275000D02*
X107905000Y-28725000D01*
X107905000Y-28725000D02*
X77095000Y-28725000D01*
D13*
D15*
X87020000Y-28280000D02*
X87019999Y-28280000D01*
X87019999Y-28280000D01*
X87019999Y-28280000D01*
X87019999Y-28280000D01*
X87019999Y-28280000D01*
X87019999Y-28280000D01*
X87019999Y-28280000D01*
X87019999Y-28279999D01*
X87019999Y-28279999D01*
X87019999Y-28279999D01*
X87019999Y-28279999D01*
X87019999Y-28279999D01*
X87020000Y-28279999D01*
X87020000Y-28279999D01*
X87020000Y-28279999D01*
X87020000Y-28279999D01*
X87020000Y-28279999D01*
X87020000Y-28279999D01*
X87020000Y-28279999D01*
X87020000Y-28279999D01*
X87020000Y-28279999D01*
X87020000Y-28279999D01*
X87020000Y-28279999D01*
X87020000Y-28279999D01*
X87020001Y-28279999D01*
X87020001Y-28279999D01*
X87020001Y-28279999D01*
X87020001Y-28279999D01*
X87020001Y-28279999D01*
X87020001Y-28279999D01*
X87020001Y-28280000D01*
X87020001Y-28280000D01*
X87020001Y-28280000D01*
X87020001Y-28280000D01*
X87020001Y-28280000D01*
X87020001Y-28280000D01*
X87020001Y-28280000D01*
X87020000Y-28280000D01*
X87020000Y-28280000D02*
X87020001Y-28280000D01*
X87020001Y-28280000D01*
X87020001Y-28280000D01*
X87020001Y-28280000D01*
X87020001Y-28280000D01*
X87020001Y-28280000D01*
X87020001Y-28280001D01*
X87020001Y-28280001D01*
X87020001Y-28280001D01*
X87020001Y-28280001D01*
X87020001Y-28280001D01*
X87020001Y-28280001D01*
X87020001Y-28280001D01*
X87020000Y-28280001D01*
X87020000Y-28280001D01*
X87020000Y-28280001D01*
X87020000Y-28280001D01*
X87020000Y-28280001D01*
X87020000Y-28280001D01*
X87020000Y-28280001D01*
X87020000Y-28280001D01*
X87020000Y-28280001D01*
X87020000Y-28280001D01*
X87020000Y-28280001D01*
X87020000Y-28280001D01*
X87019999Y-28280001D01*
X87019999Y-28280001D01*
X87019999Y-28280001D01*
X87019999Y-28280001D01*
X87019999Y-28280001D01*
X87019999Y-28280001D01*
X87019999Y-28280000D01*
X87019999Y-28280000D01*
X87019999Y-28280000D01*
X87019999Y-28280000D01*
X87019999Y-28280000D01*
X87019999Y-28280000D01*
X87020000Y-28280000D01*
D13*
D15*
X87020000Y-28180000D02*
X87019999Y-28180000D01*
X87019999Y-28180000D01*
X87019999Y-28180000D01*
X87019999Y-28180000D01*
X87019999Y-28180000D01*
X87019999Y-28180000D01*
X87019999Y-28180000D01*
X87019999Y-28179999D01*
X87019999Y-28179999D01*
X87019999Y-28179999D01*
X87019999Y-28179999D01*
X87019999Y-28179999D01*
X87020000Y-28179999D01*
X87020000Y-28179999D01*
X87020000Y-28179999D01*
X87020000Y-28179999D01*
X87020000Y-28179999D01*
X87020000Y-28179999D01*
X87020000Y-28179999D01*
X87020000Y-28179999D01*
X87020000Y-28179999D01*
X87020000Y-28179999D01*
X87020000Y-28179999D01*
X87020000Y-28179999D01*
X87020001Y-28179999D01*
X87020001Y-28179999D01*
X87020001Y-28179999D01*
X87020001Y-28179999D01*
X87020001Y-28179999D01*
X87020001Y-28179999D01*
X87020001Y-28180000D01*
X87020001Y-28180000D01*
X87020001Y-28180000D01*
X87020001Y-28180000D01*
X87020001Y-28180000D01*
X87020001Y-28180000D01*
X87020001Y-28180000D01*
X87020000Y-28180000D01*
X87020000Y-28180000D02*
X87020001Y-28180000D01*
X87020001Y-28180000D01*
X87020001Y-28180000D01*
X87020001Y-28180000D01*
X87020001Y-28180000D01*
X87020001Y-28180000D01*
X87020001Y-28180001D01*
X87020001Y-28180001D01*
X87020001Y-28180001D01*
X87020001Y-28180001D01*
X87020001Y-28180001D01*
X87020001Y-28180001D01*
X87020001Y-28180001D01*
X87020000Y-28180001D01*
X87020000Y-28180001D01*
X87020000Y-28180001D01*
X87020000Y-28180001D01*
X87020000Y-28180001D01*
X87020000Y-28180001D01*
X87020000Y-28180001D01*
X87020000Y-28180001D01*
X87020000Y-28180001D01*
X87020000Y-28180001D01*
X87020000Y-28180001D01*
X87020000Y-28180001D01*
X87019999Y-28180001D01*
X87019999Y-28180001D01*
X87019999Y-28180001D01*
X87019999Y-28180001D01*
X87019999Y-28180001D01*
X87019999Y-28180001D01*
X87019999Y-28180000D01*
X87019999Y-28180000D01*
X87019999Y-28180000D01*
X87019999Y-28180000D01*
X87019999Y-28180000D01*
X87019999Y-28180000D01*
X87020000Y-28180000D01*
D14*
X77095000Y-41275000D02*
X107905000Y-41275000D01*
X77095000Y-28725000D02*
X77095000Y-41275000D01*
%TO.C,R9*%
D12*
X51080000Y-42370000D02*
X44540000Y-42370000D01*
X51080000Y-42040000D02*
X51080000Y-42370000D01*
X51080000Y-39960000D02*
X51080000Y-39630000D01*
X51080000Y-39630000D02*
X44540000Y-39630000D01*
X44540000Y-42370000D02*
X44540000Y-42040000D01*
X44540000Y-39630000D02*
X44540000Y-39960000D01*
%TO.C,R2*%
X65310000Y-36730000D02*
X65310000Y-37060000D01*
X65310000Y-39470000D02*
X65310000Y-39140000D01*
X71850000Y-36730000D02*
X65310000Y-36730000D01*
X71850000Y-37060000D02*
X71850000Y-36730000D01*
X71850000Y-39140000D02*
X71850000Y-39470000D01*
X71850000Y-39470000D02*
X65310000Y-39470000D01*
%TO.C,C2*%
X55760000Y-36730000D02*
X55760000Y-37067000D01*
X55760000Y-39133000D02*
X55760000Y-39470000D01*
X55760000Y-39470000D02*
X61000000Y-39470000D01*
X61000000Y-36730000D02*
X55760000Y-36730000D01*
X61000000Y-37067000D02*
X61000000Y-36730000D01*
X61000000Y-39470000D02*
X61000000Y-39133000D01*
%TO.C,R4*%
X65310000Y-26570000D02*
X65310000Y-26900000D01*
X65310000Y-29310000D02*
X65310000Y-28980000D01*
X71850000Y-26570000D02*
X65310000Y-26570000D01*
X71850000Y-26900000D02*
X71850000Y-26570000D01*
X71850000Y-28980000D02*
X71850000Y-29310000D01*
X71850000Y-29310000D02*
X65310000Y-29310000D01*
%TO.C,R1*%
X65310000Y-41810000D02*
X65310000Y-42140000D01*
X65310000Y-44550000D02*
X65310000Y-44220000D01*
X71850000Y-41810000D02*
X65310000Y-41810000D01*
X71850000Y-42140000D02*
X71850000Y-41810000D01*
X71850000Y-44220000D02*
X71850000Y-44550000D01*
X71850000Y-44550000D02*
X65310000Y-44550000D01*
%TO.C,C3*%
X55760000Y-31650000D02*
X55760000Y-31987000D01*
X55760000Y-34053000D02*
X55760000Y-34390000D01*
X55760000Y-34390000D02*
X61000000Y-34390000D01*
X61000000Y-31650000D02*
X55760000Y-31650000D01*
X61000000Y-31987000D02*
X61000000Y-31650000D01*
X61000000Y-34390000D02*
X61000000Y-34053000D01*
%TO.C,U2*%
X120540000Y-17760000D02*
X125840000Y-17760000D01*
X120540000Y-53440000D02*
X120540000Y-17760000D01*
X122190000Y-53440000D02*
X120540000Y-53440000D01*
X125840000Y-17760000D02*
X125840000Y-53440000D01*
X125840000Y-53440000D02*
X124190000Y-53440000D01*
X122190000Y-53440000D02*
G75*
G02*
X124190000Y-53440000I1000000J0D01*
G01*
%TO.C,C4*%
X55760000Y-26570000D02*
X55760000Y-26907000D01*
X55760000Y-28973000D02*
X55760000Y-29310000D01*
X55760000Y-29310000D02*
X61000000Y-29310000D01*
X61000000Y-26570000D02*
X55760000Y-26570000D01*
X61000000Y-26907000D02*
X61000000Y-26570000D01*
X61000000Y-29310000D02*
X61000000Y-28973000D01*
%TO.C,C1*%
X55760000Y-41810000D02*
X55760000Y-42147000D01*
X55760000Y-44213000D02*
X55760000Y-44550000D01*
X55760000Y-44550000D02*
X61000000Y-44550000D01*
X61000000Y-41810000D02*
X55760000Y-41810000D01*
X61000000Y-42147000D02*
X61000000Y-41810000D01*
X61000000Y-44550000D02*
X61000000Y-44213000D01*
%TO.C,R7*%
X44540000Y-25630000D02*
X44540000Y-25960000D01*
X44540000Y-28370000D02*
X44540000Y-28040000D01*
X51080000Y-25630000D02*
X44540000Y-25630000D01*
X51080000Y-25960000D02*
X51080000Y-25630000D01*
X51080000Y-28040000D02*
X51080000Y-28370000D01*
X51080000Y-28370000D02*
X44540000Y-28370000D01*
%TO.C,R10*%
X44540000Y-46630000D02*
X44540000Y-46960000D01*
X44540000Y-49370000D02*
X44540000Y-49040000D01*
X51080000Y-46630000D02*
X44540000Y-46630000D01*
X51080000Y-46960000D02*
X51080000Y-46630000D01*
X51080000Y-49040000D02*
X51080000Y-49370000D01*
X51080000Y-49370000D02*
X44540000Y-49370000D01*
%TO.C,R5*%
X84360000Y-43334000D02*
X90900000Y-43334000D01*
X84360000Y-43664000D02*
X84360000Y-43334000D01*
X84360000Y-45744000D02*
X84360000Y-46074000D01*
X84360000Y-46074000D02*
X90900000Y-46074000D01*
X90900000Y-43334000D02*
X90900000Y-43664000D01*
X90900000Y-46074000D02*
X90900000Y-45744000D01*
%TO.C,R8*%
X44540000Y-32630000D02*
X44540000Y-32960000D01*
X44540000Y-35370000D02*
X44540000Y-35040000D01*
X51080000Y-32630000D02*
X44540000Y-32630000D01*
X51080000Y-32960000D02*
X51080000Y-32630000D01*
X51080000Y-35040000D02*
X51080000Y-35370000D01*
X51080000Y-35370000D02*
X44540000Y-35370000D01*
%TO.C,R3*%
X65310000Y-31650000D02*
X65310000Y-31980000D01*
X65310000Y-34390000D02*
X65310000Y-34060000D01*
X71850000Y-31650000D02*
X65310000Y-31650000D01*
X71850000Y-31980000D02*
X71850000Y-31650000D01*
X71850000Y-34060000D02*
X71850000Y-34390000D01*
X71850000Y-34390000D02*
X65310000Y-34390000D01*
%TO.C,R6*%
X94266000Y-43334000D02*
X100806000Y-43334000D01*
X94266000Y-43664000D02*
X94266000Y-43334000D01*
X94266000Y-45744000D02*
X94266000Y-46074000D01*
X94266000Y-46074000D02*
X100806000Y-46074000D01*
X100806000Y-43334000D02*
X100806000Y-43664000D01*
X100806000Y-46074000D02*
X100806000Y-45744000D01*
%TD*%
M02*
