G04 #@! TF.GenerationSoftware,KiCad,Pcbnew,10.0.0*
G04 #@! TF.CreationDate,2026-04-06T16:15:09-07:00*
G04 #@! TF.ProjectId,ledalarm,6c656461-6c61-4726-9d2e-6b696361645f,rev?*
G04 #@! TF.SameCoordinates,Original*
G04 #@! TF.FileFunction,Soldermask,Bot*
G04 #@! TF.FilePolarity,Negative*
%FSLAX46Y46*%
G04 Gerber Fmt 4.6, Leading zero omitted, Abs format (unit mm)*
G04 Created by KiCad (PCBNEW 10.0.0) date 2026-04-06 16:15:09*
%MOMM*%
%LPD*%
G01*
G04 APERTURE LIST*
G04 APERTURE END LIST*
G36*
X27873513Y-46944208D02*
G01*
X28112293Y-47021793D01*
X28335998Y-47135776D01*
X28539117Y-47283350D01*
X28716650Y-47460883D01*
X28864224Y-47664002D01*
X28978207Y-47887707D01*
X29055792Y-48126487D01*
X29095068Y-48374465D01*
X29095068Y-48625535D01*
X29055792Y-48873513D01*
X28978207Y-49112293D01*
X28864224Y-49335998D01*
X28716650Y-49539117D01*
X28539117Y-49716650D01*
X28335998Y-49864224D01*
X28112293Y-49978207D01*
X27873513Y-50055792D01*
X27625535Y-50095068D01*
X27374465Y-50095068D01*
X27126487Y-50055792D01*
X26887707Y-49978207D01*
X26664002Y-49864224D01*
X26460883Y-49716650D01*
X26283350Y-49539117D01*
X26135776Y-49335998D01*
X26021793Y-49112293D01*
X25944208Y-48873513D01*
X25904932Y-48625535D01*
X25904932Y-48374465D01*
X25944208Y-48126487D01*
X26021793Y-47887707D01*
X26135776Y-47664002D01*
X26283350Y-47460883D01*
X26460883Y-47283350D01*
X26664002Y-47135776D01*
X26887707Y-47021793D01*
X27126487Y-46944208D01*
X27374465Y-46904932D01*
X27625535Y-46904932D01*
X27873513Y-46944208D01*
G37*
G36*
X2873513Y-46444208D02*
G01*
X3112293Y-46521793D01*
X3335998Y-46635776D01*
X3539117Y-46783350D01*
X3716650Y-46960883D01*
X3864224Y-47164002D01*
X3978207Y-47387707D01*
X4055792Y-47626487D01*
X4095068Y-47874465D01*
X4095068Y-48125535D01*
X4055792Y-48373513D01*
X3978207Y-48612293D01*
X3864224Y-48835998D01*
X3716650Y-49039117D01*
X3539117Y-49216650D01*
X3335998Y-49364224D01*
X3112293Y-49478207D01*
X2873513Y-49555792D01*
X2625535Y-49595068D01*
X2374465Y-49595068D01*
X2126487Y-49555792D01*
X1887707Y-49478207D01*
X1664002Y-49364224D01*
X1460883Y-49216650D01*
X1283350Y-49039117D01*
X1135776Y-48835998D01*
X1021793Y-48612293D01*
X944208Y-48373513D01*
X904932Y-48125535D01*
X904932Y-47874465D01*
X944208Y-47626487D01*
X1021793Y-47387707D01*
X1135776Y-47164002D01*
X1283350Y-46960883D01*
X1460883Y-46783350D01*
X1664002Y-46635776D01*
X1887707Y-46521793D01*
X2126487Y-46444208D01*
X2374465Y-46404932D01*
X2625535Y-46404932D01*
X2873513Y-46444208D01*
G37*
G36*
X11232228Y-47314448D02*
G01*
X11377117Y-47374463D01*
X11507515Y-47461592D01*
X11618408Y-47572485D01*
X11705537Y-47702883D01*
X11765552Y-47847772D01*
X11796148Y-48001586D01*
X11796148Y-48158414D01*
X11765552Y-48312228D01*
X11705537Y-48457117D01*
X11618408Y-48587515D01*
X11507515Y-48698408D01*
X11377117Y-48785537D01*
X11232228Y-48845552D01*
X11078414Y-48876148D01*
X10921586Y-48876148D01*
X10767772Y-48845552D01*
X10622883Y-48785537D01*
X10492485Y-48698408D01*
X10381592Y-48587515D01*
X10294463Y-48457117D01*
X10234448Y-48312228D01*
X10203852Y-48158414D01*
X10203852Y-48001586D01*
X10234448Y-47847772D01*
X10294463Y-47702883D01*
X10381592Y-47572485D01*
X10492485Y-47461592D01*
X10622883Y-47374463D01*
X10767772Y-47314448D01*
X10921586Y-47283852D01*
X11078414Y-47283852D01*
X11232228Y-47314448D01*
G37*
G36*
X15232228Y-47314448D02*
G01*
X15377117Y-47374463D01*
X15507515Y-47461592D01*
X15618408Y-47572485D01*
X15705537Y-47702883D01*
X15765552Y-47847772D01*
X15796148Y-48001586D01*
X15796148Y-48158414D01*
X15765552Y-48312228D01*
X15705537Y-48457117D01*
X15618408Y-48587515D01*
X15507515Y-48698408D01*
X15377117Y-48785537D01*
X15232228Y-48845552D01*
X15078414Y-48876148D01*
X14921586Y-48876148D01*
X14767772Y-48845552D01*
X14622883Y-48785537D01*
X14492485Y-48698408D01*
X14381592Y-48587515D01*
X14294463Y-48457117D01*
X14234448Y-48312228D01*
X14203852Y-48158414D01*
X14203852Y-48001586D01*
X14234448Y-47847772D01*
X14294463Y-47702883D01*
X14381592Y-47572485D01*
X14492485Y-47461592D01*
X14622883Y-47374463D01*
X14767772Y-47314448D01*
X14921586Y-47283852D01*
X15078414Y-47283852D01*
X15232228Y-47314448D01*
G37*
G36*
X19232228Y-47314448D02*
G01*
X19377117Y-47374463D01*
X19507515Y-47461592D01*
X19618408Y-47572485D01*
X19705537Y-47702883D01*
X19765552Y-47847772D01*
X19796148Y-48001586D01*
X19796148Y-48158414D01*
X19765552Y-48312228D01*
X19705537Y-48457117D01*
X19618408Y-48587515D01*
X19507515Y-48698408D01*
X19377117Y-48785537D01*
X19232228Y-48845552D01*
X19078414Y-48876148D01*
X18921586Y-48876148D01*
X18767772Y-48845552D01*
X18622883Y-48785537D01*
X18492485Y-48698408D01*
X18381592Y-48587515D01*
X18294463Y-48457117D01*
X18234448Y-48312228D01*
X18203852Y-48158414D01*
X18203852Y-48001586D01*
X18234448Y-47847772D01*
X18294463Y-47702883D01*
X18381592Y-47572485D01*
X18492485Y-47461592D01*
X18622883Y-47374463D01*
X18767772Y-47314448D01*
X18921586Y-47283852D01*
X19078414Y-47283852D01*
X19232228Y-47314448D01*
G37*
G36*
X6900000Y-40900000D02*
G01*
X5100000Y-40900000D01*
X5100000Y-39100000D01*
X6900000Y-39100000D01*
X6900000Y-40900000D01*
G37*
G36*
X26900000Y-40900000D02*
G01*
X25100000Y-40900000D01*
X25100000Y-39100000D01*
X26900000Y-39100000D01*
X26900000Y-40900000D01*
G37*
G36*
X3721256Y-39138754D02*
G01*
X3884257Y-39206271D01*
X4030954Y-39304291D01*
X4155709Y-39429046D01*
X4253729Y-39575743D01*
X4321246Y-39738744D01*
X4355666Y-39911785D01*
X4355666Y-40088215D01*
X4321246Y-40261256D01*
X4253729Y-40424257D01*
X4155709Y-40570954D01*
X4030954Y-40695709D01*
X3884257Y-40793729D01*
X3721256Y-40861246D01*
X3548215Y-40895666D01*
X3371785Y-40895666D01*
X3198744Y-40861246D01*
X3035743Y-40793729D01*
X2889046Y-40695709D01*
X2764291Y-40570954D01*
X2666271Y-40424257D01*
X2598754Y-40261256D01*
X2564334Y-40088215D01*
X2564334Y-39911785D01*
X2598754Y-39738744D01*
X2666271Y-39575743D01*
X2764291Y-39429046D01*
X2889046Y-39304291D01*
X3035743Y-39206271D01*
X3198744Y-39138754D01*
X3371785Y-39104334D01*
X3548215Y-39104334D01*
X3721256Y-39138754D01*
G37*
G36*
X23721256Y-39138754D02*
G01*
X23884257Y-39206271D01*
X24030954Y-39304291D01*
X24155709Y-39429046D01*
X24253729Y-39575743D01*
X24321246Y-39738744D01*
X24355666Y-39911785D01*
X24355666Y-40088215D01*
X24321246Y-40261256D01*
X24253729Y-40424257D01*
X24155709Y-40570954D01*
X24030954Y-40695709D01*
X23884257Y-40793729D01*
X23721256Y-40861246D01*
X23548215Y-40895666D01*
X23371785Y-40895666D01*
X23198744Y-40861246D01*
X23035743Y-40793729D01*
X22889046Y-40695709D01*
X22764291Y-40570954D01*
X22666271Y-40424257D01*
X22598754Y-40261256D01*
X22564334Y-40088215D01*
X22564334Y-39911785D01*
X22598754Y-39738744D01*
X22666271Y-39575743D01*
X22764291Y-39429046D01*
X22889046Y-39304291D01*
X23035743Y-39206271D01*
X23198744Y-39138754D01*
X23371785Y-39104334D01*
X23548215Y-39104334D01*
X23721256Y-39138754D01*
G37*
G36*
X11232228Y-37154448D02*
G01*
X11377117Y-37214463D01*
X11507515Y-37301592D01*
X11618408Y-37412485D01*
X11705537Y-37542883D01*
X11765552Y-37687772D01*
X11796148Y-37841586D01*
X11796148Y-37998414D01*
X11765552Y-38152228D01*
X11705537Y-38297117D01*
X11618408Y-38427515D01*
X11507515Y-38538408D01*
X11377117Y-38625537D01*
X11232228Y-38685552D01*
X11078414Y-38716148D01*
X10921586Y-38716148D01*
X10767772Y-38685552D01*
X10622883Y-38625537D01*
X10492485Y-38538408D01*
X10381592Y-38427515D01*
X10294463Y-38297117D01*
X10234448Y-38152228D01*
X10203852Y-37998414D01*
X10203852Y-37841586D01*
X10234448Y-37687772D01*
X10294463Y-37542883D01*
X10381592Y-37412485D01*
X10492485Y-37301592D01*
X10622883Y-37214463D01*
X10767772Y-37154448D01*
X10921586Y-37123852D01*
X11078414Y-37123852D01*
X11232228Y-37154448D01*
G37*
G36*
X15232228Y-37154448D02*
G01*
X15377117Y-37214463D01*
X15507515Y-37301592D01*
X15618408Y-37412485D01*
X15705537Y-37542883D01*
X15765552Y-37687772D01*
X15796148Y-37841586D01*
X15796148Y-37998414D01*
X15765552Y-38152228D01*
X15705537Y-38297117D01*
X15618408Y-38427515D01*
X15507515Y-38538408D01*
X15377117Y-38625537D01*
X15232228Y-38685552D01*
X15078414Y-38716148D01*
X14921586Y-38716148D01*
X14767772Y-38685552D01*
X14622883Y-38625537D01*
X14492485Y-38538408D01*
X14381592Y-38427515D01*
X14294463Y-38297117D01*
X14234448Y-38152228D01*
X14203852Y-37998414D01*
X14203852Y-37841586D01*
X14234448Y-37687772D01*
X14294463Y-37542883D01*
X14381592Y-37412485D01*
X14492485Y-37301592D01*
X14622883Y-37214463D01*
X14767772Y-37154448D01*
X14921586Y-37123852D01*
X15078414Y-37123852D01*
X15232228Y-37154448D01*
G37*
G36*
X19232228Y-37154448D02*
G01*
X19377117Y-37214463D01*
X19507515Y-37301592D01*
X19618408Y-37412485D01*
X19705537Y-37542883D01*
X19765552Y-37687772D01*
X19796148Y-37841586D01*
X19796148Y-37998414D01*
X19765552Y-38152228D01*
X19705537Y-38297117D01*
X19618408Y-38427515D01*
X19507515Y-38538408D01*
X19377117Y-38625537D01*
X19232228Y-38685552D01*
X19078414Y-38716148D01*
X18921586Y-38716148D01*
X18767772Y-38685552D01*
X18622883Y-38625537D01*
X18492485Y-38538408D01*
X18381592Y-38427515D01*
X18294463Y-38297117D01*
X18234448Y-38152228D01*
X18203852Y-37998414D01*
X18203852Y-37841586D01*
X18234448Y-37687772D01*
X18294463Y-37542883D01*
X18381592Y-37412485D01*
X18492485Y-37301592D01*
X18622883Y-37214463D01*
X18767772Y-37154448D01*
X18921586Y-37123852D01*
X19078414Y-37123852D01*
X19232228Y-37154448D01*
G37*
G36*
X16208315Y-32654093D02*
G01*
X16371742Y-32686601D01*
X16525687Y-32750367D01*
X16664234Y-32842941D01*
X16782059Y-32960766D01*
X16874633Y-33099313D01*
X16938399Y-33253258D01*
X16970907Y-33416685D01*
X16970907Y-33583315D01*
X16938399Y-33746742D01*
X16874633Y-33900687D01*
X16782059Y-34039234D01*
X16664234Y-34157059D01*
X16525687Y-34249633D01*
X16371742Y-34313399D01*
X16208315Y-34345907D01*
X16125000Y-34350000D01*
X16123522Y-34350000D01*
X15876478Y-34350000D01*
X15875000Y-34350000D01*
X15791685Y-34345907D01*
X15628258Y-34313399D01*
X15474313Y-34249633D01*
X15335766Y-34157059D01*
X15217941Y-34039234D01*
X15125367Y-33900687D01*
X15061601Y-33746742D01*
X15029093Y-33583315D01*
X15029093Y-33416685D01*
X15061601Y-33253258D01*
X15125367Y-33099313D01*
X15217941Y-32960766D01*
X15335766Y-32842941D01*
X15474313Y-32750367D01*
X15628258Y-32686601D01*
X15791685Y-32654093D01*
X15875000Y-32650000D01*
X16125000Y-32650000D01*
X16208315Y-32654093D01*
G37*
G36*
X16208315Y-30154093D02*
G01*
X16371742Y-30186601D01*
X16525687Y-30250367D01*
X16664234Y-30342941D01*
X16782059Y-30460766D01*
X16874633Y-30599313D01*
X16938399Y-30753258D01*
X16970907Y-30916685D01*
X16970907Y-31083315D01*
X16938399Y-31246742D01*
X16874633Y-31400687D01*
X16782059Y-31539234D01*
X16664234Y-31657059D01*
X16525687Y-31749633D01*
X16371742Y-31813399D01*
X16208315Y-31845907D01*
X16125000Y-31850000D01*
X16123522Y-31850000D01*
X15876478Y-31850000D01*
X15875000Y-31850000D01*
X15791685Y-31845907D01*
X15628258Y-31813399D01*
X15474313Y-31749633D01*
X15335766Y-31657059D01*
X15217941Y-31539234D01*
X15125367Y-31400687D01*
X15061601Y-31246742D01*
X15029093Y-31083315D01*
X15029093Y-30916685D01*
X15061601Y-30753258D01*
X15125367Y-30599313D01*
X15217941Y-30460766D01*
X15335766Y-30342941D01*
X15474313Y-30250367D01*
X15628258Y-30186601D01*
X15791685Y-30154093D01*
X15875000Y-30150000D01*
X16125000Y-30150000D01*
X16208315Y-30154093D01*
G37*
G36*
X16208315Y-27654093D02*
G01*
X16371742Y-27686601D01*
X16525687Y-27750367D01*
X16664234Y-27842941D01*
X16782059Y-27960766D01*
X16874633Y-28099313D01*
X16938399Y-28253258D01*
X16970907Y-28416685D01*
X16970907Y-28583315D01*
X16938399Y-28746742D01*
X16874633Y-28900687D01*
X16782059Y-29039234D01*
X16664234Y-29157059D01*
X16525687Y-29249633D01*
X16371742Y-29313399D01*
X16208315Y-29345907D01*
X16125000Y-29350000D01*
X16123522Y-29350000D01*
X15876478Y-29350000D01*
X15875000Y-29350000D01*
X15791685Y-29345907D01*
X15628258Y-29313399D01*
X15474313Y-29249633D01*
X15335766Y-29157059D01*
X15217941Y-29039234D01*
X15125367Y-28900687D01*
X15061601Y-28746742D01*
X15029093Y-28583315D01*
X15029093Y-28416685D01*
X15061601Y-28253258D01*
X15125367Y-28099313D01*
X15217941Y-27960766D01*
X15335766Y-27842941D01*
X15474313Y-27750367D01*
X15628258Y-27686601D01*
X15791685Y-27654093D01*
X15875000Y-27650000D01*
X16125000Y-27650000D01*
X16208315Y-27654093D01*
G37*
G36*
X16208315Y-25154093D02*
G01*
X16371742Y-25186601D01*
X16525687Y-25250367D01*
X16664234Y-25342941D01*
X16782059Y-25460766D01*
X16874633Y-25599313D01*
X16938399Y-25753258D01*
X16970907Y-25916685D01*
X16970907Y-26083315D01*
X16938399Y-26246742D01*
X16874633Y-26400687D01*
X16782059Y-26539234D01*
X16664234Y-26657059D01*
X16525687Y-26749633D01*
X16371742Y-26813399D01*
X16208315Y-26845907D01*
X16125000Y-26850000D01*
X16123522Y-26850000D01*
X15876478Y-26850000D01*
X15875000Y-26850000D01*
X15791685Y-26845907D01*
X15628258Y-26813399D01*
X15474313Y-26749633D01*
X15335766Y-26657059D01*
X15217941Y-26539234D01*
X15125367Y-26400687D01*
X15061601Y-26246742D01*
X15029093Y-26083315D01*
X15029093Y-25916685D01*
X15061601Y-25753258D01*
X15125367Y-25599313D01*
X15217941Y-25460766D01*
X15335766Y-25342941D01*
X15474313Y-25250367D01*
X15628258Y-25186601D01*
X15791685Y-25154093D01*
X15875000Y-25150000D01*
X16125000Y-25150000D01*
X16208315Y-25154093D01*
G37*
G36*
X6900000Y-25900000D02*
G01*
X5100000Y-25900000D01*
X5100000Y-24100000D01*
X6900000Y-24100000D01*
X6900000Y-25900000D01*
G37*
G36*
X26900000Y-25900000D02*
G01*
X25100000Y-25900000D01*
X25100000Y-24100000D01*
X26900000Y-24100000D01*
X26900000Y-25900000D01*
G37*
G36*
X3721256Y-24138754D02*
G01*
X3884257Y-24206271D01*
X4030954Y-24304291D01*
X4155709Y-24429046D01*
X4253729Y-24575743D01*
X4321246Y-24738744D01*
X4355666Y-24911785D01*
X4355666Y-25088215D01*
X4321246Y-25261256D01*
X4253729Y-25424257D01*
X4155709Y-25570954D01*
X4030954Y-25695709D01*
X3884257Y-25793729D01*
X3721256Y-25861246D01*
X3548215Y-25895666D01*
X3371785Y-25895666D01*
X3198744Y-25861246D01*
X3035743Y-25793729D01*
X2889046Y-25695709D01*
X2764291Y-25570954D01*
X2666271Y-25424257D01*
X2598754Y-25261256D01*
X2564334Y-25088215D01*
X2564334Y-24911785D01*
X2598754Y-24738744D01*
X2666271Y-24575743D01*
X2764291Y-24429046D01*
X2889046Y-24304291D01*
X3035743Y-24206271D01*
X3198744Y-24138754D01*
X3371785Y-24104334D01*
X3548215Y-24104334D01*
X3721256Y-24138754D01*
G37*
G36*
X23721256Y-24138754D02*
G01*
X23884257Y-24206271D01*
X24030954Y-24304291D01*
X24155709Y-24429046D01*
X24253729Y-24575743D01*
X24321246Y-24738744D01*
X24355666Y-24911785D01*
X24355666Y-25088215D01*
X24321246Y-25261256D01*
X24253729Y-25424257D01*
X24155709Y-25570954D01*
X24030954Y-25695709D01*
X23884257Y-25793729D01*
X23721256Y-25861246D01*
X23548215Y-25895666D01*
X23371785Y-25895666D01*
X23198744Y-25861246D01*
X23035743Y-25793729D01*
X22889046Y-25695709D01*
X22764291Y-25570954D01*
X22666271Y-25424257D01*
X22598754Y-25261256D01*
X22564334Y-25088215D01*
X22564334Y-24911785D01*
X22598754Y-24738744D01*
X22666271Y-24575743D01*
X22764291Y-24429046D01*
X22889046Y-24304291D01*
X23035743Y-24206271D01*
X23198744Y-24138754D01*
X23371785Y-24104334D01*
X23548215Y-24104334D01*
X23721256Y-24138754D01*
G37*
G36*
X16208315Y-22654093D02*
G01*
X16371742Y-22686601D01*
X16525687Y-22750367D01*
X16664234Y-22842941D01*
X16782059Y-22960766D01*
X16874633Y-23099313D01*
X16938399Y-23253258D01*
X16970907Y-23416685D01*
X16970907Y-23583315D01*
X16938399Y-23746742D01*
X16874633Y-23900687D01*
X16782059Y-24039234D01*
X16664234Y-24157059D01*
X16525687Y-24249633D01*
X16371742Y-24313399D01*
X16208315Y-24345907D01*
X16125000Y-24350000D01*
X16123522Y-24350000D01*
X15876478Y-24350000D01*
X15875000Y-24350000D01*
X15791685Y-24345907D01*
X15628258Y-24313399D01*
X15474313Y-24249633D01*
X15335766Y-24157059D01*
X15217941Y-24039234D01*
X15125367Y-23900687D01*
X15061601Y-23746742D01*
X15029093Y-23583315D01*
X15029093Y-23416685D01*
X15061601Y-23253258D01*
X15125367Y-23099313D01*
X15217941Y-22960766D01*
X15335766Y-22842941D01*
X15474313Y-22750367D01*
X15628258Y-22686601D01*
X15791685Y-22654093D01*
X15875000Y-22650000D01*
X16125000Y-22650000D01*
X16208315Y-22654093D01*
G37*
G36*
X16208315Y-20154093D02*
G01*
X16371742Y-20186601D01*
X16525687Y-20250367D01*
X16664234Y-20342941D01*
X16782059Y-20460766D01*
X16874633Y-20599313D01*
X16938399Y-20753258D01*
X16970907Y-20916685D01*
X16970907Y-21083315D01*
X16938399Y-21246742D01*
X16874633Y-21400687D01*
X16782059Y-21539234D01*
X16664234Y-21657059D01*
X16525687Y-21749633D01*
X16371742Y-21813399D01*
X16208315Y-21845907D01*
X16125000Y-21850000D01*
X16123522Y-21850000D01*
X15876478Y-21850000D01*
X15875000Y-21850000D01*
X15791685Y-21845907D01*
X15628258Y-21813399D01*
X15474313Y-21749633D01*
X15335766Y-21657059D01*
X15217941Y-21539234D01*
X15125367Y-21400687D01*
X15061601Y-21246742D01*
X15029093Y-21083315D01*
X15029093Y-20916685D01*
X15061601Y-20753258D01*
X15125367Y-20599313D01*
X15217941Y-20460766D01*
X15335766Y-20342941D01*
X15474313Y-20250367D01*
X15628258Y-20186601D01*
X15791685Y-20154093D01*
X15875000Y-20150000D01*
X16125000Y-20150000D01*
X16208315Y-20154093D01*
G37*
G36*
X16729850Y-17650964D02*
G01*
X16780040Y-17656787D01*
X16797189Y-17664359D01*
X16820671Y-17669030D01*
X16845810Y-17685827D01*
X16865696Y-17694608D01*
X16879277Y-17708189D01*
X16901777Y-17723223D01*
X16916810Y-17745722D01*
X16930391Y-17759303D01*
X16939170Y-17779186D01*
X16955970Y-17804329D01*
X16960641Y-17827812D01*
X16968212Y-17844959D01*
X16974033Y-17895139D01*
X16975000Y-17900000D01*
X16975000Y-19100000D01*
X16974032Y-19104863D01*
X16968212Y-19155040D01*
X16960641Y-19172185D01*
X16955970Y-19195671D01*
X16939169Y-19220815D01*
X16930391Y-19240696D01*
X16916812Y-19254274D01*
X16901777Y-19276777D01*
X16879274Y-19291812D01*
X16865696Y-19305391D01*
X16845815Y-19314169D01*
X16820671Y-19330970D01*
X16797185Y-19335641D01*
X16780040Y-19343212D01*
X16729861Y-19349032D01*
X16725000Y-19350000D01*
X15275000Y-19350000D01*
X15270138Y-19349032D01*
X15219959Y-19343212D01*
X15202812Y-19335641D01*
X15179329Y-19330970D01*
X15154186Y-19314170D01*
X15134303Y-19305391D01*
X15120722Y-19291810D01*
X15098223Y-19276777D01*
X15083189Y-19254277D01*
X15069608Y-19240696D01*
X15060827Y-19220810D01*
X15044030Y-19195671D01*
X15039359Y-19172189D01*
X15031787Y-19155040D01*
X15025964Y-19104849D01*
X15025000Y-19100000D01*
X15025000Y-17900000D01*
X15025964Y-17895150D01*
X15031787Y-17844959D01*
X15039359Y-17827808D01*
X15044030Y-17804329D01*
X15060826Y-17779191D01*
X15069608Y-17759303D01*
X15083191Y-17745719D01*
X15098223Y-17723223D01*
X15120719Y-17708191D01*
X15134303Y-17694608D01*
X15154191Y-17685826D01*
X15179329Y-17669030D01*
X15202808Y-17664359D01*
X15219959Y-17656787D01*
X15270151Y-17650964D01*
X15275000Y-17650000D01*
X16725000Y-17650000D01*
X16729850Y-17650964D01*
G37*
G36*
X11232228Y-13314448D02*
G01*
X11377117Y-13374463D01*
X11507515Y-13461592D01*
X11618408Y-13572485D01*
X11705537Y-13702883D01*
X11765552Y-13847772D01*
X11796148Y-14001586D01*
X11796148Y-14158414D01*
X11765552Y-14312228D01*
X11705537Y-14457117D01*
X11618408Y-14587515D01*
X11507515Y-14698408D01*
X11377117Y-14785537D01*
X11232228Y-14845552D01*
X11078414Y-14876148D01*
X10921586Y-14876148D01*
X10767772Y-14845552D01*
X10622883Y-14785537D01*
X10492485Y-14698408D01*
X10381592Y-14587515D01*
X10294463Y-14457117D01*
X10234448Y-14312228D01*
X10203852Y-14158414D01*
X10203852Y-14001586D01*
X10234448Y-13847772D01*
X10294463Y-13702883D01*
X10381592Y-13572485D01*
X10492485Y-13461592D01*
X10622883Y-13374463D01*
X10767772Y-13314448D01*
X10921586Y-13283852D01*
X11078414Y-13283852D01*
X11232228Y-13314448D01*
G37*
G36*
X15232228Y-13314448D02*
G01*
X15377117Y-13374463D01*
X15507515Y-13461592D01*
X15618408Y-13572485D01*
X15705537Y-13702883D01*
X15765552Y-13847772D01*
X15796148Y-14001586D01*
X15796148Y-14158414D01*
X15765552Y-14312228D01*
X15705537Y-14457117D01*
X15618408Y-14587515D01*
X15507515Y-14698408D01*
X15377117Y-14785537D01*
X15232228Y-14845552D01*
X15078414Y-14876148D01*
X14921586Y-14876148D01*
X14767772Y-14845552D01*
X14622883Y-14785537D01*
X14492485Y-14698408D01*
X14381592Y-14587515D01*
X14294463Y-14457117D01*
X14234448Y-14312228D01*
X14203852Y-14158414D01*
X14203852Y-14001586D01*
X14234448Y-13847772D01*
X14294463Y-13702883D01*
X14381592Y-13572485D01*
X14492485Y-13461592D01*
X14622883Y-13374463D01*
X14767772Y-13314448D01*
X14921586Y-13283852D01*
X15078414Y-13283852D01*
X15232228Y-13314448D01*
G37*
G36*
X19232228Y-13314448D02*
G01*
X19377117Y-13374463D01*
X19507515Y-13461592D01*
X19618408Y-13572485D01*
X19705537Y-13702883D01*
X19765552Y-13847772D01*
X19796148Y-14001586D01*
X19796148Y-14158414D01*
X19765552Y-14312228D01*
X19705537Y-14457117D01*
X19618408Y-14587515D01*
X19507515Y-14698408D01*
X19377117Y-14785537D01*
X19232228Y-14845552D01*
X19078414Y-14876148D01*
X18921586Y-14876148D01*
X18767772Y-14845552D01*
X18622883Y-14785537D01*
X18492485Y-14698408D01*
X18381592Y-14587515D01*
X18294463Y-14457117D01*
X18234448Y-14312228D01*
X18203852Y-14158414D01*
X18203852Y-14001586D01*
X18234448Y-13847772D01*
X18294463Y-13702883D01*
X18381592Y-13572485D01*
X18492485Y-13461592D01*
X18622883Y-13374463D01*
X18767772Y-13314448D01*
X18921586Y-13283852D01*
X19078414Y-13283852D01*
X19232228Y-13314448D01*
G37*
G36*
X6900000Y-10900000D02*
G01*
X5100000Y-10900000D01*
X5100000Y-9100000D01*
X6900000Y-9100000D01*
X6900000Y-10900000D01*
G37*
G36*
X26900000Y-10900000D02*
G01*
X25100000Y-10900000D01*
X25100000Y-9100000D01*
X26900000Y-9100000D01*
X26900000Y-10900000D01*
G37*
G36*
X3721256Y-9138754D02*
G01*
X3884257Y-9206271D01*
X4030954Y-9304291D01*
X4155709Y-9429046D01*
X4253729Y-9575743D01*
X4321246Y-9738744D01*
X4355666Y-9911785D01*
X4355666Y-10088215D01*
X4321246Y-10261256D01*
X4253729Y-10424257D01*
X4155709Y-10570954D01*
X4030954Y-10695709D01*
X3884257Y-10793729D01*
X3721256Y-10861246D01*
X3548215Y-10895666D01*
X3371785Y-10895666D01*
X3198744Y-10861246D01*
X3035743Y-10793729D01*
X2889046Y-10695709D01*
X2764291Y-10570954D01*
X2666271Y-10424257D01*
X2598754Y-10261256D01*
X2564334Y-10088215D01*
X2564334Y-9911785D01*
X2598754Y-9738744D01*
X2666271Y-9575743D01*
X2764291Y-9429046D01*
X2889046Y-9304291D01*
X3035743Y-9206271D01*
X3198744Y-9138754D01*
X3371785Y-9104334D01*
X3548215Y-9104334D01*
X3721256Y-9138754D01*
G37*
G36*
X23721256Y-9138754D02*
G01*
X23884257Y-9206271D01*
X24030954Y-9304291D01*
X24155709Y-9429046D01*
X24253729Y-9575743D01*
X24321246Y-9738744D01*
X24355666Y-9911785D01*
X24355666Y-10088215D01*
X24321246Y-10261256D01*
X24253729Y-10424257D01*
X24155709Y-10570954D01*
X24030954Y-10695709D01*
X23884257Y-10793729D01*
X23721256Y-10861246D01*
X23548215Y-10895666D01*
X23371785Y-10895666D01*
X23198744Y-10861246D01*
X23035743Y-10793729D01*
X22889046Y-10695709D01*
X22764291Y-10570954D01*
X22666271Y-10424257D01*
X22598754Y-10261256D01*
X22564334Y-10088215D01*
X22564334Y-9911785D01*
X22598754Y-9738744D01*
X22666271Y-9575743D01*
X22764291Y-9429046D01*
X22889046Y-9304291D01*
X23035743Y-9206271D01*
X23198744Y-9138754D01*
X23371785Y-9104334D01*
X23548215Y-9104334D01*
X23721256Y-9138754D01*
G37*
G36*
X2873513Y-1944208D02*
G01*
X3112293Y-2021793D01*
X3335998Y-2135776D01*
X3539117Y-2283350D01*
X3716650Y-2460883D01*
X3864224Y-2664002D01*
X3978207Y-2887707D01*
X4055792Y-3126487D01*
X4095068Y-3374465D01*
X4095068Y-3625535D01*
X4055792Y-3873513D01*
X3978207Y-4112293D01*
X3864224Y-4335998D01*
X3716650Y-4539117D01*
X3539117Y-4716650D01*
X3335998Y-4864224D01*
X3112293Y-4978207D01*
X2873513Y-5055792D01*
X2625535Y-5095068D01*
X2374465Y-5095068D01*
X2126487Y-5055792D01*
X1887707Y-4978207D01*
X1664002Y-4864224D01*
X1460883Y-4716650D01*
X1283350Y-4539117D01*
X1135776Y-4335998D01*
X1021793Y-4112293D01*
X944208Y-3873513D01*
X904932Y-3625535D01*
X904932Y-3374465D01*
X944208Y-3126487D01*
X1021793Y-2887707D01*
X1135776Y-2664002D01*
X1283350Y-2460883D01*
X1460883Y-2283350D01*
X1664002Y-2135776D01*
X1887707Y-2021793D01*
X2126487Y-1944208D01*
X2374465Y-1904932D01*
X2625535Y-1904932D01*
X2873513Y-1944208D01*
G37*
G36*
X27873513Y-1944208D02*
G01*
X28112293Y-2021793D01*
X28335998Y-2135776D01*
X28539117Y-2283350D01*
X28716650Y-2460883D01*
X28864224Y-2664002D01*
X28978207Y-2887707D01*
X29055792Y-3126487D01*
X29095068Y-3374465D01*
X29095068Y-3625535D01*
X29055792Y-3873513D01*
X28978207Y-4112293D01*
X28864224Y-4335998D01*
X28716650Y-4539117D01*
X28539117Y-4716650D01*
X28335998Y-4864224D01*
X28112293Y-4978207D01*
X27873513Y-5055792D01*
X27625535Y-5095068D01*
X27374465Y-5095068D01*
X27126487Y-5055792D01*
X26887707Y-4978207D01*
X26664002Y-4864224D01*
X26460883Y-4716650D01*
X26283350Y-4539117D01*
X26135776Y-4335998D01*
X26021793Y-4112293D01*
X25944208Y-3873513D01*
X25904932Y-3625535D01*
X25904932Y-3374465D01*
X25944208Y-3126487D01*
X26021793Y-2887707D01*
X26135776Y-2664002D01*
X26283350Y-2460883D01*
X26460883Y-2283350D01*
X26664002Y-2135776D01*
X26887707Y-2021793D01*
X27126487Y-1944208D01*
X27374465Y-1904932D01*
X27625535Y-1904932D01*
X27873513Y-1944208D01*
G37*
G36*
X11232228Y-3154448D02*
G01*
X11377117Y-3214463D01*
X11507515Y-3301592D01*
X11618408Y-3412485D01*
X11705537Y-3542883D01*
X11765552Y-3687772D01*
X11796148Y-3841586D01*
X11796148Y-3998414D01*
X11765552Y-4152228D01*
X11705537Y-4297117D01*
X11618408Y-4427515D01*
X11507515Y-4538408D01*
X11377117Y-4625537D01*
X11232228Y-4685552D01*
X11078414Y-4716148D01*
X10921586Y-4716148D01*
X10767772Y-4685552D01*
X10622883Y-4625537D01*
X10492485Y-4538408D01*
X10381592Y-4427515D01*
X10294463Y-4297117D01*
X10234448Y-4152228D01*
X10203852Y-3998414D01*
X10203852Y-3841586D01*
X10234448Y-3687772D01*
X10294463Y-3542883D01*
X10381592Y-3412485D01*
X10492485Y-3301592D01*
X10622883Y-3214463D01*
X10767772Y-3154448D01*
X10921586Y-3123852D01*
X11078414Y-3123852D01*
X11232228Y-3154448D01*
G37*
G36*
X15232228Y-3154448D02*
G01*
X15377117Y-3214463D01*
X15507515Y-3301592D01*
X15618408Y-3412485D01*
X15705537Y-3542883D01*
X15765552Y-3687772D01*
X15796148Y-3841586D01*
X15796148Y-3998414D01*
X15765552Y-4152228D01*
X15705537Y-4297117D01*
X15618408Y-4427515D01*
X15507515Y-4538408D01*
X15377117Y-4625537D01*
X15232228Y-4685552D01*
X15078414Y-4716148D01*
X14921586Y-4716148D01*
X14767772Y-4685552D01*
X14622883Y-4625537D01*
X14492485Y-4538408D01*
X14381592Y-4427515D01*
X14294463Y-4297117D01*
X14234448Y-4152228D01*
X14203852Y-3998414D01*
X14203852Y-3841586D01*
X14234448Y-3687772D01*
X14294463Y-3542883D01*
X14381592Y-3412485D01*
X14492485Y-3301592D01*
X14622883Y-3214463D01*
X14767772Y-3154448D01*
X14921586Y-3123852D01*
X15078414Y-3123852D01*
X15232228Y-3154448D01*
G37*
G36*
X19232228Y-3154448D02*
G01*
X19377117Y-3214463D01*
X19507515Y-3301592D01*
X19618408Y-3412485D01*
X19705537Y-3542883D01*
X19765552Y-3687772D01*
X19796148Y-3841586D01*
X19796148Y-3998414D01*
X19765552Y-4152228D01*
X19705537Y-4297117D01*
X19618408Y-4427515D01*
X19507515Y-4538408D01*
X19377117Y-4625537D01*
X19232228Y-4685552D01*
X19078414Y-4716148D01*
X18921586Y-4716148D01*
X18767772Y-4685552D01*
X18622883Y-4625537D01*
X18492485Y-4538408D01*
X18381592Y-4427515D01*
X18294463Y-4297117D01*
X18234448Y-4152228D01*
X18203852Y-3998414D01*
X18203852Y-3841586D01*
X18234448Y-3687772D01*
X18294463Y-3542883D01*
X18381592Y-3412485D01*
X18492485Y-3301592D01*
X18622883Y-3214463D01*
X18767772Y-3154448D01*
X18921586Y-3123852D01*
X19078414Y-3123852D01*
X19232228Y-3154448D01*
G37*
M02*
