G04 #@! TF.GenerationSoftware,KiCad,Pcbnew,10.0.0*
G04 #@! TF.CreationDate,2026-04-06T16:15:09-07:00*
G04 #@! TF.ProjectId,ledalarm,6c656461-6c61-4726-9d2e-6b696361645f,rev?*
G04 #@! TF.SameCoordinates,Original*
G04 #@! TF.FileFunction,Copper,L4,Bot*
G04 #@! TF.FilePolarity,Positive*
%FSLAX46Y46*%
G04 Gerber Fmt 4.6, Leading zero omitted, Abs format (unit mm)*
G04 Created by KiCad (PCBNEW 10.0.0) date 2026-04-06 16:15:09*
%MOMM*%
%LPD*%
G01*
G04 APERTURE LIST*
G04 Aperture macros list*
%AMRoundRect*
0 Rectangle with rounded corners*
0 $1 Rounding radius*
0 $2 $3 $4 $5 $6 $7 $8 $9 X,Y pos of 4 corners*
0 Add a 4 corners polygon primitive as box body*
4,1,4,$2,$3,$4,$5,$6,$7,$8,$9,$2,$3,0*
0 Add four circle primitives for the rounded corners*
1,1,$1+$1,$2,$3*
1,1,$1+$1,$4,$5*
1,1,$1+$1,$6,$7*
1,1,$1+$1,$8,$9*
0 Add four rect primitives between the rounded corners*
20,1,$1+$1,$2,$3,$4,$5,0*
20,1,$1+$1,$4,$5,$6,$7,0*
20,1,$1+$1,$6,$7,$8,$9,0*
20,1,$1+$1,$8,$9,$2,$3,0*%
G04 Aperture macros list end*
G04 #@! TA.AperFunction,ComponentPad*
%ADD10R,1.800000X1.800000*%
G04 #@! TD*
G04 #@! TA.AperFunction,ComponentPad*
%ADD11C,1.800000*%
G04 #@! TD*
G04 #@! TA.AperFunction,ComponentPad*
%ADD12C,1.600000*%
G04 #@! TD*
G04 #@! TA.AperFunction,ComponentPad*
%ADD13O,1.950000X1.700000*%
G04 #@! TD*
G04 #@! TA.AperFunction,ComponentPad*
%ADD14RoundRect,0.250000X-0.725000X0.600000X-0.725000X-0.600000X0.725000X-0.600000X0.725000X0.600000X0*%
G04 #@! TD*
G04 #@! TA.AperFunction,Conductor*
%ADD15C,0.600000*%
G04 #@! TD*
G04 APERTURE END LIST*
D10*
X26000000Y-25000000D03*
D11*
X23460000Y-25000000D03*
D12*
X19000000Y-3920000D03*
X19000000Y-14080000D03*
X11000000Y-3920000D03*
X11000000Y-14080000D03*
X15000000Y-3920000D03*
X15000000Y-14080000D03*
D10*
X26000000Y-10000000D03*
D11*
X23460000Y-10000000D03*
D10*
X26000000Y-40000000D03*
D11*
X23460000Y-40000000D03*
X3460000Y-40000000D03*
D10*
X6000000Y-40000000D03*
X6000000Y-10000000D03*
D11*
X3460000Y-10000000D03*
D12*
X11000000Y-37920000D03*
X11000000Y-48080000D03*
X15000000Y-48080000D03*
X15000000Y-37920000D03*
D13*
X16000000Y-33500000D03*
X16000000Y-31000000D03*
X16000000Y-28500000D03*
X16000000Y-26000000D03*
X16000000Y-23500000D03*
X16000000Y-21000000D03*
D14*
X16000000Y-18500000D03*
D12*
X19000000Y-48080000D03*
X19000000Y-37920000D03*
D10*
X6000000Y-25000000D03*
D11*
X3460000Y-25000000D03*
D15*
X15000000Y-4000000D02*
X15000000Y-6000000D01*
X15000000Y-6000000D02*
X23460000Y-14460000D01*
X23460000Y-14460000D02*
X23460000Y-25000000D01*
X3460000Y-25000000D02*
X3460000Y-33460000D01*
X3460000Y-33460000D02*
X15000000Y-45000000D01*
X15000000Y-45000000D02*
X15000000Y-48080000D01*
X11000000Y-14080000D02*
X14920000Y-14080000D01*
X14920000Y-14080000D02*
X15000000Y-14160000D01*
X15000000Y-14080000D02*
X15000000Y-14160000D01*
X15000000Y-37920000D02*
X11080000Y-34000000D01*
X14840000Y-14160000D02*
X11000000Y-18000000D01*
X16000000Y-34000000D02*
X16000000Y-36920000D01*
X15000000Y-37920000D02*
X11000000Y-37920000D01*
X15000000Y-14160000D02*
X18920000Y-14160000D01*
X11080000Y-34000000D02*
X11000000Y-34000000D01*
X19000000Y-37920000D02*
X15000000Y-37920000D01*
X16000000Y-36920000D02*
X15000000Y-37920000D01*
X15000000Y-14160000D02*
X14840000Y-14160000D01*
X18920000Y-14160000D02*
X19000000Y-14080000D01*
X11000000Y-34000000D02*
X11000000Y-18000000D01*
G04 #@! TA.AperFunction,Conductor*
G36*
X30442539Y-520185D02*
G01*
X30488294Y-572989D01*
X30499500Y-624500D01*
X30499500Y-51375500D01*
X30479815Y-51442539D01*
X30427011Y-51488294D01*
X30375500Y-51499500D01*
X-375500Y-51499500D01*
X-442539Y-51479815D01*
X-488294Y-51427011D01*
X-499500Y-51375500D01*
X-499500Y-47878711D01*
X649500Y-47878711D01*
X649500Y-48121288D01*
X681161Y-48361785D01*
X743947Y-48596104D01*
X836773Y-48820205D01*
X836776Y-48820212D01*
X958064Y-49030289D01*
X958066Y-49030292D01*
X958067Y-49030293D01*
X1105733Y-49222736D01*
X1105739Y-49222743D01*
X1277256Y-49394260D01*
X1277262Y-49394265D01*
X1469711Y-49541936D01*
X1679788Y-49663224D01*
X1903900Y-49756054D01*
X2138211Y-49818838D01*
X2318586Y-49842584D01*
X2378711Y-49850500D01*
X2378712Y-49850500D01*
X2621289Y-49850500D01*
X2669388Y-49844167D01*
X2861789Y-49818838D01*
X3096100Y-49756054D01*
X3320212Y-49663224D01*
X3530289Y-49541936D01*
X3722738Y-49394265D01*
X3894265Y-49222738D01*
X4041936Y-49030289D01*
X4163224Y-48820212D01*
X4256054Y-48596100D01*
X4318838Y-48361789D01*
X4350500Y-48121288D01*
X4350500Y-47977648D01*
X9699500Y-47977648D01*
X9699500Y-48182351D01*
X9731522Y-48384534D01*
X9794781Y-48579223D01*
X9887715Y-48761613D01*
X10008028Y-48927213D01*
X10152786Y-49071971D01*
X10307749Y-49184556D01*
X10318390Y-49192287D01*
X10434607Y-49251503D01*
X10500776Y-49285218D01*
X10500778Y-49285218D01*
X10500781Y-49285220D01*
X10605137Y-49319127D01*
X10695465Y-49348477D01*
X10796557Y-49364488D01*
X10897648Y-49380500D01*
X10897649Y-49380500D01*
X11102351Y-49380500D01*
X11102352Y-49380500D01*
X11304534Y-49348477D01*
X11499219Y-49285220D01*
X11681610Y-49192287D01*
X11813996Y-49096104D01*
X11847213Y-49071971D01*
X11847215Y-49071968D01*
X11847219Y-49071966D01*
X11991966Y-48927219D01*
X11991968Y-48927215D01*
X11991971Y-48927213D01*
X12069709Y-48820214D01*
X12112287Y-48761610D01*
X12205220Y-48579219D01*
X12268477Y-48384534D01*
X12300500Y-48182352D01*
X12300500Y-47977648D01*
X12288819Y-47903900D01*
X12268477Y-47775465D01*
X12205218Y-47580776D01*
X12115094Y-47403900D01*
X12112287Y-47398390D01*
X12104556Y-47387749D01*
X11991971Y-47232786D01*
X11847213Y-47088028D01*
X11681613Y-46967715D01*
X11681612Y-46967714D01*
X11681610Y-46967713D01*
X11624653Y-46938691D01*
X11499223Y-46874781D01*
X11304534Y-46811522D01*
X11129995Y-46783878D01*
X11102352Y-46779500D01*
X10897648Y-46779500D01*
X10873329Y-46783351D01*
X10695465Y-46811522D01*
X10500776Y-46874781D01*
X10318386Y-46967715D01*
X10152786Y-47088028D01*
X10008028Y-47232786D01*
X9887715Y-47398386D01*
X9794781Y-47580776D01*
X9731522Y-47775465D01*
X9699500Y-47977648D01*
X4350500Y-47977648D01*
X4350500Y-47878712D01*
X4318838Y-47638211D01*
X4256054Y-47403900D01*
X4163224Y-47179788D01*
X4041936Y-46969711D01*
X3920554Y-46811522D01*
X3894266Y-46777263D01*
X3894260Y-46777256D01*
X3722743Y-46605739D01*
X3722736Y-46605733D01*
X3530293Y-46458067D01*
X3530292Y-46458066D01*
X3530289Y-46458064D01*
X3320212Y-46336776D01*
X3320205Y-46336773D01*
X3096104Y-46243947D01*
X2861785Y-46181161D01*
X2621289Y-46149500D01*
X2621288Y-46149500D01*
X2378712Y-46149500D01*
X2378711Y-46149500D01*
X2138214Y-46181161D01*
X1903895Y-46243947D01*
X1679794Y-46336773D01*
X1679785Y-46336777D01*
X1469706Y-46458067D01*
X1277263Y-46605733D01*
X1277256Y-46605739D01*
X1105739Y-46777256D01*
X1105733Y-46777263D01*
X958067Y-46969706D01*
X836777Y-47179785D01*
X836773Y-47179794D01*
X743947Y-47403895D01*
X681161Y-47638214D01*
X649500Y-47878711D01*
X-499500Y-47878711D01*
X-499500Y-39889778D01*
X2059500Y-39889778D01*
X2059500Y-40110221D01*
X2093985Y-40327952D01*
X2162103Y-40537603D01*
X2162104Y-40537606D01*
X2262187Y-40734025D01*
X2391752Y-40912358D01*
X2391756Y-40912363D01*
X2547636Y-41068243D01*
X2547641Y-41068247D01*
X2649606Y-41142328D01*
X2725978Y-41197815D01*
X2854375Y-41263237D01*
X2922393Y-41297895D01*
X2922396Y-41297896D01*
X3027221Y-41331955D01*
X3132049Y-41366015D01*
X3349778Y-41400500D01*
X3349779Y-41400500D01*
X3570221Y-41400500D01*
X3570222Y-41400500D01*
X3787951Y-41366015D01*
X3997606Y-41297895D01*
X4194022Y-41197815D01*
X4372365Y-41068242D01*
X4422536Y-41018070D01*
X4483857Y-40984586D01*
X4553548Y-40989570D01*
X4609482Y-41031441D01*
X4626398Y-41062419D01*
X4656202Y-41142328D01*
X4656206Y-41142335D01*
X4742452Y-41257544D01*
X4742455Y-41257547D01*
X4857664Y-41343793D01*
X4857671Y-41343797D01*
X4992517Y-41394091D01*
X4992516Y-41394091D01*
X4999444Y-41394835D01*
X5052127Y-41400500D01*
X6947872Y-41400499D01*
X7007483Y-41394091D01*
X7142331Y-41343796D01*
X7257546Y-41257546D01*
X7343796Y-41142331D01*
X7394091Y-41007483D01*
X7400500Y-40947873D01*
X7400499Y-39052128D01*
X7394091Y-38992517D01*
X7373601Y-38937581D01*
X7343797Y-38857671D01*
X7343793Y-38857664D01*
X7257547Y-38742455D01*
X7257544Y-38742452D01*
X7142335Y-38656206D01*
X7142328Y-38656202D01*
X7007482Y-38605908D01*
X7007483Y-38605908D01*
X6947883Y-38599501D01*
X6947881Y-38599500D01*
X6947873Y-38599500D01*
X6947864Y-38599500D01*
X5052129Y-38599500D01*
X5052123Y-38599501D01*
X4992516Y-38605908D01*
X4857671Y-38656202D01*
X4857664Y-38656206D01*
X4742455Y-38742452D01*
X4742452Y-38742455D01*
X4656206Y-38857664D01*
X4656203Y-38857669D01*
X4626398Y-38937581D01*
X4584526Y-38993514D01*
X4519062Y-39017931D01*
X4450789Y-39003079D01*
X4422535Y-38981928D01*
X4372363Y-38931756D01*
X4372358Y-38931752D01*
X4194025Y-38802187D01*
X4194024Y-38802186D01*
X4194022Y-38802185D01*
X4076791Y-38742452D01*
X3997606Y-38702104D01*
X3997603Y-38702103D01*
X3787952Y-38633985D01*
X3679086Y-38616742D01*
X3570222Y-38599500D01*
X3349778Y-38599500D01*
X3277201Y-38610995D01*
X3132047Y-38633985D01*
X2922396Y-38702103D01*
X2922393Y-38702104D01*
X2725974Y-38802187D01*
X2547641Y-38931752D01*
X2547636Y-38931756D01*
X2391756Y-39087636D01*
X2391752Y-39087641D01*
X2262187Y-39265974D01*
X2162104Y-39462393D01*
X2162103Y-39462396D01*
X2093985Y-39672047D01*
X2059500Y-39889778D01*
X-499500Y-39889778D01*
X-499500Y-24889778D01*
X2059500Y-24889778D01*
X2059500Y-25110222D01*
X2076742Y-25219086D01*
X2093985Y-25327952D01*
X2162103Y-25537603D01*
X2162104Y-25537606D01*
X2230122Y-25671096D01*
X2236573Y-25683757D01*
X2262187Y-25734025D01*
X2391752Y-25912358D01*
X2391756Y-25912363D01*
X2547638Y-26068245D01*
X2608384Y-26112378D01*
X2651050Y-26167707D01*
X2659500Y-26212697D01*
X2659500Y-33538846D01*
X2690261Y-33693489D01*
X2690264Y-33693501D01*
X2750602Y-33839172D01*
X2750609Y-33839185D01*
X2838210Y-33970288D01*
X2838213Y-33970292D01*
X14163181Y-45295259D01*
X14196666Y-45356582D01*
X14199500Y-45382940D01*
X14199500Y-46990966D01*
X14179815Y-47058005D01*
X14156046Y-47085244D01*
X14152784Y-47088030D01*
X14008028Y-47232786D01*
X13887715Y-47398386D01*
X13794781Y-47580776D01*
X13731522Y-47775465D01*
X13699500Y-47977648D01*
X13699500Y-48182351D01*
X13731522Y-48384534D01*
X13794781Y-48579223D01*
X13887715Y-48761613D01*
X14008028Y-48927213D01*
X14152786Y-49071971D01*
X14307749Y-49184556D01*
X14318390Y-49192287D01*
X14434607Y-49251503D01*
X14500776Y-49285218D01*
X14500778Y-49285218D01*
X14500781Y-49285220D01*
X14605137Y-49319127D01*
X14695465Y-49348477D01*
X14796557Y-49364488D01*
X14897648Y-49380500D01*
X14897649Y-49380500D01*
X15102351Y-49380500D01*
X15102352Y-49380500D01*
X15304534Y-49348477D01*
X15499219Y-49285220D01*
X15681610Y-49192287D01*
X15813996Y-49096104D01*
X15847213Y-49071971D01*
X15847215Y-49071968D01*
X15847219Y-49071966D01*
X15991966Y-48927219D01*
X15991968Y-48927215D01*
X15991971Y-48927213D01*
X16069709Y-48820214D01*
X16112287Y-48761610D01*
X16205220Y-48579219D01*
X16268477Y-48384534D01*
X16300500Y-48182352D01*
X16300500Y-47977648D01*
X17699500Y-47977648D01*
X17699500Y-48182351D01*
X17731522Y-48384534D01*
X17794781Y-48579223D01*
X17887715Y-48761613D01*
X18008028Y-48927213D01*
X18152786Y-49071971D01*
X18307749Y-49184556D01*
X18318390Y-49192287D01*
X18434607Y-49251503D01*
X18500776Y-49285218D01*
X18500778Y-49285218D01*
X18500781Y-49285220D01*
X18605137Y-49319127D01*
X18695465Y-49348477D01*
X18796557Y-49364488D01*
X18897648Y-49380500D01*
X18897649Y-49380500D01*
X19102351Y-49380500D01*
X19102352Y-49380500D01*
X19304534Y-49348477D01*
X19499219Y-49285220D01*
X19681610Y-49192287D01*
X19813996Y-49096104D01*
X19847213Y-49071971D01*
X19847215Y-49071968D01*
X19847219Y-49071966D01*
X19991966Y-48927219D01*
X19991968Y-48927215D01*
X19991971Y-48927213D01*
X20069709Y-48820214D01*
X20112287Y-48761610D01*
X20205220Y-48579219D01*
X20268477Y-48384534D01*
X20269399Y-48378711D01*
X25649500Y-48378711D01*
X25649500Y-48621288D01*
X25681161Y-48861785D01*
X25743947Y-49096104D01*
X25796400Y-49222736D01*
X25836776Y-49320212D01*
X25958064Y-49530289D01*
X25958066Y-49530292D01*
X25958067Y-49530293D01*
X26105733Y-49722736D01*
X26105739Y-49722743D01*
X26277256Y-49894260D01*
X26277262Y-49894265D01*
X26469711Y-50041936D01*
X26679788Y-50163224D01*
X26903900Y-50256054D01*
X27138211Y-50318838D01*
X27318586Y-50342584D01*
X27378711Y-50350500D01*
X27378712Y-50350500D01*
X27621289Y-50350500D01*
X27669388Y-50344167D01*
X27861789Y-50318838D01*
X28096100Y-50256054D01*
X28320212Y-50163224D01*
X28530289Y-50041936D01*
X28722738Y-49894265D01*
X28894265Y-49722738D01*
X29041936Y-49530289D01*
X29163224Y-49320212D01*
X29256054Y-49096100D01*
X29318838Y-48861789D01*
X29350500Y-48621288D01*
X29350500Y-48378712D01*
X29318838Y-48138211D01*
X29256054Y-47903900D01*
X29163224Y-47679788D01*
X29041936Y-47469711D01*
X28894265Y-47277262D01*
X28894260Y-47277256D01*
X28722743Y-47105739D01*
X28722736Y-47105733D01*
X28530293Y-46958067D01*
X28530292Y-46958066D01*
X28530289Y-46958064D01*
X28320212Y-46836776D01*
X28259246Y-46811523D01*
X28096104Y-46743947D01*
X27861785Y-46681161D01*
X27621289Y-46649500D01*
X27621288Y-46649500D01*
X27378712Y-46649500D01*
X27378711Y-46649500D01*
X27138214Y-46681161D01*
X26903895Y-46743947D01*
X26679794Y-46836773D01*
X26679785Y-46836777D01*
X26469706Y-46958067D01*
X26277263Y-47105733D01*
X26277256Y-47105739D01*
X26105739Y-47277256D01*
X26105733Y-47277263D01*
X25958067Y-47469706D01*
X25836777Y-47679785D01*
X25836773Y-47679794D01*
X25743947Y-47903895D01*
X25681161Y-48138214D01*
X25649500Y-48378711D01*
X20269399Y-48378711D01*
X20300500Y-48182352D01*
X20300500Y-47977648D01*
X20288819Y-47903900D01*
X20268477Y-47775465D01*
X20205218Y-47580776D01*
X20115094Y-47403900D01*
X20112287Y-47398390D01*
X20104556Y-47387749D01*
X19991971Y-47232786D01*
X19847213Y-47088028D01*
X19681613Y-46967715D01*
X19681612Y-46967714D01*
X19681610Y-46967713D01*
X19624653Y-46938691D01*
X19499223Y-46874781D01*
X19304534Y-46811522D01*
X19129995Y-46783878D01*
X19102352Y-46779500D01*
X18897648Y-46779500D01*
X18873329Y-46783351D01*
X18695465Y-46811522D01*
X18500776Y-46874781D01*
X18318386Y-46967715D01*
X18152786Y-47088028D01*
X18008028Y-47232786D01*
X17887715Y-47398386D01*
X17794781Y-47580776D01*
X17731522Y-47775465D01*
X17699500Y-47977648D01*
X16300500Y-47977648D01*
X16288819Y-47903900D01*
X16268477Y-47775465D01*
X16205218Y-47580776D01*
X16115094Y-47403900D01*
X16112287Y-47398390D01*
X16104556Y-47387749D01*
X15991971Y-47232786D01*
X15847215Y-47088030D01*
X15843954Y-47085244D01*
X15805770Y-47026731D01*
X15800500Y-46990966D01*
X15800500Y-44921157D01*
X15800499Y-44921153D01*
X15769739Y-44766510D01*
X15769738Y-44766503D01*
X15709394Y-44620821D01*
X15709392Y-44620818D01*
X15709390Y-44620814D01*
X15621789Y-44489711D01*
X15621786Y-44489707D01*
X11104665Y-39972587D01*
X11021856Y-39889778D01*
X22059500Y-39889778D01*
X22059500Y-40110221D01*
X22093985Y-40327952D01*
X22162103Y-40537603D01*
X22162104Y-40537606D01*
X22262187Y-40734025D01*
X22391752Y-40912358D01*
X22391756Y-40912363D01*
X22547636Y-41068243D01*
X22547641Y-41068247D01*
X22649606Y-41142328D01*
X22725978Y-41197815D01*
X22854375Y-41263237D01*
X22922393Y-41297895D01*
X22922396Y-41297896D01*
X23027221Y-41331955D01*
X23132049Y-41366015D01*
X23349778Y-41400500D01*
X23349779Y-41400500D01*
X23570221Y-41400500D01*
X23570222Y-41400500D01*
X23787951Y-41366015D01*
X23997606Y-41297895D01*
X24194022Y-41197815D01*
X24372365Y-41068242D01*
X24422536Y-41018070D01*
X24483857Y-40984586D01*
X24553548Y-40989570D01*
X24609482Y-41031441D01*
X24626398Y-41062419D01*
X24656202Y-41142328D01*
X24656206Y-41142335D01*
X24742452Y-41257544D01*
X24742455Y-41257547D01*
X24857664Y-41343793D01*
X24857671Y-41343797D01*
X24992517Y-41394091D01*
X24992516Y-41394091D01*
X24999444Y-41394835D01*
X25052127Y-41400500D01*
X26947872Y-41400499D01*
X27007483Y-41394091D01*
X27142331Y-41343796D01*
X27257546Y-41257546D01*
X27343796Y-41142331D01*
X27394091Y-41007483D01*
X27400500Y-40947873D01*
X27400499Y-39052128D01*
X27394091Y-38992517D01*
X27373601Y-38937581D01*
X27343797Y-38857671D01*
X27343793Y-38857664D01*
X27257547Y-38742455D01*
X27257544Y-38742452D01*
X27142335Y-38656206D01*
X27142328Y-38656202D01*
X27007482Y-38605908D01*
X27007483Y-38605908D01*
X26947883Y-38599501D01*
X26947881Y-38599500D01*
X26947873Y-38599500D01*
X26947864Y-38599500D01*
X25052129Y-38599500D01*
X25052123Y-38599501D01*
X24992516Y-38605908D01*
X24857671Y-38656202D01*
X24857664Y-38656206D01*
X24742455Y-38742452D01*
X24742452Y-38742455D01*
X24656206Y-38857664D01*
X24656203Y-38857669D01*
X24626398Y-38937581D01*
X24584526Y-38993514D01*
X24519062Y-39017931D01*
X24450789Y-39003079D01*
X24422535Y-38981928D01*
X24372363Y-38931756D01*
X24372358Y-38931752D01*
X24194025Y-38802187D01*
X24194024Y-38802186D01*
X24194022Y-38802185D01*
X24076791Y-38742452D01*
X23997606Y-38702104D01*
X23997603Y-38702103D01*
X23787952Y-38633985D01*
X23679086Y-38616742D01*
X23570222Y-38599500D01*
X23349778Y-38599500D01*
X23277201Y-38610995D01*
X23132047Y-38633985D01*
X22922396Y-38702103D01*
X22922393Y-38702104D01*
X22725974Y-38802187D01*
X22547641Y-38931752D01*
X22547636Y-38931756D01*
X22391756Y-39087636D01*
X22391752Y-39087641D01*
X22262187Y-39265974D01*
X22162104Y-39462393D01*
X22162103Y-39462396D01*
X22093985Y-39672047D01*
X22059500Y-39889778D01*
X11021856Y-39889778D01*
X10504549Y-39372471D01*
X10471064Y-39311148D01*
X10476048Y-39241456D01*
X10517920Y-39185523D01*
X10583384Y-39161106D01*
X10630549Y-39166859D01*
X10695582Y-39187990D01*
X10897683Y-39220000D01*
X11102317Y-39220000D01*
X11304417Y-39187990D01*
X11499031Y-39124755D01*
X11681349Y-39031859D01*
X11725921Y-38999474D01*
X11046446Y-38320000D01*
X11052661Y-38320000D01*
X11154394Y-38292741D01*
X11245606Y-38240080D01*
X11320080Y-38165606D01*
X11372741Y-38074394D01*
X11400000Y-37972661D01*
X11400000Y-37966447D01*
X12079474Y-38645921D01*
X12111859Y-38601349D01*
X12204755Y-38419031D01*
X12267990Y-38224417D01*
X12300000Y-38022317D01*
X12300000Y-37817682D01*
X13700000Y-37817682D01*
X13700000Y-38022317D01*
X13732009Y-38224417D01*
X13795244Y-38419031D01*
X13888141Y-38601350D01*
X13888147Y-38601359D01*
X13920523Y-38645921D01*
X13920524Y-38645922D01*
X14600000Y-37966446D01*
X14600000Y-37972661D01*
X14627259Y-38074394D01*
X14679920Y-38165606D01*
X14754394Y-38240080D01*
X14845606Y-38292741D01*
X14947339Y-38320000D01*
X14953553Y-38320000D01*
X14274076Y-38999474D01*
X14318650Y-39031859D01*
X14500968Y-39124755D01*
X14695582Y-39187990D01*
X14897683Y-39220000D01*
X15102317Y-39220000D01*
X15304417Y-39187990D01*
X15499031Y-39124755D01*
X15681349Y-39031859D01*
X15725921Y-38999474D01*
X15046447Y-38320000D01*
X15052661Y-38320000D01*
X15154394Y-38292741D01*
X15245606Y-38240080D01*
X15320080Y-38165606D01*
X15372741Y-38074394D01*
X15400000Y-37972661D01*
X15400000Y-37966448D01*
X16079474Y-38645922D01*
X16079474Y-38645921D01*
X16111859Y-38601349D01*
X16204755Y-38419031D01*
X16267990Y-38224417D01*
X16300000Y-38022317D01*
X16300000Y-37817682D01*
X17700000Y-37817682D01*
X17700000Y-38022317D01*
X17732009Y-38224417D01*
X17795244Y-38419031D01*
X17888141Y-38601350D01*
X17888147Y-38601359D01*
X17920523Y-38645921D01*
X17920524Y-38645922D01*
X18600000Y-37966446D01*
X18600000Y-37972661D01*
X18627259Y-38074394D01*
X18679920Y-38165606D01*
X18754394Y-38240080D01*
X18845606Y-38292741D01*
X18947339Y-38320000D01*
X18953553Y-38320000D01*
X18274076Y-38999474D01*
X18318650Y-39031859D01*
X18500968Y-39124755D01*
X18695582Y-39187990D01*
X18897683Y-39220000D01*
X19102317Y-39220000D01*
X19304417Y-39187990D01*
X19499031Y-39124755D01*
X19681349Y-39031859D01*
X19725921Y-38999474D01*
X19046447Y-38320000D01*
X19052661Y-38320000D01*
X19154394Y-38292741D01*
X19245606Y-38240080D01*
X19320080Y-38165606D01*
X19372741Y-38074394D01*
X19400000Y-37972661D01*
X19400000Y-37966447D01*
X20079474Y-38645921D01*
X20111859Y-38601349D01*
X20204755Y-38419031D01*
X20267990Y-38224417D01*
X20300000Y-38022317D01*
X20300000Y-37817682D01*
X20267990Y-37615582D01*
X20204755Y-37420968D01*
X20111859Y-37238650D01*
X20079474Y-37194077D01*
X20079474Y-37194076D01*
X19400000Y-37873551D01*
X19400000Y-37867339D01*
X19372741Y-37765606D01*
X19320080Y-37674394D01*
X19245606Y-37599920D01*
X19154394Y-37547259D01*
X19052661Y-37520000D01*
X19046446Y-37520000D01*
X19725922Y-36840524D01*
X19725921Y-36840523D01*
X19681359Y-36808147D01*
X19681350Y-36808141D01*
X19499031Y-36715244D01*
X19304417Y-36652009D01*
X19102317Y-36620000D01*
X18897683Y-36620000D01*
X18695582Y-36652009D01*
X18500968Y-36715244D01*
X18318644Y-36808143D01*
X18274077Y-36840523D01*
X18274077Y-36840524D01*
X18953554Y-37520000D01*
X18947339Y-37520000D01*
X18845606Y-37547259D01*
X18754394Y-37599920D01*
X18679920Y-37674394D01*
X18627259Y-37765606D01*
X18600000Y-37867339D01*
X18600000Y-37873553D01*
X17920524Y-37194077D01*
X17920523Y-37194077D01*
X17888143Y-37238644D01*
X17795244Y-37420968D01*
X17732009Y-37615582D01*
X17700000Y-37817682D01*
X16300000Y-37817682D01*
X16267990Y-37615582D01*
X16204755Y-37420968D01*
X16111859Y-37238650D01*
X16079474Y-37194077D01*
X16079474Y-37194076D01*
X15400000Y-37873551D01*
X15400000Y-37867339D01*
X15372741Y-37765606D01*
X15320080Y-37674394D01*
X15245606Y-37599920D01*
X15154394Y-37547259D01*
X15052661Y-37520000D01*
X15046446Y-37520000D01*
X15725922Y-36840524D01*
X15725921Y-36840523D01*
X15681359Y-36808147D01*
X15681350Y-36808141D01*
X15499031Y-36715244D01*
X15304417Y-36652009D01*
X15102317Y-36620000D01*
X14897683Y-36620000D01*
X14695582Y-36652009D01*
X14500968Y-36715244D01*
X14318644Y-36808143D01*
X14274077Y-36840523D01*
X14274077Y-36840524D01*
X14953554Y-37520000D01*
X14947339Y-37520000D01*
X14845606Y-37547259D01*
X14754394Y-37599920D01*
X14679920Y-37674394D01*
X14627259Y-37765606D01*
X14600000Y-37867339D01*
X14600000Y-37873553D01*
X13920524Y-37194077D01*
X13920523Y-37194077D01*
X13888143Y-37238644D01*
X13795244Y-37420968D01*
X13732009Y-37615582D01*
X13700000Y-37817682D01*
X12300000Y-37817682D01*
X12267990Y-37615582D01*
X12204755Y-37420968D01*
X12111859Y-37238650D01*
X12079474Y-37194077D01*
X12079474Y-37194076D01*
X11400000Y-37873551D01*
X11400000Y-37867339D01*
X11372741Y-37765606D01*
X11320080Y-37674394D01*
X11245606Y-37599920D01*
X11154394Y-37547259D01*
X11052661Y-37520000D01*
X11046446Y-37520000D01*
X11725922Y-36840524D01*
X11725921Y-36840523D01*
X11681359Y-36808147D01*
X11681350Y-36808141D01*
X11499031Y-36715244D01*
X11304417Y-36652009D01*
X11102317Y-36620000D01*
X10897683Y-36620000D01*
X10695582Y-36652009D01*
X10500968Y-36715244D01*
X10318644Y-36808143D01*
X10274077Y-36840523D01*
X10274077Y-36840524D01*
X10953554Y-37520000D01*
X10947339Y-37520000D01*
X10845606Y-37547259D01*
X10754394Y-37599920D01*
X10679920Y-37674394D01*
X10627259Y-37765606D01*
X10600000Y-37867339D01*
X10600000Y-37873553D01*
X9920524Y-37194077D01*
X9920523Y-37194077D01*
X9888143Y-37238644D01*
X9795244Y-37420968D01*
X9732009Y-37615582D01*
X9700000Y-37817682D01*
X9700000Y-38022317D01*
X9732010Y-38224418D01*
X9732010Y-38224421D01*
X9753140Y-38289451D01*
X9755135Y-38359292D01*
X9719054Y-38419125D01*
X9656353Y-38449953D01*
X9586939Y-38441988D01*
X9547528Y-38415450D01*
X8107542Y-36975464D01*
X4932696Y-33800617D01*
X4296819Y-33164740D01*
X4263334Y-33103417D01*
X4260500Y-33077059D01*
X4260500Y-26212697D01*
X4280185Y-26145658D01*
X4304154Y-26118249D01*
X4307772Y-26115170D01*
X4372365Y-26068242D01*
X4426072Y-26014534D01*
X4429870Y-26011304D01*
X4457399Y-25999033D01*
X4483857Y-25984586D01*
X4488989Y-25984953D01*
X4493687Y-25982859D01*
X4523481Y-25987419D01*
X4553548Y-25989570D01*
X4557665Y-25992652D01*
X4562752Y-25993431D01*
X4585358Y-26013382D01*
X4609482Y-26031441D01*
X4612888Y-26037680D01*
X4615138Y-26039665D01*
X4616398Y-26044106D01*
X4626398Y-26062419D01*
X4656202Y-26142328D01*
X4656206Y-26142335D01*
X4742452Y-26257544D01*
X4742455Y-26257547D01*
X4857664Y-26343793D01*
X4857671Y-26343797D01*
X4992517Y-26394091D01*
X4992516Y-26394091D01*
X4999444Y-26394835D01*
X5052127Y-26400500D01*
X6947872Y-26400499D01*
X7007483Y-26394091D01*
X7142331Y-26343796D01*
X7257546Y-26257546D01*
X7343796Y-26142331D01*
X7394091Y-26007483D01*
X7400500Y-25947873D01*
X7400499Y-24052128D01*
X7394091Y-23992517D01*
X7392665Y-23988695D01*
X7343797Y-23857671D01*
X7343793Y-23857664D01*
X7257547Y-23742455D01*
X7257544Y-23742452D01*
X7142335Y-23656206D01*
X7142328Y-23656202D01*
X7007482Y-23605908D01*
X7007483Y-23605908D01*
X6947883Y-23599501D01*
X6947881Y-23599500D01*
X6947873Y-23599500D01*
X6947864Y-23599500D01*
X5052129Y-23599500D01*
X5052123Y-23599501D01*
X4992516Y-23605908D01*
X4857671Y-23656202D01*
X4857664Y-23656206D01*
X4742455Y-23742452D01*
X4742452Y-23742455D01*
X4656206Y-23857664D01*
X4656203Y-23857669D01*
X4626398Y-23937581D01*
X4584526Y-23993514D01*
X4519062Y-24017931D01*
X4450789Y-24003079D01*
X4422535Y-23981928D01*
X4372363Y-23931756D01*
X4372358Y-23931752D01*
X4194025Y-23802187D01*
X4194024Y-23802186D01*
X4194022Y-23802185D01*
X4076791Y-23742452D01*
X3997606Y-23702104D01*
X3997603Y-23702103D01*
X3787952Y-23633985D01*
X3613073Y-23606287D01*
X3570222Y-23599500D01*
X3349778Y-23599500D01*
X3306933Y-23606286D01*
X3132047Y-23633985D01*
X2922396Y-23702103D01*
X2922393Y-23702104D01*
X2725974Y-23802187D01*
X2547641Y-23931752D01*
X2547636Y-23931756D01*
X2391756Y-24087636D01*
X2391752Y-24087641D01*
X2262187Y-24265974D01*
X2162104Y-24462393D01*
X2162103Y-24462396D01*
X2093985Y-24672047D01*
X2074513Y-24794989D01*
X2059500Y-24889778D01*
X-499500Y-24889778D01*
X-499500Y-17849983D01*
X14524500Y-17849983D01*
X14524500Y-19150001D01*
X14524501Y-19150018D01*
X14535000Y-19252796D01*
X14535001Y-19252799D01*
X14590185Y-19419331D01*
X14590187Y-19419336D01*
X14682289Y-19568657D01*
X14806344Y-19692712D01*
X14961120Y-19788178D01*
X15007845Y-19840126D01*
X15019068Y-19909088D01*
X14991224Y-19973171D01*
X14983706Y-19981398D01*
X14844889Y-20120215D01*
X14719951Y-20292179D01*
X14623444Y-20481585D01*
X14557753Y-20683760D01*
X14524500Y-20893713D01*
X14524500Y-21106286D01*
X14557753Y-21316239D01*
X14623444Y-21518414D01*
X14719951Y-21707820D01*
X14844890Y-21879786D01*
X14995209Y-22030105D01*
X14995214Y-22030109D01*
X15159793Y-22149682D01*
X15202459Y-22205011D01*
X15208438Y-22274625D01*
X15175833Y-22336420D01*
X15159793Y-22350318D01*
X14995214Y-22469890D01*
X14995209Y-22469894D01*
X14844890Y-22620213D01*
X14719951Y-22792179D01*
X14623444Y-22981585D01*
X14557753Y-23183760D01*
X14524500Y-23393713D01*
X14524500Y-23606286D01*
X14555527Y-23802187D01*
X14557754Y-23816243D01*
X14615029Y-23992517D01*
X14623444Y-24018414D01*
X14719951Y-24207820D01*
X14844890Y-24379786D01*
X14995209Y-24530105D01*
X14995214Y-24530109D01*
X15159793Y-24649682D01*
X15202459Y-24705011D01*
X15208438Y-24774625D01*
X15175833Y-24836420D01*
X15159793Y-24850318D01*
X14995214Y-24969890D01*
X14995209Y-24969894D01*
X14844890Y-25120213D01*
X14719951Y-25292179D01*
X14623444Y-25481585D01*
X14557753Y-25683760D01*
X14549792Y-25734025D01*
X14524500Y-25893713D01*
X14524500Y-26106287D01*
X14557754Y-26316243D01*
X14585130Y-26400498D01*
X14623444Y-26518414D01*
X14719951Y-26707820D01*
X14844890Y-26879786D01*
X14995209Y-27030105D01*
X14995214Y-27030109D01*
X15159793Y-27149682D01*
X15202459Y-27205011D01*
X15208438Y-27274625D01*
X15175833Y-27336420D01*
X15159793Y-27350318D01*
X14995214Y-27469890D01*
X14995209Y-27469894D01*
X14844890Y-27620213D01*
X14719951Y-27792179D01*
X14623444Y-27981585D01*
X14557753Y-28183760D01*
X14524500Y-28393713D01*
X14524500Y-28606286D01*
X14557753Y-28816239D01*
X14623444Y-29018414D01*
X14719951Y-29207820D01*
X14844890Y-29379786D01*
X14995209Y-29530105D01*
X14995214Y-29530109D01*
X15159793Y-29649682D01*
X15202459Y-29705011D01*
X15208438Y-29774625D01*
X15175833Y-29836420D01*
X15159793Y-29850318D01*
X14995214Y-29969890D01*
X14995209Y-29969894D01*
X14844890Y-30120213D01*
X14719951Y-30292179D01*
X14623444Y-30481585D01*
X14557753Y-30683760D01*
X14524500Y-30893713D01*
X14524500Y-31106286D01*
X14557753Y-31316239D01*
X14623444Y-31518414D01*
X14719951Y-31707820D01*
X14844890Y-31879786D01*
X14995209Y-32030105D01*
X14995214Y-32030109D01*
X15160218Y-32149991D01*
X15202884Y-32205320D01*
X15208863Y-32274934D01*
X15176258Y-32336729D01*
X15160218Y-32350627D01*
X14995540Y-32470272D01*
X14995535Y-32470276D01*
X14845276Y-32620535D01*
X14845272Y-32620540D01*
X14720379Y-32792442D01*
X14623904Y-32981782D01*
X14558242Y-33183870D01*
X14558242Y-33183873D01*
X14547769Y-33250000D01*
X15595854Y-33250000D01*
X15557370Y-33316657D01*
X15525000Y-33437465D01*
X15525000Y-33562535D01*
X15557370Y-33683343D01*
X15595854Y-33750000D01*
X14547769Y-33750000D01*
X14558242Y-33816126D01*
X14558242Y-33816129D01*
X14623904Y-34018217D01*
X14720379Y-34207557D01*
X14845272Y-34379459D01*
X14845276Y-34379464D01*
X14995535Y-34529723D01*
X14995540Y-34529727D01*
X15167442Y-34654620D01*
X15356782Y-34751095D01*
X15558872Y-34816757D01*
X15750000Y-34847029D01*
X15750000Y-33904145D01*
X15816657Y-33942630D01*
X15937465Y-33975000D01*
X16062535Y-33975000D01*
X16183343Y-33942630D01*
X16250000Y-33904145D01*
X16250000Y-34847028D01*
X16441127Y-34816757D01*
X16643217Y-34751095D01*
X16832557Y-34654620D01*
X17004459Y-34529727D01*
X17004464Y-34529723D01*
X17154723Y-34379464D01*
X17154727Y-34379459D01*
X17279620Y-34207557D01*
X17376095Y-34018217D01*
X17441757Y-33816129D01*
X17441757Y-33816126D01*
X17452231Y-33750000D01*
X16404146Y-33750000D01*
X16442630Y-33683343D01*
X16475000Y-33562535D01*
X16475000Y-33437465D01*
X16442630Y-33316657D01*
X16404146Y-33250000D01*
X17452231Y-33250000D01*
X17441757Y-33183873D01*
X17441757Y-33183870D01*
X17376095Y-32981782D01*
X17279620Y-32792442D01*
X17154727Y-32620540D01*
X17154723Y-32620535D01*
X17004464Y-32470276D01*
X17004459Y-32470272D01*
X16839781Y-32350627D01*
X16797115Y-32295297D01*
X16791136Y-32225684D01*
X16823741Y-32163889D01*
X16839776Y-32149994D01*
X17004792Y-32030104D01*
X17155104Y-31879792D01*
X17155106Y-31879788D01*
X17155109Y-31879786D01*
X17280048Y-31707820D01*
X17280047Y-31707820D01*
X17280051Y-31707816D01*
X17376557Y-31518412D01*
X17442246Y-31316243D01*
X17475500Y-31106287D01*
X17475500Y-30893713D01*
X17442246Y-30683757D01*
X17376557Y-30481588D01*
X17280051Y-30292184D01*
X17280049Y-30292181D01*
X17280048Y-30292179D01*
X17155109Y-30120213D01*
X17004792Y-29969896D01*
X17004784Y-29969890D01*
X16840204Y-29850316D01*
X16797540Y-29794989D01*
X16791561Y-29725376D01*
X16824166Y-29663580D01*
X16840199Y-29649686D01*
X17004792Y-29530104D01*
X17155104Y-29379792D01*
X17155106Y-29379788D01*
X17155109Y-29379786D01*
X17280048Y-29207820D01*
X17280047Y-29207820D01*
X17280051Y-29207816D01*
X17376557Y-29018412D01*
X17442246Y-28816243D01*
X17475500Y-28606287D01*
X17475500Y-28393713D01*
X17442246Y-28183757D01*
X17376557Y-27981588D01*
X17280051Y-27792184D01*
X17280049Y-27792181D01*
X17280048Y-27792179D01*
X17155109Y-27620213D01*
X17004792Y-27469896D01*
X17004784Y-27469890D01*
X16840204Y-27350316D01*
X16797540Y-27294989D01*
X16791561Y-27225376D01*
X16824166Y-27163580D01*
X16840199Y-27149686D01*
X17004792Y-27030104D01*
X17155104Y-26879792D01*
X17155106Y-26879788D01*
X17155109Y-26879786D01*
X17280048Y-26707820D01*
X17280047Y-26707820D01*
X17280051Y-26707816D01*
X17376557Y-26518412D01*
X17442246Y-26316243D01*
X17475500Y-26106287D01*
X17475500Y-25893713D01*
X17442246Y-25683757D01*
X17376557Y-25481588D01*
X17280051Y-25292184D01*
X17280049Y-25292181D01*
X17280048Y-25292179D01*
X17155109Y-25120213D01*
X17004792Y-24969896D01*
X17004784Y-24969890D01*
X16840204Y-24850316D01*
X16797540Y-24794989D01*
X16791561Y-24725376D01*
X16824166Y-24663580D01*
X16840199Y-24649686D01*
X17004792Y-24530104D01*
X17155104Y-24379792D01*
X17155106Y-24379788D01*
X17155109Y-24379786D01*
X17280048Y-24207820D01*
X17280047Y-24207820D01*
X17280051Y-24207816D01*
X17376557Y-24018412D01*
X17442246Y-23816243D01*
X17475500Y-23606287D01*
X17475500Y-23393713D01*
X17442246Y-23183757D01*
X17376557Y-22981588D01*
X17280051Y-22792184D01*
X17280049Y-22792181D01*
X17280048Y-22792179D01*
X17155109Y-22620213D01*
X17004792Y-22469896D01*
X17004784Y-22469890D01*
X16840204Y-22350316D01*
X16797540Y-22294989D01*
X16791561Y-22225376D01*
X16824166Y-22163580D01*
X16840199Y-22149686D01*
X17004792Y-22030104D01*
X17155104Y-21879792D01*
X17155106Y-21879788D01*
X17155109Y-21879786D01*
X17280048Y-21707820D01*
X17280047Y-21707820D01*
X17280051Y-21707816D01*
X17376557Y-21518412D01*
X17442246Y-21316243D01*
X17475500Y-21106287D01*
X17475500Y-20893713D01*
X17442246Y-20683757D01*
X17376557Y-20481588D01*
X17280051Y-20292184D01*
X17280049Y-20292181D01*
X17280048Y-20292179D01*
X17155109Y-20120213D01*
X17016294Y-19981398D01*
X16982809Y-19920075D01*
X16987793Y-19850383D01*
X17029665Y-19794450D01*
X17038879Y-19788178D01*
X17044331Y-19784814D01*
X17044334Y-19784814D01*
X17193656Y-19692712D01*
X17317712Y-19568656D01*
X17409814Y-19419334D01*
X17464999Y-19252797D01*
X17475500Y-19150009D01*
X17475499Y-17849992D01*
X17464999Y-17747203D01*
X17409814Y-17580666D01*
X17317712Y-17431344D01*
X17193656Y-17307288D01*
X17044334Y-17215186D01*
X16877797Y-17160001D01*
X16877795Y-17160000D01*
X16775010Y-17149500D01*
X15224998Y-17149500D01*
X15224981Y-17149501D01*
X15122203Y-17160000D01*
X15122200Y-17160001D01*
X14955668Y-17215185D01*
X14955663Y-17215187D01*
X14806342Y-17307289D01*
X14682289Y-17431342D01*
X14590187Y-17580663D01*
X14590186Y-17580666D01*
X14535001Y-17747203D01*
X14535001Y-17747204D01*
X14535000Y-17747204D01*
X14524500Y-17849983D01*
X-499500Y-17849983D01*
X-499500Y-13977682D01*
X9700000Y-13977682D01*
X9700000Y-14182317D01*
X9732009Y-14384417D01*
X9795244Y-14579031D01*
X9888141Y-14761350D01*
X9888147Y-14761359D01*
X9920523Y-14805921D01*
X9920524Y-14805922D01*
X10600000Y-14126446D01*
X10600000Y-14132661D01*
X10627259Y-14234394D01*
X10679920Y-14325606D01*
X10754394Y-14400080D01*
X10845606Y-14452741D01*
X10947339Y-14480000D01*
X10953553Y-14480000D01*
X10274076Y-15159474D01*
X10318650Y-15191859D01*
X10500968Y-15284755D01*
X10695582Y-15347990D01*
X10897683Y-15380000D01*
X11102317Y-15380000D01*
X11304417Y-15347990D01*
X11499031Y-15284755D01*
X11681349Y-15191859D01*
X11725921Y-15159474D01*
X11046447Y-14480000D01*
X11052661Y-14480000D01*
X11154394Y-14452741D01*
X11245606Y-14400080D01*
X11320080Y-14325606D01*
X11372741Y-14234394D01*
X11400000Y-14132661D01*
X11400000Y-14126447D01*
X12079474Y-14805921D01*
X12111859Y-14761349D01*
X12204755Y-14579031D01*
X12267990Y-14384417D01*
X12300000Y-14182317D01*
X12300000Y-13977682D01*
X13700000Y-13977682D01*
X13700000Y-14182317D01*
X13732009Y-14384417D01*
X13795244Y-14579031D01*
X13888141Y-14761350D01*
X13888147Y-14761359D01*
X13920523Y-14805921D01*
X13920524Y-14805922D01*
X14600000Y-14126446D01*
X14600000Y-14132661D01*
X14627259Y-14234394D01*
X14679920Y-14325606D01*
X14754394Y-14400080D01*
X14845606Y-14452741D01*
X14947339Y-14480000D01*
X14953553Y-14480000D01*
X14274076Y-15159474D01*
X14318650Y-15191859D01*
X14500968Y-15284755D01*
X14695582Y-15347990D01*
X14897683Y-15380000D01*
X15102317Y-15380000D01*
X15304417Y-15347990D01*
X15499031Y-15284755D01*
X15681349Y-15191859D01*
X15725921Y-15159474D01*
X15046447Y-14480000D01*
X15052661Y-14480000D01*
X15154394Y-14452741D01*
X15245606Y-14400080D01*
X15320080Y-14325606D01*
X15372741Y-14234394D01*
X15400000Y-14132661D01*
X15400000Y-14126448D01*
X16079474Y-14805922D01*
X16079474Y-14805921D01*
X16111859Y-14761349D01*
X16204755Y-14579031D01*
X16267990Y-14384417D01*
X16300000Y-14182317D01*
X16300000Y-13977682D01*
X17700000Y-13977682D01*
X17700000Y-14182317D01*
X17732009Y-14384417D01*
X17795244Y-14579031D01*
X17888141Y-14761350D01*
X17888147Y-14761359D01*
X17920523Y-14805921D01*
X17920524Y-14805922D01*
X18600000Y-14126446D01*
X18600000Y-14132661D01*
X18627259Y-14234394D01*
X18679920Y-14325606D01*
X18754394Y-14400080D01*
X18845606Y-14452741D01*
X18947339Y-14480000D01*
X18953553Y-14480000D01*
X18274076Y-15159474D01*
X18318650Y-15191859D01*
X18500968Y-15284755D01*
X18695582Y-15347990D01*
X18897683Y-15380000D01*
X19102317Y-15380000D01*
X19304417Y-15347990D01*
X19499031Y-15284755D01*
X19681349Y-15191859D01*
X19725921Y-15159474D01*
X19046447Y-14480000D01*
X19052661Y-14480000D01*
X19154394Y-14452741D01*
X19245606Y-14400080D01*
X19320080Y-14325606D01*
X19372741Y-14234394D01*
X19400000Y-14132661D01*
X19400000Y-14126447D01*
X20079474Y-14805921D01*
X20111859Y-14761349D01*
X20204755Y-14579031D01*
X20267990Y-14384417D01*
X20300000Y-14182317D01*
X20300000Y-13977682D01*
X20267990Y-13775582D01*
X20204755Y-13580968D01*
X20111859Y-13398650D01*
X20079474Y-13354077D01*
X20079474Y-13354076D01*
X19400000Y-14033551D01*
X19400000Y-14027339D01*
X19372741Y-13925606D01*
X19320080Y-13834394D01*
X19245606Y-13759920D01*
X19154394Y-13707259D01*
X19052661Y-13680000D01*
X19046446Y-13680000D01*
X19725922Y-13000524D01*
X19725921Y-13000523D01*
X19681359Y-12968147D01*
X19681350Y-12968141D01*
X19499031Y-12875244D01*
X19304417Y-12812009D01*
X19102317Y-12780000D01*
X18897683Y-12780000D01*
X18695582Y-12812009D01*
X18500968Y-12875244D01*
X18318644Y-12968143D01*
X18274077Y-13000523D01*
X18274077Y-13000524D01*
X18953554Y-13680000D01*
X18947339Y-13680000D01*
X18845606Y-13707259D01*
X18754394Y-13759920D01*
X18679920Y-13834394D01*
X18627259Y-13925606D01*
X18600000Y-14027339D01*
X18600000Y-14033553D01*
X17920524Y-13354077D01*
X17920523Y-13354077D01*
X17888143Y-13398644D01*
X17795244Y-13580968D01*
X17732009Y-13775582D01*
X17700000Y-13977682D01*
X16300000Y-13977682D01*
X16267990Y-13775582D01*
X16204755Y-13580968D01*
X16111859Y-13398650D01*
X16079474Y-13354077D01*
X16079474Y-13354076D01*
X15400000Y-14033551D01*
X15400000Y-14027339D01*
X15372741Y-13925606D01*
X15320080Y-13834394D01*
X15245606Y-13759920D01*
X15154394Y-13707259D01*
X15052661Y-13680000D01*
X15046446Y-13680000D01*
X15725922Y-13000524D01*
X15725921Y-13000523D01*
X15681359Y-12968147D01*
X15681350Y-12968141D01*
X15499031Y-12875244D01*
X15304417Y-12812009D01*
X15102317Y-12780000D01*
X14897683Y-12780000D01*
X14695582Y-12812009D01*
X14500968Y-12875244D01*
X14318644Y-12968143D01*
X14274077Y-13000523D01*
X14274077Y-13000524D01*
X14953554Y-13680000D01*
X14947339Y-13680000D01*
X14845606Y-13707259D01*
X14754394Y-13759920D01*
X14679920Y-13834394D01*
X14627259Y-13925606D01*
X14600000Y-14027339D01*
X14600000Y-14033553D01*
X13920524Y-13354077D01*
X13920523Y-13354077D01*
X13888143Y-13398644D01*
X13795244Y-13580968D01*
X13732009Y-13775582D01*
X13700000Y-13977682D01*
X12300000Y-13977682D01*
X12267990Y-13775582D01*
X12204755Y-13580968D01*
X12111859Y-13398650D01*
X12079474Y-13354077D01*
X12079474Y-13354076D01*
X11400000Y-14033551D01*
X11400000Y-14027339D01*
X11372741Y-13925606D01*
X11320080Y-13834394D01*
X11245606Y-13759920D01*
X11154394Y-13707259D01*
X11052661Y-13680000D01*
X11046446Y-13680000D01*
X11725922Y-13000524D01*
X11725921Y-13000523D01*
X11681359Y-12968147D01*
X11681350Y-12968141D01*
X11499031Y-12875244D01*
X11304417Y-12812009D01*
X11102317Y-12780000D01*
X10897683Y-12780000D01*
X10695582Y-12812009D01*
X10500968Y-12875244D01*
X10318644Y-12968143D01*
X10274077Y-13000523D01*
X10274077Y-13000524D01*
X10953554Y-13680000D01*
X10947339Y-13680000D01*
X10845606Y-13707259D01*
X10754394Y-13759920D01*
X10679920Y-13834394D01*
X10627259Y-13925606D01*
X10600000Y-14027339D01*
X10600000Y-14033553D01*
X9920524Y-13354077D01*
X9920523Y-13354077D01*
X9888143Y-13398644D01*
X9795244Y-13580968D01*
X9732009Y-13775582D01*
X9700000Y-13977682D01*
X-499500Y-13977682D01*
X-499500Y-9889778D01*
X2059500Y-9889778D01*
X2059500Y-10110221D01*
X2093985Y-10327952D01*
X2162103Y-10537603D01*
X2162104Y-10537606D01*
X2262187Y-10734025D01*
X2391752Y-10912358D01*
X2391756Y-10912363D01*
X2547636Y-11068243D01*
X2547641Y-11068247D01*
X2649606Y-11142328D01*
X2725978Y-11197815D01*
X2854375Y-11263237D01*
X2922393Y-11297895D01*
X2922396Y-11297896D01*
X3027221Y-11331955D01*
X3132049Y-11366015D01*
X3349778Y-11400500D01*
X3349779Y-11400500D01*
X3570221Y-11400500D01*
X3570222Y-11400500D01*
X3787951Y-11366015D01*
X3997606Y-11297895D01*
X4194022Y-11197815D01*
X4372365Y-11068242D01*
X4422536Y-11018070D01*
X4483857Y-10984586D01*
X4553548Y-10989570D01*
X4609482Y-11031441D01*
X4626398Y-11062419D01*
X4656202Y-11142328D01*
X4656206Y-11142335D01*
X4742452Y-11257544D01*
X4742455Y-11257547D01*
X4857664Y-11343793D01*
X4857671Y-11343797D01*
X4992517Y-11394091D01*
X4992516Y-11394091D01*
X4999444Y-11394835D01*
X5052127Y-11400500D01*
X6947872Y-11400499D01*
X7007483Y-11394091D01*
X7142331Y-11343796D01*
X7257546Y-11257546D01*
X7343796Y-11142331D01*
X7394091Y-11007483D01*
X7400500Y-10947873D01*
X7400499Y-9052128D01*
X7394091Y-8992517D01*
X7373601Y-8937581D01*
X7343797Y-8857671D01*
X7343793Y-8857664D01*
X7257547Y-8742455D01*
X7257544Y-8742452D01*
X7142335Y-8656206D01*
X7142328Y-8656202D01*
X7007482Y-8605908D01*
X7007483Y-8605908D01*
X6947883Y-8599501D01*
X6947881Y-8599500D01*
X6947873Y-8599500D01*
X6947864Y-8599500D01*
X5052129Y-8599500D01*
X5052123Y-8599501D01*
X4992516Y-8605908D01*
X4857671Y-8656202D01*
X4857664Y-8656206D01*
X4742455Y-8742452D01*
X4742452Y-8742455D01*
X4656206Y-8857664D01*
X4656203Y-8857669D01*
X4626398Y-8937581D01*
X4584526Y-8993514D01*
X4519062Y-9017931D01*
X4450789Y-9003079D01*
X4422535Y-8981928D01*
X4372363Y-8931756D01*
X4372358Y-8931752D01*
X4194025Y-8802187D01*
X4194024Y-8802186D01*
X4194022Y-8802185D01*
X4076791Y-8742452D01*
X3997606Y-8702104D01*
X3997603Y-8702103D01*
X3787952Y-8633985D01*
X3679086Y-8616742D01*
X3570222Y-8599500D01*
X3349778Y-8599500D01*
X3277201Y-8610995D01*
X3132047Y-8633985D01*
X2922396Y-8702103D01*
X2922393Y-8702104D01*
X2725974Y-8802187D01*
X2547641Y-8931752D01*
X2547636Y-8931756D01*
X2391756Y-9087636D01*
X2391752Y-9087641D01*
X2262187Y-9265974D01*
X2162104Y-9462393D01*
X2162103Y-9462396D01*
X2093985Y-9672047D01*
X2059500Y-9889778D01*
X-499500Y-9889778D01*
X-499500Y-3378711D01*
X649500Y-3378711D01*
X649500Y-3621288D01*
X681161Y-3861785D01*
X743947Y-4096104D01*
X797145Y-4224534D01*
X836776Y-4320212D01*
X958064Y-4530289D01*
X958066Y-4530292D01*
X958067Y-4530293D01*
X1105733Y-4722736D01*
X1105739Y-4722743D01*
X1277256Y-4894260D01*
X1277262Y-4894265D01*
X1469711Y-5041936D01*
X1679788Y-5163224D01*
X1903900Y-5256054D01*
X2138211Y-5318838D01*
X2318586Y-5342584D01*
X2378711Y-5350500D01*
X2378712Y-5350500D01*
X2621289Y-5350500D01*
X2669388Y-5344167D01*
X2861789Y-5318838D01*
X3096100Y-5256054D01*
X3320212Y-5163224D01*
X3530289Y-5041936D01*
X3722738Y-4894265D01*
X3894265Y-4722738D01*
X4041936Y-4530289D01*
X4163224Y-4320212D01*
X4256054Y-4096100D01*
X4318838Y-3861789D01*
X4324649Y-3817648D01*
X9699500Y-3817648D01*
X9699500Y-4022351D01*
X9731522Y-4224534D01*
X9794781Y-4419223D01*
X9887715Y-4601613D01*
X10008028Y-4767213D01*
X10152786Y-4911971D01*
X10286383Y-5009033D01*
X10318390Y-5032287D01*
X10434607Y-5091503D01*
X10500776Y-5125218D01*
X10500778Y-5125218D01*
X10500781Y-5125220D01*
X10605137Y-5159127D01*
X10695465Y-5188477D01*
X10796557Y-5204488D01*
X10897648Y-5220500D01*
X10897649Y-5220500D01*
X11102351Y-5220500D01*
X11102352Y-5220500D01*
X11304534Y-5188477D01*
X11499219Y-5125220D01*
X11681610Y-5032287D01*
X11805889Y-4941994D01*
X11847213Y-4911971D01*
X11847215Y-4911968D01*
X11847219Y-4911966D01*
X11991966Y-4767219D01*
X11991968Y-4767215D01*
X11991971Y-4767213D01*
X12044732Y-4694590D01*
X12112287Y-4601610D01*
X12205220Y-4419219D01*
X12268477Y-4224534D01*
X12300500Y-4022352D01*
X12300500Y-3817648D01*
X13699500Y-3817648D01*
X13699500Y-4022351D01*
X13731522Y-4224534D01*
X13794781Y-4419223D01*
X13887715Y-4601613D01*
X14008028Y-4767213D01*
X14152779Y-4911964D01*
X14156038Y-4914748D01*
X14194227Y-4973258D01*
X14199500Y-5009033D01*
X14199500Y-6078846D01*
X14230261Y-6233489D01*
X14230264Y-6233501D01*
X14290602Y-6379172D01*
X14290609Y-6379185D01*
X14378210Y-6510288D01*
X14378213Y-6510292D01*
X22623181Y-14755259D01*
X22656666Y-14816582D01*
X22659500Y-14842940D01*
X22659500Y-23787301D01*
X22639815Y-23854340D01*
X22608387Y-23887618D01*
X22547635Y-23931757D01*
X22391756Y-24087636D01*
X22391752Y-24087641D01*
X22262187Y-24265974D01*
X22162104Y-24462393D01*
X22162103Y-24462396D01*
X22093985Y-24672047D01*
X22074513Y-24794989D01*
X22059500Y-24889778D01*
X22059500Y-25110222D01*
X22076742Y-25219086D01*
X22093985Y-25327952D01*
X22162103Y-25537603D01*
X22162104Y-25537606D01*
X22230122Y-25671096D01*
X22236573Y-25683757D01*
X22262187Y-25734025D01*
X22391752Y-25912358D01*
X22391756Y-25912363D01*
X22547636Y-26068243D01*
X22547641Y-26068247D01*
X22684538Y-26167707D01*
X22725978Y-26197815D01*
X22854375Y-26263237D01*
X22922393Y-26297895D01*
X22922396Y-26297896D01*
X22978864Y-26316243D01*
X23132049Y-26366015D01*
X23349778Y-26400500D01*
X23349779Y-26400500D01*
X23570221Y-26400500D01*
X23570222Y-26400500D01*
X23787951Y-26366015D01*
X23997606Y-26297895D01*
X24194022Y-26197815D01*
X24372365Y-26068242D01*
X24422536Y-26018070D01*
X24483857Y-25984586D01*
X24553548Y-25989570D01*
X24609482Y-26031441D01*
X24626398Y-26062419D01*
X24656202Y-26142328D01*
X24656206Y-26142335D01*
X24742452Y-26257544D01*
X24742455Y-26257547D01*
X24857664Y-26343793D01*
X24857671Y-26343797D01*
X24992517Y-26394091D01*
X24992516Y-26394091D01*
X24999444Y-26394835D01*
X25052127Y-26400500D01*
X26947872Y-26400499D01*
X27007483Y-26394091D01*
X27142331Y-26343796D01*
X27257546Y-26257546D01*
X27343796Y-26142331D01*
X27394091Y-26007483D01*
X27400500Y-25947873D01*
X27400499Y-24052128D01*
X27394091Y-23992517D01*
X27392665Y-23988695D01*
X27343797Y-23857671D01*
X27343793Y-23857664D01*
X27257547Y-23742455D01*
X27257544Y-23742452D01*
X27142335Y-23656206D01*
X27142328Y-23656202D01*
X27007482Y-23605908D01*
X27007483Y-23605908D01*
X26947883Y-23599501D01*
X26947881Y-23599500D01*
X26947873Y-23599500D01*
X26947864Y-23599500D01*
X25052129Y-23599500D01*
X25052123Y-23599501D01*
X24992516Y-23605908D01*
X24857671Y-23656202D01*
X24857664Y-23656206D01*
X24742455Y-23742452D01*
X24742452Y-23742455D01*
X24656206Y-23857664D01*
X24656203Y-23857669D01*
X24626398Y-23937581D01*
X24584526Y-23993514D01*
X24519062Y-24017931D01*
X24450789Y-24003079D01*
X24429869Y-23988695D01*
X24426071Y-23985464D01*
X24372365Y-23931758D01*
X24307776Y-23884831D01*
X24304153Y-23881749D01*
X24287497Y-23856343D01*
X24268948Y-23832287D01*
X24267832Y-23826347D01*
X24265846Y-23823317D01*
X24265773Y-23815384D01*
X24260500Y-23787301D01*
X24260500Y-14381157D01*
X24260499Y-14381153D01*
X24249450Y-14325606D01*
X24229738Y-14226503D01*
X24169394Y-14080821D01*
X24169392Y-14080818D01*
X24169390Y-14080814D01*
X24081789Y-13949711D01*
X24081786Y-13949707D01*
X20021857Y-9889778D01*
X22059500Y-9889778D01*
X22059500Y-10110221D01*
X22093985Y-10327952D01*
X22162103Y-10537603D01*
X22162104Y-10537606D01*
X22262187Y-10734025D01*
X22391752Y-10912358D01*
X22391756Y-10912363D01*
X22547636Y-11068243D01*
X22547641Y-11068247D01*
X22649606Y-11142328D01*
X22725978Y-11197815D01*
X22854375Y-11263237D01*
X22922393Y-11297895D01*
X22922396Y-11297896D01*
X23027221Y-11331955D01*
X23132049Y-11366015D01*
X23349778Y-11400500D01*
X23349779Y-11400500D01*
X23570221Y-11400500D01*
X23570222Y-11400500D01*
X23787951Y-11366015D01*
X23997606Y-11297895D01*
X24194022Y-11197815D01*
X24372365Y-11068242D01*
X24422536Y-11018070D01*
X24483857Y-10984586D01*
X24553548Y-10989570D01*
X24609482Y-11031441D01*
X24626398Y-11062419D01*
X24656202Y-11142328D01*
X24656206Y-11142335D01*
X24742452Y-11257544D01*
X24742455Y-11257547D01*
X24857664Y-11343793D01*
X24857671Y-11343797D01*
X24992517Y-11394091D01*
X24992516Y-11394091D01*
X24999444Y-11394835D01*
X25052127Y-11400500D01*
X26947872Y-11400499D01*
X27007483Y-11394091D01*
X27142331Y-11343796D01*
X27257546Y-11257546D01*
X27343796Y-11142331D01*
X27394091Y-11007483D01*
X27400500Y-10947873D01*
X27400499Y-9052128D01*
X27394091Y-8992517D01*
X27373601Y-8937581D01*
X27343797Y-8857671D01*
X27343793Y-8857664D01*
X27257547Y-8742455D01*
X27257544Y-8742452D01*
X27142335Y-8656206D01*
X27142328Y-8656202D01*
X27007482Y-8605908D01*
X27007483Y-8605908D01*
X26947883Y-8599501D01*
X26947881Y-8599500D01*
X26947873Y-8599500D01*
X26947864Y-8599500D01*
X25052129Y-8599500D01*
X25052123Y-8599501D01*
X24992516Y-8605908D01*
X24857671Y-8656202D01*
X24857664Y-8656206D01*
X24742455Y-8742452D01*
X24742452Y-8742455D01*
X24656206Y-8857664D01*
X24656203Y-8857669D01*
X24626398Y-8937581D01*
X24584526Y-8993514D01*
X24519062Y-9017931D01*
X24450789Y-9003079D01*
X24422535Y-8981928D01*
X24372363Y-8931756D01*
X24372358Y-8931752D01*
X24194025Y-8802187D01*
X24194024Y-8802186D01*
X24194022Y-8802185D01*
X24076791Y-8742452D01*
X23997606Y-8702104D01*
X23997603Y-8702103D01*
X23787952Y-8633985D01*
X23679086Y-8616742D01*
X23570222Y-8599500D01*
X23349778Y-8599500D01*
X23277201Y-8610995D01*
X23132047Y-8633985D01*
X22922396Y-8702103D01*
X22922393Y-8702104D01*
X22725974Y-8802187D01*
X22547641Y-8931752D01*
X22547636Y-8931756D01*
X22391756Y-9087636D01*
X22391752Y-9087641D01*
X22262187Y-9265974D01*
X22162104Y-9462393D01*
X22162103Y-9462396D01*
X22093985Y-9672047D01*
X22059500Y-9889778D01*
X20021857Y-9889778D01*
X15836819Y-5704740D01*
X15803334Y-5643417D01*
X15800500Y-5617059D01*
X15800500Y-5009033D01*
X15820185Y-4941994D01*
X15843962Y-4914748D01*
X15847212Y-4911971D01*
X15847219Y-4911966D01*
X15991966Y-4767219D01*
X15991968Y-4767215D01*
X15991971Y-4767213D01*
X16044732Y-4694590D01*
X16112287Y-4601610D01*
X16205220Y-4419219D01*
X16268477Y-4224534D01*
X16300500Y-4022352D01*
X16300500Y-3817648D01*
X17699500Y-3817648D01*
X17699500Y-4022351D01*
X17731522Y-4224534D01*
X17794781Y-4419223D01*
X17887715Y-4601613D01*
X18008028Y-4767213D01*
X18152786Y-4911971D01*
X18286383Y-5009033D01*
X18318390Y-5032287D01*
X18434607Y-5091503D01*
X18500776Y-5125218D01*
X18500778Y-5125218D01*
X18500781Y-5125220D01*
X18605137Y-5159127D01*
X18695465Y-5188477D01*
X18796557Y-5204488D01*
X18897648Y-5220500D01*
X18897649Y-5220500D01*
X19102351Y-5220500D01*
X19102352Y-5220500D01*
X19304534Y-5188477D01*
X19499219Y-5125220D01*
X19681610Y-5032287D01*
X19805889Y-4941994D01*
X19847213Y-4911971D01*
X19847215Y-4911968D01*
X19847219Y-4911966D01*
X19991966Y-4767219D01*
X19991968Y-4767215D01*
X19991971Y-4767213D01*
X20044732Y-4694590D01*
X20112287Y-4601610D01*
X20205220Y-4419219D01*
X20268477Y-4224534D01*
X20300500Y-4022352D01*
X20300500Y-3817648D01*
X20268477Y-3615466D01*
X20205220Y-3420781D01*
X20205218Y-3420778D01*
X20205218Y-3420776D01*
X20183785Y-3378711D01*
X25649500Y-3378711D01*
X25649500Y-3621288D01*
X25681161Y-3861785D01*
X25743947Y-4096104D01*
X25797145Y-4224534D01*
X25836776Y-4320212D01*
X25958064Y-4530289D01*
X25958066Y-4530292D01*
X25958067Y-4530293D01*
X26105733Y-4722736D01*
X26105739Y-4722743D01*
X26277256Y-4894260D01*
X26277262Y-4894265D01*
X26469711Y-5041936D01*
X26679788Y-5163224D01*
X26903900Y-5256054D01*
X27138211Y-5318838D01*
X27318586Y-5342584D01*
X27378711Y-5350500D01*
X27378712Y-5350500D01*
X27621289Y-5350500D01*
X27669388Y-5344167D01*
X27861789Y-5318838D01*
X28096100Y-5256054D01*
X28320212Y-5163224D01*
X28530289Y-5041936D01*
X28722738Y-4894265D01*
X28894265Y-4722738D01*
X29041936Y-4530289D01*
X29163224Y-4320212D01*
X29256054Y-4096100D01*
X29318838Y-3861789D01*
X29350500Y-3621288D01*
X29350500Y-3378712D01*
X29318838Y-3138211D01*
X29256054Y-2903900D01*
X29163224Y-2679788D01*
X29041936Y-2469711D01*
X28894265Y-2277262D01*
X28894260Y-2277256D01*
X28722743Y-2105739D01*
X28722736Y-2105733D01*
X28530293Y-1958067D01*
X28530292Y-1958066D01*
X28530289Y-1958064D01*
X28320212Y-1836776D01*
X28320205Y-1836773D01*
X28096104Y-1743947D01*
X27861785Y-1681161D01*
X27621289Y-1649500D01*
X27621288Y-1649500D01*
X27378712Y-1649500D01*
X27378711Y-1649500D01*
X27138214Y-1681161D01*
X26903895Y-1743947D01*
X26679794Y-1836773D01*
X26679785Y-1836777D01*
X26469706Y-1958067D01*
X26277263Y-2105733D01*
X26277256Y-2105739D01*
X26105739Y-2277256D01*
X26105733Y-2277263D01*
X25958067Y-2469706D01*
X25836777Y-2679785D01*
X25836773Y-2679794D01*
X25743947Y-2903895D01*
X25681161Y-3138214D01*
X25649500Y-3378711D01*
X20183785Y-3378711D01*
X20171503Y-3354607D01*
X20112287Y-3238390D01*
X20104556Y-3227749D01*
X19991971Y-3072786D01*
X19847213Y-2928028D01*
X19681613Y-2807715D01*
X19681612Y-2807714D01*
X19681610Y-2807713D01*
X19624653Y-2778691D01*
X19499223Y-2714781D01*
X19304534Y-2651522D01*
X19129995Y-2623878D01*
X19102352Y-2619500D01*
X18897648Y-2619500D01*
X18873329Y-2623351D01*
X18695465Y-2651522D01*
X18500776Y-2714781D01*
X18318386Y-2807715D01*
X18152786Y-2928028D01*
X18008028Y-3072786D01*
X17887715Y-3238386D01*
X17794781Y-3420776D01*
X17731522Y-3615465D01*
X17699500Y-3817648D01*
X16300500Y-3817648D01*
X16268477Y-3615466D01*
X16205220Y-3420781D01*
X16205218Y-3420778D01*
X16205218Y-3420776D01*
X16171503Y-3354607D01*
X16112287Y-3238390D01*
X16104556Y-3227749D01*
X15991971Y-3072786D01*
X15847213Y-2928028D01*
X15681613Y-2807715D01*
X15681612Y-2807714D01*
X15681610Y-2807713D01*
X15624653Y-2778691D01*
X15499223Y-2714781D01*
X15304534Y-2651522D01*
X15129995Y-2623878D01*
X15102352Y-2619500D01*
X14897648Y-2619500D01*
X14873329Y-2623351D01*
X14695465Y-2651522D01*
X14500776Y-2714781D01*
X14318386Y-2807715D01*
X14152786Y-2928028D01*
X14008028Y-3072786D01*
X13887715Y-3238386D01*
X13794781Y-3420776D01*
X13731522Y-3615465D01*
X13699500Y-3817648D01*
X12300500Y-3817648D01*
X12268477Y-3615466D01*
X12205220Y-3420781D01*
X12205218Y-3420778D01*
X12205218Y-3420776D01*
X12171503Y-3354607D01*
X12112287Y-3238390D01*
X12104556Y-3227749D01*
X11991971Y-3072786D01*
X11847213Y-2928028D01*
X11681613Y-2807715D01*
X11681612Y-2807714D01*
X11681610Y-2807713D01*
X11624653Y-2778691D01*
X11499223Y-2714781D01*
X11304534Y-2651522D01*
X11129995Y-2623878D01*
X11102352Y-2619500D01*
X10897648Y-2619500D01*
X10873329Y-2623351D01*
X10695465Y-2651522D01*
X10500776Y-2714781D01*
X10318386Y-2807715D01*
X10152786Y-2928028D01*
X10008028Y-3072786D01*
X9887715Y-3238386D01*
X9794781Y-3420776D01*
X9731522Y-3615465D01*
X9699500Y-3817648D01*
X4324649Y-3817648D01*
X4350500Y-3621288D01*
X4350500Y-3378712D01*
X4318838Y-3138211D01*
X4256054Y-2903900D01*
X4163224Y-2679788D01*
X4041936Y-2469711D01*
X3894265Y-2277262D01*
X3894260Y-2277256D01*
X3722743Y-2105739D01*
X3722736Y-2105733D01*
X3530293Y-1958067D01*
X3530292Y-1958066D01*
X3530289Y-1958064D01*
X3320212Y-1836776D01*
X3320205Y-1836773D01*
X3096104Y-1743947D01*
X2861785Y-1681161D01*
X2621289Y-1649500D01*
X2621288Y-1649500D01*
X2378712Y-1649500D01*
X2378711Y-1649500D01*
X2138214Y-1681161D01*
X1903895Y-1743947D01*
X1679794Y-1836773D01*
X1679785Y-1836777D01*
X1469706Y-1958067D01*
X1277263Y-2105733D01*
X1277256Y-2105739D01*
X1105739Y-2277256D01*
X1105733Y-2277263D01*
X958067Y-2469706D01*
X836777Y-2679785D01*
X836773Y-2679794D01*
X743947Y-2903895D01*
X681161Y-3138214D01*
X649500Y-3378711D01*
X-499500Y-3378711D01*
X-499500Y-624500D01*
X-479815Y-557461D01*
X-427011Y-511706D01*
X-375500Y-500500D01*
X30375500Y-500500D01*
X30442539Y-520185D01*
G37*
G04 #@! TD.AperFunction*
M02*
