G04 #@! TF.GenerationSoftware,KiCad,Pcbnew,10.0.0*
G04 #@! TF.CreationDate,2026-04-06T16:15:09-07:00*
G04 #@! TF.ProjectId,ledalarm,6c656461-6c61-4726-9d2e-6b696361645f,rev?*
G04 #@! TF.SameCoordinates,Original*
G04 #@! TF.FileFunction,Legend,Top*
G04 #@! TF.FilePolarity,Positive*
%FSLAX46Y46*%
G04 Gerber Fmt 4.6, Leading zero omitted, Abs format (unit mm)*
G04 Created by KiCad (PCBNEW 10.0.0) date 2026-04-06 16:15:09*
%MOMM*%
%LPD*%
G01*
G04 APERTURE LIST*
%ADD10C,0.300000*%
%ADD11C,0.000000*%
%ADD12C,0.100000*%
%ADD13C,0.150000*%
%ADD14C,0.120000*%
G04 APERTURE END LIST*
D10*
X22970996Y-35445489D02*
X21470996Y-35445489D01*
X21470996Y-35445489D02*
X21470996Y-34874060D01*
X21470996Y-34874060D02*
X21542425Y-34731203D01*
X21542425Y-34731203D02*
X21613853Y-34659774D01*
X21613853Y-34659774D02*
X21756710Y-34588346D01*
X21756710Y-34588346D02*
X21970996Y-34588346D01*
X21970996Y-34588346D02*
X22113853Y-34659774D01*
X22113853Y-34659774D02*
X22185282Y-34731203D01*
X22185282Y-34731203D02*
X22256710Y-34874060D01*
X22256710Y-34874060D02*
X22256710Y-35445489D01*
X22970996Y-33302632D02*
X22185282Y-33302632D01*
X22185282Y-33302632D02*
X22042425Y-33374060D01*
X22042425Y-33374060D02*
X21970996Y-33516917D01*
X21970996Y-33516917D02*
X21970996Y-33802632D01*
X21970996Y-33802632D02*
X22042425Y-33945489D01*
X22899568Y-33302632D02*
X22970996Y-33445489D01*
X22970996Y-33445489D02*
X22970996Y-33802632D01*
X22970996Y-33802632D02*
X22899568Y-33945489D01*
X22899568Y-33945489D02*
X22756710Y-34016917D01*
X22756710Y-34016917D02*
X22613853Y-34016917D01*
X22613853Y-34016917D02*
X22470996Y-33945489D01*
X22470996Y-33945489D02*
X22399568Y-33802632D01*
X22399568Y-33802632D02*
X22399568Y-33445489D01*
X22399568Y-33445489D02*
X22328139Y-33302632D01*
X21970996Y-32588346D02*
X22970996Y-32588346D01*
X22113853Y-32588346D02*
X22042425Y-32516917D01*
X22042425Y-32516917D02*
X21970996Y-32374060D01*
X21970996Y-32374060D02*
X21970996Y-32159774D01*
X21970996Y-32159774D02*
X22042425Y-32016917D01*
X22042425Y-32016917D02*
X22185282Y-31945489D01*
X22185282Y-31945489D02*
X22970996Y-31945489D01*
X22899568Y-30659774D02*
X22970996Y-30802631D01*
X22970996Y-30802631D02*
X22970996Y-31088346D01*
X22970996Y-31088346D02*
X22899568Y-31231203D01*
X22899568Y-31231203D02*
X22756710Y-31302631D01*
X22756710Y-31302631D02*
X22185282Y-31302631D01*
X22185282Y-31302631D02*
X22042425Y-31231203D01*
X22042425Y-31231203D02*
X21970996Y-31088346D01*
X21970996Y-31088346D02*
X21970996Y-30802631D01*
X21970996Y-30802631D02*
X22042425Y-30659774D01*
X22042425Y-30659774D02*
X22185282Y-30588346D01*
X22185282Y-30588346D02*
X22328139Y-30588346D01*
X22328139Y-30588346D02*
X22470996Y-31302631D01*
X22970996Y-29731203D02*
X22899568Y-29874060D01*
X22899568Y-29874060D02*
X22756710Y-29945489D01*
X22756710Y-29945489D02*
X21470996Y-29945489D01*
X24957341Y-35516917D02*
X24957341Y-34802632D01*
X25385912Y-35659774D02*
X23885912Y-35159774D01*
X23885912Y-35159774D02*
X25385912Y-34659774D01*
X25385912Y-33945489D02*
X25314484Y-34088346D01*
X25314484Y-34088346D02*
X25171626Y-34159775D01*
X25171626Y-34159775D02*
X23885912Y-34159775D01*
X25385912Y-32731204D02*
X24600198Y-32731204D01*
X24600198Y-32731204D02*
X24457341Y-32802632D01*
X24457341Y-32802632D02*
X24385912Y-32945489D01*
X24385912Y-32945489D02*
X24385912Y-33231204D01*
X24385912Y-33231204D02*
X24457341Y-33374061D01*
X25314484Y-32731204D02*
X25385912Y-32874061D01*
X25385912Y-32874061D02*
X25385912Y-33231204D01*
X25385912Y-33231204D02*
X25314484Y-33374061D01*
X25314484Y-33374061D02*
X25171626Y-33445489D01*
X25171626Y-33445489D02*
X25028769Y-33445489D01*
X25028769Y-33445489D02*
X24885912Y-33374061D01*
X24885912Y-33374061D02*
X24814484Y-33231204D01*
X24814484Y-33231204D02*
X24814484Y-32874061D01*
X24814484Y-32874061D02*
X24743055Y-32731204D01*
X25385912Y-32016918D02*
X24385912Y-32016918D01*
X24671626Y-32016918D02*
X24528769Y-31945489D01*
X24528769Y-31945489D02*
X24457341Y-31874061D01*
X24457341Y-31874061D02*
X24385912Y-31731203D01*
X24385912Y-31731203D02*
X24385912Y-31588346D01*
X25385912Y-31088347D02*
X24385912Y-31088347D01*
X24528769Y-31088347D02*
X24457341Y-31016918D01*
X24457341Y-31016918D02*
X24385912Y-30874061D01*
X24385912Y-30874061D02*
X24385912Y-30659775D01*
X24385912Y-30659775D02*
X24457341Y-30516918D01*
X24457341Y-30516918D02*
X24600198Y-30445490D01*
X24600198Y-30445490D02*
X25385912Y-30445490D01*
X24600198Y-30445490D02*
X24457341Y-30374061D01*
X24457341Y-30374061D02*
X24385912Y-30231204D01*
X24385912Y-30231204D02*
X24385912Y-30016918D01*
X24385912Y-30016918D02*
X24457341Y-29874061D01*
X24457341Y-29874061D02*
X24600198Y-29802632D01*
X24600198Y-29802632D02*
X25385912Y-29802632D01*
X26800828Y-35588346D02*
X27800828Y-35231203D01*
X27800828Y-35231203D02*
X26800828Y-34874060D01*
X27800828Y-33516917D02*
X27800828Y-34374060D01*
X27800828Y-33945489D02*
X26300828Y-33945489D01*
X26300828Y-33945489D02*
X26515114Y-34088346D01*
X26515114Y-34088346D02*
X26657971Y-34231203D01*
X26657971Y-34231203D02*
X26729400Y-34374060D01*
X27657971Y-32874061D02*
X27729400Y-32802632D01*
X27729400Y-32802632D02*
X27800828Y-32874061D01*
X27800828Y-32874061D02*
X27729400Y-32945489D01*
X27729400Y-32945489D02*
X27657971Y-32874061D01*
X27657971Y-32874061D02*
X27800828Y-32874061D01*
X26300828Y-31874060D02*
X26300828Y-31731203D01*
X26300828Y-31731203D02*
X26372257Y-31588346D01*
X26372257Y-31588346D02*
X26443685Y-31516918D01*
X26443685Y-31516918D02*
X26586542Y-31445489D01*
X26586542Y-31445489D02*
X26872257Y-31374060D01*
X26872257Y-31374060D02*
X27229400Y-31374060D01*
X27229400Y-31374060D02*
X27515114Y-31445489D01*
X27515114Y-31445489D02*
X27657971Y-31516918D01*
X27657971Y-31516918D02*
X27729400Y-31588346D01*
X27729400Y-31588346D02*
X27800828Y-31731203D01*
X27800828Y-31731203D02*
X27800828Y-31874060D01*
X27800828Y-31874060D02*
X27729400Y-32016918D01*
X27729400Y-32016918D02*
X27657971Y-32088346D01*
X27657971Y-32088346D02*
X27515114Y-32159775D01*
X27515114Y-32159775D02*
X27229400Y-32231203D01*
X27229400Y-32231203D02*
X26872257Y-32231203D01*
X26872257Y-32231203D02*
X26586542Y-32159775D01*
X26586542Y-32159775D02*
X26443685Y-32088346D01*
X26443685Y-32088346D02*
X26372257Y-32016918D01*
X26372257Y-32016918D02*
X26300828Y-31874060D01*
X622257Y-41016917D02*
X622257Y-40302632D01*
X1050828Y-41159774D02*
X-449171Y-40659774D01*
X-449171Y-40659774D02*
X1050828Y-40159774D01*
X-449171Y-39016918D02*
X-449171Y-39302632D01*
X-449171Y-39302632D02*
X-377742Y-39445489D01*
X-377742Y-39445489D02*
X-306314Y-39516918D01*
X-306314Y-39516918D02*
X-92028Y-39659775D01*
X-92028Y-39659775D02*
X193685Y-39731203D01*
X193685Y-39731203D02*
X765114Y-39731203D01*
X765114Y-39731203D02*
X907971Y-39659775D01*
X907971Y-39659775D02*
X979400Y-39588346D01*
X979400Y-39588346D02*
X1050828Y-39445489D01*
X1050828Y-39445489D02*
X1050828Y-39159775D01*
X1050828Y-39159775D02*
X979400Y-39016918D01*
X979400Y-39016918D02*
X907971Y-38945489D01*
X907971Y-38945489D02*
X765114Y-38874060D01*
X765114Y-38874060D02*
X407971Y-38874060D01*
X407971Y-38874060D02*
X265114Y-38945489D01*
X265114Y-38945489D02*
X193685Y-39016918D01*
X193685Y-39016918D02*
X122257Y-39159775D01*
X122257Y-39159775D02*
X122257Y-39445489D01*
X122257Y-39445489D02*
X193685Y-39588346D01*
X193685Y-39588346D02*
X265114Y-39659775D01*
X265114Y-39659775D02*
X407971Y-39731203D01*
X29372257Y-41016917D02*
X29372257Y-40302632D01*
X29800828Y-41159774D02*
X28300828Y-40659774D01*
X28300828Y-40659774D02*
X29800828Y-40159774D01*
X28300828Y-38945489D02*
X28300828Y-39659775D01*
X28300828Y-39659775D02*
X29015114Y-39731203D01*
X29015114Y-39731203D02*
X28943685Y-39659775D01*
X28943685Y-39659775D02*
X28872257Y-39516918D01*
X28872257Y-39516918D02*
X28872257Y-39159775D01*
X28872257Y-39159775D02*
X28943685Y-39016918D01*
X28943685Y-39016918D02*
X29015114Y-38945489D01*
X29015114Y-38945489D02*
X29157971Y-38874060D01*
X29157971Y-38874060D02*
X29515114Y-38874060D01*
X29515114Y-38874060D02*
X29657971Y-38945489D01*
X29657971Y-38945489D02*
X29729400Y-39016918D01*
X29729400Y-39016918D02*
X29800828Y-39159775D01*
X29800828Y-39159775D02*
X29800828Y-39516918D01*
X29800828Y-39516918D02*
X29729400Y-39659775D01*
X29729400Y-39659775D02*
X29657971Y-39731203D01*
X622257Y-26016917D02*
X622257Y-25302632D01*
X1050828Y-26159774D02*
X-449171Y-25659774D01*
X-449171Y-25659774D02*
X1050828Y-25159774D01*
X50828Y-24016918D02*
X1050828Y-24016918D01*
X-520600Y-24374060D02*
X550828Y-24731203D01*
X550828Y-24731203D02*
X550828Y-23802632D01*
X29372257Y-26016917D02*
X29372257Y-25302632D01*
X29800828Y-26159774D02*
X28300828Y-25659774D01*
X28300828Y-25659774D02*
X29800828Y-25159774D01*
X28300828Y-24802632D02*
X28300828Y-23874060D01*
X28300828Y-23874060D02*
X28872257Y-24374060D01*
X28872257Y-24374060D02*
X28872257Y-24159775D01*
X28872257Y-24159775D02*
X28943685Y-24016918D01*
X28943685Y-24016918D02*
X29015114Y-23945489D01*
X29015114Y-23945489D02*
X29157971Y-23874060D01*
X29157971Y-23874060D02*
X29515114Y-23874060D01*
X29515114Y-23874060D02*
X29657971Y-23945489D01*
X29657971Y-23945489D02*
X29729400Y-24016918D01*
X29729400Y-24016918D02*
X29800828Y-24159775D01*
X29800828Y-24159775D02*
X29800828Y-24588346D01*
X29800828Y-24588346D02*
X29729400Y-24731203D01*
X29729400Y-24731203D02*
X29657971Y-24802632D01*
X622257Y-11016917D02*
X622257Y-10302632D01*
X1050828Y-11159774D02*
X-449171Y-10659774D01*
X-449171Y-10659774D02*
X1050828Y-10159774D01*
X-306314Y-9731203D02*
X-377742Y-9659775D01*
X-377742Y-9659775D02*
X-449171Y-9516918D01*
X-449171Y-9516918D02*
X-449171Y-9159775D01*
X-449171Y-9159775D02*
X-377742Y-9016918D01*
X-377742Y-9016918D02*
X-306314Y-8945489D01*
X-306314Y-8945489D02*
X-163457Y-8874060D01*
X-163457Y-8874060D02*
X-20600Y-8874060D01*
X-20600Y-8874060D02*
X193685Y-8945489D01*
X193685Y-8945489D02*
X1050828Y-9802632D01*
X1050828Y-9802632D02*
X1050828Y-8874060D01*
X29372257Y-10766917D02*
X29372257Y-10052632D01*
X29800828Y-10909774D02*
X28300828Y-10409774D01*
X28300828Y-10409774D02*
X29800828Y-9909774D01*
X29800828Y-8624060D02*
X29800828Y-9481203D01*
X29800828Y-9052632D02*
X28300828Y-9052632D01*
X28300828Y-9052632D02*
X28515114Y-9195489D01*
X28515114Y-9195489D02*
X28657971Y-9338346D01*
X28657971Y-9338346D02*
X28729400Y-9481203D01*
D11*
G36*
X26869119Y-13430284D02*
G01*
X26660118Y-13430284D01*
X26660118Y-13100701D01*
X26869119Y-13100701D01*
X26869119Y-13430284D01*
G37*
G36*
X26869119Y-16256095D02*
G01*
X26660118Y-16256095D01*
X26660118Y-15926511D01*
X26869119Y-15926511D01*
X26869119Y-16256095D01*
G37*
G36*
X26869119Y-20789851D02*
G01*
X26660118Y-20789851D01*
X26660118Y-20460269D01*
X26869119Y-20460269D01*
X26869119Y-20789851D01*
G37*
G36*
X27785515Y-14136525D02*
G01*
X27479297Y-14251023D01*
X27479297Y-15116424D01*
X27785515Y-15233588D01*
X27785515Y-15790104D01*
X27625750Y-15790104D01*
X27000000Y-15525140D01*
X25921572Y-15068495D01*
X25921572Y-14645112D01*
X26427496Y-14645112D01*
X26427496Y-14711686D01*
X27000000Y-14932692D01*
X27000000Y-14429430D01*
X26427496Y-14645112D01*
X25921572Y-14645112D01*
X25921572Y-14274988D01*
X27625750Y-13566687D01*
X27785515Y-13566687D01*
X27785515Y-14136525D01*
G37*
G36*
X27785515Y-16256095D02*
G01*
X26965582Y-16256095D01*
X26965582Y-15926511D01*
X27785515Y-15926511D01*
X27785515Y-16256095D01*
G37*
G36*
X25059823Y-15420699D02*
G01*
X24952166Y-15591039D01*
X24847856Y-15762091D01*
X24747337Y-15934616D01*
X24651056Y-16109385D01*
X24559474Y-16287145D01*
X24473032Y-16468658D01*
X24431875Y-16561064D01*
X24392175Y-16654695D01*
X24312498Y-16860983D01*
X24279534Y-16959072D01*
X24251061Y-17054026D01*
X24227012Y-17146030D01*
X24207317Y-17235267D01*
X24191908Y-17321907D01*
X24180709Y-17406139D01*
X24173661Y-17488140D01*
X24170687Y-17568085D01*
X24171723Y-17646165D01*
X24176691Y-17722551D01*
X24185534Y-17797426D01*
X24198172Y-17870972D01*
X24214542Y-17943364D01*
X24234574Y-18014785D01*
X24258196Y-18085417D01*
X24285342Y-18155440D01*
X24349924Y-18294368D01*
X24427770Y-18433014D01*
X24518316Y-18572818D01*
X24621021Y-18715218D01*
X24735320Y-18861660D01*
X24860664Y-19013579D01*
X24996501Y-19172416D01*
X25165550Y-19369008D01*
X25331442Y-19566950D01*
X25493641Y-19766969D01*
X25651595Y-19969772D01*
X25804760Y-20176079D01*
X25952602Y-20386621D01*
X26094569Y-20602090D01*
X26163177Y-20711906D01*
X26230117Y-20823220D01*
X26141287Y-20823220D01*
X25999869Y-20606662D01*
X25858174Y-20403835D01*
X25576534Y-20035104D01*
X25301509Y-19708490D01*
X25038246Y-19415453D01*
X24567598Y-18895942D01*
X24370506Y-18652393D01*
X24283767Y-18530933D01*
X24205761Y-18408262D01*
X24137129Y-18283308D01*
X24078514Y-18155007D01*
X24030561Y-18022291D01*
X23993913Y-17884092D01*
X23969210Y-17739342D01*
X23957100Y-17586974D01*
X23958224Y-17425924D01*
X23973225Y-17255117D01*
X24002749Y-17073493D01*
X24047434Y-16879978D01*
X24107930Y-16673511D01*
X24184874Y-16453020D01*
X24278920Y-16217440D01*
X24390694Y-15965702D01*
X24520854Y-15696737D01*
X24670039Y-15409484D01*
X24712475Y-15328692D01*
X24723517Y-15308593D01*
X24756084Y-15250323D01*
X25170373Y-15250323D01*
X25059823Y-15420699D01*
G37*
G36*
X27222816Y-17751269D02*
G01*
X27263009Y-17791463D01*
X27488090Y-17791463D01*
X27528282Y-17751269D01*
X27528282Y-17333263D01*
X27785515Y-17333263D01*
X27785515Y-17928117D01*
X27592592Y-18121041D01*
X27158507Y-18121041D01*
X26965582Y-17928117D01*
X26965582Y-17333263D01*
X27222816Y-17333263D01*
X27222816Y-17751269D01*
G37*
G36*
X27222816Y-12529962D02*
G01*
X27263009Y-12578196D01*
X27785515Y-12578196D01*
X27785515Y-12907775D01*
X26965582Y-12907775D01*
X26965582Y-12642501D01*
X27029891Y-12642501D01*
X27029891Y-12610346D01*
X26965582Y-12537998D01*
X26965582Y-12256648D01*
X27222816Y-12256648D01*
X27222816Y-12529962D01*
G37*
G36*
X24083728Y-15336234D02*
G01*
X24032434Y-15423729D01*
X23983556Y-15512335D01*
X23937020Y-15602005D01*
X23892768Y-15692692D01*
X23850737Y-15784361D01*
X23810857Y-15876968D01*
X23773069Y-15970467D01*
X23737306Y-16064820D01*
X23703503Y-16159982D01*
X23671599Y-16255914D01*
X23641530Y-16352573D01*
X23586629Y-16547909D01*
X23538291Y-16745640D01*
X23518708Y-16839994D01*
X23501878Y-16931670D01*
X23488010Y-17020987D01*
X23477304Y-17108276D01*
X23469962Y-17193852D01*
X23466192Y-17278035D01*
X23466192Y-17361153D01*
X23470166Y-17443521D01*
X23478319Y-17525467D01*
X23490852Y-17607308D01*
X23507965Y-17689375D01*
X23529863Y-17771975D01*
X23556749Y-17855443D01*
X23588829Y-17940095D01*
X23626302Y-18026250D01*
X23669370Y-18114234D01*
X23705828Y-18182247D01*
X23744233Y-18248888D01*
X23784459Y-18314311D01*
X23826386Y-18378684D01*
X23869890Y-18442158D01*
X23914851Y-18504904D01*
X23961145Y-18567074D01*
X24008649Y-18628836D01*
X24091364Y-18732207D01*
X24175920Y-18833956D01*
X24349764Y-19033275D01*
X24528647Y-19228187D01*
X24711031Y-19420077D01*
X25080103Y-19800360D01*
X25263725Y-19991525D01*
X25444673Y-20185235D01*
X25583548Y-20339042D01*
X25649394Y-20413815D01*
X25712812Y-20489060D01*
X25743600Y-20527300D01*
X25773774Y-20566197D01*
X25803325Y-20605922D01*
X25832251Y-20646654D01*
X25860554Y-20688573D01*
X25888224Y-20731856D01*
X25915263Y-20776681D01*
X25941663Y-20823220D01*
X25859405Y-20823220D01*
X25831898Y-20779822D01*
X25804254Y-20738763D01*
X25776408Y-20699777D01*
X25748294Y-20662600D01*
X25719850Y-20626955D01*
X25691014Y-20592586D01*
X25661713Y-20559214D01*
X25631895Y-20526574D01*
X25570425Y-20462423D01*
X25506091Y-20397993D01*
X25366763Y-20259687D01*
X25214794Y-20110807D01*
X25061133Y-19963602D01*
X24751571Y-19671192D01*
X24597093Y-19524486D01*
X24443767Y-19376439D01*
X24292298Y-19226307D01*
X24143400Y-19073332D01*
X23993487Y-18913221D01*
X23919893Y-18830894D01*
X23847757Y-18746945D01*
X23777506Y-18661294D01*
X23709549Y-18573863D01*
X23644314Y-18484572D01*
X23582209Y-18393340D01*
X23523661Y-18300086D01*
X23469080Y-18204733D01*
X23418891Y-18107198D01*
X23373506Y-18007404D01*
X23333347Y-17905272D01*
X23298828Y-17800718D01*
X23270373Y-17693663D01*
X23248392Y-17584027D01*
X23231761Y-17449986D01*
X23222363Y-17314387D01*
X23219809Y-17177563D01*
X23223711Y-17039829D01*
X23233681Y-16901509D01*
X23249334Y-16762920D01*
X23270278Y-16624385D01*
X23296123Y-16486225D01*
X23326489Y-16348758D01*
X23360980Y-16212311D01*
X23399218Y-16077196D01*
X23440804Y-15943737D01*
X23485357Y-15812256D01*
X23532485Y-15683076D01*
X23632922Y-15432892D01*
X23650237Y-15391679D01*
X23660240Y-15365890D01*
X23668979Y-15340213D01*
X23673050Y-15330139D01*
X23680478Y-15315117D01*
X23693927Y-15290060D01*
X23716072Y-15249880D01*
X24137495Y-15249880D01*
X24083728Y-15336234D01*
G37*
G36*
X27222816Y-16842909D02*
G01*
X27263009Y-16883102D01*
X27488090Y-16883102D01*
X27528282Y-16842909D01*
X27528282Y-16424902D01*
X27785515Y-16424902D01*
X27785515Y-17019760D01*
X27592592Y-17212685D01*
X27158507Y-17212685D01*
X26965582Y-17019760D01*
X26965582Y-16424902D01*
X27222816Y-16424902D01*
X27222816Y-16842909D01*
G37*
G36*
X27785515Y-19640335D02*
G01*
X27721206Y-19640335D01*
X27721206Y-19675703D01*
X27785515Y-19752874D01*
X27785515Y-20090496D01*
X27592592Y-20283419D01*
X27263009Y-20283419D01*
X27158507Y-20283419D01*
X26965582Y-20090496D01*
X26965582Y-19913647D01*
X27222816Y-19913647D01*
X27263009Y-19953838D01*
X27488090Y-19953838D01*
X27528282Y-19913647D01*
X27528282Y-19760912D01*
X27488090Y-19704643D01*
X27222816Y-19704643D01*
X27222816Y-19913647D01*
X26965582Y-19913647D01*
X26965582Y-19704643D01*
X26660118Y-19704643D01*
X26660118Y-19375064D01*
X27785515Y-19375064D01*
X27785515Y-19640335D01*
G37*
G36*
X27785515Y-18563166D02*
G01*
X27721206Y-18563166D01*
X27721206Y-18595319D01*
X27785515Y-18667665D01*
X27785515Y-18997246D01*
X27600629Y-19182136D01*
X26965582Y-19182136D01*
X26965582Y-18852554D01*
X27496129Y-18852554D01*
X27528282Y-18820400D01*
X27528282Y-18675704D01*
X27488090Y-18627475D01*
X26965582Y-18627475D01*
X26965582Y-18297894D01*
X27785515Y-18297894D01*
X27785515Y-18563166D01*
G37*
G36*
X27785515Y-20789851D02*
G01*
X26965582Y-20789851D01*
X26965582Y-20460269D01*
X27785515Y-20460269D01*
X27785515Y-20789851D01*
G37*
G36*
X23009496Y-15344906D02*
G01*
X22979541Y-15432584D01*
X22951157Y-15519887D01*
X22922488Y-15613897D01*
X22877837Y-15771741D01*
X22839258Y-15931133D01*
X22806386Y-16091840D01*
X22778848Y-16253624D01*
X22756272Y-16416250D01*
X22738293Y-16579482D01*
X22724530Y-16743082D01*
X22714620Y-16906812D01*
X22714275Y-16954099D01*
X22715065Y-17001361D01*
X22716949Y-17048589D01*
X22719901Y-17095763D01*
X22728885Y-17189900D01*
X22741747Y-17283651D01*
X22758246Y-17376901D01*
X22778117Y-17469527D01*
X22801110Y-17561424D01*
X22826970Y-17652464D01*
X22850729Y-17727084D01*
X22876621Y-17800869D01*
X22904606Y-17873779D01*
X22934664Y-17945768D01*
X22966772Y-18016798D01*
X23000904Y-18086824D01*
X23037039Y-18155802D01*
X23075143Y-18223690D01*
X23115201Y-18290444D01*
X23157184Y-18356027D01*
X23201067Y-18420392D01*
X23246824Y-18483497D01*
X23294436Y-18545298D01*
X23343873Y-18605754D01*
X23395109Y-18664821D01*
X23448126Y-18722461D01*
X23523023Y-18800775D01*
X23561133Y-18840186D01*
X23598593Y-18878502D01*
X23774120Y-19053864D01*
X23952343Y-19226475D01*
X24132619Y-19397020D01*
X24314279Y-19566186D01*
X24679160Y-19903116D01*
X25041750Y-20242747D01*
X25161621Y-20358857D01*
X25221135Y-20417452D01*
X25280117Y-20476614D01*
X25338374Y-20536499D01*
X25395714Y-20597259D01*
X25451940Y-20659046D01*
X25506865Y-20722014D01*
X25515300Y-20731788D01*
X25522559Y-20740027D01*
X25534195Y-20752817D01*
X25550291Y-20770111D01*
X25553734Y-20774057D01*
X25557253Y-20778310D01*
X25561010Y-20783101D01*
X25565157Y-20788664D01*
X25569852Y-20795224D01*
X25575250Y-20803019D01*
X25588788Y-20823220D01*
X25493604Y-20823220D01*
X25478098Y-20803102D01*
X25464187Y-20785646D01*
X25451608Y-20770499D01*
X25440101Y-20757307D01*
X25429407Y-20745725D01*
X25419272Y-20735392D01*
X25409431Y-20725957D01*
X25399629Y-20717069D01*
X25379104Y-20699530D01*
X25355627Y-20679944D01*
X25327125Y-20655504D01*
X25310343Y-20640575D01*
X25291530Y-20623380D01*
X25046520Y-20409541D01*
X24796368Y-20201951D01*
X24542728Y-19998561D01*
X24287263Y-19797320D01*
X23777538Y-19393127D01*
X23526596Y-19186086D01*
X23280492Y-18973019D01*
X23179588Y-18877121D01*
X23082424Y-18776855D01*
X22989284Y-18672426D01*
X22900465Y-18564040D01*
X22816257Y-18451897D01*
X22736946Y-18336201D01*
X22662825Y-18217155D01*
X22594190Y-18094968D01*
X22531325Y-17969838D01*
X22474527Y-17841973D01*
X22424084Y-17711577D01*
X22380284Y-17578853D01*
X22343421Y-17444001D01*
X22313791Y-17307233D01*
X22291676Y-17168748D01*
X22277374Y-17028747D01*
X22268913Y-16832910D01*
X22265949Y-16636480D01*
X22269285Y-16439878D01*
X22279698Y-16243524D01*
X22297987Y-16047839D01*
X22310331Y-15950380D01*
X22324940Y-15853242D01*
X22341913Y-15756484D01*
X22361350Y-15660159D01*
X22383345Y-15564313D01*
X22408000Y-15469003D01*
X22420200Y-15422166D01*
X22427648Y-15391158D01*
X22435446Y-15356083D01*
X22439376Y-15341735D01*
X22445715Y-15322657D01*
X22456243Y-15293714D01*
X22472755Y-15249766D01*
X23042863Y-15249766D01*
X23009496Y-15344906D01*
G37*
G36*
X25941663Y-15700499D02*
G01*
X25884735Y-15771471D01*
X25829736Y-15841246D01*
X25776292Y-15910412D01*
X25724026Y-15979563D01*
X25672575Y-16049291D01*
X25621559Y-16120186D01*
X25570608Y-16192831D01*
X25519352Y-16267825D01*
X25407976Y-16439189D01*
X25300174Y-16614650D01*
X25248374Y-16703944D01*
X25198380Y-16794301D01*
X25150497Y-16885733D01*
X25105034Y-16978256D01*
X25062283Y-17071879D01*
X25022562Y-17166621D01*
X24986165Y-17262488D01*
X24953401Y-17359501D01*
X24924575Y-17457667D01*
X24899988Y-17557004D01*
X24879949Y-17657524D01*
X24864758Y-17759240D01*
X24859116Y-17816357D01*
X24856987Y-17874023D01*
X24858218Y-17932171D01*
X24862651Y-17990747D01*
X24870133Y-18049692D01*
X24880517Y-18108942D01*
X24909352Y-18228119D01*
X24947919Y-18347800D01*
X24994984Y-18467496D01*
X25049312Y-18586734D01*
X25109669Y-18705033D01*
X25174825Y-18821902D01*
X25243538Y-18936865D01*
X25386708Y-19159145D01*
X25661457Y-19559623D01*
X25874803Y-19865584D01*
X25980489Y-20019735D01*
X26084063Y-20175371D01*
X26184449Y-20333014D01*
X26280556Y-20493184D01*
X26326667Y-20574382D01*
X26371303Y-20656412D01*
X26414319Y-20739338D01*
X26455597Y-20823220D01*
X26383928Y-20823220D01*
X26321957Y-20698920D01*
X26256496Y-20577375D01*
X26187920Y-20458268D01*
X26116609Y-20341275D01*
X26042923Y-20226081D01*
X25967247Y-20112361D01*
X25811395Y-19888077D01*
X25492184Y-19443131D01*
X25334791Y-19217350D01*
X25182858Y-18985946D01*
X25109125Y-18865306D01*
X25037587Y-18742307D01*
X25003244Y-18679857D01*
X24970171Y-18616733D01*
X24938608Y-18552907D01*
X24908797Y-18488357D01*
X24880977Y-18423049D01*
X24855389Y-18356957D01*
X24832275Y-18290052D01*
X24811880Y-18222305D01*
X24794427Y-18153691D01*
X24780175Y-18084184D01*
X24769358Y-18013749D01*
X24762217Y-17942366D01*
X24762694Y-17819706D01*
X24772667Y-17695536D01*
X24791390Y-17570270D01*
X24818117Y-17444320D01*
X24852105Y-17318079D01*
X24892618Y-17191969D01*
X24938908Y-17066392D01*
X24990231Y-16941754D01*
X25045844Y-16818464D01*
X25105011Y-16696927D01*
X25166983Y-16577559D01*
X25231018Y-16460756D01*
X25362305Y-16236498D01*
X25492934Y-16027406D01*
X25569803Y-15909835D01*
X25648556Y-15793342D01*
X25728604Y-15677945D01*
X25809358Y-15563629D01*
X25941663Y-15700499D01*
G37*
G36*
X26400873Y-21991366D02*
G01*
X26760349Y-21991366D01*
X26760349Y-21219163D01*
X27213019Y-21219163D01*
X27213019Y-21991366D01*
X27785515Y-21991366D01*
X27785515Y-22577181D01*
X25921572Y-22577181D01*
X25921572Y-20926254D01*
X26400873Y-20926254D01*
X26400873Y-21991366D01*
G37*
G36*
X27785515Y-13430284D02*
G01*
X26965582Y-13430284D01*
X26965582Y-13100701D01*
X27785515Y-13100701D01*
X27785515Y-13430284D01*
G37*
G36*
X26663464Y-16423084D02*
G01*
X26638909Y-16454206D01*
X26615207Y-16483697D01*
X26569143Y-16539685D01*
X26473989Y-16653021D01*
X26336971Y-16818487D01*
X26189895Y-17000000D01*
X26040497Y-17194190D01*
X25967349Y-17294986D01*
X25896524Y-17397684D01*
X25828990Y-17501872D01*
X25765714Y-17607122D01*
X25707668Y-17713019D01*
X25655815Y-17819135D01*
X25611125Y-17925050D01*
X25574568Y-18030349D01*
X25559639Y-18082631D01*
X25547108Y-18134603D01*
X25537093Y-18186210D01*
X25529715Y-18237397D01*
X25526269Y-18292392D01*
X25526717Y-18348108D01*
X25530762Y-18404383D01*
X25538107Y-18461069D01*
X25548455Y-18518003D01*
X25561501Y-18575039D01*
X25576956Y-18632009D01*
X25594512Y-18688773D01*
X25613877Y-18745165D01*
X25634750Y-18801035D01*
X25679823Y-18910584D01*
X25727342Y-19016177D01*
X25774920Y-19116576D01*
X25864484Y-19293247D01*
X25956783Y-19468707D01*
X26145521Y-19817886D01*
X26333001Y-20167832D01*
X26423733Y-20344266D01*
X26511102Y-20522284D01*
X26529097Y-20558694D01*
X26548260Y-20596014D01*
X26588357Y-20672251D01*
X26608412Y-20710603D01*
X26627885Y-20748738D01*
X26646350Y-20786374D01*
X26663355Y-20823220D01*
X26613086Y-20823220D01*
X26602497Y-20802491D01*
X26498635Y-20589221D01*
X26389731Y-20380835D01*
X26276992Y-20175944D01*
X26161624Y-19973173D01*
X25927835Y-19568415D01*
X25811824Y-19363659D01*
X25698018Y-19155476D01*
X25650026Y-19060827D01*
X25603390Y-18964818D01*
X25559284Y-18867354D01*
X25538549Y-18818045D01*
X25518889Y-18768341D01*
X25500451Y-18718222D01*
X25483377Y-18667679D01*
X25467821Y-18616703D01*
X25453928Y-18565280D01*
X25441844Y-18513397D01*
X25431718Y-18461041D01*
X25423695Y-18408204D01*
X25417924Y-18354873D01*
X25415917Y-18291231D01*
X25416590Y-18267601D01*
X25417790Y-18244005D01*
X25419517Y-18220448D01*
X25421766Y-18196936D01*
X25424537Y-18173478D01*
X25427832Y-18150089D01*
X25431643Y-18126770D01*
X25435977Y-18103532D01*
X25447545Y-18051152D01*
X25460945Y-17999328D01*
X25476072Y-17948049D01*
X25492817Y-17897302D01*
X25511079Y-17847071D01*
X25530747Y-17797351D01*
X25551714Y-17748120D01*
X25573880Y-17699376D01*
X25597133Y-17651097D01*
X25621369Y-17603273D01*
X25672368Y-17508950D01*
X25726028Y-17416300D01*
X25781499Y-17325225D01*
X25868371Y-17191301D01*
X25959241Y-17060243D01*
X26053251Y-16931473D01*
X26149560Y-16804424D01*
X26540862Y-16301929D01*
X26663464Y-16423084D01*
G37*
D12*
X13122419Y-30660401D02*
X13836704Y-30660401D01*
X13836704Y-30660401D02*
X13979561Y-30708020D01*
X13979561Y-30708020D02*
X14074800Y-30803258D01*
X14074800Y-30803258D02*
X14122419Y-30946115D01*
X14122419Y-30946115D02*
X14122419Y-31041353D01*
X14122419Y-29708020D02*
X14122419Y-30184210D01*
X14122419Y-30184210D02*
X13122419Y-30184210D01*
X14027180Y-28803258D02*
X14074800Y-28850877D01*
X14074800Y-28850877D02*
X14122419Y-28993734D01*
X14122419Y-28993734D02*
X14122419Y-29088972D01*
X14122419Y-29088972D02*
X14074800Y-29231829D01*
X14074800Y-29231829D02*
X13979561Y-29327067D01*
X13979561Y-29327067D02*
X13884323Y-29374686D01*
X13884323Y-29374686D02*
X13693847Y-29422305D01*
X13693847Y-29422305D02*
X13550990Y-29422305D01*
X13550990Y-29422305D02*
X13360514Y-29374686D01*
X13360514Y-29374686D02*
X13265276Y-29327067D01*
X13265276Y-29327067D02*
X13170038Y-29231829D01*
X13170038Y-29231829D02*
X13122419Y-29088972D01*
X13122419Y-29088972D02*
X13122419Y-28993734D01*
X13122419Y-28993734D02*
X13170038Y-28850877D01*
X13170038Y-28850877D02*
X13217657Y-28803258D01*
X13122419Y-28088972D02*
X13836704Y-28088972D01*
X13836704Y-28088972D02*
X13979561Y-28136591D01*
X13979561Y-28136591D02*
X14074800Y-28231829D01*
X14074800Y-28231829D02*
X14122419Y-28374686D01*
X14122419Y-28374686D02*
X14122419Y-28469924D01*
X14122419Y-27136591D02*
X14122419Y-27612781D01*
X14122419Y-27612781D02*
X13122419Y-27612781D01*
X14027180Y-26231829D02*
X14074800Y-26279448D01*
X14074800Y-26279448D02*
X14122419Y-26422305D01*
X14122419Y-26422305D02*
X14122419Y-26517543D01*
X14122419Y-26517543D02*
X14074800Y-26660400D01*
X14074800Y-26660400D02*
X13979561Y-26755638D01*
X13979561Y-26755638D02*
X13884323Y-26803257D01*
X13884323Y-26803257D02*
X13693847Y-26850876D01*
X13693847Y-26850876D02*
X13550990Y-26850876D01*
X13550990Y-26850876D02*
X13360514Y-26803257D01*
X13360514Y-26803257D02*
X13265276Y-26755638D01*
X13265276Y-26755638D02*
X13170038Y-26660400D01*
X13170038Y-26660400D02*
X13122419Y-26517543D01*
X13122419Y-26517543D02*
X13122419Y-26422305D01*
X13122419Y-26422305D02*
X13170038Y-26279448D01*
X13170038Y-26279448D02*
X13217657Y-26231829D01*
X13122419Y-25517543D02*
X13836704Y-25517543D01*
X13836704Y-25517543D02*
X13979561Y-25565162D01*
X13979561Y-25565162D02*
X14074800Y-25660400D01*
X14074800Y-25660400D02*
X14122419Y-25803257D01*
X14122419Y-25803257D02*
X14122419Y-25898495D01*
X14122419Y-24565162D02*
X14122419Y-25041352D01*
X14122419Y-25041352D02*
X13122419Y-25041352D01*
X14027180Y-23660400D02*
X14074800Y-23708019D01*
X14074800Y-23708019D02*
X14122419Y-23850876D01*
X14122419Y-23850876D02*
X14122419Y-23946114D01*
X14122419Y-23946114D02*
X14074800Y-24088971D01*
X14074800Y-24088971D02*
X13979561Y-24184209D01*
X13979561Y-24184209D02*
X13884323Y-24231828D01*
X13884323Y-24231828D02*
X13693847Y-24279447D01*
X13693847Y-24279447D02*
X13550990Y-24279447D01*
X13550990Y-24279447D02*
X13360514Y-24231828D01*
X13360514Y-24231828D02*
X13265276Y-24184209D01*
X13265276Y-24184209D02*
X13170038Y-24088971D01*
X13170038Y-24088971D02*
X13122419Y-23946114D01*
X13122419Y-23946114D02*
X13122419Y-23850876D01*
X13122419Y-23850876D02*
X13170038Y-23708019D01*
X13170038Y-23708019D02*
X13217657Y-23660400D01*
X13122419Y-22946114D02*
X13836704Y-22946114D01*
X13836704Y-22946114D02*
X13979561Y-22993733D01*
X13979561Y-22993733D02*
X14074800Y-23088971D01*
X14074800Y-23088971D02*
X14122419Y-23231828D01*
X14122419Y-23231828D02*
X14122419Y-23327066D01*
X14122419Y-21993733D02*
X14122419Y-22469923D01*
X14122419Y-22469923D02*
X13122419Y-22469923D01*
X14027180Y-21088971D02*
X14074800Y-21136590D01*
X14074800Y-21136590D02*
X14122419Y-21279447D01*
X14122419Y-21279447D02*
X14122419Y-21374685D01*
X14122419Y-21374685D02*
X14074800Y-21517542D01*
X14074800Y-21517542D02*
X13979561Y-21612780D01*
X13979561Y-21612780D02*
X13884323Y-21660399D01*
X13884323Y-21660399D02*
X13693847Y-21708018D01*
X13693847Y-21708018D02*
X13550990Y-21708018D01*
X13550990Y-21708018D02*
X13360514Y-21660399D01*
X13360514Y-21660399D02*
X13265276Y-21612780D01*
X13265276Y-21612780D02*
X13170038Y-21517542D01*
X13170038Y-21517542D02*
X13122419Y-21374685D01*
X13122419Y-21374685D02*
X13122419Y-21279447D01*
X13122419Y-21279447D02*
X13170038Y-21136590D01*
X13170038Y-21136590D02*
X13217657Y-21088971D01*
X18705752Y-44267544D02*
X19372419Y-44267544D01*
X18324800Y-44505639D02*
X19039085Y-44743734D01*
X19039085Y-44743734D02*
X19039085Y-44124687D01*
X18372419Y-43553258D02*
X18372419Y-43458020D01*
X18372419Y-43458020D02*
X18420038Y-43362782D01*
X18420038Y-43362782D02*
X18467657Y-43315163D01*
X18467657Y-43315163D02*
X18562895Y-43267544D01*
X18562895Y-43267544D02*
X18753371Y-43219925D01*
X18753371Y-43219925D02*
X18991466Y-43219925D01*
X18991466Y-43219925D02*
X19181942Y-43267544D01*
X19181942Y-43267544D02*
X19277180Y-43315163D01*
X19277180Y-43315163D02*
X19324800Y-43362782D01*
X19324800Y-43362782D02*
X19372419Y-43458020D01*
X19372419Y-43458020D02*
X19372419Y-43553258D01*
X19372419Y-43553258D02*
X19324800Y-43648496D01*
X19324800Y-43648496D02*
X19277180Y-43696115D01*
X19277180Y-43696115D02*
X19181942Y-43743734D01*
X19181942Y-43743734D02*
X18991466Y-43791353D01*
X18991466Y-43791353D02*
X18753371Y-43791353D01*
X18753371Y-43791353D02*
X18562895Y-43743734D01*
X18562895Y-43743734D02*
X18467657Y-43696115D01*
X18467657Y-43696115D02*
X18420038Y-43648496D01*
X18420038Y-43648496D02*
X18372419Y-43553258D01*
X18372419Y-42600877D02*
X18372419Y-42505639D01*
X18372419Y-42505639D02*
X18420038Y-42410401D01*
X18420038Y-42410401D02*
X18467657Y-42362782D01*
X18467657Y-42362782D02*
X18562895Y-42315163D01*
X18562895Y-42315163D02*
X18753371Y-42267544D01*
X18753371Y-42267544D02*
X18991466Y-42267544D01*
X18991466Y-42267544D02*
X19181942Y-42315163D01*
X19181942Y-42315163D02*
X19277180Y-42362782D01*
X19277180Y-42362782D02*
X19324800Y-42410401D01*
X19324800Y-42410401D02*
X19372419Y-42505639D01*
X19372419Y-42505639D02*
X19372419Y-42600877D01*
X19372419Y-42600877D02*
X19324800Y-42696115D01*
X19324800Y-42696115D02*
X19277180Y-42743734D01*
X19277180Y-42743734D02*
X19181942Y-42791353D01*
X19181942Y-42791353D02*
X18991466Y-42838972D01*
X18991466Y-42838972D02*
X18753371Y-42838972D01*
X18753371Y-42838972D02*
X18562895Y-42791353D01*
X18562895Y-42791353D02*
X18467657Y-42743734D01*
X18467657Y-42743734D02*
X18420038Y-42696115D01*
X18420038Y-42696115D02*
X18372419Y-42600877D01*
X19372419Y-41886591D02*
X19372419Y-41648496D01*
X19372419Y-41648496D02*
X19181942Y-41648496D01*
X19181942Y-41648496D02*
X19134323Y-41743734D01*
X19134323Y-41743734D02*
X19039085Y-41838972D01*
X19039085Y-41838972D02*
X18896228Y-41886591D01*
X18896228Y-41886591D02*
X18658133Y-41886591D01*
X18658133Y-41886591D02*
X18515276Y-41838972D01*
X18515276Y-41838972D02*
X18420038Y-41743734D01*
X18420038Y-41743734D02*
X18372419Y-41600877D01*
X18372419Y-41600877D02*
X18372419Y-41410401D01*
X18372419Y-41410401D02*
X18420038Y-41267544D01*
X18420038Y-41267544D02*
X18515276Y-41172306D01*
X18515276Y-41172306D02*
X18658133Y-41124687D01*
X18658133Y-41124687D02*
X18896228Y-41124687D01*
X18896228Y-41124687D02*
X19039085Y-41172306D01*
X19039085Y-41172306D02*
X19134323Y-41267544D01*
X19134323Y-41267544D02*
X19181942Y-41362782D01*
X19181942Y-41362782D02*
X19372419Y-41362782D01*
X19372419Y-41362782D02*
X19372419Y-41124687D01*
X14705752Y-44267544D02*
X15372419Y-44267544D01*
X14324800Y-44505639D02*
X15039085Y-44743734D01*
X15039085Y-44743734D02*
X15039085Y-44124687D01*
X14372419Y-43553258D02*
X14372419Y-43458020D01*
X14372419Y-43458020D02*
X14420038Y-43362782D01*
X14420038Y-43362782D02*
X14467657Y-43315163D01*
X14467657Y-43315163D02*
X14562895Y-43267544D01*
X14562895Y-43267544D02*
X14753371Y-43219925D01*
X14753371Y-43219925D02*
X14991466Y-43219925D01*
X14991466Y-43219925D02*
X15181942Y-43267544D01*
X15181942Y-43267544D02*
X15277180Y-43315163D01*
X15277180Y-43315163D02*
X15324800Y-43362782D01*
X15324800Y-43362782D02*
X15372419Y-43458020D01*
X15372419Y-43458020D02*
X15372419Y-43553258D01*
X15372419Y-43553258D02*
X15324800Y-43648496D01*
X15324800Y-43648496D02*
X15277180Y-43696115D01*
X15277180Y-43696115D02*
X15181942Y-43743734D01*
X15181942Y-43743734D02*
X14991466Y-43791353D01*
X14991466Y-43791353D02*
X14753371Y-43791353D01*
X14753371Y-43791353D02*
X14562895Y-43743734D01*
X14562895Y-43743734D02*
X14467657Y-43696115D01*
X14467657Y-43696115D02*
X14420038Y-43648496D01*
X14420038Y-43648496D02*
X14372419Y-43553258D01*
X14372419Y-42600877D02*
X14372419Y-42505639D01*
X14372419Y-42505639D02*
X14420038Y-42410401D01*
X14420038Y-42410401D02*
X14467657Y-42362782D01*
X14467657Y-42362782D02*
X14562895Y-42315163D01*
X14562895Y-42315163D02*
X14753371Y-42267544D01*
X14753371Y-42267544D02*
X14991466Y-42267544D01*
X14991466Y-42267544D02*
X15181942Y-42315163D01*
X15181942Y-42315163D02*
X15277180Y-42362782D01*
X15277180Y-42362782D02*
X15324800Y-42410401D01*
X15324800Y-42410401D02*
X15372419Y-42505639D01*
X15372419Y-42505639D02*
X15372419Y-42600877D01*
X15372419Y-42600877D02*
X15324800Y-42696115D01*
X15324800Y-42696115D02*
X15277180Y-42743734D01*
X15277180Y-42743734D02*
X15181942Y-42791353D01*
X15181942Y-42791353D02*
X14991466Y-42838972D01*
X14991466Y-42838972D02*
X14753371Y-42838972D01*
X14753371Y-42838972D02*
X14562895Y-42791353D01*
X14562895Y-42791353D02*
X14467657Y-42743734D01*
X14467657Y-42743734D02*
X14420038Y-42696115D01*
X14420038Y-42696115D02*
X14372419Y-42600877D01*
X15372419Y-41886591D02*
X15372419Y-41648496D01*
X15372419Y-41648496D02*
X15181942Y-41648496D01*
X15181942Y-41648496D02*
X15134323Y-41743734D01*
X15134323Y-41743734D02*
X15039085Y-41838972D01*
X15039085Y-41838972D02*
X14896228Y-41886591D01*
X14896228Y-41886591D02*
X14658133Y-41886591D01*
X14658133Y-41886591D02*
X14515276Y-41838972D01*
X14515276Y-41838972D02*
X14420038Y-41743734D01*
X14420038Y-41743734D02*
X14372419Y-41600877D01*
X14372419Y-41600877D02*
X14372419Y-41410401D01*
X14372419Y-41410401D02*
X14420038Y-41267544D01*
X14420038Y-41267544D02*
X14515276Y-41172306D01*
X14515276Y-41172306D02*
X14658133Y-41124687D01*
X14658133Y-41124687D02*
X14896228Y-41124687D01*
X14896228Y-41124687D02*
X15039085Y-41172306D01*
X15039085Y-41172306D02*
X15134323Y-41267544D01*
X15134323Y-41267544D02*
X15181942Y-41362782D01*
X15181942Y-41362782D02*
X15372419Y-41362782D01*
X15372419Y-41362782D02*
X15372419Y-41124687D01*
X10705752Y-44267544D02*
X11372419Y-44267544D01*
X10324800Y-44505639D02*
X11039085Y-44743734D01*
X11039085Y-44743734D02*
X11039085Y-44124687D01*
X10372419Y-43553258D02*
X10372419Y-43458020D01*
X10372419Y-43458020D02*
X10420038Y-43362782D01*
X10420038Y-43362782D02*
X10467657Y-43315163D01*
X10467657Y-43315163D02*
X10562895Y-43267544D01*
X10562895Y-43267544D02*
X10753371Y-43219925D01*
X10753371Y-43219925D02*
X10991466Y-43219925D01*
X10991466Y-43219925D02*
X11181942Y-43267544D01*
X11181942Y-43267544D02*
X11277180Y-43315163D01*
X11277180Y-43315163D02*
X11324800Y-43362782D01*
X11324800Y-43362782D02*
X11372419Y-43458020D01*
X11372419Y-43458020D02*
X11372419Y-43553258D01*
X11372419Y-43553258D02*
X11324800Y-43648496D01*
X11324800Y-43648496D02*
X11277180Y-43696115D01*
X11277180Y-43696115D02*
X11181942Y-43743734D01*
X11181942Y-43743734D02*
X10991466Y-43791353D01*
X10991466Y-43791353D02*
X10753371Y-43791353D01*
X10753371Y-43791353D02*
X10562895Y-43743734D01*
X10562895Y-43743734D02*
X10467657Y-43696115D01*
X10467657Y-43696115D02*
X10420038Y-43648496D01*
X10420038Y-43648496D02*
X10372419Y-43553258D01*
X10372419Y-42600877D02*
X10372419Y-42505639D01*
X10372419Y-42505639D02*
X10420038Y-42410401D01*
X10420038Y-42410401D02*
X10467657Y-42362782D01*
X10467657Y-42362782D02*
X10562895Y-42315163D01*
X10562895Y-42315163D02*
X10753371Y-42267544D01*
X10753371Y-42267544D02*
X10991466Y-42267544D01*
X10991466Y-42267544D02*
X11181942Y-42315163D01*
X11181942Y-42315163D02*
X11277180Y-42362782D01*
X11277180Y-42362782D02*
X11324800Y-42410401D01*
X11324800Y-42410401D02*
X11372419Y-42505639D01*
X11372419Y-42505639D02*
X11372419Y-42600877D01*
X11372419Y-42600877D02*
X11324800Y-42696115D01*
X11324800Y-42696115D02*
X11277180Y-42743734D01*
X11277180Y-42743734D02*
X11181942Y-42791353D01*
X11181942Y-42791353D02*
X10991466Y-42838972D01*
X10991466Y-42838972D02*
X10753371Y-42838972D01*
X10753371Y-42838972D02*
X10562895Y-42791353D01*
X10562895Y-42791353D02*
X10467657Y-42743734D01*
X10467657Y-42743734D02*
X10420038Y-42696115D01*
X10420038Y-42696115D02*
X10372419Y-42600877D01*
X11372419Y-41886591D02*
X11372419Y-41648496D01*
X11372419Y-41648496D02*
X11181942Y-41648496D01*
X11181942Y-41648496D02*
X11134323Y-41743734D01*
X11134323Y-41743734D02*
X11039085Y-41838972D01*
X11039085Y-41838972D02*
X10896228Y-41886591D01*
X10896228Y-41886591D02*
X10658133Y-41886591D01*
X10658133Y-41886591D02*
X10515276Y-41838972D01*
X10515276Y-41838972D02*
X10420038Y-41743734D01*
X10420038Y-41743734D02*
X10372419Y-41600877D01*
X10372419Y-41600877D02*
X10372419Y-41410401D01*
X10372419Y-41410401D02*
X10420038Y-41267544D01*
X10420038Y-41267544D02*
X10515276Y-41172306D01*
X10515276Y-41172306D02*
X10658133Y-41124687D01*
X10658133Y-41124687D02*
X10896228Y-41124687D01*
X10896228Y-41124687D02*
X11039085Y-41172306D01*
X11039085Y-41172306D02*
X11134323Y-41267544D01*
X11134323Y-41267544D02*
X11181942Y-41362782D01*
X11181942Y-41362782D02*
X11372419Y-41362782D01*
X11372419Y-41362782D02*
X11372419Y-41124687D01*
X18705752Y-10267544D02*
X19372419Y-10267544D01*
X18324800Y-10505639D02*
X19039085Y-10743734D01*
X19039085Y-10743734D02*
X19039085Y-10124687D01*
X18372419Y-9553258D02*
X18372419Y-9458020D01*
X18372419Y-9458020D02*
X18420038Y-9362782D01*
X18420038Y-9362782D02*
X18467657Y-9315163D01*
X18467657Y-9315163D02*
X18562895Y-9267544D01*
X18562895Y-9267544D02*
X18753371Y-9219925D01*
X18753371Y-9219925D02*
X18991466Y-9219925D01*
X18991466Y-9219925D02*
X19181942Y-9267544D01*
X19181942Y-9267544D02*
X19277180Y-9315163D01*
X19277180Y-9315163D02*
X19324800Y-9362782D01*
X19324800Y-9362782D02*
X19372419Y-9458020D01*
X19372419Y-9458020D02*
X19372419Y-9553258D01*
X19372419Y-9553258D02*
X19324800Y-9648496D01*
X19324800Y-9648496D02*
X19277180Y-9696115D01*
X19277180Y-9696115D02*
X19181942Y-9743734D01*
X19181942Y-9743734D02*
X18991466Y-9791353D01*
X18991466Y-9791353D02*
X18753371Y-9791353D01*
X18753371Y-9791353D02*
X18562895Y-9743734D01*
X18562895Y-9743734D02*
X18467657Y-9696115D01*
X18467657Y-9696115D02*
X18420038Y-9648496D01*
X18420038Y-9648496D02*
X18372419Y-9553258D01*
X18372419Y-8600877D02*
X18372419Y-8505639D01*
X18372419Y-8505639D02*
X18420038Y-8410401D01*
X18420038Y-8410401D02*
X18467657Y-8362782D01*
X18467657Y-8362782D02*
X18562895Y-8315163D01*
X18562895Y-8315163D02*
X18753371Y-8267544D01*
X18753371Y-8267544D02*
X18991466Y-8267544D01*
X18991466Y-8267544D02*
X19181942Y-8315163D01*
X19181942Y-8315163D02*
X19277180Y-8362782D01*
X19277180Y-8362782D02*
X19324800Y-8410401D01*
X19324800Y-8410401D02*
X19372419Y-8505639D01*
X19372419Y-8505639D02*
X19372419Y-8600877D01*
X19372419Y-8600877D02*
X19324800Y-8696115D01*
X19324800Y-8696115D02*
X19277180Y-8743734D01*
X19277180Y-8743734D02*
X19181942Y-8791353D01*
X19181942Y-8791353D02*
X18991466Y-8838972D01*
X18991466Y-8838972D02*
X18753371Y-8838972D01*
X18753371Y-8838972D02*
X18562895Y-8791353D01*
X18562895Y-8791353D02*
X18467657Y-8743734D01*
X18467657Y-8743734D02*
X18420038Y-8696115D01*
X18420038Y-8696115D02*
X18372419Y-8600877D01*
X19372419Y-7886591D02*
X19372419Y-7648496D01*
X19372419Y-7648496D02*
X19181942Y-7648496D01*
X19181942Y-7648496D02*
X19134323Y-7743734D01*
X19134323Y-7743734D02*
X19039085Y-7838972D01*
X19039085Y-7838972D02*
X18896228Y-7886591D01*
X18896228Y-7886591D02*
X18658133Y-7886591D01*
X18658133Y-7886591D02*
X18515276Y-7838972D01*
X18515276Y-7838972D02*
X18420038Y-7743734D01*
X18420038Y-7743734D02*
X18372419Y-7600877D01*
X18372419Y-7600877D02*
X18372419Y-7410401D01*
X18372419Y-7410401D02*
X18420038Y-7267544D01*
X18420038Y-7267544D02*
X18515276Y-7172306D01*
X18515276Y-7172306D02*
X18658133Y-7124687D01*
X18658133Y-7124687D02*
X18896228Y-7124687D01*
X18896228Y-7124687D02*
X19039085Y-7172306D01*
X19039085Y-7172306D02*
X19134323Y-7267544D01*
X19134323Y-7267544D02*
X19181942Y-7362782D01*
X19181942Y-7362782D02*
X19372419Y-7362782D01*
X19372419Y-7362782D02*
X19372419Y-7124687D01*
X14705752Y-10267544D02*
X15372419Y-10267544D01*
X14324800Y-10505639D02*
X15039085Y-10743734D01*
X15039085Y-10743734D02*
X15039085Y-10124687D01*
X14372419Y-9553258D02*
X14372419Y-9458020D01*
X14372419Y-9458020D02*
X14420038Y-9362782D01*
X14420038Y-9362782D02*
X14467657Y-9315163D01*
X14467657Y-9315163D02*
X14562895Y-9267544D01*
X14562895Y-9267544D02*
X14753371Y-9219925D01*
X14753371Y-9219925D02*
X14991466Y-9219925D01*
X14991466Y-9219925D02*
X15181942Y-9267544D01*
X15181942Y-9267544D02*
X15277180Y-9315163D01*
X15277180Y-9315163D02*
X15324800Y-9362782D01*
X15324800Y-9362782D02*
X15372419Y-9458020D01*
X15372419Y-9458020D02*
X15372419Y-9553258D01*
X15372419Y-9553258D02*
X15324800Y-9648496D01*
X15324800Y-9648496D02*
X15277180Y-9696115D01*
X15277180Y-9696115D02*
X15181942Y-9743734D01*
X15181942Y-9743734D02*
X14991466Y-9791353D01*
X14991466Y-9791353D02*
X14753371Y-9791353D01*
X14753371Y-9791353D02*
X14562895Y-9743734D01*
X14562895Y-9743734D02*
X14467657Y-9696115D01*
X14467657Y-9696115D02*
X14420038Y-9648496D01*
X14420038Y-9648496D02*
X14372419Y-9553258D01*
X14372419Y-8600877D02*
X14372419Y-8505639D01*
X14372419Y-8505639D02*
X14420038Y-8410401D01*
X14420038Y-8410401D02*
X14467657Y-8362782D01*
X14467657Y-8362782D02*
X14562895Y-8315163D01*
X14562895Y-8315163D02*
X14753371Y-8267544D01*
X14753371Y-8267544D02*
X14991466Y-8267544D01*
X14991466Y-8267544D02*
X15181942Y-8315163D01*
X15181942Y-8315163D02*
X15277180Y-8362782D01*
X15277180Y-8362782D02*
X15324800Y-8410401D01*
X15324800Y-8410401D02*
X15372419Y-8505639D01*
X15372419Y-8505639D02*
X15372419Y-8600877D01*
X15372419Y-8600877D02*
X15324800Y-8696115D01*
X15324800Y-8696115D02*
X15277180Y-8743734D01*
X15277180Y-8743734D02*
X15181942Y-8791353D01*
X15181942Y-8791353D02*
X14991466Y-8838972D01*
X14991466Y-8838972D02*
X14753371Y-8838972D01*
X14753371Y-8838972D02*
X14562895Y-8791353D01*
X14562895Y-8791353D02*
X14467657Y-8743734D01*
X14467657Y-8743734D02*
X14420038Y-8696115D01*
X14420038Y-8696115D02*
X14372419Y-8600877D01*
X15372419Y-7886591D02*
X15372419Y-7648496D01*
X15372419Y-7648496D02*
X15181942Y-7648496D01*
X15181942Y-7648496D02*
X15134323Y-7743734D01*
X15134323Y-7743734D02*
X15039085Y-7838972D01*
X15039085Y-7838972D02*
X14896228Y-7886591D01*
X14896228Y-7886591D02*
X14658133Y-7886591D01*
X14658133Y-7886591D02*
X14515276Y-7838972D01*
X14515276Y-7838972D02*
X14420038Y-7743734D01*
X14420038Y-7743734D02*
X14372419Y-7600877D01*
X14372419Y-7600877D02*
X14372419Y-7410401D01*
X14372419Y-7410401D02*
X14420038Y-7267544D01*
X14420038Y-7267544D02*
X14515276Y-7172306D01*
X14515276Y-7172306D02*
X14658133Y-7124687D01*
X14658133Y-7124687D02*
X14896228Y-7124687D01*
X14896228Y-7124687D02*
X15039085Y-7172306D01*
X15039085Y-7172306D02*
X15134323Y-7267544D01*
X15134323Y-7267544D02*
X15181942Y-7362782D01*
X15181942Y-7362782D02*
X15372419Y-7362782D01*
X15372419Y-7362782D02*
X15372419Y-7124687D01*
X10705752Y-10267544D02*
X11372419Y-10267544D01*
X10324800Y-10505639D02*
X11039085Y-10743734D01*
X11039085Y-10743734D02*
X11039085Y-10124687D01*
X10372419Y-9553258D02*
X10372419Y-9458020D01*
X10372419Y-9458020D02*
X10420038Y-9362782D01*
X10420038Y-9362782D02*
X10467657Y-9315163D01*
X10467657Y-9315163D02*
X10562895Y-9267544D01*
X10562895Y-9267544D02*
X10753371Y-9219925D01*
X10753371Y-9219925D02*
X10991466Y-9219925D01*
X10991466Y-9219925D02*
X11181942Y-9267544D01*
X11181942Y-9267544D02*
X11277180Y-9315163D01*
X11277180Y-9315163D02*
X11324800Y-9362782D01*
X11324800Y-9362782D02*
X11372419Y-9458020D01*
X11372419Y-9458020D02*
X11372419Y-9553258D01*
X11372419Y-9553258D02*
X11324800Y-9648496D01*
X11324800Y-9648496D02*
X11277180Y-9696115D01*
X11277180Y-9696115D02*
X11181942Y-9743734D01*
X11181942Y-9743734D02*
X10991466Y-9791353D01*
X10991466Y-9791353D02*
X10753371Y-9791353D01*
X10753371Y-9791353D02*
X10562895Y-9743734D01*
X10562895Y-9743734D02*
X10467657Y-9696115D01*
X10467657Y-9696115D02*
X10420038Y-9648496D01*
X10420038Y-9648496D02*
X10372419Y-9553258D01*
X10372419Y-8600877D02*
X10372419Y-8505639D01*
X10372419Y-8505639D02*
X10420038Y-8410401D01*
X10420038Y-8410401D02*
X10467657Y-8362782D01*
X10467657Y-8362782D02*
X10562895Y-8315163D01*
X10562895Y-8315163D02*
X10753371Y-8267544D01*
X10753371Y-8267544D02*
X10991466Y-8267544D01*
X10991466Y-8267544D02*
X11181942Y-8315163D01*
X11181942Y-8315163D02*
X11277180Y-8362782D01*
X11277180Y-8362782D02*
X11324800Y-8410401D01*
X11324800Y-8410401D02*
X11372419Y-8505639D01*
X11372419Y-8505639D02*
X11372419Y-8600877D01*
X11372419Y-8600877D02*
X11324800Y-8696115D01*
X11324800Y-8696115D02*
X11277180Y-8743734D01*
X11277180Y-8743734D02*
X11181942Y-8791353D01*
X11181942Y-8791353D02*
X10991466Y-8838972D01*
X10991466Y-8838972D02*
X10753371Y-8838972D01*
X10753371Y-8838972D02*
X10562895Y-8791353D01*
X10562895Y-8791353D02*
X10467657Y-8743734D01*
X10467657Y-8743734D02*
X10420038Y-8696115D01*
X10420038Y-8696115D02*
X10372419Y-8600877D01*
X11372419Y-7886591D02*
X11372419Y-7648496D01*
X11372419Y-7648496D02*
X11181942Y-7648496D01*
X11181942Y-7648496D02*
X11134323Y-7743734D01*
X11134323Y-7743734D02*
X11039085Y-7838972D01*
X11039085Y-7838972D02*
X10896228Y-7886591D01*
X10896228Y-7886591D02*
X10658133Y-7886591D01*
X10658133Y-7886591D02*
X10515276Y-7838972D01*
X10515276Y-7838972D02*
X10420038Y-7743734D01*
X10420038Y-7743734D02*
X10372419Y-7600877D01*
X10372419Y-7600877D02*
X10372419Y-7410401D01*
X10372419Y-7410401D02*
X10420038Y-7267544D01*
X10420038Y-7267544D02*
X10515276Y-7172306D01*
X10515276Y-7172306D02*
X10658133Y-7124687D01*
X10658133Y-7124687D02*
X10896228Y-7124687D01*
X10896228Y-7124687D02*
X11039085Y-7172306D01*
X11039085Y-7172306D02*
X11134323Y-7267544D01*
X11134323Y-7267544D02*
X11181942Y-7362782D01*
X11181942Y-7362782D02*
X11372419Y-7362782D01*
X11372419Y-7362782D02*
X11372419Y-7124687D01*
D10*
X8983082Y-18872257D02*
X9697368Y-18872257D01*
X8840225Y-19300828D02*
X9340225Y-17800828D01*
X9340225Y-17800828D02*
X9840225Y-19300828D01*
X11125939Y-19300828D02*
X10268796Y-19300828D01*
X10697367Y-19300828D02*
X10697367Y-17800828D01*
X10697367Y-17800828D02*
X10554510Y-18015114D01*
X10554510Y-18015114D02*
X10411653Y-18157971D01*
X10411653Y-18157971D02*
X10268796Y-18229400D01*
X8983082Y-31372257D02*
X9697368Y-31372257D01*
X8840225Y-31800828D02*
X9340225Y-30300828D01*
X9340225Y-30300828D02*
X9840225Y-31800828D01*
X10983082Y-30300828D02*
X10697367Y-30300828D01*
X10697367Y-30300828D02*
X10554510Y-30372257D01*
X10554510Y-30372257D02*
X10483082Y-30443685D01*
X10483082Y-30443685D02*
X10340224Y-30657971D01*
X10340224Y-30657971D02*
X10268796Y-30943685D01*
X10268796Y-30943685D02*
X10268796Y-31515114D01*
X10268796Y-31515114D02*
X10340224Y-31657971D01*
X10340224Y-31657971D02*
X10411653Y-31729400D01*
X10411653Y-31729400D02*
X10554510Y-31800828D01*
X10554510Y-31800828D02*
X10840224Y-31800828D01*
X10840224Y-31800828D02*
X10983082Y-31729400D01*
X10983082Y-31729400D02*
X11054510Y-31657971D01*
X11054510Y-31657971D02*
X11125939Y-31515114D01*
X11125939Y-31515114D02*
X11125939Y-31157971D01*
X11125939Y-31157971D02*
X11054510Y-31015114D01*
X11054510Y-31015114D02*
X10983082Y-30943685D01*
X10983082Y-30943685D02*
X10840224Y-30872257D01*
X10840224Y-30872257D02*
X10554510Y-30872257D01*
X10554510Y-30872257D02*
X10411653Y-30943685D01*
X10411653Y-30943685D02*
X10340224Y-31015114D01*
X10340224Y-31015114D02*
X10268796Y-31157971D01*
X8983082Y-28872257D02*
X9697368Y-28872257D01*
X8840225Y-29300828D02*
X9340225Y-27800828D01*
X9340225Y-27800828D02*
X9840225Y-29300828D01*
X11054510Y-27800828D02*
X10340224Y-27800828D01*
X10340224Y-27800828D02*
X10268796Y-28515114D01*
X10268796Y-28515114D02*
X10340224Y-28443685D01*
X10340224Y-28443685D02*
X10483082Y-28372257D01*
X10483082Y-28372257D02*
X10840224Y-28372257D01*
X10840224Y-28372257D02*
X10983082Y-28443685D01*
X10983082Y-28443685D02*
X11054510Y-28515114D01*
X11054510Y-28515114D02*
X11125939Y-28657971D01*
X11125939Y-28657971D02*
X11125939Y-29015114D01*
X11125939Y-29015114D02*
X11054510Y-29157971D01*
X11054510Y-29157971D02*
X10983082Y-29229400D01*
X10983082Y-29229400D02*
X10840224Y-29300828D01*
X10840224Y-29300828D02*
X10483082Y-29300828D01*
X10483082Y-29300828D02*
X10340224Y-29229400D01*
X10340224Y-29229400D02*
X10268796Y-29157971D01*
X8983082Y-23872257D02*
X9697368Y-23872257D01*
X8840225Y-24300828D02*
X9340225Y-22800828D01*
X9340225Y-22800828D02*
X9840225Y-24300828D01*
X10197367Y-22800828D02*
X11125939Y-22800828D01*
X11125939Y-22800828D02*
X10625939Y-23372257D01*
X10625939Y-23372257D02*
X10840224Y-23372257D01*
X10840224Y-23372257D02*
X10983082Y-23443685D01*
X10983082Y-23443685D02*
X11054510Y-23515114D01*
X11054510Y-23515114D02*
X11125939Y-23657971D01*
X11125939Y-23657971D02*
X11125939Y-24015114D01*
X11125939Y-24015114D02*
X11054510Y-24157971D01*
X11054510Y-24157971D02*
X10983082Y-24229400D01*
X10983082Y-24229400D02*
X10840224Y-24300828D01*
X10840224Y-24300828D02*
X10411653Y-24300828D01*
X10411653Y-24300828D02*
X10268796Y-24229400D01*
X10268796Y-24229400D02*
X10197367Y-24157971D01*
X8983082Y-21372257D02*
X9697368Y-21372257D01*
X8840225Y-21800828D02*
X9340225Y-20300828D01*
X9340225Y-20300828D02*
X9840225Y-21800828D01*
X10268796Y-20443685D02*
X10340224Y-20372257D01*
X10340224Y-20372257D02*
X10483082Y-20300828D01*
X10483082Y-20300828D02*
X10840224Y-20300828D01*
X10840224Y-20300828D02*
X10983082Y-20372257D01*
X10983082Y-20372257D02*
X11054510Y-20443685D01*
X11054510Y-20443685D02*
X11125939Y-20586542D01*
X11125939Y-20586542D02*
X11125939Y-20729400D01*
X11125939Y-20729400D02*
X11054510Y-20943685D01*
X11054510Y-20943685D02*
X10197367Y-21800828D01*
X10197367Y-21800828D02*
X11125939Y-21800828D01*
X8983082Y-26372257D02*
X9697368Y-26372257D01*
X8840225Y-26800828D02*
X9340225Y-25300828D01*
X9340225Y-25300828D02*
X9840225Y-26800828D01*
X10983082Y-25800828D02*
X10983082Y-26800828D01*
X10625939Y-25229400D02*
X10268796Y-26300828D01*
X10268796Y-26300828D02*
X11197367Y-26300828D01*
X5768796Y-33729400D02*
X6911654Y-33729400D01*
X6340225Y-34300828D02*
X6340225Y-33157971D01*
X8411654Y-34300828D02*
X7554511Y-34300828D01*
X7983082Y-34300828D02*
X7983082Y-32800828D01*
X7983082Y-32800828D02*
X7840225Y-33015114D01*
X7840225Y-33015114D02*
X7697368Y-33157971D01*
X7697368Y-33157971D02*
X7554511Y-33229400D01*
X8983082Y-32943685D02*
X9054510Y-32872257D01*
X9054510Y-32872257D02*
X9197368Y-32800828D01*
X9197368Y-32800828D02*
X9554510Y-32800828D01*
X9554510Y-32800828D02*
X9697368Y-32872257D01*
X9697368Y-32872257D02*
X9768796Y-32943685D01*
X9768796Y-32943685D02*
X9840225Y-33086542D01*
X9840225Y-33086542D02*
X9840225Y-33229400D01*
X9840225Y-33229400D02*
X9768796Y-33443685D01*
X9768796Y-33443685D02*
X8911653Y-34300828D01*
X8911653Y-34300828D02*
X9840225Y-34300828D01*
X10268796Y-32800828D02*
X10768796Y-34300828D01*
X10768796Y-34300828D02*
X11268796Y-32800828D01*
D13*
X18833333Y-2454819D02*
X18500000Y-1978628D01*
X18261905Y-2454819D02*
X18261905Y-1454819D01*
X18261905Y-1454819D02*
X18642857Y-1454819D01*
X18642857Y-1454819D02*
X18738095Y-1502438D01*
X18738095Y-1502438D02*
X18785714Y-1550057D01*
X18785714Y-1550057D02*
X18833333Y-1645295D01*
X18833333Y-1645295D02*
X18833333Y-1788152D01*
X18833333Y-1788152D02*
X18785714Y-1883390D01*
X18785714Y-1883390D02*
X18738095Y-1931009D01*
X18738095Y-1931009D02*
X18642857Y-1978628D01*
X18642857Y-1978628D02*
X18261905Y-1978628D01*
X19785714Y-2454819D02*
X19214286Y-2454819D01*
X19500000Y-2454819D02*
X19500000Y-1454819D01*
X19500000Y-1454819D02*
X19404762Y-1597676D01*
X19404762Y-1597676D02*
X19309524Y-1692914D01*
X19309524Y-1692914D02*
X19214286Y-1740533D01*
X10833333Y-2454819D02*
X10500000Y-1978628D01*
X10261905Y-2454819D02*
X10261905Y-1454819D01*
X10261905Y-1454819D02*
X10642857Y-1454819D01*
X10642857Y-1454819D02*
X10738095Y-1502438D01*
X10738095Y-1502438D02*
X10785714Y-1550057D01*
X10785714Y-1550057D02*
X10833333Y-1645295D01*
X10833333Y-1645295D02*
X10833333Y-1788152D01*
X10833333Y-1788152D02*
X10785714Y-1883390D01*
X10785714Y-1883390D02*
X10738095Y-1931009D01*
X10738095Y-1931009D02*
X10642857Y-1978628D01*
X10642857Y-1978628D02*
X10261905Y-1978628D01*
X11214286Y-1550057D02*
X11261905Y-1502438D01*
X11261905Y-1502438D02*
X11357143Y-1454819D01*
X11357143Y-1454819D02*
X11595238Y-1454819D01*
X11595238Y-1454819D02*
X11690476Y-1502438D01*
X11690476Y-1502438D02*
X11738095Y-1550057D01*
X11738095Y-1550057D02*
X11785714Y-1645295D01*
X11785714Y-1645295D02*
X11785714Y-1740533D01*
X11785714Y-1740533D02*
X11738095Y-1883390D01*
X11738095Y-1883390D02*
X11166667Y-2454819D01*
X11166667Y-2454819D02*
X11785714Y-2454819D01*
X14833333Y-2454819D02*
X14500000Y-1978628D01*
X14261905Y-2454819D02*
X14261905Y-1454819D01*
X14261905Y-1454819D02*
X14642857Y-1454819D01*
X14642857Y-1454819D02*
X14738095Y-1502438D01*
X14738095Y-1502438D02*
X14785714Y-1550057D01*
X14785714Y-1550057D02*
X14833333Y-1645295D01*
X14833333Y-1645295D02*
X14833333Y-1788152D01*
X14833333Y-1788152D02*
X14785714Y-1883390D01*
X14785714Y-1883390D02*
X14738095Y-1931009D01*
X14738095Y-1931009D02*
X14642857Y-1978628D01*
X14642857Y-1978628D02*
X14261905Y-1978628D01*
X15166667Y-1454819D02*
X15785714Y-1454819D01*
X15785714Y-1454819D02*
X15452381Y-1835771D01*
X15452381Y-1835771D02*
X15595238Y-1835771D01*
X15595238Y-1835771D02*
X15690476Y-1883390D01*
X15690476Y-1883390D02*
X15738095Y-1931009D01*
X15738095Y-1931009D02*
X15785714Y-2026247D01*
X15785714Y-2026247D02*
X15785714Y-2264342D01*
X15785714Y-2264342D02*
X15738095Y-2359580D01*
X15738095Y-2359580D02*
X15690476Y-2407200D01*
X15690476Y-2407200D02*
X15595238Y-2454819D01*
X15595238Y-2454819D02*
X15309524Y-2454819D01*
X15309524Y-2454819D02*
X15214286Y-2407200D01*
X15214286Y-2407200D02*
X15166667Y-2359580D01*
X10833333Y-50454819D02*
X10500000Y-49978628D01*
X10261905Y-50454819D02*
X10261905Y-49454819D01*
X10261905Y-49454819D02*
X10642857Y-49454819D01*
X10642857Y-49454819D02*
X10738095Y-49502438D01*
X10738095Y-49502438D02*
X10785714Y-49550057D01*
X10785714Y-49550057D02*
X10833333Y-49645295D01*
X10833333Y-49645295D02*
X10833333Y-49788152D01*
X10833333Y-49788152D02*
X10785714Y-49883390D01*
X10785714Y-49883390D02*
X10738095Y-49931009D01*
X10738095Y-49931009D02*
X10642857Y-49978628D01*
X10642857Y-49978628D02*
X10261905Y-49978628D01*
X11690476Y-49454819D02*
X11500000Y-49454819D01*
X11500000Y-49454819D02*
X11404762Y-49502438D01*
X11404762Y-49502438D02*
X11357143Y-49550057D01*
X11357143Y-49550057D02*
X11261905Y-49692914D01*
X11261905Y-49692914D02*
X11214286Y-49883390D01*
X11214286Y-49883390D02*
X11214286Y-50264342D01*
X11214286Y-50264342D02*
X11261905Y-50359580D01*
X11261905Y-50359580D02*
X11309524Y-50407200D01*
X11309524Y-50407200D02*
X11404762Y-50454819D01*
X11404762Y-50454819D02*
X11595238Y-50454819D01*
X11595238Y-50454819D02*
X11690476Y-50407200D01*
X11690476Y-50407200D02*
X11738095Y-50359580D01*
X11738095Y-50359580D02*
X11785714Y-50264342D01*
X11785714Y-50264342D02*
X11785714Y-50026247D01*
X11785714Y-50026247D02*
X11738095Y-49931009D01*
X11738095Y-49931009D02*
X11690476Y-49883390D01*
X11690476Y-49883390D02*
X11595238Y-49835771D01*
X11595238Y-49835771D02*
X11404762Y-49835771D01*
X11404762Y-49835771D02*
X11309524Y-49883390D01*
X11309524Y-49883390D02*
X11261905Y-49931009D01*
X11261905Y-49931009D02*
X11214286Y-50026247D01*
X14833333Y-50454819D02*
X14500000Y-49978628D01*
X14261905Y-50454819D02*
X14261905Y-49454819D01*
X14261905Y-49454819D02*
X14642857Y-49454819D01*
X14642857Y-49454819D02*
X14738095Y-49502438D01*
X14738095Y-49502438D02*
X14785714Y-49550057D01*
X14785714Y-49550057D02*
X14833333Y-49645295D01*
X14833333Y-49645295D02*
X14833333Y-49788152D01*
X14833333Y-49788152D02*
X14785714Y-49883390D01*
X14785714Y-49883390D02*
X14738095Y-49931009D01*
X14738095Y-49931009D02*
X14642857Y-49978628D01*
X14642857Y-49978628D02*
X14261905Y-49978628D01*
X15690476Y-49788152D02*
X15690476Y-50454819D01*
X15452381Y-49407200D02*
X15214286Y-50121485D01*
X15214286Y-50121485D02*
X15833333Y-50121485D01*
X18833333Y-50454819D02*
X18500000Y-49978628D01*
X18261905Y-50454819D02*
X18261905Y-49454819D01*
X18261905Y-49454819D02*
X18642857Y-49454819D01*
X18642857Y-49454819D02*
X18738095Y-49502438D01*
X18738095Y-49502438D02*
X18785714Y-49550057D01*
X18785714Y-49550057D02*
X18833333Y-49645295D01*
X18833333Y-49645295D02*
X18833333Y-49788152D01*
X18833333Y-49788152D02*
X18785714Y-49883390D01*
X18785714Y-49883390D02*
X18738095Y-49931009D01*
X18738095Y-49931009D02*
X18642857Y-49978628D01*
X18642857Y-49978628D02*
X18261905Y-49978628D01*
X19738095Y-49454819D02*
X19261905Y-49454819D01*
X19261905Y-49454819D02*
X19214286Y-49931009D01*
X19214286Y-49931009D02*
X19261905Y-49883390D01*
X19261905Y-49883390D02*
X19357143Y-49835771D01*
X19357143Y-49835771D02*
X19595238Y-49835771D01*
X19595238Y-49835771D02*
X19690476Y-49883390D01*
X19690476Y-49883390D02*
X19738095Y-49931009D01*
X19738095Y-49931009D02*
X19785714Y-50026247D01*
X19785714Y-50026247D02*
X19785714Y-50264342D01*
X19785714Y-50264342D02*
X19738095Y-50359580D01*
X19738095Y-50359580D02*
X19690476Y-50407200D01*
X19690476Y-50407200D02*
X19595238Y-50454819D01*
X19595238Y-50454819D02*
X19357143Y-50454819D01*
X19357143Y-50454819D02*
X19261905Y-50407200D01*
X19261905Y-50407200D02*
X19214286Y-50359580D01*
D14*
X19000000Y-4960000D02*
X19000000Y-5730000D01*
X19000000Y-13040000D02*
X19000000Y-12270000D01*
X17630000Y-5730000D02*
X20370000Y-5730000D01*
X20370000Y-12270000D01*
X17630000Y-12270000D01*
X17630000Y-5730000D01*
X11000000Y-4960000D02*
X11000000Y-5730000D01*
X11000000Y-13040000D02*
X11000000Y-12270000D01*
X9630000Y-5730000D02*
X12370000Y-5730000D01*
X12370000Y-12270000D01*
X9630000Y-12270000D01*
X9630000Y-5730000D01*
X15000000Y-4960000D02*
X15000000Y-5730000D01*
X15000000Y-13040000D02*
X15000000Y-12270000D01*
X13630000Y-5730000D02*
X16370000Y-5730000D01*
X16370000Y-12270000D01*
X13630000Y-12270000D01*
X13630000Y-5730000D01*
X9630000Y-39730000D02*
X12370000Y-39730000D01*
X12370000Y-46270000D01*
X9630000Y-46270000D01*
X9630000Y-39730000D01*
X11000000Y-38960000D02*
X11000000Y-39730000D01*
X11000000Y-47040000D02*
X11000000Y-46270000D01*
X15000000Y-47040000D02*
X15000000Y-46270000D01*
X15000000Y-38960000D02*
X15000000Y-39730000D01*
X13630000Y-39730000D02*
X16370000Y-39730000D01*
X16370000Y-46270000D01*
X13630000Y-46270000D01*
X13630000Y-39730000D01*
X12490000Y-15940000D02*
X18460000Y-15940000D01*
X18460000Y-36060000D01*
X12490000Y-36060000D01*
X12490000Y-15940000D01*
X17700000Y-34250000D02*
X18450000Y-34250000D01*
X18450000Y-36050000D01*
X17700000Y-36050000D01*
X17700000Y-34250000D01*
X17700000Y-19250000D02*
X18450000Y-19250000D01*
X18450000Y-32750000D01*
X17700000Y-32750000D01*
X17700000Y-19250000D01*
X17700000Y-15950000D02*
X18450000Y-15950000D01*
X18450000Y-17750000D01*
X17700000Y-17750000D01*
X17700000Y-15950000D01*
X18750000Y-16900000D02*
X18750000Y-15650000D01*
X18750000Y-15650000D02*
X17500000Y-15650000D01*
X16200000Y-36050000D02*
X16200000Y-35300000D01*
X16200000Y-35300000D02*
X13250000Y-35300000D01*
X16200000Y-16700000D02*
X13250000Y-16700000D01*
X16200000Y-15950000D02*
X16200000Y-16700000D01*
X13250000Y-35300000D02*
X13250000Y-26000000D01*
X13250000Y-16700000D02*
X13250000Y-26000000D01*
X19000000Y-47040000D02*
X19000000Y-46270000D01*
X19000000Y-38960000D02*
X19000000Y-39730000D01*
X17630000Y-39730000D02*
X20370000Y-39730000D01*
X20370000Y-46270000D01*
X17630000Y-46270000D01*
X17630000Y-39730000D01*
M02*
