M48
; DRILL file KiCad 10.0.0 date 2026-04-06T16:12:27
; FORMAT={-:-/ absolute / metric / decimal}
; #@! TF.CreationDate,2026-04-06T16:12:27-07:00
; #@! TF.GenerationSoftware,Kicad,Pcbnew,10.0.0
; #@! TF.FileFunction,Plated,1,4,PTH
FMAT,2
METRIC
; #@! TA.AperFunction,Plated,PTH,ComponentDrill
T1C0.800
; #@! TA.AperFunction,Plated,PTH,ComponentDrill
T2C0.900
; #@! TA.AperFunction,Plated,PTH,ComponentDrill
T3C0.950
%
G90
G05
T1
X11.0Y-3.92
X11.0Y-14.08
X11.0Y-37.92
X11.0Y-48.08
X15.0Y-3.92
X15.0Y-14.08
X15.0Y-37.92
X15.0Y-48.08
X19.0Y-3.92
X19.0Y-14.08
X19.0Y-37.92
X19.0Y-48.08
T2
X3.46Y-10.0
X3.46Y-25.0
X3.46Y-40.0
X6.0Y-10.0
X6.0Y-25.0
X6.0Y-40.0
X23.46Y-10.0
X23.46Y-25.0
X23.46Y-40.0
X26.0Y-10.0
X26.0Y-25.0
X26.0Y-40.0
T3
X16.0Y-18.5
X16.0Y-21.0
X16.0Y-23.5
X16.0Y-26.0
X16.0Y-28.5
X16.0Y-31.0
X16.0Y-33.5
M30
