<?xml version="1.0" encoding="UTF-8"?>
<!-- Generated by Pixelmator Pro Trial 3.6.6 -->
<svg width="2217" height="1467" viewBox="0 0 2217 1467" xmlns="http://www.w3.org/2000/svg">
    <path id="Rectangle-copy" fill="none" stroke="#000000" stroke-width="8" d="M 453 143 L 578 143 L 578 0 L 453 0 Z"/>
    <path id="Rectangle-copy-2" fill="none" stroke="#000000" stroke-width="8" d="M 578 143 L 703 143 L 703 0 L 578 0 Z"/>
    <g id="Ch1">
        <path id="Rectangle" fill="none" stroke="#000000" stroke-width="8" d="M 1851 1467 L 2201 1467 L 2201 1324 L 1851 1324 Z"/>
        <path id="path1" fill="none" stroke="#000000" stroke-width="8" d="M 1851 1467 L 1968 1467 L 1968 1324 L 1851 1324 Z"/>
        <path id="path2" fill="none" stroke="#000000" stroke-width="8" d="M 2084 1467 L 2201 1467 L 2201 1324 L 2084 1324 Z"/>
        <path id="Path" fill="none" stroke="#000000" stroke-width="8" d="M 1885 1324 L 1885 1271 L 1931 1271"/>
        <path id="Path-copy" fill="none" stroke="#000000" stroke-width="8" d="M 2171 1324 L 2171 1271 L 2125 1271"/>
        <path id="Shape" fill="none" stroke="#000000" stroke-width="5" d="M 2125 1272 C 2125 1269.238525 2122.761475 1267 2120 1267 C 2117.238525 1267 2115 1269.238525 2115 1272 C 2115 1274.761475 2117.238525 1277 2120 1277 C 2122.761475 1277 2125 1274.761475 2125 1272 Z"/>
        <path id="Shape-copy" fill="none" stroke="#000000" stroke-width="5" d="M 1939 1272 C 1939 1269.238525 1936.761475 1267 1934 1267 C 1931.238525 1267 1929 1269.238525 1929 1272 C 1929 1274.761475 1931.238525 1277 1934 1277 C 1936.761475 1277 1939 1274.761475 1939 1272 Z"/>
        <path id="Shape-copy-2" fill="none" stroke="#000000" stroke-width="5" d="M 2114 1257 C 2114 1254.238525 2111.761475 1252 2109 1252 C 2106.238525 1252 2104 1254.238525 2104 1257 C 2104 1259.761475 2106.238525 1262 2109 1262 C 2111.761475 1262 2114 1259.761475 2114 1257 Z"/>
        <path id="path3" fill="none" stroke="#000000" stroke-width="5" d="M 2026 1326 L 2026 1303 L 2105 1260"/>
        <path id="path4" fill="none" stroke="#000000" stroke-width="8" d="M 1932 1380 C 1932 1368.954346 1923.045654 1360 1912 1360 C 1900.954346 1360 1892 1368.954346 1892 1380 C 1892 1391.045654 1900.954346 1400 1912 1400 C 1923.045654 1400 1932 1391.045654 1932 1380 Z"/>
        <path id="path5" fill="none" stroke="#000000" stroke-width="8" d="M 2049 1380 C 2049 1368.954346 2040.045654 1360 2029 1360 C 2017.954346 1360 2009 1368.954346 2009 1380 C 2009 1391.045654 2017.954346 1400 2029 1400 C 2040.045654 1400 2049 1391.045654 2049 1380 Z"/>
        <path id="path6" fill="none" stroke="#000000" stroke-width="8" d="M 2165 1380 C 2165 1368.954346 2156.045654 1360 2145 1360 C 2133.954346 1360 2125 1368.954346 2125 1380 C 2125 1391.045654 2133.954346 1400 2145 1400 C 2156.045654 1400 2165 1391.045654 2165 1380 Z"/>
    </g>
    <path id="Fan-Low" fill="#000000" fill-rule="evenodd" stroke="none" d="M 1931 1062.728027 L 1908.920044 1069.640015 L 1906.52002 1069.640015 L 1906.52002 1060.664063 L 1922.359985 1056.296021 L 1922.359985 1055.335938 L 1913.047974 1052.216064 L 1908.920044 1053.271973 L 1906.52002 1053.271973 L 1906.52002 1044.488037 L 1922.359985 1041.031982 L 1922.359985 1040.072021 L 1906.52002 1035.560059 L 1906.52002 1026.823975 L 1908.920044 1026.823975 L 1931 1033.592041 L 1931 1045.592041 L 1923.319946 1047.703979 L 1923.319946 1048.664063 L 1931 1050.968018 Z M 1931 1094.359985 L 1925.23999 1100.119995 L 1912.280029 1100.119995 L 1906.52002 1094.359985 L 1906.52002 1078.280029 L 1912.280029 1072.52002 L 1925.23999 1072.52002 L 1931 1078.280029 Z M 1923.319946 1089.079956 L 1923.319946 1083.560059 L 1922.119995 1082.359985 L 1915.400024 1082.359985 L 1914.199951 1083.560059 L 1914.199951 1089.079956 L 1915.400024 1090.280029 L 1922.119995 1090.280029 Z M 1931 1130.119995 L 1897.400024 1130.119995 L 1897.400024 1119.560059 L 1921.880005 1119.560059 L 1921.880005 1102.280029 L 1931 1102.280029 Z M 1931 1180.280029 L 1906.52002 1180.280029 L 1906.52002 1172.359985 L 1908.439941 1172.359985 L 1908.439941 1171.400024 L 1906.52002 1169.23999 L 1906.52002 1158.679932 L 1912.040039 1153.160034 L 1931 1153.160034 L 1931 1163 L 1915.160034 1163 L 1914.199951 1163.959961 L 1914.199951 1169 L 1915.400024 1170.439941 L 1931 1170.439941 Z M 1931 1208.599976 L 1926.439941 1213.160034 L 1920.439941 1213.160034 L 1915.880005 1208.599976 L 1915.880005 1195.640015 L 1914.680054 1195.640015 L 1913.719971 1196.599976 L 1913.719971 1209.800049 L 1906.52002 1209.800049 L 1906.52002 1190.839966 L 1911.560059 1185.800049 L 1931 1185.800049 L 1931 1193.719971 L 1929.319946 1193.719971 L 1929.319946 1194.439941 L 1931 1196.359985 Z M 1924.280029 1202.599976 L 1924.280029 1196.839966 L 1923.319946 1195.640015 L 1920.920044 1195.640015 L 1920.920044 1202.359985 L 1921.880005 1203.320068 L 1923.560059 1203.320068 Z M 1931 1242.920044 L 1897.400024 1242.920044 L 1897.400024 1213.160034 L 1906.040039 1213.160034 L 1906.040039 1232.359985 L 1912.52002 1232.359985 L 1912.52002 1218.439941 L 1920.680054 1218.439941 L 1920.680054 1232.359985 L 1931 1232.359985 Z"/>
    <path id="Fan-Com" fill="#000000" fill-rule="evenodd" stroke="none" d="M 2042.5 1063.859985 L 2018.02002 1063.859985 L 2018.02002 1055.939941 L 2019.939941 1055.939941 L 2019.939941 1054.97998 L 2018.02002 1052.820068 L 2018.02002 1043.699951 L 2020.660034 1041.060059 L 2020.660034 1039.956055 L 2018.02002 1036.97998 L 2018.02002 1027.859985 L 2023.540039 1022.339966 L 2042.5 1022.339966 L 2042.5 1032.179932 L 2026.660034 1032.179932 L 2025.699951 1033.140015 L 2025.699951 1036.73999 L 2026.900024 1038.179932 L 2042.5 1038.179932 L 2042.5 1048.02002 L 2026.660034 1048.02002 L 2025.699951 1048.97998 L 2025.699951 1052.579956 L 2026.900024 1054.02002 L 2042.5 1054.02002 Z M 2042.5 1090.97998 L 2036.73999 1096.73999 L 2023.780029 1096.73999 L 2018.02002 1090.97998 L 2018.02002 1074.900024 L 2023.780029 1069.140015 L 2036.73999 1069.140015 L 2042.5 1074.900024 Z M 2034.819946 1085.699951 L 2034.819946 1080.179932 L 2033.619995 1078.97998 L 2026.900024 1078.97998 L 2025.699951 1080.179932 L 2025.699951 1085.699951 L 2026.900024 1086.900024 L 2033.619995 1086.900024 Z M 2042.5 1123.380005 L 2035.300049 1130.579956 L 2016.099976 1130.579956 L 2008.900024 1123.380005 L 2008.900024 1100.099976 L 2017.540039 1100.099976 L 2017.540039 1117.859985 L 2019.699951 1120.02002 L 2031.699951 1120.02002 L 2033.859985 1117.859985 L 2033.859985 1100.099976 L 2042.5 1100.099976 Z M 2042.5 1179.780029 L 2018.02002 1179.780029 L 2018.02002 1171.859985 L 2019.939941 1171.859985 L 2019.939941 1170.900024 L 2018.02002 1168.73999 L 2018.02002 1158.179932 L 2023.540039 1152.660034 L 2042.5 1152.660034 L 2042.5 1162.5 L 2026.660034 1162.5 L 2025.699951 1163.459961 L 2025.699951 1168.5 L 2026.900024 1169.939941 L 2042.5 1169.939941 Z M 2042.5 1208.099976 L 2037.939941 1212.660034 L 2031.939941 1212.660034 L 2027.380005 1208.099976 L 2027.380005 1195.140015 L 2026.180054 1195.140015 L 2025.219971 1196.099976 L 2025.219971 1209.300049 L 2018.02002 1209.300049 L 2018.02002 1190.339966 L 2023.060059 1185.300049 L 2042.5 1185.300049 L 2042.5 1193.219971 L 2040.819946 1193.219971 L 2040.819946 1193.939941 L 2042.5 1195.859985 Z M 2035.780029 1202.099976 L 2035.780029 1196.339966 L 2034.819946 1195.140015 L 2032.420044 1195.140015 L 2032.420044 1201.859985 L 2033.380005 1202.820068 L 2035.060059 1202.820068 Z M 2042.5 1242.420044 L 2008.900024 1242.420044 L 2008.900024 1212.660034 L 2017.540039 1212.660034 L 2017.540039 1231.859985 L 2024.02002 1231.859985 L 2024.02002 1217.939941 L 2032.180054 1217.939941 L 2032.180054 1231.859985 L 2042.5 1231.859985 Z"/>
    <path id="Fan-Med" fill="#000000" fill-rule="evenodd" stroke="none" d="M 1568.5 1041.540039 L 1562.73999 1047.300049 L 1549.780029 1047.300049 L 1544.02002 1041.540039 L 1544.02002 1030.02002 L 1534.900024 1030.02002 L 1534.900024 1020.179993 L 1568.5 1020.179993 L 1568.5 1028.099976 L 1566.579956 1028.099976 L 1566.579956 1029.156006 L 1568.5 1031.459961 Z M 1560.819946 1036.26001 L 1560.819946 1031.699951 L 1559.619995 1030.02002 L 1551.699951 1030.02002 L 1551.699951 1036.26001 L 1552.900024 1037.459961 L 1559.619995 1037.459961 Z M 1568.5 1073.699951 L 1562.73999 1079.459961 L 1549.780029 1079.459961 L 1544.02002 1073.699951 L 1544.02002 1057.619995 L 1549.780029 1051.859985 L 1558.900024 1051.859985 L 1558.900024 1069.619995 L 1560.099976 1069.619995 L 1561.300049 1068.420044 L 1561.300049 1053.780029 L 1568.5 1053.780029 Z M 1553.859985 1069.619995 L 1553.859985 1061.699951 L 1551.939941 1061.699951 L 1550.73999 1062.900024 L 1550.73999 1068.420044 L 1551.939941 1069.619995 Z M 1568.5 1129.619995 L 1534.900024 1129.619995 L 1534.900024 1114.404053 L 1552.420044 1108.26001 L 1552.420044 1107.108032 L 1534.900024 1100.963989 L 1534.900024 1085.939941 L 1568.5 1085.939941 L 1568.5 1096.02002 L 1547.380005 1096.02002 L 1547.380005 1096.97998 L 1564.900024 1103.219971 L 1564.900024 1112.339966 L 1547.380005 1118.579956 L 1547.380005 1119.540039 L 1568.5 1119.540039 Z M 1568.5 1179.780029 L 1544.02002 1179.780029 L 1544.02002 1171.859985 L 1545.939941 1171.859985 L 1545.939941 1170.900024 L 1544.02002 1168.73999 L 1544.02002 1158.179932 L 1549.540039 1152.660034 L 1568.5 1152.660034 L 1568.5 1162.5 L 1552.660034 1162.5 L 1551.699951 1163.459961 L 1551.699951 1168.5 L 1552.900024 1169.939941 L 1568.5 1169.939941 Z M 1568.5 1208.099976 L 1563.939941 1212.660034 L 1557.939941 1212.660034 L 1553.380005 1208.099976 L 1553.380005 1195.140015 L 1552.180054 1195.140015 L 1551.219971 1196.099976 L 1551.219971 1209.300049 L 1544.02002 1209.300049 L 1544.02002 1190.339966 L 1549.060059 1185.300049 L 1568.5 1185.300049 L 1568.5 1193.219971 L 1566.819946 1193.219971 L 1566.819946 1193.939941 L 1568.5 1195.859985 Z M 1561.780029 1202.099976 L 1561.780029 1196.339966 L 1560.819946 1195.140015 L 1558.420044 1195.140015 L 1558.420044 1201.859985 L 1559.380005 1202.820068 L 1561.060059 1202.820068 Z M 1568.5 1242.420044 L 1534.900024 1242.420044 L 1534.900024 1212.660034 L 1543.540039 1212.660034 L 1543.540039 1231.859985 L 1550.02002 1231.859985 L 1550.02002 1217.939941 L 1558.180054 1217.939941 L 1558.180054 1231.859985 L 1568.5 1231.859985 Z"/>
    <path id="path7" fill="#000000" fill-rule="evenodd" stroke="none" d="M 1679.5 1063.859985 L 1655.02002 1063.859985 L 1655.02002 1055.939941 L 1656.939941 1055.939941 L 1656.939941 1054.97998 L 1655.02002 1052.820068 L 1655.02002 1043.699951 L 1657.660034 1041.060059 L 1657.660034 1039.956055 L 1655.02002 1036.97998 L 1655.02002 1027.859985 L 1660.540039 1022.339966 L 1679.5 1022.339966 L 1679.5 1032.179932 L 1663.660034 1032.179932 L 1662.699951 1033.140015 L 1662.699951 1036.73999 L 1663.900024 1038.179932 L 1679.5 1038.179932 L 1679.5 1048.02002 L 1663.660034 1048.02002 L 1662.699951 1048.97998 L 1662.699951 1052.579956 L 1663.900024 1054.02002 L 1679.5 1054.02002 Z M 1679.5 1090.97998 L 1673.73999 1096.73999 L 1660.780029 1096.73999 L 1655.02002 1090.97998 L 1655.02002 1074.900024 L 1660.780029 1069.140015 L 1673.73999 1069.140015 L 1679.5 1074.900024 Z M 1671.819946 1085.699951 L 1671.819946 1080.179932 L 1670.619995 1078.97998 L 1663.900024 1078.97998 L 1662.699951 1080.179932 L 1662.699951 1085.699951 L 1663.900024 1086.900024 L 1670.619995 1086.900024 Z M 1679.5 1123.380005 L 1672.300049 1130.579956 L 1653.099976 1130.579956 L 1645.900024 1123.380005 L 1645.900024 1100.099976 L 1654.540039 1100.099976 L 1654.540039 1117.859985 L 1656.699951 1120.02002 L 1668.699951 1120.02002 L 1670.859985 1117.859985 L 1670.859985 1100.099976 L 1679.5 1100.099976 Z M 1679.5 1179.780029 L 1655.02002 1179.780029 L 1655.02002 1171.859985 L 1656.939941 1171.859985 L 1656.939941 1170.900024 L 1655.02002 1168.73999 L 1655.02002 1158.179932 L 1660.540039 1152.660034 L 1679.5 1152.660034 L 1679.5 1162.5 L 1663.660034 1162.5 L 1662.699951 1163.459961 L 1662.699951 1168.5 L 1663.900024 1169.939941 L 1679.5 1169.939941 Z M 1679.5 1208.099976 L 1674.939941 1212.660034 L 1668.939941 1212.660034 L 1664.380005 1208.099976 L 1664.380005 1195.140015 L 1663.180054 1195.140015 L 1662.219971 1196.099976 L 1662.219971 1209.300049 L 1655.02002 1209.300049 L 1655.02002 1190.339966 L 1660.060059 1185.300049 L 1679.5 1185.300049 L 1679.5 1193.219971 L 1677.819946 1193.219971 L 1677.819946 1193.939941 L 1679.5 1195.859985 Z M 1672.780029 1202.099976 L 1672.780029 1196.339966 L 1671.819946 1195.140015 L 1669.420044 1195.140015 L 1669.420044 1201.859985 L 1670.380005 1202.820068 L 1672.060059 1202.820068 Z M 1679.5 1242.420044 L 1645.900024 1242.420044 L 1645.900024 1212.660034 L 1654.540039 1212.660034 L 1654.540039 1231.859985 L 1661.02002 1231.859985 L 1661.02002 1217.939941 L 1669.180054 1217.939941 L 1669.180054 1231.859985 L 1679.5 1231.859985 Z"/>
    <path id="Fan-High" fill="#000000" fill-rule="evenodd" stroke="none" d="M 1204.5 1040.339966 L 1170.900024 1040.339966 L 1170.900024 1030.5 L 1181.459961 1030.5 L 1181.459961 1030.212036 L 1180.02002 1028.579956 L 1180.02002 1018.73999 L 1185.540039 1013.219971 L 1204.5 1013.219971 L 1204.5 1023.059998 L 1188.660034 1023.059998 L 1187.699951 1024.02002 L 1187.699951 1029.060059 L 1188.900024 1030.5 L 1204.5 1030.5 Z M 1214.099976 1071.060059 L 1206.660034 1071.060059 L 1206.660034 1056.900024 L 1205.939941 1056.179932 L 1203.060059 1056.179932 L 1203.060059 1056.468018 L 1204.5 1058.099976 L 1204.5 1067.699951 L 1198.73999 1073.459961 L 1185.780029 1073.459961 L 1180.02002 1067.699951 L 1180.02002 1046.339966 L 1208.819946 1046.339966 L 1214.099976 1051.619995 Z M 1196.819946 1062.420044 L 1196.819946 1057.619995 L 1195.619995 1056.179932 L 1187.699951 1056.179932 L 1187.699951 1062.420044 L 1188.900024 1063.619995 L 1195.619995 1063.619995 Z M 1204.5 1088.579956 L 1180.02002 1088.579956 L 1180.02002 1078.73999 L 1204.5 1078.73999 Z M 1177.140015 1088.579956 L 1170.900024 1088.579956 L 1170.900024 1078.73999 L 1177.140015 1078.73999 Z M 1204.5 1129.619995 L 1170.900024 1129.619995 L 1170.900024 1119.060059 L 1183.140015 1119.060059 L 1183.140015 1106.099976 L 1170.900024 1106.099976 L 1170.900024 1095.540039 L 1204.5 1095.540039 L 1204.5 1106.099976 L 1192.26001 1106.099976 L 1192.26001 1119.060059 L 1204.5 1119.060059 Z M 1204.5 1179.780029 L 1180.02002 1179.780029 L 1180.02002 1171.859985 L 1181.939941 1171.859985 L 1181.939941 1170.900024 L 1180.02002 1168.73999 L 1180.02002 1158.179932 L 1185.540039 1152.660034 L 1204.5 1152.660034 L 1204.5 1162.5 L 1188.660034 1162.5 L 1187.699951 1163.459961 L 1187.699951 1168.5 L 1188.900024 1169.939941 L 1204.5 1169.939941 Z M 1204.5 1208.099976 L 1199.939941 1212.660034 L 1193.939941 1212.660034 L 1189.380005 1208.099976 L 1189.380005 1195.140015 L 1188.180054 1195.140015 L 1187.219971 1196.099976 L 1187.219971 1209.300049 L 1180.02002 1209.300049 L 1180.02002 1190.339966 L 1185.060059 1185.300049 L 1204.5 1185.300049 L 1204.5 1193.219971 L 1202.819946 1193.219971 L 1202.819946 1193.939941 L 1204.5 1195.859985 Z M 1197.780029 1202.099976 L 1197.780029 1196.339966 L 1196.819946 1195.140015 L 1194.420044 1195.140015 L 1194.420044 1201.859985 L 1195.380005 1202.820068 L 1197.060059 1202.820068 Z M 1204.5 1242.420044 L 1170.900024 1242.420044 L 1170.900024 1212.660034 L 1179.540039 1212.660034 L 1179.540039 1231.859985 L 1186.02002 1231.859985 L 1186.02002 1217.939941 L 1194.180054 1217.939941 L 1194.180054 1231.859985 L 1204.5 1231.859985 Z"/>
    <path id="path8" fill="#000000" fill-rule="evenodd" stroke="none" d="M 1315.5 1063.859985 L 1291.02002 1063.859985 L 1291.02002 1055.939941 L 1292.939941 1055.939941 L 1292.939941 1054.97998 L 1291.02002 1052.820068 L 1291.02002 1043.699951 L 1293.660034 1041.060059 L 1293.660034 1039.956055 L 1291.02002 1036.97998 L 1291.02002 1027.859985 L 1296.540039 1022.339966 L 1315.5 1022.339966 L 1315.5 1032.179932 L 1299.660034 1032.179932 L 1298.699951 1033.140015 L 1298.699951 1036.73999 L 1299.900024 1038.179932 L 1315.5 1038.179932 L 1315.5 1048.02002 L 1299.660034 1048.02002 L 1298.699951 1048.97998 L 1298.699951 1052.579956 L 1299.900024 1054.02002 L 1315.5 1054.02002 Z M 1315.5 1090.97998 L 1309.73999 1096.73999 L 1296.780029 1096.73999 L 1291.02002 1090.97998 L 1291.02002 1074.900024 L 1296.780029 1069.140015 L 1309.73999 1069.140015 L 1315.5 1074.900024 Z M 1307.819946 1085.699951 L 1307.819946 1080.179932 L 1306.619995 1078.97998 L 1299.900024 1078.97998 L 1298.699951 1080.179932 L 1298.699951 1085.699951 L 1299.900024 1086.900024 L 1306.619995 1086.900024 Z M 1315.5 1123.380005 L 1308.300049 1130.579956 L 1289.099976 1130.579956 L 1281.900024 1123.380005 L 1281.900024 1100.099976 L 1290.540039 1100.099976 L 1290.540039 1117.859985 L 1292.699951 1120.02002 L 1304.699951 1120.02002 L 1306.859985 1117.859985 L 1306.859985 1100.099976 L 1315.5 1100.099976 Z M 1315.5 1179.780029 L 1291.02002 1179.780029 L 1291.02002 1171.859985 L 1292.939941 1171.859985 L 1292.939941 1170.900024 L 1291.02002 1168.73999 L 1291.02002 1158.179932 L 1296.540039 1152.660034 L 1315.5 1152.660034 L 1315.5 1162.5 L 1299.660034 1162.5 L 1298.699951 1163.459961 L 1298.699951 1168.5 L 1299.900024 1169.939941 L 1315.5 1169.939941 Z M 1315.5 1208.099976 L 1310.939941 1212.660034 L 1304.939941 1212.660034 L 1300.380005 1208.099976 L 1300.380005 1195.140015 L 1299.180054 1195.140015 L 1298.219971 1196.099976 L 1298.219971 1209.300049 L 1291.02002 1209.300049 L 1291.02002 1190.339966 L 1296.060059 1185.300049 L 1315.5 1185.300049 L 1315.5 1193.219971 L 1313.819946 1193.219971 L 1313.819946 1193.939941 L 1315.5 1195.859985 Z M 1308.780029 1202.099976 L 1308.780029 1196.339966 L 1307.819946 1195.140015 L 1305.420044 1195.140015 L 1305.420044 1201.859985 L 1306.380005 1202.820068 L 1308.060059 1202.820068 Z M 1315.5 1242.420044 L 1281.900024 1242.420044 L 1281.900024 1212.660034 L 1290.540039 1212.660034 L 1290.540039 1231.859985 L 1297.02002 1231.859985 L 1297.02002 1217.939941 L 1305.180054 1217.939941 L 1305.180054 1231.859985 L 1315.5 1231.859985 Z"/>
    <path id="Compress" fill="#000000" fill-rule="evenodd" stroke="none" d="M 851 1015.400024 L 844.280029 1015.400024 L 844.280029 1000.52002 L 843.559998 999.799988 L 842.840027 999.799988 L 842.119995 1000.52002 L 842.119995 1011.320007 L 837.559998 1015.880005 L 831.080017 1015.880005 L 826.52002 1011.320007 L 826.52002 991.400024 L 833.23999 991.400024 L 833.23999 1005.320007 L 833.960022 1006.040039 L 834.679993 1006.040039 L 835.400024 1005.320007 L 835.400024 994.52002 L 839.960022 989.959961 L 846.440002 989.959961 L 851 994.52002 Z M 851 1044.199951 L 844.280029 1044.199951 L 844.280029 1029.320068 L 843.559998 1028.599976 L 842.840027 1028.599976 L 842.119995 1029.320068 L 842.119995 1040.119995 L 837.559998 1044.679932 L 831.080017 1044.679932 L 826.52002 1040.119995 L 826.52002 1020.200012 L 833.23999 1020.200012 L 833.23999 1034.119995 L 833.960022 1034.839966 L 834.679993 1034.839966 L 835.400024 1034.119995 L 835.400024 1023.320007 L 839.960022 1018.76001 L 846.440002 1018.76001 L 851 1023.320007 Z M 851 1070.359985 L 845.23999 1076.119995 L 832.280029 1076.119995 L 826.52002 1070.359985 L 826.52002 1054.280029 L 832.280029 1048.52002 L 841.400024 1048.52002 L 841.400024 1066.280029 L 842.599976 1066.280029 L 843.799988 1065.079956 L 843.799988 1050.439941 L 851 1050.439941 Z M 836.359985 1066.280029 L 836.359985 1058.359985 L 834.440002 1058.359985 L 833.23999 1059.560059 L 833.23999 1065.079956 L 834.440002 1066.280029 Z M 851 1097.719971 L 826.52002 1097.719971 L 826.52002 1089.800049 L 828.440002 1089.800049 L 828.440002 1088.839966 L 826.52002 1086.679932 L 826.52002 1078.280029 L 834.200012 1078.280029 L 834.200012 1086.439941 L 835.400024 1087.880005 L 851 1087.880005 Z M 860.599976 1130.119995 L 826.52002 1130.119995 L 826.52002 1122.199951 L 828.440002 1122.199951 L 828.440002 1121.144043 L 826.52002 1118.839966 L 826.52002 1108.76001 L 832.280029 1103 L 845.23999 1103 L 851 1108.76001 L 851 1120.280029 L 860.599976 1120.280029 Z M 843.320007 1120.280029 L 843.320007 1114.040039 L 842.119995 1112.839966 L 835.400024 1112.839966 L 834.200012 1114.040039 L 834.200012 1118.599976 L 835.400024 1120.280029 Z M 851 1177.160034 L 826.52002 1177.160034 L 826.52002 1169.23999 L 828.440002 1169.23999 L 828.440002 1168.280029 L 826.52002 1166.119995 L 826.52002 1157 L 829.159973 1154.359985 L 829.159973 1153.255981 L 826.52002 1150.280029 L 826.52002 1141.160034 L 832.039978 1135.640015 L 851 1135.640015 L 851 1145.47998 L 835.159973 1145.47998 L 834.200012 1146.439941 L 834.200012 1150.040039 L 835.400024 1151.47998 L 851 1151.47998 L 851 1161.320068 L 835.159973 1161.320068 L 834.200012 1162.280029 L 834.200012 1165.880005 L 835.400024 1167.320068 L 851 1167.320068 Z M 851 1204.280029 L 845.23999 1210.040039 L 832.280029 1210.040039 L 826.52002 1204.280029 L 826.52002 1188.199951 L 832.280029 1182.439941 L 845.23999 1182.439941 L 851 1188.199951 Z M 843.320007 1199 L 843.320007 1193.47998 L 842.119995 1192.280029 L 835.400024 1192.280029 L 834.200012 1193.47998 L 834.200012 1199 L 835.400024 1200.199951 L 842.119995 1200.199951 Z M 851 1236.679932 L 843.799988 1243.880005 L 824.599976 1243.880005 L 817.400024 1236.679932 L 817.400024 1213.400024 L 826.039978 1213.400024 L 826.039978 1231.160034 L 828.200012 1233.320068 L 840.200012 1233.320068 L 842.359985 1231.160034 L 842.359985 1213.400024 L 851 1213.400024 Z"/>
    <path id="Ground" fill="#000000" fill-rule="evenodd" stroke="none" d="M 961.5 1078.02002 L 955.73999 1083.780029 L 942.780029 1083.780029 L 937.02002 1078.02002 L 937.02002 1066.5 L 927.900024 1066.5 L 927.900024 1056.660034 L 961.5 1056.660034 L 961.5 1064.579956 L 959.580017 1064.579956 L 959.580017 1065.635986 L 961.5 1067.939941 Z M 953.820007 1072.73999 L 953.820007 1068.179932 L 952.619995 1066.5 L 944.700012 1066.5 L 944.700012 1072.73999 L 945.900024 1073.939941 L 952.619995 1073.939941 Z M 961.5 1115.939941 L 937.02002 1115.939941 L 937.02002 1108.02002 L 938.940002 1108.02002 L 938.940002 1107.060059 L 937.02002 1104.900024 L 937.02002 1094.339966 L 942.539978 1088.820068 L 961.5 1088.820068 L 961.5 1098.660034 L 945.659973 1098.660034 L 944.700012 1099.619995 L 944.700012 1104.660034 L 945.900024 1106.099976 L 961.5 1106.099976 Z M 961.5 1142.579956 L 955.97998 1148.099976 L 937.02002 1148.099976 L 937.02002 1138.26001 L 952.859985 1138.26001 L 953.820007 1137.300049 L 953.820007 1132.97998 L 952.619995 1131.540039 L 937.02002 1131.540039 L 937.02002 1121.699951 L 961.5 1121.699951 L 961.5 1129.619995 L 959.580017 1129.619995 L 959.580017 1130.579956 L 961.5 1132.73999 Z M 961.5 1174.97998 L 955.73999 1180.73999 L 942.780029 1180.73999 L 937.02002 1174.97998 L 937.02002 1158.900024 L 942.780029 1153.140015 L 955.73999 1153.140015 L 961.5 1158.900024 Z M 953.820007 1169.699951 L 953.820007 1164.179932 L 952.619995 1162.97998 L 945.900024 1162.97998 L 944.700012 1164.179932 L 944.700012 1169.699951 L 945.900024 1170.900024 L 952.619995 1170.900024 Z M 961.5 1202.339966 L 937.02002 1202.339966 L 937.02002 1194.420044 L 938.940002 1194.420044 L 938.940002 1193.459961 L 937.02002 1191.300049 L 937.02002 1182.900024 L 944.700012 1182.900024 L 944.700012 1191.060059 L 945.900024 1192.5 L 961.5 1192.5 Z M 961.5 1236.179932 L 954.299988 1243.380005 L 935.099976 1243.380005 L 927.900024 1236.179932 L 927.900024 1210.73999 L 936.539978 1210.73999 L 936.539978 1230.660034 L 938.700012 1232.820068 L 950.700012 1232.820068 L 952.859985 1230.660034 L 952.859985 1219.859985 L 950.700012 1217.699951 L 948.059998 1217.699951 L 948.059998 1227.300049 L 940.619995 1227.300049 L 940.619995 1207.380005 L 954.299988 1207.380005 L 961.5 1214.579956 Z"/>
    <path id="12V" fill="#000000" fill-rule="evenodd" stroke="none" d="M 479 1139.384033 L 448.279999 1150.280029 L 445.399994 1150.280029 L 445.399994 1140.391968 L 469.399994 1132.280029 L 469.399994 1130.647949 L 445.399994 1122.488037 L 445.399994 1112.839966 L 448.279999 1112.839966 L 479 1123.543945 Z M 479 1186.040039 L 464.600006 1186.040039 L 458.359985 1179.800049 L 458.359985 1164.920044 L 457.399994 1163.959961 L 455 1163.959961 L 454.040009 1164.920044 L 454.040009 1184.599976 L 445.399994 1184.599976 L 445.399994 1158.679932 L 450.679993 1153.400024 L 461.23999 1153.400024 L 466.519989 1158.679932 L 466.519989 1174.040039 L 467.959991 1175.47998 L 470.359985 1175.47998 L 470.359985 1153.640015 L 479 1153.640015 Z M 479 1217.23999 L 470.359985 1217.23999 L 470.359985 1207.880005 L 454.040009 1207.880005 L 454.040009 1216.280029 L 445.399994 1216.280029 L 445.399994 1197.320068 L 470.359985 1197.320068 L 470.359985 1188.920044 L 479 1188.920044 Z M 474.200012 1236.439941 L 465.320007 1236.439941 L 465.320007 1245.320068 L 458.600006 1245.320068 L 458.600006 1236.439941 L 449.720001 1236.439941 L 449.720001 1229.719971 L 458.600006 1229.719971 L 458.600006 1220.839966 L 465.320007 1220.839966 L 465.320007 1229.719971 L 474.200012 1229.719971 Z"/>
    <path id="Actuator--" fill="#000000" fill-rule="evenodd" stroke="none" d="M 579.900024 991.140015 L 572.219971 991.140015 L 572.219971 974.820007 L 579.900024 974.820007 Z M 589.5 1028.579956 L 565.02002 1028.579956 L 565.02002 1020.660034 L 566.940002 1020.660034 L 566.940002 1019.700012 L 565.02002 1017.540039 L 565.02002 1009.140015 L 572.700012 1009.140015 L 572.700012 1017.299988 L 573.900024 1018.73999 L 589.5 1018.73999 Z M 589.5 1055.699951 L 583.73999 1061.459961 L 570.780029 1061.459961 L 565.02002 1055.699951 L 565.02002 1039.619995 L 570.780029 1033.859985 L 583.73999 1033.859985 L 589.5 1039.619995 Z M 581.820007 1050.420044 L 581.820007 1044.900024 L 580.619995 1043.699951 L 573.900024 1043.699951 L 572.700012 1044.900024 L 572.700012 1050.420044 L 573.900024 1051.619995 L 580.619995 1051.619995 Z M 589.5 1078.02002 L 584.219971 1083.300049 L 572.219971 1083.300049 L 572.219971 1088.099976 L 565.02002 1088.099976 L 565.02002 1083.300049 L 558.780029 1083.300049 L 558.780029 1073.459961 L 565.02002 1073.459961 L 565.02002 1065.540039 L 572.219971 1065.540039 L 572.219971 1073.459961 L 581.340027 1073.459961 L 581.820007 1072.97998 L 581.820007 1065.060059 L 589.5 1065.060059 Z M 589.5 1114.26001 L 584.940002 1118.820068 L 578.940002 1118.820068 L 574.380005 1114.26001 L 574.380005 1101.300049 L 573.179993 1101.300049 L 572.219971 1102.26001 L 572.219971 1115.459961 L 565.02002 1115.459961 L 565.02002 1096.5 L 570.059998 1091.459961 L 589.5 1091.459961 L 589.5 1099.380005 L 587.820007 1099.380005 L 587.820007 1100.099976 L 589.5 1102.02002 Z M 582.780029 1108.26001 L 582.780029 1102.5 L 581.820007 1101.300049 L 579.419983 1101.300049 L 579.419983 1108.02002 L 580.380005 1108.97998 L 582.059998 1108.97998 Z M 589.5 1144.26001 L 583.97998 1149.780029 L 565.02002 1149.780029 L 565.02002 1139.939941 L 580.859985 1139.939941 L 581.820007 1138.97998 L 581.820007 1134.660034 L 580.619995 1133.219971 L 565.02002 1133.219971 L 565.02002 1123.380005 L 589.5 1123.380005 L 589.5 1131.300049 L 587.580017 1131.300049 L 587.580017 1132.26001 L 589.5 1134.420044 Z M 589.5 1166.579956 L 584.219971 1171.859985 L 572.219971 1171.859985 L 572.219971 1176.660034 L 565.02002 1176.660034 L 565.02002 1171.859985 L 558.780029 1171.859985 L 558.780029 1162.02002 L 565.02002 1162.02002 L 565.02002 1154.099976 L 572.219971 1154.099976 L 572.219971 1162.02002 L 581.340027 1162.02002 L 581.820007 1161.540039 L 581.820007 1153.619995 L 589.5 1153.619995 Z M 589.5 1197.300049 L 583.73999 1203.060059 L 570.780029 1203.060059 L 565.02002 1197.300049 L 565.02002 1179.540039 L 572.700012 1179.540039 L 572.700012 1192.02002 L 573.900024 1193.219971 L 580.619995 1193.219971 L 581.820007 1192.02002 L 581.820007 1179.540039 L 589.5 1179.540039 Z M 555.900024 1218.468018 L 586.619995 1205.699951 L 589.5 1205.699951 L 589.5 1215.972046 L 583.97998 1218.036011 L 583.97998 1233.635986 L 589.5 1235.748047 L 589.5 1245.780029 L 586.619995 1245.780029 L 555.900024 1232.771973 Z M 575.340027 1230.323975 L 575.340027 1221.251953 L 565.02002 1225.140015 L 565.02002 1226.339966 Z"/>
    <path id="Bootloader" fill="#000000" fill-rule="evenodd" stroke="none" d="M 1930.5 42.699951 L 1906.02002 42.699951 L 1906.02002 34.780029 L 1907.939941 34.780029 L 1907.939941 33.819946 L 1906.02002 31.660034 L 1906.02002 23.26001 L 1913.699951 23.26001 L 1913.699951 31.420044 L 1914.900024 32.859985 L 1930.5 32.859985 Z M 1930.5 69.579956 L 1924.73999 75.339966 L 1911.780029 75.339966 L 1906.02002 69.579956 L 1906.02002 53.5 L 1911.780029 47.73999 L 1920.900024 47.73999 L 1920.900024 65.5 L 1922.099976 65.5 L 1923.300049 64.300049 L 1923.300049 49.660034 L 1930.5 49.660034 Z M 1915.859985 65.5 L 1915.859985 57.579956 L 1913.939941 57.579956 L 1912.73999 58.780029 L 1912.73999 64.300049 L 1913.939941 65.5 Z M 1930.5 102.219971 L 1924.73999 107.97998 L 1911.780029 107.97998 L 1906.02002 102.219971 L 1906.02002 90.699951 L 1896.900024 90.699951 L 1896.900024 80.859985 L 1930.5 80.859985 L 1930.5 88.780029 L 1928.579956 88.780029 L 1928.579956 89.83606 L 1930.5 92.140015 Z M 1922.819946 96.939941 L 1922.819946 92.380005 L 1921.619995 90.699951 L 1913.699951 90.699951 L 1913.699951 96.939941 L 1914.900024 98.140015 L 1921.619995 98.140015 Z M 1930.5 135.819946 L 1925.939941 140.380005 L 1919.939941 140.380005 L 1915.380005 135.819946 L 1915.380005 122.859985 L 1914.180054 122.859985 L 1913.219971 123.819946 L 1913.219971 137.02002 L 1906.02002 137.02002 L 1906.02002 118.060059 L 1911.060059 113.02002 L 1930.5 113.02002 L 1930.5 120.939941 L 1928.819946 120.939941 L 1928.819946 121.660034 L 1930.5 123.579956 Z M 1923.780029 129.819946 L 1923.780029 124.060059 L 1922.819946 122.859985 L 1920.420044 122.859985 L 1920.420044 129.579956 L 1921.380005 130.540039 L 1923.060059 130.540039 Z M 1930.5 166.300049 L 1924.73999 172.060059 L 1911.780029 172.060059 L 1906.02002 166.300049 L 1906.02002 150.219971 L 1911.780029 144.459961 L 1924.73999 144.459961 L 1930.5 150.219971 Z M 1922.819946 161.02002 L 1922.819946 155.5 L 1921.619995 154.300049 L 1914.900024 154.300049 L 1913.699951 155.5 L 1913.699951 161.02002 L 1914.900024 162.219971 L 1921.619995 162.219971 Z M 1930.5 187.420044 L 1903.859985 187.420044 L 1903.859985 192.219971 L 1896.900024 192.219971 L 1896.900024 177.579956 L 1930.5 177.579956 Z M 1930.5 205.660034 L 1925.219971 210.939941 L 1913.219971 210.939941 L 1913.219971 215.73999 L 1906.02002 215.73999 L 1906.02002 210.939941 L 1899.780029 210.939941 L 1899.780029 201.099976 L 1906.02002 201.099976 L 1906.02002 193.180054 L 1913.219971 193.180054 L 1913.219971 201.099976 L 1922.339966 201.099976 L 1922.819946 200.619995 L 1922.819946 192.699951 L 1930.5 192.699951 Z M 1930.5 240.699951 L 1924.73999 246.459961 L 1911.780029 246.459961 L 1906.02002 240.699951 L 1906.02002 224.619995 L 1911.780029 218.859985 L 1924.73999 218.859985 L 1930.5 224.619995 Z M 1922.819946 235.420044 L 1922.819946 229.900024 L 1921.619995 228.699951 L 1914.900024 228.699951 L 1913.699951 229.900024 L 1913.699951 235.420044 L 1914.900024 236.619995 L 1921.619995 236.619995 Z M 1930.5 273.099976 L 1924.73999 278.859985 L 1911.780029 278.859985 L 1906.02002 273.099976 L 1906.02002 257.02002 L 1911.780029 251.26001 L 1924.73999 251.26001 L 1930.5 257.02002 Z M 1922.819946 267.819946 L 1922.819946 262.300049 L 1921.619995 261.099976 L 1914.900024 261.099976 L 1913.699951 262.300049 L 1913.699951 267.819946 L 1914.900024 269.02002 L 1921.619995 269.02002 Z M 1930.5 318.459961 L 1896.900024 318.459961 L 1896.900024 290.619995 L 1902.180054 285.339966 L 1908.900024 285.339966 L 1912.02002 288.459961 L 1916.819946 283.660034 L 1924.73999 283.660034 L 1930.5 289.420044 Z M 1909.715942 307.900024 L 1909.715942 296.956055 L 1908.660034 295.900024 L 1906.02002 295.900024 L 1905.060059 296.859985 L 1905.060059 307.900024 Z M 1922.339966 307.900024 L 1922.339966 295.660034 L 1920.900024 294.219971 L 1918.26001 294.219971 L 1916.916016 295.563965 L 1916.916016 307.900024 Z"/>
    <path id="Reset" fill="#000000" fill-rule="evenodd" stroke="none" d="M 1743.5 37.660034 L 1738.219971 42.939941 L 1726.219971 42.939941 L 1726.219971 47.73999 L 1719.02002 47.73999 L 1719.02002 42.939941 L 1712.780029 42.939941 L 1712.780029 33.099976 L 1719.02002 33.099976 L 1719.02002 25.180054 L 1726.219971 25.180054 L 1726.219971 33.099976 L 1735.339966 33.099976 L 1735.819946 32.619995 L 1735.819946 24.699951 L 1743.5 24.699951 Z M 1743.5 72.459961 L 1737.73999 78.219971 L 1724.780029 78.219971 L 1719.02002 72.459961 L 1719.02002 56.380005 L 1724.780029 50.619995 L 1733.900024 50.619995 L 1733.900024 68.380005 L 1735.099976 68.380005 L 1736.300049 67.180054 L 1736.300049 52.540039 L 1743.5 52.540039 Z M 1728.859985 68.380005 L 1728.859985 60.459961 L 1726.939941 60.459961 L 1725.73999 61.660034 L 1725.73999 67.180054 L 1726.939941 68.380005 Z M 1743.5 107.73999 L 1736.780029 107.73999 L 1736.780029 92.859985 L 1736.060059 92.140015 L 1735.339966 92.140015 L 1734.619995 92.859985 L 1734.619995 103.660034 L 1730.060059 108.219971 L 1723.579956 108.219971 L 1719.02002 103.660034 L 1719.02002 83.73999 L 1725.73999 83.73999 L 1725.73999 97.660034 L 1726.459961 98.380005 L 1727.180054 98.380005 L 1727.900024 97.660034 L 1727.900024 86.859985 L 1732.459961 82.300049 L 1738.939941 82.300049 L 1743.5 86.859985 Z M 1743.5 133.900024 L 1737.73999 139.660034 L 1724.780029 139.660034 L 1719.02002 133.900024 L 1719.02002 117.819946 L 1724.780029 112.060059 L 1733.900024 112.060059 L 1733.900024 129.819946 L 1735.099976 129.819946 L 1736.300049 128.619995 L 1736.300049 113.97998 L 1743.5 113.97998 Z M 1728.859985 129.819946 L 1728.859985 121.900024 L 1726.939941 121.900024 L 1725.73999 123.099976 L 1725.73999 128.619995 L 1726.939941 129.819946 Z M 1743.5 179.02002 L 1709.900024 179.02002 L 1709.900024 151.900024 L 1716.140015 145.660034 L 1727.180054 145.660034 L 1732.31604 150.796021 L 1740.619995 144.699951 L 1743.5 144.699951 L 1743.5 155.067993 L 1733.900024 161.83606 L 1733.900024 168.459961 L 1743.5 168.459961 Z M 1725.5 168.459961 L 1725.5 157.660034 L 1724.060059 156.219971 L 1719.73999 156.219971 L 1718.300049 157.660034 L 1718.300049 168.459961 Z"/>
    <path id="USB" fill="#000000" fill-rule="evenodd" stroke="none" d="M 1315.5 60.699951 L 1281.900024 60.699951 L 1281.900024 32.859985 L 1287.180054 27.579956 L 1293.900024 27.579956 L 1297.02002 30.699951 L 1301.819946 25.900024 L 1309.73999 25.900024 L 1315.5 31.660034 Z M 1294.715942 50.140015 L 1294.715942 39.196045 L 1293.660034 38.140015 L 1291.02002 38.140015 L 1290.060059 39.099976 L 1290.060059 50.140015 Z M 1307.339966 50.140015 L 1307.339966 37.900024 L 1305.900024 36.459961 L 1303.26001 36.459961 L 1301.916016 37.803955 L 1301.916016 50.140015 Z M 1315.5 98.619995 L 1306.859985 98.619995 L 1306.859985 77.97998 L 1305.900024 77.02002 L 1303.97998 77.02002 L 1303.02002 77.97998 L 1303.02002 92.859985 L 1296.540039 99.339966 L 1287.900024 99.339966 L 1281.900024 93.339966 L 1281.900024 68.140015 L 1290.540039 68.140015 L 1290.540039 87.819946 L 1291.5 88.780029 L 1293.420044 88.780029 L 1294.380005 87.819946 L 1294.380005 72.939941 L 1300.859985 66.459961 L 1309.5 66.459961 L 1315.5 72.459961 Z M 1315.5 130.780029 L 1307.819946 138.459961 L 1281.900024 138.459961 L 1281.900024 127.900024 L 1304.219971 127.900024 L 1306.380005 125.73999 L 1306.380005 118.060059 L 1304.219971 115.900024 L 1281.900024 115.900024 L 1281.900024 105.339966 L 1307.819946 105.339966 L 1315.5 113.02002 Z"/>
    <path id="Status" fill="#000000" fill-rule="evenodd" stroke="none" d="M 1162.5 50.619995 L 1155.780029 50.619995 L 1155.780029 35.73999 L 1155.060059 35.02002 L 1154.339966 35.02002 L 1153.619995 35.73999 L 1153.619995 46.540039 L 1149.060059 51.099976 L 1142.579956 51.099976 L 1138.02002 46.540039 L 1138.02002 26.619995 L 1144.73999 26.619995 L 1144.73999 40.540039 L 1145.459961 41.26001 L 1146.180054 41.26001 L 1146.900024 40.540039 L 1146.900024 29.73999 L 1151.459961 25.180054 L 1157.939941 25.180054 L 1162.5 29.73999 Z M 1162.5 77.02002 L 1156.97998 82.540039 L 1138.02002 82.540039 L 1138.02002 72.699951 L 1153.859985 72.699951 L 1154.819946 71.73999 L 1154.819946 67.420044 L 1153.619995 65.97998 L 1138.02002 65.97998 L 1138.02002 56.140015 L 1162.5 56.140015 L 1162.5 64.060059 L 1160.579956 64.060059 L 1160.579956 65.02002 L 1162.5 67.180054 Z M 1162.5 99.339966 L 1157.219971 104.619995 L 1145.219971 104.619995 L 1145.219971 109.420044 L 1138.02002 109.420044 L 1138.02002 104.619995 L 1131.780029 104.619995 L 1131.780029 94.780029 L 1138.02002 94.780029 L 1138.02002 86.859985 L 1145.219971 86.859985 L 1145.219971 94.780029 L 1154.339966 94.780029 L 1154.819946 94.300049 L 1154.819946 86.380005 L 1162.5 86.380005 Z M 1162.5 135.579956 L 1157.939941 140.140015 L 1151.939941 140.140015 L 1147.380005 135.579956 L 1147.380005 122.619995 L 1146.180054 122.619995 L 1145.219971 123.579956 L 1145.219971 136.780029 L 1138.02002 136.780029 L 1138.02002 117.819946 L 1143.060059 112.780029 L 1162.5 112.780029 L 1162.5 120.699951 L 1160.819946 120.699951 L 1160.819946 121.420044 L 1162.5 123.339966 Z M 1155.780029 129.579956 L 1155.780029 123.819946 L 1154.819946 122.619995 L 1152.420044 122.619995 L 1152.420044 129.339966 L 1153.380005 130.300049 L 1155.060059 130.300049 Z M 1162.5 155.97998 L 1157.219971 161.26001 L 1145.219971 161.26001 L 1145.219971 166.060059 L 1138.02002 166.060059 L 1138.02002 161.26001 L 1131.780029 161.26001 L 1131.780029 151.420044 L 1138.02002 151.420044 L 1138.02002 143.5 L 1145.219971 143.5 L 1145.219971 151.420044 L 1154.339966 151.420044 L 1154.819946 150.939941 L 1154.819946 143.02002 L 1162.5 143.02002 Z M 1162.5 200.619995 L 1153.859985 200.619995 L 1153.859985 179.97998 L 1152.900024 179.02002 L 1150.97998 179.02002 L 1150.02002 179.97998 L 1150.02002 194.859985 L 1143.540039 201.339966 L 1134.900024 201.339966 L 1128.900024 195.339966 L 1128.900024 170.140015 L 1137.540039 170.140015 L 1137.540039 189.819946 L 1138.5 190.780029 L 1140.420044 190.780029 L 1141.380005 189.819946 L 1141.380005 174.939941 L 1147.859985 168.459961 L 1156.5 168.459961 L 1162.5 174.459961 Z"/>
    <path id="Power" fill="#000000" fill-rule="evenodd" stroke="none" d="M 1043.5 42.699951 L 1019.02002 42.699951 L 1019.02002 34.780029 L 1020.940002 34.780029 L 1020.940002 33.819946 L 1019.02002 31.660034 L 1019.02002 23.26001 L 1026.699951 23.26001 L 1026.699951 31.420044 L 1027.900024 32.859985 L 1043.5 32.859985 Z M 1043.5 69.579956 L 1037.73999 75.339966 L 1024.780029 75.339966 L 1019.02002 69.579956 L 1019.02002 53.5 L 1024.780029 47.73999 L 1033.900024 47.73999 L 1033.900024 65.5 L 1035.099976 65.5 L 1036.300049 64.300049 L 1036.300049 49.660034 L 1043.5 49.660034 Z M 1028.859985 65.5 L 1028.859985 57.579956 L 1026.939941 57.579956 L 1025.73999 58.780029 L 1025.73999 64.300049 L 1026.939941 65.5 Z M 1043.5 114.124023 L 1021.419983 121.036011 L 1019.02002 121.036011 L 1019.02002 112.060059 L 1034.859985 107.692017 L 1034.859985 106.732056 L 1025.547974 103.612061 L 1021.419983 104.667969 L 1019.02002 104.667969 L 1019.02002 95.884033 L 1034.859985 92.427979 L 1034.859985 91.468018 L 1019.02002 86.956055 L 1019.02002 78.219971 L 1021.419983 78.219971 L 1043.5 84.988037 L 1043.5 96.988037 L 1035.819946 99.099976 L 1035.819946 100.060059 L 1043.5 102.364014 Z M 1043.5 145.755981 L 1037.73999 151.515991 L 1024.780029 151.515991 L 1019.02002 145.755981 L 1019.02002 129.676025 L 1024.780029 123.916016 L 1037.73999 123.916016 L 1043.5 129.676025 Z M 1035.819946 140.475952 L 1035.819946 134.956055 L 1034.619995 133.755981 L 1027.900024 133.755981 L 1026.699951 134.956055 L 1026.699951 140.475952 L 1027.900024 141.676025 L 1034.619995 141.676025 Z M 1043.5 187.995972 L 1009.900024 187.995972 L 1009.900024 161.355957 L 1016.140015 155.115967 L 1028.859985 155.115967 L 1035.099976 161.355957 L 1035.099976 177.436035 L 1043.5 177.436035 Z M 1026.459961 177.436035 L 1026.459961 167.115967 L 1025.02002 165.676025 L 1019.97998 165.676025 L 1018.539978 167.115967 L 1018.539978 177.436035 Z"/>
    <path id="DC-7-36v" fill="#000000" fill-rule="evenodd" stroke="none" d="M 681.351013 197.006104 L 673.240356 174.925537 L 673.240479 172.525635 L 682.456482 172.526123 L 687.591553 188.366455 L 688.551514 188.366455 L 693.880493 172.526855 L 702.808472 172.527344 L 702.80835 174.927368 L 694.647034 197.006836 Z M 643.59906 197.003906 L 637.119385 190.523438 L 637.120605 169.883423 L 643.601013 163.403809 L 668.080994 163.405273 L 668.080505 172.045288 L 648.880493 172.044189 L 647.44043 173.484131 L 647.440308 175.164063 L 664.000305 175.165039 L 670.479919 181.645386 L 670.479431 190.525391 L 663.999023 197.005005 Z M 648.879517 188.364136 L 658.479553 188.364746 L 659.919617 186.924805 L 659.919739 184.764771 L 658.479858 183.324707 L 647.439819 183.324097 L 647.439636 186.924072 Z M 598.919006 197.001221 L 598.919556 188.361206 L 619.559509 188.362427 L 620.999634 186.922485 L 620.999695 185.242554 L 619.799805 184.04248 L 606.119812 184.041626 L 606.1203 175.881592 L 619.080261 175.882446 L 620.040344 174.922485 L 620.040466 173.002441 L 619.080505 172.042358 L 599.640503 172.04126 L 599.640991 163.401245 L 625.320984 163.402832 L 630.600708 168.683105 L 630.600281 175.403076 L 626.856079 179.098877 L 631.559814 183.803101 L 631.559326 191.723145 L 626.279053 197.002808 Z M 579.879578 187.400146 L 579.880066 179.720093 L 596.200073 179.721069 L 596.199585 187.401123 Z M 553.359009 196.998535 L 553.359802 183.798584 L 566.560425 173.47937 L 566.560486 172.039307 L 545.2005 172.038086 L 545.200989 163.398071 L 577.361023 163.399902 L 577.360229 176.119995 L 563.919617 186.82312 L 563.919006 196.999146 Z M 504.319031 196.995728 L 497.119446 189.795288 L 497.120575 170.595215 L 504.321014 163.39563 L 527.601013 163.397095 L 527.600525 172.036987 L 509.840485 172.036011 L 507.680359 174.195923 L 507.679657 186.195923 L 509.839539 188.355957 L 527.599548 188.357056 L 527.59906 196.99707 Z M 456.079041 196.992798 L 456.080994 163.392822 L 483.44101 163.394409 L 490.640594 170.594849 L 490.639465 189.794922 L 483.439026 196.994507 Z M 466.639526 188.353516 L 477.919525 188.354126 L 480.079651 186.194214 L 480.080383 174.194214 L 477.920502 172.03418 L 466.640503 172.033447 Z"/>
    <path id="---" fill="#000000" fill-rule="evenodd" stroke="none" d="M 625.117798 95.40271 L 625.118835 77.642822 L 607.358826 77.641724 L 607.359619 64.201782 L 625.119629 64.202759 L 625.120667 46.442749 L 638.560669 46.443604 L 638.559631 64.203613 L 656.319641 64.20459 L 656.318848 77.644653 L 638.558838 77.643555 L 638.5578 95.403564 Z M 500.758362 85.79541 L 500.759277 70.435425 L 533.399292 70.437378 L 533.398376 85.797363 Z"/>
    <path id="path9" fill="#000000" fill-rule="evenodd" stroke="none" d="M 700.5 1078.02002 L 694.73999 1083.780029 L 681.780029 1083.780029 L 676.02002 1078.02002 L 676.02002 1066.5 L 666.900024 1066.5 L 666.900024 1056.660034 L 700.5 1056.660034 L 700.5 1064.579956 L 698.580017 1064.579956 L 698.580017 1065.635986 L 700.5 1067.939941 Z M 692.820007 1072.73999 L 692.820007 1068.179932 L 691.619995 1066.5 L 683.700012 1066.5 L 683.700012 1072.73999 L 684.900024 1073.939941 L 691.619995 1073.939941 Z M 700.5 1115.939941 L 676.02002 1115.939941 L 676.02002 1108.02002 L 677.940002 1108.02002 L 677.940002 1107.060059 L 676.02002 1104.900024 L 676.02002 1094.339966 L 681.539978 1088.820068 L 700.5 1088.820068 L 700.5 1098.660034 L 684.659973 1098.660034 L 683.700012 1099.619995 L 683.700012 1104.660034 L 684.900024 1106.099976 L 700.5 1106.099976 Z M 700.5 1142.579956 L 694.97998 1148.099976 L 676.02002 1148.099976 L 676.02002 1138.26001 L 691.859985 1138.26001 L 692.820007 1137.300049 L 692.820007 1132.97998 L 691.619995 1131.540039 L 676.02002 1131.540039 L 676.02002 1121.699951 L 700.5 1121.699951 L 700.5 1129.619995 L 698.580017 1129.619995 L 698.580017 1130.579956 L 700.5 1132.73999 Z M 700.5 1174.97998 L 694.73999 1180.73999 L 681.780029 1180.73999 L 676.02002 1174.97998 L 676.02002 1158.900024 L 681.780029 1153.140015 L 694.73999 1153.140015 L 700.5 1158.900024 Z M 692.820007 1169.699951 L 692.820007 1164.179932 L 691.619995 1162.97998 L 684.900024 1162.97998 L 683.700012 1164.179932 L 683.700012 1169.699951 L 684.900024 1170.900024 L 691.619995 1170.900024 Z M 700.5 1202.339966 L 676.02002 1202.339966 L 676.02002 1194.420044 L 677.940002 1194.420044 L 677.940002 1193.459961 L 676.02002 1191.300049 L 676.02002 1182.900024 L 683.700012 1182.900024 L 683.700012 1191.060059 L 684.900024 1192.5 L 700.5 1192.5 Z M 700.5 1236.179932 L 693.299988 1243.380005 L 674.099976 1243.380005 L 666.900024 1236.179932 L 666.900024 1210.73999 L 675.539978 1210.73999 L 675.539978 1230.660034 L 677.700012 1232.820068 L 689.700012 1232.820068 L 691.859985 1230.660034 L 691.859985 1219.859985 L 689.700012 1217.699951 L 687.059998 1217.699951 L 687.059998 1227.300049 L 679.619995 1227.300049 L 679.619995 1207.380005 L 693.299988 1207.380005 L 700.5 1214.579956 Z"/>
    <path id="path10" fill="#000000" fill-rule="evenodd" stroke="none" d="M 116 1078.52002 L 110.239998 1084.280029 L 97.279999 1084.280029 L 91.519997 1078.52002 L 91.519997 1067 L 82.400002 1067 L 82.400002 1057.160034 L 116 1057.160034 L 116 1065.079956 L 114.080002 1065.079956 L 114.080002 1066.135986 L 116 1068.439941 Z M 108.32 1073.23999 L 108.32 1068.679932 L 107.120003 1067 L 99.199997 1067 L 99.199997 1073.23999 L 100.400002 1074.439941 L 107.120003 1074.439941 Z M 116 1116.439941 L 91.519997 1116.439941 L 91.519997 1108.52002 L 93.440002 1108.52002 L 93.440002 1107.560059 L 91.519997 1105.400024 L 91.519997 1094.839966 L 97.040001 1089.320068 L 116 1089.320068 L 116 1099.160034 L 100.160004 1099.160034 L 99.199997 1100.119995 L 99.199997 1105.160034 L 100.400002 1106.599976 L 116 1106.599976 Z M 116 1143.079956 L 110.480003 1148.599976 L 91.519997 1148.599976 L 91.519997 1138.76001 L 107.360001 1138.76001 L 108.32 1137.800049 L 108.32 1133.47998 L 107.120003 1132.040039 L 91.519997 1132.040039 L 91.519997 1122.199951 L 116 1122.199951 L 116 1130.119995 L 114.080002 1130.119995 L 114.080002 1131.079956 L 116 1133.23999 Z M 116 1175.47998 L 110.239998 1181.23999 L 97.279999 1181.23999 L 91.519997 1175.47998 L 91.519997 1159.400024 L 97.279999 1153.640015 L 110.239998 1153.640015 L 116 1159.400024 Z M 108.32 1170.199951 L 108.32 1164.679932 L 107.120003 1163.47998 L 100.400002 1163.47998 L 99.199997 1164.679932 L 99.199997 1170.199951 L 100.400002 1171.400024 L 107.120003 1171.400024 Z M 116 1202.839966 L 91.519997 1202.839966 L 91.519997 1194.920044 L 93.440002 1194.920044 L 93.440002 1193.959961 L 91.519997 1191.800049 L 91.519997 1183.400024 L 99.199997 1183.400024 L 99.199997 1191.560059 L 100.400002 1193 L 116 1193 Z M 116 1236.679932 L 108.800003 1243.880005 L 89.599998 1243.880005 L 82.400002 1236.679932 L 82.400002 1211.23999 L 91.040001 1211.23999 L 91.040001 1231.160034 L 93.199997 1233.320068 L 105.199997 1233.320068 L 107.360001 1231.160034 L 107.360001 1220.359985 L 105.199997 1218.199951 L 102.559998 1218.199951 L 102.559998 1227.800049 L 95.120003 1227.800049 L 95.120003 1207.880005 L 108.800003 1207.880005 L 116 1215.079956 Z"/>
    <path id="Actuator-" fill="#000000" fill-rule="evenodd" stroke="none" d="M 221.699997 983.459961 L 212.820007 983.459961 L 212.820007 992.339966 L 206.100006 992.339966 L 206.100006 983.459961 L 197.220001 983.459961 L 197.220001 976.73999 L 206.100006 976.73999 L 206.100006 967.859985 L 212.820007 967.859985 L 212.820007 976.73999 L 221.699997 976.73999 Z M 226.5 1028.579956 L 202.020004 1028.579956 L 202.020004 1020.660034 L 203.940002 1020.660034 L 203.940002 1019.700012 L 202.020004 1017.540039 L 202.020004 1009.140015 L 209.699997 1009.140015 L 209.699997 1017.299988 L 210.899994 1018.73999 L 226.5 1018.73999 Z M 226.5 1055.699951 L 220.740005 1061.459961 L 207.779999 1061.459961 L 202.020004 1055.699951 L 202.020004 1039.619995 L 207.779999 1033.859985 L 220.740005 1033.859985 L 226.5 1039.619995 Z M 218.820007 1050.420044 L 218.820007 1044.900024 L 217.619995 1043.699951 L 210.899994 1043.699951 L 209.699997 1044.900024 L 209.699997 1050.420044 L 210.899994 1051.619995 L 217.619995 1051.619995 Z M 226.5 1078.02002 L 221.220001 1083.300049 L 209.220001 1083.300049 L 209.220001 1088.099976 L 202.020004 1088.099976 L 202.020004 1083.300049 L 195.779999 1083.300049 L 195.779999 1073.459961 L 202.020004 1073.459961 L 202.020004 1065.540039 L 209.220001 1065.540039 L 209.220001 1073.459961 L 218.339996 1073.459961 L 218.820007 1072.97998 L 218.820007 1065.060059 L 226.5 1065.060059 Z M 226.5 1114.26001 L 221.940002 1118.820068 L 215.940002 1118.820068 L 211.380005 1114.26001 L 211.380005 1101.300049 L 210.179993 1101.300049 L 209.220001 1102.26001 L 209.220001 1115.459961 L 202.020004 1115.459961 L 202.020004 1096.5 L 207.059998 1091.459961 L 226.5 1091.459961 L 226.5 1099.380005 L 224.820007 1099.380005 L 224.820007 1100.099976 L 226.5 1102.02002 Z M 219.779999 1108.26001 L 219.779999 1102.5 L 218.820007 1101.300049 L 216.419998 1101.300049 L 216.419998 1108.02002 L 217.380005 1108.97998 L 219.059998 1108.97998 Z M 226.5 1144.26001 L 220.979996 1149.780029 L 202.020004 1149.780029 L 202.020004 1139.939941 L 217.860001 1139.939941 L 218.820007 1138.97998 L 218.820007 1134.660034 L 217.619995 1133.219971 L 202.020004 1133.219971 L 202.020004 1123.380005 L 226.5 1123.380005 L 226.5 1131.300049 L 224.580002 1131.300049 L 224.580002 1132.26001 L 226.5 1134.420044 Z M 226.5 1166.579956 L 221.220001 1171.859985 L 209.220001 1171.859985 L 209.220001 1176.660034 L 202.020004 1176.660034 L 202.020004 1171.859985 L 195.779999 1171.859985 L 195.779999 1162.02002 L 202.020004 1162.02002 L 202.020004 1154.099976 L 209.220001 1154.099976 L 209.220001 1162.02002 L 218.339996 1162.02002 L 218.820007 1161.540039 L 218.820007 1153.619995 L 226.5 1153.619995 Z M 226.5 1197.300049 L 220.740005 1203.060059 L 207.779999 1203.060059 L 202.020004 1197.300049 L 202.020004 1179.540039 L 209.699997 1179.540039 L 209.699997 1192.02002 L 210.899994 1193.219971 L 217.619995 1193.219971 L 218.820007 1192.02002 L 218.820007 1179.540039 L 226.5 1179.540039 Z M 192.899994 1218.468018 L 223.619995 1205.699951 L 226.5 1205.699951 L 226.5 1215.972046 L 220.979996 1218.036011 L 220.979996 1233.635986 L 226.5 1235.748047 L 226.5 1245.780029 L 223.619995 1245.780029 L 192.899994 1232.771973 Z M 212.339996 1230.323975 L 212.339996 1221.251953 L 202.020004 1225.140015 L 202.020004 1226.339966 Z"/>
    <path id="path11" fill="#000000" fill-rule="evenodd" stroke="none" d="M 337.5 1138.884033 L 306.779999 1149.780029 L 303.899994 1149.780029 L 303.899994 1139.891968 L 327.899994 1131.780029 L 327.899994 1130.147949 L 303.899994 1121.988037 L 303.899994 1112.339966 L 306.779999 1112.339966 L 337.5 1123.043945 Z M 337.5 1185.540039 L 323.100006 1185.540039 L 316.859985 1179.300049 L 316.859985 1164.420044 L 315.899994 1163.459961 L 313.5 1163.459961 L 312.540009 1164.420044 L 312.540009 1184.099976 L 303.899994 1184.099976 L 303.899994 1158.179932 L 309.179993 1152.900024 L 319.73999 1152.900024 L 325.019989 1158.179932 L 325.019989 1173.540039 L 326.459991 1174.97998 L 328.859985 1174.97998 L 328.859985 1153.140015 L 337.5 1153.140015 Z M 337.5 1216.73999 L 328.859985 1216.73999 L 328.859985 1207.380005 L 312.540009 1207.380005 L 312.540009 1215.780029 L 303.899994 1215.780029 L 303.899994 1196.820068 L 328.859985 1196.820068 L 328.859985 1188.420044 L 337.5 1188.420044 Z M 332.700012 1235.939941 L 323.820007 1235.939941 L 323.820007 1244.820068 L 317.100006 1244.820068 L 317.100006 1235.939941 L 308.220001 1235.939941 L 308.220001 1229.219971 L 317.100006 1229.219971 L 317.100006 1220.339966 L 323.820007 1220.339966 L 323.820007 1229.219971 L 332.700012 1229.219971 Z"/>
    <g id="Ch2">
        <path id="path12" fill="none" stroke="#000000" stroke-width="8" d="M 1488 1467 L 1838 1467 L 1838 1324 L 1488 1324 Z"/>
        <path id="path13" fill="none" stroke="#000000" stroke-width="8" d="M 1488 1467 L 1605 1467 L 1605 1324 L 1488 1324 Z"/>
        <path id="path14" fill="none" stroke="#000000" stroke-width="8" d="M 1721 1467 L 1838 1467 L 1838 1324 L 1721 1324 Z"/>
        <path id="path15" fill="none" stroke="#000000" stroke-width="8" d="M 1522 1324 L 1522 1271 L 1568 1271"/>
        <path id="path16" fill="none" stroke="#000000" stroke-width="8" d="M 1808 1324 L 1808 1271 L 1762 1271"/>
        <path id="path17" fill="none" stroke="#000000" stroke-width="5" d="M 1762 1272 C 1762 1269.238525 1759.761475 1267 1757 1267 C 1754.238525 1267 1752 1269.238525 1752 1272 C 1752 1274.761475 1754.238525 1277 1757 1277 C 1759.761475 1277 1762 1274.761475 1762 1272 Z"/>
        <path id="path18" fill="none" stroke="#000000" stroke-width="5" d="M 1576 1272 C 1576 1269.238525 1573.761475 1267 1571 1267 C 1568.238525 1267 1566 1269.238525 1566 1272 C 1566 1274.761475 1568.238525 1277 1571 1277 C 1573.761475 1277 1576 1274.761475 1576 1272 Z"/>
        <path id="path19" fill="none" stroke="#000000" stroke-width="5" d="M 1751 1257 C 1751 1254.238525 1748.761475 1252 1746 1252 C 1743.238525 1252 1741 1254.238525 1741 1257 C 1741 1259.761475 1743.238525 1262 1746 1262 C 1748.761475 1262 1751 1259.761475 1751 1257 Z"/>
        <path id="path20" fill="none" stroke="#000000" stroke-width="5" d="M 1663 1326 L 1663 1303 L 1742 1260"/>
        <path id="path21" fill="none" stroke="#000000" stroke-width="8" d="M 1569 1380 C 1569 1368.954346 1560.045654 1360 1549 1360 C 1537.954346 1360 1529 1368.954346 1529 1380 C 1529 1391.045654 1537.954346 1400 1549 1400 C 1560.045654 1400 1569 1391.045654 1569 1380 Z"/>
        <path id="path22" fill="none" stroke="#000000" stroke-width="8" d="M 1686 1380 C 1686 1368.954346 1677.045654 1360 1666 1360 C 1654.954346 1360 1646 1368.954346 1646 1380 C 1646 1391.045654 1654.954346 1400 1666 1400 C 1677.045654 1400 1686 1391.045654 1686 1380 Z"/>
        <path id="path23" fill="none" stroke="#000000" stroke-width="8" d="M 1802 1380 C 1802 1368.954346 1793.045654 1360 1782 1360 C 1770.954346 1360 1762 1368.954346 1762 1380 C 1762 1391.045654 1770.954346 1400 1782 1400 C 1793.045654 1400 1802 1391.045654 1802 1380 Z"/>
    </g>
    <g id="Ch3">
        <path id="path24" fill="none" stroke="#000000" stroke-width="8" d="M 1125 1467 L 1475 1467 L 1475 1324 L 1125 1324 Z"/>
        <path id="path25" fill="none" stroke="#000000" stroke-width="8" d="M 1125 1467 L 1242 1467 L 1242 1324 L 1125 1324 Z"/>
        <path id="path26" fill="none" stroke="#000000" stroke-width="8" d="M 1358 1467 L 1475 1467 L 1475 1324 L 1358 1324 Z"/>
        <path id="path27" fill="none" stroke="#000000" stroke-width="8" d="M 1159 1324 L 1159 1271 L 1205 1271"/>
        <path id="path28" fill="none" stroke="#000000" stroke-width="8" d="M 1445 1324 L 1445 1271 L 1399 1271"/>
        <path id="path29" fill="none" stroke="#000000" stroke-width="5" d="M 1399 1272 C 1399 1269.238525 1396.761475 1267 1394 1267 C 1391.238525 1267 1389 1269.238525 1389 1272 C 1389 1274.761475 1391.238525 1277 1394 1277 C 1396.761475 1277 1399 1274.761475 1399 1272 Z"/>
        <path id="path30" fill="none" stroke="#000000" stroke-width="5" d="M 1213 1272 C 1213 1269.238525 1210.761475 1267 1208 1267 C 1205.238525 1267 1203 1269.238525 1203 1272 C 1203 1274.761475 1205.238525 1277 1208 1277 C 1210.761475 1277 1213 1274.761475 1213 1272 Z"/>
        <path id="path31" fill="none" stroke="#000000" stroke-width="5" d="M 1388 1257 C 1388 1254.238525 1385.761475 1252 1383 1252 C 1380.238525 1252 1378 1254.238525 1378 1257 C 1378 1259.761475 1380.238525 1262 1383 1262 C 1385.761475 1262 1388 1259.761475 1388 1257 Z"/>
        <path id="path32" fill="none" stroke="#000000" stroke-width="5" d="M 1300 1326 L 1300 1303 L 1379 1260"/>
        <path id="path33" fill="none" stroke="#000000" stroke-width="8" d="M 1206 1380 C 1206 1368.954346 1197.045654 1360 1186 1360 C 1174.954346 1360 1166 1368.954346 1166 1380 C 1166 1391.045654 1174.954346 1400 1186 1400 C 1197.045654 1400 1206 1391.045654 1206 1380 Z"/>
        <path id="path34" fill="none" stroke="#000000" stroke-width="8" d="M 1323 1380 C 1323 1368.954346 1314.045654 1360 1303 1360 C 1291.954346 1360 1283 1368.954346 1283 1380 C 1283 1391.045654 1291.954346 1400 1303 1400 C 1314.045654 1400 1323 1391.045654 1323 1380 Z"/>
        <path id="path35" fill="none" stroke="#000000" stroke-width="8" d="M 1439 1380 C 1439 1368.954346 1430.045654 1360 1419 1360 C 1407.954346 1360 1399 1368.954346 1399 1380 C 1399 1391.045654 1407.954346 1400 1419 1400 C 1430.045654 1400 1439 1391.045654 1439 1380 Z"/>
    </g>
    <g id="Ch1-copy">
        <path id="path36" fill="none" stroke="#000000" stroke-width="8" d="M 762 1467 L 1112 1467 L 1112 1324 L 762 1324 Z"/>
        <path id="path37" fill="none" stroke="#000000" stroke-width="8" d="M 762 1467 L 879 1467 L 879 1324 L 762 1324 Z"/>
        <path id="path38" fill="none" stroke="#000000" stroke-width="8" d="M 995 1467 L 1112 1467 L 1112 1324 L 995 1324 Z"/>
        <path id="path39" fill="none" stroke="#000000" stroke-width="8" d="M 796 1324 L 796 1271 L 842 1271"/>
        <path id="path40" fill="none" stroke="#000000" stroke-width="8" d="M 1082 1324 L 1082 1271 L 1036 1271"/>
        <path id="path41" fill="none" stroke="#000000" stroke-width="5" d="M 1036 1272 C 1036 1269.238525 1033.761475 1267 1031 1267 C 1028.238525 1267 1026 1269.238525 1026 1272 C 1026 1274.761475 1028.238525 1277 1031 1277 C 1033.761475 1277 1036 1274.761475 1036 1272 Z"/>
        <path id="path42" fill="none" stroke="#000000" stroke-width="5" d="M 850 1272 C 850 1269.238525 847.761414 1267 845 1267 C 842.238586 1267 840 1269.238525 840 1272 C 840 1274.761475 842.238586 1277 845 1277 C 847.761414 1277 850 1274.761475 850 1272 Z"/>
        <path id="path43" fill="none" stroke="#000000" stroke-width="5" d="M 1025 1257 C 1025 1254.238525 1022.761414 1252 1020 1252 C 1017.238586 1252 1015 1254.238525 1015 1257 C 1015 1259.761475 1017.238586 1262 1020 1262 C 1022.761414 1262 1025 1259.761475 1025 1257 Z"/>
        <path id="path44" fill="none" stroke="#000000" stroke-width="5" d="M 937 1326 L 937 1303 L 1016 1260"/>
        <path id="path45" fill="none" stroke="#000000" stroke-width="8" d="M 843 1380 C 843 1368.954346 834.045715 1360 823 1360 C 811.954285 1360 803 1368.954346 803 1380 C 803 1391.045654 811.954285 1400 823 1400 C 834.045715 1400 843 1391.045654 843 1380 Z"/>
        <path id="path46" fill="none" stroke="#000000" stroke-width="8" d="M 960 1380 C 960 1368.954346 951.045715 1360 940 1360 C 928.954285 1360 920 1368.954346 920 1380 C 920 1391.045654 928.954285 1400 940 1400 C 951.045715 1400 960 1391.045654 960 1380 Z"/>
        <path id="path47" fill="none" stroke="#000000" stroke-width="8" d="M 1076 1380 C 1076 1368.954346 1067.045654 1360 1056 1360 C 1044.954346 1360 1036 1368.954346 1036 1380 C 1036 1391.045654 1044.954346 1400 1056 1400 C 1067.045654 1400 1076 1391.045654 1076 1380 Z"/>
    </g>
    <g id="Ch2-copy">
        <path id="path48" fill="none" stroke="#000000" stroke-width="8" d="M 399 1467 L 749 1467 L 749 1324 L 399 1324 Z"/>
        <path id="path49" fill="none" stroke="#000000" stroke-width="8" d="M 399 1467 L 516 1467 L 516 1324 L 399 1324 Z"/>
        <path id="path50" fill="none" stroke="#000000" stroke-width="8" d="M 632 1467 L 749 1467 L 749 1324 L 632 1324 Z"/>
        <path id="path51" fill="none" stroke="#000000" stroke-width="8" d="M 433 1324 L 433 1271 L 479 1271"/>
        <path id="path52" fill="none" stroke="#000000" stroke-width="8" d="M 719 1324 L 719 1271 L 673 1271"/>
        <path id="path53" fill="none" stroke="#000000" stroke-width="5" d="M 673 1272 C 673 1269.238525 670.761414 1267 668 1267 C 665.238586 1267 663 1269.238525 663 1272 C 663 1274.761475 665.238586 1277 668 1277 C 670.761414 1277 673 1274.761475 673 1272 Z"/>
        <path id="path54" fill="none" stroke="#000000" stroke-width="5" d="M 487 1272 C 487 1269.238525 484.761414 1267 482 1267 C 479.238586 1267 477 1269.238525 477 1272 C 477 1274.761475 479.238586 1277 482 1277 C 484.761414 1277 487 1274.761475 487 1272 Z"/>
        <path id="path55" fill="none" stroke="#000000" stroke-width="5" d="M 662 1257 C 662 1254.238525 659.761414 1252 657 1252 C 654.238586 1252 652 1254.238525 652 1257 C 652 1259.761475 654.238586 1262 657 1262 C 659.761414 1262 662 1259.761475 662 1257 Z"/>
        <path id="path56" fill="none" stroke="#000000" stroke-width="5" d="M 574 1326 L 574 1303 L 653 1260"/>
        <path id="path57" fill="none" stroke="#000000" stroke-width="8" d="M 480 1380 C 480 1368.954346 471.045685 1360 460 1360 C 448.954315 1360 440 1368.954346 440 1380 C 440 1391.045654 448.954315 1400 460 1400 C 471.045685 1400 480 1391.045654 480 1380 Z"/>
        <path id="path58" fill="none" stroke="#000000" stroke-width="8" d="M 597 1380 C 597 1368.954346 588.045715 1360 577 1360 C 565.954285 1360 557 1368.954346 557 1380 C 557 1391.045654 565.954285 1400 577 1400 C 588.045715 1400 597 1391.045654 597 1380 Z"/>
        <path id="path59" fill="none" stroke="#000000" stroke-width="8" d="M 713 1380 C 713 1368.954346 704.045715 1360 693 1360 C 681.954285 1360 673 1368.954346 673 1380 C 673 1391.045654 681.954285 1400 693 1400 C 704.045715 1400 713 1391.045654 713 1380 Z"/>
    </g>
    <g id="Ch3-copy">
        <path id="path60" fill="none" stroke="#000000" stroke-width="8" d="M 36 1467 L 386 1467 L 386 1324 L 36 1324 Z"/>
        <path id="path61" fill="none" stroke="#000000" stroke-width="8" d="M 36 1467 L 153 1467 L 153 1324 L 36 1324 Z"/>
        <path id="path62" fill="none" stroke="#000000" stroke-width="8" d="M 269 1467 L 386 1467 L 386 1324 L 269 1324 Z"/>
        <path id="path63" fill="none" stroke="#000000" stroke-width="8" d="M 70 1324 L 70 1271 L 116 1271"/>
        <path id="path64" fill="none" stroke="#000000" stroke-width="8" d="M 356 1324 L 356 1271 L 310 1271"/>
        <path id="path65" fill="none" stroke="#000000" stroke-width="5" d="M 310 1272 C 310 1269.238525 307.761414 1267 305 1267 C 302.238586 1267 300 1269.238525 300 1272 C 300 1274.761475 302.238586 1277 305 1277 C 307.761414 1277 310 1274.761475 310 1272 Z"/>
        <path id="path66" fill="none" stroke="#000000" stroke-width="5" d="M 124 1272 C 124 1269.238525 121.761421 1267 119 1267 C 116.238579 1267 114 1269.238525 114 1272 C 114 1274.761475 116.238579 1277 119 1277 C 121.761421 1277 124 1274.761475 124 1272 Z"/>
        <path id="path67" fill="none" stroke="#000000" stroke-width="5" d="M 299 1257 C 299 1254.238525 296.761414 1252 294 1252 C 291.238586 1252 289 1254.238525 289 1257 C 289 1259.761475 291.238586 1262 294 1262 C 296.761414 1262 299 1259.761475 299 1257 Z"/>
        <path id="path68" fill="none" stroke="#000000" stroke-width="5" d="M 211 1326 L 211 1303 L 290 1260"/>
        <path id="path69" fill="none" stroke="#000000" stroke-width="8" d="M 117 1380 C 117 1368.954346 108.045692 1360 97 1360 C 85.954308 1360 77 1368.954346 77 1380 C 77 1391.045654 85.954308 1400 97 1400 C 108.045692 1400 117 1391.045654 117 1380 Z"/>
        <path id="path70" fill="none" stroke="#000000" stroke-width="8" d="M 234 1380 C 234 1368.954346 225.0457 1360 214 1360 C 202.9543 1360 194 1368.954346 194 1380 C 194 1391.045654 202.9543 1400 214 1400 C 225.0457 1400 234 1391.045654 234 1380 Z"/>
        <path id="path71" fill="none" stroke="#000000" stroke-width="8" d="M 350 1380 C 350 1368.954346 341.045685 1360 330 1360 C 318.954315 1360 310 1368.954346 310 1380 C 310 1391.045654 318.954315 1400 330 1400 C 341.045685 1400 350 1391.045654 350 1380 Z"/>
    </g>
</svg>
