<?xml version="1.0" encoding="UTF-8"?>
<svg width="256" height="64" viewBox="0 0 256 64" xmlns="http://www.w3.org/2000/svg">
    <g id="Group">
        <g id="g1">
            <path id="Path" fill="none" stroke="none" d="M 216.436356 60.9991 C 144.290146 60.9991 72.145752 60.9991 -0 60.9991 C -0 41.904678 -0 22.810707 -0 3.716282 C 85.290787 3.716282 170.580643 3.716282 255.871872 3.716282 C 255.871872 7.355389 255.871872 10.994045 255.871872 14.633152 C 252.592712 14.633152 249.31485 14.633152 246.039688 14.633152 C 242.618256 21.323467 239.209808 27.988205 235.801819 34.652946 C 235.782074 34.65115 235.762787 34.649353 235.743042 34.64756 C 234.59462 27.985962 233.446671 21.324368 232.295563 14.648411 C 227.961761 14.648411 223.644562 14.648411 219.319717 14.648411 C 219.323761 14.706303 219.320618 14.748035 219.329147 14.786633 C 219.680084 16.252777 220.031021 17.718918 220.384216 19.184612 C 221.010696 21.788849 221.638092 24.392185 222.263229 26.996414 C 223.085846 30.422356 223.905731 33.849194 224.728775 37.274681 C 225.504715 40.503159 226.279739 43.732086 227.062866 46.958771 C 227.102814 47.121674 227.092041 47.257202 227.02066 47.398567 C 226.822327 47.789448 226.635193 48.186615 226.42334 48.569862 C 224.804184 51.503498 222.520386 53.763519 219.534683 55.294739 C 216.89859 56.646893 214.069962 57.232094 211.128708 57.310181 C 210.313278 57.331722 209.494263 57.289986 208.678391 57.260368 C 207.483307 57.216839 206.302139 57.045856 205.125458 56.841663 C 204.760605 56.777939 204.396194 56.711967 204.031357 56.646893 C 204.092834 56.735748 204.165527 56.788258 204.243164 56.83448 C 206.959152 58.450966 209.833542 59.685539 212.912567 60.422424 C 213.735184 60.618988 214.554199 60.83889 215.40416 60.897678 C 215.749283 60.92281 216.092575 60.965443 216.436356 60.9991 Z M 100.40593 48.275917 C 100.523949 48.349518 100.609673 48.402473 100.694939 48.456772 C 101.706474 49.100315 102.779488 49.618198 103.909058 50.018059 C 105.767868 50.675961 107.685486 51.026901 109.651566 51.140892 C 111.329521 51.237823 112.99807 51.186214 114.663467 50.953304 C 116.358925 50.716351 117.995605 50.271164 119.57843 49.626278 C 121.574577 48.813099 123.423973 47.739185 125.149948 46.451653 C 127.417152 44.759777 129.24501 42.67881 130.632172 40.214149 C 132.299805 37.250893 133.16684 34.04216 133.507462 30.680397 C 133.633118 29.429665 133.641647 28.174 133.529007 26.917431 C 133.430725 25.826462 133.220245 24.761078 132.883667 23.719475 C 132.236542 21.710758 131.063431 20.034592 129.611206 18.533443 C 127.953888 16.820477 125.988258 15.597115 123.730476 14.841831 C 121.947502 14.245411 120.107979 13.97435 118.234795 13.892673 C 116.618317 13.82222 115.006767 13.873825 113.403305 14.086544 C 111.773369 14.302856 110.177963 14.673092 108.623421 15.218353 C 106.388519 16.002811 104.330894 17.106792 102.465347 18.566654 C 100.096718 20.41964 98.222191 22.687294 96.830544 25.349419 C 95.320427 28.238621 94.512634 31.321697 94.312927 34.573067 C 94.204323 36.338089 94.310684 38.082924 94.697525 39.807556 C 95.213615 42.108871 96.211685 44.173229 97.768929 45.955757 C 97.929138 46.139305 98.099228 46.313881 98.27784 46.506851 C 98.356827 46.404533 98.422798 46.327793 98.480682 46.244766 C 99.43837 44.870625 100.394707 43.496029 101.351936 42.121437 C 102.332962 40.713188 103.309937 39.303139 104.299034 37.901169 C 104.493355 37.626068 104.517586 37.327637 104.549454 37.018433 C 104.285576 37.018433 104.0392 36.991955 103.801346 37.025162 C 103.466118 37.071384 103.260574 36.924637 103.102608 36.667492 C 103.242172 36.277954 103.261475 36.015869 103.091835 35.555878 C 103.009705 35.33329 103.051895 35.191925 103.202682 35.041584 C 103.795059 34.450996 104.382957 33.854576 104.978027 33.266235 C 105.157547 33.088516 105.438026 32.96331 105.521942 32.753288 C 105.607208 32.541466 105.506241 32.2547 105.486496 32.001141 C 105.483345 31.9603 105.477074 31.91991 105.47258 31.879524 C 105.376099 30.986462 105.28051 30.093853 105.183121 29.200794 C 105.136002 28.76638 105.085289 28.331966 105.034126 27.876461 C 104.930908 27.904285 104.834869 27.910122 104.759926 27.952755 C 104.51445 28.093666 104.345261 27.997181 104.179665 27.809143 C 103.984451 27.587002 103.775764 27.37608 103.567085 27.1665 C 102.110817 25.703499 100.653198 24.24229 99.19693 22.78019 C 99.142181 22.724991 99.095505 22.662609 99.02774 22.583176 C 99.380928 22.370457 99.726028 22.190948 100.038383 21.966114 C 100.285652 21.788399 100.470993 21.810387 100.724106 21.963421 C 102.644409 23.127541 104.579521 24.267426 106.496689 25.436928 C 106.825638 25.637531 107.089508 25.707539 107.384796 25.428852 C 107.405449 25.40955 107.44046 25.405964 107.482185 25.389359 C 107.62265 25.516361 107.767166 25.643814 107.908073 25.775749 C 108.020721 25.881214 108.122139 25.971867 108.307037 25.936863 C 108.469933 25.905895 108.560143 26.017639 108.58033 26.190868 C 108.616241 26.498726 108.98558 26.832615 109.293442 26.850567 C 109.511093 26.863579 109.565849 26.911148 109.594566 27.115788 C 109.640785 27.442051 109.978271 27.760231 110.297798 27.768307 C 110.453522 27.772346 110.577377 27.836071 110.569756 27.992245 C 110.554947 28.309978 110.794594 28.414543 110.98307 28.573856 C 111.321007 28.37191 111.642769 28.174 111.969475 27.985516 C 113.366508 27.178616 114.782837 26.407627 116.292061 25.827362 C 116.928864 25.582329 117.571053 25.33012 118.280579 25.45039 C 118.32769 25.458469 118.380196 25.440067 118.429573 25.429298 C 119.164665 25.269535 119.913216 25.305885 120.65683 25.287037 C 121.054451 25.277164 121.458344 25.273575 121.849678 25.332363 C 122.186256 25.383076 122.49501 25.370956 122.80555 25.243507 C 122.937042 25.189651 123.073929 25.144775 123.211693 25.108875 C 123.371918 25.067589 123.437431 24.974243 123.458977 24.809994 C 123.536613 24.223896 123.624573 23.639141 123.720161 23.055737 C 123.739006 22.94175 123.781189 22.803528 123.861526 22.73217 C 124.395554 22.257366 124.937225 21.791092 125.489677 21.33828 C 125.618919 21.232819 125.793045 21.171337 125.956406 21.121075 C 126.143089 21.063179 126.258415 21.128254 126.29882 21.316288 C 126.330223 21.462589 126.335167 21.621456 126.317665 21.770897 C 126.25528 22.297306 126.17675 22.821926 126.107628 23.347889 C 126.066803 23.657093 126.033592 23.967194 125.994095 24.300632 C 126.146675 24.279091 126.266953 24.268322 126.384521 24.244537 C 127.759125 23.963158 129.148087 23.827625 130.550507 23.836601 C 130.691406 23.837502 130.836365 23.857697 130.973236 23.890903 C 131.176086 23.939373 131.247437 24.047523 131.190445 24.248573 C 131.149155 24.392635 131.074219 24.5322 130.993439 24.659203 C 130.431122 25.530724 129.762451 26.312931 128.997726 27.01347 C 127.880287 28.037121 126.677582 28.950378 125.406654 29.774326 C 125.251373 29.875298 125.169258 29.991531 125.178223 30.17194 C 125.199318 30.600067 124.993324 30.904785 124.673355 31.164627 C 124.038338 31.679367 123.413643 32.20668 122.783569 32.726807 C 122.721191 32.778419 122.654327 32.829132 122.58252 32.865032 C 122.363068 32.973186 122.229332 32.904526 122.191185 32.661736 C 122.177269 32.571983 122.182655 32.478638 122.182213 32.386639 C 122.181313 32.162697 122.182213 31.938759 122.182213 31.69059 C 122.100533 31.7229 122.043098 31.739506 121.991478 31.76688 C 121.432304 32.062622 120.875832 32.36375 120.315315 32.656799 C 118.408028 33.655769 116.46843 34.584282 114.442223 35.320724 C 113.608398 35.623642 112.765152 35.893356 111.876137 35.992981 C 111.731186 36.00914 111.583534 36.077801 111.455177 36.154541 C 111.052628 36.395981 110.666687 36.666595 110.260094 36.900852 C 109.570778 37.298466 108.974365 37.797054 108.480263 38.421295 C 108.366272 38.564457 108.231194 38.691906 108.10778 38.827438 C 107.593491 39.393791 107.079185 39.960144 106.568039 40.523804 C 106.735878 40.784988 106.696831 40.904362 106.418594 41.006233 C 106.361595 41.027328 106.300117 41.056049 106.242226 41.052906 C 106.087395 41.04438 106.003487 41.141312 105.912819 41.241394 C 105.528679 41.664581 105.140938 42.085087 104.75589 42.507385 C 104.530151 42.755104 104.307114 43.004623 104.086319 43.248756 C 104.249672 43.480324 104.229477 43.588478 104.011818 43.693489 C 103.940018 43.728043 103.853401 43.732533 103.779808 43.764847 C 103.673004 43.811966 103.564392 43.861778 103.471046 43.929993 C 103.389816 43.989231 103.328789 44.075844 103.259674 44.151237 C 102.702301 44.760674 102.144928 45.371006 101.58934 45.979095 C 101.764366 46.181046 101.748207 46.304008 101.542671 46.416199 C 101.498695 46.440437 101.448433 46.464218 101.399963 46.466461 C 101.11544 46.478134 100.950737 46.669754 100.781998 46.862282 C 100.606979 47.061985 100.425224 47.255852 100.24437 47.450623 C 99.971962 47.744572 99.758347 48.117054 99.266495 48.126476 C 99.3899 48.477867 99.498055 48.787521 99.618332 49.129486 C 99.890732 48.835987 100.138008 48.567173 100.40593 48.275917 Z M 164.589539 39.197227 C 164.531189 39.212936 164.507401 39.212936 164.493042 39.224602 C 164.419449 39.279354 164.347183 39.335899 164.276291 39.393791 C 163.021957 40.416542 161.704361 41.340569 160.22789 42.020912 C 158.040115 43.027958 155.768433 43.467308 153.379166 42.96199 C 151.603821 42.586365 150.150681 41.678497 149.075882 40.198441 C 148.060303 38.799164 147.612411 37.20153 147.510101 35.503822 C 147.405075 33.747768 147.624985 32.021332 148.12178 30.3326 C 148.743332 28.220673 149.707291 26.290497 151.176132 24.633621 C 152.383331 23.270699 153.828384 22.249741 155.55661 21.651073 C 157.095917 21.117481 158.678726 20.953232 160.293854 21.149345 C 161.706604 21.320778 162.974396 21.841801 164.040665 22.804424 C 164.712936 23.411163 165.252365 24.128754 165.741531 24.886284 C 165.811996 24.996231 165.88559 25.103935 165.972198 25.232288 C 167.809021 23.954628 169.622986 22.692677 171.447678 21.423546 C 170.817154 20.470348 170.183487 19.569214 169.457825 18.735394 C 168.160431 17.243668 166.63504 16.055317 164.835449 15.220146 C 163.008041 14.371517 161.07428 13.948772 159.080826 13.784523 C 157.458969 13.650787 155.837097 13.69297 154.218369 13.884151 C 152.664703 14.067249 151.143829 14.389019 149.657928 14.875938 C 146.030945 16.064739 142.925873 18.072105 140.314468 20.847321 C 137.782928 23.536819 135.960464 26.643677 134.845261 30.166107 C 134.431931 31.472931 134.155945 32.809383 134.01593 34.170959 C 133.918991 35.115631 133.881729 36.065685 133.94278 37.015289 C 133.977783 37.565041 134.009644 38.116577 134.085037 38.661392 C 134.227295 39.702545 134.465149 40.724854 134.809357 41.719784 C 135.49733 43.706955 136.547897 45.472427 138.029755 46.972229 C 139.664185 48.625511 141.619949 49.750141 143.823883 50.451572 C 146.10498 51.177242 148.449829 51.40118 150.835068 51.327579 C 152.348785 51.280907 153.845886 51.124733 155.330429 50.827194 C 157.197784 50.452019 158.994217 49.861885 160.709427 49.035244 C 163.011627 47.925873 165.062088 46.458389 166.870193 44.651623 C 167.293839 44.227982 167.704025 43.789978 168.133942 43.344795 C 166.939301 41.946419 165.766205 40.573166 164.589539 39.197227 Z M 68.13147 14.654243 C 59.119648 14.654243 50.14328 14.654243 41.160622 14.654243 C 39.608765 24.45636 38.060944 34.236931 36.510429 44.031868 C 36.622623 44.076294 36.714176 44.117134 36.808865 44.149445 C 37.262577 44.302475 37.714939 44.459099 38.171787 44.602707 C 40.226276 45.246696 42.317112 45.741695 44.441605 46.083656 C 45.608418 46.271698 46.784206 46.412609 47.960892 46.53019 C 49.05724 46.639244 50.159431 46.740215 51.260277 46.753227 C 53.119095 46.775665 54.978359 46.734833 56.837189 46.700722 C 57.469509 46.689507 58.10183 46.633408 58.731903 46.571926 C 59.797741 46.467812 60.863132 46.356514 61.925381 46.222332 C 62.945892 46.093533 63.962811 45.931526 64.981079 45.786125 C 65.109428 45.767723 65.17585 45.711178 65.196938 45.574753 C 65.355804 44.547508 65.521408 43.52116 65.68251 42.49437 C 65.69104 42.439171 65.675331 42.379929 65.668594 42.290627 C 60.370827 42.290627 55.0928 42.290627 49.78426 42.290627 C 50.140137 40.042717 50.490181 37.832508 50.844707 35.592228 C 54.721214 35.592228 58.56855 35.592228 62.414989 35.592228 C 62.793304 33.147308 63.193611 30.741432 63.561607 28.28709 C 59.681515 28.28709 55.855713 28.28709 51.999851 28.28709 C 52.299183 26.400444 52.592232 24.552845 52.890217 22.675175 C 57.555222 22.675175 62.200031 22.675175 66.862793 22.675175 C 67.28688 19.989265 67.707375 17.33387 68.13147 14.654243 Z M 191.21347 50.366756 C 195.574646 50.366756 199.882431 50.366756 204.209961 50.366756 C 205.671616 41.135483 207.131027 31.918568 208.594925 22.668892 C 211.501633 22.668892 214.376923 22.668892 217.261185 22.668892 C 217.68663 19.97266 218.10759 17.312778 218.527191 14.654243 C 208.308609 14.654243 198.13446 14.654243 187.950897 14.654243 C 187.527695 17.32983 187.10675 19.983879 186.680405 22.676521 C 189.65802 22.676521 192.606476 22.676521 195.595749 22.676521 C 194.132751 31.923054 192.676025 41.1292 191.21347 50.366756 Z M 167.888916 50.36496 C 172.329971 50.36496 176.698334 50.36496 181.085999 50.36496 C 182.971756 38.45092 184.854797 26.553925 186.739197 14.650654 C 182.319229 14.650654 177.941437 14.650654 173.542557 14.650654 C 171.657272 26.557518 169.775116 38.447777 167.888916 50.36496 Z M 66.748352 45.441463 C 66.895096 45.425308 66.996521 45.423065 67.09391 45.40197 C 68.298866 45.144825 69.507408 44.902489 70.706985 44.622902 C 73.894173 43.88018 77.036484 42.978592 80.142899 41.950005 C 80.375809 41.873264 80.436401 41.750748 80.466911 41.545658 C 80.572372 40.829414 80.68502 40.114521 80.798553 39.399624 C 80.994667 38.161903 81.194374 36.924637 81.390488 35.687366 C 81.564613 34.590565 81.736046 33.492867 81.910172 32.396061 C 82.082497 31.309132 82.258415 30.222202 82.429848 29.134823 C 82.60128 28.047894 82.767326 26.960514 82.938309 25.873585 C 83.11602 24.745815 83.297775 23.618946 83.476387 22.491627 C 83.646919 21.414124 83.814766 20.336166 83.986641 19.259109 C 84.201607 17.910545 84.419708 16.561981 84.634674 15.213417 C 84.663849 15.028519 84.681793 14.841831 84.706024 14.645271 C 80.325546 14.645271 75.984558 14.645271 71.623825 14.645271 C 69.99971 24.901989 68.377403 35.148392 66.748352 45.441463 Z M 26.266722 40.058426 C 26.163954 39.983929 26.0917 39.92828 26.015858 39.878017 C 24.689281 38.993034 23.417906 38.033112 22.190062 37.017086 C 19.58493 34.862968 17.222139 32.464275 15.046933 29.880238 C 13.025207 27.477951 11.19017 24.937893 9.497846 22.295063 C 7.012537 18.41317 4.853039 14.352669 2.899527 10.18042 C 2.744699 9.850571 2.59077 9.519825 2.436841 9.189529 C 2.417543 9.195812 2.398695 9.202545 2.379398 9.208828 C 5.618197 22.926487 8.856547 36.644154 12.100732 50.384705 C 12.225042 50.384705 12.325119 50.384705 12.425644 50.384705 C 14.980514 50.384705 17.534933 50.379322 20.0898 50.392334 C 20.385994 50.393681 20.539474 50.302132 20.682631 50.044983 C 22.415346 46.932739 24.160625 43.828125 25.902319 40.72171 C 26.020796 40.508545 26.136576 40.294029 26.266722 40.058426 Z M 40.515285 14.647961 C 40.377064 14.640331 40.289104 14.631805 40.201145 14.631805 C 37.053448 14.630905 33.906197 14.633602 30.758497 14.625973 C 30.540394 14.625523 30.437174 14.697773 30.345179 14.890747 C 29.843897 15.93998 29.327806 16.982033 28.815308 18.025433 C 27.79031 20.112679 26.763964 22.199028 25.738966 24.286724 C 24.327122 27.161568 22.915731 30.036858 21.505232 32.912151 C 21.259306 33.412987 21.016968 33.916058 20.767899 34.429008 C 22.650953 36.173389 24.636778 37.745445 26.771143 39.169403 C 31.359406 30.982872 35.927471 22.832245 40.515285 14.647961 Z M 98.959984 49.726357 C 98.56147 49.956577 98.194817 50.175579 97.820541 50.380219 C 97.680077 50.456959 97.525246 50.519787 97.369522 50.555241 C 97.102051 50.616722 96.820671 50.626144 96.558586 50.703785 C 96.015121 50.863995 95.613922 50.657112 95.24099 50.28373 C 93.241707 48.280407 91.23613 46.283813 89.233704 44.28363 C 89.061829 44.111748 88.898026 43.932236 88.703255 43.727596 C 89.259285 43.426918 89.785248 43.138359 90.315254 42.857872 C 90.633881 42.689583 90.954308 42.676571 91.276527 42.867294 C 91.917374 43.24696 92.562706 43.618996 93.204903 43.995964 C 93.465637 44.148548 93.723686 44.304718 94.021225 44.482887 C 94.137459 43.736122 94.246056 43.037384 94.361389 42.298256 C 94.187271 42.298256 94.067001 42.298256 93.947174 42.298256 C 90.135292 42.298256 86.323853 42.296906 82.511978 42.301395 C 82.352654 42.301846 82.185715 42.331459 82.034927 42.383522 C 79.163223 43.36813 76.262352 44.257599 73.323784 45.021412 C 71.372063 45.528973 69.408234 45.984032 67.426895 46.359657 C 67.139679 46.414406 66.854263 46.47858 66.570641 46.537369 C 66.379456 47.832531 66.152374 49.089096 65.979599 50.364059 C 75.043037 50.364059 84.061142 50.364059 93.073418 50.364059 C 93.105721 50.231674 93.132652 50.120377 93.177086 49.937279 C 93.510963 50.28418 93.786964 50.584862 94.077324 50.871174 C 94.448006 51.236031 94.820038 51.601334 95.211365 51.943295 C 95.423645 52.128639 95.685722 52.209419 95.981018 52.122356 C 96.136292 52.07703 96.301437 52.064465 96.462997 52.042923 C 96.984474 51.974258 97.470947 51.823471 97.906708 51.510677 C 98.129295 51.351364 98.377472 51.222118 98.626091 51.104988 C 99.190201 50.837517 99.35714 50.607296 99.060509 49.938625 C 99.038063 49.883427 99.010689 49.830471 98.959984 49.726357 Z M 16.979801 14.639435 C 16.729383 14.616547 16.516666 14.589622 16.303499 14.57885 C 15.210734 14.524097 14.132331 14.36927 13.064699 14.13591 C 10.333462 13.538143 7.92624 12.311646 5.875793 10.402115 C 4.484595 9.106503 3.325861 7.61792 2.274834 6.041378 C 2.210659 5.945343 2.143792 5.851101 2.07872 5.755962 C 2.071988 5.872192 2.10789 5.963741 2.147382 6.054398 C 3.148596 8.354362 4.198726 10.631439 5.327392 12.871716 C 6.535041 15.269512 7.818983 17.625576 9.211528 19.921051 C 11.003929 22.875328 12.955197 25.718307 15.137136 28.400627 C 16.523846 30.105522 17.990887 31.737709 19.555763 33.281044 C 19.760853 33.482994 19.97402 33.677311 20.183146 33.874771 C 20.19751 33.863106 20.21142 33.850986 20.22578 33.838871 C 19.144686 27.444294 18.063589 21.049267 16.979801 14.639435 Z M 64.991402 46.810226 C 64.689377 46.854202 64.45916 46.88921 64.228485 46.920624 C 63.107002 47.073654 61.987759 47.245087 60.863579 47.371639 C 59.829609 47.488319 58.790699 47.572243 57.752232 47.639557 C 56.621326 47.712257 55.488621 47.768356 54.355461 47.796181 C 53.467346 47.818169 52.577869 47.795731 51.689754 47.774193 C 50.924141 47.755341 50.157639 47.729759 49.394272 47.671417 C 48.407871 47.595131 47.420567 47.510307 46.439995 47.379715 C 45.208111 47.215916 43.976677 47.035057 42.756912 46.802147 C 40.653957 46.400043 38.589596 45.841774 36.565632 45.141235 C 36.501453 45.119247 36.432343 45.111614 36.341694 45.092316 C 36.062553 46.857796 35.787006 48.603077 35.511009 50.348804 C 35.947216 50.421505 64.218613 50.39772 64.438507 50.32502 C 64.61937 49.176159 64.800674 48.022362 64.991402 46.810226 Z M 122.316841 25.742096 C 122.249527 25.709335 122.223495 25.687794 122.195679 25.684204 C 121.004189 25.532963 119.81179 25.566624 118.619843 25.679714 C 118.451111 25.695869 118.352821 25.776649 118.30571 25.950771 C 118.207428 26.313385 117.997398 26.613613 117.735321 26.879284 C 117.157738 27.464485 116.442398 27.837868 115.710892 28.179832 C 114.648651 28.677074 113.569801 29.138863 112.512047 29.645077 C 111.337151 30.206944 110.264137 30.934853 109.259331 31.761047 C 109.087898 31.901962 108.930374 32.069351 108.799789 32.248413 C 108.656631 32.445427 108.726639 32.581856 108.964943 32.599808 C 109.13726 32.612373 109.318123 32.624039 109.484169 32.586792 C 110.666237 32.322014 111.855934 32.082367 113.022751 31.761497 C 114.373116 31.389462 115.638634 30.785412 116.901932 30.186298 C 118.000092 29.665722 119.080734 29.112385 120.085983 28.423965 C 120.652351 28.035778 121.187279 27.60989 121.623039 27.072708 C 121.941216 26.681377 122.181763 26.251003 122.316841 25.742096 Z"/>
            <path id="path1" fill="#ffffff" stroke="none" d="M 216.436356 60.9991 C 216.09169 60.965443 215.749283 60.92281 215.40416 60.898575 C 214.554199 60.839787 213.735184 60.620338 212.912567 60.423328 C 209.833084 59.685989 206.958252 58.451408 204.242706 56.835377 C 204.165527 56.789154 204.092377 56.736645 204.031357 56.647789 C 204.396194 56.712864 204.760162 56.778835 205.125458 56.84256 C 206.302139 57.046753 207.483307 57.217735 208.678391 57.261265 C 209.494263 57.290882 210.313278 57.332619 211.128708 57.311077 C 214.070862 57.23299 216.89859 56.647346 219.534683 55.295635 C 222.51947 53.76442 224.803284 51.504395 226.42334 48.570763 C 226.635193 48.187511 226.822327 47.790344 227.02066 47.39946 C 227.092041 47.258102 227.102814 47.12257 227.062866 46.959663 C 226.279739 43.732983 225.503372 40.504055 224.728775 37.275578 C 223.905731 33.84964 223.085846 30.423252 222.263229 26.997314 C 221.638092 24.393082 221.010696 21.789745 220.384216 19.185513 C 220.031921 17.719818 219.680969 16.253674 219.329147 14.787533 C 219.319717 14.748936 219.322861 14.707199 219.319717 14.649307 C 223.644562 14.649307 227.961761 14.649307 232.295563 14.649307 C 233.445755 21.325264 234.59462 27.986858 235.743042 34.64846 C 235.762787 34.650253 235.782074 34.652046 235.801819 34.653847 C 239.210266 27.989101 242.617798 21.324368 246.039688 14.634048 C 249.31485 14.634048 252.593582 14.634048 255.871429 14.634048 C 255.871429 14.654694 255.871429 14.674889 255.871429 14.695534 C 255.62056 15.126804 255.367004 15.556278 255.119736 15.989792 C 253.122253 19.48933 251.126556 22.989769 249.129974 26.4902 C 247.815933 28.795101 246.504181 31.100903 245.191071 33.40625 C 243.649994 36.110115 242.111145 38.815323 240.566452 41.517838 C 239.311234 43.715477 238.095947 45.936913 236.658096 48.025055 C 234.990891 50.446636 233.168869 52.733585 231.0215 54.750378 C 228.790634 56.845703 226.310272 58.547901 223.438553 59.659065 C 221.531723 60.396393 219.57283 60.854599 217.529999 60.951527 C 217.430389 60.956467 217.332108 60.983391 217.232925 60.999996 C 216.968155 60.9991 216.702011 60.9991 216.436356 60.9991 Z"/>
            <path id="path2" fill="none" stroke="none" d="M 217.23381 60.9991 C 217.33345 60.982494 217.431274 60.955124 217.530914 60.95063 C 219.57373 60.853703 221.532639 60.395496 223.439453 59.658165 C 226.311157 58.546997 228.79245 56.844799 231.0224 54.749481 C 233.168869 52.732689 234.991791 50.444839 236.658997 48.024158 C 238.096863 45.936012 239.312134 43.714584 240.567352 41.516937 C 242.111145 38.814423 243.650864 36.109215 245.191971 33.405354 C 246.505966 31.100002 247.817749 28.794205 249.130844 26.489304 C 251.126556 22.988419 253.123138 19.488434 255.120651 15.988895 C 255.367905 15.555382 255.62146 15.125904 255.87233 14.694633 C 255.87233 30.129753 255.87233 45.56443 255.87233 60.99955 C 242.992523 60.9991 230.11319 60.9991 217.23381 60.9991 Z"/>
            <path id="path3" fill="#ffffff" stroke="none" d="M 100.40593 48.275917 C 100.138008 48.566727 99.891182 48.835987 99.619225 49.130833 C 99.498955 48.788418 99.3908 48.479214 99.267387 48.127823 C 99.759697 48.118401 99.972855 47.745918 100.24527 47.451973 C 100.425674 47.257202 100.607872 47.063782 100.782898 46.863628 C 100.951187 46.671104 101.116333 46.479927 101.400856 46.467812 C 101.449326 46.465569 101.499588 46.44133 101.543564 46.417549 C 101.749107 46.305351 101.765259 46.182838 101.59024 45.980442 C 102.145821 45.372353 102.703194 44.76202 103.260574 44.152588 C 103.329689 44.07719 103.390717 43.990578 103.471947 43.931343 C 103.565292 43.863129 103.673897 43.813313 103.780701 43.766193 C 103.854301 43.733879 103.940468 43.729393 104.012718 43.694836 C 104.23037 43.589821 104.250565 43.48122 104.087212 43.250103 C 104.307564 43.00597 104.531052 42.756004 104.756783 42.508728 C 105.141838 42.086433 105.529579 41.665932 105.913727 41.242737 C 106.004379 41.142662 106.088303 41.046173 106.243126 41.054253 C 106.301018 41.057396 106.362503 41.028221 106.419487 41.00758 C 106.697739 40.905262 106.737221 40.786339 106.568932 40.52515 C 107.080544 39.961487 107.594383 39.394688 108.108673 38.828781 C 108.232086 38.692806 108.367172 38.565804 108.481163 38.422646 C 108.975258 37.798401 109.572136 37.299812 110.261002 36.902199 C 110.66758 36.667938 111.053535 36.397327 111.456085 36.155891 C 111.583534 36.079147 111.731621 36.010483 111.876579 35.994331 C 112.765602 35.894703 113.608849 35.624985 114.442673 35.322067 C 116.468872 34.585632 118.408478 33.65712 120.315765 32.658142 C 120.876282 32.364647 121.432755 32.063969 121.991928 31.768227 C 122.043991 31.740849 122.10099 31.723801 122.182655 31.691933 C 122.182655 31.940105 122.182213 32.164043 122.182655 32.387985 C 122.183105 32.479984 122.177727 32.573326 122.191635 32.663082 C 122.229332 32.905869 122.363068 32.974533 122.58297 32.866379 C 122.65522 32.830475 122.721642 32.780212 122.784019 32.728157 C 123.414101 32.207573 124.038788 31.680717 124.673805 31.165974 C 124.993774 30.906132 125.199768 30.601414 125.17868 30.173286 C 125.169693 29.992878 125.251823 29.876198 125.407104 29.775673 C 126.678032 28.951725 127.880745 28.038467 128.998184 27.014816 C 129.762894 26.313831 130.431564 25.532066 130.993881 24.660553 C 131.076004 24.533546 131.150955 24.393978 131.190903 24.249924 C 131.247894 24.04842 131.176529 23.940716 130.973694 23.89225 C 130.835907 23.859489 130.691864 23.838848 130.550934 23.837948 C 129.148514 23.828972 127.759567 23.964504 126.384979 24.245884 C 126.267403 24.269669 126.147125 24.280441 125.994545 24.301979 C 126.034027 23.96899 126.067238 23.65889 126.108078 23.349232 C 126.17675 22.823273 126.25573 22.298656 126.318115 21.772243 C 126.33606 21.622799 126.331123 21.463936 126.299255 21.317635 C 126.258865 21.129601 126.143089 21.064529 125.956841 21.122417 C 125.793945 21.17313 125.61937 21.234165 125.490128 21.339626 C 124.937675 21.792885 124.396011 22.258713 123.861969 22.733513 C 123.781647 22.804871 123.739464 22.943092 123.720604 23.057079 C 123.625023 23.640488 123.537056 24.225239 123.459419 24.81134 C 123.437889 24.97559 123.372353 25.068935 123.212143 25.110218 C 123.074364 25.146122 122.93795 25.190998 122.806007 25.244854 C 122.49501 25.372307 122.186691 25.384418 121.850113 25.33371 C 121.458794 25.274921 121.054886 25.278061 120.65728 25.288383 C 119.913658 25.307232 119.1651 25.270882 118.430008 25.430645 C 118.381104 25.441418 118.32814 25.459816 118.281013 25.451736 C 117.571053 25.331467 116.929314 25.583675 116.292503 25.828709 C 114.783295 26.408974 113.366959 27.179516 111.969925 27.986858 C 111.643219 28.175343 111.321892 28.373253 110.983521 28.575199 C 110.795029 28.41589 110.554947 28.311321 110.570206 27.993591 C 110.577377 27.837868 110.453972 27.774143 110.298241 27.769653 C 109.978706 27.761127 109.640785 27.442947 109.595016 27.117134 C 109.566299 26.912498 109.511543 26.864925 109.293892 26.85191 C 108.986031 26.833511 108.616692 26.500072 108.580788 26.192215 C 108.5606 26.018539 108.469933 25.906792 108.30748 25.938206 C 108.122589 25.973213 108.021614 25.882557 107.908531 25.777096 C 107.767616 25.645607 107.6231 25.517708 107.482643 25.390701 C 107.44046 25.407307 107.405907 25.4109 107.385254 25.430199 C 107.089966 25.708435 106.82608 25.638874 106.497124 25.438274 C 104.580414 24.268772 102.645302 23.128887 100.724556 21.964767 C 100.471893 21.811737 100.286102 21.789295 100.038826 21.967461 C 99.726479 22.192295 99.381378 22.371803 99.028191 22.584526 C 99.095955 22.663956 99.142632 22.726784 99.19738 22.781536 C 100.654099 24.244087 102.111717 25.705296 103.567535 27.16785 C 103.776215 27.377426 103.984894 27.588348 104.180107 27.810493 C 104.345711 27.998528 104.514893 28.095463 104.760376 27.954102 C 104.83532 27.911018 104.931366 27.905182 105.034576 27.877808 C 105.085739 28.333313 105.136452 28.767277 105.183571 29.202137 C 105.280952 30.094749 105.376549 30.987808 105.47303 31.880871 C 105.477509 31.921257 105.483345 31.961651 105.486946 32.002487 C 105.506683 32.256042 105.607658 32.542812 105.522392 32.754631 C 105.438026 32.964661 105.15799 33.089867 104.978485 33.267578 C 104.383408 33.856373 103.795517 34.452343 103.203133 35.042931 C 103.052795 35.193268 103.010162 35.334183 103.092285 35.557228 C 103.261925 36.016769 103.24263 36.278851 103.103058 36.668839 C 103.261475 36.925983 103.46656 37.072285 103.801796 37.026508 C 104.03965 36.993748 104.285576 37.019775 104.549904 37.019775 C 104.518036 37.328537 104.493805 37.627419 104.299484 37.902515 C 103.310394 39.304485 102.332962 40.714981 101.352386 42.122784 C 100.395157 43.497375 99.438812 44.871971 98.48114 46.246113 C 98.423241 46.32914 98.357719 46.405876 98.27829 46.508202 C 98.099678 46.315228 97.929596 46.141106 97.769386 45.957104 C 96.212135 44.174126 95.214066 42.110218 94.697975 39.808907 C 94.311127 38.084267 94.204773 36.339439 94.313377 34.574409 C 94.513077 31.322594 95.32132 28.239971 96.830994 25.350761 C 98.222641 22.688637 100.096718 20.421432 102.465797 18.567997 C 104.331352 17.108139 106.388969 16.003708 108.623871 15.2197 C 110.178871 14.674438 111.773804 14.304199 113.403763 14.087891 C 115.006767 13.874725 116.618767 13.823563 118.235245 13.89402 C 120.108429 13.975697 121.947952 14.246758 123.730927 14.843178 C 125.988708 15.598465 127.953888 16.821819 129.611664 18.53479 C 131.063889 20.035938 132.236984 21.712109 132.884109 23.720818 C 133.220245 24.762421 133.431625 25.827812 133.529465 26.918781 C 133.64209 28.174896 133.633575 29.431015 133.507919 30.681744 C 133.167297 34.04351 132.300262 37.252693 130.632614 40.215492 C 129.245453 42.680161 127.417603 44.761574 125.150398 46.453003 C 123.424866 47.740532 121.575027 48.814896 119.57888 49.627625 C 117.996056 50.272964 116.359375 50.717697 114.66391 50.954651 C 112.998512 51.187561 111.329521 51.239174 109.652 51.142235 C 107.685486 51.028248 105.767868 50.677307 103.9095 50.019405 C 102.779488 49.619099 101.706917 49.101215 100.695381 48.458118 C 100.609673 48.40292 100.523506 48.349518 100.40593 48.275917 Z M 102.209991 35.465675 C 101.92054 35.687366 101.658905 35.865532 101.425987 36.074661 C 101.261284 36.222305 101.110954 36.398674 100.997864 36.588509 C 100.815659 36.894119 100.92112 37.107288 101.264427 37.206467 C 101.706917 37.333923 102.123833 37.214996 102.582031 37.090237 C 102.494072 36.975349 102.422714 36.893673 102.363922 36.803471 C 102.286285 36.68454 102.206406 36.566967 102.256668 36.406754 C 102.347321 36.114601 102.303345 35.823795 102.209991 35.465675 Z"/>
            <path id="path4" fill="#ffffff" stroke="none" d="M 164.589539 39.197227 C 165.766205 40.573166 166.938858 41.946419 168.133041 43.343002 C 167.703125 43.788181 167.292938 44.226181 166.869293 44.649826 C 165.062088 46.456139 163.010742 47.92408 160.708527 49.033447 C 158.993317 49.860088 157.196869 50.450226 155.329529 50.825401 C 153.844986 51.12294 152.347885 51.279114 150.834167 51.325783 C 148.448944 51.399384 146.104095 51.175446 143.822968 50.44978 C 141.619049 49.748344 139.662399 48.623718 138.02887 46.970436 C 136.547012 45.470634 135.496429 43.705162 134.808456 41.717987 C 134.463348 40.72261 134.226395 39.700752 134.083694 38.659595 C 134.009201 38.114784 133.976883 37.56324 133.941864 37.013496 C 133.880844 36.063889 133.918091 35.114281 134.01503 34.169167 C 134.155045 32.807587 134.43103 31.471138 134.84436 30.164307 C 135.958664 26.641884 137.782028 23.535027 140.313553 20.845528 C 142.924973 18.069859 146.030045 16.062943 149.657028 14.874142 C 151.143829 14.386772 152.663818 14.065453 154.217468 13.882351 C 155.836197 13.691177 157.458054 13.648991 159.079941 13.782722 C 161.07338 13.94698 163.007156 14.370171 164.834564 15.218353 C 166.63414 16.05352 168.159515 17.241871 169.456924 18.733597 C 170.181702 19.567417 170.815369 20.468555 171.446793 21.421749 C 169.62207 22.690884 167.808136 23.952835 165.971298 25.230492 C 165.88559 25.102142 165.811996 24.994438 165.740631 24.884491 C 165.251465 24.126957 164.712036 23.40937 164.03978 22.802624 C 162.973495 21.840008 161.706604 21.319431 160.292969 21.147549 C 158.677841 20.951435 157.095001 21.115688 155.55571 21.649277 C 153.827484 22.248394 152.383331 23.269352 151.175674 24.631828 C 149.707291 26.2887 148.742432 28.218876 148.12088 30.330803 C 147.624084 32.019539 147.40329 33.745972 147.509201 35.502026 C 147.611969 37.199738 148.060303 38.797371 149.074966 40.196648 C 150.14978 41.676701 151.602905 42.584572 153.37825 42.960194 C 155.767532 43.465515 158.03923 43.026165 160.227005 42.019115 C 161.703476 41.338776 163.021957 40.415199 164.275391 39.391998 C 164.346283 39.334106 164.418549 39.277557 164.492142 39.222809 C 164.508743 39.212936 164.531189 39.212936 164.589539 39.197227 Z"/>
            <path id="path5" fill="#ffffff" stroke="none" d="M 68.13147 14.654243 C 67.707375 17.33387 67.287331 19.989265 66.861893 22.674728 C 62.199135 22.674728 57.554325 22.674728 52.88932 22.674728 C 52.591335 24.552845 52.298286 26.400444 51.998955 28.28664 C 55.854816 28.28664 59.680618 28.28664 63.560711 28.28664 C 63.192715 30.740986 62.792408 33.146862 62.414093 35.591782 C 58.567654 35.591782 54.719872 35.591782 50.843811 35.591782 C 50.489281 37.832062 50.13924 40.042267 49.783363 42.290176 C 55.091904 42.290176 60.36993 42.290176 65.667702 42.290176 C 65.674431 42.379478 65.69014 42.438721 65.681618 42.493919 C 65.52095 43.520714 65.354912 44.547058 65.196045 45.574303 C 65.17495 45.710732 65.108536 45.767273 64.980179 45.785675 C 63.961468 45.930626 62.944992 46.093086 61.924484 46.221886 C 60.862236 46.356064 59.796844 46.467361 58.731007 46.57148 C 58.101376 46.632957 57.468613 46.689056 56.836285 46.700272 C 54.977463 46.734383 53.117748 46.775219 51.25938 46.752781 C 50.158535 46.739769 49.056343 46.63879 47.959991 46.529739 C 46.783306 46.412163 45.607521 46.271244 44.440708 46.08321 C 42.316662 45.741241 40.22538 45.246246 38.170891 44.602257 C 37.714043 44.459099 37.261677 44.302029 36.807968 44.148994 C 36.713276 44.117134 36.622177 44.075844 36.509533 44.031418 C 38.060043 34.236485 39.608315 24.45591 41.159725 14.653793 C 50.14328 14.654243 59.119648 14.654243 68.13147 14.654243 Z"/>
            <path id="path6" fill="#ffffff" stroke="none" d="M 191.21347 50.366756 C 192.676025 41.128746 194.132751 31.923054 195.596191 22.676521 C 192.606918 22.676521 189.658478 22.676521 186.680862 22.676521 C 187.107193 19.983879 187.528137 17.32983 187.951324 14.654243 C 198.134003 14.654243 208.309052 14.654243 218.527634 14.654243 C 218.107132 17.313229 217.687073 19.97266 217.261642 22.668892 C 214.37738 22.668892 211.50209 22.668892 208.595367 22.668892 C 207.131027 31.918568 205.671616 41.135033 204.210403 50.366756 C 199.883331 50.366756 195.574646 50.366756 191.21347 50.366756 Z"/>
            <path id="path7" fill="#ffffff" stroke="none" d="M 167.888916 50.36496 C 169.775116 38.447777 171.657272 26.557518 173.542557 14.650654 C 177.941437 14.650654 182.320129 14.650654 186.739197 14.650654 C 184.855698 26.553925 182.971756 38.45092 181.085999 50.36496 C 176.698334 50.36496 172.329529 50.36496 167.888916 50.36496 Z"/>
            <path id="path8" fill="#ffffff" stroke="none" d="M 66.748352 45.441463 C 68.377846 35.148392 70.000168 24.901989 71.623825 14.644821 C 75.984558 14.644821 80.325546 14.644821 84.706024 14.644821 C 84.681793 14.841381 84.663849 15.028072 84.634674 15.212967 C 84.419708 16.561531 84.201607 17.909645 83.986641 19.258663 C 83.814766 20.33572 83.647377 21.413673 83.476387 22.49118 C 83.297775 23.618496 83.11602 24.745369 82.938309 25.873135 C 82.767326 26.960064 82.60128 28.047443 82.429848 29.134373 C 82.258415 30.221752 82.082497 31.308235 81.910172 32.395615 C 81.736046 33.492867 81.564613 34.590118 81.390488 35.68692 C 81.193924 36.924637 80.994667 38.161903 80.798553 39.399178 C 80.685463 40.114075 80.572823 40.829414 80.466911 41.545212 C 80.436401 41.750298 80.375366 41.872368 80.142899 41.949554 C 77.036484 42.978146 73.893723 43.87973 70.706985 44.622452 C 69.507408 44.902039 68.298866 45.144379 67.09391 45.401524 C 66.996071 45.423065 66.894653 45.425308 66.748352 45.441463 Z"/>
            <path id="path9" fill="#ffffff" stroke="none" d="M 26.266722 40.058426 C 26.137028 40.294029 26.021244 40.508545 25.901871 40.72126 C 24.160177 43.828125 22.414448 46.932739 20.682182 50.044537 C 20.539022 50.301682 20.385096 50.393234 20.089352 50.391888 C 17.534485 50.379322 14.980065 50.384254 12.425196 50.384254 C 12.324671 50.384254 12.224594 50.384254 12.100284 50.384254 C 8.856099 36.643707 5.617748 22.925591 2.378949 9.208378 C 2.398247 9.202095 2.417095 9.195362 2.436392 9.189079 C 2.59077 9.519375 2.744699 9.850124 2.899077 10.17997 C 4.852589 14.352219 7.012537 18.412273 9.497396 22.294617 C 11.189722 24.937893 13.024309 27.477951 15.046483 29.879787 C 17.222139 32.464275 19.58493 34.862968 22.189613 37.01664 C 23.417906 38.032661 24.688833 38.992588 26.015409 39.877571 C 26.091251 39.92828 26.163954 39.983929 26.266722 40.058426 Z"/>
            <path id="path10" fill="#ffffff" stroke="none" d="M 40.515285 14.647961 C 35.927921 22.832695 31.359406 30.982872 26.771143 39.168953 C 24.636778 37.744995 22.650953 36.172943 20.767899 34.428558 C 21.016968 33.915611 21.258858 33.412533 21.505232 32.911705 C 22.91618 30.035961 24.327122 27.161118 25.738966 24.286274 C 26.763964 22.199028 27.790758 20.112679 28.815308 18.024982 C 29.327806 16.981586 29.843897 15.939529 30.345179 14.890297 C 30.437626 14.697327 30.540842 14.625076 30.758497 14.625523 C 33.905746 14.633152 37.053448 14.630459 40.201145 14.631359 C 40.289104 14.631805 40.377064 14.640331 40.515285 14.647961 Z"/>
            <path id="path11" fill="#ffffff" stroke="none" d="M 98.959984 49.726357 C 99.010246 49.830471 99.038063 49.883873 99.062302 49.938625 C 99.35894 50.60685 99.191994 50.837517 98.627884 51.104988 C 98.379265 51.222565 98.131538 51.351364 97.908501 51.510677 C 97.47274 51.823025 96.986267 51.973812 96.46479 52.042923 C 96.30323 52.064465 96.137642 52.07703 95.982811 52.122356 C 95.687065 52.208969 95.42498 52.128639 95.213165 51.943295 C 94.821388 51.601334 94.449806 51.236477 94.079117 50.871174 C 93.788757 50.584862 93.512314 50.28418 93.178879 49.937279 C 93.134445 50.120377 93.107521 50.231674 93.075211 50.364059 C 84.062485 50.364059 75.04483 50.364059 65.9814 50.364059 C 66.154175 49.08865 66.381256 47.832081 66.572433 46.537369 C 66.856056 46.478134 67.141479 46.414406 67.428696 46.359657 C 69.410477 45.983582 71.373863 45.528526 73.325577 45.021412 C 76.264145 44.257599 79.165016 43.36813 82.03672 42.383522 C 82.187508 42.331909 82.354454 42.301846 82.513771 42.301395 C 86.325653 42.296906 90.137085 42.298256 93.948975 42.298256 C 94.068794 42.298256 94.189064 42.298256 94.36319 42.298256 C 94.247856 43.037384 94.139252 43.736122 94.023018 44.482887 C 93.725029 44.305168 93.466988 44.148548 93.206696 43.995964 C 92.564049 43.618996 91.919167 43.24696 91.27832 42.867294 C 90.9561 42.676571 90.635674 42.689583 90.317047 42.857872 C 89.786591 43.138359 89.261086 43.427368 88.705048 43.727596 C 88.899818 43.932236 89.063622 44.111748 89.235504 44.28363 C 91.23793 46.283813 93.2435 48.280407 95.242783 50.28373 C 95.615715 50.657112 96.016472 50.863995 96.560387 50.703785 C 96.822021 50.626144 97.103401 50.616722 97.371315 50.555241 C 97.527039 50.519787 97.681419 50.456959 97.822334 50.380219 C 98.195267 50.175579 98.56147 49.956127 98.959984 49.726357 Z"/>
            <path id="path12" fill="#ffffff" stroke="none" d="M 16.979801 14.639435 C 18.063589 21.049267 19.144686 27.444294 20.22578 33.838871 C 20.21142 33.850986 20.19751 33.863106 20.183146 33.874771 C 19.97402 33.677311 19.760853 33.482994 19.555763 33.281044 C 17.990887 31.737709 16.523846 30.105522 15.137136 28.400627 C 12.955647 25.718307 11.004377 22.875328 9.211528 19.921051 C 7.818534 17.625576 6.535041 15.269512 5.327392 12.871716 C 4.198726 10.631439 3.148596 8.354362 2.147382 6.054398 C 2.108339 5.964191 2.072437 5.872639 2.07872 5.755962 C 2.144241 5.851101 2.210659 5.945343 2.274834 6.041378 C 3.325861 7.618374 4.484595 9.106953 5.875793 10.402115 C 7.92624 12.311646 10.333462 13.538143 13.064699 14.13591 C 14.131882 14.36927 15.210734 14.524097 16.303499 14.57885 C 16.516666 14.589622 16.729834 14.616547 16.979801 14.639435 Z"/>
            <path id="path13" fill="#ffffff" stroke="none" d="M 64.991402 46.810226 C 64.801117 48.022362 64.61982 49.176159 64.439407 50.324123 C 64.219063 50.39682 35.94767 50.420609 35.511909 50.347908 C 35.787907 48.602177 36.06345 46.856895 36.34259 45.091419 C 36.432793 45.110718 36.501904 45.118797 36.566528 45.140335 C 38.590946 45.841324 40.655304 46.399147 42.757809 46.80125 C 43.977577 47.034611 45.209007 47.215019 46.440895 47.378819 C 47.421463 47.509415 48.408768 47.593784 49.395172 47.670525 C 50.158535 47.729309 50.925037 47.754894 51.690651 47.773293 C 52.57877 47.794834 53.468685 47.817276 54.356361 47.79528 C 55.489067 47.76746 56.622223 47.711365 57.753128 47.63866 C 58.791595 47.571793 59.830055 47.487427 60.864483 47.370743 C 61.988655 47.244186 63.107899 47.072754 64.229378 46.919724 C 64.45916 46.88876 64.689377 46.853752 64.991402 46.810226 Z"/>
            <path id="path14" fill="#ffffff" stroke="none" d="M 122.316841 25.742096 C 122.181313 26.251003 121.941216 26.681377 121.623497 27.072258 C 121.187279 27.60944 120.652786 28.035328 120.086433 28.423515 C 119.081192 29.112385 118.000984 29.665272 116.90239 30.185852 C 115.639542 30.784966 114.374001 31.389015 113.023201 31.761047 C 111.856392 32.082367 110.666687 32.322014 109.484619 32.586342 C 109.318573 32.623589 109.137711 32.611923 108.965378 32.599358 C 108.727097 32.581406 108.656631 32.444977 108.80024 32.247967 C 108.930824 32.068459 109.088356 31.901512 109.259781 31.760597 C 110.264587 30.934406 111.337601 30.206493 112.512497 29.64463 C 113.570251 29.138412 114.649101 28.676624 115.711342 28.179382 C 116.442398 27.836971 117.158188 27.464039 117.735756 26.878838 C 117.997849 26.613167 118.20787 26.312931 118.306145 25.950325 C 118.353271 25.777096 118.451553 25.695869 118.620293 25.679714 C 119.812241 25.566624 121.004623 25.532963 122.196129 25.684204 C 122.223946 25.68824 122.249527 25.709782 122.316841 25.742096 Z"/>
            <path id="path15" fill="none" stroke="none" d="M 102.209991 35.465675 C 102.303345 35.823795 102.347771 36.114151 102.256218 36.407204 C 102.206406 36.566967 102.285843 36.68499 102.36348 36.803917 C 102.422264 36.893673 102.493622 36.9758 102.581581 37.090683 C 102.123383 37.214996 101.706474 37.33437 101.263977 37.206917 C 100.92067 37.107735 100.815208 36.894569 100.997406 36.588955 C 101.110497 36.399124 101.260841 36.223206 101.425537 36.075111 C 101.658905 35.865532 101.92054 35.68782 102.209991 35.465675 Z"/>
        </g>
    </g>
</svg>
