%TF.GenerationSoftware,KiCad,Pcbnew,10.0.2*%
%TF.CreationDate,2026-05-11T18:43:04-07:00*%
%TF.ProjectId,panel,70616e65-6c2e-46b6-9963-61645f706362,rev?*%
%TF.SameCoordinates,Original*%
%TF.FileFunction,Copper,L1,Top*%
%TF.FilePolarity,Positive*%
%FSLAX46Y46*%
G04 Gerber Fmt 4.6, Leading zero omitted, Abs format (unit mm)*
G04 Created by KiCad (PCBNEW 10.0.2) date 2026-05-11 18:43:04*
%MOMM*%
%LPD*%
G01*
G04 APERTURE LIST*
G04 Aperture macros list*
%AMRoundRect*
0 Rectangle with rounded corners*
0 $1 Rounding radius*
0 $2 $3 $4 $5 $6 $7 $8 $9 X,Y pos of 4 corners*
0 Add a 4 corners polygon primitive as box body*
4,1,4,$2,$3,$4,$5,$6,$7,$8,$9,$2,$3,0*
0 Add four circle primitives for the rounded corners*
1,1,$1+$1,$2,$3*
1,1,$1+$1,$4,$5*
1,1,$1+$1,$6,$7*
1,1,$1+$1,$8,$9*
0 Add four rect primitives between the rounded corners*
20,1,$1+$1,$2,$3,$4,$5,0*
20,1,$1+$1,$4,$5,$6,$7,0*
20,1,$1+$1,$6,$7,$8,$9,0*
20,1,$1+$1,$8,$9,$2,$3,0*%
G04 Aperture macros list end*
%TA.AperFunction,ComponentPad*%
%ADD10R,1.800000X1.800000*%
%TD*%
%TA.AperFunction,ComponentPad*%
%ADD11C,1.800000*%
%TD*%
%TA.AperFunction,ComponentPad*%
%ADD12C,1.500000*%
%TD*%
%TA.AperFunction,ComponentPad*%
%ADD13RoundRect,0.300000X0.700000X-0.700000X0.700000X0.700000X-0.700000X0.700000X-0.700000X-0.700000X0*%
%TD*%
%TA.AperFunction,ComponentPad*%
%ADD14C,2.000000*%
%TD*%
%TA.AperFunction,ComponentPad*%
%ADD15RoundRect,0.300000X-0.700000X-0.700000X0.700000X-0.700000X0.700000X0.700000X-0.700000X0.700000X0*%
%TD*%
%TA.AperFunction,ComponentPad*%
%ADD16C,4.500000*%
%TD*%
%TA.AperFunction,ComponentPad*%
%ADD17C,1.600000*%
%TD*%
%TA.AperFunction,ComponentPad*%
%ADD18RoundRect,0.250000X-0.550000X-0.550000X0.550000X-0.550000X0.550000X0.550000X-0.550000X0.550000X0*%
%TD*%
%TA.AperFunction,ComponentPad*%
%ADD19R,1.500000X1.500000*%
%TD*%
%TA.AperFunction,ComponentPad*%
%ADD20C,4.575000*%
%TD*%
%TA.AperFunction,ViaPad*%
%ADD21C,0.600000*%
%TD*%
%TA.AperFunction,Conductor*%
%ADD22C,0.200000*%
%TD*%
%TA.AperFunction,Conductor*%
%ADD23C,0.400000*%
%TD*%
G04 APERTURE END LIST*
D10*
%TO.P,D4,1,K_1*%
%TO.N,Net-(D4-K)*%
X36830000Y-30988000D03*
D11*
%TO.P,D4,2,A_2*%
%TO.N,Net-(D4-A)*%
X39370000Y-30988000D03*
%TD*%
D10*
%TO.P,D3,1,K_1*%
%TO.N,Net-(D3-K)*%
X31496000Y-30988000D03*
D11*
%TO.P,D3,2,A_2*%
%TO.N,Net-(D3-A)*%
X34036000Y-30988000D03*
%TD*%
D12*
%TO.P,S1,1,A_1*%
%TO.N,Net-(S1-A)*%
X28500000Y-52100000D03*
%TO.P,S1,2,PUSH_2*%
%TO.N,Net-(S1-PUSH)*%
X31000000Y-51280000D03*
%TO.P,S1,3,GND_TERMINAL_3*%
%TO.N,GND*%
X36860000Y-48050000D03*
%TO.P,S1,4,B_4*%
%TO.N,Net-(S1-B)*%
X37800000Y-45800000D03*
%TO.P,S1,5,ENCODER_B_5*%
%TO.N,Net-(S1-ENCODER_B)*%
X37800000Y-42800000D03*
%TO.P,S1,6,C_6*%
%TO.N,Net-(S1-C)*%
X31500000Y-36500000D03*
%TO.P,S1,7,COM_7*%
%TO.N,GND*%
X29000000Y-38520000D03*
%TO.P,S1,8,ENCODER_COM_8*%
X28500000Y-36500000D03*
%TO.P,S1,9,D_9*%
%TO.N,Net-(S1-D)*%
X22200000Y-42800000D03*
%TO.P,S1,10,ENCODER_A_10*%
%TO.N,Net-(S1-ENCODER_A)*%
X22200000Y-45800000D03*
%TO.P,S1,11,Pos_11*%
%TO.N,unconnected-(S1-Pos-Pad11)*%
X26200000Y-45800000D03*
%TD*%
D10*
%TO.P,D2,1,K_1*%
%TO.N,Net-(D2-K)*%
X26162000Y-30988000D03*
D11*
%TO.P,D2,2,A_2*%
%TO.N,Net-(D2-A)*%
X28702000Y-30988000D03*
%TD*%
D13*
%TO.P,J2,1,Pin_1_1*%
%TO.N,+3.3V*%
X36322000Y-17545683D03*
D14*
%TO.P,J2,2,Pin_2_2*%
X33782000Y-17545683D03*
%TO.P,J2,3,Pin_3_3*%
%TO.N,SDA*%
X31242000Y-17545683D03*
%TO.P,J2,4,Pin_4_4*%
%TO.N,SCK*%
X28702000Y-17526000D03*
%TO.P,J2,5,Pin_5_5*%
%TO.N,GND*%
X26162000Y-17545683D03*
%TO.P,J2,6,Pin_6_6*%
%TO.N,+3.3V*%
X23622000Y-17545683D03*
%TD*%
D15*
%TO.P,J3,1,Pin_1_1*%
%TO.N,SDA*%
X149540000Y-20320000D03*
D14*
%TO.P,J3,2,Pin_2_2*%
%TO.N,SCK*%
X149540000Y-22860000D03*
%TO.P,J3,3,Pin_3_3*%
%TO.N,GND*%
X149540000Y-25400000D03*
%TO.P,J3,4,Pin_4_4*%
%TO.N,unconnected-(J3-Pin_4-Pad4)*%
X149540000Y-27940000D03*
%TO.P,J3,5,Pin_5_5*%
%TO.N,+3.3V*%
X149540000Y-30480000D03*
%TD*%
D10*
%TO.P,D1,1,K_1*%
%TO.N,Net-(D1-K)*%
X20828000Y-30988000D03*
D11*
%TO.P,D1,2,A_2*%
%TO.N,Net-(D1-A)*%
X23368000Y-30988000D03*
%TD*%
D10*
%TO.P,U1,A1,CCW_1_A1*%
%TO.N,Net-(U1-CCW_1)*%
X152500000Y-51500000D03*
D11*
%TO.P,U1,A2,CCW_2_A2*%
%TO.N,Net-(U1-CCW_2)*%
X152500000Y-34500000D03*
%TO.P,U1,B1,CW_1_B1*%
%TO.N,Net-(U1-CW_1)*%
X157500000Y-51500000D03*
%TO.P,U1,B2,CW_2_B2*%
%TO.N,Net-(U1-CW_2)*%
X157500000Y-34500000D03*
%TO.P,U1,C1,WIPER_1_C1*%
%TO.N,GND*%
X155000000Y-51500000D03*
%TO.P,U1,C2,WIPER_2_C2*%
X155000000Y-34500000D03*
D16*
%TO.P,U1,MH1,MH1_MH1*%
%TO.N,unconnected-(U1-PadMH1)*%
X149500000Y-44000000D03*
%TO.P,U1,MH2,MH2_MH2*%
%TO.N,unconnected-(U1-PadMH2)*%
X160500000Y-44000000D03*
D11*
%TO.P,U1,S1,S_S1*%
%TO.N,GND*%
X152500000Y-37000000D03*
%TO.P,U1,W1,W_W1*%
%TO.N,Net-(U1-W)*%
X157500000Y-37000000D03*
%TD*%
D14*
%TO.P,U3,1,Gnd_1*%
%TO.N,GND*%
X138800000Y-45740000D03*
%TO.P,U3,2,Vcc_2*%
%TO.N,+3.3V*%
X141340000Y-45740000D03*
%TO.P,U3,3,NC_3*%
%TO.N,unconnected-(U3-NC-Pad3)*%
X138800000Y-43200000D03*
%TO.P,U3,4,D0/Clk_4*%
%TO.N,SCLK*%
X141340000Y-43200000D03*
%TO.P,U3,5,D1/Din_5*%
%TO.N,SIN*%
X138800000Y-40660000D03*
%TO.P,U3,6,D2_6*%
%TO.N,unconnected-(U3-D2-Pad6)*%
X141340000Y-40660000D03*
%TO.P,U3,7,D3_7*%
%TO.N,unconnected-(U3-D3-Pad7)*%
X138800000Y-38120000D03*
%TO.P,U3,8,D4_8*%
%TO.N,unconnected-(U3-D4-Pad8)*%
X141340000Y-38120000D03*
%TO.P,U3,9,D5_9*%
%TO.N,unconnected-(U3-D5-Pad9)*%
X138800000Y-35580000D03*
%TO.P,U3,10,D6_10*%
%TO.N,unconnected-(U3-D6-Pad10)*%
X141340000Y-35580000D03*
%TO.P,U3,11,D7_11*%
%TO.N,unconnected-(U3-D7-Pad11)*%
X138800000Y-33040000D03*
%TO.P,U3,12,E/RD#_12*%
%TO.N,unconnected-(U3-E{slash}RD#-Pad12)*%
X141340000Y-33040000D03*
%TO.P,U3,13,R/W#_13*%
%TO.N,unconnected-(U3-R{slash}W#-Pad13)*%
X138800000Y-30500000D03*
%TO.P,U3,14,D/C#_14*%
%TO.N,DC*%
X141340000Y-30500000D03*
%TO.P,U3,15,RES#_15*%
%TO.N,unconnected-(U3-RES#-Pad15)*%
X138800000Y-27960000D03*
%TO.P,U3,16,CS$_16*%
%TO.N,CS*%
X141340000Y-27960000D03*
%TD*%
D17*
%TO.P,R2,1*%
%TO.N,Net-(U1-CCW_2)*%
X72390000Y-38100000D03*
%TO.P,R2,2*%
%TO.N,Net-(C2-Pad1)*%
X64770000Y-38100000D03*
%TD*%
%TO.P,C2,1*%
%TO.N,Net-(C2-Pad1)*%
X60880000Y-38100000D03*
%TO.P,C2,2*%
%TO.N,GND*%
X55880000Y-38100000D03*
%TD*%
%TO.P,R4,1*%
%TO.N,Net-(U1-CW_2)*%
X72390000Y-27940000D03*
%TO.P,R4,2*%
%TO.N,Net-(C4-Pad1)*%
X64770000Y-27940000D03*
%TD*%
%TO.P,R1,1*%
%TO.N,Net-(U1-CCW_1)*%
X72390000Y-43180000D03*
%TO.P,R1,2*%
%TO.N,Net-(C1-Pad1)*%
X64770000Y-43180000D03*
%TD*%
%TO.P,C3,1*%
%TO.N,Net-(C3-Pad1)*%
X60880000Y-33020000D03*
%TO.P,C3,2*%
%TO.N,GND*%
X55880000Y-33020000D03*
%TD*%
D18*
%TO.P,U2,1,GPB0_1*%
%TO.N,Net-(D4-A)*%
X119380000Y-52110000D03*
D17*
%TO.P,U2,2,GPB1_2*%
%TO.N,Net-(S1-PUSH)*%
X119380000Y-49570000D03*
%TO.P,U2,3,GPB2_3*%
%TO.N,Net-(S1-A)*%
X119380000Y-47030000D03*
%TO.P,U2,4,GPB3_4*%
%TO.N,Net-(S1-B)*%
X119380000Y-44490000D03*
%TO.P,U2,5,GPB4_5*%
%TO.N,Net-(S1-C)*%
X119380000Y-41950000D03*
%TO.P,U2,6,GPB5_6*%
%TO.N,Net-(S1-D)*%
X119380000Y-39410000D03*
%TO.P,U2,7,GPB6_7*%
%TO.N,Net-(S1-ENCODER_A)*%
X119380000Y-36870000D03*
%TO.P,U2,8,GPB7_8*%
%TO.N,Net-(S1-ENCODER_B)*%
X119380000Y-34330000D03*
%TO.P,U2,9,V_{DD}_9*%
%TO.N,+3.3V*%
X119380000Y-31790000D03*
%TO.P,U2,10,V_{SS}_10*%
%TO.N,GND*%
X119380000Y-29250000D03*
%TO.P,U2,11,NC_11*%
%TO.N,unconnected-(U2-NC-Pad11)*%
X119380000Y-26710000D03*
%TO.P,U2,12,SCK_12*%
%TO.N,SCK*%
X119380000Y-24170000D03*
%TO.P,U2,13,SDA_13*%
%TO.N,SDA*%
X119380000Y-21630000D03*
%TO.P,U2,14,NC_14*%
%TO.N,unconnected-(U2-NC-Pad14)*%
X119380000Y-19090000D03*
%TO.P,U2,15,A0_15*%
%TO.N,+3.3V*%
X127000000Y-19090000D03*
%TO.P,U2,16,A1_16*%
X127000000Y-21630000D03*
%TO.P,U2,17,A2_17*%
X127000000Y-24170000D03*
%TO.P,U2,18,~{RESET}_18*%
%TO.N,RESET*%
X127000000Y-26710000D03*
%TO.P,U2,19,INTB_19*%
%TO.N,unconnected-(U2-INTB-Pad19)*%
X127000000Y-29250000D03*
%TO.P,U2,20,INTA_20*%
%TO.N,unconnected-(U2-INTA-Pad20)*%
X127000000Y-31790000D03*
%TO.P,U2,21,GPA0_21*%
%TO.N,Net-(U1-CCW_1)*%
X127000000Y-34330000D03*
%TO.P,U2,22,GPA1_22*%
%TO.N,Net-(U1-CCW_2)*%
X127000000Y-36870000D03*
%TO.P,U2,23,GPA2_23*%
%TO.N,Net-(U1-CW_1)*%
X127000000Y-39410000D03*
%TO.P,U2,24,GPA3_24*%
%TO.N,Net-(U1-CW_2)*%
X127000000Y-41950000D03*
%TO.P,U2,25,GPA4_25*%
%TO.N,Net-(U1-W)*%
X127000000Y-44490000D03*
%TO.P,U2,26,GPA5_26*%
%TO.N,Net-(D1-A)*%
X127000000Y-47030000D03*
%TO.P,U2,27,GPA6_27*%
%TO.N,Net-(D2-A)*%
X127000000Y-49570000D03*
%TO.P,U2,28,GPA7_28*%
%TO.N,Net-(D3-A)*%
X127000000Y-52110000D03*
%TD*%
%TO.P,C4,1*%
%TO.N,Net-(C4-Pad1)*%
X60880000Y-27940000D03*
%TO.P,C4,2*%
%TO.N,GND*%
X55880000Y-27940000D03*
%TD*%
%TO.P,C1,1*%
%TO.N,Net-(C1-Pad1)*%
X60880000Y-43180000D03*
%TO.P,C1,2*%
%TO.N,GND*%
X55880000Y-43180000D03*
%TD*%
%TO.P,R7,1*%
%TO.N,Net-(D1-K)*%
X51620000Y-27000000D03*
%TO.P,R7,2*%
%TO.N,GND*%
X44000000Y-27000000D03*
%TD*%
%TO.P,R10,1*%
%TO.N,Net-(D4-K)*%
X51620000Y-48000000D03*
%TO.P,R10,2*%
%TO.N,GND*%
X44000000Y-48000000D03*
%TD*%
%TO.P,R5,1*%
%TO.N,SDA*%
X83820000Y-44704000D03*
%TO.P,R5,2*%
%TO.N,+3.3V*%
X91440000Y-44704000D03*
%TD*%
%TO.P,R8,1*%
%TO.N,Net-(D2-K)*%
X51620000Y-34000000D03*
%TO.P,R8,2*%
%TO.N,GND*%
X44000000Y-34000000D03*
%TD*%
%TO.P,R3,1*%
%TO.N,Net-(U1-CW_1)*%
X72390000Y-33020000D03*
%TO.P,R3,2*%
%TO.N,Net-(C3-Pad1)*%
X64770000Y-33020000D03*
%TD*%
%TO.P,R6,1*%
%TO.N,SCK*%
X93726000Y-44704000D03*
%TO.P,R6,2*%
%TO.N,+3.3V*%
X101346000Y-44704000D03*
%TD*%
%TO.P,R9,1*%
%TO.N,Net-(D3-K)*%
X51620000Y-41000000D03*
%TO.P,R9,2*%
%TO.N,GND*%
X44000000Y-41000000D03*
%TD*%
D19*
%TO.P,J1,1,1_1*%
%TO.N,SCLK*%
X87020000Y-33580000D03*
D12*
%TO.P,J1,2,2_2*%
%TO.N,SIN*%
X89760000Y-33580000D03*
%TO.P,J1,3,3_3*%
%TO.N,CS*%
X92500000Y-33580000D03*
%TO.P,J1,4,4_4*%
%TO.N,DC*%
X95240000Y-33580000D03*
%TO.P,J1,5,5_5*%
%TO.N,RESET*%
X97980000Y-33580000D03*
%TO.P,J1,6,6_6*%
%TO.N,GND*%
X88390000Y-36420000D03*
%TO.P,J1,7,7_7*%
%TO.N,SDA*%
X91130000Y-36420000D03*
%TO.P,J1,8,8_8*%
%TO.N,SCK*%
X93870000Y-36420000D03*
%TO.P,J1,9,9_9*%
%TO.N,+3.3V*%
X96610000Y-36420000D03*
D20*
%TO.P,J1,MH1*%
%TO.N,N/C*%
X105000000Y-35000000D03*
%TO.P,J1,MH2*%
X80000000Y-35000000D03*
%TD*%
D21*
%TO.N,GND*%
X93726000Y-29718000D03*
X88392000Y-30480000D03*
X40894000Y-50546000D03*
X40894000Y-48006000D03*
%TO.N,DC*%
X132433400Y-33201500D03*
%TO.N,SIN*%
X114258500Y-38734400D03*
%TO.N,SCLK*%
X142902400Y-26793700D03*
%TO.N,Net-(U1-CW_2)*%
X93064100Y-42257100D03*
%TO.N,Net-(U1-CW_1)*%
X93117600Y-40689400D03*
%TO.N,Net-(U1-CCW_1)*%
X123841600Y-36869500D03*
%TO.N,SDA*%
X78495800Y-39827000D03*
%TO.N,Net-(S1-ENCODER_A)*%
X110824200Y-43602300D03*
%TO.N,Net-(S1-D)*%
X108919300Y-42930900D03*
%TO.N,Net-(S1-ENCODER_B)*%
X111902800Y-46146600D03*
X47419500Y-46275900D03*
%TD*%
%TO.N,Net-(C3-Pad1)*%
D22*
X60880000Y-33020000D02*
X64770000Y-33020000D01*
%TO.N,Net-(C1-Pad1)*%
X60880000Y-43180000D02*
X64770000Y-43180000D01*
%TO.N,Net-(C4-Pad1)*%
X60880000Y-27940000D02*
X64770000Y-27940000D01*
%TO.N,Net-(C2-Pad1)*%
X60880000Y-38100000D02*
X64770000Y-38100000D01*
%TO.N,CS*%
X139964500Y-26584500D02*
X141340000Y-27960000D01*
X132993200Y-26584500D02*
X139964500Y-26584500D01*
X129057700Y-30520000D02*
X132993200Y-26584500D01*
X95560000Y-30520000D02*
X129057700Y-30520000D01*
X92500000Y-33580000D02*
X95560000Y-30520000D01*
%TO.N,DC*%
X96409700Y-32410300D02*
X95240000Y-33580000D01*
X106072100Y-32410300D02*
X96409700Y-32410300D01*
X106863300Y-33201500D02*
X106072100Y-32410300D01*
X132433400Y-33201500D02*
X106863300Y-33201500D01*
%TO.N,SIN*%
X94640400Y-38734400D02*
X114258500Y-38734400D01*
X92746900Y-36840900D02*
X94640400Y-38734400D01*
X92746900Y-36490000D02*
X92746900Y-36840900D01*
X89836900Y-33580000D02*
X92746900Y-36490000D01*
X89760000Y-33580000D02*
X89836900Y-33580000D01*
%TO.N,SCLK*%
X87020000Y-33580000D02*
X88071700Y-33580000D01*
X142282300Y-26173600D02*
X142902400Y-26793700D01*
X131184200Y-26173600D02*
X142282300Y-26173600D01*
X129377800Y-27980000D02*
X131184200Y-26173600D01*
X93671700Y-27980000D02*
X129377800Y-27980000D01*
X88071700Y-33580000D02*
X93671700Y-27980000D01*
%TO.N,Net-(U1-CW_2)*%
X125893400Y-43056600D02*
X127000000Y-41950000D01*
X118334300Y-43056600D02*
X125893400Y-43056600D01*
X117534800Y-42257100D02*
X118334300Y-43056600D01*
X93064100Y-42257100D02*
X117534800Y-42257100D01*
%TO.N,Net-(U1-CW_1)*%
X125720600Y-40689400D02*
X127000000Y-39410000D01*
X93117600Y-40689400D02*
X125720600Y-40689400D01*
%TO.N,Net-(U1-CCW_2)*%
X74719300Y-40429300D02*
X72390000Y-38100000D01*
X92419900Y-40429300D02*
X74719300Y-40429300D01*
X92815000Y-40034200D02*
X92419900Y-40429300D01*
X114090300Y-40034200D02*
X92815000Y-40034200D01*
X115984500Y-38140000D02*
X114090300Y-40034200D01*
X125730000Y-38140000D02*
X115984500Y-38140000D01*
X127000000Y-36870000D02*
X125730000Y-38140000D01*
%TO.N,Net-(U1-CCW_1)*%
X124460500Y-36869500D02*
X123841600Y-36869500D01*
X127000000Y-34330000D02*
X124460500Y-36869500D01*
%TO.N,SCK*%
X147118800Y-25281200D02*
X149540000Y-22860000D01*
X120491200Y-25281200D02*
X147118800Y-25281200D01*
X119380000Y-24170000D02*
X120491200Y-25281200D01*
X114061000Y-18851000D02*
X119380000Y-24170000D01*
X30027000Y-18851000D02*
X114061000Y-18851000D01*
X28702000Y-17526000D02*
X30027000Y-18851000D01*
%TO.N,SDA*%
X120690000Y-20320000D02*
X149540000Y-20320000D01*
X119380000Y-21630000D02*
X120690000Y-20320000D01*
X87723000Y-39827000D02*
X78495800Y-39827000D01*
X91130000Y-36420000D02*
X87723000Y-39827000D01*
%TO.N,+3.3V*%
D23*
X33782000Y-17545700D02*
X36322000Y-17545700D01*
%TO.N,Net-(S1-ENCODER_A)*%
D22*
X83363700Y-43602300D02*
X110824200Y-43602300D01*
X82223100Y-44742900D02*
X83363700Y-43602300D01*
X23257100Y-44742900D02*
X82223100Y-44742900D01*
X22200000Y-45800000D02*
X23257100Y-44742900D01*
%TO.N,Net-(S1-D)*%
X76200300Y-42930900D02*
X108919300Y-42930900D01*
X74820500Y-44310700D02*
X76200300Y-42930900D01*
X23710700Y-44310700D02*
X74820500Y-44310700D01*
X22200000Y-42800000D02*
X23710700Y-44310700D01*
%TO.N,Net-(S1-C)*%
X51380000Y-36500000D02*
X31500000Y-36500000D01*
X56257900Y-41377900D02*
X51380000Y-36500000D01*
X118807900Y-41377900D02*
X56257900Y-41377900D01*
X119380000Y-41950000D02*
X118807900Y-41377900D01*
%TO.N,Net-(S1-ENCODER_B)*%
X111773500Y-46275900D02*
X47419500Y-46275900D01*
X111902800Y-46146600D02*
X111773500Y-46275900D01*
%TO.N,Net-(S1-B)*%
X37925800Y-45674200D02*
X37800000Y-45800000D01*
X47668700Y-45674200D02*
X37925800Y-45674200D01*
X47837700Y-45843200D02*
X47668700Y-45674200D01*
X111355400Y-45843200D02*
X47837700Y-45843200D01*
X112708600Y-44490000D02*
X111355400Y-45843200D01*
X119380000Y-44490000D02*
X112708600Y-44490000D01*
%TO.N,Net-(S1-PUSH)*%
X119066400Y-49256400D02*
X119380000Y-49570000D01*
X33023600Y-49256400D02*
X119066400Y-49256400D01*
X31000000Y-51280000D02*
X33023600Y-49256400D01*
%TO.N,Net-(S1-A)*%
X119227800Y-46877800D02*
X119380000Y-47030000D01*
X33722200Y-46877800D02*
X119227800Y-46877800D01*
X28500000Y-52100000D02*
X33722200Y-46877800D01*
%TD*%
%TA.AperFunction,Conductor*%
%TO.N,GND*%
G36*
X50344013Y-47497207D02*
G01*
X50379977Y-47546707D01*
X50379977Y-47607892D01*
X50351522Y-47695468D01*
X50319500Y-47897644D01*
X50319500Y-48102355D01*
X50351521Y-48304529D01*
X50414781Y-48499222D01*
X50421269Y-48511956D01*
X50430840Y-48572389D01*
X50403061Y-48626905D01*
X50348544Y-48654681D01*
X50333059Y-48655900D01*
X33108736Y-48655900D01*
X33102661Y-48655899D01*
X33102658Y-48655899D01*
X33032342Y-48655899D01*
X33013435Y-48649755D01*
X32974152Y-48636992D01*
X32938188Y-48587492D01*
X32938188Y-48526306D01*
X32962339Y-48486895D01*
X33346880Y-48102355D01*
X33941939Y-47507296D01*
X33996456Y-47479519D01*
X34011943Y-47478300D01*
X50285822Y-47478300D01*
X50344013Y-47497207D01*
G37*
%TD.AperFunction*%
%TA.AperFunction,Conductor*%
G36*
X125778181Y-28599407D02*
G01*
X125814145Y-28648907D01*
X125814145Y-28710093D01*
X125808199Y-28724445D01*
X125794780Y-28750780D01*
X125731521Y-28945470D01*
X125699500Y-29147644D01*
X125699500Y-29352355D01*
X125731521Y-29554529D01*
X125794780Y-29749219D01*
X125808199Y-29775555D01*
X125817771Y-29835987D01*
X125789994Y-29890503D01*
X125735477Y-29918281D01*
X125719990Y-29919500D01*
X95645137Y-29919500D01*
X95645121Y-29919499D01*
X95639058Y-29919499D01*
X95480943Y-29919499D01*
X95480940Y-29919499D01*
X95328219Y-29960421D01*
X95328218Y-29960421D01*
X95191284Y-30039480D01*
X92894329Y-32336434D01*
X92839812Y-32364211D01*
X92796697Y-32360820D01*
X92796607Y-32361198D01*
X92794223Y-32360625D01*
X92793743Y-32360588D01*
X92792826Y-32360290D01*
X92792829Y-32360290D01*
X92598420Y-32329500D01*
X92598417Y-32329500D01*
X92401583Y-32329500D01*
X92401580Y-32329500D01*
X92207178Y-32360289D01*
X92019974Y-32421116D01*
X91844597Y-32510474D01*
X91685355Y-32626171D01*
X91546171Y-32765355D01*
X91430474Y-32924597D01*
X91341116Y-33099974D01*
X91280289Y-33287178D01*
X91249500Y-33481579D01*
X91249500Y-33678420D01*
X91280290Y-33872823D01*
X91297894Y-33927004D01*
X91297893Y-33934992D01*
X91301520Y-33942109D01*
X91297893Y-33965007D01*
X91297893Y-33988189D01*
X91293198Y-33994650D01*
X91291949Y-34002541D01*
X91275553Y-34018936D01*
X91261929Y-34037689D01*
X91254332Y-34040157D01*
X91248684Y-34045806D01*
X91225784Y-34049432D01*
X91203738Y-34056596D01*
X91196141Y-34054127D01*
X91188252Y-34055377D01*
X91167594Y-34044851D01*
X91145548Y-34037688D01*
X91133735Y-34027600D01*
X91015274Y-33909139D01*
X90987497Y-33854622D01*
X90987497Y-33823653D01*
X91010500Y-33678417D01*
X91010500Y-33481583D01*
X91010500Y-33481579D01*
X90979710Y-33287178D01*
X90978435Y-33283254D01*
X90918884Y-33099975D01*
X90829524Y-32924595D01*
X90713828Y-32765354D01*
X90574646Y-32626172D01*
X90415405Y-32510476D01*
X90415404Y-32510475D01*
X90415402Y-32510474D01*
X90255305Y-32428901D01*
X90212040Y-32385636D01*
X90202469Y-32325204D01*
X90230244Y-32270689D01*
X93891439Y-28609496D01*
X93945956Y-28581719D01*
X93961443Y-28580500D01*
X125719990Y-28580500D01*
X125778181Y-28599407D01*
G37*
%TD.AperFunction*%
%TA.AperFunction,Conductor*%
G36*
X169458691Y-15519407D02*
G01*
X169494655Y-15568907D01*
X169499500Y-15599500D01*
X169499500Y-54400500D01*
X169480593Y-54458691D01*
X169431093Y-54494655D01*
X169400500Y-54499500D01*
X15599500Y-54499500D01*
X15541309Y-54480593D01*
X15505345Y-54431093D01*
X15500500Y-54400500D01*
X15500500Y-51313710D01*
X16691500Y-51313710D01*
X16691500Y-51556289D01*
X16723161Y-51796781D01*
X16723161Y-51796786D01*
X16785944Y-52031092D01*
X16785948Y-52031105D01*
X16878772Y-52255204D01*
X16878774Y-52255208D01*
X16878776Y-52255212D01*
X16990009Y-52447873D01*
X17000066Y-52465292D01*
X17147729Y-52657731D01*
X17147731Y-52657733D01*
X17147735Y-52657738D01*
X17319262Y-52829265D01*
X17319266Y-52829268D01*
X17319268Y-52829270D01*
X17403745Y-52894091D01*
X17511711Y-52976936D01*
X17721788Y-53098224D01*
X17721794Y-53098226D01*
X17721795Y-53098227D01*
X17758406Y-53113391D01*
X17945900Y-53191054D01*
X18180211Y-53253838D01*
X18420712Y-53285500D01*
X18420713Y-53285500D01*
X18663287Y-53285500D01*
X18663288Y-53285500D01*
X18903789Y-53253838D01*
X19138100Y-53191054D01*
X19362212Y-53098224D01*
X19572289Y-52976936D01*
X19764738Y-52829265D01*
X19936265Y-52657738D01*
X20083936Y-52465289D01*
X20205224Y-52255212D01*
X20298054Y-52031100D01*
X20360838Y-51796789D01*
X20392500Y-51556288D01*
X20392500Y-51313712D01*
X20360838Y-51073211D01*
X20298054Y-50838900D01*
X20205224Y-50614788D01*
X20083936Y-50404711D01*
X20047840Y-50357670D01*
X19936270Y-50212268D01*
X19936268Y-50212266D01*
X19936265Y-50212262D01*
X19764738Y-50040735D01*
X19764733Y-50040731D01*
X19764731Y-50040729D01*
X19572292Y-49893066D01*
X19572289Y-49893064D01*
X19362212Y-49771776D01*
X19362208Y-49771774D01*
X19362204Y-49771772D01*
X19138105Y-49678948D01*
X19138104Y-49678947D01*
X19138100Y-49678946D01*
X18903789Y-49616162D01*
X18903786Y-49616161D01*
X18903784Y-49616161D01*
X18663289Y-49584500D01*
X18663288Y-49584500D01*
X18420712Y-49584500D01*
X18420710Y-49584500D01*
X18180218Y-49616161D01*
X18180213Y-49616161D01*
X17945907Y-49678944D01*
X17945894Y-49678948D01*
X17721795Y-49771772D01*
X17511707Y-49893066D01*
X17319268Y-50040729D01*
X17147729Y-50212268D01*
X17000066Y-50404707D01*
X16878772Y-50614795D01*
X16785948Y-50838894D01*
X16785944Y-50838907D01*
X16723161Y-51073213D01*
X16723161Y-51073218D01*
X16691500Y-51313710D01*
X15500500Y-51313710D01*
X15500500Y-42701579D01*
X20949500Y-42701579D01*
X20949500Y-42898420D01*
X20980289Y-43092821D01*
X21041116Y-43280025D01*
X21090890Y-43377714D01*
X21130476Y-43455405D01*
X21246172Y-43614646D01*
X21385354Y-43753828D01*
X21544595Y-43869524D01*
X21719975Y-43958884D01*
X21907174Y-44019709D01*
X21907175Y-44019709D01*
X21907178Y-44019710D01*
X22101580Y-44050500D01*
X22101583Y-44050500D01*
X22298420Y-44050500D01*
X22422869Y-44030788D01*
X22492826Y-44019709D01*
X22493721Y-44019417D01*
X22494038Y-44019417D01*
X22496599Y-44018803D01*
X22496746Y-44019417D01*
X22554904Y-44019409D01*
X22594329Y-44043564D01*
X22780760Y-44229995D01*
X22787876Y-44243961D01*
X22798960Y-44255043D01*
X22801415Y-44270535D01*
X22808537Y-44284512D01*
X22806085Y-44299993D01*
X22808539Y-44315474D01*
X22801419Y-44329450D01*
X22798966Y-44344944D01*
X22780768Y-44369994D01*
X22776588Y-44374175D01*
X22776580Y-44374184D01*
X22776578Y-44374186D01*
X22776577Y-44374186D01*
X22594328Y-44556434D01*
X22539812Y-44584211D01*
X22496697Y-44580820D01*
X22496607Y-44581198D01*
X22494223Y-44580625D01*
X22493743Y-44580588D01*
X22492826Y-44580290D01*
X22492829Y-44580290D01*
X22298420Y-44549500D01*
X22298417Y-44549500D01*
X22101583Y-44549500D01*
X22101580Y-44549500D01*
X21907178Y-44580289D01*
X21719974Y-44641116D01*
X21544597Y-44730474D01*
X21385355Y-44846171D01*
X21246171Y-44985355D01*
X21130474Y-45144597D01*
X21041116Y-45319974D01*
X20980289Y-45507178D01*
X20949500Y-45701579D01*
X20949500Y-45898420D01*
X20980289Y-46092821D01*
X21041116Y-46280025D01*
X21107898Y-46411094D01*
X21130476Y-46455405D01*
X21246172Y-46614646D01*
X21385354Y-46753828D01*
X21544595Y-46869524D01*
X21719975Y-46958884D01*
X21907174Y-47019709D01*
X21907175Y-47019709D01*
X21907178Y-47019710D01*
X22101580Y-47050500D01*
X22101583Y-47050500D01*
X22298420Y-47050500D01*
X22492821Y-47019710D01*
X22492822Y-47019709D01*
X22492826Y-47019709D01*
X22680025Y-46958884D01*
X22855405Y-46869524D01*
X23014646Y-46753828D01*
X23153828Y-46614646D01*
X23269524Y-46455405D01*
X23358884Y-46280025D01*
X23419709Y-46092826D01*
X23423679Y-46067759D01*
X23450500Y-45898420D01*
X23450500Y-45701579D01*
X23419710Y-45507178D01*
X23419414Y-45506267D01*
X23419413Y-45505944D01*
X23418803Y-45503401D01*
X23419413Y-45503254D01*
X23419413Y-45483083D01*
X23415787Y-45460185D01*
X23419413Y-45453068D01*
X23419413Y-45445082D01*
X23443562Y-45405671D01*
X23476840Y-45372394D01*
X23531356Y-45344619D01*
X23546842Y-45343400D01*
X24897242Y-45343400D01*
X24955433Y-45362307D01*
X24991397Y-45411807D01*
X24991397Y-45472993D01*
X24980290Y-45507176D01*
X24949500Y-45701579D01*
X24949500Y-45898420D01*
X24980289Y-46092821D01*
X25041116Y-46280025D01*
X25107898Y-46411094D01*
X25130476Y-46455405D01*
X25246172Y-46614646D01*
X25385354Y-46753828D01*
X25544595Y-46869524D01*
X25719975Y-46958884D01*
X25907174Y-47019709D01*
X25907175Y-47019709D01*
X25907178Y-47019710D01*
X26101580Y-47050500D01*
X26101583Y-47050500D01*
X26298420Y-47050500D01*
X26492821Y-47019710D01*
X26492822Y-47019709D01*
X26492826Y-47019709D01*
X26680025Y-46958884D01*
X26855405Y-46869524D01*
X27014646Y-46753828D01*
X27153828Y-46614646D01*
X27269524Y-46455405D01*
X27358884Y-46280025D01*
X27419709Y-46092826D01*
X27423679Y-46067759D01*
X27450500Y-45898420D01*
X27450500Y-45701579D01*
X27420328Y-45511082D01*
X27419709Y-45507174D01*
X27408603Y-45472993D01*
X27408603Y-45411807D01*
X27444567Y-45362307D01*
X27502758Y-45343400D01*
X36497242Y-45343400D01*
X36555433Y-45362307D01*
X36591397Y-45411807D01*
X36591397Y-45472993D01*
X36580290Y-45507176D01*
X36549500Y-45701579D01*
X36549500Y-45898420D01*
X36580290Y-46092827D01*
X36580291Y-46092831D01*
X36598122Y-46147707D01*
X36598123Y-46208892D01*
X36562159Y-46258392D01*
X36503968Y-46277300D01*
X33801257Y-46277300D01*
X33643143Y-46277300D01*
X33549669Y-46302345D01*
X33490410Y-46318224D01*
X33459029Y-46336343D01*
X33353484Y-46397279D01*
X33241679Y-46509083D01*
X33241680Y-46509084D01*
X33241678Y-46509086D01*
X28894329Y-50856434D01*
X28839812Y-50884211D01*
X28796697Y-50880820D01*
X28796607Y-50881198D01*
X28794223Y-50880625D01*
X28793743Y-50880588D01*
X28792826Y-50880290D01*
X28792829Y-50880290D01*
X28598420Y-50849500D01*
X28598417Y-50849500D01*
X28401583Y-50849500D01*
X28401580Y-50849500D01*
X28207178Y-50880289D01*
X28019974Y-50941116D01*
X27844597Y-51030474D01*
X27685355Y-51146171D01*
X27546171Y-51285355D01*
X27430474Y-51444597D01*
X27341116Y-51619974D01*
X27280289Y-51807178D01*
X27249500Y-52001579D01*
X27249500Y-52198420D01*
X27280289Y-52392821D01*
X27341116Y-52580025D01*
X27407345Y-52710009D01*
X27430476Y-52755405D01*
X27546172Y-52914646D01*
X27685354Y-53053828D01*
X27844595Y-53169524D01*
X28019975Y-53258884D01*
X28207174Y-53319709D01*
X28207175Y-53319709D01*
X28207178Y-53319710D01*
X28401580Y-53350500D01*
X28401583Y-53350500D01*
X28598420Y-53350500D01*
X28792821Y-53319710D01*
X28792822Y-53319709D01*
X28792826Y-53319709D01*
X28980025Y-53258884D01*
X29155405Y-53169524D01*
X29314646Y-53053828D01*
X29453828Y-52914646D01*
X29569524Y-52755405D01*
X29658884Y-52580025D01*
X29719709Y-52392826D01*
X29726567Y-52349525D01*
X29750500Y-52198420D01*
X29750500Y-52001587D01*
X29750336Y-51999504D01*
X29750500Y-51998820D01*
X29750500Y-51997693D01*
X29750771Y-51997693D01*
X29764619Y-51940009D01*
X29811144Y-51900272D01*
X29872141Y-51895470D01*
X29924310Y-51927438D01*
X29929123Y-51933544D01*
X30046167Y-52094640D01*
X30046169Y-52094642D01*
X30046172Y-52094646D01*
X30185354Y-52233828D01*
X30344595Y-52349524D01*
X30519975Y-52438884D01*
X30707174Y-52499709D01*
X30707175Y-52499709D01*
X30707178Y-52499710D01*
X30901580Y-52530500D01*
X30901583Y-52530500D01*
X31098420Y-52530500D01*
X31292821Y-52499710D01*
X31292822Y-52499709D01*
X31292826Y-52499709D01*
X31480025Y-52438884D01*
X31655405Y-52349524D01*
X31814646Y-52233828D01*
X31953828Y-52094646D01*
X32069524Y-51935405D01*
X32158884Y-51760025D01*
X32219709Y-51572826D01*
X32222328Y-51556289D01*
X32250500Y-51378420D01*
X32250500Y-51181579D01*
X32219710Y-50987178D01*
X32219414Y-50986267D01*
X32219413Y-50985944D01*
X32218803Y-50983401D01*
X32219413Y-50983254D01*
X32219413Y-50925082D01*
X32243565Y-50885669D01*
X33243341Y-49885896D01*
X33297857Y-49858119D01*
X33313344Y-49856900D01*
X43618917Y-49856900D01*
X43677108Y-49875807D01*
X43713072Y-49925307D01*
X43713072Y-49986493D01*
X43685378Y-50028537D01*
X43685631Y-50028790D01*
X43684404Y-50030016D01*
X43684202Y-50030324D01*
X43683346Y-50031074D01*
X43521078Y-50193342D01*
X43381388Y-50375388D01*
X43266653Y-50574116D01*
X43178841Y-50786114D01*
X43119452Y-51007761D01*
X43089500Y-51235265D01*
X43089500Y-51464734D01*
X43119452Y-51692238D01*
X43178841Y-51913885D01*
X43266653Y-52125883D01*
X43381388Y-52324611D01*
X43433728Y-52392821D01*
X43521081Y-52506661D01*
X43683339Y-52668919D01*
X43865388Y-52808611D01*
X44064112Y-52923344D01*
X44064113Y-52923344D01*
X44064116Y-52923346D01*
X44145879Y-52957213D01*
X44276113Y-53011158D01*
X44497762Y-53070548D01*
X44725266Y-53100500D01*
X44725267Y-53100500D01*
X44954733Y-53100500D01*
X44954734Y-53100500D01*
X45182238Y-53070548D01*
X45403887Y-53011158D01*
X45615888Y-52923344D01*
X45814612Y-52808611D01*
X45996661Y-52668919D01*
X46158919Y-52506661D01*
X46298611Y-52324612D01*
X46413344Y-52125888D01*
X46501158Y-51913887D01*
X46560548Y-51692238D01*
X46590500Y-51464734D01*
X46590500Y-51235266D01*
X46560548Y-51007762D01*
X46501158Y-50786113D01*
X46430193Y-50614788D01*
X46413346Y-50574116D01*
X46406331Y-50561966D01*
X46298611Y-50375388D01*
X46158919Y-50193339D01*
X45996661Y-50031081D01*
X45996656Y-50031077D01*
X45996653Y-50031074D01*
X45995798Y-50030324D01*
X45995643Y-50030064D01*
X45994369Y-50028790D01*
X45994692Y-50028466D01*
X45964521Y-49977737D01*
X45970128Y-49916809D01*
X46010476Y-49870812D01*
X46061083Y-49856900D01*
X118033865Y-49856900D01*
X118092056Y-49875807D01*
X118128020Y-49925307D01*
X118174780Y-50069219D01*
X118267712Y-50251609D01*
X118267714Y-50251613D01*
X118388029Y-50417213D01*
X118388031Y-50417215D01*
X118388034Y-50417219D01*
X118532781Y-50561966D01*
X118532784Y-50561968D01*
X118532786Y-50561970D01*
X118665862Y-50658654D01*
X118701826Y-50708154D01*
X118701827Y-50769339D01*
X118665863Y-50818839D01*
X118638813Y-50832722D01*
X118510662Y-50875187D01*
X118361347Y-50967285D01*
X118237285Y-51091347D01*
X118145187Y-51240663D01*
X118090000Y-51407205D01*
X118079500Y-51509983D01*
X118079500Y-52710016D01*
X118089999Y-52812788D01*
X118090000Y-52812795D01*
X118090001Y-52812797D01*
X118144391Y-52976936D01*
X118145187Y-52979336D01*
X118237285Y-53128652D01*
X118237286Y-53128653D01*
X118237288Y-53128656D01*
X118361344Y-53252712D01*
X118361346Y-53252713D01*
X118361347Y-53252714D01*
X118414502Y-53285500D01*
X118510666Y-53344814D01*
X118677203Y-53399999D01*
X118779991Y-53410500D01*
X119980008Y-53410499D01*
X119980016Y-53410499D01*
X120082788Y-53400000D01*
X120082788Y-53399999D01*
X120082797Y-53399999D01*
X120249334Y-53344814D01*
X120398656Y-53252712D01*
X120522712Y-53128656D01*
X120614814Y-52979334D01*
X120669999Y-52812797D01*
X120680500Y-52710009D01*
X120680499Y-51509992D01*
X120680499Y-51509991D01*
X120680499Y-51509983D01*
X120670000Y-51407211D01*
X120669999Y-51407209D01*
X120669999Y-51407203D01*
X120614814Y-51240666D01*
X120556529Y-51146171D01*
X120522714Y-51091347D01*
X120522713Y-51091346D01*
X120522712Y-51091344D01*
X120398656Y-50967288D01*
X120398653Y-50967286D01*
X120398652Y-50967285D01*
X120249337Y-50875187D01*
X120139812Y-50838894D01*
X120121185Y-50832721D01*
X120071897Y-50796470D01*
X120053329Y-50738170D01*
X120072575Y-50680091D01*
X120094133Y-50658657D01*
X120227219Y-50561966D01*
X120371966Y-50417219D01*
X120492287Y-50251610D01*
X120585220Y-50069219D01*
X120648477Y-49874534D01*
X120664753Y-49771776D01*
X120680500Y-49672355D01*
X120680500Y-49467644D01*
X120648478Y-49265470D01*
X120648477Y-49265466D01*
X120585220Y-49070781D01*
X120492287Y-48888390D01*
X120492285Y-48888386D01*
X120371970Y-48722786D01*
X120371968Y-48722784D01*
X120371966Y-48722781D01*
X120227219Y-48578034D01*
X120227215Y-48578031D01*
X120227213Y-48578029D01*
X120061613Y-48457714D01*
X120061609Y-48457712D01*
X119990847Y-48421657D01*
X119925201Y-48388209D01*
X119881937Y-48344945D01*
X119872366Y-48284513D01*
X119900143Y-48229997D01*
X119925199Y-48211791D01*
X120061610Y-48142287D01*
X120227219Y-48021966D01*
X120371966Y-47877219D01*
X120492287Y-47711610D01*
X120585220Y-47529219D01*
X120648477Y-47334534D01*
X120680500Y-47132352D01*
X120680500Y-46927648D01*
X120680500Y-46927644D01*
X120648478Y-46725470D01*
X120612469Y-46614646D01*
X120585220Y-46530781D01*
X120492287Y-46348390D01*
X120492285Y-46348386D01*
X120371970Y-46182786D01*
X120371968Y-46182784D01*
X120371966Y-46182781D01*
X120227219Y-46038034D01*
X120227215Y-46038031D01*
X120227213Y-46038029D01*
X120061613Y-45917714D01*
X120061609Y-45917712D01*
X119944597Y-45858092D01*
X119925201Y-45848209D01*
X119881937Y-45804945D01*
X119872366Y-45744513D01*
X119900143Y-45689997D01*
X119925199Y-45671791D01*
X120061610Y-45602287D01*
X120072820Y-45594143D01*
X120193771Y-45506267D01*
X120227219Y-45481966D01*
X120371966Y-45337219D01*
X120469322Y-45203219D01*
X120492285Y-45171613D01*
X120492287Y-45171610D01*
X120585220Y-44989219D01*
X120648477Y-44794534D01*
X120653552Y-44762491D01*
X120680500Y-44592355D01*
X120680500Y-44387644D01*
X120648478Y-44185470D01*
X120638404Y-44154465D01*
X120585220Y-43990781D01*
X120492287Y-43808390D01*
X120492284Y-43808384D01*
X120491942Y-43807826D01*
X120491890Y-43807612D01*
X120490521Y-43804924D01*
X120491166Y-43804595D01*
X120477659Y-43748332D01*
X120501074Y-43691804D01*
X120553244Y-43659835D01*
X120576354Y-43657100D01*
X125803646Y-43657100D01*
X125861837Y-43676007D01*
X125897801Y-43725507D01*
X125897801Y-43786693D01*
X125889411Y-43804889D01*
X125889479Y-43804924D01*
X125888606Y-43806637D01*
X125888058Y-43807826D01*
X125887715Y-43808384D01*
X125794780Y-43990780D01*
X125731521Y-44185470D01*
X125699500Y-44387644D01*
X125699500Y-44592355D01*
X125731521Y-44794529D01*
X125794780Y-44989219D01*
X125887712Y-45171609D01*
X125887714Y-45171613D01*
X126008029Y-45337213D01*
X126008031Y-45337215D01*
X126008034Y-45337219D01*
X126152781Y-45481966D01*
X126152784Y-45481968D01*
X126152786Y-45481970D01*
X126318386Y-45602285D01*
X126318390Y-45602287D01*
X126454797Y-45671790D01*
X126498062Y-45715055D01*
X126507633Y-45775487D01*
X126479856Y-45830004D01*
X126454797Y-45848210D01*
X126318390Y-45917712D01*
X126318386Y-45917714D01*
X126152786Y-46038029D01*
X126008029Y-46182786D01*
X125887714Y-46348386D01*
X125887712Y-46348390D01*
X125794780Y-46530780D01*
X125731521Y-46725470D01*
X125699500Y-46927644D01*
X125699500Y-47132355D01*
X125731521Y-47334529D01*
X125794780Y-47529219D01*
X125887712Y-47711609D01*
X125887714Y-47711613D01*
X126008029Y-47877213D01*
X126008031Y-47877215D01*
X126008034Y-47877219D01*
X126152781Y-48021966D01*
X126152784Y-48021968D01*
X126152786Y-48021970D01*
X126318386Y-48142285D01*
X126318390Y-48142287D01*
X126454797Y-48211790D01*
X126498062Y-48255055D01*
X126507633Y-48315487D01*
X126479856Y-48370004D01*
X126454797Y-48388210D01*
X126318390Y-48457712D01*
X126318386Y-48457714D01*
X126152786Y-48578029D01*
X126008029Y-48722786D01*
X125887714Y-48888386D01*
X125887712Y-48888390D01*
X125794780Y-49070780D01*
X125731521Y-49265470D01*
X125699500Y-49467644D01*
X125699500Y-49672355D01*
X125731521Y-49874529D01*
X125794780Y-50069219D01*
X125887712Y-50251609D01*
X125887714Y-50251613D01*
X126008029Y-50417213D01*
X126008031Y-50417215D01*
X126008034Y-50417219D01*
X126152781Y-50561966D01*
X126152784Y-50561968D01*
X126152786Y-50561970D01*
X126318386Y-50682285D01*
X126318390Y-50682287D01*
X126454797Y-50751790D01*
X126498062Y-50795055D01*
X126507633Y-50855487D01*
X126479856Y-50910004D01*
X126454797Y-50928210D01*
X126318390Y-50997712D01*
X126318386Y-50997714D01*
X126152786Y-51118029D01*
X126008029Y-51262786D01*
X125887714Y-51428386D01*
X125887712Y-51428390D01*
X125794780Y-51610780D01*
X125731521Y-51805470D01*
X125699500Y-52007644D01*
X125699500Y-52212355D01*
X125731521Y-52414529D01*
X125794780Y-52609219D01*
X125887712Y-52791609D01*
X125887714Y-52791613D01*
X126008029Y-52957213D01*
X126008031Y-52957215D01*
X126008034Y-52957219D01*
X126152781Y-53101966D01*
X126152784Y-53101968D01*
X126152786Y-53101970D01*
X126318386Y-53222285D01*
X126318390Y-53222287D01*
X126500781Y-53315220D01*
X126695466Y-53378477D01*
X126695467Y-53378477D01*
X126695470Y-53378478D01*
X126897645Y-53410500D01*
X126897648Y-53410500D01*
X127102355Y-53410500D01*
X127304529Y-53378478D01*
X127304530Y-53378477D01*
X127304534Y-53378477D01*
X127499219Y-53315220D01*
X127681610Y-53222287D01*
X127847219Y-53101966D01*
X127991966Y-52957219D01*
X128096896Y-52812794D01*
X128112285Y-52791613D01*
X128112287Y-52791610D01*
X128205220Y-52609219D01*
X128268477Y-52414534D01*
X128268478Y-52414529D01*
X128300500Y-52212355D01*
X128300500Y-52007644D01*
X128268478Y-51805470D01*
X128268477Y-51805466D01*
X128205220Y-51610781D01*
X128112287Y-51428390D01*
X128112285Y-51428386D01*
X128011898Y-51290215D01*
X127991970Y-51262786D01*
X127991968Y-51262784D01*
X127991966Y-51262781D01*
X127964450Y-51235265D01*
X138089500Y-51235265D01*
X138089500Y-51464734D01*
X138119452Y-51692238D01*
X138178841Y-51913885D01*
X138266653Y-52125883D01*
X138381388Y-52324611D01*
X138433728Y-52392821D01*
X138521081Y-52506661D01*
X138683339Y-52668919D01*
X138865388Y-52808611D01*
X139064112Y-52923344D01*
X139064113Y-52923344D01*
X139064116Y-52923346D01*
X139145879Y-52957213D01*
X139276113Y-53011158D01*
X139497762Y-53070548D01*
X139725266Y-53100500D01*
X139725267Y-53100500D01*
X139954733Y-53100500D01*
X139954734Y-53100500D01*
X140182238Y-53070548D01*
X140403887Y-53011158D01*
X140615888Y-52923344D01*
X140814612Y-52808611D01*
X140996661Y-52668919D01*
X141158919Y-52506661D01*
X141298611Y-52324612D01*
X141413344Y-52125888D01*
X141501158Y-51913887D01*
X141560548Y-51692238D01*
X141590500Y-51464734D01*
X141590500Y-51235266D01*
X141560548Y-51007762D01*
X141501158Y-50786113D01*
X141413344Y-50574112D01*
X141400652Y-50552129D01*
X151099500Y-50552129D01*
X151099500Y-52447866D01*
X151099501Y-52447870D01*
X151105908Y-52507480D01*
X151105909Y-52507485D01*
X151156202Y-52642329D01*
X151206873Y-52710016D01*
X151242454Y-52757546D01*
X151242457Y-52757548D01*
X151242458Y-52757549D01*
X151357670Y-52843797D01*
X151492511Y-52894089D01*
X151492512Y-52894089D01*
X151492517Y-52894091D01*
X151552127Y-52900500D01*
X153447872Y-52900499D01*
X153507483Y-52894091D01*
X153582759Y-52866015D01*
X153642329Y-52843797D01*
X153642329Y-52843796D01*
X153642331Y-52843796D01*
X153757546Y-52757546D01*
X153843796Y-52642331D01*
X153894091Y-52507483D01*
X153900500Y-52447873D01*
X153900499Y-51389774D01*
X156099500Y-51389774D01*
X156099500Y-51610225D01*
X156133984Y-51827948D01*
X156202102Y-52037599D01*
X156202104Y-52037602D01*
X156202105Y-52037606D01*
X156231166Y-52094640D01*
X156284044Y-52198420D01*
X156302185Y-52234022D01*
X156431758Y-52412365D01*
X156587635Y-52568242D01*
X156765978Y-52697815D01*
X156962394Y-52797895D01*
X157172049Y-52866015D01*
X157259140Y-52879809D01*
X157389775Y-52900500D01*
X157389778Y-52900500D01*
X157610225Y-52900500D01*
X157719086Y-52883257D01*
X157827951Y-52866015D01*
X158037606Y-52797895D01*
X158234022Y-52697815D01*
X158412365Y-52568242D01*
X158568242Y-52412365D01*
X158697815Y-52234022D01*
X158797895Y-52037606D01*
X158866015Y-51827951D01*
X158894933Y-51645372D01*
X158900500Y-51610225D01*
X158900500Y-51389776D01*
X158890392Y-51325959D01*
X158890392Y-51325958D01*
X158888452Y-51313710D01*
X164646500Y-51313710D01*
X164646500Y-51556289D01*
X164678161Y-51796781D01*
X164678161Y-51796786D01*
X164740944Y-52031092D01*
X164740948Y-52031105D01*
X164833772Y-52255204D01*
X164833774Y-52255208D01*
X164833776Y-52255212D01*
X164945009Y-52447873D01*
X164955066Y-52465292D01*
X165102729Y-52657731D01*
X165102731Y-52657733D01*
X165102735Y-52657738D01*
X165274262Y-52829265D01*
X165274266Y-52829268D01*
X165274268Y-52829270D01*
X165358745Y-52894091D01*
X165466711Y-52976936D01*
X165676788Y-53098224D01*
X165676794Y-53098226D01*
X165676795Y-53098227D01*
X165713406Y-53113391D01*
X165900900Y-53191054D01*
X166135211Y-53253838D01*
X166375712Y-53285500D01*
X166375713Y-53285500D01*
X166618287Y-53285500D01*
X166618288Y-53285500D01*
X166858789Y-53253838D01*
X167093100Y-53191054D01*
X167317212Y-53098224D01*
X167527289Y-52976936D01*
X167719738Y-52829265D01*
X167891265Y-52657738D01*
X168038936Y-52465289D01*
X168160224Y-52255212D01*
X168253054Y-52031100D01*
X168315838Y-51796789D01*
X168347500Y-51556288D01*
X168347500Y-51313712D01*
X168315838Y-51073211D01*
X168253054Y-50838900D01*
X168160224Y-50614788D01*
X168038936Y-50404711D01*
X168002840Y-50357670D01*
X167891270Y-50212268D01*
X167891268Y-50212266D01*
X167891265Y-50212262D01*
X167719738Y-50040735D01*
X167719733Y-50040731D01*
X167719731Y-50040729D01*
X167527292Y-49893066D01*
X167527289Y-49893064D01*
X167317212Y-49771776D01*
X167317208Y-49771774D01*
X167317204Y-49771772D01*
X167093105Y-49678948D01*
X167093104Y-49678947D01*
X167093100Y-49678946D01*
X166858789Y-49616162D01*
X166858786Y-49616161D01*
X166858784Y-49616161D01*
X166618289Y-49584500D01*
X166618288Y-49584500D01*
X166375712Y-49584500D01*
X166375710Y-49584500D01*
X166135218Y-49616161D01*
X166135213Y-49616161D01*
X165900907Y-49678944D01*
X165900894Y-49678948D01*
X165676795Y-49771772D01*
X165466707Y-49893066D01*
X165274268Y-50040729D01*
X165102729Y-50212268D01*
X164955066Y-50404707D01*
X164833772Y-50614795D01*
X164740948Y-50838894D01*
X164740944Y-50838907D01*
X164678161Y-51073213D01*
X164678161Y-51073218D01*
X164646500Y-51313710D01*
X158888452Y-51313710D01*
X158876028Y-51235267D01*
X158866015Y-51172049D01*
X158797895Y-50962394D01*
X158697815Y-50765978D01*
X158568242Y-50587635D01*
X158412365Y-50431758D01*
X158234022Y-50302185D01*
X158234021Y-50302184D01*
X158234019Y-50302183D01*
X158116802Y-50242458D01*
X158037606Y-50202105D01*
X158037602Y-50202104D01*
X158037599Y-50202102D01*
X157827948Y-50133984D01*
X157610225Y-50099500D01*
X157610222Y-50099500D01*
X157389778Y-50099500D01*
X157389775Y-50099500D01*
X157172051Y-50133984D01*
X156962400Y-50202102D01*
X156765980Y-50302183D01*
X156689610Y-50357669D01*
X156587635Y-50431758D01*
X156431758Y-50587635D01*
X156380160Y-50658654D01*
X156302183Y-50765980D01*
X156202102Y-50962400D01*
X156133984Y-51172051D01*
X156099500Y-51389774D01*
X153900499Y-51389774D01*
X153900499Y-50552128D01*
X153894091Y-50492517D01*
X153871430Y-50431760D01*
X153843797Y-50357670D01*
X153757549Y-50242458D01*
X153757548Y-50242457D01*
X153757546Y-50242454D01*
X153691937Y-50193339D01*
X153642329Y-50156202D01*
X153507488Y-50105910D01*
X153507483Y-50105909D01*
X153507481Y-50105908D01*
X153507477Y-50105908D01*
X153476249Y-50102550D01*
X153447873Y-50099500D01*
X153447870Y-50099500D01*
X151552133Y-50099500D01*
X151552129Y-50099500D01*
X151552128Y-50099501D01*
X151544949Y-50100272D01*
X151492519Y-50105908D01*
X151492514Y-50105909D01*
X151357670Y-50156202D01*
X151242458Y-50242450D01*
X151242450Y-50242458D01*
X151156202Y-50357670D01*
X151105910Y-50492511D01*
X151105908Y-50492522D01*
X151099500Y-50552129D01*
X141400652Y-50552129D01*
X141298611Y-50375388D01*
X141158919Y-50193339D01*
X140996661Y-50031081D01*
X140847740Y-49916809D01*
X140814611Y-49891388D01*
X140615883Y-49776653D01*
X140403885Y-49688841D01*
X140182238Y-49629452D01*
X139954734Y-49599500D01*
X139725266Y-49599500D01*
X139725265Y-49599500D01*
X139497761Y-49629452D01*
X139276114Y-49688841D01*
X139064116Y-49776653D01*
X138865388Y-49891388D01*
X138683342Y-50031078D01*
X138521078Y-50193342D01*
X138381388Y-50375388D01*
X138266653Y-50574116D01*
X138178841Y-50786114D01*
X138119452Y-51007761D01*
X138089500Y-51235265D01*
X127964450Y-51235265D01*
X127847219Y-51118034D01*
X127847215Y-51118031D01*
X127847213Y-51118029D01*
X127681613Y-50997714D01*
X127681609Y-50997712D01*
X127570532Y-50941116D01*
X127545201Y-50928209D01*
X127501937Y-50884945D01*
X127492366Y-50824513D01*
X127520143Y-50769997D01*
X127545199Y-50751791D01*
X127681610Y-50682287D01*
X127847219Y-50561966D01*
X127991966Y-50417219D01*
X128112287Y-50251610D01*
X128205220Y-50069219D01*
X128268477Y-49874534D01*
X128284753Y-49771776D01*
X128300500Y-49672355D01*
X128300500Y-49467644D01*
X128268478Y-49265470D01*
X128268477Y-49265466D01*
X128205220Y-49070781D01*
X128112287Y-48888390D01*
X128112285Y-48888386D01*
X127991970Y-48722786D01*
X127991968Y-48722784D01*
X127991966Y-48722781D01*
X127847219Y-48578034D01*
X127847215Y-48578031D01*
X127847213Y-48578029D01*
X127681613Y-48457714D01*
X127681609Y-48457712D01*
X127610847Y-48421657D01*
X127545201Y-48388209D01*
X127501937Y-48344945D01*
X127492366Y-48284513D01*
X127520143Y-48229997D01*
X127545199Y-48211791D01*
X127681610Y-48142287D01*
X127847219Y-48021966D01*
X127991966Y-47877219D01*
X128112287Y-47711610D01*
X128205220Y-47529219D01*
X128268477Y-47334534D01*
X128300500Y-47132352D01*
X128300500Y-46927648D01*
X128300500Y-46927644D01*
X128268478Y-46725470D01*
X128232469Y-46614646D01*
X128205220Y-46530781D01*
X128112287Y-46348390D01*
X128112285Y-46348386D01*
X127991970Y-46182786D01*
X127991968Y-46182784D01*
X127991966Y-46182781D01*
X127847219Y-46038034D01*
X127847215Y-46038031D01*
X127847213Y-46038029D01*
X127681613Y-45917714D01*
X127681609Y-45917712D01*
X127564597Y-45858092D01*
X127545201Y-45848209D01*
X127501937Y-45804945D01*
X127492366Y-45744513D01*
X127520143Y-45689997D01*
X127545199Y-45671791D01*
X127681610Y-45602287D01*
X127692820Y-45594143D01*
X127813771Y-45506267D01*
X127847219Y-45481966D01*
X127991966Y-45337219D01*
X128089322Y-45203219D01*
X128112285Y-45171613D01*
X128112287Y-45171610D01*
X128205220Y-44989219D01*
X128268477Y-44794534D01*
X128273552Y-44762491D01*
X128300500Y-44592355D01*
X128300500Y-44387644D01*
X128268478Y-44185470D01*
X128258404Y-44154465D01*
X128205220Y-43990781D01*
X128112287Y-43808390D01*
X128112285Y-43808386D01*
X127991970Y-43642786D01*
X127991968Y-43642784D01*
X127991966Y-43642781D01*
X127847219Y-43498034D01*
X127847215Y-43498031D01*
X127847213Y-43498029D01*
X127681613Y-43377714D01*
X127681609Y-43377712D01*
X127564597Y-43318092D01*
X127545201Y-43308209D01*
X127501937Y-43264945D01*
X127492366Y-43204513D01*
X127520143Y-43149997D01*
X127545199Y-43131791D01*
X127681610Y-43062287D01*
X127847219Y-42941966D01*
X127991966Y-42797219D01*
X128112287Y-42631610D01*
X128205220Y-42449219D01*
X128268477Y-42254534D01*
X128268478Y-42254529D01*
X128300500Y-42052355D01*
X128300500Y-41847644D01*
X128268478Y-41645470D01*
X128268477Y-41645466D01*
X128205220Y-41450781D01*
X128112287Y-41268390D01*
X128112285Y-41268386D01*
X127991970Y-41102786D01*
X127991968Y-41102784D01*
X127991966Y-41102781D01*
X127847219Y-40958034D01*
X127847215Y-40958031D01*
X127847213Y-40958029D01*
X127681613Y-40837714D01*
X127681609Y-40837712D01*
X127563239Y-40777400D01*
X127545201Y-40768209D01*
X127501937Y-40724945D01*
X127492366Y-40664513D01*
X127520143Y-40609997D01*
X127545199Y-40591791D01*
X127681610Y-40522287D01*
X127847219Y-40401966D01*
X127991966Y-40257219D01*
X128112287Y-40091610D01*
X128205220Y-39909219D01*
X128268477Y-39714534D01*
X128273552Y-39682491D01*
X128300500Y-39512355D01*
X128300500Y-39307644D01*
X128268478Y-39105470D01*
X128264092Y-39091970D01*
X128205220Y-38910781D01*
X128112287Y-38728390D01*
X128112285Y-38728386D01*
X127991970Y-38562786D01*
X127991968Y-38562784D01*
X127991966Y-38562781D01*
X127847219Y-38418034D01*
X127847215Y-38418031D01*
X127847213Y-38418029D01*
X127681613Y-38297714D01*
X127681609Y-38297712D01*
X127606499Y-38259442D01*
X127545201Y-38228209D01*
X127501937Y-38184945D01*
X127492366Y-38124513D01*
X127520143Y-38069997D01*
X127545199Y-38051791D01*
X127681610Y-37982287D01*
X127847219Y-37861966D01*
X127991966Y-37717219D01*
X128091781Y-37579835D01*
X128112285Y-37551613D01*
X128112287Y-37551610D01*
X128205220Y-37369219D01*
X128268477Y-37174534D01*
X128271507Y-37155402D01*
X128300500Y-36972355D01*
X128300500Y-36767644D01*
X128268478Y-36565470D01*
X128265891Y-36557508D01*
X128205220Y-36370781D01*
X128112287Y-36188390D01*
X128112285Y-36188386D01*
X127991970Y-36022786D01*
X127991968Y-36022784D01*
X127991966Y-36022781D01*
X127847219Y-35878034D01*
X127847215Y-35878031D01*
X127847213Y-35878029D01*
X127681613Y-35757714D01*
X127681609Y-35757712D01*
X127564597Y-35698092D01*
X127545201Y-35688209D01*
X127501937Y-35644945D01*
X127492366Y-35584513D01*
X127520143Y-35529997D01*
X127545199Y-35511791D01*
X127681610Y-35442287D01*
X127697870Y-35430474D01*
X127807978Y-35350476D01*
X127847219Y-35321966D01*
X127991966Y-35177219D01*
X128112287Y-35011610D01*
X128205220Y-34829219D01*
X128268477Y-34634534D01*
X128273552Y-34602491D01*
X128300500Y-34432355D01*
X128300500Y-34227644D01*
X128273951Y-34060025D01*
X128268477Y-34025466D01*
X128245593Y-33955035D01*
X128237976Y-33931592D01*
X128237977Y-33870407D01*
X128273941Y-33820907D01*
X128332131Y-33802000D01*
X131861748Y-33802000D01*
X131919047Y-33820617D01*
X131919068Y-33820587D01*
X131919175Y-33820659D01*
X131919939Y-33820907D01*
X131922444Y-33822843D01*
X131923110Y-33823288D01*
X131923111Y-33823289D01*
X131965114Y-33851355D01*
X132054214Y-33910890D01*
X132054225Y-33910896D01*
X132073962Y-33919071D01*
X132199903Y-33971237D01*
X132354558Y-34002000D01*
X132354559Y-34002000D01*
X132512241Y-34002000D01*
X132512242Y-34002000D01*
X132666897Y-33971237D01*
X132812579Y-33910894D01*
X132943689Y-33823289D01*
X133055189Y-33711789D01*
X133142794Y-33580679D01*
X133203137Y-33434997D01*
X133233900Y-33280342D01*
X133233900Y-33122658D01*
X133203137Y-32968003D01*
X133182278Y-32917644D01*
X133142796Y-32822325D01*
X133142790Y-32822314D01*
X133104730Y-32765354D01*
X133055189Y-32691211D01*
X132943689Y-32579711D01*
X132873172Y-32532593D01*
X132812585Y-32492109D01*
X132812574Y-32492103D01*
X132666897Y-32431763D01*
X132512244Y-32401000D01*
X132512242Y-32401000D01*
X132354558Y-32401000D01*
X132354555Y-32401000D01*
X132199903Y-32431763D01*
X132199901Y-32431763D01*
X132054225Y-32492103D01*
X132054214Y-32492109D01*
X131958549Y-32556032D01*
X131923111Y-32579711D01*
X131923109Y-32579712D01*
X131919068Y-32582413D01*
X131918148Y-32581036D01*
X131867568Y-32600829D01*
X131861748Y-32601000D01*
X128207913Y-32601000D01*
X128149722Y-32582093D01*
X128113758Y-32532593D01*
X128113758Y-32471407D01*
X128119703Y-32457055D01*
X128138015Y-32421116D01*
X128205220Y-32289219D01*
X128268477Y-32094534D01*
X128273552Y-32062491D01*
X128300500Y-31892355D01*
X128300500Y-31687644D01*
X128268478Y-31485470D01*
X128265891Y-31477508D01*
X128205220Y-31290781D01*
X128191800Y-31264444D01*
X128182229Y-31204013D01*
X128210006Y-31149497D01*
X128264523Y-31121719D01*
X128280010Y-31120500D01*
X128972564Y-31120500D01*
X128972580Y-31120501D01*
X128978643Y-31120501D01*
X129136756Y-31120501D01*
X129136757Y-31120501D01*
X129289485Y-31079577D01*
X129339604Y-31050639D01*
X129426416Y-31000520D01*
X129538220Y-30888716D01*
X129538221Y-30888713D01*
X133212939Y-27213996D01*
X133267456Y-27186219D01*
X133282943Y-27185000D01*
X137349279Y-27185000D01*
X137407470Y-27203907D01*
X137443434Y-27253407D01*
X137443434Y-27314593D01*
X137437492Y-27328935D01*
X137411729Y-27379500D01*
X137409430Y-27384012D01*
X137336445Y-27608636D01*
X137299500Y-27841904D01*
X137299500Y-28078095D01*
X137336445Y-28311363D01*
X137409432Y-28535992D01*
X137505453Y-28724445D01*
X137516657Y-28746433D01*
X137655483Y-28937510D01*
X137822490Y-29104517D01*
X137822493Y-29104519D01*
X137822495Y-29104521D01*
X137884964Y-29149908D01*
X137920928Y-29199408D01*
X137920927Y-29260593D01*
X137884964Y-29310092D01*
X137822495Y-29355478D01*
X137655482Y-29522491D01*
X137516655Y-29713569D01*
X137409432Y-29924007D01*
X137336445Y-30148636D01*
X137299500Y-30381904D01*
X137299500Y-30618095D01*
X137336445Y-30851363D01*
X137409432Y-31075992D01*
X137505453Y-31264445D01*
X137516657Y-31286433D01*
X137655483Y-31477510D01*
X137822490Y-31644517D01*
X137822493Y-31644519D01*
X137822495Y-31644521D01*
X137884964Y-31689908D01*
X137920928Y-31739408D01*
X137920927Y-31800593D01*
X137884964Y-31850092D01*
X137822495Y-31895478D01*
X137655482Y-32062491D01*
X137516655Y-32253569D01*
X137409432Y-32464007D01*
X137336445Y-32688636D01*
X137299500Y-32921904D01*
X137299500Y-33158095D01*
X137336445Y-33391363D01*
X137409432Y-33615992D01*
X137515054Y-33823288D01*
X137516657Y-33826433D01*
X137655483Y-34017510D01*
X137822490Y-34184517D01*
X137822493Y-34184519D01*
X137822495Y-34184521D01*
X137884964Y-34229908D01*
X137920928Y-34279408D01*
X137920927Y-34340593D01*
X137884964Y-34390092D01*
X137822495Y-34435478D01*
X137655482Y-34602491D01*
X137516655Y-34793569D01*
X137409432Y-35004007D01*
X137336445Y-35228636D01*
X137299500Y-35461904D01*
X137299500Y-35698095D01*
X137336445Y-35931363D01*
X137409432Y-36155992D01*
X137508655Y-36350730D01*
X137516657Y-36366433D01*
X137655483Y-36557510D01*
X137822490Y-36724517D01*
X137822493Y-36724519D01*
X137822495Y-36724521D01*
X137884964Y-36769908D01*
X137920928Y-36819408D01*
X137920927Y-36880593D01*
X137884964Y-36930092D01*
X137822495Y-36975478D01*
X137655482Y-37142491D01*
X137516655Y-37333569D01*
X137409432Y-37544007D01*
X137336445Y-37768636D01*
X137299500Y-38001904D01*
X137299500Y-38238095D01*
X137336445Y-38471363D01*
X137409432Y-38695992D01*
X137505453Y-38884445D01*
X137516657Y-38906433D01*
X137655483Y-39097510D01*
X137822490Y-39264517D01*
X137822493Y-39264519D01*
X137822495Y-39264521D01*
X137884964Y-39309908D01*
X137920928Y-39359408D01*
X137920927Y-39420593D01*
X137884964Y-39470092D01*
X137822495Y-39515478D01*
X137655482Y-39682491D01*
X137516655Y-39873569D01*
X137409432Y-40084007D01*
X137336445Y-40308636D01*
X137299500Y-40541904D01*
X137299500Y-40778095D01*
X137336445Y-41011363D01*
X137409432Y-41235992D01*
X137510242Y-41433844D01*
X137516657Y-41446433D01*
X137655483Y-41637510D01*
X137822490Y-41804517D01*
X137822493Y-41804519D01*
X137822495Y-41804521D01*
X137884964Y-41849908D01*
X137920928Y-41899408D01*
X137920927Y-41960593D01*
X137884964Y-42010092D01*
X137822495Y-42055478D01*
X137655482Y-42222491D01*
X137516655Y-42413569D01*
X137409432Y-42624007D01*
X137336445Y-42848636D01*
X137299500Y-43081904D01*
X137299500Y-43318095D01*
X137336445Y-43551363D01*
X137409432Y-43775992D01*
X137514135Y-43981485D01*
X137516657Y-43986433D01*
X137655483Y-44177510D01*
X137822490Y-44344517D01*
X138013567Y-44483343D01*
X138224008Y-44590568D01*
X138448632Y-44663553D01*
X138448633Y-44663553D01*
X138448636Y-44663554D01*
X138681905Y-44700500D01*
X138681908Y-44700500D01*
X138918095Y-44700500D01*
X139151363Y-44663554D01*
X139151364Y-44663553D01*
X139151368Y-44663553D01*
X139375992Y-44590568D01*
X139586433Y-44483343D01*
X139777510Y-44344517D01*
X139944517Y-44177510D01*
X139989908Y-44115033D01*
X140039407Y-44079071D01*
X140100593Y-44079071D01*
X140150091Y-44115033D01*
X140195483Y-44177510D01*
X140362490Y-44344517D01*
X140362493Y-44344519D01*
X140362495Y-44344521D01*
X140424964Y-44389908D01*
X140460928Y-44439408D01*
X140460927Y-44500593D01*
X140424964Y-44550092D01*
X140362495Y-44595478D01*
X140195482Y-44762491D01*
X140056655Y-44953569D01*
X139949432Y-45164007D01*
X139876445Y-45388636D01*
X139839500Y-45621904D01*
X139839500Y-45858095D01*
X139876445Y-46091363D01*
X139949432Y-46315992D01*
X140047816Y-46509083D01*
X140056657Y-46526433D01*
X140195483Y-46717510D01*
X140362490Y-46884517D01*
X140553567Y-47023343D01*
X140764008Y-47130568D01*
X140988632Y-47203553D01*
X140988633Y-47203553D01*
X140988636Y-47203554D01*
X141221905Y-47240500D01*
X141221908Y-47240500D01*
X141458095Y-47240500D01*
X141691363Y-47203554D01*
X141691364Y-47203553D01*
X141691368Y-47203553D01*
X141915992Y-47130568D01*
X142126433Y-47023343D01*
X142317510Y-46884517D01*
X142484517Y-46717510D01*
X142623343Y-46526433D01*
X142730568Y-46315992D01*
X142803553Y-46091368D01*
X142803554Y-46091363D01*
X142840500Y-45858095D01*
X142840500Y-45621904D01*
X142803554Y-45388636D01*
X142788856Y-45343400D01*
X142730568Y-45164008D01*
X142623343Y-44953567D01*
X142484517Y-44762490D01*
X142317510Y-44595483D01*
X142255033Y-44550091D01*
X142219071Y-44500593D01*
X142219071Y-44439407D01*
X142255033Y-44389908D01*
X142317510Y-44344517D01*
X142484517Y-44177510D01*
X142623343Y-43986433D01*
X142695135Y-43845533D01*
X146749500Y-43845533D01*
X146749500Y-44154466D01*
X146784088Y-44461450D01*
X146852832Y-44762637D01*
X146954863Y-45054225D01*
X147088905Y-45332566D01*
X147196156Y-45503254D01*
X147253265Y-45594143D01*
X147445880Y-45835674D01*
X147664326Y-46054120D01*
X147905857Y-46246735D01*
X147954501Y-46277300D01*
X148145448Y-46397280D01*
X148167435Y-46411095D01*
X148445771Y-46545135D01*
X148737364Y-46647168D01*
X149038548Y-46715911D01*
X149345535Y-46750500D01*
X149345536Y-46750500D01*
X149654464Y-46750500D01*
X149654465Y-46750500D01*
X149961452Y-46715911D01*
X150262636Y-46647168D01*
X150554229Y-46545135D01*
X150832565Y-46411095D01*
X151094143Y-46246735D01*
X151335674Y-46054120D01*
X151554120Y-45835674D01*
X151746735Y-45594143D01*
X151911095Y-45332565D01*
X152045135Y-45054229D01*
X152147168Y-44762636D01*
X152215911Y-44461452D01*
X152250500Y-44154465D01*
X152250500Y-43845535D01*
X152250500Y-43845533D01*
X157749500Y-43845533D01*
X157749500Y-44154466D01*
X157784088Y-44461450D01*
X157852832Y-44762637D01*
X157954863Y-45054225D01*
X158088905Y-45332566D01*
X158196156Y-45503254D01*
X158253265Y-45594143D01*
X158445880Y-45835674D01*
X158664326Y-46054120D01*
X158905857Y-46246735D01*
X158954501Y-46277300D01*
X159145448Y-46397280D01*
X159167435Y-46411095D01*
X159445771Y-46545135D01*
X159737364Y-46647168D01*
X160038548Y-46715911D01*
X160345535Y-46750500D01*
X160345536Y-46750500D01*
X160654464Y-46750500D01*
X160654465Y-46750500D01*
X160961452Y-46715911D01*
X161262636Y-46647168D01*
X161554229Y-46545135D01*
X161832565Y-46411095D01*
X162094143Y-46246735D01*
X162335674Y-46054120D01*
X162554120Y-45835674D01*
X162746735Y-45594143D01*
X162911095Y-45332565D01*
X163045135Y-45054229D01*
X163147168Y-44762636D01*
X163215911Y-44461452D01*
X163250500Y-44154465D01*
X163250500Y-43845535D01*
X163215911Y-43538548D01*
X163147168Y-43237364D01*
X163045135Y-42945771D01*
X162911095Y-42667435D01*
X162883807Y-42624007D01*
X162810399Y-42507178D01*
X162746735Y-42405857D01*
X162554120Y-42164326D01*
X162335674Y-41945880D01*
X162094143Y-41753265D01*
X162083556Y-41746613D01*
X161832566Y-41588905D01*
X161554225Y-41454863D01*
X161262637Y-41352832D01*
X160961450Y-41284088D01*
X160654466Y-41249500D01*
X160654465Y-41249500D01*
X160345535Y-41249500D01*
X160345533Y-41249500D01*
X160038549Y-41284088D01*
X159737362Y-41352832D01*
X159445774Y-41454863D01*
X159167433Y-41588905D01*
X158905856Y-41753265D01*
X158664327Y-41945879D01*
X158445879Y-42164327D01*
X158253265Y-42405856D01*
X158088905Y-42667433D01*
X157954863Y-42945774D01*
X157852832Y-43237362D01*
X157784088Y-43538549D01*
X157749500Y-43845533D01*
X152250500Y-43845533D01*
X152215911Y-43538548D01*
X152147168Y-43237364D01*
X152045135Y-42945771D01*
X151911095Y-42667435D01*
X151883807Y-42624007D01*
X151810399Y-42507178D01*
X151746735Y-42405857D01*
X151554120Y-42164326D01*
X151335674Y-41945880D01*
X151094143Y-41753265D01*
X151083556Y-41746613D01*
X150832566Y-41588905D01*
X150554225Y-41454863D01*
X150262637Y-41352832D01*
X149961450Y-41284088D01*
X149654466Y-41249500D01*
X149654465Y-41249500D01*
X149345535Y-41249500D01*
X149345533Y-41249500D01*
X149038549Y-41284088D01*
X148737362Y-41352832D01*
X148445774Y-41454863D01*
X148167433Y-41588905D01*
X147905856Y-41753265D01*
X147664327Y-41945879D01*
X147445879Y-42164327D01*
X147253265Y-42405856D01*
X147088905Y-42667433D01*
X146954863Y-42945774D01*
X146852832Y-43237362D01*
X146784088Y-43538549D01*
X146749500Y-43845533D01*
X142695135Y-43845533D01*
X142719452Y-43797809D01*
X142730565Y-43775999D01*
X142730566Y-43775996D01*
X142730566Y-43775995D01*
X142730568Y-43775992D01*
X142803553Y-43551368D01*
X142803721Y-43550307D01*
X142840500Y-43318095D01*
X142840500Y-43081904D01*
X142803554Y-42848636D01*
X142803553Y-42848632D01*
X142730568Y-42624008D01*
X142623343Y-42413567D01*
X142484517Y-42222490D01*
X142317510Y-42055483D01*
X142255033Y-42010091D01*
X142219071Y-41960593D01*
X142219071Y-41899407D01*
X142255033Y-41849908D01*
X142317510Y-41804517D01*
X142484517Y-41637510D01*
X142623343Y-41446433D01*
X142730568Y-41235992D01*
X142803553Y-41011368D01*
X142812001Y-40958029D01*
X142840500Y-40778095D01*
X142840500Y-40541904D01*
X142803554Y-40308636D01*
X142803553Y-40308632D01*
X142730568Y-40084008D01*
X142623343Y-39873567D01*
X142484517Y-39682490D01*
X142317510Y-39515483D01*
X142255033Y-39470091D01*
X142219071Y-39420593D01*
X142219071Y-39359407D01*
X142255033Y-39309908D01*
X142317510Y-39264517D01*
X142484517Y-39097510D01*
X142623343Y-38906433D01*
X142730568Y-38695992D01*
X142803553Y-38471368D01*
X142812001Y-38418029D01*
X142840500Y-38238095D01*
X142840500Y-38001904D01*
X142803554Y-37768636D01*
X142803553Y-37768632D01*
X142730568Y-37544008D01*
X142623343Y-37333567D01*
X142484517Y-37142490D01*
X142317510Y-36975483D01*
X142255033Y-36930091D01*
X142219071Y-36880593D01*
X142219071Y-36819407D01*
X142255033Y-36769908D01*
X142317510Y-36724517D01*
X142484517Y-36557510D01*
X142623343Y-36366433D01*
X142730568Y-36155992D01*
X142803553Y-35931368D01*
X142808442Y-35900500D01*
X142840500Y-35698095D01*
X142840500Y-35461904D01*
X142803554Y-35228636D01*
X142803553Y-35228632D01*
X142730568Y-35004008D01*
X142623343Y-34793567D01*
X142484517Y-34602490D01*
X142317510Y-34435483D01*
X142254597Y-34389774D01*
X151099500Y-34389774D01*
X151099500Y-34610225D01*
X151133984Y-34827948D01*
X151202102Y-35037599D01*
X151202104Y-35037602D01*
X151202105Y-35037606D01*
X151240156Y-35112285D01*
X151299440Y-35228636D01*
X151302185Y-35234022D01*
X151431758Y-35412365D01*
X151587635Y-35568242D01*
X151765978Y-35697815D01*
X151962394Y-35797895D01*
X152172049Y-35866015D01*
X152247902Y-35878029D01*
X152389775Y-35900500D01*
X152389778Y-35900500D01*
X152610225Y-35900500D01*
X152735909Y-35880593D01*
X152827951Y-35866015D01*
X153037606Y-35797895D01*
X153234022Y-35697815D01*
X153412365Y-35568242D01*
X153568242Y-35412365D01*
X153697815Y-35234022D01*
X153797895Y-35037606D01*
X153866015Y-34827951D01*
X153889193Y-34681610D01*
X153900500Y-34610225D01*
X153900500Y-34389774D01*
X156099500Y-34389774D01*
X156099500Y-34610225D01*
X156133984Y-34827948D01*
X156202102Y-35037599D01*
X156202104Y-35037602D01*
X156202105Y-35037606D01*
X156240156Y-35112285D01*
X156299440Y-35228636D01*
X156302185Y-35234022D01*
X156431758Y-35412365D01*
X156587635Y-35568242D01*
X156711450Y-35658198D01*
X156727566Y-35669907D01*
X156763530Y-35719408D01*
X156763530Y-35780593D01*
X156727566Y-35830092D01*
X156587635Y-35931758D01*
X156431758Y-36087635D01*
X156400044Y-36131286D01*
X156302183Y-36265980D01*
X156202102Y-36462400D01*
X156133984Y-36672051D01*
X156099500Y-36889774D01*
X156099500Y-37110225D01*
X156133984Y-37327948D01*
X156202102Y-37537599D01*
X156202104Y-37537602D01*
X156202105Y-37537606D01*
X156223922Y-37580423D01*
X156294892Y-37719710D01*
X156302185Y-37734022D01*
X156431758Y-37912365D01*
X156587635Y-38068242D01*
X156765978Y-38197815D01*
X156962394Y-38297895D01*
X157172049Y-38366015D01*
X157259140Y-38379809D01*
X157389775Y-38400500D01*
X157389778Y-38400500D01*
X157610225Y-38400500D01*
X157719086Y-38383257D01*
X157827951Y-38366015D01*
X158037606Y-38297895D01*
X158234022Y-38197815D01*
X158412365Y-38068242D01*
X158568242Y-37912365D01*
X158697815Y-37734022D01*
X158797895Y-37537606D01*
X158866015Y-37327951D01*
X158883257Y-37219086D01*
X158900500Y-37110225D01*
X158900500Y-36889774D01*
X158872619Y-36713743D01*
X158866015Y-36672049D01*
X158797895Y-36462394D01*
X158697815Y-36265978D01*
X158568242Y-36087635D01*
X158412365Y-35931758D01*
X158272431Y-35830091D01*
X158236469Y-35780593D01*
X158236469Y-35719407D01*
X158272431Y-35669908D01*
X158412365Y-35568242D01*
X158568242Y-35412365D01*
X158697815Y-35234022D01*
X158797895Y-35037606D01*
X158866015Y-34827951D01*
X158889193Y-34681610D01*
X158900500Y-34610225D01*
X158900500Y-34389774D01*
X158872941Y-34215779D01*
X158866015Y-34172049D01*
X158797895Y-33962394D01*
X158697815Y-33765978D01*
X158568242Y-33587635D01*
X158412365Y-33431758D01*
X158234022Y-33302185D01*
X158234021Y-33302184D01*
X158234019Y-33302183D01*
X158144825Y-33256736D01*
X158037606Y-33202105D01*
X158037602Y-33202104D01*
X158037599Y-33202102D01*
X157827948Y-33133984D01*
X157610225Y-33099500D01*
X157610222Y-33099500D01*
X157389778Y-33099500D01*
X157389775Y-33099500D01*
X157172051Y-33133984D01*
X156962400Y-33202102D01*
X156765980Y-33302183D01*
X156735217Y-33324534D01*
X156587635Y-33431758D01*
X156431758Y-33587635D01*
X156394144Y-33639407D01*
X156302183Y-33765980D01*
X156202102Y-33962400D01*
X156133984Y-34172051D01*
X156099500Y-34389774D01*
X153900500Y-34389774D01*
X153872941Y-34215779D01*
X153866015Y-34172049D01*
X153797895Y-33962394D01*
X153697815Y-33765978D01*
X153568242Y-33587635D01*
X153412365Y-33431758D01*
X153234022Y-33302185D01*
X153234021Y-33302184D01*
X153234019Y-33302183D01*
X153144825Y-33256736D01*
X153037606Y-33202105D01*
X153037602Y-33202104D01*
X153037599Y-33202102D01*
X152827948Y-33133984D01*
X152610225Y-33099500D01*
X152610222Y-33099500D01*
X152389778Y-33099500D01*
X152389775Y-33099500D01*
X152172051Y-33133984D01*
X151962400Y-33202102D01*
X151765980Y-33302183D01*
X151735217Y-33324534D01*
X151587635Y-33431758D01*
X151431758Y-33587635D01*
X151394144Y-33639407D01*
X151302183Y-33765980D01*
X151202102Y-33962400D01*
X151133984Y-34172051D01*
X151099500Y-34389774D01*
X142254597Y-34389774D01*
X142253134Y-34388711D01*
X142251316Y-34387254D01*
X142235748Y-34363548D01*
X142219071Y-34340593D01*
X142219071Y-34338150D01*
X142217731Y-34336110D01*
X142219071Y-34307781D01*
X142219071Y-34279407D01*
X142220506Y-34277430D01*
X142220622Y-34274993D01*
X142238353Y-34252866D01*
X142255033Y-34229908D01*
X142317510Y-34184517D01*
X142484517Y-34017510D01*
X142623343Y-33826433D01*
X142730568Y-33615992D01*
X142803553Y-33391368D01*
X142804702Y-33384115D01*
X142840500Y-33158095D01*
X142840500Y-32921904D01*
X142803554Y-32688636D01*
X142783258Y-32626171D01*
X142730568Y-32464008D01*
X142623343Y-32253567D01*
X142484517Y-32062490D01*
X142317510Y-31895483D01*
X142255033Y-31850091D01*
X142219071Y-31800593D01*
X142219071Y-31739407D01*
X142255033Y-31689908D01*
X142317510Y-31644517D01*
X142484517Y-31477510D01*
X142623343Y-31286433D01*
X142730568Y-31075992D01*
X142803553Y-30851368D01*
X142806721Y-30831368D01*
X142840500Y-30618095D01*
X142840500Y-30381904D01*
X142803554Y-30148636D01*
X142797056Y-30128636D01*
X142730568Y-29924008D01*
X142623343Y-29713567D01*
X142484517Y-29522490D01*
X142317510Y-29355483D01*
X142255033Y-29310091D01*
X142219071Y-29260593D01*
X142219071Y-29199407D01*
X142255033Y-29149908D01*
X142317510Y-29104517D01*
X142484517Y-28937510D01*
X142623343Y-28746433D01*
X142730568Y-28535992D01*
X142803553Y-28311368D01*
X142803554Y-28311363D01*
X142840500Y-28078095D01*
X142840500Y-27841907D01*
X142839169Y-27833502D01*
X142839169Y-27833501D01*
X142837332Y-27821904D01*
X148039500Y-27821904D01*
X148039500Y-28058095D01*
X148076445Y-28291363D01*
X148149432Y-28515992D01*
X148217155Y-28648907D01*
X148256657Y-28726433D01*
X148395483Y-28917510D01*
X148562490Y-29084517D01*
X148562493Y-29084519D01*
X148562495Y-29084521D01*
X148624964Y-29129908D01*
X148660928Y-29179408D01*
X148660927Y-29240593D01*
X148624964Y-29290092D01*
X148562495Y-29335478D01*
X148395482Y-29502491D01*
X148256655Y-29693569D01*
X148149432Y-29904007D01*
X148076445Y-30128636D01*
X148039500Y-30361904D01*
X148039500Y-30598095D01*
X148076445Y-30831363D01*
X148149432Y-31055992D01*
X148217155Y-31188907D01*
X148256657Y-31266433D01*
X148395483Y-31457510D01*
X148562490Y-31624517D01*
X148753567Y-31763343D01*
X148964008Y-31870568D01*
X149188632Y-31943553D01*
X149188633Y-31943553D01*
X149188636Y-31943554D01*
X149421905Y-31980500D01*
X149421908Y-31980500D01*
X149658095Y-31980500D01*
X149891363Y-31943554D01*
X149891364Y-31943553D01*
X149891368Y-31943553D01*
X150115992Y-31870568D01*
X150326433Y-31763343D01*
X150517510Y-31624517D01*
X150684517Y-31457510D01*
X150823343Y-31266433D01*
X150930568Y-31055992D01*
X151003553Y-30831368D01*
X151037332Y-30618095D01*
X151040500Y-30598095D01*
X151040500Y-30361904D01*
X151003554Y-30128636D01*
X150986333Y-30075635D01*
X150930568Y-29904008D01*
X150823343Y-29693567D01*
X150684517Y-29502490D01*
X150517510Y-29335483D01*
X150455033Y-29290091D01*
X150419071Y-29240593D01*
X150419071Y-29179407D01*
X150455033Y-29129908D01*
X150517510Y-29084517D01*
X150684517Y-28917510D01*
X150823343Y-28726433D01*
X150930568Y-28515992D01*
X151003553Y-28291368D01*
X151003554Y-28291363D01*
X151040500Y-28058095D01*
X151040500Y-27821904D01*
X151003554Y-27588636D01*
X151003553Y-27588632D01*
X150930568Y-27364008D01*
X150823343Y-27153567D01*
X150684517Y-26962490D01*
X150517510Y-26795483D01*
X150326433Y-26656657D01*
X150326432Y-26656656D01*
X150326430Y-26656655D01*
X150115992Y-26549432D01*
X149891363Y-26476445D01*
X149658095Y-26439500D01*
X149658092Y-26439500D01*
X149421908Y-26439500D01*
X149421905Y-26439500D01*
X149188636Y-26476445D01*
X148964007Y-26549432D01*
X148753569Y-26656655D01*
X148562491Y-26795482D01*
X148395482Y-26962491D01*
X148256655Y-27153569D01*
X148149432Y-27364007D01*
X148076445Y-27588636D01*
X148039500Y-27821904D01*
X142837332Y-27821904D01*
X142819401Y-27708687D01*
X142828972Y-27648255D01*
X142872237Y-27604990D01*
X142917182Y-27594200D01*
X142981241Y-27594200D01*
X142981242Y-27594200D01*
X143135897Y-27563437D01*
X143281579Y-27503094D01*
X143412689Y-27415489D01*
X143524189Y-27303989D01*
X143611794Y-27172879D01*
X143672137Y-27027197D01*
X143702900Y-26872542D01*
X143702900Y-26714858D01*
X143672137Y-26560203D01*
X143647523Y-26500780D01*
X143611796Y-26414525D01*
X143611790Y-26414514D01*
X143547561Y-26318390D01*
X143524189Y-26283411D01*
X143412689Y-26171911D01*
X143360459Y-26137012D01*
X143281585Y-26084309D01*
X143281574Y-26084303D01*
X143252266Y-26072164D01*
X143205740Y-26032428D01*
X143191456Y-25972933D01*
X143214870Y-25916405D01*
X143267039Y-25884436D01*
X143290151Y-25881700D01*
X147033664Y-25881700D01*
X147033680Y-25881701D01*
X147039743Y-25881701D01*
X147197855Y-25881701D01*
X147197857Y-25881701D01*
X147350585Y-25840777D01*
X147412753Y-25804884D01*
X147412755Y-25804882D01*
X147412757Y-25804882D01*
X147434965Y-25792059D01*
X147487516Y-25761720D01*
X147599320Y-25649916D01*
X147599321Y-25649913D01*
X148947270Y-24301963D01*
X149001785Y-24274188D01*
X149047865Y-24277815D01*
X149188626Y-24323552D01*
X149188630Y-24323553D01*
X149421905Y-24360500D01*
X149421908Y-24360500D01*
X149658095Y-24360500D01*
X149891363Y-24323554D01*
X149891364Y-24323553D01*
X149891368Y-24323553D01*
X150115992Y-24250568D01*
X150326433Y-24143343D01*
X150517510Y-24004517D01*
X150684517Y-23837510D01*
X150823343Y-23646433D01*
X150930568Y-23435992D01*
X151003553Y-23211368D01*
X151008833Y-23178034D01*
X151040500Y-22978095D01*
X151040500Y-22741904D01*
X151003554Y-22508636D01*
X150931252Y-22286114D01*
X150930568Y-22284008D01*
X150823343Y-22073567D01*
X150684517Y-21882490D01*
X150651688Y-21849661D01*
X150623913Y-21795147D01*
X150633484Y-21734715D01*
X150669022Y-21695835D01*
X150742262Y-21649816D01*
X150869816Y-21522262D01*
X150965789Y-21369522D01*
X151025368Y-21199255D01*
X151025736Y-21195990D01*
X151040499Y-21064970D01*
X151040500Y-21064953D01*
X151040500Y-19575046D01*
X151040499Y-19575029D01*
X151025369Y-19440750D01*
X151025366Y-19440738D01*
X150997885Y-19362204D01*
X150965789Y-19270478D01*
X150882613Y-19138105D01*
X150869818Y-19117741D01*
X150869817Y-19117740D01*
X150869816Y-19117738D01*
X150742262Y-18990184D01*
X150742259Y-18990182D01*
X150742258Y-18990181D01*
X150589523Y-18894211D01*
X150419261Y-18834633D01*
X150419249Y-18834630D01*
X150284970Y-18819500D01*
X150284954Y-18819500D01*
X148795046Y-18819500D01*
X148795029Y-18819500D01*
X148660750Y-18834630D01*
X148660738Y-18834633D01*
X148490477Y-18894211D01*
X148490476Y-18894211D01*
X148337741Y-18990181D01*
X148210181Y-19117741D01*
X148114211Y-19270476D01*
X148114211Y-19270477D01*
X148054633Y-19440738D01*
X148054630Y-19440750D01*
X148039500Y-19575029D01*
X148039500Y-19620500D01*
X148020593Y-19678691D01*
X147971093Y-19714655D01*
X147940500Y-19719500D01*
X128299151Y-19719500D01*
X128240960Y-19700593D01*
X128204996Y-19651093D01*
X128204996Y-19589907D01*
X128209825Y-19575046D01*
X128268477Y-19394534D01*
X128268478Y-19394529D01*
X128300500Y-19192355D01*
X128300500Y-18987644D01*
X128268478Y-18785470D01*
X128237523Y-18690200D01*
X128205220Y-18590781D01*
X128118566Y-18420713D01*
X128118564Y-18420710D01*
X164646500Y-18420710D01*
X164646500Y-18663289D01*
X164678161Y-18903781D01*
X164678161Y-18903786D01*
X164740944Y-19138092D01*
X164740948Y-19138105D01*
X164833772Y-19362204D01*
X164833774Y-19362208D01*
X164833776Y-19362212D01*
X164955064Y-19572289D01*
X164955066Y-19572292D01*
X165102729Y-19764731D01*
X165102731Y-19764733D01*
X165102735Y-19764738D01*
X165274262Y-19936265D01*
X165274266Y-19936268D01*
X165274268Y-19936270D01*
X165275497Y-19937213D01*
X165466711Y-20083936D01*
X165676788Y-20205224D01*
X165900900Y-20298054D01*
X166135211Y-20360838D01*
X166375712Y-20392500D01*
X166375713Y-20392500D01*
X166618287Y-20392500D01*
X166618288Y-20392500D01*
X166858789Y-20360838D01*
X167093100Y-20298054D01*
X167317212Y-20205224D01*
X167527289Y-20083936D01*
X167719738Y-19936265D01*
X167891265Y-19764738D01*
X168038936Y-19572289D01*
X168160224Y-19362212D01*
X168253054Y-19138100D01*
X168315838Y-18903789D01*
X168347500Y-18663288D01*
X168347500Y-18420712D01*
X168315838Y-18180211D01*
X168253054Y-17945900D01*
X168160224Y-17721788D01*
X168038936Y-17511711D01*
X167974386Y-17427587D01*
X167891270Y-17319268D01*
X167891268Y-17319266D01*
X167891265Y-17319262D01*
X167719738Y-17147735D01*
X167719733Y-17147731D01*
X167719731Y-17147729D01*
X167527292Y-17000066D01*
X167474681Y-16969691D01*
X167317212Y-16878776D01*
X167317208Y-16878774D01*
X167317204Y-16878772D01*
X167093105Y-16785948D01*
X167093104Y-16785947D01*
X167093100Y-16785946D01*
X166858789Y-16723162D01*
X166858786Y-16723161D01*
X166858784Y-16723161D01*
X166618289Y-16691500D01*
X166618288Y-16691500D01*
X166375712Y-16691500D01*
X166375710Y-16691500D01*
X166135218Y-16723161D01*
X166135213Y-16723161D01*
X165900907Y-16785944D01*
X165900894Y-16785948D01*
X165676795Y-16878772D01*
X165466707Y-17000066D01*
X165274268Y-17147729D01*
X165102729Y-17319268D01*
X164955066Y-17511707D01*
X164833772Y-17721795D01*
X164740948Y-17945894D01*
X164740944Y-17945907D01*
X164678161Y-18180213D01*
X164678161Y-18180218D01*
X164646500Y-18420710D01*
X128118564Y-18420710D01*
X128112290Y-18408395D01*
X128112285Y-18408386D01*
X127991970Y-18242786D01*
X127991968Y-18242784D01*
X127991966Y-18242781D01*
X127847219Y-18098034D01*
X127847215Y-18098031D01*
X127847213Y-18098029D01*
X127681613Y-17977714D01*
X127681609Y-17977712D01*
X127499219Y-17884780D01*
X127304529Y-17821521D01*
X127102355Y-17789500D01*
X127102352Y-17789500D01*
X126897648Y-17789500D01*
X126897645Y-17789500D01*
X126695470Y-17821521D01*
X126500780Y-17884780D01*
X126318390Y-17977712D01*
X126318386Y-17977714D01*
X126152786Y-18098029D01*
X126008029Y-18242786D01*
X125887714Y-18408386D01*
X125887712Y-18408390D01*
X125794780Y-18590780D01*
X125731521Y-18785470D01*
X125699500Y-18987644D01*
X125699500Y-19192355D01*
X125731521Y-19394529D01*
X125746538Y-19440745D01*
X125790169Y-19575029D01*
X125795004Y-19589907D01*
X125795004Y-19651093D01*
X125759040Y-19700593D01*
X125700849Y-19719500D01*
X120775136Y-19719500D01*
X120769061Y-19719499D01*
X120769058Y-19719499D01*
X120679151Y-19719499D01*
X120660244Y-19713355D01*
X120620961Y-19700592D01*
X120584997Y-19651092D01*
X120584997Y-19589906D01*
X120629967Y-19451501D01*
X120648477Y-19394534D01*
X120648478Y-19394529D01*
X120680500Y-19192355D01*
X120680500Y-18987644D01*
X120648478Y-18785470D01*
X120617523Y-18690200D01*
X120585220Y-18590781D01*
X120492287Y-18408390D01*
X120492285Y-18408386D01*
X120371970Y-18242786D01*
X120371968Y-18242784D01*
X120371966Y-18242781D01*
X120227219Y-18098034D01*
X120227215Y-18098031D01*
X120227213Y-18098029D01*
X120061613Y-17977714D01*
X120061609Y-17977712D01*
X119879219Y-17884780D01*
X119684529Y-17821521D01*
X119482355Y-17789500D01*
X119482352Y-17789500D01*
X119277648Y-17789500D01*
X119277645Y-17789500D01*
X119075470Y-17821521D01*
X118880780Y-17884780D01*
X118698390Y-17977712D01*
X118698386Y-17977714D01*
X118532786Y-18098029D01*
X118388029Y-18242786D01*
X118267714Y-18408386D01*
X118267712Y-18408390D01*
X118174780Y-18590780D01*
X118111521Y-18785470D01*
X118079500Y-18987644D01*
X118079500Y-19192355D01*
X118111521Y-19394529D01*
X118174780Y-19589219D01*
X118267712Y-19771609D01*
X118267714Y-19771613D01*
X118388029Y-19937213D01*
X118388031Y-19937215D01*
X118388034Y-19937219D01*
X118532781Y-20081966D01*
X118532784Y-20081968D01*
X118532786Y-20081970D01*
X118698386Y-20202285D01*
X118698390Y-20202287D01*
X118834797Y-20271790D01*
X118878062Y-20315055D01*
X118887633Y-20375487D01*
X118859856Y-20430004D01*
X118834797Y-20448210D01*
X118698390Y-20517712D01*
X118698386Y-20517714D01*
X118532786Y-20638029D01*
X118388029Y-20782786D01*
X118267714Y-20948386D01*
X118267712Y-20948390D01*
X118174780Y-21130780D01*
X118111521Y-21325470D01*
X118079500Y-21527644D01*
X118079500Y-21732356D01*
X118079499Y-21732356D01*
X118086017Y-21773507D01*
X118076445Y-21833939D01*
X118033180Y-21877203D01*
X117972748Y-21886774D01*
X117918232Y-21858997D01*
X114541521Y-18482286D01*
X114541520Y-18482284D01*
X114429716Y-18370480D01*
X114429713Y-18370478D01*
X114329176Y-18312433D01*
X114329173Y-18312432D01*
X114292788Y-18291424D01*
X114292785Y-18291423D01*
X114140057Y-18250499D01*
X113981943Y-18250499D01*
X113975880Y-18250499D01*
X113975864Y-18250500D01*
X37921500Y-18250500D01*
X37863309Y-18231593D01*
X37827345Y-18182093D01*
X37822500Y-18151500D01*
X37822500Y-16800729D01*
X37822499Y-16800712D01*
X37807369Y-16666433D01*
X37807366Y-16666421D01*
X37766100Y-16548491D01*
X37747789Y-16496161D01*
X37725059Y-16459987D01*
X37651818Y-16343424D01*
X37651817Y-16343423D01*
X37651816Y-16343421D01*
X37524262Y-16215867D01*
X37524259Y-16215865D01*
X37524258Y-16215864D01*
X37371523Y-16119894D01*
X37201261Y-16060316D01*
X37201249Y-16060313D01*
X37066970Y-16045183D01*
X37066954Y-16045183D01*
X35577046Y-16045183D01*
X35577029Y-16045183D01*
X35442750Y-16060313D01*
X35442738Y-16060316D01*
X35272477Y-16119894D01*
X35272476Y-16119894D01*
X35119741Y-16215864D01*
X34992181Y-16343424D01*
X34946165Y-16416659D01*
X34899196Y-16455871D01*
X34838149Y-16459987D01*
X34792337Y-16433993D01*
X34759510Y-16401166D01*
X34568433Y-16262340D01*
X34568432Y-16262339D01*
X34568430Y-16262338D01*
X34357992Y-16155115D01*
X34133363Y-16082128D01*
X33900095Y-16045183D01*
X33900092Y-16045183D01*
X33663908Y-16045183D01*
X33663905Y-16045183D01*
X33430636Y-16082128D01*
X33206007Y-16155115D01*
X32995569Y-16262338D01*
X32804491Y-16401165D01*
X32637478Y-16568178D01*
X32592092Y-16630647D01*
X32542592Y-16666611D01*
X32481407Y-16666610D01*
X32431908Y-16630647D01*
X32386521Y-16568178D01*
X32386518Y-16568175D01*
X32386517Y-16568173D01*
X32219510Y-16401166D01*
X32028433Y-16262340D01*
X32028432Y-16262339D01*
X32028430Y-16262338D01*
X31817992Y-16155115D01*
X31593363Y-16082128D01*
X31360095Y-16045183D01*
X31360092Y-16045183D01*
X31123908Y-16045183D01*
X31123905Y-16045183D01*
X30890636Y-16082128D01*
X30666007Y-16155115D01*
X30455569Y-16262338D01*
X30264491Y-16401165D01*
X30097481Y-16568175D01*
X30059242Y-16620806D01*
X30009741Y-16656769D01*
X29948556Y-16656768D01*
X29899058Y-16620805D01*
X29846521Y-16548495D01*
X29846519Y-16548493D01*
X29846517Y-16548490D01*
X29679510Y-16381483D01*
X29488433Y-16242657D01*
X29488432Y-16242656D01*
X29488430Y-16242655D01*
X29277992Y-16135432D01*
X29053363Y-16062445D01*
X28820095Y-16025500D01*
X28820092Y-16025500D01*
X28583908Y-16025500D01*
X28583905Y-16025500D01*
X28350636Y-16062445D01*
X28126007Y-16135432D01*
X27915569Y-16242655D01*
X27724491Y-16381482D01*
X27557482Y-16548491D01*
X27418655Y-16739569D01*
X27311432Y-16950007D01*
X27238445Y-17174636D01*
X27201500Y-17407904D01*
X27201500Y-17644095D01*
X27238445Y-17877363D01*
X27311432Y-18101992D01*
X27407951Y-18291423D01*
X27418657Y-18312433D01*
X27557483Y-18503510D01*
X27724490Y-18670517D01*
X27915567Y-18809343D01*
X28126008Y-18916568D01*
X28350632Y-18989553D01*
X28350633Y-18989553D01*
X28350636Y-18989554D01*
X28583905Y-19026500D01*
X28583908Y-19026500D01*
X28820095Y-19026500D01*
X29053363Y-18989554D01*
X29053364Y-18989553D01*
X29053368Y-18989553D01*
X29194135Y-18943813D01*
X29255316Y-18943813D01*
X29294729Y-18967964D01*
X29546478Y-19219713D01*
X29546480Y-19219716D01*
X29658284Y-19331520D01*
X29711445Y-19362212D01*
X29795215Y-19410577D01*
X29947943Y-19451501D01*
X29947945Y-19451501D01*
X30112120Y-19451501D01*
X30112136Y-19451500D01*
X113771257Y-19451500D01*
X113829448Y-19470407D01*
X113841261Y-19480496D01*
X118096755Y-23735990D01*
X118124532Y-23790507D01*
X118120906Y-23836585D01*
X118111522Y-23865466D01*
X118079500Y-24067644D01*
X118079500Y-24272355D01*
X118111521Y-24474529D01*
X118174780Y-24669219D01*
X118267712Y-24851609D01*
X118267714Y-24851613D01*
X118388029Y-25017213D01*
X118388031Y-25017215D01*
X118388034Y-25017219D01*
X118532781Y-25161966D01*
X118532784Y-25161968D01*
X118532786Y-25161970D01*
X118698386Y-25282285D01*
X118698390Y-25282287D01*
X118834797Y-25351790D01*
X118878062Y-25395055D01*
X118887633Y-25455487D01*
X118859856Y-25510004D01*
X118834797Y-25528210D01*
X118698390Y-25597712D01*
X118698386Y-25597714D01*
X118532786Y-25718029D01*
X118388029Y-25862786D01*
X118267714Y-26028386D01*
X118267712Y-26028390D01*
X118174780Y-26210780D01*
X118111521Y-26405470D01*
X118079500Y-26607644D01*
X118079500Y-26812355D01*
X118111521Y-27014529D01*
X118174780Y-27209219D01*
X118188199Y-27235555D01*
X118197771Y-27295987D01*
X118169994Y-27350503D01*
X118115477Y-27378281D01*
X118099990Y-27379500D01*
X93756836Y-27379500D01*
X93756820Y-27379499D01*
X93750757Y-27379499D01*
X93592643Y-27379499D01*
X93439915Y-27420423D01*
X93439913Y-27420423D01*
X93439909Y-27420425D01*
X93389795Y-27449359D01*
X93302984Y-27499479D01*
X93191179Y-27611283D01*
X93191180Y-27611284D01*
X93191178Y-27611286D01*
X88295011Y-32507452D01*
X88240494Y-32535229D01*
X88180062Y-32525658D01*
X88145756Y-32496779D01*
X88127546Y-32472454D01*
X88126419Y-32471610D01*
X88012329Y-32386202D01*
X87877488Y-32335910D01*
X87877483Y-32335909D01*
X87877481Y-32335908D01*
X87877477Y-32335908D01*
X87839237Y-32331797D01*
X87817873Y-32329500D01*
X87817870Y-32329500D01*
X86222133Y-32329500D01*
X86222129Y-32329500D01*
X86222128Y-32329501D01*
X86214949Y-32330272D01*
X86162519Y-32335908D01*
X86162514Y-32335909D01*
X86027670Y-32386202D01*
X85912458Y-32472450D01*
X85912450Y-32472458D01*
X85826202Y-32587670D01*
X85775910Y-32722511D01*
X85775908Y-32722522D01*
X85769500Y-32782129D01*
X85769500Y-34377866D01*
X85769501Y-34377870D01*
X85775908Y-34437480D01*
X85775909Y-34437485D01*
X85826202Y-34572329D01*
X85912450Y-34687541D01*
X85912454Y-34687546D01*
X85912457Y-34687548D01*
X85912458Y-34687549D01*
X86027670Y-34773797D01*
X86162511Y-34824089D01*
X86162512Y-34824089D01*
X86162517Y-34824091D01*
X86222127Y-34830500D01*
X87817872Y-34830499D01*
X87877483Y-34824091D01*
X87990051Y-34782106D01*
X88012329Y-34773797D01*
X88012329Y-34773796D01*
X88012331Y-34773796D01*
X88127546Y-34687546D01*
X88213796Y-34572331D01*
X88264091Y-34437483D01*
X88270500Y-34377873D01*
X88270499Y-34215778D01*
X88276894Y-34196095D01*
X88279058Y-34175511D01*
X88286137Y-34167649D01*
X88289406Y-34157588D01*
X88319997Y-34130043D01*
X88375124Y-34098216D01*
X88375124Y-34098215D01*
X88375127Y-34098215D01*
X88414807Y-34075305D01*
X88440416Y-34060520D01*
X88450688Y-34050247D01*
X88505202Y-34022469D01*
X88565634Y-34032039D01*
X88608899Y-34075301D01*
X88622683Y-34102352D01*
X88687674Y-34229907D01*
X88690476Y-34235405D01*
X88806172Y-34394646D01*
X88945354Y-34533828D01*
X89104595Y-34649524D01*
X89279975Y-34738884D01*
X89467174Y-34799709D01*
X89467175Y-34799709D01*
X89467178Y-34799710D01*
X89661580Y-34830500D01*
X89661583Y-34830500D01*
X89858420Y-34830500D01*
X90052821Y-34799710D01*
X90052822Y-34799709D01*
X90052826Y-34799709D01*
X90111773Y-34780554D01*
X90172957Y-34780554D01*
X90212370Y-34804705D01*
X90566080Y-35158415D01*
X90593857Y-35212932D01*
X90584286Y-35273364D01*
X90541022Y-35316628D01*
X90474600Y-35350472D01*
X90474598Y-35350473D01*
X90315355Y-35466171D01*
X90176171Y-35605355D01*
X90060474Y-35764597D01*
X89971116Y-35939974D01*
X89910289Y-36127178D01*
X89879500Y-36321579D01*
X89879500Y-36518420D01*
X89910290Y-36712827D01*
X89910588Y-36713743D01*
X89910587Y-36714066D01*
X89911198Y-36716607D01*
X89910587Y-36716753D01*
X89910581Y-36774928D01*
X89886434Y-36814329D01*
X87503261Y-39197504D01*
X87448744Y-39225281D01*
X87433257Y-39226500D01*
X79067452Y-39226500D01*
X79010152Y-39207882D01*
X79010132Y-39207913D01*
X79010024Y-39207840D01*
X79009261Y-39207593D01*
X79006755Y-39205656D01*
X78874985Y-39117609D01*
X78874974Y-39117603D01*
X78729297Y-39057263D01*
X78574644Y-39026500D01*
X78574642Y-39026500D01*
X78416958Y-39026500D01*
X78416955Y-39026500D01*
X78262303Y-39057263D01*
X78262301Y-39057263D01*
X78116625Y-39117603D01*
X78116614Y-39117609D01*
X77985511Y-39205211D01*
X77985507Y-39205214D01*
X77874014Y-39316707D01*
X77874011Y-39316711D01*
X77786409Y-39447814D01*
X77786403Y-39447825D01*
X77726063Y-39593501D01*
X77726063Y-39593503D01*
X77695110Y-39749114D01*
X77665213Y-39802498D01*
X77609648Y-39828114D01*
X77598012Y-39828800D01*
X75009044Y-39828800D01*
X74950853Y-39809893D01*
X74939040Y-39799804D01*
X73673243Y-38534008D01*
X73645466Y-38479491D01*
X73649093Y-38433412D01*
X73658477Y-38404534D01*
X73675367Y-38297897D01*
X73690500Y-38202355D01*
X73690500Y-37997644D01*
X73658478Y-37795470D01*
X73650620Y-37771286D01*
X73595220Y-37600781D01*
X73502287Y-37418390D01*
X73502285Y-37418386D01*
X73381970Y-37252786D01*
X73381968Y-37252784D01*
X73381966Y-37252781D01*
X73237219Y-37108034D01*
X73237215Y-37108031D01*
X73237213Y-37108029D01*
X73071613Y-36987714D01*
X73071609Y-36987712D01*
X72889219Y-36894780D01*
X72694529Y-36831521D01*
X72492355Y-36799500D01*
X72492352Y-36799500D01*
X72287648Y-36799500D01*
X72287645Y-36799500D01*
X72085470Y-36831521D01*
X71890780Y-36894780D01*
X71708390Y-36987712D01*
X71708386Y-36987714D01*
X71542786Y-37108029D01*
X71398029Y-37252786D01*
X71277714Y-37418386D01*
X71277712Y-37418390D01*
X71184780Y-37600780D01*
X71121521Y-37795470D01*
X71089500Y-37997644D01*
X71089500Y-38202355D01*
X71121521Y-38404529D01*
X71184780Y-38599219D01*
X71277712Y-38781609D01*
X71277714Y-38781613D01*
X71398029Y-38947213D01*
X71398031Y-38947215D01*
X71398034Y-38947219D01*
X71542781Y-39091966D01*
X71542784Y-39091968D01*
X71542786Y-39091970D01*
X71708386Y-39212285D01*
X71708390Y-39212287D01*
X71890781Y-39305220D01*
X72085466Y-39368477D01*
X72085467Y-39368477D01*
X72085470Y-39368478D01*
X72287645Y-39400500D01*
X72287648Y-39400500D01*
X72492355Y-39400500D01*
X72694530Y-39368478D01*
X72694530Y-39368477D01*
X72694534Y-39368477D01*
X72723411Y-39359093D01*
X72784593Y-39359091D01*
X72824008Y-39383243D01*
X74049160Y-40608396D01*
X74076937Y-40662913D01*
X74067366Y-40723345D01*
X74024101Y-40766610D01*
X73979156Y-40777400D01*
X56547643Y-40777400D01*
X56489452Y-40758493D01*
X56477639Y-40748404D01*
X53726879Y-37997644D01*
X59579500Y-37997644D01*
X59579500Y-38202355D01*
X59611521Y-38404529D01*
X59674780Y-38599219D01*
X59767712Y-38781609D01*
X59767714Y-38781613D01*
X59888029Y-38947213D01*
X59888031Y-38947215D01*
X59888034Y-38947219D01*
X60032781Y-39091966D01*
X60032784Y-39091968D01*
X60032786Y-39091970D01*
X60198386Y-39212285D01*
X60198390Y-39212287D01*
X60380781Y-39305220D01*
X60575466Y-39368477D01*
X60575467Y-39368477D01*
X60575470Y-39368478D01*
X60777645Y-39400500D01*
X60777648Y-39400500D01*
X60982355Y-39400500D01*
X61184529Y-39368478D01*
X61184530Y-39368477D01*
X61184534Y-39368477D01*
X61379219Y-39305220D01*
X61561610Y-39212287D01*
X61567631Y-39207913D01*
X61708632Y-39105470D01*
X61727219Y-39091966D01*
X61871966Y-38947219D01*
X61992287Y-38781610D01*
X62006072Y-38754554D01*
X62049336Y-38711291D01*
X62094282Y-38700500D01*
X63555718Y-38700500D01*
X63613909Y-38719407D01*
X63643927Y-38754554D01*
X63649584Y-38765657D01*
X63657712Y-38781609D01*
X63657714Y-38781613D01*
X63778029Y-38947213D01*
X63778031Y-38947215D01*
X63778034Y-38947219D01*
X63922781Y-39091966D01*
X63922784Y-39091968D01*
X63922786Y-39091970D01*
X64088386Y-39212285D01*
X64088390Y-39212287D01*
X64270781Y-39305220D01*
X64465466Y-39368477D01*
X64465467Y-39368477D01*
X64465470Y-39368478D01*
X64667645Y-39400500D01*
X64667648Y-39400500D01*
X64872355Y-39400500D01*
X65074529Y-39368478D01*
X65074530Y-39368477D01*
X65074534Y-39368477D01*
X65269219Y-39305220D01*
X65451610Y-39212287D01*
X65457631Y-39207913D01*
X65598632Y-39105470D01*
X65617219Y-39091966D01*
X65761966Y-38947219D01*
X65882287Y-38781610D01*
X65975220Y-38599219D01*
X66038477Y-38404534D01*
X66055367Y-38297897D01*
X66070500Y-38202355D01*
X66070500Y-37997644D01*
X66038478Y-37795470D01*
X66030620Y-37771286D01*
X65975220Y-37600781D01*
X65882287Y-37418390D01*
X65882285Y-37418386D01*
X65761970Y-37252786D01*
X65761968Y-37252784D01*
X65761966Y-37252781D01*
X65617219Y-37108034D01*
X65617215Y-37108031D01*
X65617213Y-37108029D01*
X65451613Y-36987714D01*
X65451609Y-36987712D01*
X65269219Y-36894780D01*
X65074529Y-36831521D01*
X64872355Y-36799500D01*
X64872352Y-36799500D01*
X64667648Y-36799500D01*
X64667645Y-36799500D01*
X64465470Y-36831521D01*
X64270780Y-36894780D01*
X64088390Y-36987712D01*
X64088386Y-36987714D01*
X63922786Y-37108029D01*
X63778029Y-37252786D01*
X63657714Y-37418386D01*
X63657712Y-37418390D01*
X63649412Y-37434681D01*
X63644681Y-37443968D01*
X63643928Y-37445445D01*
X63600664Y-37488709D01*
X63555718Y-37499500D01*
X62094282Y-37499500D01*
X62036091Y-37480593D01*
X62006072Y-37445445D01*
X62005319Y-37443968D01*
X61992287Y-37418390D01*
X61992285Y-37418386D01*
X61871970Y-37252786D01*
X61871968Y-37252784D01*
X61871966Y-37252781D01*
X61727219Y-37108034D01*
X61727215Y-37108031D01*
X61727213Y-37108029D01*
X61561613Y-36987714D01*
X61561609Y-36987712D01*
X61379219Y-36894780D01*
X61184529Y-36831521D01*
X60982355Y-36799500D01*
X60982352Y-36799500D01*
X60777648Y-36799500D01*
X60777645Y-36799500D01*
X60575470Y-36831521D01*
X60380780Y-36894780D01*
X60198390Y-36987712D01*
X60198386Y-36987714D01*
X60032786Y-37108029D01*
X59888029Y-37252786D01*
X59767714Y-37418386D01*
X59767712Y-37418390D01*
X59674780Y-37600780D01*
X59611521Y-37795470D01*
X59579500Y-37997644D01*
X53726879Y-37997644D01*
X51860521Y-36131286D01*
X51860520Y-36131284D01*
X51748716Y-36019480D01*
X51748713Y-36019478D01*
X51621595Y-35946086D01*
X51621591Y-35946085D01*
X51611785Y-35940423D01*
X51611781Y-35940422D01*
X51611784Y-35940422D01*
X51499980Y-35910464D01*
X51459057Y-35899499D01*
X51300943Y-35899499D01*
X51294880Y-35899499D01*
X51294864Y-35899500D01*
X32658167Y-35899500D01*
X32599976Y-35880593D01*
X32571886Y-35847706D01*
X32571555Y-35847909D01*
X32570274Y-35845818D01*
X32569961Y-35845452D01*
X32569788Y-35845115D01*
X32569524Y-35844595D01*
X32453828Y-35685354D01*
X32314646Y-35546172D01*
X32155405Y-35430476D01*
X32155404Y-35430475D01*
X32155402Y-35430474D01*
X31980025Y-35341116D01*
X31792821Y-35280289D01*
X31598420Y-35249500D01*
X31598417Y-35249500D01*
X31401583Y-35249500D01*
X31401580Y-35249500D01*
X31207178Y-35280289D01*
X31019974Y-35341116D01*
X30844597Y-35430474D01*
X30685355Y-35546171D01*
X30546171Y-35685355D01*
X30430474Y-35844597D01*
X30341116Y-36019974D01*
X30280289Y-36207178D01*
X30249500Y-36401579D01*
X30249500Y-36598420D01*
X30280289Y-36792821D01*
X30341116Y-36980025D01*
X30430473Y-37155401D01*
X30430476Y-37155405D01*
X30546172Y-37314646D01*
X30685354Y-37453828D01*
X30844595Y-37569524D01*
X31019975Y-37658884D01*
X31207174Y-37719709D01*
X31207175Y-37719709D01*
X31207178Y-37719710D01*
X31401580Y-37750500D01*
X31401583Y-37750500D01*
X31598420Y-37750500D01*
X31792821Y-37719710D01*
X31792822Y-37719709D01*
X31792826Y-37719709D01*
X31980025Y-37658884D01*
X32155405Y-37569524D01*
X32314646Y-37453828D01*
X32453828Y-37314646D01*
X32569524Y-37155405D01*
X32569961Y-37154548D01*
X32570189Y-37154319D01*
X32571555Y-37152091D01*
X32572090Y-37152419D01*
X32613228Y-37111287D01*
X32658167Y-37100500D01*
X51090257Y-37100500D01*
X51148448Y-37119407D01*
X51160261Y-37129496D01*
X55777378Y-41746613D01*
X55777380Y-41746616D01*
X55889184Y-41858420D01*
X56026116Y-41937477D01*
X56137919Y-41967434D01*
X56178842Y-41978400D01*
X56178843Y-41978400D01*
X60016627Y-41978400D01*
X60074818Y-41997307D01*
X60110782Y-42046807D01*
X60110782Y-42107993D01*
X60074818Y-42157492D01*
X60074817Y-42157493D01*
X60032786Y-42188029D01*
X59888029Y-42332786D01*
X59767714Y-42498386D01*
X59767712Y-42498390D01*
X59674780Y-42680780D01*
X59611521Y-42875470D01*
X59579500Y-43077644D01*
X59579500Y-43282355D01*
X59611521Y-43484529D01*
X59642739Y-43580607D01*
X59642739Y-43641793D01*
X59606775Y-43691293D01*
X59548584Y-43710200D01*
X38878703Y-43710200D01*
X38820512Y-43691293D01*
X38784548Y-43641793D01*
X38784548Y-43580607D01*
X38798610Y-43553009D01*
X38809116Y-43538549D01*
X38869524Y-43455405D01*
X38958884Y-43280025D01*
X39019709Y-43092826D01*
X39024546Y-43062285D01*
X39050500Y-42898420D01*
X39050500Y-42701579D01*
X39019710Y-42507178D01*
X39016855Y-42498390D01*
X38958884Y-42319975D01*
X38869524Y-42144595D01*
X38753828Y-41985354D01*
X38614646Y-41846172D01*
X38455405Y-41730476D01*
X38455404Y-41730475D01*
X38455402Y-41730474D01*
X38280025Y-41641116D01*
X38092821Y-41580289D01*
X37898420Y-41549500D01*
X37898417Y-41549500D01*
X37701583Y-41549500D01*
X37701580Y-41549500D01*
X37507178Y-41580289D01*
X37319974Y-41641116D01*
X37144597Y-41730474D01*
X36985355Y-41846171D01*
X36846171Y-41985355D01*
X36730474Y-42144597D01*
X36641116Y-42319974D01*
X36580289Y-42507178D01*
X36549500Y-42701579D01*
X36549500Y-42898420D01*
X36580289Y-43092821D01*
X36641116Y-43280025D01*
X36690890Y-43377714D01*
X36730476Y-43455405D01*
X36785690Y-43531400D01*
X36801390Y-43553009D01*
X36820297Y-43611200D01*
X36801390Y-43669391D01*
X36751890Y-43705355D01*
X36721297Y-43710200D01*
X24000443Y-43710200D01*
X23942252Y-43691293D01*
X23930439Y-43681204D01*
X23443564Y-43194329D01*
X23415787Y-43139812D01*
X23419183Y-43096690D01*
X23418803Y-43096599D01*
X23419380Y-43094194D01*
X23419417Y-43093722D01*
X23419709Y-43092826D01*
X23438832Y-42972087D01*
X23450500Y-42898420D01*
X23450500Y-42701579D01*
X23419710Y-42507178D01*
X23416855Y-42498390D01*
X23358884Y-42319975D01*
X23269524Y-42144595D01*
X23153828Y-41985354D01*
X23014646Y-41846172D01*
X22855405Y-41730476D01*
X22855404Y-41730475D01*
X22855402Y-41730474D01*
X22680025Y-41641116D01*
X22492821Y-41580289D01*
X22298420Y-41549500D01*
X22298417Y-41549500D01*
X22101583Y-41549500D01*
X22101580Y-41549500D01*
X21907178Y-41580289D01*
X21719974Y-41641116D01*
X21544597Y-41730474D01*
X21385355Y-41846171D01*
X21246171Y-41985355D01*
X21130474Y-42144597D01*
X21041116Y-42319974D01*
X20980289Y-42507178D01*
X20949500Y-42701579D01*
X15500500Y-42701579D01*
X15500500Y-40897644D01*
X50319500Y-40897644D01*
X50319500Y-41102355D01*
X50351521Y-41304529D01*
X50414780Y-41499219D01*
X50507712Y-41681609D01*
X50507714Y-41681613D01*
X50628029Y-41847213D01*
X50628031Y-41847215D01*
X50628034Y-41847219D01*
X50772781Y-41991966D01*
X50772784Y-41991968D01*
X50772786Y-41991970D01*
X50938386Y-42112285D01*
X50938390Y-42112287D01*
X51120781Y-42205220D01*
X51315466Y-42268477D01*
X51315467Y-42268477D01*
X51315470Y-42268478D01*
X51517645Y-42300500D01*
X51517648Y-42300500D01*
X51722355Y-42300500D01*
X51924529Y-42268478D01*
X51924530Y-42268477D01*
X51924534Y-42268477D01*
X52119219Y-42205220D01*
X52301610Y-42112287D01*
X52467219Y-41991966D01*
X52611966Y-41847219D01*
X52732287Y-41681610D01*
X52825220Y-41499219D01*
X52888477Y-41304534D01*
X52891715Y-41284089D01*
X52920500Y-41102355D01*
X52920500Y-40897644D01*
X52888478Y-40695470D01*
X52888477Y-40695466D01*
X52825220Y-40500781D01*
X52732287Y-40318390D01*
X52732285Y-40318386D01*
X52611970Y-40152786D01*
X52611968Y-40152784D01*
X52611966Y-40152781D01*
X52467219Y-40008034D01*
X52467215Y-40008031D01*
X52467213Y-40008029D01*
X52301613Y-39887714D01*
X52301609Y-39887712D01*
X52119219Y-39794780D01*
X51924529Y-39731521D01*
X51722355Y-39699500D01*
X51722352Y-39699500D01*
X51517648Y-39699500D01*
X51517645Y-39699500D01*
X51315470Y-39731521D01*
X51120780Y-39794780D01*
X50938390Y-39887712D01*
X50938386Y-39887714D01*
X50772786Y-40008029D01*
X50628029Y-40152786D01*
X50507714Y-40318386D01*
X50507712Y-40318390D01*
X50414780Y-40500780D01*
X50351521Y-40695470D01*
X50319500Y-40897644D01*
X15500500Y-40897644D01*
X15500500Y-33897644D01*
X50319500Y-33897644D01*
X50319500Y-34102355D01*
X50351521Y-34304529D01*
X50414780Y-34499219D01*
X50507712Y-34681609D01*
X50507714Y-34681613D01*
X50628029Y-34847213D01*
X50628031Y-34847215D01*
X50628034Y-34847219D01*
X50772781Y-34991966D01*
X50772784Y-34991968D01*
X50772786Y-34991970D01*
X50938386Y-35112285D01*
X50938390Y-35112287D01*
X51120781Y-35205220D01*
X51315466Y-35268477D01*
X51315467Y-35268477D01*
X51315470Y-35268478D01*
X51517645Y-35300500D01*
X51517648Y-35300500D01*
X51722355Y-35300500D01*
X51924529Y-35268478D01*
X51924530Y-35268477D01*
X51924534Y-35268477D01*
X52119219Y-35205220D01*
X52301610Y-35112287D01*
X52467219Y-34991966D01*
X52611966Y-34847219D01*
X52614720Y-34843429D01*
X77212000Y-34843429D01*
X77212000Y-35156570D01*
X77212001Y-35156587D01*
X77247058Y-35467733D01*
X77316741Y-35773037D01*
X77420163Y-36068599D01*
X77506420Y-36247714D01*
X77556032Y-36350733D01*
X77720966Y-36613223D01*
X77722636Y-36615881D01*
X77722638Y-36615884D01*
X77917864Y-36860691D01*
X77917870Y-36860697D01*
X77917874Y-36860702D01*
X78139298Y-37082126D01*
X78139302Y-37082129D01*
X78139308Y-37082135D01*
X78384115Y-37277361D01*
X78384119Y-37277363D01*
X78384122Y-37277366D01*
X78649267Y-37443968D01*
X78931397Y-37579835D01*
X78939825Y-37582784D01*
X79226962Y-37683258D01*
X79226965Y-37683258D01*
X79226966Y-37683259D01*
X79521571Y-37750500D01*
X79532266Y-37752941D01*
X79818838Y-37785229D01*
X79843429Y-37788000D01*
X79843430Y-37788000D01*
X80156570Y-37788000D01*
X80156571Y-37788000D01*
X80213910Y-37781539D01*
X80467733Y-37752941D01*
X80467740Y-37752939D01*
X80467743Y-37752939D01*
X80773034Y-37683259D01*
X81068603Y-37579835D01*
X81350733Y-37443968D01*
X81615878Y-37277366D01*
X81772968Y-37152091D01*
X81860691Y-37082135D01*
X81860692Y-37082133D01*
X81860702Y-37082126D01*
X82082126Y-36860702D01*
X82105396Y-36831523D01*
X82199064Y-36714066D01*
X82277366Y-36615878D01*
X82443968Y-36350733D01*
X82579835Y-36068603D01*
X82683259Y-35773034D01*
X82752939Y-35467743D01*
X82752939Y-35467740D01*
X82752941Y-35467733D01*
X82781650Y-35212932D01*
X82788000Y-35156571D01*
X82788000Y-34843429D01*
X82781131Y-34782463D01*
X82752941Y-34532266D01*
X82730137Y-34432355D01*
X82683259Y-34226966D01*
X82668405Y-34184517D01*
X82579836Y-33931400D01*
X82551628Y-33872826D01*
X82443968Y-33649267D01*
X82277366Y-33384122D01*
X82277363Y-33384118D01*
X82277361Y-33384115D01*
X82082135Y-33139308D01*
X82082129Y-33139302D01*
X82082126Y-33139298D01*
X81860702Y-32917874D01*
X81860697Y-32917870D01*
X81860691Y-32917864D01*
X81615884Y-32722638D01*
X81615881Y-32722636D01*
X81615682Y-32722511D01*
X81350733Y-32556032D01*
X81307535Y-32535229D01*
X81068599Y-32420163D01*
X80773037Y-32316741D01*
X80467733Y-32247058D01*
X80156587Y-32212001D01*
X80156572Y-32212000D01*
X80156571Y-32212000D01*
X79843429Y-32212000D01*
X79843428Y-32212000D01*
X79843412Y-32212001D01*
X79532266Y-32247058D01*
X79226962Y-32316741D01*
X78931400Y-32420163D01*
X78649274Y-32556028D01*
X78649268Y-32556031D01*
X78649267Y-32556032D01*
X78607791Y-32582093D01*
X78384118Y-32722636D01*
X78384115Y-32722638D01*
X78139308Y-32917864D01*
X77917864Y-33139308D01*
X77722638Y-33384115D01*
X77722636Y-33384118D01*
X77661395Y-33481583D01*
X77562228Y-33639407D01*
X77556031Y-33649269D01*
X77556028Y-33649274D01*
X77420163Y-33931400D01*
X77316741Y-34226962D01*
X77247058Y-34532266D01*
X77212001Y-34843412D01*
X77212000Y-34843429D01*
X52614720Y-34843429D01*
X52732287Y-34681610D01*
X52825220Y-34499219D01*
X52888477Y-34304534D01*
X52900655Y-34227648D01*
X52920500Y-34102355D01*
X52920500Y-33897644D01*
X52888478Y-33695470D01*
X52882938Y-33678420D01*
X52825220Y-33500781D01*
X52732287Y-33318390D01*
X52732285Y-33318386D01*
X52611970Y-33152786D01*
X52611968Y-33152784D01*
X52611966Y-33152781D01*
X52467219Y-33008034D01*
X52467215Y-33008031D01*
X52467213Y-33008029D01*
X52447698Y-32993851D01*
X52342808Y-32917644D01*
X59579500Y-32917644D01*
X59579500Y-33122355D01*
X59611521Y-33324529D01*
X59674780Y-33519219D01*
X59767712Y-33701609D01*
X59767714Y-33701613D01*
X59888029Y-33867213D01*
X59888031Y-33867215D01*
X59888034Y-33867219D01*
X60032781Y-34011966D01*
X60032784Y-34011968D01*
X60032786Y-34011970D01*
X60198386Y-34132285D01*
X60198390Y-34132287D01*
X60380781Y-34225220D01*
X60575466Y-34288477D01*
X60575467Y-34288477D01*
X60575470Y-34288478D01*
X60777645Y-34320500D01*
X60777648Y-34320500D01*
X60982355Y-34320500D01*
X61184529Y-34288478D01*
X61184530Y-34288477D01*
X61184534Y-34288477D01*
X61379219Y-34225220D01*
X61561610Y-34132287D01*
X61608507Y-34098215D01*
X61640044Y-34075302D01*
X61727219Y-34011966D01*
X61871966Y-33867219D01*
X61952180Y-33756813D01*
X61992285Y-33701613D01*
X61992287Y-33701610D01*
X62006072Y-33674554D01*
X62049336Y-33631291D01*
X62094282Y-33620500D01*
X63555718Y-33620500D01*
X63613909Y-33639407D01*
X63643927Y-33674554D01*
X63645896Y-33678418D01*
X63657712Y-33701609D01*
X63657714Y-33701613D01*
X63778029Y-33867213D01*
X63778031Y-33867215D01*
X63778034Y-33867219D01*
X63922781Y-34011966D01*
X63922784Y-34011968D01*
X63922786Y-34011970D01*
X64088386Y-34132285D01*
X64088390Y-34132287D01*
X64270781Y-34225220D01*
X64465466Y-34288477D01*
X64465467Y-34288477D01*
X64465470Y-34288478D01*
X64667645Y-34320500D01*
X64667648Y-34320500D01*
X64872355Y-34320500D01*
X65074529Y-34288478D01*
X65074530Y-34288477D01*
X65074534Y-34288477D01*
X65269219Y-34225220D01*
X65451610Y-34132287D01*
X65498507Y-34098215D01*
X65530044Y-34075302D01*
X65617219Y-34011966D01*
X65761966Y-33867219D01*
X65842180Y-33756813D01*
X65882285Y-33701613D01*
X65882287Y-33701610D01*
X65975220Y-33519219D01*
X66038477Y-33324534D01*
X66044394Y-33287176D01*
X66070500Y-33122355D01*
X66070500Y-32917644D01*
X71089500Y-32917644D01*
X71089500Y-33122355D01*
X71121521Y-33324529D01*
X71184780Y-33519219D01*
X71277712Y-33701609D01*
X71277714Y-33701613D01*
X71398029Y-33867213D01*
X71398031Y-33867215D01*
X71398034Y-33867219D01*
X71542781Y-34011966D01*
X71542784Y-34011968D01*
X71542786Y-34011970D01*
X71708386Y-34132285D01*
X71708390Y-34132287D01*
X71890781Y-34225220D01*
X72085466Y-34288477D01*
X72085467Y-34288477D01*
X72085470Y-34288478D01*
X72287645Y-34320500D01*
X72287648Y-34320500D01*
X72492355Y-34320500D01*
X72694529Y-34288478D01*
X72694530Y-34288477D01*
X72694534Y-34288477D01*
X72889219Y-34225220D01*
X73071610Y-34132287D01*
X73118507Y-34098215D01*
X73150044Y-34075302D01*
X73237219Y-34011966D01*
X73381966Y-33867219D01*
X73462180Y-33756813D01*
X73502285Y-33701613D01*
X73502287Y-33701610D01*
X73595220Y-33519219D01*
X73658477Y-33324534D01*
X73664394Y-33287176D01*
X73690500Y-33122355D01*
X73690500Y-32917644D01*
X73658478Y-32715470D01*
X73650596Y-32691211D01*
X73595220Y-32520781D01*
X73502287Y-32338390D01*
X73502285Y-32338386D01*
X73381970Y-32172786D01*
X73381968Y-32172784D01*
X73381966Y-32172781D01*
X73237219Y-32028034D01*
X73237215Y-32028031D01*
X73237213Y-32028029D01*
X73071613Y-31907714D01*
X73071609Y-31907712D01*
X72889219Y-31814780D01*
X72694529Y-31751521D01*
X72492355Y-31719500D01*
X72492352Y-31719500D01*
X72287648Y-31719500D01*
X72287645Y-31719500D01*
X72085470Y-31751521D01*
X71890780Y-31814780D01*
X71708390Y-31907712D01*
X71708386Y-31907714D01*
X71542786Y-32028029D01*
X71398029Y-32172786D01*
X71277714Y-32338386D01*
X71277712Y-32338390D01*
X71184780Y-32520780D01*
X71121521Y-32715470D01*
X71089500Y-32917644D01*
X66070500Y-32917644D01*
X66038478Y-32715470D01*
X66030596Y-32691211D01*
X65975220Y-32520781D01*
X65882287Y-32338390D01*
X65882285Y-32338386D01*
X65761970Y-32172786D01*
X65761968Y-32172784D01*
X65761966Y-32172781D01*
X65617219Y-32028034D01*
X65617215Y-32028031D01*
X65617213Y-32028029D01*
X65451613Y-31907714D01*
X65451609Y-31907712D01*
X65269219Y-31814780D01*
X65074529Y-31751521D01*
X64872355Y-31719500D01*
X64872352Y-31719500D01*
X64667648Y-31719500D01*
X64667645Y-31719500D01*
X64465470Y-31751521D01*
X64270780Y-31814780D01*
X64088390Y-31907712D01*
X64088386Y-31907714D01*
X63922786Y-32028029D01*
X63778029Y-32172786D01*
X63657714Y-32338386D01*
X63657712Y-32338390D01*
X63647436Y-32358559D01*
X63644557Y-32364211D01*
X63643928Y-32365445D01*
X63600664Y-32408709D01*
X63555718Y-32419500D01*
X62094282Y-32419500D01*
X62036091Y-32400593D01*
X62006072Y-32365445D01*
X62005443Y-32364211D01*
X61992287Y-32338390D01*
X61992285Y-32338386D01*
X61871970Y-32172786D01*
X61871968Y-32172784D01*
X61871966Y-32172781D01*
X61727219Y-32028034D01*
X61727215Y-32028031D01*
X61727213Y-32028029D01*
X61561613Y-31907714D01*
X61561609Y-31907712D01*
X61379219Y-31814780D01*
X61184529Y-31751521D01*
X60982355Y-31719500D01*
X60982352Y-31719500D01*
X60777648Y-31719500D01*
X60777645Y-31719500D01*
X60575470Y-31751521D01*
X60380780Y-31814780D01*
X60198390Y-31907712D01*
X60198386Y-31907714D01*
X60032786Y-32028029D01*
X59888029Y-32172786D01*
X59767714Y-32338386D01*
X59767712Y-32338390D01*
X59674780Y-32520780D01*
X59611521Y-32715470D01*
X59579500Y-32917644D01*
X52342808Y-32917644D01*
X52301613Y-32887714D01*
X52301609Y-32887712D01*
X52119219Y-32794780D01*
X51924529Y-32731521D01*
X51722355Y-32699500D01*
X51722352Y-32699500D01*
X51517648Y-32699500D01*
X51517645Y-32699500D01*
X51315470Y-32731521D01*
X51120780Y-32794780D01*
X50938390Y-32887712D01*
X50938386Y-32887714D01*
X50772786Y-33008029D01*
X50628029Y-33152786D01*
X50507714Y-33318386D01*
X50507712Y-33318390D01*
X50414780Y-33500780D01*
X50351521Y-33695470D01*
X50319500Y-33897644D01*
X15500500Y-33897644D01*
X15500500Y-30040129D01*
X19427500Y-30040129D01*
X19427500Y-31935866D01*
X19427501Y-31935870D01*
X19433908Y-31995480D01*
X19433909Y-31995485D01*
X19484202Y-32130329D01*
X19570450Y-32245541D01*
X19570454Y-32245546D01*
X19570457Y-32245548D01*
X19570458Y-32245549D01*
X19685670Y-32331797D01*
X19820511Y-32382089D01*
X19820512Y-32382089D01*
X19820517Y-32382091D01*
X19880127Y-32388500D01*
X21775872Y-32388499D01*
X21835483Y-32382091D01*
X21952652Y-32338390D01*
X21970329Y-32331797D01*
X21970329Y-32331796D01*
X21970331Y-32331796D01*
X22085546Y-32245546D01*
X22171796Y-32130331D01*
X22215195Y-32013969D01*
X22253245Y-31966056D01*
X22312192Y-31949658D01*
X22369519Y-31971039D01*
X22377947Y-31978554D01*
X22455635Y-32056242D01*
X22633978Y-32185815D01*
X22830394Y-32285895D01*
X23040049Y-32354015D01*
X23085401Y-32361198D01*
X23257775Y-32388500D01*
X23257778Y-32388500D01*
X23478225Y-32388500D01*
X23587086Y-32371257D01*
X23695951Y-32354015D01*
X23905606Y-32285895D01*
X24102022Y-32185815D01*
X24280365Y-32056242D01*
X24436242Y-31900365D01*
X24565815Y-31722022D01*
X24574290Y-31705388D01*
X24617552Y-31662124D01*
X24677983Y-31652550D01*
X24732501Y-31680326D01*
X24760281Y-31734841D01*
X24761500Y-31750331D01*
X24761500Y-31935866D01*
X24761501Y-31935870D01*
X24767908Y-31995480D01*
X24767909Y-31995485D01*
X24818202Y-32130329D01*
X24904450Y-32245541D01*
X24904454Y-32245546D01*
X24904457Y-32245548D01*
X24904458Y-32245549D01*
X25019670Y-32331797D01*
X25154511Y-32382089D01*
X25154512Y-32382089D01*
X25154517Y-32382091D01*
X25214127Y-32388500D01*
X27109872Y-32388499D01*
X27169483Y-32382091D01*
X27286652Y-32338390D01*
X27304329Y-32331797D01*
X27304329Y-32331796D01*
X27304331Y-32331796D01*
X27419546Y-32245546D01*
X27505796Y-32130331D01*
X27549195Y-32013969D01*
X27587245Y-31966056D01*
X27646192Y-31949658D01*
X27703519Y-31971039D01*
X27711947Y-31978554D01*
X27789635Y-32056242D01*
X27967978Y-32185815D01*
X28164394Y-32285895D01*
X28374049Y-32354015D01*
X28419401Y-32361198D01*
X28591775Y-32388500D01*
X28591778Y-32388500D01*
X28812225Y-32388500D01*
X28921086Y-32371257D01*
X29029951Y-32354015D01*
X29239606Y-32285895D01*
X29436022Y-32185815D01*
X29614365Y-32056242D01*
X29770242Y-31900365D01*
X29899815Y-31722022D01*
X29908290Y-31705388D01*
X29951552Y-31662124D01*
X30011983Y-31652550D01*
X30066501Y-31680326D01*
X30094281Y-31734841D01*
X30095500Y-31750331D01*
X30095500Y-31935866D01*
X30095501Y-31935870D01*
X30101908Y-31995480D01*
X30101909Y-31995485D01*
X30152202Y-32130329D01*
X30238450Y-32245541D01*
X30238454Y-32245546D01*
X30238457Y-32245548D01*
X30238458Y-32245549D01*
X30353670Y-32331797D01*
X30488511Y-32382089D01*
X30488512Y-32382089D01*
X30488517Y-32382091D01*
X30548127Y-32388500D01*
X32443872Y-32388499D01*
X32503483Y-32382091D01*
X32620652Y-32338390D01*
X32638329Y-32331797D01*
X32638329Y-32331796D01*
X32638331Y-32331796D01*
X32753546Y-32245546D01*
X32839796Y-32130331D01*
X32883195Y-32013969D01*
X32921245Y-31966056D01*
X32980192Y-31949658D01*
X33037519Y-31971039D01*
X33045947Y-31978554D01*
X33123635Y-32056242D01*
X33301978Y-32185815D01*
X33498394Y-32285895D01*
X33708049Y-32354015D01*
X33753401Y-32361198D01*
X33925775Y-32388500D01*
X33925778Y-32388500D01*
X34146225Y-32388500D01*
X34255086Y-32371257D01*
X34363951Y-32354015D01*
X34573606Y-32285895D01*
X34770022Y-32185815D01*
X34948365Y-32056242D01*
X35104242Y-31900365D01*
X35233815Y-31722022D01*
X35242290Y-31705388D01*
X35285552Y-31662124D01*
X35345983Y-31652550D01*
X35400501Y-31680326D01*
X35428281Y-31734841D01*
X35429500Y-31750331D01*
X35429500Y-31935866D01*
X35429501Y-31935870D01*
X35435908Y-31995480D01*
X35435909Y-31995485D01*
X35486202Y-32130329D01*
X35572450Y-32245541D01*
X35572454Y-32245546D01*
X35572457Y-32245548D01*
X35572458Y-32245549D01*
X35687670Y-32331797D01*
X35822511Y-32382089D01*
X35822512Y-32382089D01*
X35822517Y-32382091D01*
X35882127Y-32388500D01*
X37777872Y-32388499D01*
X37837483Y-32382091D01*
X37954652Y-32338390D01*
X37972329Y-32331797D01*
X37972329Y-32331796D01*
X37972331Y-32331796D01*
X38087546Y-32245546D01*
X38173796Y-32130331D01*
X38217195Y-32013969D01*
X38255245Y-31966056D01*
X38314192Y-31949658D01*
X38371519Y-31971039D01*
X38379947Y-31978554D01*
X38457635Y-32056242D01*
X38635978Y-32185815D01*
X38832394Y-32285895D01*
X39042049Y-32354015D01*
X39087401Y-32361198D01*
X39259775Y-32388500D01*
X39259778Y-32388500D01*
X39480225Y-32388500D01*
X39589086Y-32371257D01*
X39697951Y-32354015D01*
X39907606Y-32285895D01*
X40104022Y-32185815D01*
X40282365Y-32056242D01*
X40438242Y-31900365D01*
X40567815Y-31722022D01*
X40667895Y-31525606D01*
X40736015Y-31315951D01*
X40762379Y-31149496D01*
X40770500Y-31098225D01*
X40770500Y-30877774D01*
X40736015Y-30660051D01*
X40736015Y-30660049D01*
X40667895Y-30450394D01*
X40567815Y-30253978D01*
X40438242Y-30075635D01*
X40282365Y-29919758D01*
X40104022Y-29790185D01*
X40104021Y-29790184D01*
X40104019Y-29790183D01*
X39986802Y-29730458D01*
X39907606Y-29690105D01*
X39907602Y-29690104D01*
X39907599Y-29690102D01*
X39697948Y-29621984D01*
X39480225Y-29587500D01*
X39480222Y-29587500D01*
X39259778Y-29587500D01*
X39259775Y-29587500D01*
X39042051Y-29621984D01*
X38832400Y-29690102D01*
X38635980Y-29790183D01*
X38559610Y-29845669D01*
X38457635Y-29919758D01*
X38457633Y-29919759D01*
X38457630Y-29919762D01*
X38379956Y-29997436D01*
X38325439Y-30025213D01*
X38265007Y-30015641D01*
X38221743Y-29972377D01*
X38217195Y-29962028D01*
X38173797Y-29845670D01*
X38087549Y-29730458D01*
X38087548Y-29730457D01*
X38087546Y-29730454D01*
X38064988Y-29713567D01*
X37972329Y-29644202D01*
X37837488Y-29593910D01*
X37837483Y-29593909D01*
X37837481Y-29593908D01*
X37837477Y-29593908D01*
X37806249Y-29590550D01*
X37777873Y-29587500D01*
X37777870Y-29587500D01*
X35882133Y-29587500D01*
X35882129Y-29587500D01*
X35882128Y-29587501D01*
X35874949Y-29588272D01*
X35822519Y-29593908D01*
X35822514Y-29593909D01*
X35687670Y-29644202D01*
X35572458Y-29730450D01*
X35572450Y-29730458D01*
X35486202Y-29845670D01*
X35435910Y-29980511D01*
X35435909Y-29980517D01*
X35431104Y-30025213D01*
X35429500Y-30040129D01*
X35429500Y-30225666D01*
X35410593Y-30283857D01*
X35361093Y-30319821D01*
X35299907Y-30319821D01*
X35250407Y-30283857D01*
X35242290Y-30270611D01*
X35233816Y-30253980D01*
X35213245Y-30225666D01*
X35104242Y-30075635D01*
X34948365Y-29919758D01*
X34770022Y-29790185D01*
X34770021Y-29790184D01*
X34770019Y-29790183D01*
X34652802Y-29730458D01*
X34573606Y-29690105D01*
X34573602Y-29690104D01*
X34573599Y-29690102D01*
X34363948Y-29621984D01*
X34146225Y-29587500D01*
X34146222Y-29587500D01*
X33925778Y-29587500D01*
X33925775Y-29587500D01*
X33708051Y-29621984D01*
X33498400Y-29690102D01*
X33301980Y-29790183D01*
X33225610Y-29845669D01*
X33123635Y-29919758D01*
X33123633Y-29919759D01*
X33123630Y-29919762D01*
X33045956Y-29997436D01*
X32991439Y-30025213D01*
X32931007Y-30015641D01*
X32887743Y-29972377D01*
X32883195Y-29962028D01*
X32839797Y-29845670D01*
X32753549Y-29730458D01*
X32753548Y-29730457D01*
X32753546Y-29730454D01*
X32730988Y-29713567D01*
X32638329Y-29644202D01*
X32503488Y-29593910D01*
X32503483Y-29593909D01*
X32503481Y-29593908D01*
X32503477Y-29593908D01*
X32472249Y-29590550D01*
X32443873Y-29587500D01*
X32443870Y-29587500D01*
X30548133Y-29587500D01*
X30548129Y-29587500D01*
X30548128Y-29587501D01*
X30540949Y-29588272D01*
X30488519Y-29593908D01*
X30488514Y-29593909D01*
X30353670Y-29644202D01*
X30238458Y-29730450D01*
X30238450Y-29730458D01*
X30152202Y-29845670D01*
X30101910Y-29980511D01*
X30101909Y-29980517D01*
X30097104Y-30025213D01*
X30095500Y-30040129D01*
X30095500Y-30225666D01*
X30076593Y-30283857D01*
X30027093Y-30319821D01*
X29965907Y-30319821D01*
X29916407Y-30283857D01*
X29908290Y-30270611D01*
X29899816Y-30253980D01*
X29879245Y-30225666D01*
X29770242Y-30075635D01*
X29614365Y-29919758D01*
X29436022Y-29790185D01*
X29436021Y-29790184D01*
X29436019Y-29790183D01*
X29318802Y-29730458D01*
X29239606Y-29690105D01*
X29239602Y-29690104D01*
X29239599Y-29690102D01*
X29029948Y-29621984D01*
X28812225Y-29587500D01*
X28812222Y-29587500D01*
X28591778Y-29587500D01*
X28591775Y-29587500D01*
X28374051Y-29621984D01*
X28164400Y-29690102D01*
X27967980Y-29790183D01*
X27891610Y-29845669D01*
X27789635Y-29919758D01*
X27789633Y-29919759D01*
X27789630Y-29919762D01*
X27711956Y-29997436D01*
X27657439Y-30025213D01*
X27597007Y-30015641D01*
X27553743Y-29972377D01*
X27549195Y-29962028D01*
X27505797Y-29845670D01*
X27419549Y-29730458D01*
X27419548Y-29730457D01*
X27419546Y-29730454D01*
X27396988Y-29713567D01*
X27304329Y-29644202D01*
X27169488Y-29593910D01*
X27169483Y-29593909D01*
X27169481Y-29593908D01*
X27169477Y-29593908D01*
X27138249Y-29590550D01*
X27109873Y-29587500D01*
X27109870Y-29587500D01*
X25214133Y-29587500D01*
X25214129Y-29587500D01*
X25214128Y-29587501D01*
X25206949Y-29588272D01*
X25154519Y-29593908D01*
X25154514Y-29593909D01*
X25019670Y-29644202D01*
X24904458Y-29730450D01*
X24904450Y-29730458D01*
X24818202Y-29845670D01*
X24767910Y-29980511D01*
X24767909Y-29980517D01*
X24763104Y-30025213D01*
X24761500Y-30040129D01*
X24761500Y-30225666D01*
X24742593Y-30283857D01*
X24693093Y-30319821D01*
X24631907Y-30319821D01*
X24582407Y-30283857D01*
X24574290Y-30270611D01*
X24565816Y-30253980D01*
X24545245Y-30225666D01*
X24436242Y-30075635D01*
X24280365Y-29919758D01*
X24102022Y-29790185D01*
X24102021Y-29790184D01*
X24102019Y-29790183D01*
X23984802Y-29730458D01*
X23905606Y-29690105D01*
X23905602Y-29690104D01*
X23905599Y-29690102D01*
X23695948Y-29621984D01*
X23478225Y-29587500D01*
X23478222Y-29587500D01*
X23257778Y-29587500D01*
X23257775Y-29587500D01*
X23040051Y-29621984D01*
X22830400Y-29690102D01*
X22633980Y-29790183D01*
X22557610Y-29845669D01*
X22455635Y-29919758D01*
X22455633Y-29919759D01*
X22455630Y-29919762D01*
X22377956Y-29997436D01*
X22323439Y-30025213D01*
X22263007Y-30015641D01*
X22219743Y-29972377D01*
X22215195Y-29962028D01*
X22171797Y-29845670D01*
X22085549Y-29730458D01*
X22085548Y-29730457D01*
X22085546Y-29730454D01*
X22062988Y-29713567D01*
X21970329Y-29644202D01*
X21835488Y-29593910D01*
X21835483Y-29593909D01*
X21835481Y-29593908D01*
X21835477Y-29593908D01*
X21804249Y-29590550D01*
X21775873Y-29587500D01*
X21775870Y-29587500D01*
X19880133Y-29587500D01*
X19880129Y-29587500D01*
X19880128Y-29587501D01*
X19872949Y-29588272D01*
X19820519Y-29593908D01*
X19820514Y-29593909D01*
X19685670Y-29644202D01*
X19570458Y-29730450D01*
X19570450Y-29730458D01*
X19484202Y-29845670D01*
X19433910Y-29980511D01*
X19433909Y-29980517D01*
X19429104Y-30025213D01*
X19427500Y-30040129D01*
X15500500Y-30040129D01*
X15500500Y-26897644D01*
X50319500Y-26897644D01*
X50319500Y-27102355D01*
X50351521Y-27304529D01*
X50414780Y-27499219D01*
X50507712Y-27681609D01*
X50507714Y-27681613D01*
X50628029Y-27847213D01*
X50628031Y-27847215D01*
X50628034Y-27847219D01*
X50772781Y-27991966D01*
X50772784Y-27991968D01*
X50772786Y-27991970D01*
X50938386Y-28112285D01*
X50938390Y-28112287D01*
X51120781Y-28205220D01*
X51315466Y-28268477D01*
X51315467Y-28268477D01*
X51315470Y-28268478D01*
X51517645Y-28300500D01*
X51517648Y-28300500D01*
X51722355Y-28300500D01*
X51924529Y-28268478D01*
X51924530Y-28268477D01*
X51924534Y-28268477D01*
X52119219Y-28205220D01*
X52301610Y-28112287D01*
X52467219Y-27991966D01*
X52611966Y-27847219D01*
X52618923Y-27837644D01*
X59579500Y-27837644D01*
X59579500Y-28042355D01*
X59611521Y-28244529D01*
X59674780Y-28439219D01*
X59767712Y-28621609D01*
X59767714Y-28621613D01*
X59888029Y-28787213D01*
X59888031Y-28787215D01*
X59888034Y-28787219D01*
X60032781Y-28931966D01*
X60032784Y-28931968D01*
X60032786Y-28931970D01*
X60198386Y-29052285D01*
X60198390Y-29052287D01*
X60380781Y-29145220D01*
X60575466Y-29208477D01*
X60575467Y-29208477D01*
X60575470Y-29208478D01*
X60777645Y-29240500D01*
X60777648Y-29240500D01*
X60982355Y-29240500D01*
X61184529Y-29208478D01*
X61184530Y-29208477D01*
X61184534Y-29208477D01*
X61379219Y-29145220D01*
X61561610Y-29052287D01*
X61727219Y-28931966D01*
X61871966Y-28787219D01*
X61992287Y-28621610D01*
X62006072Y-28594554D01*
X62049336Y-28551291D01*
X62094282Y-28540500D01*
X63555718Y-28540500D01*
X63613909Y-28559407D01*
X63643928Y-28594555D01*
X63657712Y-28621609D01*
X63657714Y-28621613D01*
X63778029Y-28787213D01*
X63778031Y-28787215D01*
X63778034Y-28787219D01*
X63922781Y-28931966D01*
X63922784Y-28931968D01*
X63922786Y-28931970D01*
X64088386Y-29052285D01*
X64088390Y-29052287D01*
X64270781Y-29145220D01*
X64465466Y-29208477D01*
X64465467Y-29208477D01*
X64465470Y-29208478D01*
X64667645Y-29240500D01*
X64667648Y-29240500D01*
X64872355Y-29240500D01*
X65074529Y-29208478D01*
X65074530Y-29208477D01*
X65074534Y-29208477D01*
X65269219Y-29145220D01*
X65451610Y-29052287D01*
X65617219Y-28931966D01*
X65761966Y-28787219D01*
X65882287Y-28621610D01*
X65975220Y-28439219D01*
X66038477Y-28244534D01*
X66044704Y-28205219D01*
X66070500Y-28042355D01*
X66070500Y-27837644D01*
X71089500Y-27837644D01*
X71089500Y-28042355D01*
X71121521Y-28244529D01*
X71184780Y-28439219D01*
X71277712Y-28621609D01*
X71277714Y-28621613D01*
X71398029Y-28787213D01*
X71398031Y-28787215D01*
X71398034Y-28787219D01*
X71542781Y-28931966D01*
X71542784Y-28931968D01*
X71542786Y-28931970D01*
X71708386Y-29052285D01*
X71708390Y-29052287D01*
X71890781Y-29145220D01*
X72085466Y-29208477D01*
X72085467Y-29208477D01*
X72085470Y-29208478D01*
X72287645Y-29240500D01*
X72287648Y-29240500D01*
X72492355Y-29240500D01*
X72694529Y-29208478D01*
X72694530Y-29208477D01*
X72694534Y-29208477D01*
X72889219Y-29145220D01*
X73071610Y-29052287D01*
X73237219Y-28931966D01*
X73381966Y-28787219D01*
X73502287Y-28621610D01*
X73595220Y-28439219D01*
X73658477Y-28244534D01*
X73664704Y-28205219D01*
X73690500Y-28042355D01*
X73690500Y-27837644D01*
X73658478Y-27635470D01*
X73650620Y-27611286D01*
X73595220Y-27440781D01*
X73502287Y-27258390D01*
X73502285Y-27258386D01*
X73381970Y-27092786D01*
X73381968Y-27092784D01*
X73381966Y-27092781D01*
X73237219Y-26948034D01*
X73237215Y-26948031D01*
X73237213Y-26948029D01*
X73071613Y-26827714D01*
X73071609Y-26827712D01*
X72889219Y-26734780D01*
X72694529Y-26671521D01*
X72492355Y-26639500D01*
X72492352Y-26639500D01*
X72287648Y-26639500D01*
X72287645Y-26639500D01*
X72085470Y-26671521D01*
X71890780Y-26734780D01*
X71708390Y-26827712D01*
X71708386Y-26827714D01*
X71542786Y-26948029D01*
X71398029Y-27092786D01*
X71277714Y-27258386D01*
X71277712Y-27258390D01*
X71184780Y-27440780D01*
X71121521Y-27635470D01*
X71089500Y-27837644D01*
X66070500Y-27837644D01*
X66038478Y-27635470D01*
X66030620Y-27611286D01*
X65975220Y-27440781D01*
X65882287Y-27258390D01*
X65882285Y-27258386D01*
X65761970Y-27092786D01*
X65761968Y-27092784D01*
X65761966Y-27092781D01*
X65617219Y-26948034D01*
X65617215Y-26948031D01*
X65617213Y-26948029D01*
X65451613Y-26827714D01*
X65451609Y-26827712D01*
X65269219Y-26734780D01*
X65074529Y-26671521D01*
X64872355Y-26639500D01*
X64872352Y-26639500D01*
X64667648Y-26639500D01*
X64667645Y-26639500D01*
X64465470Y-26671521D01*
X64270780Y-26734780D01*
X64088390Y-26827712D01*
X64088386Y-26827714D01*
X63922786Y-26948029D01*
X63778029Y-27092786D01*
X63657714Y-27258386D01*
X63657712Y-27258390D01*
X63643928Y-27285445D01*
X63600664Y-27328709D01*
X63555718Y-27339500D01*
X62094282Y-27339500D01*
X62036091Y-27320593D01*
X62006072Y-27285445D01*
X61992287Y-27258390D01*
X61992285Y-27258386D01*
X61871970Y-27092786D01*
X61871968Y-27092784D01*
X61871966Y-27092781D01*
X61727219Y-26948034D01*
X61727215Y-26948031D01*
X61727213Y-26948029D01*
X61561613Y-26827714D01*
X61561609Y-26827712D01*
X61379219Y-26734780D01*
X61184529Y-26671521D01*
X60982355Y-26639500D01*
X60982352Y-26639500D01*
X60777648Y-26639500D01*
X60777645Y-26639500D01*
X60575470Y-26671521D01*
X60380780Y-26734780D01*
X60198390Y-26827712D01*
X60198386Y-26827714D01*
X60032786Y-26948029D01*
X59888029Y-27092786D01*
X59767714Y-27258386D01*
X59767712Y-27258390D01*
X59674780Y-27440780D01*
X59611521Y-27635470D01*
X59579500Y-27837644D01*
X52618923Y-27837644D01*
X52732287Y-27681610D01*
X52825220Y-27499219D01*
X52888477Y-27304534D01*
X52888563Y-27303992D01*
X52920500Y-27102355D01*
X52920500Y-26897644D01*
X52888478Y-26695470D01*
X52880697Y-26671523D01*
X52825220Y-26500781D01*
X52732287Y-26318390D01*
X52732285Y-26318386D01*
X52611970Y-26152786D01*
X52611968Y-26152784D01*
X52611966Y-26152781D01*
X52467219Y-26008034D01*
X52467215Y-26008031D01*
X52467213Y-26008029D01*
X52301613Y-25887714D01*
X52301609Y-25887712D01*
X52119219Y-25794780D01*
X51924529Y-25731521D01*
X51722355Y-25699500D01*
X51722352Y-25699500D01*
X51517648Y-25699500D01*
X51517645Y-25699500D01*
X51315470Y-25731521D01*
X51120780Y-25794780D01*
X50938390Y-25887712D01*
X50938386Y-25887714D01*
X50772786Y-26008029D01*
X50628029Y-26152786D01*
X50507714Y-26318386D01*
X50507712Y-26318390D01*
X50414780Y-26500780D01*
X50351521Y-26695470D01*
X50319500Y-26897644D01*
X15500500Y-26897644D01*
X15500500Y-22735265D01*
X43089500Y-22735265D01*
X43089500Y-22964734D01*
X43119452Y-23192238D01*
X43178841Y-23413885D01*
X43266653Y-23625883D01*
X43381388Y-23824611D01*
X43489010Y-23964865D01*
X43521081Y-24006661D01*
X43683339Y-24168919D01*
X43865388Y-24308611D01*
X44064112Y-24423344D01*
X44064113Y-24423344D01*
X44064116Y-24423346D01*
X44160167Y-24463131D01*
X44276113Y-24511158D01*
X44497762Y-24570548D01*
X44725266Y-24600500D01*
X44725267Y-24600500D01*
X44954733Y-24600500D01*
X44954734Y-24600500D01*
X45182238Y-24570548D01*
X45403887Y-24511158D01*
X45615888Y-24423344D01*
X45814612Y-24308611D01*
X45996661Y-24168919D01*
X46158919Y-24006661D01*
X46298611Y-23824612D01*
X46413344Y-23625888D01*
X46501158Y-23413887D01*
X46560548Y-23192238D01*
X46590500Y-22964734D01*
X46590500Y-22735266D01*
X46560548Y-22507762D01*
X46501158Y-22286113D01*
X46413344Y-22074112D01*
X46298611Y-21875388D01*
X46158919Y-21693339D01*
X45996661Y-21531081D01*
X45814612Y-21391389D01*
X45814613Y-21391389D01*
X45814611Y-21391388D01*
X45615883Y-21276653D01*
X45403885Y-21188841D01*
X45182238Y-21129452D01*
X44954734Y-21099500D01*
X44725266Y-21099500D01*
X44725265Y-21099500D01*
X44497761Y-21129452D01*
X44276114Y-21188841D01*
X44064116Y-21276653D01*
X43865388Y-21391388D01*
X43683342Y-21531078D01*
X43521078Y-21693342D01*
X43381388Y-21875388D01*
X43266653Y-22074116D01*
X43178841Y-22286114D01*
X43119452Y-22507761D01*
X43089500Y-22735265D01*
X15500500Y-22735265D01*
X15500500Y-18420710D01*
X16691500Y-18420710D01*
X16691500Y-18663289D01*
X16723161Y-18903781D01*
X16723161Y-18903786D01*
X16785944Y-19138092D01*
X16785948Y-19138105D01*
X16878772Y-19362204D01*
X16878774Y-19362208D01*
X16878776Y-19362212D01*
X17000064Y-19572289D01*
X17000066Y-19572292D01*
X17147729Y-19764731D01*
X17147731Y-19764733D01*
X17147735Y-19764738D01*
X17319262Y-19936265D01*
X17319266Y-19936268D01*
X17319268Y-19936270D01*
X17320497Y-19937213D01*
X17511711Y-20083936D01*
X17721788Y-20205224D01*
X17945900Y-20298054D01*
X18180211Y-20360838D01*
X18420712Y-20392500D01*
X18420713Y-20392500D01*
X18663287Y-20392500D01*
X18663288Y-20392500D01*
X18903789Y-20360838D01*
X19138100Y-20298054D01*
X19362212Y-20205224D01*
X19572289Y-20083936D01*
X19764738Y-19936265D01*
X19936265Y-19764738D01*
X20083936Y-19572289D01*
X20205224Y-19362212D01*
X20298054Y-19138100D01*
X20360838Y-18903789D01*
X20392500Y-18663288D01*
X20392500Y-18420712D01*
X20360838Y-18180211D01*
X20298054Y-17945900D01*
X20205224Y-17721788D01*
X20083936Y-17511711D01*
X20019386Y-17427587D01*
X22121500Y-17427587D01*
X22121500Y-17663778D01*
X22158445Y-17897046D01*
X22231432Y-18121675D01*
X22328627Y-18312432D01*
X22338657Y-18332116D01*
X22477483Y-18523193D01*
X22644490Y-18690200D01*
X22835567Y-18829026D01*
X23046008Y-18936251D01*
X23270632Y-19009236D01*
X23270633Y-19009236D01*
X23270636Y-19009237D01*
X23503905Y-19046183D01*
X23503908Y-19046183D01*
X23740095Y-19046183D01*
X23973363Y-19009237D01*
X23973364Y-19009236D01*
X23973368Y-19009236D01*
X24197992Y-18936251D01*
X24408433Y-18829026D01*
X24599510Y-18690200D01*
X24766517Y-18523193D01*
X24905343Y-18332116D01*
X25012568Y-18121675D01*
X25085553Y-17897051D01*
X25087497Y-17884780D01*
X25122500Y-17663778D01*
X25122500Y-17427587D01*
X25085554Y-17194319D01*
X25079159Y-17174636D01*
X25012568Y-16969691D01*
X24905343Y-16759250D01*
X24766517Y-16568173D01*
X24599510Y-16401166D01*
X24408433Y-16262340D01*
X24408432Y-16262339D01*
X24408430Y-16262338D01*
X24197992Y-16155115D01*
X23973363Y-16082128D01*
X23740095Y-16045183D01*
X23740092Y-16045183D01*
X23503908Y-16045183D01*
X23503905Y-16045183D01*
X23270636Y-16082128D01*
X23046007Y-16155115D01*
X22835569Y-16262338D01*
X22644491Y-16401165D01*
X22477482Y-16568174D01*
X22338655Y-16759252D01*
X22231432Y-16969690D01*
X22158445Y-17194319D01*
X22121500Y-17427587D01*
X20019386Y-17427587D01*
X19936265Y-17319262D01*
X19764738Y-17147735D01*
X19764733Y-17147731D01*
X19764731Y-17147729D01*
X19572292Y-17000066D01*
X19519681Y-16969691D01*
X19362212Y-16878776D01*
X19362208Y-16878774D01*
X19362204Y-16878772D01*
X19138105Y-16785948D01*
X19138104Y-16785947D01*
X19138100Y-16785946D01*
X18903789Y-16723162D01*
X18903786Y-16723161D01*
X18903784Y-16723161D01*
X18663289Y-16691500D01*
X18663288Y-16691500D01*
X18420712Y-16691500D01*
X18420710Y-16691500D01*
X18180218Y-16723161D01*
X18180213Y-16723161D01*
X17945907Y-16785944D01*
X17945894Y-16785948D01*
X17721795Y-16878772D01*
X17511707Y-17000066D01*
X17319268Y-17147729D01*
X17147729Y-17319268D01*
X17000066Y-17511707D01*
X16878772Y-17721795D01*
X16785948Y-17945894D01*
X16785944Y-17945907D01*
X16723161Y-18180213D01*
X16723161Y-18180218D01*
X16691500Y-18420710D01*
X15500500Y-18420710D01*
X15500500Y-15599500D01*
X15519407Y-15541309D01*
X15568907Y-15505345D01*
X15599500Y-15500500D01*
X169400500Y-15500500D01*
X169458691Y-15519407D01*
G37*
%TD.AperFunction*%
%TD*%
M02*
