%TF.GenerationSoftware,KiCad,Pcbnew,10.0.2*%
%TF.CreationDate,2026-05-11T18:43:04-07:00*%
%TF.ProjectId,panel,70616e65-6c2e-46b6-9963-61645f706362,rev?*%
%TF.SameCoordinates,Original*%
%TF.FileFunction,Legend,Bot*%
%TF.FilePolarity,Positive*%
%FSLAX46Y46*%
G04 Gerber Fmt 4.6, Leading zero omitted, Abs format (unit mm)*
G04 Created by KiCad (PCBNEW 10.0.2) date 2026-05-11 18:43:04*
%MOMM*%
%LPD*%
G01*
G04 APERTURE LIST*
%ADD10C,0.150000*%
%ADD11C,0.254000*%
%ADD12C,0.120000*%
%ADD13C,0.200000*%
%ADD14C,0.100000*%
G04 APERTURE END LIST*
D10*
X38838094Y-28482819D02*
X38838094Y-27482819D01*
X38838094Y-27482819D02*
X38599999Y-27482819D01*
X38599999Y-27482819D02*
X38457142Y-27530438D01*
X38457142Y-27530438D02*
X38361904Y-27625676D01*
X38361904Y-27625676D02*
X38314285Y-27720914D01*
X38314285Y-27720914D02*
X38266666Y-27911390D01*
X38266666Y-27911390D02*
X38266666Y-28054247D01*
X38266666Y-28054247D02*
X38314285Y-28244723D01*
X38314285Y-28244723D02*
X38361904Y-28339961D01*
X38361904Y-28339961D02*
X38457142Y-28435200D01*
X38457142Y-28435200D02*
X38599999Y-28482819D01*
X38599999Y-28482819D02*
X38838094Y-28482819D01*
X37409523Y-27816152D02*
X37409523Y-28482819D01*
X37647618Y-27435200D02*
X37885713Y-28149485D01*
X37885713Y-28149485D02*
X37266666Y-28149485D01*
X33504094Y-28482819D02*
X33504094Y-27482819D01*
X33504094Y-27482819D02*
X33265999Y-27482819D01*
X33265999Y-27482819D02*
X33123142Y-27530438D01*
X33123142Y-27530438D02*
X33027904Y-27625676D01*
X33027904Y-27625676D02*
X32980285Y-27720914D01*
X32980285Y-27720914D02*
X32932666Y-27911390D01*
X32932666Y-27911390D02*
X32932666Y-28054247D01*
X32932666Y-28054247D02*
X32980285Y-28244723D01*
X32980285Y-28244723D02*
X33027904Y-28339961D01*
X33027904Y-28339961D02*
X33123142Y-28435200D01*
X33123142Y-28435200D02*
X33265999Y-28482819D01*
X33265999Y-28482819D02*
X33504094Y-28482819D01*
X32599332Y-27482819D02*
X31980285Y-27482819D01*
X31980285Y-27482819D02*
X32313618Y-27863771D01*
X32313618Y-27863771D02*
X32170761Y-27863771D01*
X32170761Y-27863771D02*
X32075523Y-27911390D01*
X32075523Y-27911390D02*
X32027904Y-27959009D01*
X32027904Y-27959009D02*
X31980285Y-28054247D01*
X31980285Y-28054247D02*
X31980285Y-28292342D01*
X31980285Y-28292342D02*
X32027904Y-28387580D01*
X32027904Y-28387580D02*
X32075523Y-28435200D01*
X32075523Y-28435200D02*
X32170761Y-28482819D01*
X32170761Y-28482819D02*
X32456475Y-28482819D01*
X32456475Y-28482819D02*
X32551713Y-28435200D01*
X32551713Y-28435200D02*
X32599332Y-28387580D01*
X28170094Y-28482819D02*
X28170094Y-27482819D01*
X28170094Y-27482819D02*
X27931999Y-27482819D01*
X27931999Y-27482819D02*
X27789142Y-27530438D01*
X27789142Y-27530438D02*
X27693904Y-27625676D01*
X27693904Y-27625676D02*
X27646285Y-27720914D01*
X27646285Y-27720914D02*
X27598666Y-27911390D01*
X27598666Y-27911390D02*
X27598666Y-28054247D01*
X27598666Y-28054247D02*
X27646285Y-28244723D01*
X27646285Y-28244723D02*
X27693904Y-28339961D01*
X27693904Y-28339961D02*
X27789142Y-28435200D01*
X27789142Y-28435200D02*
X27931999Y-28482819D01*
X27931999Y-28482819D02*
X28170094Y-28482819D01*
X27217713Y-27578057D02*
X27170094Y-27530438D01*
X27170094Y-27530438D02*
X27074856Y-27482819D01*
X27074856Y-27482819D02*
X26836761Y-27482819D01*
X26836761Y-27482819D02*
X26741523Y-27530438D01*
X26741523Y-27530438D02*
X26693904Y-27578057D01*
X26693904Y-27578057D02*
X26646285Y-27673295D01*
X26646285Y-27673295D02*
X26646285Y-27768533D01*
X26646285Y-27768533D02*
X26693904Y-27911390D01*
X26693904Y-27911390D02*
X27265332Y-28482819D01*
X27265332Y-28482819D02*
X26646285Y-28482819D01*
X22836094Y-28482819D02*
X22836094Y-27482819D01*
X22836094Y-27482819D02*
X22597999Y-27482819D01*
X22597999Y-27482819D02*
X22455142Y-27530438D01*
X22455142Y-27530438D02*
X22359904Y-27625676D01*
X22359904Y-27625676D02*
X22312285Y-27720914D01*
X22312285Y-27720914D02*
X22264666Y-27911390D01*
X22264666Y-27911390D02*
X22264666Y-28054247D01*
X22264666Y-28054247D02*
X22312285Y-28244723D01*
X22312285Y-28244723D02*
X22359904Y-28339961D01*
X22359904Y-28339961D02*
X22455142Y-28435200D01*
X22455142Y-28435200D02*
X22597999Y-28482819D01*
X22597999Y-28482819D02*
X22836094Y-28482819D01*
X21312285Y-28482819D02*
X21883713Y-28482819D01*
X21597999Y-28482819D02*
X21597999Y-27482819D01*
X21597999Y-27482819D02*
X21693237Y-27625676D01*
X21693237Y-27625676D02*
X21788475Y-27720914D01*
X21788475Y-27720914D02*
X21883713Y-27768533D01*
X68746666Y-36184819D02*
X69079999Y-35708628D01*
X69318094Y-36184819D02*
X69318094Y-35184819D01*
X69318094Y-35184819D02*
X68937142Y-35184819D01*
X68937142Y-35184819D02*
X68841904Y-35232438D01*
X68841904Y-35232438D02*
X68794285Y-35280057D01*
X68794285Y-35280057D02*
X68746666Y-35375295D01*
X68746666Y-35375295D02*
X68746666Y-35518152D01*
X68746666Y-35518152D02*
X68794285Y-35613390D01*
X68794285Y-35613390D02*
X68841904Y-35661009D01*
X68841904Y-35661009D02*
X68937142Y-35708628D01*
X68937142Y-35708628D02*
X69318094Y-35708628D01*
X68365713Y-35280057D02*
X68318094Y-35232438D01*
X68318094Y-35232438D02*
X68222856Y-35184819D01*
X68222856Y-35184819D02*
X67984761Y-35184819D01*
X67984761Y-35184819D02*
X67889523Y-35232438D01*
X67889523Y-35232438D02*
X67841904Y-35280057D01*
X67841904Y-35280057D02*
X67794285Y-35375295D01*
X67794285Y-35375295D02*
X67794285Y-35470533D01*
X67794285Y-35470533D02*
X67841904Y-35613390D01*
X67841904Y-35613390D02*
X68413332Y-36184819D01*
X68413332Y-36184819D02*
X67794285Y-36184819D01*
X58546666Y-35959580D02*
X58594285Y-36007200D01*
X58594285Y-36007200D02*
X58737142Y-36054819D01*
X58737142Y-36054819D02*
X58832380Y-36054819D01*
X58832380Y-36054819D02*
X58975237Y-36007200D01*
X58975237Y-36007200D02*
X59070475Y-35911961D01*
X59070475Y-35911961D02*
X59118094Y-35816723D01*
X59118094Y-35816723D02*
X59165713Y-35626247D01*
X59165713Y-35626247D02*
X59165713Y-35483390D01*
X59165713Y-35483390D02*
X59118094Y-35292914D01*
X59118094Y-35292914D02*
X59070475Y-35197676D01*
X59070475Y-35197676D02*
X58975237Y-35102438D01*
X58975237Y-35102438D02*
X58832380Y-35054819D01*
X58832380Y-35054819D02*
X58737142Y-35054819D01*
X58737142Y-35054819D02*
X58594285Y-35102438D01*
X58594285Y-35102438D02*
X58546666Y-35150057D01*
X58165713Y-35150057D02*
X58118094Y-35102438D01*
X58118094Y-35102438D02*
X58022856Y-35054819D01*
X58022856Y-35054819D02*
X57784761Y-35054819D01*
X57784761Y-35054819D02*
X57689523Y-35102438D01*
X57689523Y-35102438D02*
X57641904Y-35150057D01*
X57641904Y-35150057D02*
X57594285Y-35245295D01*
X57594285Y-35245295D02*
X57594285Y-35340533D01*
X57594285Y-35340533D02*
X57641904Y-35483390D01*
X57641904Y-35483390D02*
X58213332Y-36054819D01*
X58213332Y-36054819D02*
X57594285Y-36054819D01*
X68746666Y-26024819D02*
X69079999Y-25548628D01*
X69318094Y-26024819D02*
X69318094Y-25024819D01*
X69318094Y-25024819D02*
X68937142Y-25024819D01*
X68937142Y-25024819D02*
X68841904Y-25072438D01*
X68841904Y-25072438D02*
X68794285Y-25120057D01*
X68794285Y-25120057D02*
X68746666Y-25215295D01*
X68746666Y-25215295D02*
X68746666Y-25358152D01*
X68746666Y-25358152D02*
X68794285Y-25453390D01*
X68794285Y-25453390D02*
X68841904Y-25501009D01*
X68841904Y-25501009D02*
X68937142Y-25548628D01*
X68937142Y-25548628D02*
X69318094Y-25548628D01*
X67889523Y-25358152D02*
X67889523Y-26024819D01*
X68127618Y-24977200D02*
X68365713Y-25691485D01*
X68365713Y-25691485D02*
X67746666Y-25691485D01*
X68746666Y-41264819D02*
X69079999Y-40788628D01*
X69318094Y-41264819D02*
X69318094Y-40264819D01*
X69318094Y-40264819D02*
X68937142Y-40264819D01*
X68937142Y-40264819D02*
X68841904Y-40312438D01*
X68841904Y-40312438D02*
X68794285Y-40360057D01*
X68794285Y-40360057D02*
X68746666Y-40455295D01*
X68746666Y-40455295D02*
X68746666Y-40598152D01*
X68746666Y-40598152D02*
X68794285Y-40693390D01*
X68794285Y-40693390D02*
X68841904Y-40741009D01*
X68841904Y-40741009D02*
X68937142Y-40788628D01*
X68937142Y-40788628D02*
X69318094Y-40788628D01*
X67794285Y-41264819D02*
X68365713Y-41264819D01*
X68079999Y-41264819D02*
X68079999Y-40264819D01*
X68079999Y-40264819D02*
X68175237Y-40407676D01*
X68175237Y-40407676D02*
X68270475Y-40502914D01*
X68270475Y-40502914D02*
X68365713Y-40550533D01*
X58546666Y-30879580D02*
X58594285Y-30927200D01*
X58594285Y-30927200D02*
X58737142Y-30974819D01*
X58737142Y-30974819D02*
X58832380Y-30974819D01*
X58832380Y-30974819D02*
X58975237Y-30927200D01*
X58975237Y-30927200D02*
X59070475Y-30831961D01*
X59070475Y-30831961D02*
X59118094Y-30736723D01*
X59118094Y-30736723D02*
X59165713Y-30546247D01*
X59165713Y-30546247D02*
X59165713Y-30403390D01*
X59165713Y-30403390D02*
X59118094Y-30212914D01*
X59118094Y-30212914D02*
X59070475Y-30117676D01*
X59070475Y-30117676D02*
X58975237Y-30022438D01*
X58975237Y-30022438D02*
X58832380Y-29974819D01*
X58832380Y-29974819D02*
X58737142Y-29974819D01*
X58737142Y-29974819D02*
X58594285Y-30022438D01*
X58594285Y-30022438D02*
X58546666Y-30070057D01*
X58213332Y-29974819D02*
X57594285Y-29974819D01*
X57594285Y-29974819D02*
X57927618Y-30355771D01*
X57927618Y-30355771D02*
X57784761Y-30355771D01*
X57784761Y-30355771D02*
X57689523Y-30403390D01*
X57689523Y-30403390D02*
X57641904Y-30451009D01*
X57641904Y-30451009D02*
X57594285Y-30546247D01*
X57594285Y-30546247D02*
X57594285Y-30784342D01*
X57594285Y-30784342D02*
X57641904Y-30879580D01*
X57641904Y-30879580D02*
X57689523Y-30927200D01*
X57689523Y-30927200D02*
X57784761Y-30974819D01*
X57784761Y-30974819D02*
X58070475Y-30974819D01*
X58070475Y-30974819D02*
X58165713Y-30927200D01*
X58165713Y-30927200D02*
X58213332Y-30879580D01*
X123951904Y-53894819D02*
X123951904Y-54704342D01*
X123951904Y-54704342D02*
X123904285Y-54799580D01*
X123904285Y-54799580D02*
X123856666Y-54847200D01*
X123856666Y-54847200D02*
X123761428Y-54894819D01*
X123761428Y-54894819D02*
X123570952Y-54894819D01*
X123570952Y-54894819D02*
X123475714Y-54847200D01*
X123475714Y-54847200D02*
X123428095Y-54799580D01*
X123428095Y-54799580D02*
X123380476Y-54704342D01*
X123380476Y-54704342D02*
X123380476Y-53894819D01*
X122951904Y-53990057D02*
X122904285Y-53942438D01*
X122904285Y-53942438D02*
X122809047Y-53894819D01*
X122809047Y-53894819D02*
X122570952Y-53894819D01*
X122570952Y-53894819D02*
X122475714Y-53942438D01*
X122475714Y-53942438D02*
X122428095Y-53990057D01*
X122428095Y-53990057D02*
X122380476Y-54085295D01*
X122380476Y-54085295D02*
X122380476Y-54180533D01*
X122380476Y-54180533D02*
X122428095Y-54323390D01*
X122428095Y-54323390D02*
X122999523Y-54894819D01*
X122999523Y-54894819D02*
X122380476Y-54894819D01*
X126904285Y-17214819D02*
X126904285Y-16214819D01*
X126904285Y-16214819D02*
X126570952Y-16929104D01*
X126570952Y-16929104D02*
X126237619Y-16214819D01*
X126237619Y-16214819D02*
X126237619Y-17214819D01*
X125190000Y-17119580D02*
X125237619Y-17167200D01*
X125237619Y-17167200D02*
X125380476Y-17214819D01*
X125380476Y-17214819D02*
X125475714Y-17214819D01*
X125475714Y-17214819D02*
X125618571Y-17167200D01*
X125618571Y-17167200D02*
X125713809Y-17071961D01*
X125713809Y-17071961D02*
X125761428Y-16976723D01*
X125761428Y-16976723D02*
X125809047Y-16786247D01*
X125809047Y-16786247D02*
X125809047Y-16643390D01*
X125809047Y-16643390D02*
X125761428Y-16452914D01*
X125761428Y-16452914D02*
X125713809Y-16357676D01*
X125713809Y-16357676D02*
X125618571Y-16262438D01*
X125618571Y-16262438D02*
X125475714Y-16214819D01*
X125475714Y-16214819D02*
X125380476Y-16214819D01*
X125380476Y-16214819D02*
X125237619Y-16262438D01*
X125237619Y-16262438D02*
X125190000Y-16310057D01*
X124761428Y-17214819D02*
X124761428Y-16214819D01*
X124761428Y-16214819D02*
X124380476Y-16214819D01*
X124380476Y-16214819D02*
X124285238Y-16262438D01*
X124285238Y-16262438D02*
X124237619Y-16310057D01*
X124237619Y-16310057D02*
X124190000Y-16405295D01*
X124190000Y-16405295D02*
X124190000Y-16548152D01*
X124190000Y-16548152D02*
X124237619Y-16643390D01*
X124237619Y-16643390D02*
X124285238Y-16691009D01*
X124285238Y-16691009D02*
X124380476Y-16738628D01*
X124380476Y-16738628D02*
X124761428Y-16738628D01*
X123809047Y-16310057D02*
X123761428Y-16262438D01*
X123761428Y-16262438D02*
X123666190Y-16214819D01*
X123666190Y-16214819D02*
X123428095Y-16214819D01*
X123428095Y-16214819D02*
X123332857Y-16262438D01*
X123332857Y-16262438D02*
X123285238Y-16310057D01*
X123285238Y-16310057D02*
X123237619Y-16405295D01*
X123237619Y-16405295D02*
X123237619Y-16500533D01*
X123237619Y-16500533D02*
X123285238Y-16643390D01*
X123285238Y-16643390D02*
X123856666Y-17214819D01*
X123856666Y-17214819D02*
X123237619Y-17214819D01*
X122904285Y-16214819D02*
X122285238Y-16214819D01*
X122285238Y-16214819D02*
X122618571Y-16595771D01*
X122618571Y-16595771D02*
X122475714Y-16595771D01*
X122475714Y-16595771D02*
X122380476Y-16643390D01*
X122380476Y-16643390D02*
X122332857Y-16691009D01*
X122332857Y-16691009D02*
X122285238Y-16786247D01*
X122285238Y-16786247D02*
X122285238Y-17024342D01*
X122285238Y-17024342D02*
X122332857Y-17119580D01*
X122332857Y-17119580D02*
X122380476Y-17167200D01*
X122380476Y-17167200D02*
X122475714Y-17214819D01*
X122475714Y-17214819D02*
X122761428Y-17214819D01*
X122761428Y-17214819D02*
X122856666Y-17167200D01*
X122856666Y-17167200D02*
X122904285Y-17119580D01*
X121666190Y-16214819D02*
X121570952Y-16214819D01*
X121570952Y-16214819D02*
X121475714Y-16262438D01*
X121475714Y-16262438D02*
X121428095Y-16310057D01*
X121428095Y-16310057D02*
X121380476Y-16405295D01*
X121380476Y-16405295D02*
X121332857Y-16595771D01*
X121332857Y-16595771D02*
X121332857Y-16833866D01*
X121332857Y-16833866D02*
X121380476Y-17024342D01*
X121380476Y-17024342D02*
X121428095Y-17119580D01*
X121428095Y-17119580D02*
X121475714Y-17167200D01*
X121475714Y-17167200D02*
X121570952Y-17214819D01*
X121570952Y-17214819D02*
X121666190Y-17214819D01*
X121666190Y-17214819D02*
X121761428Y-17167200D01*
X121761428Y-17167200D02*
X121809047Y-17119580D01*
X121809047Y-17119580D02*
X121856666Y-17024342D01*
X121856666Y-17024342D02*
X121904285Y-16833866D01*
X121904285Y-16833866D02*
X121904285Y-16595771D01*
X121904285Y-16595771D02*
X121856666Y-16405295D01*
X121856666Y-16405295D02*
X121809047Y-16310057D01*
X121809047Y-16310057D02*
X121761428Y-16262438D01*
X121761428Y-16262438D02*
X121666190Y-16214819D01*
X120380476Y-17214819D02*
X120951904Y-17214819D01*
X120666190Y-17214819D02*
X120666190Y-16214819D01*
X120666190Y-16214819D02*
X120761428Y-16357676D01*
X120761428Y-16357676D02*
X120856666Y-16452914D01*
X120856666Y-16452914D02*
X120951904Y-16500533D01*
X120047142Y-16214819D02*
X119380476Y-16214819D01*
X119380476Y-16214819D02*
X119809047Y-17214819D01*
X58546666Y-25799580D02*
X58594285Y-25847200D01*
X58594285Y-25847200D02*
X58737142Y-25894819D01*
X58737142Y-25894819D02*
X58832380Y-25894819D01*
X58832380Y-25894819D02*
X58975237Y-25847200D01*
X58975237Y-25847200D02*
X59070475Y-25751961D01*
X59070475Y-25751961D02*
X59118094Y-25656723D01*
X59118094Y-25656723D02*
X59165713Y-25466247D01*
X59165713Y-25466247D02*
X59165713Y-25323390D01*
X59165713Y-25323390D02*
X59118094Y-25132914D01*
X59118094Y-25132914D02*
X59070475Y-25037676D01*
X59070475Y-25037676D02*
X58975237Y-24942438D01*
X58975237Y-24942438D02*
X58832380Y-24894819D01*
X58832380Y-24894819D02*
X58737142Y-24894819D01*
X58737142Y-24894819D02*
X58594285Y-24942438D01*
X58594285Y-24942438D02*
X58546666Y-24990057D01*
X57689523Y-25228152D02*
X57689523Y-25894819D01*
X57927618Y-24847200D02*
X58165713Y-25561485D01*
X58165713Y-25561485D02*
X57546666Y-25561485D01*
X58546666Y-41039580D02*
X58594285Y-41087200D01*
X58594285Y-41087200D02*
X58737142Y-41134819D01*
X58737142Y-41134819D02*
X58832380Y-41134819D01*
X58832380Y-41134819D02*
X58975237Y-41087200D01*
X58975237Y-41087200D02*
X59070475Y-40991961D01*
X59070475Y-40991961D02*
X59118094Y-40896723D01*
X59118094Y-40896723D02*
X59165713Y-40706247D01*
X59165713Y-40706247D02*
X59165713Y-40563390D01*
X59165713Y-40563390D02*
X59118094Y-40372914D01*
X59118094Y-40372914D02*
X59070475Y-40277676D01*
X59070475Y-40277676D02*
X58975237Y-40182438D01*
X58975237Y-40182438D02*
X58832380Y-40134819D01*
X58832380Y-40134819D02*
X58737142Y-40134819D01*
X58737142Y-40134819D02*
X58594285Y-40182438D01*
X58594285Y-40182438D02*
X58546666Y-40230057D01*
X57594285Y-41134819D02*
X58165713Y-41134819D01*
X57879999Y-41134819D02*
X57879999Y-40134819D01*
X57879999Y-40134819D02*
X57975237Y-40277676D01*
X57975237Y-40277676D02*
X58070475Y-40372914D01*
X58070475Y-40372914D02*
X58165713Y-40420533D01*
X47976666Y-25084819D02*
X48309999Y-24608628D01*
X48548094Y-25084819D02*
X48548094Y-24084819D01*
X48548094Y-24084819D02*
X48167142Y-24084819D01*
X48167142Y-24084819D02*
X48071904Y-24132438D01*
X48071904Y-24132438D02*
X48024285Y-24180057D01*
X48024285Y-24180057D02*
X47976666Y-24275295D01*
X47976666Y-24275295D02*
X47976666Y-24418152D01*
X47976666Y-24418152D02*
X48024285Y-24513390D01*
X48024285Y-24513390D02*
X48071904Y-24561009D01*
X48071904Y-24561009D02*
X48167142Y-24608628D01*
X48167142Y-24608628D02*
X48548094Y-24608628D01*
X47643332Y-24084819D02*
X46976666Y-24084819D01*
X46976666Y-24084819D02*
X47405237Y-25084819D01*
X48619523Y-28824819D02*
X47952857Y-28824819D01*
X47952857Y-28824819D02*
X48381428Y-29824819D01*
X47095714Y-28824819D02*
X47571904Y-28824819D01*
X47571904Y-28824819D02*
X47619523Y-29301009D01*
X47619523Y-29301009D02*
X47571904Y-29253390D01*
X47571904Y-29253390D02*
X47476666Y-29205771D01*
X47476666Y-29205771D02*
X47238571Y-29205771D01*
X47238571Y-29205771D02*
X47143333Y-29253390D01*
X47143333Y-29253390D02*
X47095714Y-29301009D01*
X47095714Y-29301009D02*
X47048095Y-29396247D01*
X47048095Y-29396247D02*
X47048095Y-29634342D01*
X47048095Y-29634342D02*
X47095714Y-29729580D01*
X47095714Y-29729580D02*
X47143333Y-29777200D01*
X47143333Y-29777200D02*
X47238571Y-29824819D01*
X47238571Y-29824819D02*
X47476666Y-29824819D01*
X47476666Y-29824819D02*
X47571904Y-29777200D01*
X47571904Y-29777200D02*
X47619523Y-29729580D01*
X48452857Y-46084819D02*
X48786190Y-45608628D01*
X49024285Y-46084819D02*
X49024285Y-45084819D01*
X49024285Y-45084819D02*
X48643333Y-45084819D01*
X48643333Y-45084819D02*
X48548095Y-45132438D01*
X48548095Y-45132438D02*
X48500476Y-45180057D01*
X48500476Y-45180057D02*
X48452857Y-45275295D01*
X48452857Y-45275295D02*
X48452857Y-45418152D01*
X48452857Y-45418152D02*
X48500476Y-45513390D01*
X48500476Y-45513390D02*
X48548095Y-45561009D01*
X48548095Y-45561009D02*
X48643333Y-45608628D01*
X48643333Y-45608628D02*
X49024285Y-45608628D01*
X47500476Y-46084819D02*
X48071904Y-46084819D01*
X47786190Y-46084819D02*
X47786190Y-45084819D01*
X47786190Y-45084819D02*
X47881428Y-45227676D01*
X47881428Y-45227676D02*
X47976666Y-45322914D01*
X47976666Y-45322914D02*
X48071904Y-45370533D01*
X46881428Y-45084819D02*
X46786190Y-45084819D01*
X46786190Y-45084819D02*
X46690952Y-45132438D01*
X46690952Y-45132438D02*
X46643333Y-45180057D01*
X46643333Y-45180057D02*
X46595714Y-45275295D01*
X46595714Y-45275295D02*
X46548095Y-45465771D01*
X46548095Y-45465771D02*
X46548095Y-45703866D01*
X46548095Y-45703866D02*
X46595714Y-45894342D01*
X46595714Y-45894342D02*
X46643333Y-45989580D01*
X46643333Y-45989580D02*
X46690952Y-46037200D01*
X46690952Y-46037200D02*
X46786190Y-46084819D01*
X46786190Y-46084819D02*
X46881428Y-46084819D01*
X46881428Y-46084819D02*
X46976666Y-46037200D01*
X46976666Y-46037200D02*
X47024285Y-45989580D01*
X47024285Y-45989580D02*
X47071904Y-45894342D01*
X47071904Y-45894342D02*
X47119523Y-45703866D01*
X47119523Y-45703866D02*
X47119523Y-45465771D01*
X47119523Y-45465771D02*
X47071904Y-45275295D01*
X47071904Y-45275295D02*
X47024285Y-45180057D01*
X47024285Y-45180057D02*
X46976666Y-45132438D01*
X46976666Y-45132438D02*
X46881428Y-45084819D01*
X48619523Y-49824819D02*
X47952857Y-49824819D01*
X47952857Y-49824819D02*
X48381428Y-50824819D01*
X47095714Y-49824819D02*
X47571904Y-49824819D01*
X47571904Y-49824819D02*
X47619523Y-50301009D01*
X47619523Y-50301009D02*
X47571904Y-50253390D01*
X47571904Y-50253390D02*
X47476666Y-50205771D01*
X47476666Y-50205771D02*
X47238571Y-50205771D01*
X47238571Y-50205771D02*
X47143333Y-50253390D01*
X47143333Y-50253390D02*
X47095714Y-50301009D01*
X47095714Y-50301009D02*
X47048095Y-50396247D01*
X47048095Y-50396247D02*
X47048095Y-50634342D01*
X47048095Y-50634342D02*
X47095714Y-50729580D01*
X47095714Y-50729580D02*
X47143333Y-50777200D01*
X47143333Y-50777200D02*
X47238571Y-50824819D01*
X47238571Y-50824819D02*
X47476666Y-50824819D01*
X47476666Y-50824819D02*
X47571904Y-50777200D01*
X47571904Y-50777200D02*
X47619523Y-50729580D01*
X87796666Y-47528819D02*
X88129999Y-47052628D01*
X88368094Y-47528819D02*
X88368094Y-46528819D01*
X88368094Y-46528819D02*
X87987142Y-46528819D01*
X87987142Y-46528819D02*
X87891904Y-46576438D01*
X87891904Y-46576438D02*
X87844285Y-46624057D01*
X87844285Y-46624057D02*
X87796666Y-46719295D01*
X87796666Y-46719295D02*
X87796666Y-46862152D01*
X87796666Y-46862152D02*
X87844285Y-46957390D01*
X87844285Y-46957390D02*
X87891904Y-47005009D01*
X87891904Y-47005009D02*
X87987142Y-47052628D01*
X87987142Y-47052628D02*
X88368094Y-47052628D01*
X86891904Y-46528819D02*
X87368094Y-46528819D01*
X87368094Y-46528819D02*
X87415713Y-47005009D01*
X87415713Y-47005009D02*
X87368094Y-46957390D01*
X87368094Y-46957390D02*
X87272856Y-46909771D01*
X87272856Y-46909771D02*
X87034761Y-46909771D01*
X87034761Y-46909771D02*
X86939523Y-46957390D01*
X86939523Y-46957390D02*
X86891904Y-47005009D01*
X86891904Y-47005009D02*
X86844285Y-47100247D01*
X86844285Y-47100247D02*
X86844285Y-47338342D01*
X86844285Y-47338342D02*
X86891904Y-47433580D01*
X86891904Y-47433580D02*
X86939523Y-47481200D01*
X86939523Y-47481200D02*
X87034761Y-47528819D01*
X87034761Y-47528819D02*
X87272856Y-47528819D01*
X87272856Y-47528819D02*
X87368094Y-47481200D01*
X87368094Y-47481200D02*
X87415713Y-47433580D01*
X47976666Y-32084819D02*
X48309999Y-31608628D01*
X48548094Y-32084819D02*
X48548094Y-31084819D01*
X48548094Y-31084819D02*
X48167142Y-31084819D01*
X48167142Y-31084819D02*
X48071904Y-31132438D01*
X48071904Y-31132438D02*
X48024285Y-31180057D01*
X48024285Y-31180057D02*
X47976666Y-31275295D01*
X47976666Y-31275295D02*
X47976666Y-31418152D01*
X47976666Y-31418152D02*
X48024285Y-31513390D01*
X48024285Y-31513390D02*
X48071904Y-31561009D01*
X48071904Y-31561009D02*
X48167142Y-31608628D01*
X48167142Y-31608628D02*
X48548094Y-31608628D01*
X47405237Y-31513390D02*
X47500475Y-31465771D01*
X47500475Y-31465771D02*
X47548094Y-31418152D01*
X47548094Y-31418152D02*
X47595713Y-31322914D01*
X47595713Y-31322914D02*
X47595713Y-31275295D01*
X47595713Y-31275295D02*
X47548094Y-31180057D01*
X47548094Y-31180057D02*
X47500475Y-31132438D01*
X47500475Y-31132438D02*
X47405237Y-31084819D01*
X47405237Y-31084819D02*
X47214761Y-31084819D01*
X47214761Y-31084819D02*
X47119523Y-31132438D01*
X47119523Y-31132438D02*
X47071904Y-31180057D01*
X47071904Y-31180057D02*
X47024285Y-31275295D01*
X47024285Y-31275295D02*
X47024285Y-31322914D01*
X47024285Y-31322914D02*
X47071904Y-31418152D01*
X47071904Y-31418152D02*
X47119523Y-31465771D01*
X47119523Y-31465771D02*
X47214761Y-31513390D01*
X47214761Y-31513390D02*
X47405237Y-31513390D01*
X47405237Y-31513390D02*
X47500475Y-31561009D01*
X47500475Y-31561009D02*
X47548094Y-31608628D01*
X47548094Y-31608628D02*
X47595713Y-31703866D01*
X47595713Y-31703866D02*
X47595713Y-31894342D01*
X47595713Y-31894342D02*
X47548094Y-31989580D01*
X47548094Y-31989580D02*
X47500475Y-32037200D01*
X47500475Y-32037200D02*
X47405237Y-32084819D01*
X47405237Y-32084819D02*
X47214761Y-32084819D01*
X47214761Y-32084819D02*
X47119523Y-32037200D01*
X47119523Y-32037200D02*
X47071904Y-31989580D01*
X47071904Y-31989580D02*
X47024285Y-31894342D01*
X47024285Y-31894342D02*
X47024285Y-31703866D01*
X47024285Y-31703866D02*
X47071904Y-31608628D01*
X47071904Y-31608628D02*
X47119523Y-31561009D01*
X47119523Y-31561009D02*
X47214761Y-31513390D01*
X48619523Y-35824819D02*
X48000476Y-35824819D01*
X48000476Y-35824819D02*
X48333809Y-36205771D01*
X48333809Y-36205771D02*
X48190952Y-36205771D01*
X48190952Y-36205771D02*
X48095714Y-36253390D01*
X48095714Y-36253390D02*
X48048095Y-36301009D01*
X48048095Y-36301009D02*
X48000476Y-36396247D01*
X48000476Y-36396247D02*
X48000476Y-36634342D01*
X48000476Y-36634342D02*
X48048095Y-36729580D01*
X48048095Y-36729580D02*
X48095714Y-36777200D01*
X48095714Y-36777200D02*
X48190952Y-36824819D01*
X48190952Y-36824819D02*
X48476666Y-36824819D01*
X48476666Y-36824819D02*
X48571904Y-36777200D01*
X48571904Y-36777200D02*
X48619523Y-36729580D01*
X47524285Y-36824819D02*
X47333809Y-36824819D01*
X47333809Y-36824819D02*
X47238571Y-36777200D01*
X47238571Y-36777200D02*
X47190952Y-36729580D01*
X47190952Y-36729580D02*
X47095714Y-36586723D01*
X47095714Y-36586723D02*
X47048095Y-36396247D01*
X47048095Y-36396247D02*
X47048095Y-36015295D01*
X47048095Y-36015295D02*
X47095714Y-35920057D01*
X47095714Y-35920057D02*
X47143333Y-35872438D01*
X47143333Y-35872438D02*
X47238571Y-35824819D01*
X47238571Y-35824819D02*
X47429047Y-35824819D01*
X47429047Y-35824819D02*
X47524285Y-35872438D01*
X47524285Y-35872438D02*
X47571904Y-35920057D01*
X47571904Y-35920057D02*
X47619523Y-36015295D01*
X47619523Y-36015295D02*
X47619523Y-36253390D01*
X47619523Y-36253390D02*
X47571904Y-36348628D01*
X47571904Y-36348628D02*
X47524285Y-36396247D01*
X47524285Y-36396247D02*
X47429047Y-36443866D01*
X47429047Y-36443866D02*
X47238571Y-36443866D01*
X47238571Y-36443866D02*
X47143333Y-36396247D01*
X47143333Y-36396247D02*
X47095714Y-36348628D01*
X47095714Y-36348628D02*
X47048095Y-36253390D01*
X68746666Y-31104819D02*
X69079999Y-30628628D01*
X69318094Y-31104819D02*
X69318094Y-30104819D01*
X69318094Y-30104819D02*
X68937142Y-30104819D01*
X68937142Y-30104819D02*
X68841904Y-30152438D01*
X68841904Y-30152438D02*
X68794285Y-30200057D01*
X68794285Y-30200057D02*
X68746666Y-30295295D01*
X68746666Y-30295295D02*
X68746666Y-30438152D01*
X68746666Y-30438152D02*
X68794285Y-30533390D01*
X68794285Y-30533390D02*
X68841904Y-30581009D01*
X68841904Y-30581009D02*
X68937142Y-30628628D01*
X68937142Y-30628628D02*
X69318094Y-30628628D01*
X68413332Y-30104819D02*
X67794285Y-30104819D01*
X67794285Y-30104819D02*
X68127618Y-30485771D01*
X68127618Y-30485771D02*
X67984761Y-30485771D01*
X67984761Y-30485771D02*
X67889523Y-30533390D01*
X67889523Y-30533390D02*
X67841904Y-30581009D01*
X67841904Y-30581009D02*
X67794285Y-30676247D01*
X67794285Y-30676247D02*
X67794285Y-30914342D01*
X67794285Y-30914342D02*
X67841904Y-31009580D01*
X67841904Y-31009580D02*
X67889523Y-31057200D01*
X67889523Y-31057200D02*
X67984761Y-31104819D01*
X67984761Y-31104819D02*
X68270475Y-31104819D01*
X68270475Y-31104819D02*
X68365713Y-31057200D01*
X68365713Y-31057200D02*
X68413332Y-31009580D01*
X97702666Y-47528819D02*
X98035999Y-47052628D01*
X98274094Y-47528819D02*
X98274094Y-46528819D01*
X98274094Y-46528819D02*
X97893142Y-46528819D01*
X97893142Y-46528819D02*
X97797904Y-46576438D01*
X97797904Y-46576438D02*
X97750285Y-46624057D01*
X97750285Y-46624057D02*
X97702666Y-46719295D01*
X97702666Y-46719295D02*
X97702666Y-46862152D01*
X97702666Y-46862152D02*
X97750285Y-46957390D01*
X97750285Y-46957390D02*
X97797904Y-47005009D01*
X97797904Y-47005009D02*
X97893142Y-47052628D01*
X97893142Y-47052628D02*
X98274094Y-47052628D01*
X96845523Y-46528819D02*
X97035999Y-46528819D01*
X97035999Y-46528819D02*
X97131237Y-46576438D01*
X97131237Y-46576438D02*
X97178856Y-46624057D01*
X97178856Y-46624057D02*
X97274094Y-46766914D01*
X97274094Y-46766914D02*
X97321713Y-46957390D01*
X97321713Y-46957390D02*
X97321713Y-47338342D01*
X97321713Y-47338342D02*
X97274094Y-47433580D01*
X97274094Y-47433580D02*
X97226475Y-47481200D01*
X97226475Y-47481200D02*
X97131237Y-47528819D01*
X97131237Y-47528819D02*
X96940761Y-47528819D01*
X96940761Y-47528819D02*
X96845523Y-47481200D01*
X96845523Y-47481200D02*
X96797904Y-47433580D01*
X96797904Y-47433580D02*
X96750285Y-47338342D01*
X96750285Y-47338342D02*
X96750285Y-47100247D01*
X96750285Y-47100247D02*
X96797904Y-47005009D01*
X96797904Y-47005009D02*
X96845523Y-46957390D01*
X96845523Y-46957390D02*
X96940761Y-46909771D01*
X96940761Y-46909771D02*
X97131237Y-46909771D01*
X97131237Y-46909771D02*
X97226475Y-46957390D01*
X97226475Y-46957390D02*
X97274094Y-47005009D01*
X97274094Y-47005009D02*
X97321713Y-47100247D01*
X47976666Y-39084819D02*
X48309999Y-38608628D01*
X48548094Y-39084819D02*
X48548094Y-38084819D01*
X48548094Y-38084819D02*
X48167142Y-38084819D01*
X48167142Y-38084819D02*
X48071904Y-38132438D01*
X48071904Y-38132438D02*
X48024285Y-38180057D01*
X48024285Y-38180057D02*
X47976666Y-38275295D01*
X47976666Y-38275295D02*
X47976666Y-38418152D01*
X47976666Y-38418152D02*
X48024285Y-38513390D01*
X48024285Y-38513390D02*
X48071904Y-38561009D01*
X48071904Y-38561009D02*
X48167142Y-38608628D01*
X48167142Y-38608628D02*
X48548094Y-38608628D01*
X47500475Y-39084819D02*
X47309999Y-39084819D01*
X47309999Y-39084819D02*
X47214761Y-39037200D01*
X47214761Y-39037200D02*
X47167142Y-38989580D01*
X47167142Y-38989580D02*
X47071904Y-38846723D01*
X47071904Y-38846723D02*
X47024285Y-38656247D01*
X47024285Y-38656247D02*
X47024285Y-38275295D01*
X47024285Y-38275295D02*
X47071904Y-38180057D01*
X47071904Y-38180057D02*
X47119523Y-38132438D01*
X47119523Y-38132438D02*
X47214761Y-38084819D01*
X47214761Y-38084819D02*
X47405237Y-38084819D01*
X47405237Y-38084819D02*
X47500475Y-38132438D01*
X47500475Y-38132438D02*
X47548094Y-38180057D01*
X47548094Y-38180057D02*
X47595713Y-38275295D01*
X47595713Y-38275295D02*
X47595713Y-38513390D01*
X47595713Y-38513390D02*
X47548094Y-38608628D01*
X47548094Y-38608628D02*
X47500475Y-38656247D01*
X47500475Y-38656247D02*
X47405237Y-38703866D01*
X47405237Y-38703866D02*
X47214761Y-38703866D01*
X47214761Y-38703866D02*
X47119523Y-38656247D01*
X47119523Y-38656247D02*
X47071904Y-38608628D01*
X47071904Y-38608628D02*
X47024285Y-38513390D01*
X48619523Y-42824819D02*
X48000476Y-42824819D01*
X48000476Y-42824819D02*
X48333809Y-43205771D01*
X48333809Y-43205771D02*
X48190952Y-43205771D01*
X48190952Y-43205771D02*
X48095714Y-43253390D01*
X48095714Y-43253390D02*
X48048095Y-43301009D01*
X48048095Y-43301009D02*
X48000476Y-43396247D01*
X48000476Y-43396247D02*
X48000476Y-43634342D01*
X48000476Y-43634342D02*
X48048095Y-43729580D01*
X48048095Y-43729580D02*
X48095714Y-43777200D01*
X48095714Y-43777200D02*
X48190952Y-43824819D01*
X48190952Y-43824819D02*
X48476666Y-43824819D01*
X48476666Y-43824819D02*
X48571904Y-43777200D01*
X48571904Y-43777200D02*
X48619523Y-43729580D01*
X47524285Y-43824819D02*
X47333809Y-43824819D01*
X47333809Y-43824819D02*
X47238571Y-43777200D01*
X47238571Y-43777200D02*
X47190952Y-43729580D01*
X47190952Y-43729580D02*
X47095714Y-43586723D01*
X47095714Y-43586723D02*
X47048095Y-43396247D01*
X47048095Y-43396247D02*
X47048095Y-43015295D01*
X47048095Y-43015295D02*
X47095714Y-42920057D01*
X47095714Y-42920057D02*
X47143333Y-42872438D01*
X47143333Y-42872438D02*
X47238571Y-42824819D01*
X47238571Y-42824819D02*
X47429047Y-42824819D01*
X47429047Y-42824819D02*
X47524285Y-42872438D01*
X47524285Y-42872438D02*
X47571904Y-42920057D01*
X47571904Y-42920057D02*
X47619523Y-43015295D01*
X47619523Y-43015295D02*
X47619523Y-43253390D01*
X47619523Y-43253390D02*
X47571904Y-43348628D01*
X47571904Y-43348628D02*
X47524285Y-43396247D01*
X47524285Y-43396247D02*
X47429047Y-43443866D01*
X47429047Y-43443866D02*
X47238571Y-43443866D01*
X47238571Y-43443866D02*
X47143333Y-43396247D01*
X47143333Y-43396247D02*
X47095714Y-43348628D01*
X47095714Y-43348628D02*
X47048095Y-43253390D01*
D11*
X92923332Y-30804318D02*
X92923332Y-31711461D01*
X92923332Y-31711461D02*
X92983809Y-31892889D01*
X92983809Y-31892889D02*
X93104761Y-32013842D01*
X93104761Y-32013842D02*
X93286190Y-32074318D01*
X93286190Y-32074318D02*
X93407142Y-32074318D01*
X91653332Y-32074318D02*
X92379047Y-32074318D01*
X92016190Y-32074318D02*
X92016190Y-30804318D01*
X92016190Y-30804318D02*
X92137142Y-30985746D01*
X92137142Y-30985746D02*
X92258094Y-31106699D01*
X92258094Y-31106699D02*
X92379047Y-31167175D01*
%TO.C,R2*%
D12*
X65310000Y-36730000D02*
X65310000Y-37060000D01*
X65310000Y-39470000D02*
X65310000Y-39140000D01*
X71850000Y-36730000D02*
X65310000Y-36730000D01*
X71850000Y-37060000D02*
X71850000Y-36730000D01*
X71850000Y-39140000D02*
X71850000Y-39470000D01*
X71850000Y-39470000D02*
X65310000Y-39470000D01*
%TO.C,C2*%
X55760000Y-36730000D02*
X55760000Y-37067000D01*
X55760000Y-39133000D02*
X55760000Y-39470000D01*
X55760000Y-39470000D02*
X61000000Y-39470000D01*
X61000000Y-36730000D02*
X55760000Y-36730000D01*
X61000000Y-37067000D02*
X61000000Y-36730000D01*
X61000000Y-39470000D02*
X61000000Y-39133000D01*
%TO.C,R4*%
X65310000Y-26570000D02*
X65310000Y-26900000D01*
X65310000Y-29310000D02*
X65310000Y-28980000D01*
X71850000Y-26570000D02*
X65310000Y-26570000D01*
X71850000Y-26900000D02*
X71850000Y-26570000D01*
X71850000Y-28980000D02*
X71850000Y-29310000D01*
X71850000Y-29310000D02*
X65310000Y-29310000D01*
%TO.C,R1*%
X65310000Y-41810000D02*
X65310000Y-42140000D01*
X65310000Y-44550000D02*
X65310000Y-44220000D01*
X71850000Y-41810000D02*
X65310000Y-41810000D01*
X71850000Y-42140000D02*
X71850000Y-41810000D01*
X71850000Y-44220000D02*
X71850000Y-44550000D01*
X71850000Y-44550000D02*
X65310000Y-44550000D01*
%TO.C,C3*%
X55760000Y-31650000D02*
X55760000Y-31987000D01*
X55760000Y-34053000D02*
X55760000Y-34390000D01*
X55760000Y-34390000D02*
X61000000Y-34390000D01*
X61000000Y-31650000D02*
X55760000Y-31650000D01*
X61000000Y-31987000D02*
X61000000Y-31650000D01*
X61000000Y-34390000D02*
X61000000Y-34053000D01*
%TO.C,U2*%
X120540000Y-17760000D02*
X125840000Y-17760000D01*
X120540000Y-53440000D02*
X120540000Y-17760000D01*
X122190000Y-53440000D02*
X120540000Y-53440000D01*
X125840000Y-17760000D02*
X125840000Y-53440000D01*
X125840000Y-53440000D02*
X124190000Y-53440000D01*
X122190000Y-53440000D02*
G75*
G02*
X124190000Y-53440000I1000000J0D01*
G01*
%TO.C,C4*%
X55760000Y-26570000D02*
X55760000Y-26907000D01*
X55760000Y-28973000D02*
X55760000Y-29310000D01*
X55760000Y-29310000D02*
X61000000Y-29310000D01*
X61000000Y-26570000D02*
X55760000Y-26570000D01*
X61000000Y-26907000D02*
X61000000Y-26570000D01*
X61000000Y-29310000D02*
X61000000Y-28973000D01*
%TO.C,C1*%
X55760000Y-41810000D02*
X55760000Y-42147000D01*
X55760000Y-44213000D02*
X55760000Y-44550000D01*
X55760000Y-44550000D02*
X61000000Y-44550000D01*
X61000000Y-41810000D02*
X55760000Y-41810000D01*
X61000000Y-42147000D02*
X61000000Y-41810000D01*
X61000000Y-44550000D02*
X61000000Y-44213000D01*
%TO.C,R7*%
X44540000Y-25630000D02*
X44540000Y-25960000D01*
X44540000Y-28370000D02*
X44540000Y-28040000D01*
X51080000Y-25630000D02*
X44540000Y-25630000D01*
X51080000Y-25960000D02*
X51080000Y-25630000D01*
X51080000Y-28040000D02*
X51080000Y-28370000D01*
X51080000Y-28370000D02*
X44540000Y-28370000D01*
%TO.C,R10*%
X44540000Y-46630000D02*
X44540000Y-46960000D01*
X44540000Y-49370000D02*
X44540000Y-49040000D01*
X51080000Y-46630000D02*
X44540000Y-46630000D01*
X51080000Y-46960000D02*
X51080000Y-46630000D01*
X51080000Y-49040000D02*
X51080000Y-49370000D01*
X51080000Y-49370000D02*
X44540000Y-49370000D01*
%TO.C,R5*%
X84360000Y-43334000D02*
X90900000Y-43334000D01*
X84360000Y-43664000D02*
X84360000Y-43334000D01*
X84360000Y-45744000D02*
X84360000Y-46074000D01*
X84360000Y-46074000D02*
X90900000Y-46074000D01*
X90900000Y-43334000D02*
X90900000Y-43664000D01*
X90900000Y-46074000D02*
X90900000Y-45744000D01*
%TO.C,R8*%
X44540000Y-32630000D02*
X44540000Y-32960000D01*
X44540000Y-35370000D02*
X44540000Y-35040000D01*
X51080000Y-32630000D02*
X44540000Y-32630000D01*
X51080000Y-32960000D02*
X51080000Y-32630000D01*
X51080000Y-35040000D02*
X51080000Y-35370000D01*
X51080000Y-35370000D02*
X44540000Y-35370000D01*
%TO.C,R3*%
X65310000Y-31650000D02*
X65310000Y-31980000D01*
X65310000Y-34390000D02*
X65310000Y-34060000D01*
X71850000Y-31650000D02*
X65310000Y-31650000D01*
X71850000Y-31980000D02*
X71850000Y-31650000D01*
X71850000Y-34060000D02*
X71850000Y-34390000D01*
X71850000Y-34390000D02*
X65310000Y-34390000D01*
%TO.C,R6*%
X94266000Y-43334000D02*
X100806000Y-43334000D01*
X94266000Y-43664000D02*
X94266000Y-43334000D01*
X94266000Y-45744000D02*
X94266000Y-46074000D01*
X94266000Y-46074000D02*
X100806000Y-46074000D01*
X100806000Y-43334000D02*
X100806000Y-43664000D01*
X100806000Y-46074000D02*
X100806000Y-45744000D01*
%TO.C,R9*%
X44540000Y-39630000D02*
X44540000Y-39960000D01*
X44540000Y-42370000D02*
X44540000Y-42040000D01*
X51080000Y-39630000D02*
X44540000Y-39630000D01*
X51080000Y-39960000D02*
X51080000Y-39630000D01*
X51080000Y-42040000D02*
X51080000Y-42370000D01*
X51080000Y-42370000D02*
X44540000Y-42370000D01*
%TO.C,J1*%
D13*
X77095000Y-28725000D02*
X77095000Y-41275000D01*
X77095000Y-41275000D02*
X107905000Y-41275000D01*
D14*
X87020000Y-28180000D02*
X87020000Y-28180000D01*
X87020000Y-28280000D02*
X87020000Y-28280000D01*
D13*
X107905000Y-28725000D02*
X77095000Y-28725000D01*
X107905000Y-41275000D02*
X107905000Y-28725000D01*
D14*
X87020000Y-28180000D02*
G75*
G02*
X87020000Y-28280000I0J-50000D01*
G01*
X87020000Y-28280000D02*
G75*
G02*
X87020000Y-28180000I0J50000D01*
G01*
%TD*%
M02*
