%TF.GenerationSoftware,KiCad,Pcbnew,10.0.2*%
%TF.CreationDate,2026-05-11T18:43:04-07:00*%
%TF.ProjectId,panel,70616e65-6c2e-46b6-9963-61645f706362,rev?*%
%TF.SameCoordinates,Original*%
%TF.FileFunction,Legend,Top*%
%TF.FilePolarity,Positive*%
%FSLAX46Y46*%
G04 Gerber Fmt 4.6, Leading zero omitted, Abs format (unit mm)*
G04 Created by KiCad (PCBNEW 10.0.2) date 2026-05-11 18:43:04*
%MOMM*%
%LPD*%
G01*
G04 APERTURE LIST*
%ADD10C,0.300000*%
%ADD11C,0.000000*%
%ADD12C,0.150000*%
%ADD13C,0.254000*%
%ADD14C,0.200000*%
%ADD15C,0.120000*%
%ADD16C,0.100000*%
G04 APERTURE END LIST*
D10*
X168550828Y-30445489D02*
X167050828Y-30445489D01*
X167050828Y-30445489D02*
X167050828Y-29874060D01*
X167050828Y-29874060D02*
X167122257Y-29731203D01*
X167122257Y-29731203D02*
X167193685Y-29659774D01*
X167193685Y-29659774D02*
X167336542Y-29588346D01*
X167336542Y-29588346D02*
X167550828Y-29588346D01*
X167550828Y-29588346D02*
X167693685Y-29659774D01*
X167693685Y-29659774D02*
X167765114Y-29731203D01*
X167765114Y-29731203D02*
X167836542Y-29874060D01*
X167836542Y-29874060D02*
X167836542Y-30445489D01*
X168550828Y-28302632D02*
X167765114Y-28302632D01*
X167765114Y-28302632D02*
X167622257Y-28374060D01*
X167622257Y-28374060D02*
X167550828Y-28516917D01*
X167550828Y-28516917D02*
X167550828Y-28802632D01*
X167550828Y-28802632D02*
X167622257Y-28945489D01*
X168479400Y-28302632D02*
X168550828Y-28445489D01*
X168550828Y-28445489D02*
X168550828Y-28802632D01*
X168550828Y-28802632D02*
X168479400Y-28945489D01*
X168479400Y-28945489D02*
X168336542Y-29016917D01*
X168336542Y-29016917D02*
X168193685Y-29016917D01*
X168193685Y-29016917D02*
X168050828Y-28945489D01*
X168050828Y-28945489D02*
X167979400Y-28802632D01*
X167979400Y-28802632D02*
X167979400Y-28445489D01*
X167979400Y-28445489D02*
X167907971Y-28302632D01*
X167550828Y-27588346D02*
X168550828Y-27588346D01*
X167693685Y-27588346D02*
X167622257Y-27516917D01*
X167622257Y-27516917D02*
X167550828Y-27374060D01*
X167550828Y-27374060D02*
X167550828Y-27159774D01*
X167550828Y-27159774D02*
X167622257Y-27016917D01*
X167622257Y-27016917D02*
X167765114Y-26945489D01*
X167765114Y-26945489D02*
X168550828Y-26945489D01*
X168479400Y-25659774D02*
X168550828Y-25802631D01*
X168550828Y-25802631D02*
X168550828Y-26088346D01*
X168550828Y-26088346D02*
X168479400Y-26231203D01*
X168479400Y-26231203D02*
X168336542Y-26302631D01*
X168336542Y-26302631D02*
X167765114Y-26302631D01*
X167765114Y-26302631D02*
X167622257Y-26231203D01*
X167622257Y-26231203D02*
X167550828Y-26088346D01*
X167550828Y-26088346D02*
X167550828Y-25802631D01*
X167550828Y-25802631D02*
X167622257Y-25659774D01*
X167622257Y-25659774D02*
X167765114Y-25588346D01*
X167765114Y-25588346D02*
X167907971Y-25588346D01*
X167907971Y-25588346D02*
X168050828Y-26302631D01*
X168550828Y-24731203D02*
X168479400Y-24874060D01*
X168479400Y-24874060D02*
X168336542Y-24945489D01*
X168336542Y-24945489D02*
X167050828Y-24945489D01*
X167550828Y-23159775D02*
X168550828Y-22802632D01*
X168550828Y-22802632D02*
X167550828Y-22445489D01*
X168550828Y-21088346D02*
X168550828Y-21945489D01*
X168550828Y-21516918D02*
X167050828Y-21516918D01*
X167050828Y-21516918D02*
X167265114Y-21659775D01*
X167265114Y-21659775D02*
X167407971Y-21802632D01*
X167407971Y-21802632D02*
X167479400Y-21945489D01*
D11*
G36*
X167756819Y-39042187D02*
G01*
X167536442Y-39042187D01*
X167536442Y-38694668D01*
X167756819Y-38694668D01*
X167756819Y-39042187D01*
G37*
G36*
X167756819Y-42021791D02*
G01*
X167536442Y-42021791D01*
X167536442Y-41674270D01*
X167756819Y-41674270D01*
X167756819Y-42021791D01*
G37*
G36*
X167756819Y-46802294D02*
G01*
X167536442Y-46802294D01*
X167536442Y-46454778D01*
X167756819Y-46454778D01*
X167756819Y-46802294D01*
G37*
G36*
X168129767Y-38092866D02*
G01*
X168172147Y-38143722D01*
X168723091Y-38143722D01*
X168723091Y-38491241D01*
X167858533Y-38491241D01*
X167858533Y-38211534D01*
X167926340Y-38211534D01*
X167926340Y-38177626D01*
X167858533Y-38101342D01*
X167858533Y-37804681D01*
X168129767Y-37804681D01*
X168129767Y-38092866D01*
G37*
G36*
X168723091Y-39042187D02*
G01*
X167858533Y-39042187D01*
X167858533Y-38694668D01*
X168723091Y-38694668D01*
X168723091Y-39042187D01*
G37*
G36*
X168723091Y-39786863D02*
G01*
X168400207Y-39907593D01*
X168400207Y-40820096D01*
X168723091Y-40943634D01*
X168723091Y-41530441D01*
X168554630Y-41530441D01*
X167894820Y-41251056D01*
X166757703Y-40769558D01*
X166757703Y-40323133D01*
X167291165Y-40323133D01*
X167291165Y-40393325D01*
X167894820Y-40626364D01*
X167894820Y-40095710D01*
X167291165Y-40323133D01*
X166757703Y-40323133D01*
X166757703Y-39932864D01*
X168554630Y-39186014D01*
X168723091Y-39186014D01*
X168723091Y-39786863D01*
G37*
G36*
X168723091Y-42021791D02*
G01*
X167858533Y-42021791D01*
X167858533Y-41674270D01*
X168723091Y-41674270D01*
X168723091Y-42021791D01*
G37*
G36*
X168129767Y-42640544D02*
G01*
X168172147Y-42682924D01*
X168409476Y-42682924D01*
X168451857Y-42640544D01*
X168451857Y-42199787D01*
X168723091Y-42199787D01*
X168723091Y-42827019D01*
X168519665Y-43030444D01*
X168061957Y-43030444D01*
X167858533Y-42827019D01*
X167858533Y-42199787D01*
X168129767Y-42199787D01*
X168129767Y-42640544D01*
G37*
G36*
X168129767Y-43598340D02*
G01*
X168172147Y-43640722D01*
X168409476Y-43640722D01*
X168451857Y-43598340D01*
X168451857Y-43157585D01*
X168723091Y-43157585D01*
X168723091Y-43784813D01*
X168519665Y-43988240D01*
X168061957Y-43988240D01*
X167858533Y-43784813D01*
X167858533Y-43157585D01*
X168129767Y-43157585D01*
X168129767Y-43598340D01*
G37*
G36*
X168723091Y-44454422D02*
G01*
X168655282Y-44454422D01*
X168655282Y-44488326D01*
X168723091Y-44564613D01*
X168723091Y-44912130D01*
X168528141Y-45107080D01*
X167858533Y-45107080D01*
X167858533Y-44759561D01*
X168417953Y-44759561D01*
X168451857Y-44725657D01*
X168451857Y-44573088D01*
X168409476Y-44522232D01*
X167858533Y-44522232D01*
X167858533Y-44174714D01*
X168723091Y-44174714D01*
X168723091Y-44454422D01*
G37*
G36*
X168723091Y-45590217D02*
G01*
X168655282Y-45590217D01*
X168655282Y-45627514D01*
X168723091Y-45708882D01*
X168723091Y-46064877D01*
X168519665Y-46268301D01*
X168172147Y-46268301D01*
X168061957Y-46268301D01*
X167858533Y-46064877D01*
X167858533Y-45878402D01*
X168129767Y-45878402D01*
X168172147Y-45920784D01*
X168409476Y-45920784D01*
X168451857Y-45878402D01*
X168451857Y-45717359D01*
X168409476Y-45658026D01*
X168129767Y-45658026D01*
X168129767Y-45878402D01*
X167858533Y-45878402D01*
X167858533Y-45658026D01*
X167536442Y-45658026D01*
X167536442Y-45310506D01*
X168723091Y-45310506D01*
X168723091Y-45590217D01*
G37*
G36*
X168723091Y-46802294D02*
G01*
X167858533Y-46802294D01*
X167858533Y-46454778D01*
X168723091Y-46454778D01*
X168723091Y-46802294D01*
G37*
G36*
X167263087Y-48069205D02*
G01*
X167642127Y-48069205D01*
X167642127Y-47254972D01*
X168119437Y-47254972D01*
X168119437Y-48069205D01*
X168723091Y-48069205D01*
X168723091Y-48686894D01*
X166757703Y-48686894D01*
X166757703Y-46946123D01*
X167263087Y-46946123D01*
X167263087Y-48069205D01*
G37*
G36*
X164905573Y-31631379D02*
G01*
X164873989Y-31723831D01*
X164844060Y-31815886D01*
X164813834Y-31915014D01*
X164766749Y-32081449D01*
X164726072Y-32249515D01*
X164691409Y-32418967D01*
X164662372Y-32589557D01*
X164638570Y-32761036D01*
X164619608Y-32933146D01*
X164605099Y-33105649D01*
X164594647Y-33278289D01*
X164594287Y-33328152D01*
X164595116Y-33377989D01*
X164597106Y-33427787D01*
X164600218Y-33477527D01*
X164609687Y-33576787D01*
X164623252Y-33675641D01*
X164640645Y-33773967D01*
X164661600Y-33871637D01*
X164685845Y-33968533D01*
X164713112Y-34064528D01*
X164738170Y-34143206D01*
X164765465Y-34221012D01*
X164794973Y-34297886D01*
X164826669Y-34373796D01*
X164860524Y-34448690D01*
X164896513Y-34522525D01*
X164934612Y-34595258D01*
X164974793Y-34666843D01*
X165017032Y-34737231D01*
X165061298Y-34806382D01*
X165107570Y-34874250D01*
X165155819Y-34940789D01*
X165206022Y-35005956D01*
X165258149Y-35069700D01*
X165312175Y-35131984D01*
X165368073Y-35192759D01*
X165447050Y-35275334D01*
X165487233Y-35316892D01*
X165526732Y-35357292D01*
X165711811Y-35542200D01*
X165899738Y-35724203D01*
X166089819Y-35904032D01*
X166281369Y-36082400D01*
X166666108Y-36437668D01*
X167048433Y-36795785D01*
X167174825Y-36918213D01*
X167237581Y-36979998D01*
X167299774Y-37042379D01*
X167361201Y-37105524D01*
X167421659Y-37169590D01*
X167480947Y-37234742D01*
X167538860Y-37301140D01*
X167547753Y-37311444D01*
X167555409Y-37320129D01*
X167567680Y-37333613D01*
X167584652Y-37351852D01*
X167588280Y-37356010D01*
X167591991Y-37360494D01*
X167595952Y-37365545D01*
X167600325Y-37371409D01*
X167605275Y-37378333D01*
X167610970Y-37386550D01*
X167625242Y-37407852D01*
X167524876Y-37407852D01*
X167508527Y-37386639D01*
X167493860Y-37368233D01*
X167480596Y-37352260D01*
X167468463Y-37338353D01*
X167457188Y-37326137D01*
X167446500Y-37315243D01*
X167436124Y-37305295D01*
X167425786Y-37295925D01*
X167404146Y-37277430D01*
X167379389Y-37256781D01*
X167349335Y-37231006D01*
X167331642Y-37215267D01*
X167311803Y-37197132D01*
X167053464Y-36971660D01*
X166789693Y-36752771D01*
X166522250Y-36538309D01*
X166252885Y-36326117D01*
X165715413Y-35899925D01*
X165450818Y-35681612D01*
X165191318Y-35456953D01*
X165084926Y-35355836D01*
X164982470Y-35250113D01*
X164884262Y-35140002D01*
X164790610Y-35025713D01*
X164701816Y-34907468D01*
X164618189Y-34785476D01*
X164540038Y-34659952D01*
X164467663Y-34531112D01*
X164401379Y-34399174D01*
X164341490Y-34264353D01*
X164288301Y-34126856D01*
X164242117Y-33986910D01*
X164203250Y-33844720D01*
X164172004Y-33700508D01*
X164148685Y-33554480D01*
X164133603Y-33406864D01*
X164124680Y-33200369D01*
X164121559Y-32993248D01*
X164125073Y-32785948D01*
X164136056Y-32578905D01*
X164155341Y-32372569D01*
X164168359Y-32269809D01*
X164183762Y-32167386D01*
X164201658Y-32065363D01*
X164222150Y-31963791D01*
X164245342Y-31862729D01*
X164271342Y-31762233D01*
X164284204Y-31712844D01*
X164292058Y-31680150D01*
X164300281Y-31643167D01*
X164304424Y-31628035D01*
X164311104Y-31607921D01*
X164322208Y-31577405D01*
X164339622Y-31531065D01*
X164940758Y-31531065D01*
X164905573Y-31631379D01*
G37*
G36*
X166038269Y-31622232D02*
G01*
X165984186Y-31714497D01*
X165932643Y-31807923D01*
X165883579Y-31902474D01*
X165836918Y-31998097D01*
X165792597Y-32094754D01*
X165750551Y-32192398D01*
X165710701Y-32290986D01*
X165672992Y-32390475D01*
X165637349Y-32490818D01*
X165603710Y-32591972D01*
X165572005Y-32693890D01*
X165514118Y-32899854D01*
X165463152Y-33108353D01*
X165442498Y-33207842D01*
X165424755Y-33304504D01*
X165410130Y-33398687D01*
X165398841Y-33490722D01*
X165391101Y-33580952D01*
X165387125Y-33669723D01*
X165387125Y-33757362D01*
X165391315Y-33844213D01*
X165399911Y-33930622D01*
X165413123Y-34016919D01*
X165431170Y-34103445D01*
X165454261Y-34190546D01*
X165482610Y-34278554D01*
X165516436Y-34367811D01*
X165555949Y-34458655D01*
X165601360Y-34551429D01*
X165639802Y-34623147D01*
X165680294Y-34693410D01*
X165722712Y-34762397D01*
X165766921Y-34830268D01*
X165812796Y-34897203D01*
X165860203Y-34963360D01*
X165909016Y-35028916D01*
X165959104Y-35094039D01*
X166046323Y-35203036D01*
X166135477Y-35310321D01*
X166318787Y-35520488D01*
X166507406Y-35726008D01*
X166699711Y-35928343D01*
X167088877Y-36329318D01*
X167282487Y-36530894D01*
X167473282Y-36735145D01*
X167619718Y-36897322D01*
X167689148Y-36976160D01*
X167756016Y-37055499D01*
X167788481Y-37095826D01*
X167820296Y-37136838D01*
X167851456Y-37178727D01*
X167881958Y-37221677D01*
X167911798Y-37265877D01*
X167940977Y-37311516D01*
X167969487Y-37358777D01*
X167997324Y-37407852D01*
X167910589Y-37407852D01*
X167881585Y-37362088D01*
X167852436Y-37318800D01*
X167823073Y-37277692D01*
X167793430Y-37238489D01*
X167763439Y-37200907D01*
X167733031Y-37164664D01*
X167702137Y-37129477D01*
X167670695Y-37095062D01*
X167605880Y-37027419D01*
X167538042Y-36959479D01*
X167391132Y-36813650D01*
X167230894Y-36656667D01*
X167068869Y-36501449D01*
X166742461Y-36193123D01*
X166579576Y-36038431D01*
X166417902Y-35882331D01*
X166258191Y-35724026D01*
X166101191Y-35562726D01*
X165943120Y-35393903D01*
X165865518Y-35307094D01*
X165789458Y-35218574D01*
X165715378Y-35128265D01*
X165643728Y-35036074D01*
X165574941Y-34941923D01*
X165509456Y-34845726D01*
X165447720Y-34747396D01*
X165390172Y-34646852D01*
X165337246Y-34544010D01*
X165289391Y-34438787D01*
X165247048Y-34331094D01*
X165210650Y-34220847D01*
X165180645Y-34107970D01*
X165157473Y-33992367D01*
X165139937Y-33851027D01*
X165130027Y-33708051D01*
X165127333Y-33563778D01*
X165131447Y-33418549D01*
X165141961Y-33272700D01*
X165158465Y-33126569D01*
X165180546Y-32980493D01*
X165207801Y-32834815D01*
X165239818Y-32689868D01*
X165276189Y-32545992D01*
X165316505Y-32403523D01*
X165360355Y-32262804D01*
X165407331Y-32124169D01*
X165457026Y-31987956D01*
X165562932Y-31724156D01*
X165581187Y-31680703D01*
X165591734Y-31653510D01*
X165600949Y-31626433D01*
X165605241Y-31615808D01*
X165613072Y-31599971D01*
X165627256Y-31573554D01*
X165650602Y-31531179D01*
X166094962Y-31531179D01*
X166038269Y-31622232D01*
G37*
G36*
X167067488Y-31711303D02*
G01*
X166953974Y-31890911D01*
X166843983Y-32071270D01*
X166737994Y-32253188D01*
X166636477Y-32437465D01*
X166539908Y-32624898D01*
X166448758Y-32816291D01*
X166405363Y-32913729D01*
X166363504Y-33012453D01*
X166279489Y-33229971D01*
X166244731Y-33333398D01*
X166214711Y-33433520D01*
X166189353Y-33530532D01*
X166168586Y-33624622D01*
X166152335Y-33715980D01*
X166140532Y-33804796D01*
X166133096Y-33891259D01*
X166129962Y-33975559D01*
X166131051Y-34057884D01*
X166136292Y-34138429D01*
X166145616Y-34217379D01*
X166158942Y-34294927D01*
X166176203Y-34371262D01*
X166197325Y-34446569D01*
X166222232Y-34521044D01*
X166250858Y-34594877D01*
X166318953Y-34741366D01*
X166401036Y-34887559D01*
X166496511Y-35034971D01*
X166604804Y-35185124D01*
X166725324Y-35339536D01*
X166857490Y-35499720D01*
X167000718Y-35667204D01*
X167178971Y-35874494D01*
X167353892Y-36083211D01*
X167524916Y-36294113D01*
X167691465Y-36507954D01*
X167852970Y-36725496D01*
X168008855Y-36947488D01*
X168158547Y-37174687D01*
X168230892Y-37290475D01*
X168301474Y-37407852D01*
X168207808Y-37407852D01*
X168058695Y-37179506D01*
X167909290Y-36965642D01*
X167612321Y-36576844D01*
X167322328Y-36232452D01*
X167044738Y-35923466D01*
X166548473Y-35375682D01*
X166340655Y-35118879D01*
X166249196Y-34990806D01*
X166166945Y-34861459D01*
X166094577Y-34729706D01*
X166032772Y-34594423D01*
X165982211Y-34454482D01*
X165943564Y-34308764D01*
X165917518Y-34156135D01*
X165904749Y-33995474D01*
X165905933Y-33825657D01*
X165921752Y-33645554D01*
X165952881Y-33454045D01*
X166000000Y-33250000D01*
X166063788Y-33032295D01*
X166144923Y-32799803D01*
X166244081Y-32551404D01*
X166361943Y-32285963D01*
X166499187Y-32002364D01*
X166656490Y-31699474D01*
X166701239Y-31614283D01*
X166712882Y-31593091D01*
X166747218Y-31531651D01*
X167184055Y-31531651D01*
X167067488Y-31711303D01*
G37*
G36*
X167997324Y-32006330D02*
G01*
X167937298Y-32081161D01*
X167879306Y-32154733D01*
X167822949Y-32227665D01*
X167767842Y-32300582D01*
X167713588Y-32374101D01*
X167659797Y-32448851D01*
X167606073Y-32525451D01*
X167552025Y-32604527D01*
X167434589Y-32785223D01*
X167320920Y-32970228D01*
X167266302Y-33064385D01*
X167213588Y-33159659D01*
X167163100Y-33256068D01*
X167115158Y-33353628D01*
X167070084Y-33452343D01*
X167028198Y-33552242D01*
X166989822Y-33653328D01*
X166955272Y-33755618D01*
X166924878Y-33859131D01*
X166898955Y-33963875D01*
X166877822Y-34069864D01*
X166861806Y-34177115D01*
X166855857Y-34237339D01*
X166853612Y-34298143D01*
X166854908Y-34359456D01*
X166859585Y-34421222D01*
X166867478Y-34483373D01*
X166878425Y-34545848D01*
X166908827Y-34671512D01*
X166949495Y-34797705D01*
X166999122Y-34923921D01*
X167056407Y-35049647D01*
X167120050Y-35174380D01*
X167188748Y-35297612D01*
X167261202Y-35418835D01*
X167412166Y-35653208D01*
X167701867Y-36075482D01*
X167926827Y-36398096D01*
X168038260Y-36560640D01*
X168147476Y-36724744D01*
X168253323Y-36890964D01*
X168354660Y-37059853D01*
X168403281Y-37145470D01*
X168450343Y-37231963D01*
X168495707Y-37319401D01*
X168539226Y-37407852D01*
X168463658Y-37407852D01*
X168398314Y-37276785D01*
X168329290Y-37148625D01*
X168256985Y-37023033D01*
X168181789Y-36899675D01*
X168104094Y-36778213D01*
X168024297Y-36658305D01*
X167859967Y-36421811D01*
X167523380Y-35952648D01*
X167357423Y-35714581D01*
X167197219Y-35470584D01*
X167119473Y-35343378D01*
X167044043Y-35213686D01*
X167007829Y-35147835D01*
X166972955Y-35081278D01*
X166939679Y-35013979D01*
X166908241Y-34945915D01*
X166878909Y-34877051D01*
X166851929Y-34807361D01*
X166827557Y-34736814D01*
X166806047Y-34665383D01*
X166787648Y-34593037D01*
X166772620Y-34519743D01*
X166761214Y-34445477D01*
X166753683Y-34370206D01*
X166754187Y-34240869D01*
X166764703Y-34109943D01*
X166784443Y-33977861D01*
X166812625Y-33845052D01*
X166848466Y-33711945D01*
X166891182Y-33578971D01*
X166939990Y-33446556D01*
X166994108Y-33315136D01*
X167052751Y-33185137D01*
X167115138Y-33056988D01*
X167180480Y-32931119D01*
X167247998Y-32807961D01*
X167386434Y-32571493D01*
X167524171Y-32351027D01*
X167605226Y-32227054D01*
X167688265Y-32104227D01*
X167772669Y-31982545D01*
X167857822Y-31862009D01*
X167997324Y-32006330D01*
G37*
G36*
X168758407Y-32768239D02*
G01*
X168732520Y-32801055D01*
X168707523Y-32832152D01*
X168658953Y-32891181D01*
X168558616Y-33010691D01*
X168414146Y-33185160D01*
X168259062Y-33376552D01*
X168101535Y-33581310D01*
X168024406Y-33687592D01*
X167949724Y-33795884D01*
X167878516Y-33905740D01*
X167811798Y-34016720D01*
X167750589Y-34128377D01*
X167695917Y-34240270D01*
X167648797Y-34351950D01*
X167610249Y-34462978D01*
X167594510Y-34518108D01*
X167581295Y-34572908D01*
X167570733Y-34627320D01*
X167562955Y-34681295D01*
X167559317Y-34739284D01*
X167559790Y-34798030D01*
X167564056Y-34857370D01*
X167571802Y-34917139D01*
X167582713Y-34977173D01*
X167596471Y-35037313D01*
X167612767Y-35097387D01*
X167631279Y-35157238D01*
X167651696Y-35216699D01*
X167673705Y-35275611D01*
X167721231Y-35391122D01*
X167771337Y-35502462D01*
X167821506Y-35608325D01*
X167915945Y-35794607D01*
X168013264Y-35979621D01*
X168212274Y-36347797D01*
X168409960Y-36716795D01*
X168505630Y-36902826D01*
X168597752Y-37090536D01*
X168616726Y-37128929D01*
X168636936Y-37168280D01*
X168679212Y-37248666D01*
X168700358Y-37289106D01*
X168720894Y-37329318D01*
X168740359Y-37368998D01*
X168758290Y-37407852D01*
X168705287Y-37407852D01*
X168694123Y-37385992D01*
X168584608Y-37161117D01*
X168469777Y-36941390D01*
X168350901Y-36725351D01*
X168229255Y-36511540D01*
X167982741Y-36084754D01*
X167860420Y-35868855D01*
X167740415Y-35649341D01*
X167689813Y-35549539D01*
X167640638Y-35448305D01*
X167594135Y-35345538D01*
X167572271Y-35293547D01*
X167551538Y-35241134D01*
X167532098Y-35188288D01*
X167514095Y-35134998D01*
X167497692Y-35081244D01*
X167483043Y-35027022D01*
X167470303Y-34972315D01*
X167459623Y-34917111D01*
X167451163Y-34861399D01*
X167445077Y-34805165D01*
X167442960Y-34738056D01*
X167443673Y-34713145D01*
X167444940Y-34688265D01*
X167446759Y-34663423D01*
X167449130Y-34638633D01*
X167452053Y-34613898D01*
X167455524Y-34589236D01*
X167459546Y-34564648D01*
X167464115Y-34540149D01*
X167476313Y-34484917D01*
X167490444Y-34430274D01*
X167506394Y-34376201D01*
X167524051Y-34322690D01*
X167543304Y-34269728D01*
X167564043Y-34217299D01*
X167586152Y-34165392D01*
X167609523Y-34113991D01*
X167634042Y-34063085D01*
X167659598Y-34012663D01*
X167713372Y-33913202D01*
X167769949Y-33815512D01*
X167828440Y-33719478D01*
X167920044Y-33578264D01*
X168015855Y-33440074D01*
X168114984Y-33304298D01*
X168216537Y-33170333D01*
X168629132Y-32640487D01*
X168758407Y-32768239D01*
G37*
D10*
X16800828Y-41928571D02*
X17872257Y-41928571D01*
X17872257Y-41928571D02*
X18086542Y-42000000D01*
X18086542Y-42000000D02*
X18229400Y-42142857D01*
X18229400Y-42142857D02*
X18300828Y-42357143D01*
X18300828Y-42357143D02*
X18300828Y-42500000D01*
X18300828Y-40500000D02*
X18300828Y-41214286D01*
X18300828Y-41214286D02*
X16800828Y-41214286D01*
X18157971Y-39142857D02*
X18229400Y-39214285D01*
X18229400Y-39214285D02*
X18300828Y-39428571D01*
X18300828Y-39428571D02*
X18300828Y-39571428D01*
X18300828Y-39571428D02*
X18229400Y-39785714D01*
X18229400Y-39785714D02*
X18086542Y-39928571D01*
X18086542Y-39928571D02*
X17943685Y-40000000D01*
X17943685Y-40000000D02*
X17657971Y-40071428D01*
X17657971Y-40071428D02*
X17443685Y-40071428D01*
X17443685Y-40071428D02*
X17157971Y-40000000D01*
X17157971Y-40000000D02*
X17015114Y-39928571D01*
X17015114Y-39928571D02*
X16872257Y-39785714D01*
X16872257Y-39785714D02*
X16800828Y-39571428D01*
X16800828Y-39571428D02*
X16800828Y-39428571D01*
X16800828Y-39428571D02*
X16872257Y-39214285D01*
X16872257Y-39214285D02*
X16943685Y-39142857D01*
X16800828Y-38071428D02*
X17872257Y-38071428D01*
X17872257Y-38071428D02*
X18086542Y-38142857D01*
X18086542Y-38142857D02*
X18229400Y-38285714D01*
X18229400Y-38285714D02*
X18300828Y-38500000D01*
X18300828Y-38500000D02*
X18300828Y-38642857D01*
X18300828Y-36642857D02*
X18300828Y-37357143D01*
X18300828Y-37357143D02*
X16800828Y-37357143D01*
X18157971Y-35285714D02*
X18229400Y-35357142D01*
X18229400Y-35357142D02*
X18300828Y-35571428D01*
X18300828Y-35571428D02*
X18300828Y-35714285D01*
X18300828Y-35714285D02*
X18229400Y-35928571D01*
X18229400Y-35928571D02*
X18086542Y-36071428D01*
X18086542Y-36071428D02*
X17943685Y-36142857D01*
X17943685Y-36142857D02*
X17657971Y-36214285D01*
X17657971Y-36214285D02*
X17443685Y-36214285D01*
X17443685Y-36214285D02*
X17157971Y-36142857D01*
X17157971Y-36142857D02*
X17015114Y-36071428D01*
X17015114Y-36071428D02*
X16872257Y-35928571D01*
X16872257Y-35928571D02*
X16800828Y-35714285D01*
X16800828Y-35714285D02*
X16800828Y-35571428D01*
X16800828Y-35571428D02*
X16872257Y-35357142D01*
X16872257Y-35357142D02*
X16943685Y-35285714D01*
X16800828Y-34214285D02*
X17872257Y-34214285D01*
X17872257Y-34214285D02*
X18086542Y-34285714D01*
X18086542Y-34285714D02*
X18229400Y-34428571D01*
X18229400Y-34428571D02*
X18300828Y-34642857D01*
X18300828Y-34642857D02*
X18300828Y-34785714D01*
X18300828Y-32785714D02*
X18300828Y-33500000D01*
X18300828Y-33500000D02*
X16800828Y-33500000D01*
X18157971Y-31428571D02*
X18229400Y-31499999D01*
X18229400Y-31499999D02*
X18300828Y-31714285D01*
X18300828Y-31714285D02*
X18300828Y-31857142D01*
X18300828Y-31857142D02*
X18229400Y-32071428D01*
X18229400Y-32071428D02*
X18086542Y-32214285D01*
X18086542Y-32214285D02*
X17943685Y-32285714D01*
X17943685Y-32285714D02*
X17657971Y-32357142D01*
X17657971Y-32357142D02*
X17443685Y-32357142D01*
X17443685Y-32357142D02*
X17157971Y-32285714D01*
X17157971Y-32285714D02*
X17015114Y-32214285D01*
X17015114Y-32214285D02*
X16872257Y-32071428D01*
X16872257Y-32071428D02*
X16800828Y-31857142D01*
X16800828Y-31857142D02*
X16800828Y-31714285D01*
X16800828Y-31714285D02*
X16872257Y-31499999D01*
X16872257Y-31499999D02*
X16943685Y-31428571D01*
X16800828Y-30357142D02*
X17872257Y-30357142D01*
X17872257Y-30357142D02*
X18086542Y-30428571D01*
X18086542Y-30428571D02*
X18229400Y-30571428D01*
X18229400Y-30571428D02*
X18300828Y-30785714D01*
X18300828Y-30785714D02*
X18300828Y-30928571D01*
X18300828Y-28928571D02*
X18300828Y-29642857D01*
X18300828Y-29642857D02*
X16800828Y-29642857D01*
X18157971Y-27571428D02*
X18229400Y-27642856D01*
X18229400Y-27642856D02*
X18300828Y-27857142D01*
X18300828Y-27857142D02*
X18300828Y-27999999D01*
X18300828Y-27999999D02*
X18229400Y-28214285D01*
X18229400Y-28214285D02*
X18086542Y-28357142D01*
X18086542Y-28357142D02*
X17943685Y-28428571D01*
X17943685Y-28428571D02*
X17657971Y-28499999D01*
X17657971Y-28499999D02*
X17443685Y-28499999D01*
X17443685Y-28499999D02*
X17157971Y-28428571D01*
X17157971Y-28428571D02*
X17015114Y-28357142D01*
X17015114Y-28357142D02*
X16872257Y-28214285D01*
X16872257Y-28214285D02*
X16800828Y-27999999D01*
X16800828Y-27999999D02*
X16800828Y-27857142D01*
X16800828Y-27857142D02*
X16872257Y-27642856D01*
X16872257Y-27642856D02*
X16943685Y-27571428D01*
D12*
X36171428Y-33926628D02*
X36171428Y-34402819D01*
X35838095Y-33402819D02*
X36171428Y-33926628D01*
X36171428Y-33926628D02*
X36504761Y-33402819D01*
X37219047Y-34355200D02*
X37123809Y-34402819D01*
X37123809Y-34402819D02*
X36933333Y-34402819D01*
X36933333Y-34402819D02*
X36838095Y-34355200D01*
X36838095Y-34355200D02*
X36790476Y-34259961D01*
X36790476Y-34259961D02*
X36790476Y-33879009D01*
X36790476Y-33879009D02*
X36838095Y-33783771D01*
X36838095Y-33783771D02*
X36933333Y-33736152D01*
X36933333Y-33736152D02*
X37123809Y-33736152D01*
X37123809Y-33736152D02*
X37219047Y-33783771D01*
X37219047Y-33783771D02*
X37266666Y-33879009D01*
X37266666Y-33879009D02*
X37266666Y-33974247D01*
X37266666Y-33974247D02*
X36790476Y-34069485D01*
X37838095Y-34402819D02*
X37742857Y-34355200D01*
X37742857Y-34355200D02*
X37695238Y-34259961D01*
X37695238Y-34259961D02*
X37695238Y-33402819D01*
X38361905Y-34402819D02*
X38266667Y-34355200D01*
X38266667Y-34355200D02*
X38219048Y-34259961D01*
X38219048Y-34259961D02*
X38219048Y-33402819D01*
X38885715Y-34402819D02*
X38790477Y-34355200D01*
X38790477Y-34355200D02*
X38742858Y-34307580D01*
X38742858Y-34307580D02*
X38695239Y-34212342D01*
X38695239Y-34212342D02*
X38695239Y-33926628D01*
X38695239Y-33926628D02*
X38742858Y-33831390D01*
X38742858Y-33831390D02*
X38790477Y-33783771D01*
X38790477Y-33783771D02*
X38885715Y-33736152D01*
X38885715Y-33736152D02*
X39028572Y-33736152D01*
X39028572Y-33736152D02*
X39123810Y-33783771D01*
X39123810Y-33783771D02*
X39171429Y-33831390D01*
X39171429Y-33831390D02*
X39219048Y-33926628D01*
X39219048Y-33926628D02*
X39219048Y-34212342D01*
X39219048Y-34212342D02*
X39171429Y-34307580D01*
X39171429Y-34307580D02*
X39123810Y-34355200D01*
X39123810Y-34355200D02*
X39028572Y-34402819D01*
X39028572Y-34402819D02*
X38885715Y-34402819D01*
X39552382Y-33736152D02*
X39742858Y-34402819D01*
X39742858Y-34402819D02*
X39933334Y-33926628D01*
X39933334Y-33926628D02*
X40123810Y-34402819D01*
X40123810Y-34402819D02*
X40314286Y-33736152D01*
X31694571Y-33879009D02*
X31837428Y-33926628D01*
X31837428Y-33926628D02*
X31885047Y-33974247D01*
X31885047Y-33974247D02*
X31932666Y-34069485D01*
X31932666Y-34069485D02*
X31932666Y-34212342D01*
X31932666Y-34212342D02*
X31885047Y-34307580D01*
X31885047Y-34307580D02*
X31837428Y-34355200D01*
X31837428Y-34355200D02*
X31742190Y-34402819D01*
X31742190Y-34402819D02*
X31361238Y-34402819D01*
X31361238Y-34402819D02*
X31361238Y-33402819D01*
X31361238Y-33402819D02*
X31694571Y-33402819D01*
X31694571Y-33402819D02*
X31789809Y-33450438D01*
X31789809Y-33450438D02*
X31837428Y-33498057D01*
X31837428Y-33498057D02*
X31885047Y-33593295D01*
X31885047Y-33593295D02*
X31885047Y-33688533D01*
X31885047Y-33688533D02*
X31837428Y-33783771D01*
X31837428Y-33783771D02*
X31789809Y-33831390D01*
X31789809Y-33831390D02*
X31694571Y-33879009D01*
X31694571Y-33879009D02*
X31361238Y-33879009D01*
X32504095Y-34402819D02*
X32408857Y-34355200D01*
X32408857Y-34355200D02*
X32361238Y-34259961D01*
X32361238Y-34259961D02*
X32361238Y-33402819D01*
X33313619Y-33736152D02*
X33313619Y-34402819D01*
X32885048Y-33736152D02*
X32885048Y-34259961D01*
X32885048Y-34259961D02*
X32932667Y-34355200D01*
X32932667Y-34355200D02*
X33027905Y-34402819D01*
X33027905Y-34402819D02*
X33170762Y-34402819D01*
X33170762Y-34402819D02*
X33266000Y-34355200D01*
X33266000Y-34355200D02*
X33313619Y-34307580D01*
X34170762Y-34355200D02*
X34075524Y-34402819D01*
X34075524Y-34402819D02*
X33885048Y-34402819D01*
X33885048Y-34402819D02*
X33789810Y-34355200D01*
X33789810Y-34355200D02*
X33742191Y-34259961D01*
X33742191Y-34259961D02*
X33742191Y-33879009D01*
X33742191Y-33879009D02*
X33789810Y-33783771D01*
X33789810Y-33783771D02*
X33885048Y-33736152D01*
X33885048Y-33736152D02*
X34075524Y-33736152D01*
X34075524Y-33736152D02*
X34170762Y-33783771D01*
X34170762Y-33783771D02*
X34218381Y-33879009D01*
X34218381Y-33879009D02*
X34218381Y-33974247D01*
X34218381Y-33974247D02*
X33742191Y-34069485D01*
D13*
X29032380Y-44813842D02*
X29213809Y-44874318D01*
X29213809Y-44874318D02*
X29516190Y-44874318D01*
X29516190Y-44874318D02*
X29637142Y-44813842D01*
X29637142Y-44813842D02*
X29697618Y-44753365D01*
X29697618Y-44753365D02*
X29758095Y-44632413D01*
X29758095Y-44632413D02*
X29758095Y-44511461D01*
X29758095Y-44511461D02*
X29697618Y-44390508D01*
X29697618Y-44390508D02*
X29637142Y-44330032D01*
X29637142Y-44330032D02*
X29516190Y-44269556D01*
X29516190Y-44269556D02*
X29274285Y-44209080D01*
X29274285Y-44209080D02*
X29153333Y-44148603D01*
X29153333Y-44148603D02*
X29092856Y-44088127D01*
X29092856Y-44088127D02*
X29032380Y-43967175D01*
X29032380Y-43967175D02*
X29032380Y-43846222D01*
X29032380Y-43846222D02*
X29092856Y-43725270D01*
X29092856Y-43725270D02*
X29153333Y-43664794D01*
X29153333Y-43664794D02*
X29274285Y-43604318D01*
X29274285Y-43604318D02*
X29576666Y-43604318D01*
X29576666Y-43604318D02*
X29758095Y-43664794D01*
X30967619Y-44874318D02*
X30241904Y-44874318D01*
X30604761Y-44874318D02*
X30604761Y-43604318D01*
X30604761Y-43604318D02*
X30483809Y-43785746D01*
X30483809Y-43785746D02*
X30362857Y-43906699D01*
X30362857Y-43906699D02*
X30241904Y-43967175D01*
D12*
X25598667Y-33402819D02*
X25836762Y-34402819D01*
X25836762Y-34402819D02*
X26027238Y-33688533D01*
X26027238Y-33688533D02*
X26217714Y-34402819D01*
X26217714Y-34402819D02*
X26455810Y-33402819D01*
X26836762Y-34402819D02*
X26836762Y-33402819D01*
X27265333Y-34402819D02*
X27265333Y-33879009D01*
X27265333Y-33879009D02*
X27217714Y-33783771D01*
X27217714Y-33783771D02*
X27122476Y-33736152D01*
X27122476Y-33736152D02*
X26979619Y-33736152D01*
X26979619Y-33736152D02*
X26884381Y-33783771D01*
X26884381Y-33783771D02*
X26836762Y-33831390D01*
X27741524Y-34402819D02*
X27741524Y-33736152D01*
X27741524Y-33402819D02*
X27693905Y-33450438D01*
X27693905Y-33450438D02*
X27741524Y-33498057D01*
X27741524Y-33498057D02*
X27789143Y-33450438D01*
X27789143Y-33450438D02*
X27741524Y-33402819D01*
X27741524Y-33402819D02*
X27741524Y-33498057D01*
X28074857Y-33736152D02*
X28455809Y-33736152D01*
X28217714Y-33402819D02*
X28217714Y-34259961D01*
X28217714Y-34259961D02*
X28265333Y-34355200D01*
X28265333Y-34355200D02*
X28360571Y-34402819D01*
X28360571Y-34402819D02*
X28455809Y-34402819D01*
X29170095Y-34355200D02*
X29074857Y-34402819D01*
X29074857Y-34402819D02*
X28884381Y-34402819D01*
X28884381Y-34402819D02*
X28789143Y-34355200D01*
X28789143Y-34355200D02*
X28741524Y-34259961D01*
X28741524Y-34259961D02*
X28741524Y-33879009D01*
X28741524Y-33879009D02*
X28789143Y-33783771D01*
X28789143Y-33783771D02*
X28884381Y-33736152D01*
X28884381Y-33736152D02*
X29074857Y-33736152D01*
X29074857Y-33736152D02*
X29170095Y-33783771D01*
X29170095Y-33783771D02*
X29217714Y-33879009D01*
X29217714Y-33879009D02*
X29217714Y-33974247D01*
X29217714Y-33974247D02*
X28741524Y-34069485D01*
X25043428Y-21017009D02*
X25186285Y-21064628D01*
X25186285Y-21064628D02*
X25233904Y-21112247D01*
X25233904Y-21112247D02*
X25281523Y-21207485D01*
X25281523Y-21207485D02*
X25281523Y-21350342D01*
X25281523Y-21350342D02*
X25233904Y-21445580D01*
X25233904Y-21445580D02*
X25186285Y-21493200D01*
X25186285Y-21493200D02*
X25091047Y-21540819D01*
X25091047Y-21540819D02*
X24710095Y-21540819D01*
X24710095Y-21540819D02*
X24710095Y-20540819D01*
X24710095Y-20540819D02*
X25043428Y-20540819D01*
X25043428Y-20540819D02*
X25138666Y-20588438D01*
X25138666Y-20588438D02*
X25186285Y-20636057D01*
X25186285Y-20636057D02*
X25233904Y-20731295D01*
X25233904Y-20731295D02*
X25233904Y-20826533D01*
X25233904Y-20826533D02*
X25186285Y-20921771D01*
X25186285Y-20921771D02*
X25138666Y-20969390D01*
X25138666Y-20969390D02*
X25043428Y-21017009D01*
X25043428Y-21017009D02*
X24710095Y-21017009D01*
X25710095Y-21540819D02*
X25710095Y-20540819D01*
X25710095Y-20540819D02*
X26043428Y-21255104D01*
X26043428Y-21255104D02*
X26376761Y-20540819D01*
X26376761Y-20540819D02*
X26376761Y-21540819D01*
X26852952Y-21017009D02*
X27186285Y-21017009D01*
X27329142Y-21540819D02*
X26852952Y-21540819D01*
X26852952Y-21540819D02*
X26852952Y-20540819D01*
X26852952Y-20540819D02*
X27329142Y-20540819D01*
X27710095Y-20636057D02*
X27757714Y-20588438D01*
X27757714Y-20588438D02*
X27852952Y-20540819D01*
X27852952Y-20540819D02*
X28091047Y-20540819D01*
X28091047Y-20540819D02*
X28186285Y-20588438D01*
X28186285Y-20588438D02*
X28233904Y-20636057D01*
X28233904Y-20636057D02*
X28281523Y-20731295D01*
X28281523Y-20731295D02*
X28281523Y-20826533D01*
X28281523Y-20826533D02*
X28233904Y-20969390D01*
X28233904Y-20969390D02*
X27662476Y-21540819D01*
X27662476Y-21540819D02*
X28281523Y-21540819D01*
X28852952Y-20969390D02*
X28757714Y-20921771D01*
X28757714Y-20921771D02*
X28710095Y-20874152D01*
X28710095Y-20874152D02*
X28662476Y-20778914D01*
X28662476Y-20778914D02*
X28662476Y-20731295D01*
X28662476Y-20731295D02*
X28710095Y-20636057D01*
X28710095Y-20636057D02*
X28757714Y-20588438D01*
X28757714Y-20588438D02*
X28852952Y-20540819D01*
X28852952Y-20540819D02*
X29043428Y-20540819D01*
X29043428Y-20540819D02*
X29138666Y-20588438D01*
X29138666Y-20588438D02*
X29186285Y-20636057D01*
X29186285Y-20636057D02*
X29233904Y-20731295D01*
X29233904Y-20731295D02*
X29233904Y-20778914D01*
X29233904Y-20778914D02*
X29186285Y-20874152D01*
X29186285Y-20874152D02*
X29138666Y-20921771D01*
X29138666Y-20921771D02*
X29043428Y-20969390D01*
X29043428Y-20969390D02*
X28852952Y-20969390D01*
X28852952Y-20969390D02*
X28757714Y-21017009D01*
X28757714Y-21017009D02*
X28710095Y-21064628D01*
X28710095Y-21064628D02*
X28662476Y-21159866D01*
X28662476Y-21159866D02*
X28662476Y-21350342D01*
X28662476Y-21350342D02*
X28710095Y-21445580D01*
X28710095Y-21445580D02*
X28757714Y-21493200D01*
X28757714Y-21493200D02*
X28852952Y-21540819D01*
X28852952Y-21540819D02*
X29043428Y-21540819D01*
X29043428Y-21540819D02*
X29138666Y-21493200D01*
X29138666Y-21493200D02*
X29186285Y-21445580D01*
X29186285Y-21445580D02*
X29233904Y-21350342D01*
X29233904Y-21350342D02*
X29233904Y-21159866D01*
X29233904Y-21159866D02*
X29186285Y-21064628D01*
X29186285Y-21064628D02*
X29138666Y-21017009D01*
X29138666Y-21017009D02*
X29043428Y-20969390D01*
X29852952Y-20540819D02*
X29948190Y-20540819D01*
X29948190Y-20540819D02*
X30043428Y-20588438D01*
X30043428Y-20588438D02*
X30091047Y-20636057D01*
X30091047Y-20636057D02*
X30138666Y-20731295D01*
X30138666Y-20731295D02*
X30186285Y-20921771D01*
X30186285Y-20921771D02*
X30186285Y-21159866D01*
X30186285Y-21159866D02*
X30138666Y-21350342D01*
X30138666Y-21350342D02*
X30091047Y-21445580D01*
X30091047Y-21445580D02*
X30043428Y-21493200D01*
X30043428Y-21493200D02*
X29948190Y-21540819D01*
X29948190Y-21540819D02*
X29852952Y-21540819D01*
X29852952Y-21540819D02*
X29757714Y-21493200D01*
X29757714Y-21493200D02*
X29710095Y-21445580D01*
X29710095Y-21445580D02*
X29662476Y-21350342D01*
X29662476Y-21350342D02*
X29614857Y-21159866D01*
X29614857Y-21159866D02*
X29614857Y-20921771D01*
X29614857Y-20921771D02*
X29662476Y-20731295D01*
X29662476Y-20731295D02*
X29710095Y-20636057D01*
X29710095Y-20636057D02*
X29757714Y-20588438D01*
X29757714Y-20588438D02*
X29852952Y-20540819D01*
X31710095Y-21017009D02*
X31852952Y-21064628D01*
X31852952Y-21064628D02*
X31900571Y-21112247D01*
X31900571Y-21112247D02*
X31948190Y-21207485D01*
X31948190Y-21207485D02*
X31948190Y-21350342D01*
X31948190Y-21350342D02*
X31900571Y-21445580D01*
X31900571Y-21445580D02*
X31852952Y-21493200D01*
X31852952Y-21493200D02*
X31757714Y-21540819D01*
X31757714Y-21540819D02*
X31376762Y-21540819D01*
X31376762Y-21540819D02*
X31376762Y-20540819D01*
X31376762Y-20540819D02*
X31710095Y-20540819D01*
X31710095Y-20540819D02*
X31805333Y-20588438D01*
X31805333Y-20588438D02*
X31852952Y-20636057D01*
X31852952Y-20636057D02*
X31900571Y-20731295D01*
X31900571Y-20731295D02*
X31900571Y-20826533D01*
X31900571Y-20826533D02*
X31852952Y-20921771D01*
X31852952Y-20921771D02*
X31805333Y-20969390D01*
X31805333Y-20969390D02*
X31710095Y-21017009D01*
X31710095Y-21017009D02*
X31376762Y-21017009D01*
X32519619Y-21540819D02*
X32424381Y-21493200D01*
X32424381Y-21493200D02*
X32376762Y-21445580D01*
X32376762Y-21445580D02*
X32329143Y-21350342D01*
X32329143Y-21350342D02*
X32329143Y-21064628D01*
X32329143Y-21064628D02*
X32376762Y-20969390D01*
X32376762Y-20969390D02*
X32424381Y-20921771D01*
X32424381Y-20921771D02*
X32519619Y-20874152D01*
X32519619Y-20874152D02*
X32662476Y-20874152D01*
X32662476Y-20874152D02*
X32757714Y-20921771D01*
X32757714Y-20921771D02*
X32805333Y-20969390D01*
X32805333Y-20969390D02*
X32852952Y-21064628D01*
X32852952Y-21064628D02*
X32852952Y-21350342D01*
X32852952Y-21350342D02*
X32805333Y-21445580D01*
X32805333Y-21445580D02*
X32757714Y-21493200D01*
X32757714Y-21493200D02*
X32662476Y-21540819D01*
X32662476Y-21540819D02*
X32519619Y-21540819D01*
X33710095Y-21540819D02*
X33710095Y-21017009D01*
X33710095Y-21017009D02*
X33662476Y-20921771D01*
X33662476Y-20921771D02*
X33567238Y-20874152D01*
X33567238Y-20874152D02*
X33376762Y-20874152D01*
X33376762Y-20874152D02*
X33281524Y-20921771D01*
X33710095Y-21493200D02*
X33614857Y-21540819D01*
X33614857Y-21540819D02*
X33376762Y-21540819D01*
X33376762Y-21540819D02*
X33281524Y-21493200D01*
X33281524Y-21493200D02*
X33233905Y-21397961D01*
X33233905Y-21397961D02*
X33233905Y-21302723D01*
X33233905Y-21302723D02*
X33281524Y-21207485D01*
X33281524Y-21207485D02*
X33376762Y-21159866D01*
X33376762Y-21159866D02*
X33614857Y-21159866D01*
X33614857Y-21159866D02*
X33710095Y-21112247D01*
X34186286Y-21540819D02*
X34186286Y-20874152D01*
X34186286Y-21064628D02*
X34233905Y-20969390D01*
X34233905Y-20969390D02*
X34281524Y-20921771D01*
X34281524Y-20921771D02*
X34376762Y-20874152D01*
X34376762Y-20874152D02*
X34472000Y-20874152D01*
X35233905Y-21540819D02*
X35233905Y-20540819D01*
X35233905Y-21493200D02*
X35138667Y-21540819D01*
X35138667Y-21540819D02*
X34948191Y-21540819D01*
X34948191Y-21540819D02*
X34852953Y-21493200D01*
X34852953Y-21493200D02*
X34805334Y-21445580D01*
X34805334Y-21445580D02*
X34757715Y-21350342D01*
X34757715Y-21350342D02*
X34757715Y-21064628D01*
X34757715Y-21064628D02*
X34805334Y-20969390D01*
X34805334Y-20969390D02*
X34852953Y-20921771D01*
X34852953Y-20921771D02*
X34948191Y-20874152D01*
X34948191Y-20874152D02*
X35138667Y-20874152D01*
X35138667Y-20874152D02*
X35233905Y-20921771D01*
X151011714Y-22060819D02*
X151345047Y-23060819D01*
X151345047Y-23060819D02*
X151678380Y-22060819D01*
X152011714Y-22537009D02*
X152345047Y-22537009D01*
X152487904Y-23060819D02*
X152011714Y-23060819D01*
X152011714Y-23060819D02*
X152011714Y-22060819D01*
X152011714Y-22060819D02*
X152487904Y-22060819D01*
X152916476Y-23060819D02*
X152916476Y-22060819D01*
X152916476Y-22060819D02*
X153249809Y-22775104D01*
X153249809Y-22775104D02*
X153583142Y-22060819D01*
X153583142Y-22060819D02*
X153583142Y-23060819D01*
X154535523Y-23060819D02*
X154059333Y-23060819D01*
X154059333Y-23060819D02*
X154059333Y-22060819D01*
X154773619Y-22060819D02*
X155440285Y-22060819D01*
X155440285Y-22060819D02*
X155011714Y-23060819D01*
X155726000Y-22060819D02*
X156392666Y-22060819D01*
X156392666Y-22060819D02*
X155964095Y-23060819D01*
X156964095Y-22060819D02*
X157059333Y-22060819D01*
X157059333Y-22060819D02*
X157154571Y-22108438D01*
X157154571Y-22108438D02*
X157202190Y-22156057D01*
X157202190Y-22156057D02*
X157249809Y-22251295D01*
X157249809Y-22251295D02*
X157297428Y-22441771D01*
X157297428Y-22441771D02*
X157297428Y-22679866D01*
X157297428Y-22679866D02*
X157249809Y-22870342D01*
X157249809Y-22870342D02*
X157202190Y-22965580D01*
X157202190Y-22965580D02*
X157154571Y-23013200D01*
X157154571Y-23013200D02*
X157059333Y-23060819D01*
X157059333Y-23060819D02*
X156964095Y-23060819D01*
X156964095Y-23060819D02*
X156868857Y-23013200D01*
X156868857Y-23013200D02*
X156821238Y-22965580D01*
X156821238Y-22965580D02*
X156773619Y-22870342D01*
X156773619Y-22870342D02*
X156726000Y-22679866D01*
X156726000Y-22679866D02*
X156726000Y-22441771D01*
X156726000Y-22441771D02*
X156773619Y-22251295D01*
X156773619Y-22251295D02*
X156821238Y-22156057D01*
X156821238Y-22156057D02*
X156868857Y-22108438D01*
X156868857Y-22108438D02*
X156964095Y-22060819D01*
X157916476Y-22060819D02*
X158011714Y-22060819D01*
X158011714Y-22060819D02*
X158106952Y-22108438D01*
X158106952Y-22108438D02*
X158154571Y-22156057D01*
X158154571Y-22156057D02*
X158202190Y-22251295D01*
X158202190Y-22251295D02*
X158249809Y-22441771D01*
X158249809Y-22441771D02*
X158249809Y-22679866D01*
X158249809Y-22679866D02*
X158202190Y-22870342D01*
X158202190Y-22870342D02*
X158154571Y-22965580D01*
X158154571Y-22965580D02*
X158106952Y-23013200D01*
X158106952Y-23013200D02*
X158011714Y-23060819D01*
X158011714Y-23060819D02*
X157916476Y-23060819D01*
X157916476Y-23060819D02*
X157821238Y-23013200D01*
X157821238Y-23013200D02*
X157773619Y-22965580D01*
X157773619Y-22965580D02*
X157726000Y-22870342D01*
X157726000Y-22870342D02*
X157678381Y-22679866D01*
X157678381Y-22679866D02*
X157678381Y-22441771D01*
X157678381Y-22441771D02*
X157726000Y-22251295D01*
X157726000Y-22251295D02*
X157773619Y-22156057D01*
X157773619Y-22156057D02*
X157821238Y-22108438D01*
X157821238Y-22108438D02*
X157916476Y-22060819D01*
X159773619Y-22537009D02*
X159916476Y-22584628D01*
X159916476Y-22584628D02*
X159964095Y-22632247D01*
X159964095Y-22632247D02*
X160011714Y-22727485D01*
X160011714Y-22727485D02*
X160011714Y-22870342D01*
X160011714Y-22870342D02*
X159964095Y-22965580D01*
X159964095Y-22965580D02*
X159916476Y-23013200D01*
X159916476Y-23013200D02*
X159821238Y-23060819D01*
X159821238Y-23060819D02*
X159440286Y-23060819D01*
X159440286Y-23060819D02*
X159440286Y-22060819D01*
X159440286Y-22060819D02*
X159773619Y-22060819D01*
X159773619Y-22060819D02*
X159868857Y-22108438D01*
X159868857Y-22108438D02*
X159916476Y-22156057D01*
X159916476Y-22156057D02*
X159964095Y-22251295D01*
X159964095Y-22251295D02*
X159964095Y-22346533D01*
X159964095Y-22346533D02*
X159916476Y-22441771D01*
X159916476Y-22441771D02*
X159868857Y-22489390D01*
X159868857Y-22489390D02*
X159773619Y-22537009D01*
X159773619Y-22537009D02*
X159440286Y-22537009D01*
X160583143Y-23060819D02*
X160487905Y-23013200D01*
X160487905Y-23013200D02*
X160440286Y-22965580D01*
X160440286Y-22965580D02*
X160392667Y-22870342D01*
X160392667Y-22870342D02*
X160392667Y-22584628D01*
X160392667Y-22584628D02*
X160440286Y-22489390D01*
X160440286Y-22489390D02*
X160487905Y-22441771D01*
X160487905Y-22441771D02*
X160583143Y-22394152D01*
X160583143Y-22394152D02*
X160726000Y-22394152D01*
X160726000Y-22394152D02*
X160821238Y-22441771D01*
X160821238Y-22441771D02*
X160868857Y-22489390D01*
X160868857Y-22489390D02*
X160916476Y-22584628D01*
X160916476Y-22584628D02*
X160916476Y-22870342D01*
X160916476Y-22870342D02*
X160868857Y-22965580D01*
X160868857Y-22965580D02*
X160821238Y-23013200D01*
X160821238Y-23013200D02*
X160726000Y-23060819D01*
X160726000Y-23060819D02*
X160583143Y-23060819D01*
X161773619Y-23060819D02*
X161773619Y-22537009D01*
X161773619Y-22537009D02*
X161726000Y-22441771D01*
X161726000Y-22441771D02*
X161630762Y-22394152D01*
X161630762Y-22394152D02*
X161440286Y-22394152D01*
X161440286Y-22394152D02*
X161345048Y-22441771D01*
X161773619Y-23013200D02*
X161678381Y-23060819D01*
X161678381Y-23060819D02*
X161440286Y-23060819D01*
X161440286Y-23060819D02*
X161345048Y-23013200D01*
X161345048Y-23013200D02*
X161297429Y-22917961D01*
X161297429Y-22917961D02*
X161297429Y-22822723D01*
X161297429Y-22822723D02*
X161345048Y-22727485D01*
X161345048Y-22727485D02*
X161440286Y-22679866D01*
X161440286Y-22679866D02*
X161678381Y-22679866D01*
X161678381Y-22679866D02*
X161773619Y-22632247D01*
X162249810Y-23060819D02*
X162249810Y-22394152D01*
X162249810Y-22584628D02*
X162297429Y-22489390D01*
X162297429Y-22489390D02*
X162345048Y-22441771D01*
X162345048Y-22441771D02*
X162440286Y-22394152D01*
X162440286Y-22394152D02*
X162535524Y-22394152D01*
X163297429Y-23060819D02*
X163297429Y-22060819D01*
X163297429Y-23013200D02*
X163202191Y-23060819D01*
X163202191Y-23060819D02*
X163011715Y-23060819D01*
X163011715Y-23060819D02*
X162916477Y-23013200D01*
X162916477Y-23013200D02*
X162868858Y-22965580D01*
X162868858Y-22965580D02*
X162821239Y-22870342D01*
X162821239Y-22870342D02*
X162821239Y-22584628D01*
X162821239Y-22584628D02*
X162868858Y-22489390D01*
X162868858Y-22489390D02*
X162916477Y-22441771D01*
X162916477Y-22441771D02*
X163011715Y-22394152D01*
X163011715Y-22394152D02*
X163202191Y-22394152D01*
X163202191Y-22394152D02*
X163297429Y-22441771D01*
X21526571Y-34402819D02*
X21193238Y-33926628D01*
X20955143Y-34402819D02*
X20955143Y-33402819D01*
X20955143Y-33402819D02*
X21336095Y-33402819D01*
X21336095Y-33402819D02*
X21431333Y-33450438D01*
X21431333Y-33450438D02*
X21478952Y-33498057D01*
X21478952Y-33498057D02*
X21526571Y-33593295D01*
X21526571Y-33593295D02*
X21526571Y-33736152D01*
X21526571Y-33736152D02*
X21478952Y-33831390D01*
X21478952Y-33831390D02*
X21431333Y-33879009D01*
X21431333Y-33879009D02*
X21336095Y-33926628D01*
X21336095Y-33926628D02*
X20955143Y-33926628D01*
X22336095Y-34355200D02*
X22240857Y-34402819D01*
X22240857Y-34402819D02*
X22050381Y-34402819D01*
X22050381Y-34402819D02*
X21955143Y-34355200D01*
X21955143Y-34355200D02*
X21907524Y-34259961D01*
X21907524Y-34259961D02*
X21907524Y-33879009D01*
X21907524Y-33879009D02*
X21955143Y-33783771D01*
X21955143Y-33783771D02*
X22050381Y-33736152D01*
X22050381Y-33736152D02*
X22240857Y-33736152D01*
X22240857Y-33736152D02*
X22336095Y-33783771D01*
X22336095Y-33783771D02*
X22383714Y-33879009D01*
X22383714Y-33879009D02*
X22383714Y-33974247D01*
X22383714Y-33974247D02*
X21907524Y-34069485D01*
X23240857Y-34402819D02*
X23240857Y-33402819D01*
X23240857Y-34355200D02*
X23145619Y-34402819D01*
X23145619Y-34402819D02*
X22955143Y-34402819D01*
X22955143Y-34402819D02*
X22859905Y-34355200D01*
X22859905Y-34355200D02*
X22812286Y-34307580D01*
X22812286Y-34307580D02*
X22764667Y-34212342D01*
X22764667Y-34212342D02*
X22764667Y-33926628D01*
X22764667Y-33926628D02*
X22812286Y-33831390D01*
X22812286Y-33831390D02*
X22859905Y-33783771D01*
X22859905Y-33783771D02*
X22955143Y-33736152D01*
X22955143Y-33736152D02*
X23145619Y-33736152D01*
X23145619Y-33736152D02*
X23240857Y-33783771D01*
D14*
X86514435Y-22417219D02*
X87133482Y-22417219D01*
X87133482Y-22417219D02*
X86800149Y-22798171D01*
X86800149Y-22798171D02*
X86943006Y-22798171D01*
X86943006Y-22798171D02*
X87038244Y-22845790D01*
X87038244Y-22845790D02*
X87085863Y-22893409D01*
X87085863Y-22893409D02*
X87133482Y-22988647D01*
X87133482Y-22988647D02*
X87133482Y-23226742D01*
X87133482Y-23226742D02*
X87085863Y-23321980D01*
X87085863Y-23321980D02*
X87038244Y-23369600D01*
X87038244Y-23369600D02*
X86943006Y-23417219D01*
X86943006Y-23417219D02*
X86657292Y-23417219D01*
X86657292Y-23417219D02*
X86562054Y-23369600D01*
X86562054Y-23369600D02*
X86514435Y-23321980D01*
X87562054Y-23321980D02*
X87609673Y-23369600D01*
X87609673Y-23369600D02*
X87562054Y-23417219D01*
X87562054Y-23417219D02*
X87514435Y-23369600D01*
X87514435Y-23369600D02*
X87562054Y-23321980D01*
X87562054Y-23321980D02*
X87562054Y-23417219D01*
X88562053Y-23417219D02*
X87990625Y-23417219D01*
X88276339Y-23417219D02*
X88276339Y-22417219D01*
X88276339Y-22417219D02*
X88181101Y-22560076D01*
X88181101Y-22560076D02*
X88085863Y-22655314D01*
X88085863Y-22655314D02*
X87990625Y-22702933D01*
X88943006Y-22512457D02*
X88990625Y-22464838D01*
X88990625Y-22464838D02*
X89085863Y-22417219D01*
X89085863Y-22417219D02*
X89323958Y-22417219D01*
X89323958Y-22417219D02*
X89419196Y-22464838D01*
X89419196Y-22464838D02*
X89466815Y-22512457D01*
X89466815Y-22512457D02*
X89514434Y-22607695D01*
X89514434Y-22607695D02*
X89514434Y-22702933D01*
X89514434Y-22702933D02*
X89466815Y-22845790D01*
X89466815Y-22845790D02*
X88895387Y-23417219D01*
X88895387Y-23417219D02*
X89514434Y-23417219D01*
X89895387Y-22417219D02*
X89895387Y-22607695D01*
X90276339Y-22417219D02*
X90276339Y-22607695D01*
X91419197Y-22512457D02*
X91466816Y-22464838D01*
X91466816Y-22464838D02*
X91562054Y-22417219D01*
X91562054Y-22417219D02*
X91800149Y-22417219D01*
X91800149Y-22417219D02*
X91895387Y-22464838D01*
X91895387Y-22464838D02*
X91943006Y-22512457D01*
X91943006Y-22512457D02*
X91990625Y-22607695D01*
X91990625Y-22607695D02*
X91990625Y-22702933D01*
X91990625Y-22702933D02*
X91943006Y-22845790D01*
X91943006Y-22845790D02*
X91371578Y-23417219D01*
X91371578Y-23417219D02*
X91990625Y-23417219D01*
X92895387Y-22417219D02*
X92419197Y-22417219D01*
X92419197Y-22417219D02*
X92371578Y-22893409D01*
X92371578Y-22893409D02*
X92419197Y-22845790D01*
X92419197Y-22845790D02*
X92514435Y-22798171D01*
X92514435Y-22798171D02*
X92752530Y-22798171D01*
X92752530Y-22798171D02*
X92847768Y-22845790D01*
X92847768Y-22845790D02*
X92895387Y-22893409D01*
X92895387Y-22893409D02*
X92943006Y-22988647D01*
X92943006Y-22988647D02*
X92943006Y-23226742D01*
X92943006Y-23226742D02*
X92895387Y-23321980D01*
X92895387Y-23321980D02*
X92847768Y-23369600D01*
X92847768Y-23369600D02*
X92752530Y-23417219D01*
X92752530Y-23417219D02*
X92514435Y-23417219D01*
X92514435Y-23417219D02*
X92419197Y-23369600D01*
X92419197Y-23369600D02*
X92371578Y-23321980D01*
X93800149Y-22417219D02*
X93609673Y-22417219D01*
X93609673Y-22417219D02*
X93514435Y-22464838D01*
X93514435Y-22464838D02*
X93466816Y-22512457D01*
X93466816Y-22512457D02*
X93371578Y-22655314D01*
X93371578Y-22655314D02*
X93323959Y-22845790D01*
X93323959Y-22845790D02*
X93323959Y-23226742D01*
X93323959Y-23226742D02*
X93371578Y-23321980D01*
X93371578Y-23321980D02*
X93419197Y-23369600D01*
X93419197Y-23369600D02*
X93514435Y-23417219D01*
X93514435Y-23417219D02*
X93704911Y-23417219D01*
X93704911Y-23417219D02*
X93800149Y-23369600D01*
X93800149Y-23369600D02*
X93847768Y-23321980D01*
X93847768Y-23321980D02*
X93895387Y-23226742D01*
X93895387Y-23226742D02*
X93895387Y-22988647D01*
X93895387Y-22988647D02*
X93847768Y-22893409D01*
X93847768Y-22893409D02*
X93800149Y-22845790D01*
X93800149Y-22845790D02*
X93704911Y-22798171D01*
X93704911Y-22798171D02*
X93514435Y-22798171D01*
X93514435Y-22798171D02*
X93419197Y-22845790D01*
X93419197Y-22845790D02*
X93371578Y-22893409D01*
X93371578Y-22893409D02*
X93323959Y-22988647D01*
X94228721Y-23417219D02*
X94752530Y-22750552D01*
X94228721Y-22750552D02*
X94752530Y-23417219D01*
X95562054Y-22417219D02*
X95371578Y-22417219D01*
X95371578Y-22417219D02*
X95276340Y-22464838D01*
X95276340Y-22464838D02*
X95228721Y-22512457D01*
X95228721Y-22512457D02*
X95133483Y-22655314D01*
X95133483Y-22655314D02*
X95085864Y-22845790D01*
X95085864Y-22845790D02*
X95085864Y-23226742D01*
X95085864Y-23226742D02*
X95133483Y-23321980D01*
X95133483Y-23321980D02*
X95181102Y-23369600D01*
X95181102Y-23369600D02*
X95276340Y-23417219D01*
X95276340Y-23417219D02*
X95466816Y-23417219D01*
X95466816Y-23417219D02*
X95562054Y-23369600D01*
X95562054Y-23369600D02*
X95609673Y-23321980D01*
X95609673Y-23321980D02*
X95657292Y-23226742D01*
X95657292Y-23226742D02*
X95657292Y-22988647D01*
X95657292Y-22988647D02*
X95609673Y-22893409D01*
X95609673Y-22893409D02*
X95562054Y-22845790D01*
X95562054Y-22845790D02*
X95466816Y-22798171D01*
X95466816Y-22798171D02*
X95276340Y-22798171D01*
X95276340Y-22798171D02*
X95181102Y-22845790D01*
X95181102Y-22845790D02*
X95133483Y-22893409D01*
X95133483Y-22893409D02*
X95085864Y-22988647D01*
X96514435Y-22750552D02*
X96514435Y-23417219D01*
X96276340Y-22369600D02*
X96038245Y-23083885D01*
X96038245Y-23083885D02*
X96657292Y-23083885D01*
X97990626Y-22417219D02*
X98181102Y-22417219D01*
X98181102Y-22417219D02*
X98276340Y-22464838D01*
X98276340Y-22464838D02*
X98371578Y-22560076D01*
X98371578Y-22560076D02*
X98419197Y-22750552D01*
X98419197Y-22750552D02*
X98419197Y-23083885D01*
X98419197Y-23083885D02*
X98371578Y-23274361D01*
X98371578Y-23274361D02*
X98276340Y-23369600D01*
X98276340Y-23369600D02*
X98181102Y-23417219D01*
X98181102Y-23417219D02*
X97990626Y-23417219D01*
X97990626Y-23417219D02*
X97895388Y-23369600D01*
X97895388Y-23369600D02*
X97800150Y-23274361D01*
X97800150Y-23274361D02*
X97752531Y-23083885D01*
X97752531Y-23083885D02*
X97752531Y-22750552D01*
X97752531Y-22750552D02*
X97800150Y-22560076D01*
X97800150Y-22560076D02*
X97895388Y-22464838D01*
X97895388Y-22464838D02*
X97990626Y-22417219D01*
X99323959Y-23417219D02*
X98847769Y-23417219D01*
X98847769Y-23417219D02*
X98847769Y-22417219D01*
X99657293Y-22893409D02*
X99990626Y-22893409D01*
X100133483Y-23417219D02*
X99657293Y-23417219D01*
X99657293Y-23417219D02*
X99657293Y-22417219D01*
X99657293Y-22417219D02*
X100133483Y-22417219D01*
X100562055Y-23417219D02*
X100562055Y-22417219D01*
X100562055Y-22417219D02*
X100800150Y-22417219D01*
X100800150Y-22417219D02*
X100943007Y-22464838D01*
X100943007Y-22464838D02*
X101038245Y-22560076D01*
X101038245Y-22560076D02*
X101085864Y-22655314D01*
X101085864Y-22655314D02*
X101133483Y-22845790D01*
X101133483Y-22845790D02*
X101133483Y-22988647D01*
X101133483Y-22988647D02*
X101085864Y-23179123D01*
X101085864Y-23179123D02*
X101038245Y-23274361D01*
X101038245Y-23274361D02*
X100943007Y-23369600D01*
X100943007Y-23369600D02*
X100800150Y-23417219D01*
X100800150Y-23417219D02*
X100562055Y-23417219D01*
%TO.C,D4*%
D15*
X36540000Y-29752000D02*
X36540000Y-29908000D01*
X36540000Y-32068000D02*
X36540000Y-32224000D01*
X36540000Y-29752484D02*
G75*
G02*
X39771437Y-29908000I1560000J-1235516D01*
G01*
X37059039Y-29908000D02*
G75*
G02*
X39140961Y-29908000I1040961J-1080000D01*
G01*
X39140961Y-32068000D02*
G75*
G02*
X37059039Y-32068000I-1040961J1080000D01*
G01*
X39771437Y-32068000D02*
G75*
G02*
X36540000Y-32223516I-1671437J1080000D01*
G01*
%TO.C,D3*%
X31206000Y-29752000D02*
X31206000Y-29908000D01*
X31206000Y-32068000D02*
X31206000Y-32224000D01*
X31206000Y-29752484D02*
G75*
G02*
X34437437Y-29908000I1560000J-1235516D01*
G01*
X31725039Y-29908000D02*
G75*
G02*
X33806961Y-29908000I1040961J-1080000D01*
G01*
X33806961Y-32068000D02*
G75*
G02*
X31725039Y-32068000I-1040961J1080000D01*
G01*
X34437437Y-32068000D02*
G75*
G02*
X31206000Y-32223516I-1671437J1080000D01*
G01*
%TO.C,S1*%
D16*
X21500000Y-38300000D02*
X24000000Y-35800000D01*
X21500000Y-41800000D02*
X21500000Y-38300000D01*
X21500000Y-43800000D02*
X21500000Y-44800000D01*
X21500000Y-46800000D02*
X21500000Y-50300000D01*
X21500000Y-50300000D02*
X24000000Y-52800000D01*
X24000000Y-35800000D02*
X27500000Y-35800000D01*
X24000000Y-52800000D02*
X27500000Y-52800000D01*
X29500000Y-52800000D02*
X36000000Y-52800000D01*
X32500000Y-35800000D02*
X36000000Y-35800000D01*
X36000000Y-35800000D02*
X38500000Y-38300000D01*
X36000000Y-52800000D02*
X38500000Y-50300000D01*
X38500000Y-38300000D02*
X38500000Y-41800000D01*
X38500000Y-43800000D02*
X38500000Y-44800000D01*
X38500000Y-50300000D02*
X38500000Y-46800000D01*
%TO.C,D2*%
D15*
X25872000Y-29752000D02*
X25872000Y-29908000D01*
X25872000Y-32068000D02*
X25872000Y-32224000D01*
X25872000Y-29752484D02*
G75*
G02*
X29103437Y-29908000I1560000J-1235516D01*
G01*
X26391039Y-29908000D02*
G75*
G02*
X28472961Y-29908000I1040961J-1080000D01*
G01*
X28472961Y-32068000D02*
G75*
G02*
X26391039Y-32068000I-1040961J1080000D01*
G01*
X29103437Y-32068000D02*
G75*
G02*
X25872000Y-32223516I-1671437J1080000D01*
G01*
%TO.C,J2*%
D16*
X22382000Y-16275683D02*
X37562000Y-16275683D01*
X37562000Y-27875683D01*
X22382000Y-27875683D01*
X22382000Y-16275683D01*
X28722000Y-24086000D02*
X31222000Y-24086000D01*
X31222000Y-26586000D01*
X28722000Y-26586000D01*
X28722000Y-24086000D01*
G36*
X31268194Y-24758866D02*
G01*
X31268194Y-24797134D01*
X31257355Y-24813355D01*
X29449355Y-26621355D01*
X29433134Y-26632194D01*
X29394866Y-26632194D01*
X29367806Y-26605134D01*
X29367806Y-26566866D01*
X29378645Y-26550645D01*
X31186645Y-24742645D01*
X31202866Y-24731806D01*
X31241134Y-24731806D01*
X31268194Y-24758866D01*
G37*
G36*
X31268194Y-25758865D02*
G01*
X31268194Y-25797134D01*
X31257356Y-25813355D01*
X30449355Y-26621355D01*
X30433134Y-26632194D01*
X30394866Y-26632194D01*
X30367806Y-26605134D01*
X30367806Y-26566866D01*
X30378645Y-26550645D01*
X31186645Y-25742644D01*
X31202866Y-25731806D01*
X31241135Y-25731806D01*
X31268194Y-25758865D01*
G37*
G36*
X30960194Y-24066866D02*
G01*
X30960194Y-24105134D01*
X30949355Y-24121355D01*
X28757355Y-26313355D01*
X28741134Y-26324194D01*
X28702866Y-26324194D01*
X28675806Y-26297134D01*
X28675806Y-26258866D01*
X28686645Y-26242645D01*
X30878645Y-24050645D01*
X30894866Y-24039806D01*
X30933134Y-24039806D01*
X30960194Y-24066866D01*
G37*
G36*
X29960194Y-24066865D02*
G01*
X29960194Y-24105134D01*
X29949356Y-24121355D01*
X28757355Y-25313355D01*
X28741134Y-25324194D01*
X28702866Y-25324194D01*
X28675806Y-25297134D01*
X28675806Y-25258866D01*
X28686645Y-25242645D01*
X29878645Y-24050644D01*
X29894866Y-24039806D01*
X29933135Y-24039806D01*
X29960194Y-24066865D01*
G37*
G36*
X28960194Y-24066866D02*
G01*
X28960194Y-24105134D01*
X28949355Y-24121355D01*
X28757355Y-24313355D01*
X28741134Y-24324194D01*
X28702866Y-24324194D01*
X28675806Y-24297134D01*
X28675806Y-24258866D01*
X28686645Y-24242645D01*
X28878645Y-24050645D01*
X28894866Y-24039806D01*
X28933134Y-24039806D01*
X28960194Y-24066866D01*
G37*
X26472000Y-25336000D02*
G75*
G02*
X23472000Y-25336000I-1500000J0D01*
G01*
X23472000Y-25336000D02*
G75*
G02*
X26472000Y-25336000I1500000J0D01*
G01*
X36542000Y-25325683D02*
G75*
G02*
X33542000Y-25325683I-1500000J0D01*
G01*
X33542000Y-25325683D02*
G75*
G02*
X36542000Y-25325683I1500000J0D01*
G01*
%TO.C,J3*%
X151650000Y-23900000D02*
X158350000Y-23900000D01*
X158350000Y-26900000D01*
X151650000Y-26900000D01*
X151650000Y-23900000D01*
G36*
X155146194Y-23880865D02*
G01*
X155146194Y-23919134D01*
X155135356Y-23935355D01*
X152135355Y-26935355D01*
X152119134Y-26946194D01*
X152080866Y-26946194D01*
X152053806Y-26919134D01*
X152053806Y-26880866D01*
X152064645Y-26864645D01*
X155064645Y-23864644D01*
X155080866Y-23853806D01*
X155119135Y-23853806D01*
X155146194Y-23880865D01*
G37*
G36*
X156146194Y-23880865D02*
G01*
X156146194Y-23919134D01*
X156135356Y-23935355D01*
X153135355Y-26935355D01*
X153119134Y-26946194D01*
X153080866Y-26946194D01*
X153053806Y-26919134D01*
X153053806Y-26880866D01*
X153064645Y-26864645D01*
X156064645Y-23864644D01*
X156080866Y-23853806D01*
X156119135Y-23853806D01*
X156146194Y-23880865D01*
G37*
G36*
X157146194Y-23880865D02*
G01*
X157146194Y-23919134D01*
X157135356Y-23935355D01*
X154135355Y-26935355D01*
X154119134Y-26946194D01*
X154080866Y-26946194D01*
X154053806Y-26919134D01*
X154053806Y-26880866D01*
X154064645Y-26864645D01*
X157064645Y-23864644D01*
X157080866Y-23853806D01*
X157119135Y-23853806D01*
X157146194Y-23880865D01*
G37*
G36*
X158146194Y-23880865D02*
G01*
X158146194Y-23919134D01*
X158135356Y-23935355D01*
X155135355Y-26935355D01*
X155119134Y-26946194D01*
X155080866Y-26946194D01*
X155053806Y-26919134D01*
X155053806Y-26880866D01*
X155064645Y-26864645D01*
X158064645Y-23864644D01*
X158080866Y-23853806D01*
X158119135Y-23853806D01*
X158146194Y-23880865D01*
G37*
G36*
X158396194Y-24630865D02*
G01*
X158396194Y-24669134D01*
X158385356Y-24685355D01*
X156135355Y-26935355D01*
X156119134Y-26946194D01*
X156080866Y-26946194D01*
X156053806Y-26919134D01*
X156053806Y-26880866D01*
X156064645Y-26864645D01*
X158314645Y-24614644D01*
X158330866Y-24603806D01*
X158369135Y-24603806D01*
X158396194Y-24630865D01*
G37*
G36*
X158396194Y-25630866D02*
G01*
X158396194Y-25669134D01*
X158385355Y-25685355D01*
X157135355Y-26935355D01*
X157119134Y-26946194D01*
X157080866Y-26946194D01*
X157053806Y-26919134D01*
X157053806Y-26880866D01*
X157064645Y-26864645D01*
X158314645Y-25614645D01*
X158330866Y-25603806D01*
X158369134Y-25603806D01*
X158396194Y-25630866D01*
G37*
G36*
X158396194Y-26630866D02*
G01*
X158396194Y-26669135D01*
X158385355Y-26685356D01*
X158135355Y-26935355D01*
X158119134Y-26946194D01*
X158080866Y-26946194D01*
X158053806Y-26919134D01*
X158053806Y-26880866D01*
X158064645Y-26864645D01*
X158314644Y-26614645D01*
X158330865Y-26603806D01*
X158369134Y-26603806D01*
X158396194Y-26630866D01*
G37*
G36*
X154146194Y-23880866D02*
G01*
X154146194Y-23919134D01*
X154135355Y-23935356D01*
X151685355Y-26385355D01*
X151669134Y-26396194D01*
X151630866Y-26396194D01*
X151603806Y-26369134D01*
X151603806Y-26330866D01*
X151614645Y-26314645D01*
X154064644Y-23864645D01*
X154080866Y-23853806D01*
X154119134Y-23853806D01*
X154146194Y-23880866D01*
G37*
G36*
X153146194Y-23880865D02*
G01*
X153146194Y-23919134D01*
X153135356Y-23935355D01*
X151685355Y-25385355D01*
X151669134Y-25396194D01*
X151630866Y-25396194D01*
X151603806Y-25369134D01*
X151603806Y-25330866D01*
X151614645Y-25314645D01*
X153064645Y-23864644D01*
X153080866Y-23853806D01*
X153119135Y-23853806D01*
X153146194Y-23880865D01*
G37*
G36*
X152146194Y-23880866D02*
G01*
X152146194Y-23919134D01*
X152135355Y-23935355D01*
X151685355Y-24385355D01*
X151669134Y-24396194D01*
X151630866Y-24396194D01*
X151603806Y-24369134D01*
X151603806Y-24330866D01*
X151614645Y-24314645D01*
X152064645Y-23864645D01*
X152080866Y-23853806D01*
X152119134Y-23853806D01*
X152146194Y-23880866D01*
G37*
X147000000Y-17100000D02*
X163600000Y-17100000D01*
X163600000Y-33700000D01*
X147000000Y-33700000D01*
X147000000Y-17100000D01*
X162170000Y-20000000D02*
G75*
G02*
X159630000Y-20000000I-1270000J0D01*
G01*
X159630000Y-20000000D02*
G75*
G02*
X162170000Y-20000000I1270000J0D01*
G01*
X162170000Y-31000000D02*
G75*
G02*
X159630000Y-31000000I-1270000J0D01*
G01*
X159630000Y-31000000D02*
G75*
G02*
X162170000Y-31000000I1270000J0D01*
G01*
%TO.C,D1*%
D15*
X20538000Y-29752000D02*
X20538000Y-29908000D01*
X20538000Y-32068000D02*
X20538000Y-32224000D01*
X20538000Y-29752484D02*
G75*
G02*
X23769437Y-29908000I1560000J-1235516D01*
G01*
X21057039Y-29908000D02*
G75*
G02*
X23138961Y-29908000I1040961J-1080000D01*
G01*
X23138961Y-32068000D02*
G75*
G02*
X21057039Y-32068000I-1040961J1080000D01*
G01*
X23769437Y-32068000D02*
G75*
G02*
X20538000Y-32223516I-1671437J1080000D01*
G01*
%TO.C,U1*%
D14*
X149150000Y-38000000D02*
X149150000Y-41400000D01*
X149150000Y-46600000D02*
X149150000Y-50000000D01*
X149150000Y-50000000D02*
X160850000Y-50000000D01*
X151500000Y-38000000D02*
X149150000Y-38000000D01*
D16*
X152500000Y-52700000D02*
X152500000Y-52700000D01*
X152500000Y-52800000D02*
X152500000Y-52800000D01*
D14*
X160850000Y-38000000D02*
X158500000Y-38000000D01*
X160850000Y-41400000D02*
X160850000Y-38000000D01*
X160850000Y-50000000D02*
X160850000Y-46600000D01*
D16*
X152500000Y-52700000D02*
G75*
G02*
X152500000Y-52800000I0J-50000D01*
G01*
X152500000Y-52800000D02*
G75*
G02*
X152500000Y-52700000I0J50000D01*
G01*
%TO.C,U3*%
X53950000Y-25450000D02*
X130730000Y-44630000D01*
X130730000Y-25450000D02*
X53950000Y-44630000D01*
X42590000Y-20350000D02*
X143090000Y-20350000D01*
X143090000Y-53850000D01*
X42590000Y-53850000D01*
X42590000Y-20350000D01*
X47590000Y-21750000D02*
X137090000Y-21750000D01*
X137090000Y-51550000D01*
X47590000Y-51550000D01*
X47590000Y-21750000D01*
X52940000Y-24750000D02*
X131740000Y-24750000D01*
X131740000Y-45930000D01*
X52940000Y-45930000D01*
X52940000Y-24750000D01*
X53950000Y-25450000D02*
X130730000Y-25450000D01*
X130730000Y-44630000D01*
X53950000Y-44630000D01*
X53950000Y-25450000D01*
%TD*%
M02*
