%TF.GenerationSoftware,KiCad,Pcbnew,10.0.2*%
%TF.CreationDate,2026-05-25T01:38:51-07:00*%
%TF.ProjectId,panel,70616e65-6c2e-46b6-9963-61645f706362,rev?*%
%TF.SameCoordinates,Original*%
%TF.FileFunction,Legend,Top*%
%TF.FilePolarity,Positive*%
%FSLAX46Y46*%
G04 Gerber Fmt 4.6, Leading zero omitted, Abs format (unit mm)*
G04 Created by KiCad (PCBNEW 10.0.2) date 2026-05-25 01:38:51*
%MOMM*%
%LPD*%
G01*
G04 APERTURE LIST*
%ADD10C,0.150000*%
%ADD11C,0.254000*%
%ADD12C,0.100000*%
%ADD13C,0.200000*%
%ADD14C,0.120000*%
G04 APERTURE END LIST*
D10*
X23586667Y-19017200D02*
X23729524Y-19064819D01*
X23729524Y-19064819D02*
X23967619Y-19064819D01*
X23967619Y-19064819D02*
X24062857Y-19017200D01*
X24062857Y-19017200D02*
X24110476Y-18969580D01*
X24110476Y-18969580D02*
X24158095Y-18874342D01*
X24158095Y-18874342D02*
X24158095Y-18779104D01*
X24158095Y-18779104D02*
X24110476Y-18683866D01*
X24110476Y-18683866D02*
X24062857Y-18636247D01*
X24062857Y-18636247D02*
X23967619Y-18588628D01*
X23967619Y-18588628D02*
X23777143Y-18541009D01*
X23777143Y-18541009D02*
X23681905Y-18493390D01*
X23681905Y-18493390D02*
X23634286Y-18445771D01*
X23634286Y-18445771D02*
X23586667Y-18350533D01*
X23586667Y-18350533D02*
X23586667Y-18255295D01*
X23586667Y-18255295D02*
X23634286Y-18160057D01*
X23634286Y-18160057D02*
X23681905Y-18112438D01*
X23681905Y-18112438D02*
X23777143Y-18064819D01*
X23777143Y-18064819D02*
X24015238Y-18064819D01*
X24015238Y-18064819D02*
X24158095Y-18112438D01*
X24491429Y-18064819D02*
X24729524Y-19064819D01*
X24729524Y-19064819D02*
X24920000Y-18350533D01*
X24920000Y-18350533D02*
X25110476Y-19064819D01*
X25110476Y-19064819D02*
X25348572Y-18064819D01*
X26253333Y-19064819D02*
X25681905Y-19064819D01*
X25967619Y-19064819D02*
X25967619Y-18064819D01*
X25967619Y-18064819D02*
X25872381Y-18207676D01*
X25872381Y-18207676D02*
X25777143Y-18302914D01*
X25777143Y-18302914D02*
X25681905Y-18350533D01*
D11*
X29032380Y-44813842D02*
X29213809Y-44874318D01*
X29213809Y-44874318D02*
X29516190Y-44874318D01*
X29516190Y-44874318D02*
X29637142Y-44813842D01*
X29637142Y-44813842D02*
X29697618Y-44753365D01*
X29697618Y-44753365D02*
X29758095Y-44632413D01*
X29758095Y-44632413D02*
X29758095Y-44511461D01*
X29758095Y-44511461D02*
X29697618Y-44390508D01*
X29697618Y-44390508D02*
X29637142Y-44330032D01*
X29637142Y-44330032D02*
X29516190Y-44269556D01*
X29516190Y-44269556D02*
X29274285Y-44209080D01*
X29274285Y-44209080D02*
X29153333Y-44148603D01*
X29153333Y-44148603D02*
X29092856Y-44088127D01*
X29092856Y-44088127D02*
X29032380Y-43967175D01*
X29032380Y-43967175D02*
X29032380Y-43846222D01*
X29032380Y-43846222D02*
X29092856Y-43725270D01*
X29092856Y-43725270D02*
X29153333Y-43664794D01*
X29153333Y-43664794D02*
X29274285Y-43604318D01*
X29274285Y-43604318D02*
X29576666Y-43604318D01*
X29576666Y-43604318D02*
X29758095Y-43664794D01*
X30967619Y-44874318D02*
X30241904Y-44874318D01*
X30604761Y-44874318D02*
X30604761Y-43604318D01*
X30604761Y-43604318D02*
X30483809Y-43785746D01*
X30483809Y-43785746D02*
X30362857Y-43906699D01*
X30362857Y-43906699D02*
X30241904Y-43967175D01*
D10*
X64031905Y-21409819D02*
X64031905Y-20409819D01*
X64031905Y-20409819D02*
X64270000Y-20409819D01*
X64270000Y-20409819D02*
X64412857Y-20457438D01*
X64412857Y-20457438D02*
X64508095Y-20552676D01*
X64508095Y-20552676D02*
X64555714Y-20647914D01*
X64555714Y-20647914D02*
X64603333Y-20838390D01*
X64603333Y-20838390D02*
X64603333Y-20981247D01*
X64603333Y-20981247D02*
X64555714Y-21171723D01*
X64555714Y-21171723D02*
X64508095Y-21266961D01*
X64508095Y-21266961D02*
X64412857Y-21362200D01*
X64412857Y-21362200D02*
X64270000Y-21409819D01*
X64270000Y-21409819D02*
X64031905Y-21409819D01*
X65460476Y-20743152D02*
X65460476Y-21409819D01*
X65222381Y-20362200D02*
X64984286Y-21076485D01*
X64984286Y-21076485D02*
X65603333Y-21076485D01*
X69111905Y-21409819D02*
X69111905Y-20409819D01*
X69111905Y-20409819D02*
X69350000Y-20409819D01*
X69350000Y-20409819D02*
X69492857Y-20457438D01*
X69492857Y-20457438D02*
X69588095Y-20552676D01*
X69588095Y-20552676D02*
X69635714Y-20647914D01*
X69635714Y-20647914D02*
X69683333Y-20838390D01*
X69683333Y-20838390D02*
X69683333Y-20981247D01*
X69683333Y-20981247D02*
X69635714Y-21171723D01*
X69635714Y-21171723D02*
X69588095Y-21266961D01*
X69588095Y-21266961D02*
X69492857Y-21362200D01*
X69492857Y-21362200D02*
X69350000Y-21409819D01*
X69350000Y-21409819D02*
X69111905Y-21409819D01*
X70016667Y-20409819D02*
X70635714Y-20409819D01*
X70635714Y-20409819D02*
X70302381Y-20790771D01*
X70302381Y-20790771D02*
X70445238Y-20790771D01*
X70445238Y-20790771D02*
X70540476Y-20838390D01*
X70540476Y-20838390D02*
X70588095Y-20886009D01*
X70588095Y-20886009D02*
X70635714Y-20981247D01*
X70635714Y-20981247D02*
X70635714Y-21219342D01*
X70635714Y-21219342D02*
X70588095Y-21314580D01*
X70588095Y-21314580D02*
X70540476Y-21362200D01*
X70540476Y-21362200D02*
X70445238Y-21409819D01*
X70445238Y-21409819D02*
X70159524Y-21409819D01*
X70159524Y-21409819D02*
X70064286Y-21362200D01*
X70064286Y-21362200D02*
X70016667Y-21314580D01*
D12*
X162742580Y-25066666D02*
X162028295Y-25066666D01*
X162028295Y-25066666D02*
X161885438Y-25019047D01*
X161885438Y-25019047D02*
X161790200Y-24923809D01*
X161790200Y-24923809D02*
X161742580Y-24780952D01*
X161742580Y-24780952D02*
X161742580Y-24685714D01*
X162742580Y-25447619D02*
X162742580Y-26066666D01*
X162742580Y-26066666D02*
X162361628Y-25733333D01*
X162361628Y-25733333D02*
X162361628Y-25876190D01*
X162361628Y-25876190D02*
X162314009Y-25971428D01*
X162314009Y-25971428D02*
X162266390Y-26019047D01*
X162266390Y-26019047D02*
X162171152Y-26066666D01*
X162171152Y-26066666D02*
X161933057Y-26066666D01*
X161933057Y-26066666D02*
X161837819Y-26019047D01*
X161837819Y-26019047D02*
X161790200Y-25971428D01*
X161790200Y-25971428D02*
X161742580Y-25876190D01*
X161742580Y-25876190D02*
X161742580Y-25590476D01*
X161742580Y-25590476D02*
X161790200Y-25495238D01*
X161790200Y-25495238D02*
X161837819Y-25447619D01*
D10*
X114831905Y-21409819D02*
X114831905Y-20409819D01*
X114831905Y-20409819D02*
X115070000Y-20409819D01*
X115070000Y-20409819D02*
X115212857Y-20457438D01*
X115212857Y-20457438D02*
X115308095Y-20552676D01*
X115308095Y-20552676D02*
X115355714Y-20647914D01*
X115355714Y-20647914D02*
X115403333Y-20838390D01*
X115403333Y-20838390D02*
X115403333Y-20981247D01*
X115403333Y-20981247D02*
X115355714Y-21171723D01*
X115355714Y-21171723D02*
X115308095Y-21266961D01*
X115308095Y-21266961D02*
X115212857Y-21362200D01*
X115212857Y-21362200D02*
X115070000Y-21409819D01*
X115070000Y-21409819D02*
X114831905Y-21409819D01*
X115784286Y-20505057D02*
X115831905Y-20457438D01*
X115831905Y-20457438D02*
X115927143Y-20409819D01*
X115927143Y-20409819D02*
X116165238Y-20409819D01*
X116165238Y-20409819D02*
X116260476Y-20457438D01*
X116260476Y-20457438D02*
X116308095Y-20505057D01*
X116308095Y-20505057D02*
X116355714Y-20600295D01*
X116355714Y-20600295D02*
X116355714Y-20695533D01*
X116355714Y-20695533D02*
X116308095Y-20838390D01*
X116308095Y-20838390D02*
X115736667Y-21409819D01*
X115736667Y-21409819D02*
X116355714Y-21409819D01*
X33746667Y-19017200D02*
X33889524Y-19064819D01*
X33889524Y-19064819D02*
X34127619Y-19064819D01*
X34127619Y-19064819D02*
X34222857Y-19017200D01*
X34222857Y-19017200D02*
X34270476Y-18969580D01*
X34270476Y-18969580D02*
X34318095Y-18874342D01*
X34318095Y-18874342D02*
X34318095Y-18779104D01*
X34318095Y-18779104D02*
X34270476Y-18683866D01*
X34270476Y-18683866D02*
X34222857Y-18636247D01*
X34222857Y-18636247D02*
X34127619Y-18588628D01*
X34127619Y-18588628D02*
X33937143Y-18541009D01*
X33937143Y-18541009D02*
X33841905Y-18493390D01*
X33841905Y-18493390D02*
X33794286Y-18445771D01*
X33794286Y-18445771D02*
X33746667Y-18350533D01*
X33746667Y-18350533D02*
X33746667Y-18255295D01*
X33746667Y-18255295D02*
X33794286Y-18160057D01*
X33794286Y-18160057D02*
X33841905Y-18112438D01*
X33841905Y-18112438D02*
X33937143Y-18064819D01*
X33937143Y-18064819D02*
X34175238Y-18064819D01*
X34175238Y-18064819D02*
X34318095Y-18112438D01*
X34651429Y-18064819D02*
X34889524Y-19064819D01*
X34889524Y-19064819D02*
X35080000Y-18350533D01*
X35080000Y-18350533D02*
X35270476Y-19064819D01*
X35270476Y-19064819D02*
X35508572Y-18064819D01*
X35841905Y-18160057D02*
X35889524Y-18112438D01*
X35889524Y-18112438D02*
X35984762Y-18064819D01*
X35984762Y-18064819D02*
X36222857Y-18064819D01*
X36222857Y-18064819D02*
X36318095Y-18112438D01*
X36318095Y-18112438D02*
X36365714Y-18160057D01*
X36365714Y-18160057D02*
X36413333Y-18255295D01*
X36413333Y-18255295D02*
X36413333Y-18350533D01*
X36413333Y-18350533D02*
X36365714Y-18493390D01*
X36365714Y-18493390D02*
X35794286Y-19064819D01*
X35794286Y-19064819D02*
X36413333Y-19064819D01*
X23586667Y-35967200D02*
X23729524Y-36014819D01*
X23729524Y-36014819D02*
X23967619Y-36014819D01*
X23967619Y-36014819D02*
X24062857Y-35967200D01*
X24062857Y-35967200D02*
X24110476Y-35919580D01*
X24110476Y-35919580D02*
X24158095Y-35824342D01*
X24158095Y-35824342D02*
X24158095Y-35729104D01*
X24158095Y-35729104D02*
X24110476Y-35633866D01*
X24110476Y-35633866D02*
X24062857Y-35586247D01*
X24062857Y-35586247D02*
X23967619Y-35538628D01*
X23967619Y-35538628D02*
X23777143Y-35491009D01*
X23777143Y-35491009D02*
X23681905Y-35443390D01*
X23681905Y-35443390D02*
X23634286Y-35395771D01*
X23634286Y-35395771D02*
X23586667Y-35300533D01*
X23586667Y-35300533D02*
X23586667Y-35205295D01*
X23586667Y-35205295D02*
X23634286Y-35110057D01*
X23634286Y-35110057D02*
X23681905Y-35062438D01*
X23681905Y-35062438D02*
X23777143Y-35014819D01*
X23777143Y-35014819D02*
X24015238Y-35014819D01*
X24015238Y-35014819D02*
X24158095Y-35062438D01*
X24491429Y-35014819D02*
X24729524Y-36014819D01*
X24729524Y-36014819D02*
X24920000Y-35300533D01*
X24920000Y-35300533D02*
X25110476Y-36014819D01*
X25110476Y-36014819D02*
X25348572Y-35014819D01*
X25634286Y-35014819D02*
X26253333Y-35014819D01*
X26253333Y-35014819D02*
X25920000Y-35395771D01*
X25920000Y-35395771D02*
X26062857Y-35395771D01*
X26062857Y-35395771D02*
X26158095Y-35443390D01*
X26158095Y-35443390D02*
X26205714Y-35491009D01*
X26205714Y-35491009D02*
X26253333Y-35586247D01*
X26253333Y-35586247D02*
X26253333Y-35824342D01*
X26253333Y-35824342D02*
X26205714Y-35919580D01*
X26205714Y-35919580D02*
X26158095Y-35967200D01*
X26158095Y-35967200D02*
X26062857Y-36014819D01*
X26062857Y-36014819D02*
X25777143Y-36014819D01*
X25777143Y-36014819D02*
X25681905Y-35967200D01*
X25681905Y-35967200D02*
X25634286Y-35919580D01*
X33746667Y-35967200D02*
X33889524Y-36014819D01*
X33889524Y-36014819D02*
X34127619Y-36014819D01*
X34127619Y-36014819D02*
X34222857Y-35967200D01*
X34222857Y-35967200D02*
X34270476Y-35919580D01*
X34270476Y-35919580D02*
X34318095Y-35824342D01*
X34318095Y-35824342D02*
X34318095Y-35729104D01*
X34318095Y-35729104D02*
X34270476Y-35633866D01*
X34270476Y-35633866D02*
X34222857Y-35586247D01*
X34222857Y-35586247D02*
X34127619Y-35538628D01*
X34127619Y-35538628D02*
X33937143Y-35491009D01*
X33937143Y-35491009D02*
X33841905Y-35443390D01*
X33841905Y-35443390D02*
X33794286Y-35395771D01*
X33794286Y-35395771D02*
X33746667Y-35300533D01*
X33746667Y-35300533D02*
X33746667Y-35205295D01*
X33746667Y-35205295D02*
X33794286Y-35110057D01*
X33794286Y-35110057D02*
X33841905Y-35062438D01*
X33841905Y-35062438D02*
X33937143Y-35014819D01*
X33937143Y-35014819D02*
X34175238Y-35014819D01*
X34175238Y-35014819D02*
X34318095Y-35062438D01*
X34651429Y-35014819D02*
X34889524Y-36014819D01*
X34889524Y-36014819D02*
X35080000Y-35300533D01*
X35080000Y-35300533D02*
X35270476Y-36014819D01*
X35270476Y-36014819D02*
X35508572Y-35014819D01*
X36318095Y-35348152D02*
X36318095Y-36014819D01*
X36080000Y-34967200D02*
X35841905Y-35681485D01*
X35841905Y-35681485D02*
X36460952Y-35681485D01*
X119911905Y-21409819D02*
X119911905Y-20409819D01*
X119911905Y-20409819D02*
X120150000Y-20409819D01*
X120150000Y-20409819D02*
X120292857Y-20457438D01*
X120292857Y-20457438D02*
X120388095Y-20552676D01*
X120388095Y-20552676D02*
X120435714Y-20647914D01*
X120435714Y-20647914D02*
X120483333Y-20838390D01*
X120483333Y-20838390D02*
X120483333Y-20981247D01*
X120483333Y-20981247D02*
X120435714Y-21171723D01*
X120435714Y-21171723D02*
X120388095Y-21266961D01*
X120388095Y-21266961D02*
X120292857Y-21362200D01*
X120292857Y-21362200D02*
X120150000Y-21409819D01*
X120150000Y-21409819D02*
X119911905Y-21409819D01*
X121435714Y-21409819D02*
X120864286Y-21409819D01*
X121150000Y-21409819D02*
X121150000Y-20409819D01*
X121150000Y-20409819D02*
X121054762Y-20552676D01*
X121054762Y-20552676D02*
X120959524Y-20647914D01*
X120959524Y-20647914D02*
X120864286Y-20695533D01*
D11*
X92076667Y-30804318D02*
X92076667Y-31711461D01*
X92076667Y-31711461D02*
X92016190Y-31892889D01*
X92016190Y-31892889D02*
X91895238Y-32013842D01*
X91895238Y-32013842D02*
X91713809Y-32074318D01*
X91713809Y-32074318D02*
X91592857Y-32074318D01*
X93346667Y-32074318D02*
X92620952Y-32074318D01*
X92983809Y-32074318D02*
X92983809Y-30804318D01*
X92983809Y-30804318D02*
X92862857Y-30985746D01*
X92862857Y-30985746D02*
X92741905Y-31106699D01*
X92741905Y-31106699D02*
X92620952Y-31167175D01*
D13*
X65679435Y-22417219D02*
X66298482Y-22417219D01*
X66298482Y-22417219D02*
X65965149Y-22798171D01*
X65965149Y-22798171D02*
X66108006Y-22798171D01*
X66108006Y-22798171D02*
X66203244Y-22845790D01*
X66203244Y-22845790D02*
X66250863Y-22893409D01*
X66250863Y-22893409D02*
X66298482Y-22988647D01*
X66298482Y-22988647D02*
X66298482Y-23226742D01*
X66298482Y-23226742D02*
X66250863Y-23321980D01*
X66250863Y-23321980D02*
X66203244Y-23369600D01*
X66203244Y-23369600D02*
X66108006Y-23417219D01*
X66108006Y-23417219D02*
X65822292Y-23417219D01*
X65822292Y-23417219D02*
X65727054Y-23369600D01*
X65727054Y-23369600D02*
X65679435Y-23321980D01*
X66727054Y-23321980D02*
X66774673Y-23369600D01*
X66774673Y-23369600D02*
X66727054Y-23417219D01*
X66727054Y-23417219D02*
X66679435Y-23369600D01*
X66679435Y-23369600D02*
X66727054Y-23321980D01*
X66727054Y-23321980D02*
X66727054Y-23417219D01*
X67727053Y-23417219D02*
X67155625Y-23417219D01*
X67441339Y-23417219D02*
X67441339Y-22417219D01*
X67441339Y-22417219D02*
X67346101Y-22560076D01*
X67346101Y-22560076D02*
X67250863Y-22655314D01*
X67250863Y-22655314D02*
X67155625Y-22702933D01*
X68108006Y-22512457D02*
X68155625Y-22464838D01*
X68155625Y-22464838D02*
X68250863Y-22417219D01*
X68250863Y-22417219D02*
X68488958Y-22417219D01*
X68488958Y-22417219D02*
X68584196Y-22464838D01*
X68584196Y-22464838D02*
X68631815Y-22512457D01*
X68631815Y-22512457D02*
X68679434Y-22607695D01*
X68679434Y-22607695D02*
X68679434Y-22702933D01*
X68679434Y-22702933D02*
X68631815Y-22845790D01*
X68631815Y-22845790D02*
X68060387Y-23417219D01*
X68060387Y-23417219D02*
X68679434Y-23417219D01*
X69060387Y-22417219D02*
X69060387Y-22607695D01*
X69441339Y-22417219D02*
X69441339Y-22607695D01*
X70584197Y-22512457D02*
X70631816Y-22464838D01*
X70631816Y-22464838D02*
X70727054Y-22417219D01*
X70727054Y-22417219D02*
X70965149Y-22417219D01*
X70965149Y-22417219D02*
X71060387Y-22464838D01*
X71060387Y-22464838D02*
X71108006Y-22512457D01*
X71108006Y-22512457D02*
X71155625Y-22607695D01*
X71155625Y-22607695D02*
X71155625Y-22702933D01*
X71155625Y-22702933D02*
X71108006Y-22845790D01*
X71108006Y-22845790D02*
X70536578Y-23417219D01*
X70536578Y-23417219D02*
X71155625Y-23417219D01*
X72060387Y-22417219D02*
X71584197Y-22417219D01*
X71584197Y-22417219D02*
X71536578Y-22893409D01*
X71536578Y-22893409D02*
X71584197Y-22845790D01*
X71584197Y-22845790D02*
X71679435Y-22798171D01*
X71679435Y-22798171D02*
X71917530Y-22798171D01*
X71917530Y-22798171D02*
X72012768Y-22845790D01*
X72012768Y-22845790D02*
X72060387Y-22893409D01*
X72060387Y-22893409D02*
X72108006Y-22988647D01*
X72108006Y-22988647D02*
X72108006Y-23226742D01*
X72108006Y-23226742D02*
X72060387Y-23321980D01*
X72060387Y-23321980D02*
X72012768Y-23369600D01*
X72012768Y-23369600D02*
X71917530Y-23417219D01*
X71917530Y-23417219D02*
X71679435Y-23417219D01*
X71679435Y-23417219D02*
X71584197Y-23369600D01*
X71584197Y-23369600D02*
X71536578Y-23321980D01*
X72965149Y-22417219D02*
X72774673Y-22417219D01*
X72774673Y-22417219D02*
X72679435Y-22464838D01*
X72679435Y-22464838D02*
X72631816Y-22512457D01*
X72631816Y-22512457D02*
X72536578Y-22655314D01*
X72536578Y-22655314D02*
X72488959Y-22845790D01*
X72488959Y-22845790D02*
X72488959Y-23226742D01*
X72488959Y-23226742D02*
X72536578Y-23321980D01*
X72536578Y-23321980D02*
X72584197Y-23369600D01*
X72584197Y-23369600D02*
X72679435Y-23417219D01*
X72679435Y-23417219D02*
X72869911Y-23417219D01*
X72869911Y-23417219D02*
X72965149Y-23369600D01*
X72965149Y-23369600D02*
X73012768Y-23321980D01*
X73012768Y-23321980D02*
X73060387Y-23226742D01*
X73060387Y-23226742D02*
X73060387Y-22988647D01*
X73060387Y-22988647D02*
X73012768Y-22893409D01*
X73012768Y-22893409D02*
X72965149Y-22845790D01*
X72965149Y-22845790D02*
X72869911Y-22798171D01*
X72869911Y-22798171D02*
X72679435Y-22798171D01*
X72679435Y-22798171D02*
X72584197Y-22845790D01*
X72584197Y-22845790D02*
X72536578Y-22893409D01*
X72536578Y-22893409D02*
X72488959Y-22988647D01*
X73393721Y-23417219D02*
X73917530Y-22750552D01*
X73393721Y-22750552D02*
X73917530Y-23417219D01*
X74727054Y-22417219D02*
X74536578Y-22417219D01*
X74536578Y-22417219D02*
X74441340Y-22464838D01*
X74441340Y-22464838D02*
X74393721Y-22512457D01*
X74393721Y-22512457D02*
X74298483Y-22655314D01*
X74298483Y-22655314D02*
X74250864Y-22845790D01*
X74250864Y-22845790D02*
X74250864Y-23226742D01*
X74250864Y-23226742D02*
X74298483Y-23321980D01*
X74298483Y-23321980D02*
X74346102Y-23369600D01*
X74346102Y-23369600D02*
X74441340Y-23417219D01*
X74441340Y-23417219D02*
X74631816Y-23417219D01*
X74631816Y-23417219D02*
X74727054Y-23369600D01*
X74727054Y-23369600D02*
X74774673Y-23321980D01*
X74774673Y-23321980D02*
X74822292Y-23226742D01*
X74822292Y-23226742D02*
X74822292Y-22988647D01*
X74822292Y-22988647D02*
X74774673Y-22893409D01*
X74774673Y-22893409D02*
X74727054Y-22845790D01*
X74727054Y-22845790D02*
X74631816Y-22798171D01*
X74631816Y-22798171D02*
X74441340Y-22798171D01*
X74441340Y-22798171D02*
X74346102Y-22845790D01*
X74346102Y-22845790D02*
X74298483Y-22893409D01*
X74298483Y-22893409D02*
X74250864Y-22988647D01*
X75679435Y-22750552D02*
X75679435Y-23417219D01*
X75441340Y-22369600D02*
X75203245Y-23083885D01*
X75203245Y-23083885D02*
X75822292Y-23083885D01*
X77155626Y-22417219D02*
X77346102Y-22417219D01*
X77346102Y-22417219D02*
X77441340Y-22464838D01*
X77441340Y-22464838D02*
X77536578Y-22560076D01*
X77536578Y-22560076D02*
X77584197Y-22750552D01*
X77584197Y-22750552D02*
X77584197Y-23083885D01*
X77584197Y-23083885D02*
X77536578Y-23274361D01*
X77536578Y-23274361D02*
X77441340Y-23369600D01*
X77441340Y-23369600D02*
X77346102Y-23417219D01*
X77346102Y-23417219D02*
X77155626Y-23417219D01*
X77155626Y-23417219D02*
X77060388Y-23369600D01*
X77060388Y-23369600D02*
X76965150Y-23274361D01*
X76965150Y-23274361D02*
X76917531Y-23083885D01*
X76917531Y-23083885D02*
X76917531Y-22750552D01*
X76917531Y-22750552D02*
X76965150Y-22560076D01*
X76965150Y-22560076D02*
X77060388Y-22464838D01*
X77060388Y-22464838D02*
X77155626Y-22417219D01*
X78488959Y-23417219D02*
X78012769Y-23417219D01*
X78012769Y-23417219D02*
X78012769Y-22417219D01*
X78822293Y-22893409D02*
X79155626Y-22893409D01*
X79298483Y-23417219D02*
X78822293Y-23417219D01*
X78822293Y-23417219D02*
X78822293Y-22417219D01*
X78822293Y-22417219D02*
X79298483Y-22417219D01*
X79727055Y-23417219D02*
X79727055Y-22417219D01*
X79727055Y-22417219D02*
X79965150Y-22417219D01*
X79965150Y-22417219D02*
X80108007Y-22464838D01*
X80108007Y-22464838D02*
X80203245Y-22560076D01*
X80203245Y-22560076D02*
X80250864Y-22655314D01*
X80250864Y-22655314D02*
X80298483Y-22845790D01*
X80298483Y-22845790D02*
X80298483Y-22988647D01*
X80298483Y-22988647D02*
X80250864Y-23179123D01*
X80250864Y-23179123D02*
X80203245Y-23274361D01*
X80203245Y-23274361D02*
X80108007Y-23369600D01*
X80108007Y-23369600D02*
X79965150Y-23417219D01*
X79965150Y-23417219D02*
X79727055Y-23417219D01*
%TO.C,SW1*%
D14*
X21420000Y-22110000D02*
X21420000Y-23610000D01*
X22670000Y-26110000D02*
X27170000Y-26110000D01*
X27170000Y-19610000D02*
X22670000Y-19610000D01*
X28420000Y-23610000D02*
X28420000Y-22110000D01*
%TO.C,S1*%
D12*
X21500000Y-38300000D02*
X24000000Y-35800000D01*
X21500000Y-41800000D02*
X21500000Y-38300000D01*
X21500000Y-43800000D02*
X21500000Y-44800000D01*
X21500000Y-46800000D02*
X21500000Y-50300000D01*
X21500000Y-50300000D02*
X24000000Y-52800000D01*
X24000000Y-35800000D02*
X27500000Y-35800000D01*
X24000000Y-52800000D02*
X27500000Y-52800000D01*
X29500000Y-52800000D02*
X36000000Y-52800000D01*
X32500000Y-35800000D02*
X36000000Y-35800000D01*
X36000000Y-35800000D02*
X38500000Y-38300000D01*
X36000000Y-52800000D02*
X38500000Y-50300000D01*
X38500000Y-38300000D02*
X38500000Y-41800000D01*
X38500000Y-43800000D02*
X38500000Y-44800000D01*
X38500000Y-50300000D02*
X38500000Y-46800000D01*
%TO.C,D4*%
D14*
X66330000Y-16700000D02*
X66330000Y-16544000D01*
X66330000Y-19016000D02*
X66330000Y-18860000D01*
X63098563Y-16700000D02*
G75*
G02*
X66330000Y-16544484I1671437J-1080000D01*
G01*
X63729039Y-16700000D02*
G75*
G02*
X65810961Y-16700000I1040961J-1080000D01*
G01*
X65810961Y-18860000D02*
G75*
G02*
X63729039Y-18860000I-1040961J1080000D01*
G01*
X66330000Y-19015516D02*
G75*
G02*
X63098563Y-18860000I-1560000J1235516D01*
G01*
%TO.C,D3*%
X68290000Y-16544000D02*
X68290000Y-16700000D01*
X68290000Y-18860000D02*
X68290000Y-19016000D01*
X68290000Y-16544484D02*
G75*
G02*
X71521437Y-16700000I1560000J-1235516D01*
G01*
X68809039Y-16700000D02*
G75*
G02*
X70890961Y-16700000I1040961J-1080000D01*
G01*
X70890961Y-18860000D02*
G75*
G02*
X68809039Y-18860000I-1040961J1080000D01*
G01*
X71521437Y-18860000D02*
G75*
G02*
X68290000Y-19015516I-1671437J1080000D01*
G01*
%TO.C,J3*%
D12*
X151650000Y-23900000D02*
X158350000Y-23900000D01*
X158350000Y-26900000D01*
X151650000Y-26900000D01*
X151650000Y-23900000D01*
G36*
X155146194Y-23880865D02*
G01*
X155146194Y-23919134D01*
X155135356Y-23935355D01*
X152135355Y-26935355D01*
X152119134Y-26946194D01*
X152080866Y-26946194D01*
X152053806Y-26919134D01*
X152053806Y-26880866D01*
X152064645Y-26864645D01*
X155064645Y-23864644D01*
X155080866Y-23853806D01*
X155119135Y-23853806D01*
X155146194Y-23880865D01*
G37*
G36*
X156146194Y-23880865D02*
G01*
X156146194Y-23919134D01*
X156135356Y-23935355D01*
X153135355Y-26935355D01*
X153119134Y-26946194D01*
X153080866Y-26946194D01*
X153053806Y-26919134D01*
X153053806Y-26880866D01*
X153064645Y-26864645D01*
X156064645Y-23864644D01*
X156080866Y-23853806D01*
X156119135Y-23853806D01*
X156146194Y-23880865D01*
G37*
G36*
X157146194Y-23880865D02*
G01*
X157146194Y-23919134D01*
X157135356Y-23935355D01*
X154135355Y-26935355D01*
X154119134Y-26946194D01*
X154080866Y-26946194D01*
X154053806Y-26919134D01*
X154053806Y-26880866D01*
X154064645Y-26864645D01*
X157064645Y-23864644D01*
X157080866Y-23853806D01*
X157119135Y-23853806D01*
X157146194Y-23880865D01*
G37*
G36*
X158146194Y-23880865D02*
G01*
X158146194Y-23919134D01*
X158135356Y-23935355D01*
X155135355Y-26935355D01*
X155119134Y-26946194D01*
X155080866Y-26946194D01*
X155053806Y-26919134D01*
X155053806Y-26880866D01*
X155064645Y-26864645D01*
X158064645Y-23864644D01*
X158080866Y-23853806D01*
X158119135Y-23853806D01*
X158146194Y-23880865D01*
G37*
G36*
X158396194Y-24630865D02*
G01*
X158396194Y-24669134D01*
X158385356Y-24685355D01*
X156135355Y-26935355D01*
X156119134Y-26946194D01*
X156080866Y-26946194D01*
X156053806Y-26919134D01*
X156053806Y-26880866D01*
X156064645Y-26864645D01*
X158314645Y-24614644D01*
X158330866Y-24603806D01*
X158369135Y-24603806D01*
X158396194Y-24630865D01*
G37*
G36*
X158396194Y-25630866D02*
G01*
X158396194Y-25669134D01*
X158385355Y-25685355D01*
X157135355Y-26935355D01*
X157119134Y-26946194D01*
X157080866Y-26946194D01*
X157053806Y-26919134D01*
X157053806Y-26880866D01*
X157064645Y-26864645D01*
X158314645Y-25614645D01*
X158330866Y-25603806D01*
X158369134Y-25603806D01*
X158396194Y-25630866D01*
G37*
G36*
X158396194Y-26630866D02*
G01*
X158396194Y-26669135D01*
X158385355Y-26685356D01*
X158135355Y-26935355D01*
X158119134Y-26946194D01*
X158080866Y-26946194D01*
X158053806Y-26919134D01*
X158053806Y-26880866D01*
X158064645Y-26864645D01*
X158314644Y-26614645D01*
X158330865Y-26603806D01*
X158369134Y-26603806D01*
X158396194Y-26630866D01*
G37*
G36*
X154146194Y-23880866D02*
G01*
X154146194Y-23919134D01*
X154135355Y-23935356D01*
X151685355Y-26385355D01*
X151669134Y-26396194D01*
X151630866Y-26396194D01*
X151603806Y-26369134D01*
X151603806Y-26330866D01*
X151614645Y-26314645D01*
X154064644Y-23864645D01*
X154080866Y-23853806D01*
X154119134Y-23853806D01*
X154146194Y-23880866D01*
G37*
G36*
X153146194Y-23880865D02*
G01*
X153146194Y-23919134D01*
X153135356Y-23935355D01*
X151685355Y-25385355D01*
X151669134Y-25396194D01*
X151630866Y-25396194D01*
X151603806Y-25369134D01*
X151603806Y-25330866D01*
X151614645Y-25314645D01*
X153064645Y-23864644D01*
X153080866Y-23853806D01*
X153119135Y-23853806D01*
X153146194Y-23880865D01*
G37*
G36*
X152146194Y-23880866D02*
G01*
X152146194Y-23919134D01*
X152135355Y-23935355D01*
X151685355Y-24385355D01*
X151669134Y-24396194D01*
X151630866Y-24396194D01*
X151603806Y-24369134D01*
X151603806Y-24330866D01*
X151614645Y-24314645D01*
X152064645Y-23864645D01*
X152080866Y-23853806D01*
X152119134Y-23853806D01*
X152146194Y-23880866D01*
G37*
X147000000Y-17100000D02*
X163600000Y-17100000D01*
X163600000Y-33700000D01*
X147000000Y-33700000D01*
X147000000Y-17100000D01*
X162170000Y-20000000D02*
G75*
G02*
X159630000Y-20000000I-1270000J0D01*
G01*
X159630000Y-20000000D02*
G75*
G02*
X162170000Y-20000000I1270000J0D01*
G01*
X162170000Y-31000000D02*
G75*
G02*
X159630000Y-31000000I-1270000J0D01*
G01*
X159630000Y-31000000D02*
G75*
G02*
X162170000Y-31000000I1270000J0D01*
G01*
%TO.C,D2*%
D14*
X117130000Y-16700000D02*
X117130000Y-16544000D01*
X117130000Y-19016000D02*
X117130000Y-18860000D01*
X113898563Y-16700000D02*
G75*
G02*
X117130000Y-16544484I1671437J-1080000D01*
G01*
X114529039Y-16700000D02*
G75*
G02*
X116610961Y-16700000I1040961J-1080000D01*
G01*
X116610961Y-18860000D02*
G75*
G02*
X114529039Y-18860000I-1040961J1080000D01*
G01*
X117130000Y-19015516D02*
G75*
G02*
X113898563Y-18860000I-1560000J1235516D01*
G01*
%TO.C,SW2*%
X31580000Y-22110000D02*
X31580000Y-23610000D01*
X32830000Y-26110000D02*
X37330000Y-26110000D01*
X37330000Y-19610000D02*
X32830000Y-19610000D01*
X38580000Y-23610000D02*
X38580000Y-22110000D01*
%TO.C,U1*%
D13*
X149150000Y-38000000D02*
X149150000Y-41400000D01*
X149150000Y-46600000D02*
X149150000Y-50000000D01*
X149150000Y-50000000D02*
X160850000Y-50000000D01*
X151500000Y-38000000D02*
X149150000Y-38000000D01*
D12*
X152500000Y-52700000D02*
X152500000Y-52700000D01*
X152500000Y-52800000D02*
X152500000Y-52800000D01*
D13*
X160850000Y-38000000D02*
X158500000Y-38000000D01*
X160850000Y-41400000D02*
X160850000Y-38000000D01*
X160850000Y-50000000D02*
X160850000Y-46600000D01*
D12*
X152500000Y-52700000D02*
G75*
G02*
X152500000Y-52800000I0J-50000D01*
G01*
X152500000Y-52800000D02*
G75*
G02*
X152500000Y-52700000I0J50000D01*
G01*
%TO.C,SW3*%
D14*
X21420000Y-29730000D02*
X21420000Y-31230000D01*
X22670000Y-33730000D02*
X27170000Y-33730000D01*
X27170000Y-27230000D02*
X22670000Y-27230000D01*
X28420000Y-31230000D02*
X28420000Y-29730000D01*
%TO.C,SW4*%
X31580000Y-29730000D02*
X31580000Y-31230000D01*
X32830000Y-33730000D02*
X37330000Y-33730000D01*
X37330000Y-27230000D02*
X32830000Y-27230000D01*
X38580000Y-31230000D02*
X38580000Y-29730000D01*
%TO.C,D1*%
X119090000Y-16544000D02*
X119090000Y-16700000D01*
X119090000Y-18860000D02*
X119090000Y-19016000D01*
X119090000Y-16544484D02*
G75*
G02*
X122321437Y-16700000I1560000J-1235516D01*
G01*
X119609039Y-16700000D02*
G75*
G02*
X121690961Y-16700000I1040961J-1080000D01*
G01*
X121690961Y-18860000D02*
G75*
G02*
X119609039Y-18860000I-1040961J1080000D01*
G01*
X122321437Y-18860000D02*
G75*
G02*
X119090000Y-19015516I-1671437J1080000D01*
G01*
%TO.C,J1*%
D13*
X77095000Y-28725000D02*
X107905000Y-28725000D01*
X77095000Y-41275000D02*
X77095000Y-28725000D01*
D12*
X97980000Y-28180000D02*
X97980000Y-28180000D01*
X97980000Y-28280000D02*
X97980000Y-28280000D01*
D13*
X107905000Y-28725000D02*
X107905000Y-41275000D01*
X107905000Y-41275000D02*
X77095000Y-41275000D01*
D12*
X97980000Y-28180000D02*
G75*
G02*
X97980000Y-28280000I0J-50000D01*
G01*
X97980000Y-28280000D02*
G75*
G02*
X97980000Y-28180000I0J50000D01*
G01*
%TO.C,U3*%
X53950000Y-25450000D02*
X130730000Y-44630000D01*
X130730000Y-25450000D02*
X53950000Y-44630000D01*
X42590000Y-20350000D02*
X143090000Y-20350000D01*
X143090000Y-53850000D01*
X42590000Y-53850000D01*
X42590000Y-20350000D01*
X47590000Y-21750000D02*
X137090000Y-21750000D01*
X137090000Y-51550000D01*
X47590000Y-51550000D01*
X47590000Y-21750000D01*
X52940000Y-24750000D02*
X131740000Y-24750000D01*
X131740000Y-45930000D01*
X52940000Y-45930000D01*
X52940000Y-24750000D01*
X53950000Y-25450000D02*
X130730000Y-25450000D01*
X130730000Y-44630000D01*
X53950000Y-44630000D01*
X53950000Y-25450000D01*
%TD*%
M02*
