%TF.GenerationSoftware,KiCad,Pcbnew,10.0.2*%
%TF.CreationDate,2026-05-11T18:43:04-07:00*%
%TF.ProjectId,panel,70616e65-6c2e-46b6-9963-61645f706362,rev?*%
%TF.SameCoordinates,Original*%
%TF.FileFunction,Soldermask,Top*%
%TF.FilePolarity,Negative*%
%FSLAX46Y46*%
G04 Gerber Fmt 4.6, Leading zero omitted, Abs format (unit mm)*
G04 Created by KiCad (PCBNEW 10.0.2) date 2026-05-11 18:43:04*
%MOMM*%
%LPD*%
G01*
G04 APERTURE LIST*
G04 Aperture macros list*
%AMRoundRect*
0 Rectangle with rounded corners*
0 $1 Rounding radius*
0 $2 $3 $4 $5 $6 $7 $8 $9 X,Y pos of 4 corners*
0 Add a 4 corners polygon primitive as box body*
4,1,4,$2,$3,$4,$5,$6,$7,$8,$9,$2,$3,0*
0 Add four circle primitives for the rounded corners*
1,1,$1+$1,$2,$3*
1,1,$1+$1,$4,$5*
1,1,$1+$1,$6,$7*
1,1,$1+$1,$8,$9*
0 Add four rect primitives between the rounded corners*
20,1,$1+$1,$2,$3,$4,$5,0*
20,1,$1+$1,$4,$5,$6,$7,0*
20,1,$1+$1,$6,$7,$8,$9,0*
20,1,$1+$1,$8,$9,$2,$3,0*%
G04 Aperture macros list end*
%ADD10C,3.200000*%
%ADD11R,1.800000X1.800000*%
%ADD12C,1.800000*%
%ADD13C,1.500000*%
%ADD14RoundRect,0.300000X0.700000X-0.700000X0.700000X0.700000X-0.700000X0.700000X-0.700000X-0.700000X0*%
%ADD15C,2.000000*%
%ADD16RoundRect,0.300000X-0.700000X-0.700000X0.700000X-0.700000X0.700000X0.700000X-0.700000X0.700000X0*%
%ADD17C,4.500000*%
%ADD18C,3.000000*%
%ADD19C,1.600000*%
%ADD20RoundRect,0.250000X-0.550000X-0.550000X0.550000X-0.550000X0.550000X0.550000X-0.550000X0.550000X0*%
%ADD21R,1.500000X1.500000*%
%ADD22C,4.575000*%
G04 APERTURE END LIST*
D10*
%TO.C,MH4*%
X166497000Y-51435000D03*
%TD*%
%TO.C,MH3*%
X166497000Y-18542000D03*
%TD*%
%TO.C,MH1*%
X18542000Y-18542000D03*
%TD*%
%TO.C,MH2*%
X18542000Y-51435000D03*
%TD*%
D11*
%TO.C,D4*%
X36830000Y-30988000D03*
D12*
X39370000Y-30988000D03*
%TD*%
D11*
%TO.C,D3*%
X31496000Y-30988000D03*
D12*
X34036000Y-30988000D03*
%TD*%
D13*
%TO.C,S1*%
X28500000Y-52100000D03*
X31000000Y-51280000D03*
X36860000Y-48050000D03*
X37800000Y-45800000D03*
X37800000Y-42800000D03*
X31500000Y-36500000D03*
X29000000Y-38520000D03*
X28500000Y-36500000D03*
X22200000Y-42800000D03*
X22200000Y-45800000D03*
X26200000Y-45800000D03*
%TD*%
D11*
%TO.C,D2*%
X26162000Y-30988000D03*
D12*
X28702000Y-30988000D03*
%TD*%
D14*
%TO.C,J2*%
X36322000Y-17545683D03*
D15*
X33782000Y-17545683D03*
X31242000Y-17545683D03*
X28702000Y-17526000D03*
X26162000Y-17545683D03*
X23622000Y-17545683D03*
%TD*%
D16*
%TO.C,J3*%
X149540000Y-20320000D03*
D15*
X149540000Y-22860000D03*
X149540000Y-25400000D03*
X149540000Y-27940000D03*
X149540000Y-30480000D03*
%TD*%
D11*
%TO.C,D1*%
X20828000Y-30988000D03*
D12*
X23368000Y-30988000D03*
%TD*%
D11*
%TO.C,U1*%
X152500000Y-51500000D03*
D12*
X152500000Y-34500000D03*
X157500000Y-51500000D03*
X157500000Y-34500000D03*
X155000000Y-51500000D03*
X155000000Y-34500000D03*
D17*
X149500000Y-44000000D03*
X160500000Y-44000000D03*
D12*
X152500000Y-37000000D03*
X157500000Y-37000000D03*
%TD*%
D18*
%TO.C,U3*%
X44840000Y-22850000D03*
X44840000Y-51350000D03*
X139840000Y-22850000D03*
X139840000Y-51350000D03*
D15*
X138800000Y-45740000D03*
X141340000Y-45740000D03*
X138800000Y-43200000D03*
X141340000Y-43200000D03*
X138800000Y-40660000D03*
X141340000Y-40660000D03*
X138800000Y-38120000D03*
X141340000Y-38120000D03*
X138800000Y-35580000D03*
X141340000Y-35580000D03*
X138800000Y-33040000D03*
X141340000Y-33040000D03*
X138800000Y-30500000D03*
X141340000Y-30500000D03*
X138800000Y-27960000D03*
X141340000Y-27960000D03*
%TD*%
D19*
%TO.C,R2*%
X72390000Y-38100000D03*
X64770000Y-38100000D03*
%TD*%
%TO.C,C2*%
X60880000Y-38100000D03*
X55880000Y-38100000D03*
%TD*%
%TO.C,R4*%
X72390000Y-27940000D03*
X64770000Y-27940000D03*
%TD*%
%TO.C,R1*%
X72390000Y-43180000D03*
X64770000Y-43180000D03*
%TD*%
%TO.C,C3*%
X60880000Y-33020000D03*
X55880000Y-33020000D03*
%TD*%
D20*
%TO.C,U2*%
X119380000Y-52110000D03*
D19*
X119380000Y-49570000D03*
X119380000Y-47030000D03*
X119380000Y-44490000D03*
X119380000Y-41950000D03*
X119380000Y-39410000D03*
X119380000Y-36870000D03*
X119380000Y-34330000D03*
X119380000Y-31790000D03*
X119380000Y-29250000D03*
X119380000Y-26710000D03*
X119380000Y-24170000D03*
X119380000Y-21630000D03*
X119380000Y-19090000D03*
X127000000Y-19090000D03*
X127000000Y-21630000D03*
X127000000Y-24170000D03*
X127000000Y-26710000D03*
X127000000Y-29250000D03*
X127000000Y-31790000D03*
X127000000Y-34330000D03*
X127000000Y-36870000D03*
X127000000Y-39410000D03*
X127000000Y-41950000D03*
X127000000Y-44490000D03*
X127000000Y-47030000D03*
X127000000Y-49570000D03*
X127000000Y-52110000D03*
%TD*%
%TO.C,C4*%
X60880000Y-27940000D03*
X55880000Y-27940000D03*
%TD*%
%TO.C,C1*%
X60880000Y-43180000D03*
X55880000Y-43180000D03*
%TD*%
%TO.C,R7*%
X51620000Y-27000000D03*
X44000000Y-27000000D03*
%TD*%
%TO.C,R10*%
X51620000Y-48000000D03*
X44000000Y-48000000D03*
%TD*%
%TO.C,R5*%
X83820000Y-44704000D03*
X91440000Y-44704000D03*
%TD*%
%TO.C,R8*%
X51620000Y-34000000D03*
X44000000Y-34000000D03*
%TD*%
%TO.C,R3*%
X72390000Y-33020000D03*
X64770000Y-33020000D03*
%TD*%
%TO.C,R6*%
X93726000Y-44704000D03*
X101346000Y-44704000D03*
%TD*%
%TO.C,R9*%
X51620000Y-41000000D03*
X44000000Y-41000000D03*
%TD*%
D21*
%TO.C,J1*%
X87020000Y-33580000D03*
D13*
X89760000Y-33580000D03*
X92500000Y-33580000D03*
X95240000Y-33580000D03*
X97980000Y-33580000D03*
X88390000Y-36420000D03*
X91130000Y-36420000D03*
X93870000Y-36420000D03*
X96610000Y-36420000D03*
D22*
X105000000Y-35000000D03*
X80000000Y-35000000D03*
%TD*%
M02*
