%TF.GenerationSoftware,KiCad,Pcbnew,10.0.2*%
%TF.CreationDate,2026-05-25T01:38:51-07:00*%
%TF.ProjectId,panel,70616e65-6c2e-46b6-9963-61645f706362,rev?*%
%TF.SameCoordinates,Original*%
%TF.FileFunction,Copper,L2,Bot*%
%TF.FilePolarity,Positive*%
%FSLAX46Y46*%
G04 Gerber Fmt 4.6, Leading zero omitted, Abs format (unit mm)*
G04 Created by KiCad (PCBNEW 10.0.2) date 2026-05-25 01:38:51*
%MOMM*%
%LPD*%
G01*
G04 APERTURE LIST*
G04 Aperture macros list*
%AMRoundRect*
0 Rectangle with rounded corners*
0 $1 Rounding radius*
0 $2 $3 $4 $5 $6 $7 $8 $9 X,Y pos of 4 corners*
0 Add a 4 corners polygon primitive as box body*
4,1,4,$2,$3,$4,$5,$6,$7,$8,$9,$2,$3,0*
0 Add four circle primitives for the rounded corners*
1,1,$1+$1,$2,$3*
1,1,$1+$1,$4,$5*
1,1,$1+$1,$6,$7*
1,1,$1+$1,$8,$9*
0 Add four rect primitives between the rounded corners*
20,1,$1+$1,$2,$3,$4,$5,0*
20,1,$1+$1,$4,$5,$6,$7,0*
20,1,$1+$1,$6,$7,$8,$9,0*
20,1,$1+$1,$8,$9,$2,$3,0*%
G04 Aperture macros list end*
%TA.AperFunction,ComponentPad*%
%ADD10C,2.000000*%
%TD*%
%TA.AperFunction,ComponentPad*%
%ADD11C,1.500000*%
%TD*%
%TA.AperFunction,ComponentPad*%
%ADD12R,1.800000X1.800000*%
%TD*%
%TA.AperFunction,ComponentPad*%
%ADD13C,1.800000*%
%TD*%
%TA.AperFunction,ComponentPad*%
%ADD14RoundRect,0.300000X-0.700000X-0.700000X0.700000X-0.700000X0.700000X0.700000X-0.700000X0.700000X0*%
%TD*%
%TA.AperFunction,ComponentPad*%
%ADD15C,4.500000*%
%TD*%
%TA.AperFunction,ComponentPad*%
%ADD16R,1.500000X1.500000*%
%TD*%
%TA.AperFunction,ComponentPad*%
%ADD17C,4.575000*%
%TD*%
%TA.AperFunction,ComponentPad*%
%ADD18C,1.600000*%
%TD*%
%TA.AperFunction,ComponentPad*%
%ADD19RoundRect,0.300000X0.700000X-0.700000X0.700000X0.700000X-0.700000X0.700000X-0.700000X-0.700000X0*%
%TD*%
%TA.AperFunction,ComponentPad*%
%ADD20RoundRect,0.250000X-0.550000X-0.550000X0.550000X-0.550000X0.550000X0.550000X-0.550000X0.550000X0*%
%TD*%
%TA.AperFunction,SMDPad,CuDef*%
%ADD21R,0.177800X0.990600*%
%TD*%
%TA.AperFunction,ViaPad*%
%ADD22C,1.200000*%
%TD*%
%TA.AperFunction,ViaPad*%
%ADD23C,0.600000*%
%TD*%
%TA.AperFunction,Conductor*%
%ADD24C,0.400000*%
%TD*%
%TA.AperFunction,Conductor*%
%ADD25C,0.200000*%
%TD*%
G04 APERTURE END LIST*
D10*
%TO.P,SW1,1,A_1*%
%TO.N,GND*%
X21670000Y-20610000D03*
X28170000Y-20610000D03*
%TO.P,SW1,2,B_2*%
%TO.N,SW1*%
X21670000Y-25110000D03*
X28170000Y-25110000D03*
%TD*%
D11*
%TO.P,S1,1,A_1*%
%TO.N,Net-(S1-A)*%
X28500000Y-52100000D03*
%TO.P,S1,2,PUSH_2*%
%TO.N,Net-(S1-PUSH)*%
X31000000Y-51280000D03*
%TO.P,S1,3,GND_TERMINAL_3*%
%TO.N,GND*%
X36860000Y-48050000D03*
%TO.P,S1,4,B_4*%
%TO.N,Net-(S1-B)*%
X37800000Y-45800000D03*
%TO.P,S1,5,ENCODER_B_5*%
%TO.N,Net-(S1-ENCODER_B)*%
X37800000Y-42800000D03*
%TO.P,S1,6,C_6*%
%TO.N,Net-(S1-C)*%
X31500000Y-36500000D03*
%TO.P,S1,7,COM_7*%
%TO.N,GND*%
X29000000Y-38520000D03*
%TO.P,S1,8,ENCODER_COM_8*%
X28500000Y-36500000D03*
%TO.P,S1,9,D_9*%
%TO.N,Net-(S1-D)*%
X22200000Y-42800000D03*
%TO.P,S1,10,ENCODER_A_10*%
%TO.N,Net-(S1-ENCODER_A)*%
X22200000Y-45800000D03*
%TO.P,S1,11,Pos_11*%
%TO.N,unconnected-(S1-Pos-Pad11)*%
X26200000Y-45800000D03*
%TD*%
D12*
%TO.P,D4,1,K_1*%
%TO.N,Net-(D4-K)*%
X66040000Y-17780000D03*
D13*
%TO.P,D4,2,A_2*%
%TO.N,+3.3V*%
X63500000Y-17780000D03*
%TD*%
D12*
%TO.P,D3,1,K_1*%
%TO.N,Net-(D3-K)*%
X68580000Y-17780000D03*
D13*
%TO.P,D3,2,A_2*%
%TO.N,+3.3V*%
X71120000Y-17780000D03*
%TD*%
D14*
%TO.P,J3,1,Pin_1_1*%
%TO.N,+3.3V*%
X149540000Y-20320000D03*
D10*
%TO.P,J3,2,Pin_2_2*%
%TO.N,unconnected-(J3-Pin_2-Pad2)*%
X149540000Y-22860000D03*
%TO.P,J3,3,Pin_3_3*%
%TO.N,GND*%
X149540000Y-25400000D03*
%TO.P,J3,4,Pin_4_4*%
%TO.N,SCK*%
X149540000Y-27940000D03*
%TO.P,J3,5,Pin_5_5*%
%TO.N,SDA*%
X149540000Y-30480000D03*
%TD*%
D12*
%TO.P,D2,1,K_1*%
%TO.N,Net-(D2-K)*%
X116840000Y-17780000D03*
D13*
%TO.P,D2,2,A_2*%
%TO.N,+3.3V*%
X114300000Y-17780000D03*
%TD*%
D10*
%TO.P,SW2,1,A_1*%
%TO.N,GND*%
X31830000Y-20610000D03*
X38330000Y-20610000D03*
%TO.P,SW2,2,B_2*%
%TO.N,SW2*%
X31830000Y-25110000D03*
X38330000Y-25110000D03*
%TD*%
D12*
%TO.P,U1,A1,CCW_1_A1*%
%TO.N,Net-(U1-CCW_1)*%
X152500000Y-51500000D03*
D13*
%TO.P,U1,A2,CCW_2_A2*%
%TO.N,Net-(U1-CCW_2)*%
X152500000Y-34500000D03*
%TO.P,U1,B1,CW_1_B1*%
%TO.N,Net-(U1-CW_1)*%
X157500000Y-51500000D03*
%TO.P,U1,B2,CW_2_B2*%
%TO.N,Net-(U1-CW_2)*%
X157500000Y-34500000D03*
%TO.P,U1,C1,WIPER_1_C1*%
%TO.N,GND*%
X155000000Y-51500000D03*
%TO.P,U1,C2,WIPER_2_C2*%
X155000000Y-34500000D03*
D15*
%TO.P,U1,MH1,MH1_MH1*%
%TO.N,unconnected-(U1-PadMH1)*%
X149500000Y-44000000D03*
%TO.P,U1,MH2,MH2_MH2*%
%TO.N,unconnected-(U1-PadMH2)*%
X160500000Y-44000000D03*
D13*
%TO.P,U1,S1,S_S1*%
%TO.N,GND*%
X152500000Y-37000000D03*
%TO.P,U1,W1,W_W1*%
%TO.N,Net-(U1-W)*%
X157500000Y-37000000D03*
%TD*%
D10*
%TO.P,SW3,1,A_1*%
%TO.N,GND*%
X21670000Y-28230000D03*
X28170000Y-28230000D03*
%TO.P,SW3,2,B_2*%
%TO.N,SW3*%
X21670000Y-32730000D03*
X28170000Y-32730000D03*
%TD*%
%TO.P,SW4,1,A_1*%
%TO.N,GND*%
X31830000Y-28230000D03*
X38330000Y-28230000D03*
%TO.P,SW4,2,B_2*%
%TO.N,SW4*%
X31830000Y-32730000D03*
X38330000Y-32730000D03*
%TD*%
D12*
%TO.P,D1,1,K_1*%
%TO.N,Net-(D1-K)*%
X119380000Y-17780000D03*
D13*
%TO.P,D1,2,A_2*%
%TO.N,+3.3V*%
X121920000Y-17780000D03*
%TD*%
D16*
%TO.P,J1,1,1_1*%
%TO.N,SCLK*%
X97980000Y-33580000D03*
D11*
%TO.P,J1,2,2_2*%
%TO.N,SIN*%
X95240000Y-33580000D03*
%TO.P,J1,3,3_3*%
%TO.N,CS*%
X92500000Y-33580000D03*
%TO.P,J1,4,4_4*%
%TO.N,DC*%
X89760000Y-33580000D03*
%TO.P,J1,5,5_5*%
%TO.N,RESET*%
X87020000Y-33580000D03*
%TO.P,J1,6,6_6*%
%TO.N,GND*%
X96610000Y-36420000D03*
%TO.P,J1,7,7_7*%
%TO.N,SDA*%
X93870000Y-36420000D03*
%TO.P,J1,8,8_8*%
%TO.N,SCK*%
X91130000Y-36420000D03*
%TO.P,J1,9,9_9*%
%TO.N,+3.3V*%
X88390000Y-36420000D03*
D17*
%TO.P,J1,MH1*%
%TO.N,N/C*%
X80000000Y-35000000D03*
%TO.P,J1,MH2*%
X105000000Y-35000000D03*
%TD*%
D10*
%TO.P,U3,1,Gnd_1*%
%TO.N,GND*%
X138800000Y-45740000D03*
%TO.P,U3,2,Vcc_2*%
%TO.N,+3.3V*%
X141340000Y-45740000D03*
%TO.P,U3,3,NC_3*%
%TO.N,unconnected-(U3-NC-Pad3)*%
X138800000Y-43200000D03*
%TO.P,U3,4,D0/Clk_4*%
%TO.N,SCLK*%
X141340000Y-43200000D03*
%TO.P,U3,5,D1/Din_5*%
%TO.N,SIN*%
X138800000Y-40660000D03*
%TO.P,U3,6,D2_6*%
%TO.N,unconnected-(U3-D2-Pad6)*%
X141340000Y-40660000D03*
%TO.P,U3,7,D3_7*%
%TO.N,unconnected-(U3-D3-Pad7)*%
X138800000Y-38120000D03*
%TO.P,U3,8,D4_8*%
%TO.N,unconnected-(U3-D4-Pad8)*%
X141340000Y-38120000D03*
%TO.P,U3,9,D5_9*%
%TO.N,unconnected-(U3-D5-Pad9)*%
X138800000Y-35580000D03*
%TO.P,U3,10,D6_10*%
%TO.N,unconnected-(U3-D6-Pad10)*%
X141340000Y-35580000D03*
%TO.P,U3,11,D7_11*%
%TO.N,unconnected-(U3-D7-Pad11)*%
X138800000Y-33040000D03*
%TO.P,U3,12,E/RD#_12*%
%TO.N,unconnected-(U3-E{slash}RD#-Pad12)*%
X141340000Y-33040000D03*
%TO.P,U3,13,R/W#_13*%
%TO.N,unconnected-(U3-R{slash}W#-Pad13)*%
X138800000Y-30500000D03*
%TO.P,U3,14,D/C#_14*%
%TO.N,DC*%
X141340000Y-30500000D03*
%TO.P,U3,15,RES#_15*%
%TO.N,RESET*%
X138800000Y-27960000D03*
%TO.P,U3,16,CS$_16*%
%TO.N,CS*%
X141340000Y-27960000D03*
%TD*%
D18*
%TO.P,C5,1*%
%TO.N,+3.3V*%
X88265000Y-17145000D03*
%TO.P,C5,2*%
%TO.N,GND*%
X88265000Y-22145000D03*
%TD*%
%TO.P,R2,1*%
%TO.N,Net-(U1-CCW_2)*%
X116205000Y-44450000D03*
%TO.P,R2,2*%
%TO.N,Net-(C2-Pad1)*%
X116205000Y-36830000D03*
%TD*%
%TO.P,C2,1*%
%TO.N,Net-(C2-Pad1)*%
X116205000Y-32940000D03*
%TO.P,C2,2*%
%TO.N,GND*%
X116205000Y-27940000D03*
%TD*%
%TO.P,R4,1*%
%TO.N,Net-(U1-CW_2)*%
X123825000Y-44490000D03*
%TO.P,R4,2*%
%TO.N,Net-(C4-Pad1)*%
X123825000Y-36870000D03*
%TD*%
%TO.P,R1,1*%
%TO.N,Net-(U1-CCW_1)*%
X112395000Y-44450000D03*
%TO.P,R1,2*%
%TO.N,Net-(C1-Pad1)*%
X112395000Y-36830000D03*
%TD*%
%TO.P,C3,1*%
%TO.N,Net-(C3-Pad1)*%
X120015000Y-32940000D03*
%TO.P,C3,2*%
%TO.N,GND*%
X120015000Y-27940000D03*
%TD*%
D19*
%TO.P,J2,1,Pin_1_1*%
%TO.N,+3.3V*%
X56515000Y-29864683D03*
D10*
%TO.P,J2,2,Pin_2_2*%
%TO.N,GND*%
X59055000Y-29864683D03*
%TO.P,J2,3,Pin_3_3*%
%TO.N,SCK*%
X61595000Y-29864683D03*
%TO.P,J2,4,Pin_4_4*%
%TO.N,SDA*%
X64135000Y-29845000D03*
%TO.P,J2,5,Pin_5_5*%
%TO.N,+3.3V*%
X66675000Y-29864683D03*
%TO.P,J2,6,Pin_6_6*%
X69215000Y-29864683D03*
%TD*%
D20*
%TO.P,U2,1,GPB0_1*%
%TO.N,SW4*%
X127000000Y-52070000D03*
D18*
%TO.P,U2,2,GPB1_2*%
%TO.N,Net-(S1-PUSH)*%
X127000000Y-49530000D03*
%TO.P,U2,3,GPB2_3*%
%TO.N,Net-(S1-A)*%
X127000000Y-46990000D03*
%TO.P,U2,4,GPB3_4*%
%TO.N,Net-(S1-B)*%
X127000000Y-44450000D03*
%TO.P,U2,5,GPB4_5*%
%TO.N,Net-(S1-C)*%
X127000000Y-41910000D03*
%TO.P,U2,6,GPB5_6*%
%TO.N,Net-(S1-D)*%
X127000000Y-39370000D03*
%TO.P,U2,7,GPB6_7*%
%TO.N,Net-(S1-ENCODER_A)*%
X127000000Y-36830000D03*
%TO.P,U2,8,GPB7_8*%
%TO.N,Net-(S1-ENCODER_B)*%
X127000000Y-34290000D03*
%TO.P,U2,9,V_{DD}_9*%
%TO.N,+3.3V*%
X127000000Y-31750000D03*
%TO.P,U2,10,V_{SS}_10*%
%TO.N,GND*%
X127000000Y-29210000D03*
%TO.P,U2,11,NC_11*%
%TO.N,unconnected-(U2-NC-Pad11)*%
X127000000Y-26670000D03*
%TO.P,U2,12,SCK_12*%
%TO.N,SCK*%
X127000000Y-24130000D03*
%TO.P,U2,13,SDA_13*%
%TO.N,SDA*%
X127000000Y-21590000D03*
%TO.P,U2,14,NC_14*%
%TO.N,unconnected-(U2-NC-Pad14)*%
X127000000Y-19050000D03*
%TO.P,U2,15,A0_15*%
%TO.N,+3.3V*%
X134620000Y-19050000D03*
%TO.P,U2,16,A1_16*%
X134620000Y-21590000D03*
%TO.P,U2,17,A2_17*%
X134620000Y-24130000D03*
%TO.P,U2,18,~{RESET}_18*%
%TO.N,RESET*%
X134620000Y-26670000D03*
%TO.P,U2,19,INTB_19*%
%TO.N,unconnected-(U2-INTB-Pad19)*%
X134620000Y-29210000D03*
%TO.P,U2,20,INTA_20*%
%TO.N,unconnected-(U2-INTA-Pad20)*%
X134620000Y-31750000D03*
%TO.P,U2,21,GPA0_21*%
%TO.N,Net-(U1-CCW_1)*%
X134620000Y-34290000D03*
%TO.P,U2,22,GPA1_22*%
%TO.N,Net-(U1-CCW_2)*%
X134620000Y-36830000D03*
%TO.P,U2,23,GPA2_23*%
%TO.N,Net-(U1-CW_1)*%
X134620000Y-39370000D03*
%TO.P,U2,24,GPA3_24*%
%TO.N,Net-(U1-CW_2)*%
X134620000Y-41910000D03*
%TO.P,U2,25,GPA4_25*%
%TO.N,Net-(U1-W)*%
X134620000Y-44450000D03*
%TO.P,U2,26,GPA5_26*%
%TO.N,SW1*%
X134620000Y-46990000D03*
%TO.P,U2,27,GPA6_27*%
%TO.N,SW2*%
X134620000Y-49530000D03*
%TO.P,U2,28,GPA7_28*%
%TO.N,SW3*%
X134620000Y-52070000D03*
%TD*%
%TO.P,R8,1*%
%TO.N,SCK*%
X93345000Y-24765000D03*
%TO.P,R8,2*%
%TO.N,+3.3V*%
X93345000Y-17145000D03*
%TD*%
%TO.P,C4,1*%
%TO.N,Net-(C4-Pad1)*%
X123825000Y-32980000D03*
%TO.P,C4,2*%
%TO.N,GND*%
X123825000Y-27980000D03*
%TD*%
%TO.P,C1,1*%
%TO.N,Net-(C1-Pad1)*%
X112395000Y-32940000D03*
%TO.P,C1,2*%
%TO.N,GND*%
X112395000Y-27940000D03*
%TD*%
%TO.P,R7,1*%
%TO.N,SDA*%
X97155000Y-24765000D03*
%TO.P,R7,2*%
%TO.N,+3.3V*%
X97155000Y-17145000D03*
%TD*%
%TO.P,R5,1*%
%TO.N,SDA*%
X101092000Y-45212000D03*
%TO.P,R5,2*%
%TO.N,+3.3V*%
X93472000Y-45212000D03*
%TD*%
D21*
%TO.P,U4,1,SCL_1*%
%TO.N,SCK*%
X82741201Y-20281200D03*
%TO.P,U4,2,SDA_2*%
%TO.N,SDA*%
X82241200Y-20281200D03*
%TO.P,U4,3,GND_3*%
%TO.N,GND*%
X81741200Y-20281200D03*
%TO.P,U4,4,VCC_4*%
%TO.N,+3.3V*%
X81241199Y-20281200D03*
%TO.P,U4,5,OUT3_5*%
%TO.N,Net-(D4-K)*%
X81241199Y-18858800D03*
%TO.P,U4,6,OUT2_6*%
%TO.N,Net-(D3-K)*%
X81741200Y-18858800D03*
%TO.P,U4,7,OUT1_7*%
%TO.N,Net-(D2-K)*%
X82241200Y-18858800D03*
%TO.P,U4,8,OUT0_8*%
%TO.N,Net-(D1-K)*%
X82741201Y-18858800D03*
%TD*%
D18*
%TO.P,R3,1*%
%TO.N,Net-(U1-CW_1)*%
X120015000Y-44450000D03*
%TO.P,R3,2*%
%TO.N,Net-(C3-Pad1)*%
X120015000Y-36830000D03*
%TD*%
%TO.P,R6,1*%
%TO.N,SCK*%
X90678000Y-45212000D03*
%TO.P,R6,2*%
%TO.N,+3.3V*%
X83058000Y-45212000D03*
%TD*%
D22*
%TO.N,GND*%
X82066200Y-22020800D03*
X41275000Y-52070000D03*
X40005000Y-48260000D03*
X136790000Y-39370000D03*
X136790000Y-41910000D03*
D23*
%TO.N,SW1*%
X102659265Y-37500000D03*
X125526200Y-46256100D03*
%TO.N,Net-(S1-ENCODER_B)*%
X115039300Y-34983000D03*
X109855000Y-42800000D03*
%TO.N,Net-(S1-ENCODER_A)*%
X114300000Y-40361700D03*
%TO.N,Net-(D3-K)*%
X80908965Y-16445000D03*
%TO.N,SCK*%
X84782300Y-19612900D03*
X80645000Y-43815000D03*
%TO.N,SCLK*%
X125211800Y-47656900D03*
%TO.N,CS*%
X135251500Y-30493800D03*
%TO.N,DC*%
X136785800Y-26096900D03*
%TD*%
%TO.N,GND*%
D24*
X82190400Y-22145000D02*
X82066200Y-22020800D01*
D25*
X81741200Y-21523100D02*
X81741200Y-20281200D01*
D24*
X40005000Y-50800000D02*
X41275000Y-52070000D01*
X127000000Y-29210000D02*
X125055000Y-29210000D01*
X136790000Y-39370000D02*
X136790000Y-41910000D01*
D25*
X82066200Y-22020800D02*
X81741200Y-21695800D01*
X81741200Y-21695800D02*
X81741200Y-21523100D01*
D24*
X40005000Y-48260000D02*
X40005000Y-50800000D01*
X125055000Y-29210000D02*
X123825000Y-27980000D01*
X88265000Y-22145000D02*
X82190400Y-22145000D01*
%TO.N,SW1*%
D25*
X112289300Y-46256100D02*
X125526200Y-46256100D01*
X103533200Y-37500000D02*
X112289300Y-46256100D01*
X102659265Y-37500000D02*
X103533200Y-37500000D01*
X28170000Y-25110000D02*
X21670000Y-25110000D01*
%TO.N,Net-(S1-ENCODER_B)*%
X115039300Y-35985700D02*
X115039300Y-34983000D01*
X111281000Y-39744000D02*
X115039300Y-35985700D01*
X109855000Y-42800000D02*
X111281000Y-41374000D01*
X111281000Y-41374000D02*
X111281000Y-39744000D01*
%TO.N,Net-(S1-ENCODER_A)*%
X122647300Y-35755800D02*
X122647300Y-32578500D01*
X124197400Y-31794300D02*
X125721100Y-33318000D01*
X125721100Y-35551100D02*
X127000000Y-36830000D01*
X122647300Y-32578500D02*
X123431500Y-31794300D01*
X125721100Y-33318000D02*
X125721100Y-35551100D01*
X123431500Y-31794300D02*
X124197400Y-31794300D01*
X118041400Y-40361700D02*
X122647300Y-35755800D01*
X114300000Y-40361700D02*
X118041400Y-40361700D01*
%TO.N,Net-(D4-K)*%
X79689400Y-16510000D02*
X81241200Y-18061800D01*
X66040000Y-17780000D02*
X67241700Y-17780000D01*
X67241700Y-17780000D02*
X67241700Y-16878700D01*
X67241700Y-16878700D02*
X67610400Y-16510000D01*
X67610400Y-16510000D02*
X79689400Y-16510000D01*
X81241200Y-18061800D02*
X81241200Y-18858800D01*
%TO.N,+3.3V*%
D24*
X120618300Y-16478300D02*
X121920000Y-17780000D01*
X82999250Y-31300750D02*
X88118500Y-36420000D01*
X92266000Y-46418000D02*
X84264000Y-46418000D01*
X141340000Y-45740000D02*
X142827100Y-44252900D01*
X135811200Y-24130000D02*
X134620000Y-24130000D01*
X71120000Y-19092900D02*
X64812900Y-19092900D01*
X121920000Y-17780000D02*
X133350000Y-17780000D01*
X149540000Y-20320000D02*
X135890000Y-20320000D01*
X88118500Y-36420000D02*
X88390000Y-36420000D01*
X59074683Y-27305000D02*
X56515000Y-29864683D01*
X64812900Y-19092900D02*
X63500000Y-17780000D01*
X134620000Y-19050000D02*
X135890000Y-20320000D01*
X114300000Y-17780000D02*
X115601700Y-16478300D01*
X84264000Y-46418000D02*
X83058000Y-45212000D01*
X142842793Y-44252900D02*
X144780000Y-42315694D01*
X137290000Y-25608800D02*
X135811200Y-24130000D01*
X115601700Y-16478300D02*
X120618300Y-16478300D01*
X81034300Y-29335800D02*
X88118500Y-36420000D01*
X69215000Y-29864683D02*
X66675000Y-29864683D01*
X135890000Y-20320000D02*
X134620000Y-21590000D01*
X81241200Y-20281200D02*
X81034300Y-20281200D01*
X64115317Y-27305000D02*
X59074683Y-27305000D01*
X127000000Y-31750000D02*
X134620000Y-24130000D01*
X93472000Y-45212000D02*
X92266000Y-46418000D01*
X144780000Y-42315694D02*
X144780000Y-29340800D01*
X72308300Y-20281200D02*
X71120000Y-19092900D01*
X142827100Y-44252900D02*
X142842793Y-44252900D01*
X81034300Y-20281200D02*
X81034300Y-29335800D01*
X133350000Y-17780000D02*
X134620000Y-19050000D01*
X83058000Y-45212000D02*
X82999250Y-45153250D01*
X82999250Y-45153250D02*
X82999250Y-31300750D01*
X80505417Y-29864683D02*
X81034300Y-29335800D01*
X81034300Y-20281200D02*
X72308300Y-20281200D01*
X144780000Y-29340800D02*
X141048000Y-25608800D01*
X66675000Y-29864683D02*
X64115317Y-27305000D01*
X71120000Y-19092900D02*
X71120000Y-17780000D01*
X141048000Y-25608800D02*
X137290000Y-25608800D01*
X69215000Y-29864683D02*
X80505417Y-29864683D01*
%TO.N,Net-(D3-K)*%
D25*
X81741200Y-17993700D02*
X81741200Y-18858800D01*
X80908965Y-17161465D02*
X81741200Y-17993700D01*
X80908965Y-16445000D02*
X80908965Y-17161465D01*
%TO.N,SCK*%
X80645000Y-43815000D02*
X75545317Y-43815000D01*
X88289400Y-29820600D02*
X88289400Y-34243900D01*
X73895000Y-42164682D02*
X73895000Y-36360686D01*
X83409400Y-19613000D02*
X84782300Y-19613000D01*
X75545317Y-43815000D02*
X73895000Y-42164682D01*
X90678000Y-45212000D02*
X91130000Y-44760000D01*
X93345000Y-24765000D02*
X88289400Y-29820600D01*
X82741200Y-20281200D02*
X83409400Y-19613000D01*
X84782300Y-19613000D02*
X84782300Y-19612900D01*
X63880317Y-32150000D02*
X61595000Y-29864683D01*
X91130000Y-44760000D02*
X91130000Y-36420000D01*
X73895000Y-36360686D02*
X69684314Y-32150000D01*
X90465500Y-36420000D02*
X91130000Y-36420000D01*
X69684314Y-32150000D02*
X63880317Y-32150000D01*
X88289400Y-34243900D02*
X90465500Y-36420000D01*
%TO.N,SDA*%
X66040000Y-31750000D02*
X69850000Y-31750000D01*
X81958000Y-45667635D02*
X83208365Y-46918000D01*
X144122100Y-25062100D02*
X138523700Y-25062100D01*
X101092000Y-45212000D02*
X99599200Y-43719200D01*
X69850000Y-31750000D02*
X74295000Y-36195000D01*
X93870000Y-36420000D02*
X93870000Y-41030400D01*
X64135000Y-29845000D02*
X66040000Y-31750000D01*
X99599200Y-43719200D02*
X96558800Y-43719200D01*
X83130101Y-20955000D02*
X83130101Y-21076500D01*
X138523700Y-25062100D02*
X136321600Y-22860000D01*
X99386000Y-46918000D02*
X101092000Y-45212000D01*
X89655100Y-34969900D02*
X88691100Y-34005900D01*
X82352301Y-21076500D02*
X82352301Y-20955000D01*
X97155000Y-24765100D02*
X97155000Y-24765000D01*
X82241200Y-20955000D02*
X82241200Y-20281200D01*
X88691100Y-34005900D02*
X88691100Y-33146700D01*
X93870000Y-36420000D02*
X92419900Y-34969900D01*
X81670365Y-43180000D02*
X81958000Y-43467635D01*
X82352301Y-20955000D02*
X82241200Y-20955000D01*
X75476003Y-43180000D02*
X81670365Y-43180000D01*
X91162200Y-20955000D02*
X83130101Y-20955000D01*
X97072700Y-24765100D02*
X97155000Y-24765100D01*
X136321600Y-22860000D02*
X128270000Y-22860000D01*
X149540000Y-30480000D02*
X144122100Y-25062100D01*
X92419900Y-34969900D02*
X89655100Y-34969900D01*
X88691100Y-33146700D02*
X96022500Y-25815300D01*
X96022500Y-25815300D02*
X91162200Y-20955000D01*
X93870000Y-41030400D02*
X96558800Y-43719200D01*
X83130101Y-21076500D02*
X82352301Y-21076500D01*
X83208365Y-46918000D02*
X99386000Y-46918000D01*
X81958000Y-43467635D02*
X81958000Y-45667635D01*
X128270000Y-22860000D02*
X127000000Y-21590000D01*
X74295000Y-36195000D02*
X74295000Y-41998997D01*
X96022500Y-25815300D02*
X97072700Y-24765100D01*
X74295000Y-41998997D02*
X75476003Y-43180000D01*
%TO.N,Net-(D2-K)*%
X114793500Y-19000300D02*
X98623200Y-19000300D01*
X83496800Y-18598600D02*
X82931200Y-18033000D01*
X115638300Y-18155500D02*
X114793500Y-19000300D01*
X116840000Y-17780000D02*
X115638300Y-17780000D01*
X82552100Y-18033000D02*
X82241200Y-18343900D01*
X82931200Y-18033000D02*
X82552100Y-18033000D01*
X98221500Y-18598600D02*
X83496800Y-18598600D01*
X115638300Y-17780000D02*
X115638300Y-18155500D01*
X98623200Y-19000300D02*
X98221500Y-18598600D01*
X82241200Y-18343900D02*
X82241200Y-18858800D01*
%TO.N,SW2*%
X31830000Y-25110000D02*
X38330000Y-25110000D01*
X124763800Y-48260000D02*
X133350000Y-48260000D01*
X133350000Y-48260000D02*
X134620000Y-49530000D01*
X123856900Y-47353100D02*
X124763800Y-48260000D01*
X38330000Y-25110000D02*
X60573100Y-47353100D01*
X60573100Y-47353100D02*
X123856900Y-47353100D01*
%TO.N,Net-(U1-CCW_1)*%
X130810000Y-38100000D02*
X134620000Y-34290000D01*
X114616600Y-44419600D02*
X120936200Y-38100000D01*
X120936200Y-38100000D02*
X130810000Y-38100000D01*
X137732600Y-49057500D02*
X137076600Y-48401500D01*
X148855800Y-49057500D02*
X137732600Y-49057500D01*
X152500000Y-51500000D02*
X151298300Y-51500000D01*
X115851400Y-45654400D02*
X114616600Y-44419600D01*
X131314600Y-45654400D02*
X115851400Y-45654400D01*
X134061700Y-48401500D02*
X131314600Y-45654400D01*
X114616600Y-44419600D02*
X112425400Y-44419600D01*
X137076600Y-48401500D02*
X134061700Y-48401500D01*
X112425400Y-44419600D02*
X112395000Y-44450000D01*
X151298300Y-51500000D02*
X148855800Y-49057500D01*
%TO.N,Net-(U1-CCW_2)*%
X135890000Y-38100000D02*
X135890000Y-42614314D01*
X143327300Y-45601200D02*
X143327300Y-44475500D01*
X143327300Y-44475500D02*
X151200200Y-36602600D01*
X136959800Y-43684115D02*
X136959800Y-45755400D01*
X136959800Y-45755400D02*
X138246100Y-47041700D01*
X130810000Y-40640000D02*
X134620000Y-36830000D01*
X151200200Y-35799800D02*
X152500000Y-34500000D01*
X134620000Y-36830000D02*
X135890000Y-38100000D01*
X116205000Y-44450000D02*
X120015000Y-40640000D01*
X151200200Y-36602600D02*
X151200200Y-35799800D01*
X141886800Y-47041700D02*
X143327300Y-45601200D01*
X138246100Y-47041700D02*
X141886800Y-47041700D01*
X135890000Y-42614314D02*
X136959800Y-43684115D01*
X120015000Y-40640000D02*
X130810000Y-40640000D01*
%TO.N,Net-(U1-CW_1)*%
X121285000Y-43180000D02*
X130810000Y-43180000D01*
X130810000Y-43180000D02*
X131259000Y-42731000D01*
X120015000Y-44450000D02*
X121285000Y-43180000D01*
X154315300Y-48315300D02*
X157500000Y-51500000D01*
X135049500Y-45566000D02*
X137798800Y-48315300D01*
X131259000Y-42731000D02*
X134094000Y-45566000D01*
X134620000Y-39370000D02*
X131259000Y-42731000D01*
X134094000Y-45566000D02*
X135049500Y-45566000D01*
X137798800Y-48315300D02*
X154315300Y-48315300D01*
%TO.N,Net-(U1-CW_2)*%
X136559800Y-43849800D02*
X136559800Y-45938200D01*
X138072400Y-47450800D02*
X142115400Y-47450800D01*
X144298200Y-45268000D02*
X144298200Y-44984000D01*
X134620000Y-41910000D02*
X136559800Y-43849800D01*
X144298200Y-44984000D02*
X151026600Y-38255600D01*
X153744400Y-38255600D02*
X157500000Y-34500000D01*
X142115400Y-47450800D02*
X144298200Y-45268000D01*
X136559800Y-45938200D02*
X138072400Y-47450800D01*
X151026600Y-38255600D02*
X153744400Y-38255600D01*
%TO.N,Net-(U1-W)*%
X142297800Y-47852500D02*
X144699900Y-45450400D01*
X155352900Y-39147100D02*
X157500000Y-37000000D01*
X150710300Y-39147100D02*
X155352900Y-39147100D01*
X144699900Y-45450400D02*
X144699900Y-45157500D01*
X137241000Y-47187400D02*
X137241000Y-47189500D01*
X137895100Y-47843600D02*
X137897200Y-47843600D01*
X134620000Y-44450000D02*
X134620000Y-44566400D01*
X137897200Y-47843600D02*
X137906100Y-47852500D01*
X137906100Y-47852500D02*
X142297800Y-47852500D01*
X144699900Y-45157500D02*
X150710300Y-39147100D01*
X134620000Y-44566400D02*
X137241000Y-47187400D01*
X137241000Y-47189500D02*
X137895100Y-47843600D01*
%TO.N,SW3*%
X30050200Y-34610200D02*
X28170000Y-32730000D01*
X134620000Y-52070000D02*
X133486400Y-53203600D01*
X39245400Y-44298500D02*
X37783700Y-44298500D01*
X99027800Y-53203600D02*
X93980700Y-48156500D01*
X21670000Y-32730000D02*
X28170000Y-32730000D01*
X43103400Y-48156500D02*
X39245400Y-44298500D01*
X30050200Y-36565000D02*
X30050200Y-34610200D01*
X93980700Y-48156500D02*
X43103400Y-48156500D01*
X37783700Y-44298500D02*
X30050200Y-36565000D01*
X133486400Y-53203600D02*
X99027800Y-53203600D01*
%TO.N,SW4*%
X53354800Y-47754800D02*
X122684800Y-47754800D01*
X31830000Y-32730000D02*
X38330000Y-32730000D01*
X38330000Y-32730000D02*
X53354800Y-47754800D01*
X122684800Y-47754800D02*
X127000000Y-52070000D01*
%TO.N,Net-(D1-K)*%
X118178300Y-18681300D02*
X118178300Y-17780000D01*
X82882700Y-19000300D02*
X97855000Y-19000300D01*
X98280300Y-19425600D02*
X117434000Y-19425600D01*
X82741200Y-18858800D02*
X82882700Y-19000300D01*
X119380000Y-17780000D02*
X118178300Y-17780000D01*
X117434000Y-19425600D02*
X118178300Y-18681300D01*
X97855000Y-19000300D02*
X98280300Y-19425600D01*
%TO.N,SCLK*%
X124349700Y-46794800D02*
X125211800Y-47656900D01*
X97980000Y-33580000D02*
X97980000Y-33845000D01*
X97980000Y-33845000D02*
X110929800Y-46794800D01*
X110929800Y-46794800D02*
X124349700Y-46794800D01*
%TO.N,CS*%
X140038300Y-26658300D02*
X138198000Y-26658300D01*
X136346400Y-29398900D02*
X135251500Y-30493800D01*
X136346400Y-28509900D02*
X136346400Y-29398900D01*
X141340000Y-27960000D02*
X140038300Y-26658300D01*
X138198000Y-26658300D02*
X136346400Y-28509900D01*
%TO.N,DC*%
X126132800Y-32873200D02*
X124652200Y-31392600D01*
X136785800Y-26096900D02*
X134942700Y-27940000D01*
X134101700Y-27940000D02*
X129168500Y-32873200D01*
X124652200Y-31392600D02*
X91947400Y-31392600D01*
X91947400Y-31392600D02*
X89760000Y-33580000D01*
X134942700Y-27940000D02*
X134101700Y-27940000D01*
X129168500Y-32873200D02*
X126132800Y-32873200D01*
%TO.N,Net-(C2-Pad1)*%
X116205000Y-32940000D02*
X116205000Y-36830000D01*
%TO.N,Net-(C4-Pad1)*%
X123825000Y-32980000D02*
X123825000Y-36870000D01*
%TO.N,Net-(C1-Pad1)*%
X112395000Y-32940000D02*
X112395000Y-36830000D01*
%TO.N,Net-(C3-Pad1)*%
X120015000Y-32940000D02*
X120015000Y-36830000D01*
%TD*%
M02*
