M48
; DRILL file KiCad 10.0.2 date 2026-05-11T18:43:02
; FORMAT={-:-/ absolute / metric / decimal}
; #@! TF.CreationDate,2026-05-11T18:43:02-07:00
; #@! TF.GenerationSoftware,Kicad,Pcbnew,10.0.2
; #@! TF.FileFunction,Plated,1,2,PTH
FMAT,2
METRIC
; #@! TA.AperFunction,Plated,PTH,ViaDrill
T1C0.300
; #@! TA.AperFunction,Plated,PTH,ComponentDrill
T2C0.800
; #@! TA.AperFunction,Plated,PTH,ComponentDrill
T3C0.900
; #@! TA.AperFunction,Plated,PTH,ComponentDrill
T4C1.000
; #@! TA.AperFunction,Plated,PTH,ComponentDrill
T5C1.200
; #@! TA.AperFunction,Plated,PTH,ComponentDrill
T6C3.000
; #@! TA.AperFunction,Plated,PTH,ComponentDrill
T7C3.050
%
G90
G05
T1
X40.894Y-48.006
X40.894Y-50.546
X47.419Y-46.276
X78.496Y-39.827
X88.392Y-30.48
X93.064Y-42.257
X93.118Y-40.689
X93.726Y-29.718
X108.919Y-42.931
X110.824Y-43.602
X111.903Y-46.147
X114.258Y-38.734
X123.842Y-36.869
X132.433Y-33.201
X142.902Y-26.794
T2
X23.622Y-17.546
X26.162Y-17.546
X28.702Y-17.526
X31.242Y-17.546
X33.782Y-17.546
X36.322Y-17.546
X44.0Y-27.0
X44.0Y-34.0
X44.0Y-41.0
X44.0Y-48.0
X51.62Y-27.0
X51.62Y-34.0
X51.62Y-41.0
X51.62Y-48.0
X55.88Y-27.94
X55.88Y-33.02
X55.88Y-38.1
X55.88Y-43.18
X60.88Y-27.94
X60.88Y-33.02
X60.88Y-38.1
X60.88Y-43.18
X64.77Y-27.94
X64.77Y-33.02
X64.77Y-38.1
X64.77Y-43.18
X72.39Y-27.94
X72.39Y-33.02
X72.39Y-38.1
X72.39Y-43.18
X83.82Y-44.704
X91.44Y-44.704
X93.726Y-44.704
X101.346Y-44.704
X119.38Y-19.09
X119.38Y-21.63
X119.38Y-24.17
X119.38Y-26.71
X119.38Y-29.25
X119.38Y-31.79
X119.38Y-34.33
X119.38Y-36.87
X119.38Y-39.41
X119.38Y-41.95
X119.38Y-44.49
X119.38Y-47.03
X119.38Y-49.57
X119.38Y-52.11
X127.0Y-19.09
X127.0Y-21.63
X127.0Y-24.17
X127.0Y-26.71
X127.0Y-29.25
X127.0Y-31.79
X127.0Y-34.33
X127.0Y-36.87
X127.0Y-39.41
X127.0Y-41.95
X127.0Y-44.49
X127.0Y-47.03
X127.0Y-49.57
X127.0Y-52.11
X138.8Y-27.96
X138.8Y-30.5
X138.8Y-33.04
X138.8Y-35.58
X138.8Y-38.12
X138.8Y-40.66
X138.8Y-43.2
X138.8Y-45.74
X141.34Y-27.96
X141.34Y-30.5
X141.34Y-33.04
X141.34Y-35.58
X141.34Y-38.12
X141.34Y-40.66
X141.34Y-43.2
X141.34Y-45.74
X149.54Y-20.32
X149.54Y-22.86
X149.54Y-25.4
X149.54Y-27.94
X149.54Y-30.48
T3
X20.828Y-30.988
X23.368Y-30.988
X26.162Y-30.988
X28.702Y-30.988
X31.496Y-30.988
X34.036Y-30.988
X36.83Y-30.988
X39.37Y-30.988
T4
X22.2Y-42.8
X22.2Y-45.8
X26.2Y-45.8
X28.5Y-36.5
X28.5Y-52.1
X29.0Y-38.52
X31.0Y-51.28
X31.5Y-36.5
X36.86Y-48.05
X37.8Y-42.8
X37.8Y-45.8
X87.02Y-33.58
X88.39Y-36.42
X89.76Y-33.58
X91.13Y-36.42
X92.5Y-33.58
X93.87Y-36.42
X95.24Y-33.58
X96.61Y-36.42
X97.98Y-33.58
T5
X152.5Y-34.5
X152.5Y-37.0
X152.5Y-51.5
X155.0Y-34.5
X155.0Y-51.5
X157.5Y-34.5
X157.5Y-37.0
X157.5Y-51.5
T6
X149.5Y-44.0
X160.5Y-44.0
T7
X80.0Y-35.0
X105.0Y-35.0
M30
