%TF.GenerationSoftware,KiCad,Pcbnew,10.0.2*%
%TF.CreationDate,2026-05-25T01:38:51-07:00*%
%TF.ProjectId,panel,70616e65-6c2e-46b6-9963-61645f706362,rev?*%
%TF.SameCoordinates,Original*%
%TF.FileFunction,Legend,Bot*%
%TF.FilePolarity,Positive*%
%FSLAX46Y46*%
G04 Gerber Fmt 4.6, Leading zero omitted, Abs format (unit mm)*
G04 Created by KiCad (PCBNEW 10.0.2) date 2026-05-25 01:38:51*
%MOMM*%
%LPD*%
G01*
G04 APERTURE LIST*
%ADD10C,0.000000*%
%ADD11C,0.300000*%
%ADD12C,0.150000*%
%ADD13C,0.120000*%
%ADD14C,0.100000*%
%ADD15C,0.152400*%
G04 APERTURE END LIST*
D10*
G36*
X165021433Y-39042187D02*
G01*
X164156875Y-39042187D01*
X164156875Y-38694668D01*
X165021433Y-38694668D01*
X165021433Y-39042187D01*
G37*
G36*
X165021433Y-42021791D02*
G01*
X164156875Y-42021791D01*
X164156875Y-41674270D01*
X165021433Y-41674270D01*
X165021433Y-42021791D01*
G37*
G36*
X165021433Y-46802294D02*
G01*
X164156875Y-46802294D01*
X164156875Y-46454778D01*
X165021433Y-46454778D01*
X165021433Y-46802294D01*
G37*
G36*
X165343524Y-39042187D02*
G01*
X165123147Y-39042187D01*
X165123147Y-38694668D01*
X165343524Y-38694668D01*
X165343524Y-39042187D01*
G37*
G36*
X165343524Y-42021791D02*
G01*
X165123147Y-42021791D01*
X165123147Y-41674270D01*
X165343524Y-41674270D01*
X165343524Y-42021791D01*
G37*
G36*
X165343524Y-46802294D02*
G01*
X165123147Y-46802294D01*
X165123147Y-46454778D01*
X165343524Y-46454778D01*
X165343524Y-46802294D01*
G37*
G36*
X166122263Y-48686894D02*
G01*
X164156875Y-48686894D01*
X164156875Y-48069205D01*
X164760529Y-48069205D01*
X164760529Y-47254972D01*
X165237839Y-47254972D01*
X165237839Y-48069205D01*
X165616879Y-48069205D01*
X165616879Y-46946123D01*
X166122263Y-46946123D01*
X166122263Y-48686894D01*
G37*
G36*
X165021433Y-38101342D02*
G01*
X164953626Y-38177626D01*
X164953626Y-38211534D01*
X165021433Y-38211534D01*
X165021433Y-38491241D01*
X164156875Y-38491241D01*
X164156875Y-38143722D01*
X164707819Y-38143722D01*
X164750199Y-38092866D01*
X164750199Y-37804681D01*
X165021433Y-37804681D01*
X165021433Y-38101342D01*
G37*
G36*
X164428109Y-42640544D02*
G01*
X164470490Y-42682924D01*
X164707819Y-42682924D01*
X164750199Y-42640544D01*
X164750199Y-42199787D01*
X165021433Y-42199787D01*
X165021433Y-42827019D01*
X164818009Y-43030444D01*
X164360301Y-43030444D01*
X164156875Y-42827019D01*
X164156875Y-42199787D01*
X164428109Y-42199787D01*
X164428109Y-42640544D01*
G37*
G36*
X164428109Y-43598340D02*
G01*
X164470490Y-43640722D01*
X164707819Y-43640722D01*
X164750199Y-43598340D01*
X164750199Y-43157585D01*
X165021433Y-43157585D01*
X165021433Y-43784813D01*
X164818009Y-43988240D01*
X164360301Y-43988240D01*
X164156875Y-43784813D01*
X164156875Y-43157585D01*
X164428109Y-43157585D01*
X164428109Y-43598340D01*
G37*
G36*
X165021433Y-44522232D02*
G01*
X164470490Y-44522232D01*
X164428109Y-44573088D01*
X164428109Y-44725657D01*
X164462013Y-44759561D01*
X165021433Y-44759561D01*
X165021433Y-45107080D01*
X164351825Y-45107080D01*
X164156875Y-44912130D01*
X164156875Y-44564613D01*
X164224684Y-44488326D01*
X164224684Y-44454422D01*
X164156875Y-44454422D01*
X164156875Y-44174714D01*
X165021433Y-44174714D01*
X165021433Y-44522232D01*
G37*
G36*
X166122263Y-39932864D02*
G01*
X166122263Y-40769558D01*
X164985146Y-41251056D01*
X164325336Y-41530441D01*
X164156875Y-41530441D01*
X164156875Y-40943634D01*
X164479759Y-40820096D01*
X164479759Y-40626364D01*
X164985146Y-40626364D01*
X165588801Y-40393325D01*
X165588801Y-40323133D01*
X164985146Y-40095710D01*
X164985146Y-40626364D01*
X164479759Y-40626364D01*
X164479759Y-39907593D01*
X164156875Y-39786863D01*
X164156875Y-39186014D01*
X164325336Y-39186014D01*
X166122263Y-39932864D01*
G37*
G36*
X165343524Y-45658026D02*
G01*
X165021433Y-45658026D01*
X165021433Y-46064877D01*
X164818009Y-46268301D01*
X164707819Y-46268301D01*
X164360301Y-46268301D01*
X164156875Y-46064877D01*
X164156875Y-45717359D01*
X164428109Y-45717359D01*
X164428109Y-45878402D01*
X164470490Y-45920784D01*
X164707819Y-45920784D01*
X164750199Y-45878402D01*
X164750199Y-45658026D01*
X164470490Y-45658026D01*
X164428109Y-45717359D01*
X164156875Y-45717359D01*
X164156875Y-45708882D01*
X164224684Y-45627514D01*
X164224684Y-45590217D01*
X164156875Y-45590217D01*
X164156875Y-45310506D01*
X165343524Y-45310506D01*
X165343524Y-45658026D01*
G37*
G36*
X166167084Y-31593091D02*
G01*
X166178727Y-31614283D01*
X166223476Y-31699474D01*
X166380779Y-32002364D01*
X166518023Y-32285963D01*
X166635885Y-32551404D01*
X166735043Y-32799803D01*
X166816178Y-33032295D01*
X166879966Y-33250000D01*
X166927085Y-33454045D01*
X166958214Y-33645554D01*
X166974033Y-33825657D01*
X166975217Y-33995474D01*
X166962448Y-34156135D01*
X166936402Y-34308764D01*
X166897755Y-34454482D01*
X166847194Y-34594423D01*
X166785389Y-34729706D01*
X166713021Y-34861459D01*
X166630770Y-34990806D01*
X166539311Y-35118879D01*
X166331493Y-35375682D01*
X165835228Y-35923466D01*
X165557638Y-36232452D01*
X165267645Y-36576844D01*
X164970676Y-36965642D01*
X164821271Y-37179506D01*
X164672158Y-37407852D01*
X164578492Y-37407852D01*
X164649074Y-37290475D01*
X164721419Y-37174687D01*
X164871111Y-36947488D01*
X165026996Y-36725496D01*
X165188501Y-36507954D01*
X165355050Y-36294113D01*
X165526074Y-36083211D01*
X165700995Y-35874494D01*
X165879248Y-35667204D01*
X166022476Y-35499720D01*
X166154642Y-35339536D01*
X166275162Y-35185124D01*
X166383455Y-35034971D01*
X166478930Y-34887559D01*
X166561013Y-34741366D01*
X166629108Y-34594877D01*
X166657734Y-34521044D01*
X166682641Y-34446569D01*
X166703763Y-34371262D01*
X166721024Y-34294927D01*
X166734350Y-34217379D01*
X166743674Y-34138429D01*
X166748915Y-34057884D01*
X166750004Y-33975559D01*
X166746870Y-33891259D01*
X166739434Y-33804796D01*
X166727631Y-33715980D01*
X166711380Y-33624622D01*
X166690613Y-33530532D01*
X166665255Y-33433520D01*
X166635235Y-33333398D01*
X166600477Y-33229971D01*
X166516462Y-33012453D01*
X166474603Y-32913729D01*
X166431208Y-32816291D01*
X166340058Y-32624898D01*
X166243489Y-32437465D01*
X166141972Y-32253188D01*
X166035983Y-32071270D01*
X165925992Y-31890911D01*
X165812478Y-31711303D01*
X165695911Y-31531651D01*
X166132748Y-31531651D01*
X166167084Y-31593091D01*
G37*
G36*
X165107297Y-31982545D02*
G01*
X165191701Y-32104227D01*
X165274740Y-32227054D01*
X165355795Y-32351027D01*
X165493532Y-32571493D01*
X165631968Y-32807961D01*
X165699486Y-32931119D01*
X165764828Y-33056988D01*
X165827215Y-33185137D01*
X165885858Y-33315136D01*
X165939976Y-33446556D01*
X165988784Y-33578971D01*
X166031500Y-33711945D01*
X166067341Y-33845052D01*
X166095523Y-33977861D01*
X166115263Y-34109943D01*
X166125779Y-34240869D01*
X166126283Y-34370206D01*
X166118752Y-34445477D01*
X166107346Y-34519743D01*
X166092318Y-34593037D01*
X166073919Y-34665383D01*
X166052409Y-34736814D01*
X166028037Y-34807361D01*
X166001057Y-34877051D01*
X165971725Y-34945915D01*
X165940287Y-35013979D01*
X165907011Y-35081278D01*
X165872137Y-35147835D01*
X165835923Y-35213686D01*
X165760493Y-35343378D01*
X165682747Y-35470584D01*
X165522543Y-35714581D01*
X165356586Y-35952648D01*
X165019999Y-36421811D01*
X164855669Y-36658305D01*
X164775872Y-36778213D01*
X164698177Y-36899675D01*
X164622981Y-37023033D01*
X164550676Y-37148625D01*
X164481652Y-37276785D01*
X164416308Y-37407852D01*
X164340740Y-37407852D01*
X164384259Y-37319401D01*
X164429623Y-37231963D01*
X164476685Y-37145470D01*
X164525306Y-37059853D01*
X164626643Y-36890964D01*
X164732490Y-36724744D01*
X164841706Y-36560640D01*
X164953139Y-36398096D01*
X165178099Y-36075482D01*
X165467800Y-35653208D01*
X165618764Y-35418835D01*
X165691218Y-35297612D01*
X165759916Y-35174380D01*
X165823559Y-35049647D01*
X165880844Y-34923921D01*
X165930471Y-34797705D01*
X165971139Y-34671512D01*
X166001541Y-34545848D01*
X166012488Y-34483373D01*
X166020381Y-34421222D01*
X166025058Y-34359456D01*
X166026354Y-34298143D01*
X166024109Y-34237339D01*
X166018160Y-34177115D01*
X166002144Y-34069864D01*
X165981011Y-33963875D01*
X165955088Y-33859131D01*
X165924694Y-33755618D01*
X165890144Y-33653328D01*
X165851768Y-33552242D01*
X165809882Y-33452343D01*
X165764808Y-33353628D01*
X165716866Y-33256068D01*
X165666378Y-33159659D01*
X165613664Y-33064385D01*
X165559046Y-32970228D01*
X165445377Y-32785223D01*
X165327941Y-32604527D01*
X165273893Y-32525451D01*
X165220169Y-32448851D01*
X165166378Y-32374101D01*
X165112124Y-32300582D01*
X165057017Y-32227665D01*
X165000660Y-32154733D01*
X164942668Y-32081161D01*
X164882642Y-32006330D01*
X165022144Y-31862009D01*
X165107297Y-31982545D01*
G37*
G36*
X164663429Y-33170333D02*
G01*
X164764982Y-33304298D01*
X164864111Y-33440074D01*
X164959922Y-33578264D01*
X165051526Y-33719478D01*
X165110017Y-33815512D01*
X165166594Y-33913202D01*
X165220368Y-34012663D01*
X165245924Y-34063085D01*
X165270443Y-34113991D01*
X165293814Y-34165392D01*
X165315923Y-34217299D01*
X165336662Y-34269728D01*
X165355915Y-34322690D01*
X165373572Y-34376201D01*
X165389522Y-34430274D01*
X165403653Y-34484917D01*
X165415851Y-34540149D01*
X165420420Y-34564648D01*
X165424442Y-34589236D01*
X165427913Y-34613898D01*
X165430836Y-34638633D01*
X165433207Y-34663423D01*
X165435026Y-34688265D01*
X165436293Y-34713145D01*
X165437006Y-34738056D01*
X165434889Y-34805165D01*
X165428803Y-34861399D01*
X165420343Y-34917111D01*
X165409663Y-34972315D01*
X165396923Y-35027022D01*
X165382274Y-35081244D01*
X165365871Y-35134998D01*
X165347868Y-35188288D01*
X165328428Y-35241134D01*
X165307695Y-35293547D01*
X165285831Y-35345538D01*
X165239328Y-35448305D01*
X165190153Y-35549539D01*
X165139551Y-35649341D01*
X165019546Y-35868855D01*
X164897225Y-36084754D01*
X164650711Y-36511540D01*
X164529065Y-36725351D01*
X164410189Y-36941390D01*
X164295358Y-37161117D01*
X164185843Y-37385992D01*
X164174679Y-37407852D01*
X164121676Y-37407852D01*
X164139607Y-37368998D01*
X164159072Y-37329318D01*
X164179608Y-37289106D01*
X164200754Y-37248666D01*
X164243030Y-37168280D01*
X164263240Y-37128929D01*
X164282214Y-37090536D01*
X164374336Y-36902826D01*
X164470006Y-36716795D01*
X164667692Y-36347797D01*
X164866702Y-35979621D01*
X164964021Y-35794607D01*
X165058460Y-35608325D01*
X165108629Y-35502462D01*
X165158735Y-35391122D01*
X165206261Y-35275611D01*
X165228270Y-35216699D01*
X165248687Y-35157238D01*
X165267199Y-35097387D01*
X165283495Y-35037313D01*
X165297253Y-34977173D01*
X165308164Y-34917139D01*
X165315910Y-34857370D01*
X165320176Y-34798030D01*
X165320649Y-34739284D01*
X165317011Y-34681295D01*
X165309233Y-34627320D01*
X165298671Y-34572908D01*
X165285456Y-34518108D01*
X165269717Y-34462978D01*
X165231169Y-34351950D01*
X165184049Y-34240270D01*
X165129377Y-34128377D01*
X165068168Y-34016720D01*
X165001450Y-33905740D01*
X164930242Y-33795884D01*
X164855560Y-33687592D01*
X164778431Y-33581310D01*
X164620904Y-33376552D01*
X164465820Y-33185160D01*
X164321350Y-33010691D01*
X164221013Y-32891181D01*
X164172443Y-32832152D01*
X164147446Y-32801055D01*
X164121559Y-32768239D01*
X164250834Y-32640487D01*
X164663429Y-33170333D01*
G37*
G36*
X167252710Y-31573554D02*
G01*
X167266894Y-31599971D01*
X167274725Y-31615808D01*
X167279017Y-31626433D01*
X167288232Y-31653510D01*
X167298779Y-31680703D01*
X167317034Y-31724156D01*
X167422940Y-31987956D01*
X167472635Y-32124169D01*
X167519611Y-32262804D01*
X167563461Y-32403523D01*
X167603777Y-32545992D01*
X167640148Y-32689868D01*
X167672165Y-32834815D01*
X167699420Y-32980493D01*
X167721501Y-33126569D01*
X167738005Y-33272700D01*
X167748519Y-33418549D01*
X167752633Y-33563778D01*
X167749939Y-33708051D01*
X167740029Y-33851027D01*
X167722493Y-33992367D01*
X167699321Y-34107970D01*
X167669316Y-34220847D01*
X167632918Y-34331094D01*
X167590575Y-34438787D01*
X167542720Y-34544010D01*
X167489794Y-34646852D01*
X167432246Y-34747396D01*
X167370510Y-34845726D01*
X167305025Y-34941923D01*
X167236238Y-35036074D01*
X167164588Y-35128265D01*
X167090508Y-35218574D01*
X167014448Y-35307094D01*
X166936846Y-35393903D01*
X166778775Y-35562726D01*
X166621775Y-35724026D01*
X166462064Y-35882331D01*
X166300390Y-36038431D01*
X166137505Y-36193123D01*
X165811097Y-36501449D01*
X165649072Y-36656667D01*
X165488834Y-36813650D01*
X165341924Y-36959479D01*
X165274086Y-37027419D01*
X165209271Y-37095062D01*
X165177829Y-37129477D01*
X165146935Y-37164664D01*
X165116527Y-37200907D01*
X165086536Y-37238489D01*
X165056893Y-37277692D01*
X165027530Y-37318800D01*
X164998381Y-37362088D01*
X164969377Y-37407852D01*
X164882642Y-37407852D01*
X164910479Y-37358777D01*
X164938989Y-37311516D01*
X164968168Y-37265877D01*
X164998008Y-37221677D01*
X165028510Y-37178727D01*
X165059670Y-37136838D01*
X165091485Y-37095826D01*
X165123950Y-37055499D01*
X165190818Y-36976160D01*
X165260248Y-36897322D01*
X165406684Y-36735145D01*
X165597479Y-36530894D01*
X165791089Y-36329318D01*
X166180255Y-35928343D01*
X166372560Y-35726008D01*
X166561179Y-35520488D01*
X166744489Y-35310321D01*
X166833643Y-35203036D01*
X166920862Y-35094039D01*
X166970950Y-35028916D01*
X167019763Y-34963360D01*
X167067170Y-34897203D01*
X167113045Y-34830268D01*
X167157254Y-34762397D01*
X167199672Y-34693410D01*
X167240164Y-34623147D01*
X167278606Y-34551429D01*
X167324017Y-34458655D01*
X167363530Y-34367811D01*
X167397356Y-34278554D01*
X167425705Y-34190546D01*
X167448796Y-34103445D01*
X167466843Y-34016919D01*
X167480055Y-33930622D01*
X167488651Y-33844213D01*
X167492841Y-33757362D01*
X167492841Y-33669723D01*
X167488865Y-33580952D01*
X167481125Y-33490722D01*
X167469836Y-33398687D01*
X167455211Y-33304504D01*
X167437468Y-33207842D01*
X167416814Y-33108353D01*
X167365848Y-32899854D01*
X167307961Y-32693890D01*
X167276256Y-32591972D01*
X167242617Y-32490818D01*
X167206974Y-32390475D01*
X167169265Y-32290986D01*
X167129415Y-32192398D01*
X167087369Y-32094754D01*
X167043048Y-31998097D01*
X166996387Y-31902474D01*
X166947323Y-31807923D01*
X166895780Y-31714497D01*
X166841697Y-31622232D01*
X166785004Y-31531179D01*
X167229364Y-31531179D01*
X167252710Y-31573554D01*
G37*
G36*
X168557758Y-31577405D02*
G01*
X168568862Y-31607921D01*
X168575542Y-31628035D01*
X168579685Y-31643167D01*
X168587908Y-31680150D01*
X168595762Y-31712844D01*
X168608624Y-31762233D01*
X168634624Y-31862729D01*
X168657816Y-31963791D01*
X168678308Y-32065363D01*
X168696204Y-32167386D01*
X168711607Y-32269809D01*
X168724625Y-32372569D01*
X168743910Y-32578905D01*
X168754893Y-32785948D01*
X168758407Y-32993248D01*
X168755286Y-33200369D01*
X168746363Y-33406864D01*
X168731281Y-33554480D01*
X168707962Y-33700508D01*
X168676716Y-33844720D01*
X168637849Y-33986910D01*
X168591665Y-34126856D01*
X168538476Y-34264353D01*
X168478587Y-34399174D01*
X168412303Y-34531112D01*
X168339928Y-34659952D01*
X168261777Y-34785476D01*
X168178150Y-34907468D01*
X168089356Y-35025713D01*
X167995704Y-35140002D01*
X167897496Y-35250113D01*
X167795040Y-35355836D01*
X167688648Y-35456953D01*
X167429148Y-35681612D01*
X167164553Y-35899925D01*
X166627081Y-36326117D01*
X166357716Y-36538309D01*
X166090273Y-36752771D01*
X165826502Y-36971660D01*
X165568163Y-37197132D01*
X165548324Y-37215267D01*
X165530631Y-37231006D01*
X165500577Y-37256781D01*
X165475820Y-37277430D01*
X165454180Y-37295925D01*
X165443842Y-37305295D01*
X165433466Y-37315243D01*
X165422778Y-37326137D01*
X165411503Y-37338353D01*
X165399370Y-37352260D01*
X165386106Y-37368233D01*
X165371439Y-37386639D01*
X165355090Y-37407852D01*
X165254724Y-37407852D01*
X165268996Y-37386550D01*
X165274691Y-37378333D01*
X165279641Y-37371409D01*
X165284014Y-37365545D01*
X165287975Y-37360494D01*
X165291686Y-37356010D01*
X165295314Y-37351852D01*
X165312286Y-37333613D01*
X165324557Y-37320129D01*
X165332213Y-37311444D01*
X165341106Y-37301140D01*
X165399019Y-37234742D01*
X165458307Y-37169590D01*
X165518765Y-37105524D01*
X165580192Y-37042379D01*
X165642385Y-36979998D01*
X165705141Y-36918213D01*
X165831533Y-36795785D01*
X166213858Y-36437668D01*
X166598597Y-36082400D01*
X166790147Y-35904032D01*
X166980228Y-35724203D01*
X167168155Y-35542200D01*
X167353234Y-35357292D01*
X167392733Y-35316892D01*
X167432916Y-35275334D01*
X167511893Y-35192759D01*
X167567791Y-35131984D01*
X167621817Y-35069700D01*
X167673944Y-35005956D01*
X167724147Y-34940789D01*
X167772396Y-34874250D01*
X167818668Y-34806382D01*
X167862934Y-34737231D01*
X167905173Y-34666843D01*
X167945354Y-34595258D01*
X167983453Y-34522525D01*
X168019442Y-34448690D01*
X168053297Y-34373796D01*
X168084993Y-34297886D01*
X168114501Y-34221012D01*
X168141796Y-34143206D01*
X168166854Y-34064528D01*
X168194121Y-33968533D01*
X168218366Y-33871637D01*
X168239321Y-33773967D01*
X168256714Y-33675641D01*
X168270279Y-33576787D01*
X168279748Y-33477527D01*
X168282860Y-33427787D01*
X168284850Y-33377989D01*
X168285679Y-33328152D01*
X168285319Y-33278289D01*
X168274867Y-33105649D01*
X168260358Y-32933146D01*
X168241396Y-32761036D01*
X168217594Y-32589557D01*
X168188557Y-32418967D01*
X168153894Y-32249515D01*
X168113217Y-32081449D01*
X168066132Y-31915014D01*
X168035906Y-31815886D01*
X168005977Y-31723831D01*
X167974393Y-31631379D01*
X167939208Y-31531065D01*
X168540344Y-31531065D01*
X168557758Y-31577405D01*
G37*
D11*
X165934171Y-30445489D02*
X167434171Y-30445489D01*
X167434171Y-30445489D02*
X167434171Y-29874060D01*
X167434171Y-29874060D02*
X167362742Y-29731203D01*
X167362742Y-29731203D02*
X167291314Y-29659774D01*
X167291314Y-29659774D02*
X167148457Y-29588346D01*
X167148457Y-29588346D02*
X166934171Y-29588346D01*
X166934171Y-29588346D02*
X166791314Y-29659774D01*
X166791314Y-29659774D02*
X166719885Y-29731203D01*
X166719885Y-29731203D02*
X166648457Y-29874060D01*
X166648457Y-29874060D02*
X166648457Y-30445489D01*
X165934171Y-28302632D02*
X166719885Y-28302632D01*
X166719885Y-28302632D02*
X166862742Y-28374060D01*
X166862742Y-28374060D02*
X166934171Y-28516917D01*
X166934171Y-28516917D02*
X166934171Y-28802632D01*
X166934171Y-28802632D02*
X166862742Y-28945489D01*
X166005600Y-28302632D02*
X165934171Y-28445489D01*
X165934171Y-28445489D02*
X165934171Y-28802632D01*
X165934171Y-28802632D02*
X166005600Y-28945489D01*
X166005600Y-28945489D02*
X166148457Y-29016917D01*
X166148457Y-29016917D02*
X166291314Y-29016917D01*
X166291314Y-29016917D02*
X166434171Y-28945489D01*
X166434171Y-28945489D02*
X166505600Y-28802632D01*
X166505600Y-28802632D02*
X166505600Y-28445489D01*
X166505600Y-28445489D02*
X166577028Y-28302632D01*
X166934171Y-27588346D02*
X165934171Y-27588346D01*
X166791314Y-27588346D02*
X166862742Y-27516917D01*
X166862742Y-27516917D02*
X166934171Y-27374060D01*
X166934171Y-27374060D02*
X166934171Y-27159774D01*
X166934171Y-27159774D02*
X166862742Y-27016917D01*
X166862742Y-27016917D02*
X166719885Y-26945489D01*
X166719885Y-26945489D02*
X165934171Y-26945489D01*
X166005600Y-25659774D02*
X165934171Y-25802631D01*
X165934171Y-25802631D02*
X165934171Y-26088346D01*
X165934171Y-26088346D02*
X166005600Y-26231203D01*
X166005600Y-26231203D02*
X166148457Y-26302631D01*
X166148457Y-26302631D02*
X166719885Y-26302631D01*
X166719885Y-26302631D02*
X166862742Y-26231203D01*
X166862742Y-26231203D02*
X166934171Y-26088346D01*
X166934171Y-26088346D02*
X166934171Y-25802631D01*
X166934171Y-25802631D02*
X166862742Y-25659774D01*
X166862742Y-25659774D02*
X166719885Y-25588346D01*
X166719885Y-25588346D02*
X166577028Y-25588346D01*
X166577028Y-25588346D02*
X166434171Y-26302631D01*
X165934171Y-24731203D02*
X166005600Y-24874060D01*
X166005600Y-24874060D02*
X166148457Y-24945489D01*
X166148457Y-24945489D02*
X167434171Y-24945489D01*
X166934171Y-23159775D02*
X165934171Y-22802632D01*
X165934171Y-22802632D02*
X166934171Y-22445489D01*
X167291314Y-21945489D02*
X167362742Y-21874061D01*
X167362742Y-21874061D02*
X167434171Y-21731204D01*
X167434171Y-21731204D02*
X167434171Y-21374061D01*
X167434171Y-21374061D02*
X167362742Y-21231204D01*
X167362742Y-21231204D02*
X167291314Y-21159775D01*
X167291314Y-21159775D02*
X167148457Y-21088346D01*
X167148457Y-21088346D02*
X167005600Y-21088346D01*
X167005600Y-21088346D02*
X166791314Y-21159775D01*
X166791314Y-21159775D02*
X165934171Y-22016918D01*
X165934171Y-22016918D02*
X165934171Y-21088346D01*
X18209171Y-41928571D02*
X17137742Y-41928571D01*
X17137742Y-41928571D02*
X16923457Y-42000000D01*
X16923457Y-42000000D02*
X16780600Y-42142857D01*
X16780600Y-42142857D02*
X16709171Y-42357143D01*
X16709171Y-42357143D02*
X16709171Y-42500000D01*
X16709171Y-40500000D02*
X16709171Y-41214286D01*
X16709171Y-41214286D02*
X18209171Y-41214286D01*
X16852028Y-39142857D02*
X16780600Y-39214285D01*
X16780600Y-39214285D02*
X16709171Y-39428571D01*
X16709171Y-39428571D02*
X16709171Y-39571428D01*
X16709171Y-39571428D02*
X16780600Y-39785714D01*
X16780600Y-39785714D02*
X16923457Y-39928571D01*
X16923457Y-39928571D02*
X17066314Y-40000000D01*
X17066314Y-40000000D02*
X17352028Y-40071428D01*
X17352028Y-40071428D02*
X17566314Y-40071428D01*
X17566314Y-40071428D02*
X17852028Y-40000000D01*
X17852028Y-40000000D02*
X17994885Y-39928571D01*
X17994885Y-39928571D02*
X18137742Y-39785714D01*
X18137742Y-39785714D02*
X18209171Y-39571428D01*
X18209171Y-39571428D02*
X18209171Y-39428571D01*
X18209171Y-39428571D02*
X18137742Y-39214285D01*
X18137742Y-39214285D02*
X18066314Y-39142857D01*
X18209171Y-38071428D02*
X17137742Y-38071428D01*
X17137742Y-38071428D02*
X16923457Y-38142857D01*
X16923457Y-38142857D02*
X16780600Y-38285714D01*
X16780600Y-38285714D02*
X16709171Y-38500000D01*
X16709171Y-38500000D02*
X16709171Y-38642857D01*
X16709171Y-36642857D02*
X16709171Y-37357143D01*
X16709171Y-37357143D02*
X18209171Y-37357143D01*
X16852028Y-35285714D02*
X16780600Y-35357142D01*
X16780600Y-35357142D02*
X16709171Y-35571428D01*
X16709171Y-35571428D02*
X16709171Y-35714285D01*
X16709171Y-35714285D02*
X16780600Y-35928571D01*
X16780600Y-35928571D02*
X16923457Y-36071428D01*
X16923457Y-36071428D02*
X17066314Y-36142857D01*
X17066314Y-36142857D02*
X17352028Y-36214285D01*
X17352028Y-36214285D02*
X17566314Y-36214285D01*
X17566314Y-36214285D02*
X17852028Y-36142857D01*
X17852028Y-36142857D02*
X17994885Y-36071428D01*
X17994885Y-36071428D02*
X18137742Y-35928571D01*
X18137742Y-35928571D02*
X18209171Y-35714285D01*
X18209171Y-35714285D02*
X18209171Y-35571428D01*
X18209171Y-35571428D02*
X18137742Y-35357142D01*
X18137742Y-35357142D02*
X18066314Y-35285714D01*
X18209171Y-34214285D02*
X17137742Y-34214285D01*
X17137742Y-34214285D02*
X16923457Y-34285714D01*
X16923457Y-34285714D02*
X16780600Y-34428571D01*
X16780600Y-34428571D02*
X16709171Y-34642857D01*
X16709171Y-34642857D02*
X16709171Y-34785714D01*
X16709171Y-32785714D02*
X16709171Y-33500000D01*
X16709171Y-33500000D02*
X18209171Y-33500000D01*
X16852028Y-31428571D02*
X16780600Y-31499999D01*
X16780600Y-31499999D02*
X16709171Y-31714285D01*
X16709171Y-31714285D02*
X16709171Y-31857142D01*
X16709171Y-31857142D02*
X16780600Y-32071428D01*
X16780600Y-32071428D02*
X16923457Y-32214285D01*
X16923457Y-32214285D02*
X17066314Y-32285714D01*
X17066314Y-32285714D02*
X17352028Y-32357142D01*
X17352028Y-32357142D02*
X17566314Y-32357142D01*
X17566314Y-32357142D02*
X17852028Y-32285714D01*
X17852028Y-32285714D02*
X17994885Y-32214285D01*
X17994885Y-32214285D02*
X18137742Y-32071428D01*
X18137742Y-32071428D02*
X18209171Y-31857142D01*
X18209171Y-31857142D02*
X18209171Y-31714285D01*
X18209171Y-31714285D02*
X18137742Y-31499999D01*
X18137742Y-31499999D02*
X18066314Y-31428571D01*
X18209171Y-30357142D02*
X17137742Y-30357142D01*
X17137742Y-30357142D02*
X16923457Y-30428571D01*
X16923457Y-30428571D02*
X16780600Y-30571428D01*
X16780600Y-30571428D02*
X16709171Y-30785714D01*
X16709171Y-30785714D02*
X16709171Y-30928571D01*
X16709171Y-28928571D02*
X16709171Y-29642857D01*
X16709171Y-29642857D02*
X18209171Y-29642857D01*
X16852028Y-27571428D02*
X16780600Y-27642856D01*
X16780600Y-27642856D02*
X16709171Y-27857142D01*
X16709171Y-27857142D02*
X16709171Y-27999999D01*
X16709171Y-27999999D02*
X16780600Y-28214285D01*
X16780600Y-28214285D02*
X16923457Y-28357142D01*
X16923457Y-28357142D02*
X17066314Y-28428571D01*
X17066314Y-28428571D02*
X17352028Y-28499999D01*
X17352028Y-28499999D02*
X17566314Y-28499999D01*
X17566314Y-28499999D02*
X17852028Y-28428571D01*
X17852028Y-28428571D02*
X17994885Y-28357142D01*
X17994885Y-28357142D02*
X18137742Y-28214285D01*
X18137742Y-28214285D02*
X18209171Y-27999999D01*
X18209171Y-27999999D02*
X18209171Y-27857142D01*
X18209171Y-27857142D02*
X18137742Y-27642856D01*
X18137742Y-27642856D02*
X18066314Y-27571428D01*
D12*
X86124580Y-19478333D02*
X86172200Y-19430714D01*
X86172200Y-19430714D02*
X86219819Y-19287857D01*
X86219819Y-19287857D02*
X86219819Y-19192619D01*
X86219819Y-19192619D02*
X86172200Y-19049762D01*
X86172200Y-19049762D02*
X86076961Y-18954524D01*
X86076961Y-18954524D02*
X85981723Y-18906905D01*
X85981723Y-18906905D02*
X85791247Y-18859286D01*
X85791247Y-18859286D02*
X85648390Y-18859286D01*
X85648390Y-18859286D02*
X85457914Y-18906905D01*
X85457914Y-18906905D02*
X85362676Y-18954524D01*
X85362676Y-18954524D02*
X85267438Y-19049762D01*
X85267438Y-19049762D02*
X85219819Y-19192619D01*
X85219819Y-19192619D02*
X85219819Y-19287857D01*
X85219819Y-19287857D02*
X85267438Y-19430714D01*
X85267438Y-19430714D02*
X85315057Y-19478333D01*
X85219819Y-20383095D02*
X85219819Y-19906905D01*
X85219819Y-19906905D02*
X85696009Y-19859286D01*
X85696009Y-19859286D02*
X85648390Y-19906905D01*
X85648390Y-19906905D02*
X85600771Y-20002143D01*
X85600771Y-20002143D02*
X85600771Y-20240238D01*
X85600771Y-20240238D02*
X85648390Y-20335476D01*
X85648390Y-20335476D02*
X85696009Y-20383095D01*
X85696009Y-20383095D02*
X85791247Y-20430714D01*
X85791247Y-20430714D02*
X86029342Y-20430714D01*
X86029342Y-20430714D02*
X86124580Y-20383095D01*
X86124580Y-20383095D02*
X86172200Y-20335476D01*
X86172200Y-20335476D02*
X86219819Y-20240238D01*
X86219819Y-20240238D02*
X86219819Y-20002143D01*
X86219819Y-20002143D02*
X86172200Y-19906905D01*
X86172200Y-19906905D02*
X86124580Y-19859286D01*
X116371666Y-46809819D02*
X116704999Y-46333628D01*
X116943094Y-46809819D02*
X116943094Y-45809819D01*
X116943094Y-45809819D02*
X116562142Y-45809819D01*
X116562142Y-45809819D02*
X116466904Y-45857438D01*
X116466904Y-45857438D02*
X116419285Y-45905057D01*
X116419285Y-45905057D02*
X116371666Y-46000295D01*
X116371666Y-46000295D02*
X116371666Y-46143152D01*
X116371666Y-46143152D02*
X116419285Y-46238390D01*
X116419285Y-46238390D02*
X116466904Y-46286009D01*
X116466904Y-46286009D02*
X116562142Y-46333628D01*
X116562142Y-46333628D02*
X116943094Y-46333628D01*
X115990713Y-45905057D02*
X115943094Y-45857438D01*
X115943094Y-45857438D02*
X115847856Y-45809819D01*
X115847856Y-45809819D02*
X115609761Y-45809819D01*
X115609761Y-45809819D02*
X115514523Y-45857438D01*
X115514523Y-45857438D02*
X115466904Y-45905057D01*
X115466904Y-45905057D02*
X115419285Y-46000295D01*
X115419285Y-46000295D02*
X115419285Y-46095533D01*
X115419285Y-46095533D02*
X115466904Y-46238390D01*
X115466904Y-46238390D02*
X116038332Y-46809819D01*
X116038332Y-46809819D02*
X115419285Y-46809819D01*
X116371666Y-26394580D02*
X116419285Y-26442200D01*
X116419285Y-26442200D02*
X116562142Y-26489819D01*
X116562142Y-26489819D02*
X116657380Y-26489819D01*
X116657380Y-26489819D02*
X116800237Y-26442200D01*
X116800237Y-26442200D02*
X116895475Y-26346961D01*
X116895475Y-26346961D02*
X116943094Y-26251723D01*
X116943094Y-26251723D02*
X116990713Y-26061247D01*
X116990713Y-26061247D02*
X116990713Y-25918390D01*
X116990713Y-25918390D02*
X116943094Y-25727914D01*
X116943094Y-25727914D02*
X116895475Y-25632676D01*
X116895475Y-25632676D02*
X116800237Y-25537438D01*
X116800237Y-25537438D02*
X116657380Y-25489819D01*
X116657380Y-25489819D02*
X116562142Y-25489819D01*
X116562142Y-25489819D02*
X116419285Y-25537438D01*
X116419285Y-25537438D02*
X116371666Y-25585057D01*
X115990713Y-25585057D02*
X115943094Y-25537438D01*
X115943094Y-25537438D02*
X115847856Y-25489819D01*
X115847856Y-25489819D02*
X115609761Y-25489819D01*
X115609761Y-25489819D02*
X115514523Y-25537438D01*
X115514523Y-25537438D02*
X115466904Y-25585057D01*
X115466904Y-25585057D02*
X115419285Y-25680295D01*
X115419285Y-25680295D02*
X115419285Y-25775533D01*
X115419285Y-25775533D02*
X115466904Y-25918390D01*
X115466904Y-25918390D02*
X116038332Y-26489819D01*
X116038332Y-26489819D02*
X115419285Y-26489819D01*
X123991666Y-46849819D02*
X124324999Y-46373628D01*
X124563094Y-46849819D02*
X124563094Y-45849819D01*
X124563094Y-45849819D02*
X124182142Y-45849819D01*
X124182142Y-45849819D02*
X124086904Y-45897438D01*
X124086904Y-45897438D02*
X124039285Y-45945057D01*
X124039285Y-45945057D02*
X123991666Y-46040295D01*
X123991666Y-46040295D02*
X123991666Y-46183152D01*
X123991666Y-46183152D02*
X124039285Y-46278390D01*
X124039285Y-46278390D02*
X124086904Y-46326009D01*
X124086904Y-46326009D02*
X124182142Y-46373628D01*
X124182142Y-46373628D02*
X124563094Y-46373628D01*
X123134523Y-46183152D02*
X123134523Y-46849819D01*
X123372618Y-45802200D02*
X123610713Y-46516485D01*
X123610713Y-46516485D02*
X122991666Y-46516485D01*
X112561666Y-46809819D02*
X112894999Y-46333628D01*
X113133094Y-46809819D02*
X113133094Y-45809819D01*
X113133094Y-45809819D02*
X112752142Y-45809819D01*
X112752142Y-45809819D02*
X112656904Y-45857438D01*
X112656904Y-45857438D02*
X112609285Y-45905057D01*
X112609285Y-45905057D02*
X112561666Y-46000295D01*
X112561666Y-46000295D02*
X112561666Y-46143152D01*
X112561666Y-46143152D02*
X112609285Y-46238390D01*
X112609285Y-46238390D02*
X112656904Y-46286009D01*
X112656904Y-46286009D02*
X112752142Y-46333628D01*
X112752142Y-46333628D02*
X113133094Y-46333628D01*
X111609285Y-46809819D02*
X112180713Y-46809819D01*
X111894999Y-46809819D02*
X111894999Y-45809819D01*
X111894999Y-45809819D02*
X111990237Y-45952676D01*
X111990237Y-45952676D02*
X112085475Y-46047914D01*
X112085475Y-46047914D02*
X112180713Y-46095533D01*
X120181666Y-26394580D02*
X120229285Y-26442200D01*
X120229285Y-26442200D02*
X120372142Y-26489819D01*
X120372142Y-26489819D02*
X120467380Y-26489819D01*
X120467380Y-26489819D02*
X120610237Y-26442200D01*
X120610237Y-26442200D02*
X120705475Y-26346961D01*
X120705475Y-26346961D02*
X120753094Y-26251723D01*
X120753094Y-26251723D02*
X120800713Y-26061247D01*
X120800713Y-26061247D02*
X120800713Y-25918390D01*
X120800713Y-25918390D02*
X120753094Y-25727914D01*
X120753094Y-25727914D02*
X120705475Y-25632676D01*
X120705475Y-25632676D02*
X120610237Y-25537438D01*
X120610237Y-25537438D02*
X120467380Y-25489819D01*
X120467380Y-25489819D02*
X120372142Y-25489819D01*
X120372142Y-25489819D02*
X120229285Y-25537438D01*
X120229285Y-25537438D02*
X120181666Y-25585057D01*
X119848332Y-25489819D02*
X119229285Y-25489819D01*
X119229285Y-25489819D02*
X119562618Y-25870771D01*
X119562618Y-25870771D02*
X119419761Y-25870771D01*
X119419761Y-25870771D02*
X119324523Y-25918390D01*
X119324523Y-25918390D02*
X119276904Y-25966009D01*
X119276904Y-25966009D02*
X119229285Y-26061247D01*
X119229285Y-26061247D02*
X119229285Y-26299342D01*
X119229285Y-26299342D02*
X119276904Y-26394580D01*
X119276904Y-26394580D02*
X119324523Y-26442200D01*
X119324523Y-26442200D02*
X119419761Y-26489819D01*
X119419761Y-26489819D02*
X119705475Y-26489819D01*
X119705475Y-26489819D02*
X119800713Y-26442200D01*
X119800713Y-26442200D02*
X119848332Y-26394580D01*
X67793571Y-27871009D02*
X67650714Y-27918628D01*
X67650714Y-27918628D02*
X67603095Y-27966247D01*
X67603095Y-27966247D02*
X67555476Y-28061485D01*
X67555476Y-28061485D02*
X67555476Y-28204342D01*
X67555476Y-28204342D02*
X67603095Y-28299580D01*
X67603095Y-28299580D02*
X67650714Y-28347200D01*
X67650714Y-28347200D02*
X67745952Y-28394819D01*
X67745952Y-28394819D02*
X68126904Y-28394819D01*
X68126904Y-28394819D02*
X68126904Y-27394819D01*
X68126904Y-27394819D02*
X67793571Y-27394819D01*
X67793571Y-27394819D02*
X67698333Y-27442438D01*
X67698333Y-27442438D02*
X67650714Y-27490057D01*
X67650714Y-27490057D02*
X67603095Y-27585295D01*
X67603095Y-27585295D02*
X67603095Y-27680533D01*
X67603095Y-27680533D02*
X67650714Y-27775771D01*
X67650714Y-27775771D02*
X67698333Y-27823390D01*
X67698333Y-27823390D02*
X67793571Y-27871009D01*
X67793571Y-27871009D02*
X68126904Y-27871009D01*
X67126904Y-28394819D02*
X67126904Y-27394819D01*
X67126904Y-27394819D02*
X66793571Y-28109104D01*
X66793571Y-28109104D02*
X66460238Y-27394819D01*
X66460238Y-27394819D02*
X66460238Y-28394819D01*
X65984047Y-27871009D02*
X65650714Y-27871009D01*
X65507857Y-28394819D02*
X65984047Y-28394819D01*
X65984047Y-28394819D02*
X65984047Y-27394819D01*
X65984047Y-27394819D02*
X65507857Y-27394819D01*
X65126904Y-27490057D02*
X65079285Y-27442438D01*
X65079285Y-27442438D02*
X64984047Y-27394819D01*
X64984047Y-27394819D02*
X64745952Y-27394819D01*
X64745952Y-27394819D02*
X64650714Y-27442438D01*
X64650714Y-27442438D02*
X64603095Y-27490057D01*
X64603095Y-27490057D02*
X64555476Y-27585295D01*
X64555476Y-27585295D02*
X64555476Y-27680533D01*
X64555476Y-27680533D02*
X64603095Y-27823390D01*
X64603095Y-27823390D02*
X65174523Y-28394819D01*
X65174523Y-28394819D02*
X64555476Y-28394819D01*
X63984047Y-27823390D02*
X64079285Y-27775771D01*
X64079285Y-27775771D02*
X64126904Y-27728152D01*
X64126904Y-27728152D02*
X64174523Y-27632914D01*
X64174523Y-27632914D02*
X64174523Y-27585295D01*
X64174523Y-27585295D02*
X64126904Y-27490057D01*
X64126904Y-27490057D02*
X64079285Y-27442438D01*
X64079285Y-27442438D02*
X63984047Y-27394819D01*
X63984047Y-27394819D02*
X63793571Y-27394819D01*
X63793571Y-27394819D02*
X63698333Y-27442438D01*
X63698333Y-27442438D02*
X63650714Y-27490057D01*
X63650714Y-27490057D02*
X63603095Y-27585295D01*
X63603095Y-27585295D02*
X63603095Y-27632914D01*
X63603095Y-27632914D02*
X63650714Y-27728152D01*
X63650714Y-27728152D02*
X63698333Y-27775771D01*
X63698333Y-27775771D02*
X63793571Y-27823390D01*
X63793571Y-27823390D02*
X63984047Y-27823390D01*
X63984047Y-27823390D02*
X64079285Y-27871009D01*
X64079285Y-27871009D02*
X64126904Y-27918628D01*
X64126904Y-27918628D02*
X64174523Y-28013866D01*
X64174523Y-28013866D02*
X64174523Y-28204342D01*
X64174523Y-28204342D02*
X64126904Y-28299580D01*
X64126904Y-28299580D02*
X64079285Y-28347200D01*
X64079285Y-28347200D02*
X63984047Y-28394819D01*
X63984047Y-28394819D02*
X63793571Y-28394819D01*
X63793571Y-28394819D02*
X63698333Y-28347200D01*
X63698333Y-28347200D02*
X63650714Y-28299580D01*
X63650714Y-28299580D02*
X63603095Y-28204342D01*
X63603095Y-28204342D02*
X63603095Y-28013866D01*
X63603095Y-28013866D02*
X63650714Y-27918628D01*
X63650714Y-27918628D02*
X63698333Y-27871009D01*
X63698333Y-27871009D02*
X63793571Y-27823390D01*
X62984047Y-27394819D02*
X62888809Y-27394819D01*
X62888809Y-27394819D02*
X62793571Y-27442438D01*
X62793571Y-27442438D02*
X62745952Y-27490057D01*
X62745952Y-27490057D02*
X62698333Y-27585295D01*
X62698333Y-27585295D02*
X62650714Y-27775771D01*
X62650714Y-27775771D02*
X62650714Y-28013866D01*
X62650714Y-28013866D02*
X62698333Y-28204342D01*
X62698333Y-28204342D02*
X62745952Y-28299580D01*
X62745952Y-28299580D02*
X62793571Y-28347200D01*
X62793571Y-28347200D02*
X62888809Y-28394819D01*
X62888809Y-28394819D02*
X62984047Y-28394819D01*
X62984047Y-28394819D02*
X63079285Y-28347200D01*
X63079285Y-28347200D02*
X63126904Y-28299580D01*
X63126904Y-28299580D02*
X63174523Y-28204342D01*
X63174523Y-28204342D02*
X63222142Y-28013866D01*
X63222142Y-28013866D02*
X63222142Y-27775771D01*
X63222142Y-27775771D02*
X63174523Y-27585295D01*
X63174523Y-27585295D02*
X63126904Y-27490057D01*
X63126904Y-27490057D02*
X63079285Y-27442438D01*
X63079285Y-27442438D02*
X62984047Y-27394819D01*
X61126904Y-27871009D02*
X60984047Y-27918628D01*
X60984047Y-27918628D02*
X60936428Y-27966247D01*
X60936428Y-27966247D02*
X60888809Y-28061485D01*
X60888809Y-28061485D02*
X60888809Y-28204342D01*
X60888809Y-28204342D02*
X60936428Y-28299580D01*
X60936428Y-28299580D02*
X60984047Y-28347200D01*
X60984047Y-28347200D02*
X61079285Y-28394819D01*
X61079285Y-28394819D02*
X61460237Y-28394819D01*
X61460237Y-28394819D02*
X61460237Y-27394819D01*
X61460237Y-27394819D02*
X61126904Y-27394819D01*
X61126904Y-27394819D02*
X61031666Y-27442438D01*
X61031666Y-27442438D02*
X60984047Y-27490057D01*
X60984047Y-27490057D02*
X60936428Y-27585295D01*
X60936428Y-27585295D02*
X60936428Y-27680533D01*
X60936428Y-27680533D02*
X60984047Y-27775771D01*
X60984047Y-27775771D02*
X61031666Y-27823390D01*
X61031666Y-27823390D02*
X61126904Y-27871009D01*
X61126904Y-27871009D02*
X61460237Y-27871009D01*
X60317380Y-28394819D02*
X60412618Y-28347200D01*
X60412618Y-28347200D02*
X60460237Y-28299580D01*
X60460237Y-28299580D02*
X60507856Y-28204342D01*
X60507856Y-28204342D02*
X60507856Y-27918628D01*
X60507856Y-27918628D02*
X60460237Y-27823390D01*
X60460237Y-27823390D02*
X60412618Y-27775771D01*
X60412618Y-27775771D02*
X60317380Y-27728152D01*
X60317380Y-27728152D02*
X60174523Y-27728152D01*
X60174523Y-27728152D02*
X60079285Y-27775771D01*
X60079285Y-27775771D02*
X60031666Y-27823390D01*
X60031666Y-27823390D02*
X59984047Y-27918628D01*
X59984047Y-27918628D02*
X59984047Y-28204342D01*
X59984047Y-28204342D02*
X60031666Y-28299580D01*
X60031666Y-28299580D02*
X60079285Y-28347200D01*
X60079285Y-28347200D02*
X60174523Y-28394819D01*
X60174523Y-28394819D02*
X60317380Y-28394819D01*
X59126904Y-28394819D02*
X59126904Y-27871009D01*
X59126904Y-27871009D02*
X59174523Y-27775771D01*
X59174523Y-27775771D02*
X59269761Y-27728152D01*
X59269761Y-27728152D02*
X59460237Y-27728152D01*
X59460237Y-27728152D02*
X59555475Y-27775771D01*
X59126904Y-28347200D02*
X59222142Y-28394819D01*
X59222142Y-28394819D02*
X59460237Y-28394819D01*
X59460237Y-28394819D02*
X59555475Y-28347200D01*
X59555475Y-28347200D02*
X59603094Y-28251961D01*
X59603094Y-28251961D02*
X59603094Y-28156723D01*
X59603094Y-28156723D02*
X59555475Y-28061485D01*
X59555475Y-28061485D02*
X59460237Y-28013866D01*
X59460237Y-28013866D02*
X59222142Y-28013866D01*
X59222142Y-28013866D02*
X59126904Y-27966247D01*
X58650713Y-28394819D02*
X58650713Y-27728152D01*
X58650713Y-27918628D02*
X58603094Y-27823390D01*
X58603094Y-27823390D02*
X58555475Y-27775771D01*
X58555475Y-27775771D02*
X58460237Y-27728152D01*
X58460237Y-27728152D02*
X58364999Y-27728152D01*
X57603094Y-28394819D02*
X57603094Y-27394819D01*
X57603094Y-28347200D02*
X57698332Y-28394819D01*
X57698332Y-28394819D02*
X57888808Y-28394819D01*
X57888808Y-28394819D02*
X57984046Y-28347200D01*
X57984046Y-28347200D02*
X58031665Y-28299580D01*
X58031665Y-28299580D02*
X58079284Y-28204342D01*
X58079284Y-28204342D02*
X58079284Y-27918628D01*
X58079284Y-27918628D02*
X58031665Y-27823390D01*
X58031665Y-27823390D02*
X57984046Y-27775771D01*
X57984046Y-27775771D02*
X57888808Y-27728152D01*
X57888808Y-27728152D02*
X57698332Y-27728152D01*
X57698332Y-27728152D02*
X57603094Y-27775771D01*
X131571904Y-53854819D02*
X131571904Y-54664342D01*
X131571904Y-54664342D02*
X131524285Y-54759580D01*
X131524285Y-54759580D02*
X131476666Y-54807200D01*
X131476666Y-54807200D02*
X131381428Y-54854819D01*
X131381428Y-54854819D02*
X131190952Y-54854819D01*
X131190952Y-54854819D02*
X131095714Y-54807200D01*
X131095714Y-54807200D02*
X131048095Y-54759580D01*
X131048095Y-54759580D02*
X131000476Y-54664342D01*
X131000476Y-54664342D02*
X131000476Y-53854819D01*
X130571904Y-53950057D02*
X130524285Y-53902438D01*
X130524285Y-53902438D02*
X130429047Y-53854819D01*
X130429047Y-53854819D02*
X130190952Y-53854819D01*
X130190952Y-53854819D02*
X130095714Y-53902438D01*
X130095714Y-53902438D02*
X130048095Y-53950057D01*
X130048095Y-53950057D02*
X130000476Y-54045295D01*
X130000476Y-54045295D02*
X130000476Y-54140533D01*
X130000476Y-54140533D02*
X130048095Y-54283390D01*
X130048095Y-54283390D02*
X130619523Y-54854819D01*
X130619523Y-54854819D02*
X130000476Y-54854819D01*
X137548094Y-17174819D02*
X137548094Y-16174819D01*
X137548094Y-16174819D02*
X137214761Y-16889104D01*
X137214761Y-16889104D02*
X136881428Y-16174819D01*
X136881428Y-16174819D02*
X136881428Y-17174819D01*
X135833809Y-17079580D02*
X135881428Y-17127200D01*
X135881428Y-17127200D02*
X136024285Y-17174819D01*
X136024285Y-17174819D02*
X136119523Y-17174819D01*
X136119523Y-17174819D02*
X136262380Y-17127200D01*
X136262380Y-17127200D02*
X136357618Y-17031961D01*
X136357618Y-17031961D02*
X136405237Y-16936723D01*
X136405237Y-16936723D02*
X136452856Y-16746247D01*
X136452856Y-16746247D02*
X136452856Y-16603390D01*
X136452856Y-16603390D02*
X136405237Y-16412914D01*
X136405237Y-16412914D02*
X136357618Y-16317676D01*
X136357618Y-16317676D02*
X136262380Y-16222438D01*
X136262380Y-16222438D02*
X136119523Y-16174819D01*
X136119523Y-16174819D02*
X136024285Y-16174819D01*
X136024285Y-16174819D02*
X135881428Y-16222438D01*
X135881428Y-16222438D02*
X135833809Y-16270057D01*
X135405237Y-17174819D02*
X135405237Y-16174819D01*
X135405237Y-16174819D02*
X135024285Y-16174819D01*
X135024285Y-16174819D02*
X134929047Y-16222438D01*
X134929047Y-16222438D02*
X134881428Y-16270057D01*
X134881428Y-16270057D02*
X134833809Y-16365295D01*
X134833809Y-16365295D02*
X134833809Y-16508152D01*
X134833809Y-16508152D02*
X134881428Y-16603390D01*
X134881428Y-16603390D02*
X134929047Y-16651009D01*
X134929047Y-16651009D02*
X135024285Y-16698628D01*
X135024285Y-16698628D02*
X135405237Y-16698628D01*
X134452856Y-16270057D02*
X134405237Y-16222438D01*
X134405237Y-16222438D02*
X134309999Y-16174819D01*
X134309999Y-16174819D02*
X134071904Y-16174819D01*
X134071904Y-16174819D02*
X133976666Y-16222438D01*
X133976666Y-16222438D02*
X133929047Y-16270057D01*
X133929047Y-16270057D02*
X133881428Y-16365295D01*
X133881428Y-16365295D02*
X133881428Y-16460533D01*
X133881428Y-16460533D02*
X133929047Y-16603390D01*
X133929047Y-16603390D02*
X134500475Y-17174819D01*
X134500475Y-17174819D02*
X133881428Y-17174819D01*
X133548094Y-16174819D02*
X132929047Y-16174819D01*
X132929047Y-16174819D02*
X133262380Y-16555771D01*
X133262380Y-16555771D02*
X133119523Y-16555771D01*
X133119523Y-16555771D02*
X133024285Y-16603390D01*
X133024285Y-16603390D02*
X132976666Y-16651009D01*
X132976666Y-16651009D02*
X132929047Y-16746247D01*
X132929047Y-16746247D02*
X132929047Y-16984342D01*
X132929047Y-16984342D02*
X132976666Y-17079580D01*
X132976666Y-17079580D02*
X133024285Y-17127200D01*
X133024285Y-17127200D02*
X133119523Y-17174819D01*
X133119523Y-17174819D02*
X133405237Y-17174819D01*
X133405237Y-17174819D02*
X133500475Y-17127200D01*
X133500475Y-17127200D02*
X133548094Y-17079580D01*
X132309999Y-16174819D02*
X132214761Y-16174819D01*
X132214761Y-16174819D02*
X132119523Y-16222438D01*
X132119523Y-16222438D02*
X132071904Y-16270057D01*
X132071904Y-16270057D02*
X132024285Y-16365295D01*
X132024285Y-16365295D02*
X131976666Y-16555771D01*
X131976666Y-16555771D02*
X131976666Y-16793866D01*
X131976666Y-16793866D02*
X132024285Y-16984342D01*
X132024285Y-16984342D02*
X132071904Y-17079580D01*
X132071904Y-17079580D02*
X132119523Y-17127200D01*
X132119523Y-17127200D02*
X132214761Y-17174819D01*
X132214761Y-17174819D02*
X132309999Y-17174819D01*
X132309999Y-17174819D02*
X132405237Y-17127200D01*
X132405237Y-17127200D02*
X132452856Y-17079580D01*
X132452856Y-17079580D02*
X132500475Y-16984342D01*
X132500475Y-16984342D02*
X132548094Y-16793866D01*
X132548094Y-16793866D02*
X132548094Y-16555771D01*
X132548094Y-16555771D02*
X132500475Y-16365295D01*
X132500475Y-16365295D02*
X132452856Y-16270057D01*
X132452856Y-16270057D02*
X132405237Y-16222438D01*
X132405237Y-16222438D02*
X132309999Y-16174819D01*
X131024285Y-17174819D02*
X131595713Y-17174819D01*
X131309999Y-17174819D02*
X131309999Y-16174819D01*
X131309999Y-16174819D02*
X131405237Y-16317676D01*
X131405237Y-16317676D02*
X131500475Y-16412914D01*
X131500475Y-16412914D02*
X131595713Y-16460533D01*
X130690951Y-16174819D02*
X130024285Y-16174819D01*
X130024285Y-16174819D02*
X130452856Y-17174819D01*
X129738570Y-17174819D02*
X129214761Y-16508152D01*
X129738570Y-16508152D02*
X129214761Y-17174819D01*
X128833808Y-16793866D02*
X128071904Y-16793866D01*
X127690951Y-17174819D02*
X127167142Y-16508152D01*
X127690951Y-16508152D02*
X127167142Y-17174819D01*
X126786189Y-16793866D02*
X126024285Y-16793866D01*
X125595713Y-17127200D02*
X125452856Y-17174819D01*
X125452856Y-17174819D02*
X125214761Y-17174819D01*
X125214761Y-17174819D02*
X125119523Y-17127200D01*
X125119523Y-17127200D02*
X125071904Y-17079580D01*
X125071904Y-17079580D02*
X125024285Y-16984342D01*
X125024285Y-16984342D02*
X125024285Y-16889104D01*
X125024285Y-16889104D02*
X125071904Y-16793866D01*
X125071904Y-16793866D02*
X125119523Y-16746247D01*
X125119523Y-16746247D02*
X125214761Y-16698628D01*
X125214761Y-16698628D02*
X125405237Y-16651009D01*
X125405237Y-16651009D02*
X125500475Y-16603390D01*
X125500475Y-16603390D02*
X125548094Y-16555771D01*
X125548094Y-16555771D02*
X125595713Y-16460533D01*
X125595713Y-16460533D02*
X125595713Y-16365295D01*
X125595713Y-16365295D02*
X125548094Y-16270057D01*
X125548094Y-16270057D02*
X125500475Y-16222438D01*
X125500475Y-16222438D02*
X125405237Y-16174819D01*
X125405237Y-16174819D02*
X125167142Y-16174819D01*
X125167142Y-16174819D02*
X125024285Y-16222438D01*
X124595713Y-17174819D02*
X124595713Y-16174819D01*
X124595713Y-16174819D02*
X124214761Y-16174819D01*
X124214761Y-16174819D02*
X124119523Y-16222438D01*
X124119523Y-16222438D02*
X124071904Y-16270057D01*
X124071904Y-16270057D02*
X124024285Y-16365295D01*
X124024285Y-16365295D02*
X124024285Y-16508152D01*
X124024285Y-16508152D02*
X124071904Y-16603390D01*
X124071904Y-16603390D02*
X124119523Y-16651009D01*
X124119523Y-16651009D02*
X124214761Y-16698628D01*
X124214761Y-16698628D02*
X124595713Y-16698628D01*
X96339819Y-23963333D02*
X95863628Y-23630000D01*
X96339819Y-23391905D02*
X95339819Y-23391905D01*
X95339819Y-23391905D02*
X95339819Y-23772857D01*
X95339819Y-23772857D02*
X95387438Y-23868095D01*
X95387438Y-23868095D02*
X95435057Y-23915714D01*
X95435057Y-23915714D02*
X95530295Y-23963333D01*
X95530295Y-23963333D02*
X95673152Y-23963333D01*
X95673152Y-23963333D02*
X95768390Y-23915714D01*
X95768390Y-23915714D02*
X95816009Y-23868095D01*
X95816009Y-23868095D02*
X95863628Y-23772857D01*
X95863628Y-23772857D02*
X95863628Y-23391905D01*
X95768390Y-24534762D02*
X95720771Y-24439524D01*
X95720771Y-24439524D02*
X95673152Y-24391905D01*
X95673152Y-24391905D02*
X95577914Y-24344286D01*
X95577914Y-24344286D02*
X95530295Y-24344286D01*
X95530295Y-24344286D02*
X95435057Y-24391905D01*
X95435057Y-24391905D02*
X95387438Y-24439524D01*
X95387438Y-24439524D02*
X95339819Y-24534762D01*
X95339819Y-24534762D02*
X95339819Y-24725238D01*
X95339819Y-24725238D02*
X95387438Y-24820476D01*
X95387438Y-24820476D02*
X95435057Y-24868095D01*
X95435057Y-24868095D02*
X95530295Y-24915714D01*
X95530295Y-24915714D02*
X95577914Y-24915714D01*
X95577914Y-24915714D02*
X95673152Y-24868095D01*
X95673152Y-24868095D02*
X95720771Y-24820476D01*
X95720771Y-24820476D02*
X95768390Y-24725238D01*
X95768390Y-24725238D02*
X95768390Y-24534762D01*
X95768390Y-24534762D02*
X95816009Y-24439524D01*
X95816009Y-24439524D02*
X95863628Y-24391905D01*
X95863628Y-24391905D02*
X95958866Y-24344286D01*
X95958866Y-24344286D02*
X96149342Y-24344286D01*
X96149342Y-24344286D02*
X96244580Y-24391905D01*
X96244580Y-24391905D02*
X96292200Y-24439524D01*
X96292200Y-24439524D02*
X96339819Y-24534762D01*
X96339819Y-24534762D02*
X96339819Y-24725238D01*
X96339819Y-24725238D02*
X96292200Y-24820476D01*
X96292200Y-24820476D02*
X96244580Y-24868095D01*
X96244580Y-24868095D02*
X96149342Y-24915714D01*
X96149342Y-24915714D02*
X95958866Y-24915714D01*
X95958866Y-24915714D02*
X95863628Y-24868095D01*
X95863628Y-24868095D02*
X95816009Y-24820476D01*
X95816009Y-24820476D02*
X95768390Y-24725238D01*
X123991666Y-26434580D02*
X124039285Y-26482200D01*
X124039285Y-26482200D02*
X124182142Y-26529819D01*
X124182142Y-26529819D02*
X124277380Y-26529819D01*
X124277380Y-26529819D02*
X124420237Y-26482200D01*
X124420237Y-26482200D02*
X124515475Y-26386961D01*
X124515475Y-26386961D02*
X124563094Y-26291723D01*
X124563094Y-26291723D02*
X124610713Y-26101247D01*
X124610713Y-26101247D02*
X124610713Y-25958390D01*
X124610713Y-25958390D02*
X124563094Y-25767914D01*
X124563094Y-25767914D02*
X124515475Y-25672676D01*
X124515475Y-25672676D02*
X124420237Y-25577438D01*
X124420237Y-25577438D02*
X124277380Y-25529819D01*
X124277380Y-25529819D02*
X124182142Y-25529819D01*
X124182142Y-25529819D02*
X124039285Y-25577438D01*
X124039285Y-25577438D02*
X123991666Y-25625057D01*
X123134523Y-25863152D02*
X123134523Y-26529819D01*
X123372618Y-25482200D02*
X123610713Y-26196485D01*
X123610713Y-26196485D02*
X122991666Y-26196485D01*
X112561666Y-26394580D02*
X112609285Y-26442200D01*
X112609285Y-26442200D02*
X112752142Y-26489819D01*
X112752142Y-26489819D02*
X112847380Y-26489819D01*
X112847380Y-26489819D02*
X112990237Y-26442200D01*
X112990237Y-26442200D02*
X113085475Y-26346961D01*
X113085475Y-26346961D02*
X113133094Y-26251723D01*
X113133094Y-26251723D02*
X113180713Y-26061247D01*
X113180713Y-26061247D02*
X113180713Y-25918390D01*
X113180713Y-25918390D02*
X113133094Y-25727914D01*
X113133094Y-25727914D02*
X113085475Y-25632676D01*
X113085475Y-25632676D02*
X112990237Y-25537438D01*
X112990237Y-25537438D02*
X112847380Y-25489819D01*
X112847380Y-25489819D02*
X112752142Y-25489819D01*
X112752142Y-25489819D02*
X112609285Y-25537438D01*
X112609285Y-25537438D02*
X112561666Y-25585057D01*
X111609285Y-26489819D02*
X112180713Y-26489819D01*
X111894999Y-26489819D02*
X111894999Y-25489819D01*
X111894999Y-25489819D02*
X111990237Y-25632676D01*
X111990237Y-25632676D02*
X112085475Y-25727914D01*
X112085475Y-25727914D02*
X112180713Y-25775533D01*
X94434819Y-23963333D02*
X93958628Y-23630000D01*
X94434819Y-23391905D02*
X93434819Y-23391905D01*
X93434819Y-23391905D02*
X93434819Y-23772857D01*
X93434819Y-23772857D02*
X93482438Y-23868095D01*
X93482438Y-23868095D02*
X93530057Y-23915714D01*
X93530057Y-23915714D02*
X93625295Y-23963333D01*
X93625295Y-23963333D02*
X93768152Y-23963333D01*
X93768152Y-23963333D02*
X93863390Y-23915714D01*
X93863390Y-23915714D02*
X93911009Y-23868095D01*
X93911009Y-23868095D02*
X93958628Y-23772857D01*
X93958628Y-23772857D02*
X93958628Y-23391905D01*
X93434819Y-24296667D02*
X93434819Y-24963333D01*
X93434819Y-24963333D02*
X94434819Y-24534762D01*
X97448666Y-43296819D02*
X97781999Y-42820628D01*
X98020094Y-43296819D02*
X98020094Y-42296819D01*
X98020094Y-42296819D02*
X97639142Y-42296819D01*
X97639142Y-42296819D02*
X97543904Y-42344438D01*
X97543904Y-42344438D02*
X97496285Y-42392057D01*
X97496285Y-42392057D02*
X97448666Y-42487295D01*
X97448666Y-42487295D02*
X97448666Y-42630152D01*
X97448666Y-42630152D02*
X97496285Y-42725390D01*
X97496285Y-42725390D02*
X97543904Y-42773009D01*
X97543904Y-42773009D02*
X97639142Y-42820628D01*
X97639142Y-42820628D02*
X98020094Y-42820628D01*
X96543904Y-42296819D02*
X97020094Y-42296819D01*
X97020094Y-42296819D02*
X97067713Y-42773009D01*
X97067713Y-42773009D02*
X97020094Y-42725390D01*
X97020094Y-42725390D02*
X96924856Y-42677771D01*
X96924856Y-42677771D02*
X96686761Y-42677771D01*
X96686761Y-42677771D02*
X96591523Y-42725390D01*
X96591523Y-42725390D02*
X96543904Y-42773009D01*
X96543904Y-42773009D02*
X96496285Y-42868247D01*
X96496285Y-42868247D02*
X96496285Y-43106342D01*
X96496285Y-43106342D02*
X96543904Y-43201580D01*
X96543904Y-43201580D02*
X96591523Y-43249200D01*
X96591523Y-43249200D02*
X96686761Y-43296819D01*
X96686761Y-43296819D02*
X96924856Y-43296819D01*
X96924856Y-43296819D02*
X97020094Y-43249200D01*
X97020094Y-43249200D02*
X97067713Y-43201580D01*
X80136904Y-18504819D02*
X80136904Y-19314342D01*
X80136904Y-19314342D02*
X80089285Y-19409580D01*
X80089285Y-19409580D02*
X80041666Y-19457200D01*
X80041666Y-19457200D02*
X79946428Y-19504819D01*
X79946428Y-19504819D02*
X79755952Y-19504819D01*
X79755952Y-19504819D02*
X79660714Y-19457200D01*
X79660714Y-19457200D02*
X79613095Y-19409580D01*
X79613095Y-19409580D02*
X79565476Y-19314342D01*
X79565476Y-19314342D02*
X79565476Y-18504819D01*
X78660714Y-18838152D02*
X78660714Y-19504819D01*
X78898809Y-18457200D02*
X79136904Y-19171485D01*
X79136904Y-19171485D02*
X78517857Y-19171485D01*
X83516819Y-20535200D02*
X83754914Y-20535200D01*
X83659676Y-20297105D02*
X83754914Y-20535200D01*
X83754914Y-20535200D02*
X83659676Y-20773295D01*
X83945390Y-20392343D02*
X83754914Y-20535200D01*
X83754914Y-20535200D02*
X83945390Y-20678057D01*
X84607180Y-20535199D02*
X84369085Y-20535199D01*
X84464323Y-20773294D02*
X84369085Y-20535199D01*
X84369085Y-20535199D02*
X84464323Y-20297104D01*
X84178609Y-20678056D02*
X84369085Y-20535199D01*
X84369085Y-20535199D02*
X84178609Y-20392342D01*
X120181666Y-46809819D02*
X120514999Y-46333628D01*
X120753094Y-46809819D02*
X120753094Y-45809819D01*
X120753094Y-45809819D02*
X120372142Y-45809819D01*
X120372142Y-45809819D02*
X120276904Y-45857438D01*
X120276904Y-45857438D02*
X120229285Y-45905057D01*
X120229285Y-45905057D02*
X120181666Y-46000295D01*
X120181666Y-46000295D02*
X120181666Y-46143152D01*
X120181666Y-46143152D02*
X120229285Y-46238390D01*
X120229285Y-46238390D02*
X120276904Y-46286009D01*
X120276904Y-46286009D02*
X120372142Y-46333628D01*
X120372142Y-46333628D02*
X120753094Y-46333628D01*
X119848332Y-45809819D02*
X119229285Y-45809819D01*
X119229285Y-45809819D02*
X119562618Y-46190771D01*
X119562618Y-46190771D02*
X119419761Y-46190771D01*
X119419761Y-46190771D02*
X119324523Y-46238390D01*
X119324523Y-46238390D02*
X119276904Y-46286009D01*
X119276904Y-46286009D02*
X119229285Y-46381247D01*
X119229285Y-46381247D02*
X119229285Y-46619342D01*
X119229285Y-46619342D02*
X119276904Y-46714580D01*
X119276904Y-46714580D02*
X119324523Y-46762200D01*
X119324523Y-46762200D02*
X119419761Y-46809819D01*
X119419761Y-46809819D02*
X119705475Y-46809819D01*
X119705475Y-46809819D02*
X119800713Y-46762200D01*
X119800713Y-46762200D02*
X119848332Y-46714580D01*
X87034666Y-43296819D02*
X87367999Y-42820628D01*
X87606094Y-43296819D02*
X87606094Y-42296819D01*
X87606094Y-42296819D02*
X87225142Y-42296819D01*
X87225142Y-42296819D02*
X87129904Y-42344438D01*
X87129904Y-42344438D02*
X87082285Y-42392057D01*
X87082285Y-42392057D02*
X87034666Y-42487295D01*
X87034666Y-42487295D02*
X87034666Y-42630152D01*
X87034666Y-42630152D02*
X87082285Y-42725390D01*
X87082285Y-42725390D02*
X87129904Y-42773009D01*
X87129904Y-42773009D02*
X87225142Y-42820628D01*
X87225142Y-42820628D02*
X87606094Y-42820628D01*
X86177523Y-42296819D02*
X86367999Y-42296819D01*
X86367999Y-42296819D02*
X86463237Y-42344438D01*
X86463237Y-42344438D02*
X86510856Y-42392057D01*
X86510856Y-42392057D02*
X86606094Y-42534914D01*
X86606094Y-42534914D02*
X86653713Y-42725390D01*
X86653713Y-42725390D02*
X86653713Y-43106342D01*
X86653713Y-43106342D02*
X86606094Y-43201580D01*
X86606094Y-43201580D02*
X86558475Y-43249200D01*
X86558475Y-43249200D02*
X86463237Y-43296819D01*
X86463237Y-43296819D02*
X86272761Y-43296819D01*
X86272761Y-43296819D02*
X86177523Y-43249200D01*
X86177523Y-43249200D02*
X86129904Y-43201580D01*
X86129904Y-43201580D02*
X86082285Y-43106342D01*
X86082285Y-43106342D02*
X86082285Y-42868247D01*
X86082285Y-42868247D02*
X86129904Y-42773009D01*
X86129904Y-42773009D02*
X86177523Y-42725390D01*
X86177523Y-42725390D02*
X86272761Y-42677771D01*
X86272761Y-42677771D02*
X86463237Y-42677771D01*
X86463237Y-42677771D02*
X86558475Y-42725390D01*
X86558475Y-42725390D02*
X86606094Y-42773009D01*
X86606094Y-42773009D02*
X86653713Y-42868247D01*
%TO.C,C5*%
D13*
X89635000Y-17025000D02*
X89298000Y-17025000D01*
X89635000Y-22265000D02*
X89635000Y-17025000D01*
X89298000Y-22265000D02*
X89635000Y-22265000D01*
X87232000Y-17025000D02*
X86895000Y-17025000D01*
X86895000Y-17025000D02*
X86895000Y-22265000D01*
X86895000Y-22265000D02*
X87232000Y-22265000D01*
%TO.C,R2*%
X114835000Y-37370000D02*
X115165000Y-37370000D01*
X114835000Y-43910000D02*
X114835000Y-37370000D01*
X115165000Y-43910000D02*
X114835000Y-43910000D01*
X117245000Y-43910000D02*
X117575000Y-43910000D01*
X117575000Y-37370000D02*
X117245000Y-37370000D01*
X117575000Y-43910000D02*
X117575000Y-37370000D01*
%TO.C,C2*%
X114835000Y-27820000D02*
X114835000Y-33060000D01*
X114835000Y-33060000D02*
X115172000Y-33060000D01*
X115172000Y-27820000D02*
X114835000Y-27820000D01*
X117238000Y-33060000D02*
X117575000Y-33060000D01*
X117575000Y-27820000D02*
X117238000Y-27820000D01*
X117575000Y-33060000D02*
X117575000Y-27820000D01*
%TO.C,R4*%
X122455000Y-37410000D02*
X122785000Y-37410000D01*
X122455000Y-43950000D02*
X122455000Y-37410000D01*
X122785000Y-43950000D02*
X122455000Y-43950000D01*
X124865000Y-43950000D02*
X125195000Y-43950000D01*
X125195000Y-37410000D02*
X124865000Y-37410000D01*
X125195000Y-43950000D02*
X125195000Y-37410000D01*
%TO.C,R1*%
X111025000Y-37370000D02*
X111355000Y-37370000D01*
X111025000Y-43910000D02*
X111025000Y-37370000D01*
X111355000Y-43910000D02*
X111025000Y-43910000D01*
X113435000Y-43910000D02*
X113765000Y-43910000D01*
X113765000Y-37370000D02*
X113435000Y-37370000D01*
X113765000Y-43910000D02*
X113765000Y-37370000D01*
%TO.C,C3*%
X118645000Y-27820000D02*
X118645000Y-33060000D01*
X118645000Y-33060000D02*
X118982000Y-33060000D01*
X118982000Y-27820000D02*
X118645000Y-27820000D01*
X121048000Y-33060000D02*
X121385000Y-33060000D01*
X121385000Y-27820000D02*
X121048000Y-27820000D01*
X121385000Y-33060000D02*
X121385000Y-27820000D01*
%TO.C,J2*%
D14*
X61615000Y-36405000D02*
X64115000Y-36405000D01*
X64115000Y-38905000D01*
X61615000Y-38905000D01*
X61615000Y-36405000D01*
G36*
X64161194Y-36865866D02*
G01*
X64161194Y-36904135D01*
X64150355Y-36920356D01*
X62130355Y-38940355D01*
X62114134Y-38951194D01*
X62075866Y-38951194D01*
X62048806Y-38924134D01*
X62048806Y-38885866D01*
X62059645Y-38869645D01*
X64079644Y-36849645D01*
X64095865Y-36838806D01*
X64134134Y-36838806D01*
X64161194Y-36865866D01*
G37*
G36*
X64161194Y-37865866D02*
G01*
X64161194Y-37904134D01*
X64150355Y-37920355D01*
X63130355Y-38940355D01*
X63114134Y-38951194D01*
X63075866Y-38951194D01*
X63048806Y-38924134D01*
X63048806Y-38885866D01*
X63059645Y-38869645D01*
X64079645Y-37849645D01*
X64095866Y-37838806D01*
X64134134Y-37838806D01*
X64161194Y-37865866D01*
G37*
G36*
X64161194Y-38865866D02*
G01*
X64161194Y-38904135D01*
X64150355Y-38920356D01*
X64130355Y-38940355D01*
X64114134Y-38951194D01*
X64075866Y-38951194D01*
X64048806Y-38924134D01*
X64048806Y-38885866D01*
X64059645Y-38869645D01*
X64079644Y-38849645D01*
X64095865Y-38838806D01*
X64134134Y-38838806D01*
X64161194Y-38865866D01*
G37*
G36*
X63641194Y-36385866D02*
G01*
X63641194Y-36424134D01*
X63630355Y-36440355D01*
X61650355Y-38420355D01*
X61634134Y-38431194D01*
X61595866Y-38431194D01*
X61568806Y-38404134D01*
X61568806Y-38365866D01*
X61579645Y-38349645D01*
X63559645Y-36369645D01*
X63575866Y-36358806D01*
X63614134Y-36358806D01*
X63641194Y-36385866D01*
G37*
G36*
X62641194Y-36385866D02*
G01*
X62641194Y-36424135D01*
X62630355Y-36440356D01*
X61650355Y-37420355D01*
X61634134Y-37431194D01*
X61595866Y-37431194D01*
X61568806Y-37404134D01*
X61568806Y-37365866D01*
X61579645Y-37349645D01*
X62559644Y-36369645D01*
X62575865Y-36358806D01*
X62614134Y-36358806D01*
X62641194Y-36385866D01*
G37*
X55275000Y-28594683D02*
X70455000Y-28594683D01*
X70455000Y-40194683D01*
X55275000Y-40194683D01*
X55275000Y-28594683D01*
X59295000Y-37644683D02*
G75*
G02*
X56295000Y-37644683I-1500000J0D01*
G01*
X56295000Y-37644683D02*
G75*
G02*
X59295000Y-37644683I1500000J0D01*
G01*
X69365000Y-37655000D02*
G75*
G02*
X66365000Y-37655000I-1500000J0D01*
G01*
X66365000Y-37655000D02*
G75*
G02*
X69365000Y-37655000I1500000J0D01*
G01*
%TO.C,U2*%
D13*
X128160000Y-17720000D02*
X133460000Y-17720000D01*
X128160000Y-53400000D02*
X128160000Y-17720000D01*
X129810000Y-53400000D02*
X128160000Y-53400000D01*
X133460000Y-17720000D02*
X133460000Y-53400000D01*
X133460000Y-53400000D02*
X131810000Y-53400000D01*
X129810000Y-53400000D02*
G75*
G02*
X131810000Y-53400000I1000000J0D01*
G01*
%TO.C,R8*%
X91975000Y-17685000D02*
X92305000Y-17685000D01*
X91975000Y-24225000D02*
X91975000Y-17685000D01*
X92305000Y-24225000D02*
X91975000Y-24225000D01*
X94385000Y-24225000D02*
X94715000Y-24225000D01*
X94715000Y-17685000D02*
X94385000Y-17685000D01*
X94715000Y-24225000D02*
X94715000Y-17685000D01*
%TO.C,C4*%
X122455000Y-27860000D02*
X122455000Y-33100000D01*
X122455000Y-33100000D02*
X122792000Y-33100000D01*
X122792000Y-27860000D02*
X122455000Y-27860000D01*
X124858000Y-33100000D02*
X125195000Y-33100000D01*
X125195000Y-27860000D02*
X124858000Y-27860000D01*
X125195000Y-33100000D02*
X125195000Y-27860000D01*
%TO.C,C1*%
X111025000Y-27820000D02*
X111025000Y-33060000D01*
X111025000Y-33060000D02*
X111362000Y-33060000D01*
X111362000Y-27820000D02*
X111025000Y-27820000D01*
X113428000Y-33060000D02*
X113765000Y-33060000D01*
X113765000Y-27820000D02*
X113428000Y-27820000D01*
X113765000Y-33060000D02*
X113765000Y-27820000D01*
%TO.C,R7*%
X95785000Y-17685000D02*
X96115000Y-17685000D01*
X95785000Y-24225000D02*
X95785000Y-17685000D01*
X96115000Y-24225000D02*
X95785000Y-24225000D01*
X98195000Y-24225000D02*
X98525000Y-24225000D01*
X98525000Y-17685000D02*
X98195000Y-17685000D01*
X98525000Y-24225000D02*
X98525000Y-17685000D01*
%TO.C,R5*%
X94012000Y-43842000D02*
X94012000Y-44172000D01*
X94012000Y-46582000D02*
X94012000Y-46252000D01*
X100552000Y-43842000D02*
X94012000Y-43842000D01*
X100552000Y-44172000D02*
X100552000Y-43842000D01*
X100552000Y-46252000D02*
X100552000Y-46582000D01*
X100552000Y-46582000D02*
X94012000Y-46582000D01*
%TO.C,U4*%
D15*
X80759300Y-20344700D02*
X80759300Y-18795300D01*
X83223100Y-18795300D02*
X83223100Y-20344700D01*
%TO.C,R3*%
D13*
X118645000Y-37370000D02*
X118975000Y-37370000D01*
X118645000Y-43910000D02*
X118645000Y-37370000D01*
X118975000Y-43910000D02*
X118645000Y-43910000D01*
X121055000Y-43910000D02*
X121385000Y-43910000D01*
X121385000Y-37370000D02*
X121055000Y-37370000D01*
X121385000Y-43910000D02*
X121385000Y-37370000D01*
%TO.C,R6*%
X83598000Y-43842000D02*
X83598000Y-44172000D01*
X83598000Y-46582000D02*
X83598000Y-46252000D01*
X90138000Y-43842000D02*
X83598000Y-43842000D01*
X90138000Y-44172000D02*
X90138000Y-43842000D01*
X90138000Y-46252000D02*
X90138000Y-46582000D01*
X90138000Y-46582000D02*
X83598000Y-46582000D01*
%TD*%
M02*
