%TF.GenerationSoftware,KiCad,Pcbnew,10.0.2*%
%TF.CreationDate,2026-05-25T01:38:51-07:00*%
%TF.ProjectId,panel,70616e65-6c2e-46b6-9963-61645f706362,rev?*%
%TF.SameCoordinates,Original*%
%TF.FileFunction,Soldermask,Bot*%
%TF.FilePolarity,Negative*%
%FSLAX46Y46*%
G04 Gerber Fmt 4.6, Leading zero omitted, Abs format (unit mm)*
G04 Created by KiCad (PCBNEW 10.0.2) date 2026-05-25 01:38:51*
%MOMM*%
%LPD*%
G01*
G04 APERTURE LIST*
G04 Aperture macros list*
%AMRoundRect*
0 Rectangle with rounded corners*
0 $1 Rounding radius*
0 $2 $3 $4 $5 $6 $7 $8 $9 X,Y pos of 4 corners*
0 Add a 4 corners polygon primitive as box body*
4,1,4,$2,$3,$4,$5,$6,$7,$8,$9,$2,$3,0*
0 Add four circle primitives for the rounded corners*
1,1,$1+$1,$2,$3*
1,1,$1+$1,$4,$5*
1,1,$1+$1,$6,$7*
1,1,$1+$1,$8,$9*
0 Add four rect primitives between the rounded corners*
20,1,$1+$1,$2,$3,$4,$5,0*
20,1,$1+$1,$4,$5,$6,$7,0*
20,1,$1+$1,$6,$7,$8,$9,0*
20,1,$1+$1,$8,$9,$2,$3,0*%
G04 Aperture macros list end*
%ADD10C,3.200000*%
%ADD11C,2.000000*%
%ADD12C,1.500000*%
%ADD13R,1.800000X1.800000*%
%ADD14C,1.800000*%
%ADD15RoundRect,0.300000X-0.700000X-0.700000X0.700000X-0.700000X0.700000X0.700000X-0.700000X0.700000X0*%
%ADD16C,4.500000*%
%ADD17R,1.500000X1.500000*%
%ADD18C,4.575000*%
%ADD19C,3.000000*%
%ADD20C,1.600000*%
%ADD21RoundRect,0.300000X0.700000X-0.700000X0.700000X0.700000X-0.700000X0.700000X-0.700000X-0.700000X0*%
%ADD22RoundRect,0.250000X-0.550000X-0.550000X0.550000X-0.550000X0.550000X0.550000X-0.550000X0.550000X0*%
%ADD23R,0.177800X0.990600*%
G04 APERTURE END LIST*
D10*
%TO.C,MH1*%
X18542000Y-18542000D03*
%TD*%
D11*
%TO.C,SW1*%
X21670000Y-20610000D03*
X28170000Y-20610000D03*
X21670000Y-25110000D03*
X28170000Y-25110000D03*
%TD*%
D10*
%TO.C,MH3*%
X166497000Y-18542000D03*
%TD*%
D12*
%TO.C,S1*%
X28500000Y-52100000D03*
X31000000Y-51280000D03*
X36860000Y-48050000D03*
X37800000Y-45800000D03*
X37800000Y-42800000D03*
X31500000Y-36500000D03*
X29000000Y-38520000D03*
X28500000Y-36500000D03*
X22200000Y-42800000D03*
X22200000Y-45800000D03*
X26200000Y-45800000D03*
%TD*%
D13*
%TO.C,D4*%
X66040000Y-17780000D03*
D14*
X63500000Y-17780000D03*
%TD*%
D13*
%TO.C,D3*%
X68580000Y-17780000D03*
D14*
X71120000Y-17780000D03*
%TD*%
D15*
%TO.C,J3*%
X149540000Y-20320000D03*
D11*
X149540000Y-22860000D03*
X149540000Y-25400000D03*
X149540000Y-27940000D03*
X149540000Y-30480000D03*
%TD*%
D13*
%TO.C,D2*%
X116840000Y-17780000D03*
D14*
X114300000Y-17780000D03*
%TD*%
D11*
%TO.C,SW2*%
X31830000Y-20610000D03*
X38330000Y-20610000D03*
X31830000Y-25110000D03*
X38330000Y-25110000D03*
%TD*%
D13*
%TO.C,U1*%
X152500000Y-51500000D03*
D14*
X152500000Y-34500000D03*
X157500000Y-51500000D03*
X157500000Y-34500000D03*
X155000000Y-51500000D03*
X155000000Y-34500000D03*
D16*
X149500000Y-44000000D03*
X160500000Y-44000000D03*
D14*
X152500000Y-37000000D03*
X157500000Y-37000000D03*
%TD*%
D11*
%TO.C,SW3*%
X21670000Y-28230000D03*
X28170000Y-28230000D03*
X21670000Y-32730000D03*
X28170000Y-32730000D03*
%TD*%
%TO.C,SW4*%
X31830000Y-28230000D03*
X38330000Y-28230000D03*
X31830000Y-32730000D03*
X38330000Y-32730000D03*
%TD*%
D10*
%TO.C,MH4*%
X166497000Y-51435000D03*
%TD*%
D13*
%TO.C,D1*%
X119380000Y-17780000D03*
D14*
X121920000Y-17780000D03*
%TD*%
D10*
%TO.C,MH2*%
X18542000Y-51435000D03*
%TD*%
D17*
%TO.C,J1*%
X97980000Y-33580000D03*
D12*
X95240000Y-33580000D03*
X92500000Y-33580000D03*
X89760000Y-33580000D03*
X87020000Y-33580000D03*
X96610000Y-36420000D03*
X93870000Y-36420000D03*
X91130000Y-36420000D03*
X88390000Y-36420000D03*
D18*
X80000000Y-35000000D03*
X105000000Y-35000000D03*
%TD*%
D19*
%TO.C,U3*%
X44840000Y-22850000D03*
X44840000Y-51350000D03*
X139840000Y-22850000D03*
X139840000Y-51350000D03*
D11*
X138800000Y-45740000D03*
X141340000Y-45740000D03*
X138800000Y-43200000D03*
X141340000Y-43200000D03*
X138800000Y-40660000D03*
X141340000Y-40660000D03*
X138800000Y-38120000D03*
X141340000Y-38120000D03*
X138800000Y-35580000D03*
X141340000Y-35580000D03*
X138800000Y-33040000D03*
X141340000Y-33040000D03*
X138800000Y-30500000D03*
X141340000Y-30500000D03*
X138800000Y-27960000D03*
X141340000Y-27960000D03*
%TD*%
D20*
%TO.C,C5*%
X88265000Y-17145000D03*
X88265000Y-22145000D03*
%TD*%
%TO.C,R2*%
X116205000Y-44450000D03*
X116205000Y-36830000D03*
%TD*%
%TO.C,C2*%
X116205000Y-32940000D03*
X116205000Y-27940000D03*
%TD*%
%TO.C,R4*%
X123825000Y-44490000D03*
X123825000Y-36870000D03*
%TD*%
%TO.C,R1*%
X112395000Y-44450000D03*
X112395000Y-36830000D03*
%TD*%
%TO.C,C3*%
X120015000Y-32940000D03*
X120015000Y-27940000D03*
%TD*%
D21*
%TO.C,J2*%
X56515000Y-29864683D03*
D11*
X59055000Y-29864683D03*
X61595000Y-29864683D03*
X64135000Y-29845000D03*
X66675000Y-29864683D03*
X69215000Y-29864683D03*
%TD*%
D22*
%TO.C,U2*%
X127000000Y-52070000D03*
D20*
X127000000Y-49530000D03*
X127000000Y-46990000D03*
X127000000Y-44450000D03*
X127000000Y-41910000D03*
X127000000Y-39370000D03*
X127000000Y-36830000D03*
X127000000Y-34290000D03*
X127000000Y-31750000D03*
X127000000Y-29210000D03*
X127000000Y-26670000D03*
X127000000Y-24130000D03*
X127000000Y-21590000D03*
X127000000Y-19050000D03*
X134620000Y-19050000D03*
X134620000Y-21590000D03*
X134620000Y-24130000D03*
X134620000Y-26670000D03*
X134620000Y-29210000D03*
X134620000Y-31750000D03*
X134620000Y-34290000D03*
X134620000Y-36830000D03*
X134620000Y-39370000D03*
X134620000Y-41910000D03*
X134620000Y-44450000D03*
X134620000Y-46990000D03*
X134620000Y-49530000D03*
X134620000Y-52070000D03*
%TD*%
%TO.C,R8*%
X93345000Y-24765000D03*
X93345000Y-17145000D03*
%TD*%
%TO.C,C4*%
X123825000Y-32980000D03*
X123825000Y-27980000D03*
%TD*%
%TO.C,C1*%
X112395000Y-32940000D03*
X112395000Y-27940000D03*
%TD*%
%TO.C,R7*%
X97155000Y-24765000D03*
X97155000Y-17145000D03*
%TD*%
%TO.C,R5*%
X101092000Y-45212000D03*
X93472000Y-45212000D03*
%TD*%
D23*
%TO.C,U4*%
X82741201Y-20281200D03*
X82241200Y-20281200D03*
X81741200Y-20281200D03*
X81241199Y-20281200D03*
X81241199Y-18858800D03*
X81741200Y-18858800D03*
X82241200Y-18858800D03*
X82741201Y-18858800D03*
%TD*%
D20*
%TO.C,R3*%
X120015000Y-44450000D03*
X120015000Y-36830000D03*
%TD*%
%TO.C,R6*%
X90678000Y-45212000D03*
X83058000Y-45212000D03*
%TD*%
M02*
