%TF.GenerationSoftware,KiCad,Pcbnew,10.0.2*%
%TF.CreationDate,2026-05-25T01:38:48-07:00*%
%TF.ProjectId,panel,70616e65-6c2e-46b6-9963-61645f706362,rev?*%
%TF.SameCoordinates,Original*%
%TF.FileFunction,Drillmap*%
%TF.FilePolarity,Positive*%
%FSLAX45Y45*%
G04 Gerber Fmt 4.5, Leading zero omitted, Abs format (unit mm)*
G04 Created by KiCad (PCBNEW 10.0.2) date 2026-05-25 01:38:48*
%MOMM*%
%LPD*%
G01*
G04 APERTURE LIST*
%ADD10C,0.050000*%
%ADD11C,0.200000*%
%ADD12C,0.100000*%
%ADD13C,0.110000*%
%ADD14C,0.120000*%
%ADD15C,0.300000*%
%ADD16C,0.305000*%
G04 APERTURE END LIST*
D10*
X1500000Y-1500000D02*
X1500000Y-5500000D01*
X1500000Y-5500000D02*
X17000000Y-5500000D01*
X5778500Y-3683000D02*
X5778500Y-3683000D01*
G75*
G02*
X5778500Y-3302000I0J190500D01*
G01*
X6794500Y-3302000D01*
G75*
G02*
X6794500Y-3683000I0J-190500D01*
G01*
X5778500Y-3683000D01*
X17000000Y-1500000D02*
X1500000Y-1500000D01*
X17000000Y-5500000D02*
X17000000Y-1500000D01*
D11*
D12*
X8049500Y-4366500D02*
X8079500Y-4396500D01*
X8079500Y-4366500D02*
X8049500Y-4396500D01*
X8075896Y-1629500D02*
X8105896Y-1659500D01*
X8105896Y-1629500D02*
X8075896Y-1659500D01*
X8463230Y-1946290D02*
X8493230Y-1976290D01*
X8493230Y-1946290D02*
X8463230Y-1976290D01*
X10250927Y-3735000D02*
X10280927Y-3765000D01*
X10280927Y-3735000D02*
X10250927Y-3765000D01*
X10970500Y-4265000D02*
X11000500Y-4295000D01*
X11000500Y-4265000D02*
X10970500Y-4295000D01*
X11415000Y-4021170D02*
X11445000Y-4051170D01*
X11445000Y-4021170D02*
X11415000Y-4051170D01*
X11488930Y-3483300D02*
X11518930Y-3513300D01*
X11518930Y-3483300D02*
X11488930Y-3513300D01*
X12506180Y-4750690D02*
X12536180Y-4780690D01*
X12536180Y-4750690D02*
X12506180Y-4780690D01*
X12537620Y-4610610D02*
X12567620Y-4640610D01*
X12567620Y-4610610D02*
X12537620Y-4640610D01*
X13510150Y-3034380D02*
X13540150Y-3064380D01*
X13540150Y-3034380D02*
X13510150Y-3064380D01*
X13663580Y-2594690D02*
X13693580Y-2624690D01*
X13693580Y-2594690D02*
X13663580Y-2624690D01*
X4030500Y-4826000D02*
G75*
G02*
X3970500Y-4826000I-30000J0D01*
G01*
X3970500Y-4826000D02*
G75*
G02*
X4030500Y-4826000I30000J0D01*
G01*
X4157500Y-5207000D02*
G75*
G02*
X4097500Y-5207000I-30000J0D01*
G01*
X4097500Y-5207000D02*
G75*
G02*
X4157500Y-5207000I30000J0D01*
G01*
X8236620Y-2202080D02*
G75*
G02*
X8176620Y-2202080I-30000J0D01*
G01*
X8176620Y-2202080D02*
G75*
G02*
X8236620Y-2202080I30000J0D01*
G01*
X13709000Y-3937000D02*
G75*
G02*
X13649000Y-3937000I-30000J0D01*
G01*
X13649000Y-3937000D02*
G75*
G02*
X13709000Y-3937000I30000J0D01*
G01*
X13709000Y-4191000D02*
G75*
G02*
X13649000Y-4191000I-30000J0D01*
G01*
X13649000Y-4191000D02*
G75*
G02*
X13709000Y-4191000I30000J0D01*
G01*
X5651500Y-2946468D02*
X5651500Y-3026468D01*
X5611500Y-2986468D02*
X5691500Y-2986468D01*
X5905500Y-2946468D02*
X5905500Y-3026468D01*
X5865500Y-2986468D02*
X5945500Y-2986468D01*
X6159500Y-2946468D02*
X6159500Y-3026468D01*
X6119500Y-2986468D02*
X6199500Y-2986468D01*
X6413500Y-2944500D02*
X6413500Y-3024500D01*
X6373500Y-2984500D02*
X6453500Y-2984500D01*
X6667500Y-2946468D02*
X6667500Y-3026468D01*
X6627500Y-2986468D02*
X6707500Y-2986468D01*
X6921500Y-2946468D02*
X6921500Y-3026468D01*
X6881500Y-2986468D02*
X6961500Y-2986468D01*
X8305800Y-4481200D02*
X8305800Y-4561200D01*
X8265800Y-4521200D02*
X8345800Y-4521200D01*
X8826500Y-1674500D02*
X8826500Y-1754500D01*
X8786500Y-1714500D02*
X8866500Y-1714500D01*
X8826500Y-2174500D02*
X8826500Y-2254500D01*
X8786500Y-2214500D02*
X8866500Y-2214500D01*
X9067800Y-4481200D02*
X9067800Y-4561200D01*
X9027800Y-4521200D02*
X9107800Y-4521200D01*
X9334500Y-1674500D02*
X9334500Y-1754500D01*
X9294500Y-1714500D02*
X9374500Y-1714500D01*
X9334500Y-2436500D02*
X9334500Y-2516500D01*
X9294500Y-2476500D02*
X9374500Y-2476500D01*
X9347200Y-4481200D02*
X9347200Y-4561200D01*
X9307200Y-4521200D02*
X9387200Y-4521200D01*
X9715500Y-1674500D02*
X9715500Y-1754500D01*
X9675500Y-1714500D02*
X9755500Y-1714500D01*
X9715500Y-2436500D02*
X9715500Y-2516500D01*
X9675500Y-2476500D02*
X9755500Y-2476500D01*
X10109200Y-4481200D02*
X10109200Y-4561200D01*
X10069200Y-4521200D02*
X10149200Y-4521200D01*
X11239500Y-2754000D02*
X11239500Y-2834000D01*
X11199500Y-2794000D02*
X11279500Y-2794000D01*
X11239500Y-3254000D02*
X11239500Y-3334000D01*
X11199500Y-3294000D02*
X11279500Y-3294000D01*
X11239500Y-3643000D02*
X11239500Y-3723000D01*
X11199500Y-3683000D02*
X11279500Y-3683000D01*
X11239500Y-4405000D02*
X11239500Y-4485000D01*
X11199500Y-4445000D02*
X11279500Y-4445000D01*
X11620500Y-2754000D02*
X11620500Y-2834000D01*
X11580500Y-2794000D02*
X11660500Y-2794000D01*
X11620500Y-3254000D02*
X11620500Y-3334000D01*
X11580500Y-3294000D02*
X11660500Y-3294000D01*
X11620500Y-3643000D02*
X11620500Y-3723000D01*
X11580500Y-3683000D02*
X11660500Y-3683000D01*
X11620500Y-4405000D02*
X11620500Y-4485000D01*
X11580500Y-4445000D02*
X11660500Y-4445000D01*
X12001500Y-2754000D02*
X12001500Y-2834000D01*
X11961500Y-2794000D02*
X12041500Y-2794000D01*
X12001500Y-3254000D02*
X12001500Y-3334000D01*
X11961500Y-3294000D02*
X12041500Y-3294000D01*
X12001500Y-3643000D02*
X12001500Y-3723000D01*
X11961500Y-3683000D02*
X12041500Y-3683000D01*
X12001500Y-4405000D02*
X12001500Y-4485000D01*
X11961500Y-4445000D02*
X12041500Y-4445000D01*
X12382500Y-2758000D02*
X12382500Y-2838000D01*
X12342500Y-2798000D02*
X12422500Y-2798000D01*
X12382500Y-3258000D02*
X12382500Y-3338000D01*
X12342500Y-3298000D02*
X12422500Y-3298000D01*
X12382500Y-3647000D02*
X12382500Y-3727000D01*
X12342500Y-3687000D02*
X12422500Y-3687000D01*
X12382500Y-4409000D02*
X12382500Y-4489000D01*
X12342500Y-4449000D02*
X12422500Y-4449000D01*
X12700000Y-1865000D02*
X12700000Y-1945000D01*
X12660000Y-1905000D02*
X12740000Y-1905000D01*
X12700000Y-2119000D02*
X12700000Y-2199000D01*
X12660000Y-2159000D02*
X12740000Y-2159000D01*
X12700000Y-2373000D02*
X12700000Y-2453000D01*
X12660000Y-2413000D02*
X12740000Y-2413000D01*
X12700000Y-2627000D02*
X12700000Y-2707000D01*
X12660000Y-2667000D02*
X12740000Y-2667000D01*
X12700000Y-2881000D02*
X12700000Y-2961000D01*
X12660000Y-2921000D02*
X12740000Y-2921000D01*
X12700000Y-3135000D02*
X12700000Y-3215000D01*
X12660000Y-3175000D02*
X12740000Y-3175000D01*
X12700000Y-3389000D02*
X12700000Y-3469000D01*
X12660000Y-3429000D02*
X12740000Y-3429000D01*
X12700000Y-3643000D02*
X12700000Y-3723000D01*
X12660000Y-3683000D02*
X12740000Y-3683000D01*
X12700000Y-3897000D02*
X12700000Y-3977000D01*
X12660000Y-3937000D02*
X12740000Y-3937000D01*
X12700000Y-4151000D02*
X12700000Y-4231000D01*
X12660000Y-4191000D02*
X12740000Y-4191000D01*
X12700000Y-4405000D02*
X12700000Y-4485000D01*
X12660000Y-4445000D02*
X12740000Y-4445000D01*
X12700000Y-4659000D02*
X12700000Y-4739000D01*
X12660000Y-4699000D02*
X12740000Y-4699000D01*
X12700000Y-4913000D02*
X12700000Y-4993000D01*
X12660000Y-4953000D02*
X12740000Y-4953000D01*
X12700000Y-5167000D02*
X12700000Y-5247000D01*
X12660000Y-5207000D02*
X12740000Y-5207000D01*
X13462000Y-1865000D02*
X13462000Y-1945000D01*
X13422000Y-1905000D02*
X13502000Y-1905000D01*
X13462000Y-2119000D02*
X13462000Y-2199000D01*
X13422000Y-2159000D02*
X13502000Y-2159000D01*
X13462000Y-2373000D02*
X13462000Y-2453000D01*
X13422000Y-2413000D02*
X13502000Y-2413000D01*
X13462000Y-2627000D02*
X13462000Y-2707000D01*
X13422000Y-2667000D02*
X13502000Y-2667000D01*
X13462000Y-2881000D02*
X13462000Y-2961000D01*
X13422000Y-2921000D02*
X13502000Y-2921000D01*
X13462000Y-3135000D02*
X13462000Y-3215000D01*
X13422000Y-3175000D02*
X13502000Y-3175000D01*
X13462000Y-3389000D02*
X13462000Y-3469000D01*
X13422000Y-3429000D02*
X13502000Y-3429000D01*
X13462000Y-3643000D02*
X13462000Y-3723000D01*
X13422000Y-3683000D02*
X13502000Y-3683000D01*
X13462000Y-3897000D02*
X13462000Y-3977000D01*
X13422000Y-3937000D02*
X13502000Y-3937000D01*
X13462000Y-4151000D02*
X13462000Y-4231000D01*
X13422000Y-4191000D02*
X13502000Y-4191000D01*
X13462000Y-4405000D02*
X13462000Y-4485000D01*
X13422000Y-4445000D02*
X13502000Y-4445000D01*
X13462000Y-4659000D02*
X13462000Y-4739000D01*
X13422000Y-4699000D02*
X13502000Y-4699000D01*
X13462000Y-4913000D02*
X13462000Y-4993000D01*
X13422000Y-4953000D02*
X13502000Y-4953000D01*
X13462000Y-5167000D02*
X13462000Y-5247000D01*
X13422000Y-5207000D02*
X13502000Y-5207000D01*
X13880000Y-2756000D02*
X13880000Y-2836000D01*
X13840000Y-2796000D02*
X13920000Y-2796000D01*
X13880000Y-3010000D02*
X13880000Y-3090000D01*
X13840000Y-3050000D02*
X13920000Y-3050000D01*
X13880000Y-3264000D02*
X13880000Y-3344000D01*
X13840000Y-3304000D02*
X13920000Y-3304000D01*
X13880000Y-3518000D02*
X13880000Y-3598000D01*
X13840000Y-3558000D02*
X13920000Y-3558000D01*
X13880000Y-3772000D02*
X13880000Y-3852000D01*
X13840000Y-3812000D02*
X13920000Y-3812000D01*
X13880000Y-4026000D02*
X13880000Y-4106000D01*
X13840000Y-4066000D02*
X13920000Y-4066000D01*
X13880000Y-4280000D02*
X13880000Y-4360000D01*
X13840000Y-4320000D02*
X13920000Y-4320000D01*
X13880000Y-4534000D02*
X13880000Y-4614000D01*
X13840000Y-4574000D02*
X13920000Y-4574000D01*
X14134000Y-2756000D02*
X14134000Y-2836000D01*
X14094000Y-2796000D02*
X14174000Y-2796000D01*
X14134000Y-3010000D02*
X14134000Y-3090000D01*
X14094000Y-3050000D02*
X14174000Y-3050000D01*
X14134000Y-3264000D02*
X14134000Y-3344000D01*
X14094000Y-3304000D02*
X14174000Y-3304000D01*
X14134000Y-3518000D02*
X14134000Y-3598000D01*
X14094000Y-3558000D02*
X14174000Y-3558000D01*
X14134000Y-3772000D02*
X14134000Y-3852000D01*
X14094000Y-3812000D02*
X14174000Y-3812000D01*
X14134000Y-4026000D02*
X14134000Y-4106000D01*
X14094000Y-4066000D02*
X14174000Y-4066000D01*
X14134000Y-4280000D02*
X14134000Y-4360000D01*
X14094000Y-4320000D02*
X14174000Y-4320000D01*
X14134000Y-4534000D02*
X14134000Y-4614000D01*
X14094000Y-4574000D02*
X14174000Y-4574000D01*
X14954000Y-1992000D02*
X14954000Y-2072000D01*
X14914000Y-2032000D02*
X14994000Y-2032000D01*
X14954000Y-2246000D02*
X14954000Y-2326000D01*
X14914000Y-2286000D02*
X14994000Y-2286000D01*
X14954000Y-2500000D02*
X14954000Y-2580000D01*
X14914000Y-2540000D02*
X14994000Y-2540000D01*
X14954000Y-2754000D02*
X14954000Y-2834000D01*
X14914000Y-2794000D02*
X14994000Y-2794000D01*
X14954000Y-3008000D02*
X14954000Y-3088000D01*
X14914000Y-3048000D02*
X14994000Y-3048000D01*
X6381820Y-1809820D02*
X6381820Y-1746180D01*
X6318180Y-1746180D01*
X6318180Y-1809820D01*
X6381820Y-1809820D01*
X6635820Y-1809820D02*
X6635820Y-1746180D01*
X6572180Y-1746180D01*
X6572180Y-1809820D01*
X6635820Y-1809820D01*
X6889820Y-1809820D02*
X6889820Y-1746180D01*
X6826180Y-1746180D01*
X6826180Y-1809820D01*
X6889820Y-1809820D01*
X7143820Y-1809820D02*
X7143820Y-1746180D01*
X7080180Y-1746180D01*
X7080180Y-1809820D01*
X7143820Y-1809820D01*
X11461820Y-1809820D02*
X11461820Y-1746180D01*
X11398180Y-1746180D01*
X11398180Y-1809820D01*
X11461820Y-1809820D01*
X11715820Y-1809820D02*
X11715820Y-1746180D01*
X11652180Y-1746180D01*
X11652180Y-1809820D01*
X11715820Y-1809820D01*
X11969820Y-1809820D02*
X11969820Y-1746180D01*
X11906180Y-1746180D01*
X11906180Y-1809820D01*
X11969820Y-1809820D01*
X12223820Y-1809820D02*
X12223820Y-1746180D01*
X12160180Y-1746180D01*
X12160180Y-1809820D01*
X12223820Y-1809820D01*
X2220000Y-4330000D02*
X2270000Y-4280000D01*
X2220000Y-4230000D01*
X2170000Y-4280000D01*
X2220000Y-4330000D01*
X2220000Y-4630000D02*
X2270000Y-4580000D01*
X2220000Y-4530000D01*
X2170000Y-4580000D01*
X2220000Y-4630000D01*
X2620000Y-4630000D02*
X2670000Y-4580000D01*
X2620000Y-4530000D01*
X2570000Y-4580000D01*
X2620000Y-4630000D01*
X2850000Y-3700000D02*
X2900000Y-3650000D01*
X2850000Y-3600000D01*
X2800000Y-3650000D01*
X2850000Y-3700000D01*
X2850000Y-5260000D02*
X2900000Y-5210000D01*
X2850000Y-5160000D01*
X2800000Y-5210000D01*
X2850000Y-5260000D01*
X2900000Y-3902000D02*
X2950000Y-3852000D01*
X2900000Y-3802000D01*
X2850000Y-3852000D01*
X2900000Y-3902000D01*
X3100000Y-5178000D02*
X3150000Y-5128000D01*
X3100000Y-5078000D01*
X3050000Y-5128000D01*
X3100000Y-5178000D01*
X3150000Y-3700000D02*
X3200000Y-3650000D01*
X3150000Y-3600000D01*
X3100000Y-3650000D01*
X3150000Y-3700000D01*
X3686000Y-4855000D02*
X3736000Y-4805000D01*
X3686000Y-4755000D01*
X3636000Y-4805000D01*
X3686000Y-4855000D01*
X3780000Y-4330000D02*
X3830000Y-4280000D01*
X3780000Y-4230000D01*
X3730000Y-4280000D01*
X3780000Y-4330000D01*
X3780000Y-4630000D02*
X3830000Y-4580000D01*
X3780000Y-4530000D01*
X3730000Y-4580000D01*
X3780000Y-4630000D01*
X8702000Y-3408000D02*
X8752000Y-3358000D01*
X8702000Y-3308000D01*
X8652000Y-3358000D01*
X8702000Y-3408000D01*
X8839000Y-3692000D02*
X8889000Y-3642000D01*
X8839000Y-3592000D01*
X8789000Y-3642000D01*
X8839000Y-3692000D01*
X8976000Y-3408000D02*
X9026000Y-3358000D01*
X8976000Y-3308000D01*
X8926000Y-3358000D01*
X8976000Y-3408000D01*
X9113000Y-3692000D02*
X9163000Y-3642000D01*
X9113000Y-3592000D01*
X9063000Y-3642000D01*
X9113000Y-3692000D01*
X9250000Y-3408000D02*
X9300000Y-3358000D01*
X9250000Y-3308000D01*
X9200000Y-3358000D01*
X9250000Y-3408000D01*
X9387000Y-3692000D02*
X9437000Y-3642000D01*
X9387000Y-3592000D01*
X9337000Y-3642000D01*
X9387000Y-3692000D01*
X9524000Y-3408000D02*
X9574000Y-3358000D01*
X9524000Y-3308000D01*
X9474000Y-3358000D01*
X9524000Y-3408000D01*
X9661000Y-3692000D02*
X9711000Y-3642000D01*
X9661000Y-3592000D01*
X9611000Y-3642000D01*
X9661000Y-3692000D01*
X9798000Y-3408000D02*
X9848000Y-3358000D01*
X9798000Y-3308000D01*
X9748000Y-3358000D01*
X9798000Y-3408000D01*
D13*
X2112000Y-2006000D02*
X2222000Y-2116000D01*
X2222000Y-2006000D02*
X2112000Y-2116000D01*
X2222000Y-2061000D02*
G75*
G02*
X2112000Y-2061000I-55000J0D01*
G01*
X2112000Y-2061000D02*
G75*
G02*
X2222000Y-2061000I55000J0D01*
G01*
X2112000Y-2456000D02*
X2222000Y-2566000D01*
X2222000Y-2456000D02*
X2112000Y-2566000D01*
X2222000Y-2511000D02*
G75*
G02*
X2112000Y-2511000I-55000J0D01*
G01*
X2112000Y-2511000D02*
G75*
G02*
X2222000Y-2511000I55000J0D01*
G01*
X2112000Y-2768000D02*
X2222000Y-2878000D01*
X2222000Y-2768000D02*
X2112000Y-2878000D01*
X2222000Y-2823000D02*
G75*
G02*
X2112000Y-2823000I-55000J0D01*
G01*
X2112000Y-2823000D02*
G75*
G02*
X2222000Y-2823000I55000J0D01*
G01*
X2112000Y-3218000D02*
X2222000Y-3328000D01*
X2222000Y-3218000D02*
X2112000Y-3328000D01*
X2222000Y-3273000D02*
G75*
G02*
X2112000Y-3273000I-55000J0D01*
G01*
X2112000Y-3273000D02*
G75*
G02*
X2222000Y-3273000I55000J0D01*
G01*
X2762000Y-2006000D02*
X2872000Y-2116000D01*
X2872000Y-2006000D02*
X2762000Y-2116000D01*
X2872000Y-2061000D02*
G75*
G02*
X2762000Y-2061000I-55000J0D01*
G01*
X2762000Y-2061000D02*
G75*
G02*
X2872000Y-2061000I55000J0D01*
G01*
X2762000Y-2456000D02*
X2872000Y-2566000D01*
X2872000Y-2456000D02*
X2762000Y-2566000D01*
X2872000Y-2511000D02*
G75*
G02*
X2762000Y-2511000I-55000J0D01*
G01*
X2762000Y-2511000D02*
G75*
G02*
X2872000Y-2511000I55000J0D01*
G01*
X2762000Y-2768000D02*
X2872000Y-2878000D01*
X2872000Y-2768000D02*
X2762000Y-2878000D01*
X2872000Y-2823000D02*
G75*
G02*
X2762000Y-2823000I-55000J0D01*
G01*
X2762000Y-2823000D02*
G75*
G02*
X2872000Y-2823000I55000J0D01*
G01*
X2762000Y-3218000D02*
X2872000Y-3328000D01*
X2872000Y-3218000D02*
X2762000Y-3328000D01*
X2872000Y-3273000D02*
G75*
G02*
X2762000Y-3273000I-55000J0D01*
G01*
X2762000Y-3273000D02*
G75*
G02*
X2872000Y-3273000I55000J0D01*
G01*
X3128000Y-2006000D02*
X3238000Y-2116000D01*
X3238000Y-2006000D02*
X3128000Y-2116000D01*
X3238000Y-2061000D02*
G75*
G02*
X3128000Y-2061000I-55000J0D01*
G01*
X3128000Y-2061000D02*
G75*
G02*
X3238000Y-2061000I55000J0D01*
G01*
X3128000Y-2456000D02*
X3238000Y-2566000D01*
X3238000Y-2456000D02*
X3128000Y-2566000D01*
X3238000Y-2511000D02*
G75*
G02*
X3128000Y-2511000I-55000J0D01*
G01*
X3128000Y-2511000D02*
G75*
G02*
X3238000Y-2511000I55000J0D01*
G01*
X3128000Y-2768000D02*
X3238000Y-2878000D01*
X3238000Y-2768000D02*
X3128000Y-2878000D01*
X3238000Y-2823000D02*
G75*
G02*
X3128000Y-2823000I-55000J0D01*
G01*
X3128000Y-2823000D02*
G75*
G02*
X3238000Y-2823000I55000J0D01*
G01*
X3128000Y-3218000D02*
X3238000Y-3328000D01*
X3238000Y-3218000D02*
X3128000Y-3328000D01*
X3238000Y-3273000D02*
G75*
G02*
X3128000Y-3273000I-55000J0D01*
G01*
X3128000Y-3273000D02*
G75*
G02*
X3238000Y-3273000I55000J0D01*
G01*
X3778000Y-2006000D02*
X3888000Y-2116000D01*
X3888000Y-2006000D02*
X3778000Y-2116000D01*
X3888000Y-2061000D02*
G75*
G02*
X3778000Y-2061000I-55000J0D01*
G01*
X3778000Y-2061000D02*
G75*
G02*
X3888000Y-2061000I55000J0D01*
G01*
X3778000Y-2456000D02*
X3888000Y-2566000D01*
X3888000Y-2456000D02*
X3778000Y-2566000D01*
X3888000Y-2511000D02*
G75*
G02*
X3778000Y-2511000I-55000J0D01*
G01*
X3778000Y-2511000D02*
G75*
G02*
X3888000Y-2511000I55000J0D01*
G01*
X3778000Y-2768000D02*
X3888000Y-2878000D01*
X3888000Y-2768000D02*
X3778000Y-2878000D01*
X3888000Y-2823000D02*
G75*
G02*
X3778000Y-2823000I-55000J0D01*
G01*
X3778000Y-2823000D02*
G75*
G02*
X3888000Y-2823000I55000J0D01*
G01*
X3778000Y-3218000D02*
X3888000Y-3328000D01*
X3888000Y-3218000D02*
X3778000Y-3328000D01*
X3888000Y-3273000D02*
G75*
G02*
X3778000Y-3273000I-55000J0D01*
G01*
X3778000Y-3273000D02*
G75*
G02*
X3888000Y-3273000I55000J0D01*
G01*
D14*
X15190000Y-3390000D02*
X15310000Y-3510000D01*
X15310000Y-3390000D02*
X15190000Y-3510000D01*
X15250000Y-3390000D02*
X15250000Y-3510000D01*
X15190000Y-3450000D02*
X15310000Y-3450000D01*
X15190000Y-3640000D02*
X15310000Y-3760000D01*
X15310000Y-3640000D02*
X15190000Y-3760000D01*
X15250000Y-3640000D02*
X15250000Y-3760000D01*
X15190000Y-3700000D02*
X15310000Y-3700000D01*
X15190000Y-5090000D02*
X15310000Y-5210000D01*
X15310000Y-5090000D02*
X15190000Y-5210000D01*
X15250000Y-5090000D02*
X15250000Y-5210000D01*
X15190000Y-5150000D02*
X15310000Y-5150000D01*
X15440000Y-3390000D02*
X15560000Y-3510000D01*
X15560000Y-3390000D02*
X15440000Y-3510000D01*
X15500000Y-3390000D02*
X15500000Y-3510000D01*
X15440000Y-3450000D02*
X15560000Y-3450000D01*
X15440000Y-5090000D02*
X15560000Y-5210000D01*
X15560000Y-5090000D02*
X15440000Y-5210000D01*
X15500000Y-5090000D02*
X15500000Y-5210000D01*
X15440000Y-5150000D02*
X15560000Y-5150000D01*
X15690000Y-3390000D02*
X15810000Y-3510000D01*
X15810000Y-3390000D02*
X15690000Y-3510000D01*
X15750000Y-3390000D02*
X15750000Y-3510000D01*
X15690000Y-3450000D02*
X15810000Y-3450000D01*
X15690000Y-3640000D02*
X15810000Y-3760000D01*
X15810000Y-3640000D02*
X15690000Y-3760000D01*
X15750000Y-3640000D02*
X15750000Y-3760000D01*
X15690000Y-3700000D02*
X15810000Y-3700000D01*
X15690000Y-5090000D02*
X15810000Y-5210000D01*
X15810000Y-5090000D02*
X15690000Y-5210000D01*
X15750000Y-5090000D02*
X15750000Y-5210000D01*
X15690000Y-5150000D02*
X15810000Y-5150000D01*
D15*
X14800000Y-4250000D02*
X15100000Y-4550000D01*
X15100000Y-4250000D02*
X14800000Y-4550000D01*
X15056067Y-4506067D02*
X15056067Y-4293933D01*
X14843933Y-4293933D01*
X14843933Y-4506067D01*
X15056067Y-4506067D01*
X15900000Y-4250000D02*
X16200000Y-4550000D01*
X16200000Y-4250000D02*
X15900000Y-4550000D01*
X16156067Y-4506067D02*
X16156067Y-4293933D01*
X15943933Y-4293933D01*
X15943933Y-4506067D01*
X16156067Y-4506067D01*
D16*
X7847500Y-3347500D02*
X8152500Y-3652500D01*
X8152500Y-3347500D02*
X7847500Y-3652500D01*
X8000000Y-3652500D02*
X8152500Y-3500000D01*
X8000000Y-3347500D01*
X7847500Y-3500000D01*
X8000000Y-3652500D01*
X10347500Y-3347500D02*
X10652500Y-3652500D01*
X10652500Y-3347500D02*
X10347500Y-3652500D01*
X10500000Y-3652500D02*
X10652500Y-3500000D01*
X10500000Y-3347500D01*
X10347500Y-3500000D01*
X10500000Y-3652500D01*
D11*
X1758277Y-5813984D02*
X1758277Y-5613984D01*
X1758277Y-5613984D02*
X1805896Y-5613984D01*
X1805896Y-5613984D02*
X1834467Y-5623508D01*
X1834467Y-5623508D02*
X1853515Y-5642555D01*
X1853515Y-5642555D02*
X1863039Y-5661603D01*
X1863039Y-5661603D02*
X1872562Y-5699698D01*
X1872562Y-5699698D02*
X1872562Y-5728269D01*
X1872562Y-5728269D02*
X1863039Y-5766365D01*
X1863039Y-5766365D02*
X1853515Y-5785412D01*
X1853515Y-5785412D02*
X1834467Y-5804460D01*
X1834467Y-5804460D02*
X1805896Y-5813984D01*
X1805896Y-5813984D02*
X1758277Y-5813984D01*
X1958277Y-5813984D02*
X1958277Y-5680650D01*
X1958277Y-5718746D02*
X1967801Y-5699698D01*
X1967801Y-5699698D02*
X1977324Y-5690174D01*
X1977324Y-5690174D02*
X1996372Y-5680650D01*
X1996372Y-5680650D02*
X2015420Y-5680650D01*
X2082086Y-5813984D02*
X2082086Y-5680650D01*
X2082086Y-5613984D02*
X2072562Y-5623508D01*
X2072562Y-5623508D02*
X2082086Y-5633031D01*
X2082086Y-5633031D02*
X2091610Y-5623508D01*
X2091610Y-5623508D02*
X2082086Y-5613984D01*
X2082086Y-5613984D02*
X2082086Y-5633031D01*
X2205896Y-5813984D02*
X2186848Y-5804460D01*
X2186848Y-5804460D02*
X2177324Y-5785412D01*
X2177324Y-5785412D02*
X2177324Y-5613984D01*
X2310658Y-5813984D02*
X2291610Y-5804460D01*
X2291610Y-5804460D02*
X2282086Y-5785412D01*
X2282086Y-5785412D02*
X2282086Y-5613984D01*
X2539229Y-5813984D02*
X2539229Y-5613984D01*
X2539229Y-5613984D02*
X2605896Y-5756841D01*
X2605896Y-5756841D02*
X2672563Y-5613984D01*
X2672563Y-5613984D02*
X2672563Y-5813984D01*
X2853515Y-5813984D02*
X2853515Y-5709222D01*
X2853515Y-5709222D02*
X2843991Y-5690174D01*
X2843991Y-5690174D02*
X2824943Y-5680650D01*
X2824943Y-5680650D02*
X2786848Y-5680650D01*
X2786848Y-5680650D02*
X2767801Y-5690174D01*
X2853515Y-5804460D02*
X2834467Y-5813984D01*
X2834467Y-5813984D02*
X2786848Y-5813984D01*
X2786848Y-5813984D02*
X2767801Y-5804460D01*
X2767801Y-5804460D02*
X2758277Y-5785412D01*
X2758277Y-5785412D02*
X2758277Y-5766365D01*
X2758277Y-5766365D02*
X2767801Y-5747317D01*
X2767801Y-5747317D02*
X2786848Y-5737793D01*
X2786848Y-5737793D02*
X2834467Y-5737793D01*
X2834467Y-5737793D02*
X2853515Y-5728269D01*
X2948753Y-5680650D02*
X2948753Y-5880650D01*
X2948753Y-5690174D02*
X2967801Y-5680650D01*
X2967801Y-5680650D02*
X3005896Y-5680650D01*
X3005896Y-5680650D02*
X3024943Y-5690174D01*
X3024943Y-5690174D02*
X3034467Y-5699698D01*
X3034467Y-5699698D02*
X3043991Y-5718746D01*
X3043991Y-5718746D02*
X3043991Y-5775888D01*
X3043991Y-5775888D02*
X3034467Y-5794936D01*
X3034467Y-5794936D02*
X3024943Y-5804460D01*
X3024943Y-5804460D02*
X3005896Y-5813984D01*
X3005896Y-5813984D02*
X2967801Y-5813984D01*
X2967801Y-5813984D02*
X2948753Y-5804460D01*
X3129705Y-5794936D02*
X3139229Y-5804460D01*
X3139229Y-5804460D02*
X3129705Y-5813984D01*
X3129705Y-5813984D02*
X3120182Y-5804460D01*
X3120182Y-5804460D02*
X3129705Y-5794936D01*
X3129705Y-5794936D02*
X3129705Y-5813984D01*
X3129705Y-5690174D02*
X3139229Y-5699698D01*
X3139229Y-5699698D02*
X3129705Y-5709222D01*
X3129705Y-5709222D02*
X3120182Y-5699698D01*
X3120182Y-5699698D02*
X3129705Y-5690174D01*
X3129705Y-5690174D02*
X3129705Y-5709222D01*
D12*
X1467500Y-6127500D02*
X1497500Y-6157500D01*
X1497500Y-6127500D02*
X1467500Y-6157500D01*
D11*
X1796372Y-6033984D02*
X1815420Y-6033984D01*
X1815420Y-6033984D02*
X1834467Y-6043508D01*
X1834467Y-6043508D02*
X1843991Y-6053031D01*
X1843991Y-6053031D02*
X1853515Y-6072079D01*
X1853515Y-6072079D02*
X1863039Y-6110174D01*
X1863039Y-6110174D02*
X1863039Y-6157793D01*
X1863039Y-6157793D02*
X1853515Y-6195888D01*
X1853515Y-6195888D02*
X1843991Y-6214936D01*
X1843991Y-6214936D02*
X1834467Y-6224460D01*
X1834467Y-6224460D02*
X1815420Y-6233984D01*
X1815420Y-6233984D02*
X1796372Y-6233984D01*
X1796372Y-6233984D02*
X1777324Y-6224460D01*
X1777324Y-6224460D02*
X1767801Y-6214936D01*
X1767801Y-6214936D02*
X1758277Y-6195888D01*
X1758277Y-6195888D02*
X1748753Y-6157793D01*
X1748753Y-6157793D02*
X1748753Y-6110174D01*
X1748753Y-6110174D02*
X1758277Y-6072079D01*
X1758277Y-6072079D02*
X1767801Y-6053031D01*
X1767801Y-6053031D02*
X1777324Y-6043508D01*
X1777324Y-6043508D02*
X1796372Y-6033984D01*
X1948753Y-6214936D02*
X1958277Y-6224460D01*
X1958277Y-6224460D02*
X1948753Y-6233984D01*
X1948753Y-6233984D02*
X1939229Y-6224460D01*
X1939229Y-6224460D02*
X1948753Y-6214936D01*
X1948753Y-6214936D02*
X1948753Y-6233984D01*
X2024943Y-6033984D02*
X2148753Y-6033984D01*
X2148753Y-6033984D02*
X2082086Y-6110174D01*
X2082086Y-6110174D02*
X2110658Y-6110174D01*
X2110658Y-6110174D02*
X2129705Y-6119698D01*
X2129705Y-6119698D02*
X2139229Y-6129222D01*
X2139229Y-6129222D02*
X2148753Y-6148269D01*
X2148753Y-6148269D02*
X2148753Y-6195888D01*
X2148753Y-6195888D02*
X2139229Y-6214936D01*
X2139229Y-6214936D02*
X2129705Y-6224460D01*
X2129705Y-6224460D02*
X2110658Y-6233984D01*
X2110658Y-6233984D02*
X2053515Y-6233984D01*
X2053515Y-6233984D02*
X2034467Y-6224460D01*
X2034467Y-6224460D02*
X2024943Y-6214936D01*
X2272563Y-6033984D02*
X2291610Y-6033984D01*
X2291610Y-6033984D02*
X2310658Y-6043508D01*
X2310658Y-6043508D02*
X2320182Y-6053031D01*
X2320182Y-6053031D02*
X2329705Y-6072079D01*
X2329705Y-6072079D02*
X2339229Y-6110174D01*
X2339229Y-6110174D02*
X2339229Y-6157793D01*
X2339229Y-6157793D02*
X2329705Y-6195888D01*
X2329705Y-6195888D02*
X2320182Y-6214936D01*
X2320182Y-6214936D02*
X2310658Y-6224460D01*
X2310658Y-6224460D02*
X2291610Y-6233984D01*
X2291610Y-6233984D02*
X2272563Y-6233984D01*
X2272563Y-6233984D02*
X2253515Y-6224460D01*
X2253515Y-6224460D02*
X2243991Y-6214936D01*
X2243991Y-6214936D02*
X2234467Y-6195888D01*
X2234467Y-6195888D02*
X2224944Y-6157793D01*
X2224944Y-6157793D02*
X2224944Y-6110174D01*
X2224944Y-6110174D02*
X2234467Y-6072079D01*
X2234467Y-6072079D02*
X2243991Y-6053031D01*
X2243991Y-6053031D02*
X2253515Y-6043508D01*
X2253515Y-6043508D02*
X2272563Y-6033984D01*
X2463039Y-6033984D02*
X2482086Y-6033984D01*
X2482086Y-6033984D02*
X2501134Y-6043508D01*
X2501134Y-6043508D02*
X2510658Y-6053031D01*
X2510658Y-6053031D02*
X2520182Y-6072079D01*
X2520182Y-6072079D02*
X2529705Y-6110174D01*
X2529705Y-6110174D02*
X2529705Y-6157793D01*
X2529705Y-6157793D02*
X2520182Y-6195888D01*
X2520182Y-6195888D02*
X2510658Y-6214936D01*
X2510658Y-6214936D02*
X2501134Y-6224460D01*
X2501134Y-6224460D02*
X2482086Y-6233984D01*
X2482086Y-6233984D02*
X2463039Y-6233984D01*
X2463039Y-6233984D02*
X2443991Y-6224460D01*
X2443991Y-6224460D02*
X2434467Y-6214936D01*
X2434467Y-6214936D02*
X2424944Y-6195888D01*
X2424944Y-6195888D02*
X2415420Y-6157793D01*
X2415420Y-6157793D02*
X2415420Y-6110174D01*
X2415420Y-6110174D02*
X2424944Y-6072079D01*
X2424944Y-6072079D02*
X2434467Y-6053031D01*
X2434467Y-6053031D02*
X2443991Y-6043508D01*
X2443991Y-6043508D02*
X2463039Y-6033984D01*
X2615420Y-6233984D02*
X2615420Y-6100650D01*
X2615420Y-6119698D02*
X2624944Y-6110174D01*
X2624944Y-6110174D02*
X2643991Y-6100650D01*
X2643991Y-6100650D02*
X2672563Y-6100650D01*
X2672563Y-6100650D02*
X2691610Y-6110174D01*
X2691610Y-6110174D02*
X2701134Y-6129222D01*
X2701134Y-6129222D02*
X2701134Y-6233984D01*
X2701134Y-6129222D02*
X2710658Y-6110174D01*
X2710658Y-6110174D02*
X2729705Y-6100650D01*
X2729705Y-6100650D02*
X2758277Y-6100650D01*
X2758277Y-6100650D02*
X2777325Y-6110174D01*
X2777325Y-6110174D02*
X2786848Y-6129222D01*
X2786848Y-6129222D02*
X2786848Y-6233984D01*
X2882086Y-6233984D02*
X2882086Y-6100650D01*
X2882086Y-6119698D02*
X2891610Y-6110174D01*
X2891610Y-6110174D02*
X2910658Y-6100650D01*
X2910658Y-6100650D02*
X2939229Y-6100650D01*
X2939229Y-6100650D02*
X2958277Y-6110174D01*
X2958277Y-6110174D02*
X2967801Y-6129222D01*
X2967801Y-6129222D02*
X2967801Y-6233984D01*
X2967801Y-6129222D02*
X2977324Y-6110174D01*
X2977324Y-6110174D02*
X2996372Y-6100650D01*
X2996372Y-6100650D02*
X3024943Y-6100650D01*
X3024943Y-6100650D02*
X3043991Y-6110174D01*
X3043991Y-6110174D02*
X3053515Y-6129222D01*
X3053515Y-6129222D02*
X3053515Y-6233984D01*
X3443991Y-6024460D02*
X3272563Y-6281603D01*
X3701134Y-6033984D02*
X3720182Y-6033984D01*
X3720182Y-6033984D02*
X3739229Y-6043508D01*
X3739229Y-6043508D02*
X3748753Y-6053031D01*
X3748753Y-6053031D02*
X3758277Y-6072079D01*
X3758277Y-6072079D02*
X3767801Y-6110174D01*
X3767801Y-6110174D02*
X3767801Y-6157793D01*
X3767801Y-6157793D02*
X3758277Y-6195888D01*
X3758277Y-6195888D02*
X3748753Y-6214936D01*
X3748753Y-6214936D02*
X3739229Y-6224460D01*
X3739229Y-6224460D02*
X3720182Y-6233984D01*
X3720182Y-6233984D02*
X3701134Y-6233984D01*
X3701134Y-6233984D02*
X3682086Y-6224460D01*
X3682086Y-6224460D02*
X3672563Y-6214936D01*
X3672563Y-6214936D02*
X3663039Y-6195888D01*
X3663039Y-6195888D02*
X3653515Y-6157793D01*
X3653515Y-6157793D02*
X3653515Y-6110174D01*
X3653515Y-6110174D02*
X3663039Y-6072079D01*
X3663039Y-6072079D02*
X3672563Y-6053031D01*
X3672563Y-6053031D02*
X3682086Y-6043508D01*
X3682086Y-6043508D02*
X3701134Y-6033984D01*
X3853515Y-6214936D02*
X3863039Y-6224460D01*
X3863039Y-6224460D02*
X3853515Y-6233984D01*
X3853515Y-6233984D02*
X3843991Y-6224460D01*
X3843991Y-6224460D02*
X3853515Y-6214936D01*
X3853515Y-6214936D02*
X3853515Y-6233984D01*
X3986848Y-6033984D02*
X4005896Y-6033984D01*
X4005896Y-6033984D02*
X4024944Y-6043508D01*
X4024944Y-6043508D02*
X4034467Y-6053031D01*
X4034467Y-6053031D02*
X4043991Y-6072079D01*
X4043991Y-6072079D02*
X4053515Y-6110174D01*
X4053515Y-6110174D02*
X4053515Y-6157793D01*
X4053515Y-6157793D02*
X4043991Y-6195888D01*
X4043991Y-6195888D02*
X4034467Y-6214936D01*
X4034467Y-6214936D02*
X4024944Y-6224460D01*
X4024944Y-6224460D02*
X4005896Y-6233984D01*
X4005896Y-6233984D02*
X3986848Y-6233984D01*
X3986848Y-6233984D02*
X3967801Y-6224460D01*
X3967801Y-6224460D02*
X3958277Y-6214936D01*
X3958277Y-6214936D02*
X3948753Y-6195888D01*
X3948753Y-6195888D02*
X3939229Y-6157793D01*
X3939229Y-6157793D02*
X3939229Y-6110174D01*
X3939229Y-6110174D02*
X3948753Y-6072079D01*
X3948753Y-6072079D02*
X3958277Y-6053031D01*
X3958277Y-6053031D02*
X3967801Y-6043508D01*
X3967801Y-6043508D02*
X3986848Y-6033984D01*
X4243991Y-6233984D02*
X4129706Y-6233984D01*
X4186848Y-6233984D02*
X4186848Y-6033984D01*
X4186848Y-6033984D02*
X4167801Y-6062555D01*
X4167801Y-6062555D02*
X4148753Y-6081603D01*
X4148753Y-6081603D02*
X4129706Y-6091127D01*
X4434468Y-6233984D02*
X4320182Y-6233984D01*
X4377325Y-6233984D02*
X4377325Y-6033984D01*
X4377325Y-6033984D02*
X4358277Y-6062555D01*
X4358277Y-6062555D02*
X4339229Y-6081603D01*
X4339229Y-6081603D02*
X4320182Y-6091127D01*
X4548753Y-6119698D02*
X4529706Y-6110174D01*
X4529706Y-6110174D02*
X4520182Y-6100650D01*
X4520182Y-6100650D02*
X4510658Y-6081603D01*
X4510658Y-6081603D02*
X4510658Y-6072079D01*
X4510658Y-6072079D02*
X4520182Y-6053031D01*
X4520182Y-6053031D02*
X4529706Y-6043508D01*
X4529706Y-6043508D02*
X4548753Y-6033984D01*
X4548753Y-6033984D02*
X4586849Y-6033984D01*
X4586849Y-6033984D02*
X4605896Y-6043508D01*
X4605896Y-6043508D02*
X4615420Y-6053031D01*
X4615420Y-6053031D02*
X4624944Y-6072079D01*
X4624944Y-6072079D02*
X4624944Y-6081603D01*
X4624944Y-6081603D02*
X4615420Y-6100650D01*
X4615420Y-6100650D02*
X4605896Y-6110174D01*
X4605896Y-6110174D02*
X4586849Y-6119698D01*
X4586849Y-6119698D02*
X4548753Y-6119698D01*
X4548753Y-6119698D02*
X4529706Y-6129222D01*
X4529706Y-6129222D02*
X4520182Y-6138746D01*
X4520182Y-6138746D02*
X4510658Y-6157793D01*
X4510658Y-6157793D02*
X4510658Y-6195888D01*
X4510658Y-6195888D02*
X4520182Y-6214936D01*
X4520182Y-6214936D02*
X4529706Y-6224460D01*
X4529706Y-6224460D02*
X4548753Y-6233984D01*
X4548753Y-6233984D02*
X4586849Y-6233984D01*
X4586849Y-6233984D02*
X4605896Y-6224460D01*
X4605896Y-6224460D02*
X4615420Y-6214936D01*
X4615420Y-6214936D02*
X4624944Y-6195888D01*
X4624944Y-6195888D02*
X4624944Y-6157793D01*
X4624944Y-6157793D02*
X4615420Y-6138746D01*
X4615420Y-6138746D02*
X4605896Y-6129222D01*
X4605896Y-6129222D02*
X4586849Y-6119698D01*
X4701134Y-6033984D02*
X4701134Y-6072079D01*
X4777325Y-6033984D02*
X4777325Y-6072079D01*
X5072563Y-6310174D02*
X5063039Y-6300650D01*
X5063039Y-6300650D02*
X5043991Y-6272079D01*
X5043991Y-6272079D02*
X5034468Y-6253031D01*
X5034468Y-6253031D02*
X5024944Y-6224460D01*
X5024944Y-6224460D02*
X5015420Y-6176841D01*
X5015420Y-6176841D02*
X5015420Y-6138746D01*
X5015420Y-6138746D02*
X5024944Y-6091127D01*
X5024944Y-6091127D02*
X5034468Y-6062555D01*
X5034468Y-6062555D02*
X5043991Y-6043508D01*
X5043991Y-6043508D02*
X5063039Y-6014936D01*
X5063039Y-6014936D02*
X5072563Y-6005412D01*
X5253515Y-6233984D02*
X5139230Y-6233984D01*
X5196372Y-6233984D02*
X5196372Y-6033984D01*
X5196372Y-6033984D02*
X5177325Y-6062555D01*
X5177325Y-6062555D02*
X5158277Y-6081603D01*
X5158277Y-6081603D02*
X5139230Y-6091127D01*
X5443991Y-6233984D02*
X5329706Y-6233984D01*
X5386849Y-6233984D02*
X5386849Y-6033984D01*
X5386849Y-6033984D02*
X5367801Y-6062555D01*
X5367801Y-6062555D02*
X5348753Y-6081603D01*
X5348753Y-6081603D02*
X5329706Y-6091127D01*
X5682087Y-6233984D02*
X5682087Y-6033984D01*
X5767801Y-6233984D02*
X5767801Y-6129222D01*
X5767801Y-6129222D02*
X5758277Y-6110174D01*
X5758277Y-6110174D02*
X5739230Y-6100650D01*
X5739230Y-6100650D02*
X5710658Y-6100650D01*
X5710658Y-6100650D02*
X5691610Y-6110174D01*
X5691610Y-6110174D02*
X5682087Y-6119698D01*
X5891610Y-6233984D02*
X5872563Y-6224460D01*
X5872563Y-6224460D02*
X5863039Y-6214936D01*
X5863039Y-6214936D02*
X5853515Y-6195888D01*
X5853515Y-6195888D02*
X5853515Y-6138746D01*
X5853515Y-6138746D02*
X5863039Y-6119698D01*
X5863039Y-6119698D02*
X5872563Y-6110174D01*
X5872563Y-6110174D02*
X5891610Y-6100650D01*
X5891610Y-6100650D02*
X5920182Y-6100650D01*
X5920182Y-6100650D02*
X5939230Y-6110174D01*
X5939230Y-6110174D02*
X5948753Y-6119698D01*
X5948753Y-6119698D02*
X5958277Y-6138746D01*
X5958277Y-6138746D02*
X5958277Y-6195888D01*
X5958277Y-6195888D02*
X5948753Y-6214936D01*
X5948753Y-6214936D02*
X5939230Y-6224460D01*
X5939230Y-6224460D02*
X5920182Y-6233984D01*
X5920182Y-6233984D02*
X5891610Y-6233984D01*
X6072563Y-6233984D02*
X6053515Y-6224460D01*
X6053515Y-6224460D02*
X6043991Y-6205412D01*
X6043991Y-6205412D02*
X6043991Y-6033984D01*
X6224944Y-6224460D02*
X6205896Y-6233984D01*
X6205896Y-6233984D02*
X6167801Y-6233984D01*
X6167801Y-6233984D02*
X6148753Y-6224460D01*
X6148753Y-6224460D02*
X6139230Y-6205412D01*
X6139230Y-6205412D02*
X6139230Y-6129222D01*
X6139230Y-6129222D02*
X6148753Y-6110174D01*
X6148753Y-6110174D02*
X6167801Y-6100650D01*
X6167801Y-6100650D02*
X6205896Y-6100650D01*
X6205896Y-6100650D02*
X6224944Y-6110174D01*
X6224944Y-6110174D02*
X6234468Y-6129222D01*
X6234468Y-6129222D02*
X6234468Y-6148269D01*
X6234468Y-6148269D02*
X6139230Y-6167317D01*
X6310658Y-6224460D02*
X6329706Y-6233984D01*
X6329706Y-6233984D02*
X6367801Y-6233984D01*
X6367801Y-6233984D02*
X6386849Y-6224460D01*
X6386849Y-6224460D02*
X6396372Y-6205412D01*
X6396372Y-6205412D02*
X6396372Y-6195888D01*
X6396372Y-6195888D02*
X6386849Y-6176841D01*
X6386849Y-6176841D02*
X6367801Y-6167317D01*
X6367801Y-6167317D02*
X6339230Y-6167317D01*
X6339230Y-6167317D02*
X6320182Y-6157793D01*
X6320182Y-6157793D02*
X6310658Y-6138746D01*
X6310658Y-6138746D02*
X6310658Y-6129222D01*
X6310658Y-6129222D02*
X6320182Y-6110174D01*
X6320182Y-6110174D02*
X6339230Y-6100650D01*
X6339230Y-6100650D02*
X6367801Y-6100650D01*
X6367801Y-6100650D02*
X6386849Y-6110174D01*
X6463039Y-6310174D02*
X6472563Y-6300650D01*
X6472563Y-6300650D02*
X6491611Y-6272079D01*
X6491611Y-6272079D02*
X6501134Y-6253031D01*
X6501134Y-6253031D02*
X6510658Y-6224460D01*
X6510658Y-6224460D02*
X6520182Y-6176841D01*
X6520182Y-6176841D02*
X6520182Y-6138746D01*
X6520182Y-6138746D02*
X6510658Y-6091127D01*
X6510658Y-6091127D02*
X6501134Y-6062555D01*
X6501134Y-6062555D02*
X6491611Y-6043508D01*
X6491611Y-6043508D02*
X6472563Y-6014936D01*
X6472563Y-6014936D02*
X6463039Y-6005412D01*
D12*
X1497500Y-6406500D02*
G75*
G02*
X1437500Y-6406500I-30000J0D01*
G01*
X1437500Y-6406500D02*
G75*
G02*
X1497500Y-6406500I30000J0D01*
G01*
D11*
X1796372Y-6297984D02*
X1815420Y-6297984D01*
X1815420Y-6297984D02*
X1834467Y-6307508D01*
X1834467Y-6307508D02*
X1843991Y-6317031D01*
X1843991Y-6317031D02*
X1853515Y-6336079D01*
X1853515Y-6336079D02*
X1863039Y-6374174D01*
X1863039Y-6374174D02*
X1863039Y-6421793D01*
X1863039Y-6421793D02*
X1853515Y-6459888D01*
X1853515Y-6459888D02*
X1843991Y-6478936D01*
X1843991Y-6478936D02*
X1834467Y-6488460D01*
X1834467Y-6488460D02*
X1815420Y-6497984D01*
X1815420Y-6497984D02*
X1796372Y-6497984D01*
X1796372Y-6497984D02*
X1777324Y-6488460D01*
X1777324Y-6488460D02*
X1767801Y-6478936D01*
X1767801Y-6478936D02*
X1758277Y-6459888D01*
X1758277Y-6459888D02*
X1748753Y-6421793D01*
X1748753Y-6421793D02*
X1748753Y-6374174D01*
X1748753Y-6374174D02*
X1758277Y-6336079D01*
X1758277Y-6336079D02*
X1767801Y-6317031D01*
X1767801Y-6317031D02*
X1777324Y-6307508D01*
X1777324Y-6307508D02*
X1796372Y-6297984D01*
X1948753Y-6478936D02*
X1958277Y-6488460D01*
X1958277Y-6488460D02*
X1948753Y-6497984D01*
X1948753Y-6497984D02*
X1939229Y-6488460D01*
X1939229Y-6488460D02*
X1948753Y-6478936D01*
X1948753Y-6478936D02*
X1948753Y-6497984D01*
X2129705Y-6297984D02*
X2091610Y-6297984D01*
X2091610Y-6297984D02*
X2072562Y-6307508D01*
X2072562Y-6307508D02*
X2063039Y-6317031D01*
X2063039Y-6317031D02*
X2043991Y-6345603D01*
X2043991Y-6345603D02*
X2034467Y-6383698D01*
X2034467Y-6383698D02*
X2034467Y-6459888D01*
X2034467Y-6459888D02*
X2043991Y-6478936D01*
X2043991Y-6478936D02*
X2053515Y-6488460D01*
X2053515Y-6488460D02*
X2072562Y-6497984D01*
X2072562Y-6497984D02*
X2110658Y-6497984D01*
X2110658Y-6497984D02*
X2129705Y-6488460D01*
X2129705Y-6488460D02*
X2139229Y-6478936D01*
X2139229Y-6478936D02*
X2148753Y-6459888D01*
X2148753Y-6459888D02*
X2148753Y-6412269D01*
X2148753Y-6412269D02*
X2139229Y-6393222D01*
X2139229Y-6393222D02*
X2129705Y-6383698D01*
X2129705Y-6383698D02*
X2110658Y-6374174D01*
X2110658Y-6374174D02*
X2072562Y-6374174D01*
X2072562Y-6374174D02*
X2053515Y-6383698D01*
X2053515Y-6383698D02*
X2043991Y-6393222D01*
X2043991Y-6393222D02*
X2034467Y-6412269D01*
X2272563Y-6297984D02*
X2291610Y-6297984D01*
X2291610Y-6297984D02*
X2310658Y-6307508D01*
X2310658Y-6307508D02*
X2320182Y-6317031D01*
X2320182Y-6317031D02*
X2329705Y-6336079D01*
X2329705Y-6336079D02*
X2339229Y-6374174D01*
X2339229Y-6374174D02*
X2339229Y-6421793D01*
X2339229Y-6421793D02*
X2329705Y-6459888D01*
X2329705Y-6459888D02*
X2320182Y-6478936D01*
X2320182Y-6478936D02*
X2310658Y-6488460D01*
X2310658Y-6488460D02*
X2291610Y-6497984D01*
X2291610Y-6497984D02*
X2272563Y-6497984D01*
X2272563Y-6497984D02*
X2253515Y-6488460D01*
X2253515Y-6488460D02*
X2243991Y-6478936D01*
X2243991Y-6478936D02*
X2234467Y-6459888D01*
X2234467Y-6459888D02*
X2224944Y-6421793D01*
X2224944Y-6421793D02*
X2224944Y-6374174D01*
X2224944Y-6374174D02*
X2234467Y-6336079D01*
X2234467Y-6336079D02*
X2243991Y-6317031D01*
X2243991Y-6317031D02*
X2253515Y-6307508D01*
X2253515Y-6307508D02*
X2272563Y-6297984D01*
X2463039Y-6297984D02*
X2482086Y-6297984D01*
X2482086Y-6297984D02*
X2501134Y-6307508D01*
X2501134Y-6307508D02*
X2510658Y-6317031D01*
X2510658Y-6317031D02*
X2520182Y-6336079D01*
X2520182Y-6336079D02*
X2529705Y-6374174D01*
X2529705Y-6374174D02*
X2529705Y-6421793D01*
X2529705Y-6421793D02*
X2520182Y-6459888D01*
X2520182Y-6459888D02*
X2510658Y-6478936D01*
X2510658Y-6478936D02*
X2501134Y-6488460D01*
X2501134Y-6488460D02*
X2482086Y-6497984D01*
X2482086Y-6497984D02*
X2463039Y-6497984D01*
X2463039Y-6497984D02*
X2443991Y-6488460D01*
X2443991Y-6488460D02*
X2434467Y-6478936D01*
X2434467Y-6478936D02*
X2424944Y-6459888D01*
X2424944Y-6459888D02*
X2415420Y-6421793D01*
X2415420Y-6421793D02*
X2415420Y-6374174D01*
X2415420Y-6374174D02*
X2424944Y-6336079D01*
X2424944Y-6336079D02*
X2434467Y-6317031D01*
X2434467Y-6317031D02*
X2443991Y-6307508D01*
X2443991Y-6307508D02*
X2463039Y-6297984D01*
X2615420Y-6497984D02*
X2615420Y-6364650D01*
X2615420Y-6383698D02*
X2624944Y-6374174D01*
X2624944Y-6374174D02*
X2643991Y-6364650D01*
X2643991Y-6364650D02*
X2672563Y-6364650D01*
X2672563Y-6364650D02*
X2691610Y-6374174D01*
X2691610Y-6374174D02*
X2701134Y-6393222D01*
X2701134Y-6393222D02*
X2701134Y-6497984D01*
X2701134Y-6393222D02*
X2710658Y-6374174D01*
X2710658Y-6374174D02*
X2729705Y-6364650D01*
X2729705Y-6364650D02*
X2758277Y-6364650D01*
X2758277Y-6364650D02*
X2777325Y-6374174D01*
X2777325Y-6374174D02*
X2786848Y-6393222D01*
X2786848Y-6393222D02*
X2786848Y-6497984D01*
X2882086Y-6497984D02*
X2882086Y-6364650D01*
X2882086Y-6383698D02*
X2891610Y-6374174D01*
X2891610Y-6374174D02*
X2910658Y-6364650D01*
X2910658Y-6364650D02*
X2939229Y-6364650D01*
X2939229Y-6364650D02*
X2958277Y-6374174D01*
X2958277Y-6374174D02*
X2967801Y-6393222D01*
X2967801Y-6393222D02*
X2967801Y-6497984D01*
X2967801Y-6393222D02*
X2977324Y-6374174D01*
X2977324Y-6374174D02*
X2996372Y-6364650D01*
X2996372Y-6364650D02*
X3024943Y-6364650D01*
X3024943Y-6364650D02*
X3043991Y-6374174D01*
X3043991Y-6374174D02*
X3053515Y-6393222D01*
X3053515Y-6393222D02*
X3053515Y-6497984D01*
X3443991Y-6288460D02*
X3272563Y-6545603D01*
X3701134Y-6297984D02*
X3720182Y-6297984D01*
X3720182Y-6297984D02*
X3739229Y-6307508D01*
X3739229Y-6307508D02*
X3748753Y-6317031D01*
X3748753Y-6317031D02*
X3758277Y-6336079D01*
X3758277Y-6336079D02*
X3767801Y-6374174D01*
X3767801Y-6374174D02*
X3767801Y-6421793D01*
X3767801Y-6421793D02*
X3758277Y-6459888D01*
X3758277Y-6459888D02*
X3748753Y-6478936D01*
X3748753Y-6478936D02*
X3739229Y-6488460D01*
X3739229Y-6488460D02*
X3720182Y-6497984D01*
X3720182Y-6497984D02*
X3701134Y-6497984D01*
X3701134Y-6497984D02*
X3682086Y-6488460D01*
X3682086Y-6488460D02*
X3672563Y-6478936D01*
X3672563Y-6478936D02*
X3663039Y-6459888D01*
X3663039Y-6459888D02*
X3653515Y-6421793D01*
X3653515Y-6421793D02*
X3653515Y-6374174D01*
X3653515Y-6374174D02*
X3663039Y-6336079D01*
X3663039Y-6336079D02*
X3672563Y-6317031D01*
X3672563Y-6317031D02*
X3682086Y-6307508D01*
X3682086Y-6307508D02*
X3701134Y-6297984D01*
X3853515Y-6478936D02*
X3863039Y-6488460D01*
X3863039Y-6488460D02*
X3853515Y-6497984D01*
X3853515Y-6497984D02*
X3843991Y-6488460D01*
X3843991Y-6488460D02*
X3853515Y-6478936D01*
X3853515Y-6478936D02*
X3853515Y-6497984D01*
X3986848Y-6297984D02*
X4005896Y-6297984D01*
X4005896Y-6297984D02*
X4024944Y-6307508D01*
X4024944Y-6307508D02*
X4034467Y-6317031D01*
X4034467Y-6317031D02*
X4043991Y-6336079D01*
X4043991Y-6336079D02*
X4053515Y-6374174D01*
X4053515Y-6374174D02*
X4053515Y-6421793D01*
X4053515Y-6421793D02*
X4043991Y-6459888D01*
X4043991Y-6459888D02*
X4034467Y-6478936D01*
X4034467Y-6478936D02*
X4024944Y-6488460D01*
X4024944Y-6488460D02*
X4005896Y-6497984D01*
X4005896Y-6497984D02*
X3986848Y-6497984D01*
X3986848Y-6497984D02*
X3967801Y-6488460D01*
X3967801Y-6488460D02*
X3958277Y-6478936D01*
X3958277Y-6478936D02*
X3948753Y-6459888D01*
X3948753Y-6459888D02*
X3939229Y-6421793D01*
X3939229Y-6421793D02*
X3939229Y-6374174D01*
X3939229Y-6374174D02*
X3948753Y-6336079D01*
X3948753Y-6336079D02*
X3958277Y-6317031D01*
X3958277Y-6317031D02*
X3967801Y-6307508D01*
X3967801Y-6307508D02*
X3986848Y-6297984D01*
X4129706Y-6317031D02*
X4139229Y-6307508D01*
X4139229Y-6307508D02*
X4158277Y-6297984D01*
X4158277Y-6297984D02*
X4205896Y-6297984D01*
X4205896Y-6297984D02*
X4224944Y-6307508D01*
X4224944Y-6307508D02*
X4234468Y-6317031D01*
X4234468Y-6317031D02*
X4243991Y-6336079D01*
X4243991Y-6336079D02*
X4243991Y-6355127D01*
X4243991Y-6355127D02*
X4234468Y-6383698D01*
X4234468Y-6383698D02*
X4120182Y-6497984D01*
X4120182Y-6497984D02*
X4243991Y-6497984D01*
X4310658Y-6297984D02*
X4434468Y-6297984D01*
X4434468Y-6297984D02*
X4367801Y-6374174D01*
X4367801Y-6374174D02*
X4396372Y-6374174D01*
X4396372Y-6374174D02*
X4415420Y-6383698D01*
X4415420Y-6383698D02*
X4424944Y-6393222D01*
X4424944Y-6393222D02*
X4434468Y-6412269D01*
X4434468Y-6412269D02*
X4434468Y-6459888D01*
X4434468Y-6459888D02*
X4424944Y-6478936D01*
X4424944Y-6478936D02*
X4415420Y-6488460D01*
X4415420Y-6488460D02*
X4396372Y-6497984D01*
X4396372Y-6497984D02*
X4339229Y-6497984D01*
X4339229Y-6497984D02*
X4320182Y-6488460D01*
X4320182Y-6488460D02*
X4310658Y-6478936D01*
X4605896Y-6297984D02*
X4567801Y-6297984D01*
X4567801Y-6297984D02*
X4548753Y-6307508D01*
X4548753Y-6307508D02*
X4539229Y-6317031D01*
X4539229Y-6317031D02*
X4520182Y-6345603D01*
X4520182Y-6345603D02*
X4510658Y-6383698D01*
X4510658Y-6383698D02*
X4510658Y-6459888D01*
X4510658Y-6459888D02*
X4520182Y-6478936D01*
X4520182Y-6478936D02*
X4529706Y-6488460D01*
X4529706Y-6488460D02*
X4548753Y-6497984D01*
X4548753Y-6497984D02*
X4586849Y-6497984D01*
X4586849Y-6497984D02*
X4605896Y-6488460D01*
X4605896Y-6488460D02*
X4615420Y-6478936D01*
X4615420Y-6478936D02*
X4624944Y-6459888D01*
X4624944Y-6459888D02*
X4624944Y-6412269D01*
X4624944Y-6412269D02*
X4615420Y-6393222D01*
X4615420Y-6393222D02*
X4605896Y-6383698D01*
X4605896Y-6383698D02*
X4586849Y-6374174D01*
X4586849Y-6374174D02*
X4548753Y-6374174D01*
X4548753Y-6374174D02*
X4529706Y-6383698D01*
X4529706Y-6383698D02*
X4520182Y-6393222D01*
X4520182Y-6393222D02*
X4510658Y-6412269D01*
X4701134Y-6297984D02*
X4701134Y-6336079D01*
X4777325Y-6297984D02*
X4777325Y-6336079D01*
X5072563Y-6574174D02*
X5063039Y-6564650D01*
X5063039Y-6564650D02*
X5043991Y-6536079D01*
X5043991Y-6536079D02*
X5034468Y-6517031D01*
X5034468Y-6517031D02*
X5024944Y-6488460D01*
X5024944Y-6488460D02*
X5015420Y-6440841D01*
X5015420Y-6440841D02*
X5015420Y-6402746D01*
X5015420Y-6402746D02*
X5024944Y-6355127D01*
X5024944Y-6355127D02*
X5034468Y-6326555D01*
X5034468Y-6326555D02*
X5043991Y-6307508D01*
X5043991Y-6307508D02*
X5063039Y-6278936D01*
X5063039Y-6278936D02*
X5072563Y-6269412D01*
X5243991Y-6297984D02*
X5148753Y-6297984D01*
X5148753Y-6297984D02*
X5139230Y-6393222D01*
X5139230Y-6393222D02*
X5148753Y-6383698D01*
X5148753Y-6383698D02*
X5167801Y-6374174D01*
X5167801Y-6374174D02*
X5215420Y-6374174D01*
X5215420Y-6374174D02*
X5234468Y-6383698D01*
X5234468Y-6383698D02*
X5243991Y-6393222D01*
X5243991Y-6393222D02*
X5253515Y-6412269D01*
X5253515Y-6412269D02*
X5253515Y-6459888D01*
X5253515Y-6459888D02*
X5243991Y-6478936D01*
X5243991Y-6478936D02*
X5234468Y-6488460D01*
X5234468Y-6488460D02*
X5215420Y-6497984D01*
X5215420Y-6497984D02*
X5167801Y-6497984D01*
X5167801Y-6497984D02*
X5148753Y-6488460D01*
X5148753Y-6488460D02*
X5139230Y-6478936D01*
X5491611Y-6497984D02*
X5491611Y-6297984D01*
X5577325Y-6497984D02*
X5577325Y-6393222D01*
X5577325Y-6393222D02*
X5567801Y-6374174D01*
X5567801Y-6374174D02*
X5548753Y-6364650D01*
X5548753Y-6364650D02*
X5520182Y-6364650D01*
X5520182Y-6364650D02*
X5501134Y-6374174D01*
X5501134Y-6374174D02*
X5491611Y-6383698D01*
X5701134Y-6497984D02*
X5682087Y-6488460D01*
X5682087Y-6488460D02*
X5672563Y-6478936D01*
X5672563Y-6478936D02*
X5663039Y-6459888D01*
X5663039Y-6459888D02*
X5663039Y-6402746D01*
X5663039Y-6402746D02*
X5672563Y-6383698D01*
X5672563Y-6383698D02*
X5682087Y-6374174D01*
X5682087Y-6374174D02*
X5701134Y-6364650D01*
X5701134Y-6364650D02*
X5729706Y-6364650D01*
X5729706Y-6364650D02*
X5748753Y-6374174D01*
X5748753Y-6374174D02*
X5758277Y-6383698D01*
X5758277Y-6383698D02*
X5767801Y-6402746D01*
X5767801Y-6402746D02*
X5767801Y-6459888D01*
X5767801Y-6459888D02*
X5758277Y-6478936D01*
X5758277Y-6478936D02*
X5748753Y-6488460D01*
X5748753Y-6488460D02*
X5729706Y-6497984D01*
X5729706Y-6497984D02*
X5701134Y-6497984D01*
X5882087Y-6497984D02*
X5863039Y-6488460D01*
X5863039Y-6488460D02*
X5853515Y-6469412D01*
X5853515Y-6469412D02*
X5853515Y-6297984D01*
X6034468Y-6488460D02*
X6015420Y-6497984D01*
X6015420Y-6497984D02*
X5977325Y-6497984D01*
X5977325Y-6497984D02*
X5958277Y-6488460D01*
X5958277Y-6488460D02*
X5948753Y-6469412D01*
X5948753Y-6469412D02*
X5948753Y-6393222D01*
X5948753Y-6393222D02*
X5958277Y-6374174D01*
X5958277Y-6374174D02*
X5977325Y-6364650D01*
X5977325Y-6364650D02*
X6015420Y-6364650D01*
X6015420Y-6364650D02*
X6034468Y-6374174D01*
X6034468Y-6374174D02*
X6043991Y-6393222D01*
X6043991Y-6393222D02*
X6043991Y-6412269D01*
X6043991Y-6412269D02*
X5948753Y-6431317D01*
X6120182Y-6488460D02*
X6139230Y-6497984D01*
X6139230Y-6497984D02*
X6177325Y-6497984D01*
X6177325Y-6497984D02*
X6196372Y-6488460D01*
X6196372Y-6488460D02*
X6205896Y-6469412D01*
X6205896Y-6469412D02*
X6205896Y-6459888D01*
X6205896Y-6459888D02*
X6196372Y-6440841D01*
X6196372Y-6440841D02*
X6177325Y-6431317D01*
X6177325Y-6431317D02*
X6148753Y-6431317D01*
X6148753Y-6431317D02*
X6129706Y-6421793D01*
X6129706Y-6421793D02*
X6120182Y-6402746D01*
X6120182Y-6402746D02*
X6120182Y-6393222D01*
X6120182Y-6393222D02*
X6129706Y-6374174D01*
X6129706Y-6374174D02*
X6148753Y-6364650D01*
X6148753Y-6364650D02*
X6177325Y-6364650D01*
X6177325Y-6364650D02*
X6196372Y-6374174D01*
X6272563Y-6574174D02*
X6282087Y-6564650D01*
X6282087Y-6564650D02*
X6301134Y-6536079D01*
X6301134Y-6536079D02*
X6310658Y-6517031D01*
X6310658Y-6517031D02*
X6320182Y-6488460D01*
X6320182Y-6488460D02*
X6329706Y-6440841D01*
X6329706Y-6440841D02*
X6329706Y-6402746D01*
X6329706Y-6402746D02*
X6320182Y-6355127D01*
X6320182Y-6355127D02*
X6310658Y-6326555D01*
X6310658Y-6326555D02*
X6301134Y-6307508D01*
X6301134Y-6307508D02*
X6282087Y-6278936D01*
X6282087Y-6278936D02*
X6272563Y-6269412D01*
D12*
X1457500Y-6630500D02*
X1457500Y-6710500D01*
X1417500Y-6670500D02*
X1497500Y-6670500D01*
D11*
X1796372Y-6561984D02*
X1815420Y-6561984D01*
X1815420Y-6561984D02*
X1834467Y-6571508D01*
X1834467Y-6571508D02*
X1843991Y-6581031D01*
X1843991Y-6581031D02*
X1853515Y-6600079D01*
X1853515Y-6600079D02*
X1863039Y-6638174D01*
X1863039Y-6638174D02*
X1863039Y-6685793D01*
X1863039Y-6685793D02*
X1853515Y-6723888D01*
X1853515Y-6723888D02*
X1843991Y-6742936D01*
X1843991Y-6742936D02*
X1834467Y-6752460D01*
X1834467Y-6752460D02*
X1815420Y-6761984D01*
X1815420Y-6761984D02*
X1796372Y-6761984D01*
X1796372Y-6761984D02*
X1777324Y-6752460D01*
X1777324Y-6752460D02*
X1767801Y-6742936D01*
X1767801Y-6742936D02*
X1758277Y-6723888D01*
X1758277Y-6723888D02*
X1748753Y-6685793D01*
X1748753Y-6685793D02*
X1748753Y-6638174D01*
X1748753Y-6638174D02*
X1758277Y-6600079D01*
X1758277Y-6600079D02*
X1767801Y-6581031D01*
X1767801Y-6581031D02*
X1777324Y-6571508D01*
X1777324Y-6571508D02*
X1796372Y-6561984D01*
X1948753Y-6742936D02*
X1958277Y-6752460D01*
X1958277Y-6752460D02*
X1948753Y-6761984D01*
X1948753Y-6761984D02*
X1939229Y-6752460D01*
X1939229Y-6752460D02*
X1948753Y-6742936D01*
X1948753Y-6742936D02*
X1948753Y-6761984D01*
X2072562Y-6647698D02*
X2053515Y-6638174D01*
X2053515Y-6638174D02*
X2043991Y-6628650D01*
X2043991Y-6628650D02*
X2034467Y-6609603D01*
X2034467Y-6609603D02*
X2034467Y-6600079D01*
X2034467Y-6600079D02*
X2043991Y-6581031D01*
X2043991Y-6581031D02*
X2053515Y-6571508D01*
X2053515Y-6571508D02*
X2072562Y-6561984D01*
X2072562Y-6561984D02*
X2110658Y-6561984D01*
X2110658Y-6561984D02*
X2129705Y-6571508D01*
X2129705Y-6571508D02*
X2139229Y-6581031D01*
X2139229Y-6581031D02*
X2148753Y-6600079D01*
X2148753Y-6600079D02*
X2148753Y-6609603D01*
X2148753Y-6609603D02*
X2139229Y-6628650D01*
X2139229Y-6628650D02*
X2129705Y-6638174D01*
X2129705Y-6638174D02*
X2110658Y-6647698D01*
X2110658Y-6647698D02*
X2072562Y-6647698D01*
X2072562Y-6647698D02*
X2053515Y-6657222D01*
X2053515Y-6657222D02*
X2043991Y-6666746D01*
X2043991Y-6666746D02*
X2034467Y-6685793D01*
X2034467Y-6685793D02*
X2034467Y-6723888D01*
X2034467Y-6723888D02*
X2043991Y-6742936D01*
X2043991Y-6742936D02*
X2053515Y-6752460D01*
X2053515Y-6752460D02*
X2072562Y-6761984D01*
X2072562Y-6761984D02*
X2110658Y-6761984D01*
X2110658Y-6761984D02*
X2129705Y-6752460D01*
X2129705Y-6752460D02*
X2139229Y-6742936D01*
X2139229Y-6742936D02*
X2148753Y-6723888D01*
X2148753Y-6723888D02*
X2148753Y-6685793D01*
X2148753Y-6685793D02*
X2139229Y-6666746D01*
X2139229Y-6666746D02*
X2129705Y-6657222D01*
X2129705Y-6657222D02*
X2110658Y-6647698D01*
X2272563Y-6561984D02*
X2291610Y-6561984D01*
X2291610Y-6561984D02*
X2310658Y-6571508D01*
X2310658Y-6571508D02*
X2320182Y-6581031D01*
X2320182Y-6581031D02*
X2329705Y-6600079D01*
X2329705Y-6600079D02*
X2339229Y-6638174D01*
X2339229Y-6638174D02*
X2339229Y-6685793D01*
X2339229Y-6685793D02*
X2329705Y-6723888D01*
X2329705Y-6723888D02*
X2320182Y-6742936D01*
X2320182Y-6742936D02*
X2310658Y-6752460D01*
X2310658Y-6752460D02*
X2291610Y-6761984D01*
X2291610Y-6761984D02*
X2272563Y-6761984D01*
X2272563Y-6761984D02*
X2253515Y-6752460D01*
X2253515Y-6752460D02*
X2243991Y-6742936D01*
X2243991Y-6742936D02*
X2234467Y-6723888D01*
X2234467Y-6723888D02*
X2224944Y-6685793D01*
X2224944Y-6685793D02*
X2224944Y-6638174D01*
X2224944Y-6638174D02*
X2234467Y-6600079D01*
X2234467Y-6600079D02*
X2243991Y-6581031D01*
X2243991Y-6581031D02*
X2253515Y-6571508D01*
X2253515Y-6571508D02*
X2272563Y-6561984D01*
X2463039Y-6561984D02*
X2482086Y-6561984D01*
X2482086Y-6561984D02*
X2501134Y-6571508D01*
X2501134Y-6571508D02*
X2510658Y-6581031D01*
X2510658Y-6581031D02*
X2520182Y-6600079D01*
X2520182Y-6600079D02*
X2529705Y-6638174D01*
X2529705Y-6638174D02*
X2529705Y-6685793D01*
X2529705Y-6685793D02*
X2520182Y-6723888D01*
X2520182Y-6723888D02*
X2510658Y-6742936D01*
X2510658Y-6742936D02*
X2501134Y-6752460D01*
X2501134Y-6752460D02*
X2482086Y-6761984D01*
X2482086Y-6761984D02*
X2463039Y-6761984D01*
X2463039Y-6761984D02*
X2443991Y-6752460D01*
X2443991Y-6752460D02*
X2434467Y-6742936D01*
X2434467Y-6742936D02*
X2424944Y-6723888D01*
X2424944Y-6723888D02*
X2415420Y-6685793D01*
X2415420Y-6685793D02*
X2415420Y-6638174D01*
X2415420Y-6638174D02*
X2424944Y-6600079D01*
X2424944Y-6600079D02*
X2434467Y-6581031D01*
X2434467Y-6581031D02*
X2443991Y-6571508D01*
X2443991Y-6571508D02*
X2463039Y-6561984D01*
X2615420Y-6761984D02*
X2615420Y-6628650D01*
X2615420Y-6647698D02*
X2624944Y-6638174D01*
X2624944Y-6638174D02*
X2643991Y-6628650D01*
X2643991Y-6628650D02*
X2672563Y-6628650D01*
X2672563Y-6628650D02*
X2691610Y-6638174D01*
X2691610Y-6638174D02*
X2701134Y-6657222D01*
X2701134Y-6657222D02*
X2701134Y-6761984D01*
X2701134Y-6657222D02*
X2710658Y-6638174D01*
X2710658Y-6638174D02*
X2729705Y-6628650D01*
X2729705Y-6628650D02*
X2758277Y-6628650D01*
X2758277Y-6628650D02*
X2777325Y-6638174D01*
X2777325Y-6638174D02*
X2786848Y-6657222D01*
X2786848Y-6657222D02*
X2786848Y-6761984D01*
X2882086Y-6761984D02*
X2882086Y-6628650D01*
X2882086Y-6647698D02*
X2891610Y-6638174D01*
X2891610Y-6638174D02*
X2910658Y-6628650D01*
X2910658Y-6628650D02*
X2939229Y-6628650D01*
X2939229Y-6628650D02*
X2958277Y-6638174D01*
X2958277Y-6638174D02*
X2967801Y-6657222D01*
X2967801Y-6657222D02*
X2967801Y-6761984D01*
X2967801Y-6657222D02*
X2977324Y-6638174D01*
X2977324Y-6638174D02*
X2996372Y-6628650D01*
X2996372Y-6628650D02*
X3024943Y-6628650D01*
X3024943Y-6628650D02*
X3043991Y-6638174D01*
X3043991Y-6638174D02*
X3053515Y-6657222D01*
X3053515Y-6657222D02*
X3053515Y-6761984D01*
X3443991Y-6552460D02*
X3272563Y-6809603D01*
X3701134Y-6561984D02*
X3720182Y-6561984D01*
X3720182Y-6561984D02*
X3739229Y-6571508D01*
X3739229Y-6571508D02*
X3748753Y-6581031D01*
X3748753Y-6581031D02*
X3758277Y-6600079D01*
X3758277Y-6600079D02*
X3767801Y-6638174D01*
X3767801Y-6638174D02*
X3767801Y-6685793D01*
X3767801Y-6685793D02*
X3758277Y-6723888D01*
X3758277Y-6723888D02*
X3748753Y-6742936D01*
X3748753Y-6742936D02*
X3739229Y-6752460D01*
X3739229Y-6752460D02*
X3720182Y-6761984D01*
X3720182Y-6761984D02*
X3701134Y-6761984D01*
X3701134Y-6761984D02*
X3682086Y-6752460D01*
X3682086Y-6752460D02*
X3672563Y-6742936D01*
X3672563Y-6742936D02*
X3663039Y-6723888D01*
X3663039Y-6723888D02*
X3653515Y-6685793D01*
X3653515Y-6685793D02*
X3653515Y-6638174D01*
X3653515Y-6638174D02*
X3663039Y-6600079D01*
X3663039Y-6600079D02*
X3672563Y-6581031D01*
X3672563Y-6581031D02*
X3682086Y-6571508D01*
X3682086Y-6571508D02*
X3701134Y-6561984D01*
X3853515Y-6742936D02*
X3863039Y-6752460D01*
X3863039Y-6752460D02*
X3853515Y-6761984D01*
X3853515Y-6761984D02*
X3843991Y-6752460D01*
X3843991Y-6752460D02*
X3853515Y-6742936D01*
X3853515Y-6742936D02*
X3853515Y-6761984D01*
X3986848Y-6561984D02*
X4005896Y-6561984D01*
X4005896Y-6561984D02*
X4024944Y-6571508D01*
X4024944Y-6571508D02*
X4034467Y-6581031D01*
X4034467Y-6581031D02*
X4043991Y-6600079D01*
X4043991Y-6600079D02*
X4053515Y-6638174D01*
X4053515Y-6638174D02*
X4053515Y-6685793D01*
X4053515Y-6685793D02*
X4043991Y-6723888D01*
X4043991Y-6723888D02*
X4034467Y-6742936D01*
X4034467Y-6742936D02*
X4024944Y-6752460D01*
X4024944Y-6752460D02*
X4005896Y-6761984D01*
X4005896Y-6761984D02*
X3986848Y-6761984D01*
X3986848Y-6761984D02*
X3967801Y-6752460D01*
X3967801Y-6752460D02*
X3958277Y-6742936D01*
X3958277Y-6742936D02*
X3948753Y-6723888D01*
X3948753Y-6723888D02*
X3939229Y-6685793D01*
X3939229Y-6685793D02*
X3939229Y-6638174D01*
X3939229Y-6638174D02*
X3948753Y-6600079D01*
X3948753Y-6600079D02*
X3958277Y-6581031D01*
X3958277Y-6581031D02*
X3967801Y-6571508D01*
X3967801Y-6571508D02*
X3986848Y-6561984D01*
X4120182Y-6561984D02*
X4243991Y-6561984D01*
X4243991Y-6561984D02*
X4177325Y-6638174D01*
X4177325Y-6638174D02*
X4205896Y-6638174D01*
X4205896Y-6638174D02*
X4224944Y-6647698D01*
X4224944Y-6647698D02*
X4234468Y-6657222D01*
X4234468Y-6657222D02*
X4243991Y-6676269D01*
X4243991Y-6676269D02*
X4243991Y-6723888D01*
X4243991Y-6723888D02*
X4234468Y-6742936D01*
X4234468Y-6742936D02*
X4224944Y-6752460D01*
X4224944Y-6752460D02*
X4205896Y-6761984D01*
X4205896Y-6761984D02*
X4148753Y-6761984D01*
X4148753Y-6761984D02*
X4129706Y-6752460D01*
X4129706Y-6752460D02*
X4120182Y-6742936D01*
X4434468Y-6761984D02*
X4320182Y-6761984D01*
X4377325Y-6761984D02*
X4377325Y-6561984D01*
X4377325Y-6561984D02*
X4358277Y-6590555D01*
X4358277Y-6590555D02*
X4339229Y-6609603D01*
X4339229Y-6609603D02*
X4320182Y-6619127D01*
X4615420Y-6561984D02*
X4520182Y-6561984D01*
X4520182Y-6561984D02*
X4510658Y-6657222D01*
X4510658Y-6657222D02*
X4520182Y-6647698D01*
X4520182Y-6647698D02*
X4539229Y-6638174D01*
X4539229Y-6638174D02*
X4586849Y-6638174D01*
X4586849Y-6638174D02*
X4605896Y-6647698D01*
X4605896Y-6647698D02*
X4615420Y-6657222D01*
X4615420Y-6657222D02*
X4624944Y-6676269D01*
X4624944Y-6676269D02*
X4624944Y-6723888D01*
X4624944Y-6723888D02*
X4615420Y-6742936D01*
X4615420Y-6742936D02*
X4605896Y-6752460D01*
X4605896Y-6752460D02*
X4586849Y-6761984D01*
X4586849Y-6761984D02*
X4539229Y-6761984D01*
X4539229Y-6761984D02*
X4520182Y-6752460D01*
X4520182Y-6752460D02*
X4510658Y-6742936D01*
X4701134Y-6561984D02*
X4701134Y-6600079D01*
X4777325Y-6561984D02*
X4777325Y-6600079D01*
X5072563Y-6838174D02*
X5063039Y-6828650D01*
X5063039Y-6828650D02*
X5043991Y-6800079D01*
X5043991Y-6800079D02*
X5034468Y-6781031D01*
X5034468Y-6781031D02*
X5024944Y-6752460D01*
X5024944Y-6752460D02*
X5015420Y-6704841D01*
X5015420Y-6704841D02*
X5015420Y-6666746D01*
X5015420Y-6666746D02*
X5024944Y-6619127D01*
X5024944Y-6619127D02*
X5034468Y-6590555D01*
X5034468Y-6590555D02*
X5043991Y-6571508D01*
X5043991Y-6571508D02*
X5063039Y-6542936D01*
X5063039Y-6542936D02*
X5072563Y-6533412D01*
X5177325Y-6647698D02*
X5158277Y-6638174D01*
X5158277Y-6638174D02*
X5148753Y-6628650D01*
X5148753Y-6628650D02*
X5139230Y-6609603D01*
X5139230Y-6609603D02*
X5139230Y-6600079D01*
X5139230Y-6600079D02*
X5148753Y-6581031D01*
X5148753Y-6581031D02*
X5158277Y-6571508D01*
X5158277Y-6571508D02*
X5177325Y-6561984D01*
X5177325Y-6561984D02*
X5215420Y-6561984D01*
X5215420Y-6561984D02*
X5234468Y-6571508D01*
X5234468Y-6571508D02*
X5243991Y-6581031D01*
X5243991Y-6581031D02*
X5253515Y-6600079D01*
X5253515Y-6600079D02*
X5253515Y-6609603D01*
X5253515Y-6609603D02*
X5243991Y-6628650D01*
X5243991Y-6628650D02*
X5234468Y-6638174D01*
X5234468Y-6638174D02*
X5215420Y-6647698D01*
X5215420Y-6647698D02*
X5177325Y-6647698D01*
X5177325Y-6647698D02*
X5158277Y-6657222D01*
X5158277Y-6657222D02*
X5148753Y-6666746D01*
X5148753Y-6666746D02*
X5139230Y-6685793D01*
X5139230Y-6685793D02*
X5139230Y-6723888D01*
X5139230Y-6723888D02*
X5148753Y-6742936D01*
X5148753Y-6742936D02*
X5158277Y-6752460D01*
X5158277Y-6752460D02*
X5177325Y-6761984D01*
X5177325Y-6761984D02*
X5215420Y-6761984D01*
X5215420Y-6761984D02*
X5234468Y-6752460D01*
X5234468Y-6752460D02*
X5243991Y-6742936D01*
X5243991Y-6742936D02*
X5253515Y-6723888D01*
X5253515Y-6723888D02*
X5253515Y-6685793D01*
X5253515Y-6685793D02*
X5243991Y-6666746D01*
X5243991Y-6666746D02*
X5234468Y-6657222D01*
X5234468Y-6657222D02*
X5215420Y-6647698D01*
X5443991Y-6761984D02*
X5329706Y-6761984D01*
X5386849Y-6761984D02*
X5386849Y-6561984D01*
X5386849Y-6561984D02*
X5367801Y-6590555D01*
X5367801Y-6590555D02*
X5348753Y-6609603D01*
X5348753Y-6609603D02*
X5329706Y-6619127D01*
X5682087Y-6761984D02*
X5682087Y-6561984D01*
X5767801Y-6761984D02*
X5767801Y-6657222D01*
X5767801Y-6657222D02*
X5758277Y-6638174D01*
X5758277Y-6638174D02*
X5739230Y-6628650D01*
X5739230Y-6628650D02*
X5710658Y-6628650D01*
X5710658Y-6628650D02*
X5691610Y-6638174D01*
X5691610Y-6638174D02*
X5682087Y-6647698D01*
X5891610Y-6761984D02*
X5872563Y-6752460D01*
X5872563Y-6752460D02*
X5863039Y-6742936D01*
X5863039Y-6742936D02*
X5853515Y-6723888D01*
X5853515Y-6723888D02*
X5853515Y-6666746D01*
X5853515Y-6666746D02*
X5863039Y-6647698D01*
X5863039Y-6647698D02*
X5872563Y-6638174D01*
X5872563Y-6638174D02*
X5891610Y-6628650D01*
X5891610Y-6628650D02*
X5920182Y-6628650D01*
X5920182Y-6628650D02*
X5939230Y-6638174D01*
X5939230Y-6638174D02*
X5948753Y-6647698D01*
X5948753Y-6647698D02*
X5958277Y-6666746D01*
X5958277Y-6666746D02*
X5958277Y-6723888D01*
X5958277Y-6723888D02*
X5948753Y-6742936D01*
X5948753Y-6742936D02*
X5939230Y-6752460D01*
X5939230Y-6752460D02*
X5920182Y-6761984D01*
X5920182Y-6761984D02*
X5891610Y-6761984D01*
X6072563Y-6761984D02*
X6053515Y-6752460D01*
X6053515Y-6752460D02*
X6043991Y-6733412D01*
X6043991Y-6733412D02*
X6043991Y-6561984D01*
X6224944Y-6752460D02*
X6205896Y-6761984D01*
X6205896Y-6761984D02*
X6167801Y-6761984D01*
X6167801Y-6761984D02*
X6148753Y-6752460D01*
X6148753Y-6752460D02*
X6139230Y-6733412D01*
X6139230Y-6733412D02*
X6139230Y-6657222D01*
X6139230Y-6657222D02*
X6148753Y-6638174D01*
X6148753Y-6638174D02*
X6167801Y-6628650D01*
X6167801Y-6628650D02*
X6205896Y-6628650D01*
X6205896Y-6628650D02*
X6224944Y-6638174D01*
X6224944Y-6638174D02*
X6234468Y-6657222D01*
X6234468Y-6657222D02*
X6234468Y-6676269D01*
X6234468Y-6676269D02*
X6139230Y-6695317D01*
X6310658Y-6752460D02*
X6329706Y-6761984D01*
X6329706Y-6761984D02*
X6367801Y-6761984D01*
X6367801Y-6761984D02*
X6386849Y-6752460D01*
X6386849Y-6752460D02*
X6396372Y-6733412D01*
X6396372Y-6733412D02*
X6396372Y-6723888D01*
X6396372Y-6723888D02*
X6386849Y-6704841D01*
X6386849Y-6704841D02*
X6367801Y-6695317D01*
X6367801Y-6695317D02*
X6339230Y-6695317D01*
X6339230Y-6695317D02*
X6320182Y-6685793D01*
X6320182Y-6685793D02*
X6310658Y-6666746D01*
X6310658Y-6666746D02*
X6310658Y-6657222D01*
X6310658Y-6657222D02*
X6320182Y-6638174D01*
X6320182Y-6638174D02*
X6339230Y-6628650D01*
X6339230Y-6628650D02*
X6367801Y-6628650D01*
X6367801Y-6628650D02*
X6386849Y-6638174D01*
X6463039Y-6838174D02*
X6472563Y-6828650D01*
X6472563Y-6828650D02*
X6491611Y-6800079D01*
X6491611Y-6800079D02*
X6501134Y-6781031D01*
X6501134Y-6781031D02*
X6510658Y-6752460D01*
X6510658Y-6752460D02*
X6520182Y-6704841D01*
X6520182Y-6704841D02*
X6520182Y-6666746D01*
X6520182Y-6666746D02*
X6510658Y-6619127D01*
X6510658Y-6619127D02*
X6501134Y-6590555D01*
X6501134Y-6590555D02*
X6491611Y-6571508D01*
X6491611Y-6571508D02*
X6472563Y-6542936D01*
X6472563Y-6542936D02*
X6463039Y-6533412D01*
D12*
X1484320Y-6966320D02*
X1484320Y-6902680D01*
X1420680Y-6902680D01*
X1420680Y-6966320D01*
X1484320Y-6966320D01*
D11*
X1796372Y-6825984D02*
X1815420Y-6825984D01*
X1815420Y-6825984D02*
X1834467Y-6835508D01*
X1834467Y-6835508D02*
X1843991Y-6845031D01*
X1843991Y-6845031D02*
X1853515Y-6864079D01*
X1853515Y-6864079D02*
X1863039Y-6902174D01*
X1863039Y-6902174D02*
X1863039Y-6949793D01*
X1863039Y-6949793D02*
X1853515Y-6987888D01*
X1853515Y-6987888D02*
X1843991Y-7006936D01*
X1843991Y-7006936D02*
X1834467Y-7016460D01*
X1834467Y-7016460D02*
X1815420Y-7025984D01*
X1815420Y-7025984D02*
X1796372Y-7025984D01*
X1796372Y-7025984D02*
X1777324Y-7016460D01*
X1777324Y-7016460D02*
X1767801Y-7006936D01*
X1767801Y-7006936D02*
X1758277Y-6987888D01*
X1758277Y-6987888D02*
X1748753Y-6949793D01*
X1748753Y-6949793D02*
X1748753Y-6902174D01*
X1748753Y-6902174D02*
X1758277Y-6864079D01*
X1758277Y-6864079D02*
X1767801Y-6845031D01*
X1767801Y-6845031D02*
X1777324Y-6835508D01*
X1777324Y-6835508D02*
X1796372Y-6825984D01*
X1948753Y-7006936D02*
X1958277Y-7016460D01*
X1958277Y-7016460D02*
X1948753Y-7025984D01*
X1948753Y-7025984D02*
X1939229Y-7016460D01*
X1939229Y-7016460D02*
X1948753Y-7006936D01*
X1948753Y-7006936D02*
X1948753Y-7025984D01*
X2053515Y-7025984D02*
X2091610Y-7025984D01*
X2091610Y-7025984D02*
X2110658Y-7016460D01*
X2110658Y-7016460D02*
X2120182Y-7006936D01*
X2120182Y-7006936D02*
X2139229Y-6978365D01*
X2139229Y-6978365D02*
X2148753Y-6940269D01*
X2148753Y-6940269D02*
X2148753Y-6864079D01*
X2148753Y-6864079D02*
X2139229Y-6845031D01*
X2139229Y-6845031D02*
X2129705Y-6835508D01*
X2129705Y-6835508D02*
X2110658Y-6825984D01*
X2110658Y-6825984D02*
X2072562Y-6825984D01*
X2072562Y-6825984D02*
X2053515Y-6835508D01*
X2053515Y-6835508D02*
X2043991Y-6845031D01*
X2043991Y-6845031D02*
X2034467Y-6864079D01*
X2034467Y-6864079D02*
X2034467Y-6911698D01*
X2034467Y-6911698D02*
X2043991Y-6930746D01*
X2043991Y-6930746D02*
X2053515Y-6940269D01*
X2053515Y-6940269D02*
X2072562Y-6949793D01*
X2072562Y-6949793D02*
X2110658Y-6949793D01*
X2110658Y-6949793D02*
X2129705Y-6940269D01*
X2129705Y-6940269D02*
X2139229Y-6930746D01*
X2139229Y-6930746D02*
X2148753Y-6911698D01*
X2272563Y-6825984D02*
X2291610Y-6825984D01*
X2291610Y-6825984D02*
X2310658Y-6835508D01*
X2310658Y-6835508D02*
X2320182Y-6845031D01*
X2320182Y-6845031D02*
X2329705Y-6864079D01*
X2329705Y-6864079D02*
X2339229Y-6902174D01*
X2339229Y-6902174D02*
X2339229Y-6949793D01*
X2339229Y-6949793D02*
X2329705Y-6987888D01*
X2329705Y-6987888D02*
X2320182Y-7006936D01*
X2320182Y-7006936D02*
X2310658Y-7016460D01*
X2310658Y-7016460D02*
X2291610Y-7025984D01*
X2291610Y-7025984D02*
X2272563Y-7025984D01*
X2272563Y-7025984D02*
X2253515Y-7016460D01*
X2253515Y-7016460D02*
X2243991Y-7006936D01*
X2243991Y-7006936D02*
X2234467Y-6987888D01*
X2234467Y-6987888D02*
X2224944Y-6949793D01*
X2224944Y-6949793D02*
X2224944Y-6902174D01*
X2224944Y-6902174D02*
X2234467Y-6864079D01*
X2234467Y-6864079D02*
X2243991Y-6845031D01*
X2243991Y-6845031D02*
X2253515Y-6835508D01*
X2253515Y-6835508D02*
X2272563Y-6825984D01*
X2463039Y-6825984D02*
X2482086Y-6825984D01*
X2482086Y-6825984D02*
X2501134Y-6835508D01*
X2501134Y-6835508D02*
X2510658Y-6845031D01*
X2510658Y-6845031D02*
X2520182Y-6864079D01*
X2520182Y-6864079D02*
X2529705Y-6902174D01*
X2529705Y-6902174D02*
X2529705Y-6949793D01*
X2529705Y-6949793D02*
X2520182Y-6987888D01*
X2520182Y-6987888D02*
X2510658Y-7006936D01*
X2510658Y-7006936D02*
X2501134Y-7016460D01*
X2501134Y-7016460D02*
X2482086Y-7025984D01*
X2482086Y-7025984D02*
X2463039Y-7025984D01*
X2463039Y-7025984D02*
X2443991Y-7016460D01*
X2443991Y-7016460D02*
X2434467Y-7006936D01*
X2434467Y-7006936D02*
X2424944Y-6987888D01*
X2424944Y-6987888D02*
X2415420Y-6949793D01*
X2415420Y-6949793D02*
X2415420Y-6902174D01*
X2415420Y-6902174D02*
X2424944Y-6864079D01*
X2424944Y-6864079D02*
X2434467Y-6845031D01*
X2434467Y-6845031D02*
X2443991Y-6835508D01*
X2443991Y-6835508D02*
X2463039Y-6825984D01*
X2615420Y-7025984D02*
X2615420Y-6892650D01*
X2615420Y-6911698D02*
X2624944Y-6902174D01*
X2624944Y-6902174D02*
X2643991Y-6892650D01*
X2643991Y-6892650D02*
X2672563Y-6892650D01*
X2672563Y-6892650D02*
X2691610Y-6902174D01*
X2691610Y-6902174D02*
X2701134Y-6921222D01*
X2701134Y-6921222D02*
X2701134Y-7025984D01*
X2701134Y-6921222D02*
X2710658Y-6902174D01*
X2710658Y-6902174D02*
X2729705Y-6892650D01*
X2729705Y-6892650D02*
X2758277Y-6892650D01*
X2758277Y-6892650D02*
X2777325Y-6902174D01*
X2777325Y-6902174D02*
X2786848Y-6921222D01*
X2786848Y-6921222D02*
X2786848Y-7025984D01*
X2882086Y-7025984D02*
X2882086Y-6892650D01*
X2882086Y-6911698D02*
X2891610Y-6902174D01*
X2891610Y-6902174D02*
X2910658Y-6892650D01*
X2910658Y-6892650D02*
X2939229Y-6892650D01*
X2939229Y-6892650D02*
X2958277Y-6902174D01*
X2958277Y-6902174D02*
X2967801Y-6921222D01*
X2967801Y-6921222D02*
X2967801Y-7025984D01*
X2967801Y-6921222D02*
X2977324Y-6902174D01*
X2977324Y-6902174D02*
X2996372Y-6892650D01*
X2996372Y-6892650D02*
X3024943Y-6892650D01*
X3024943Y-6892650D02*
X3043991Y-6902174D01*
X3043991Y-6902174D02*
X3053515Y-6921222D01*
X3053515Y-6921222D02*
X3053515Y-7025984D01*
X3443991Y-6816460D02*
X3272563Y-7073603D01*
X3701134Y-6825984D02*
X3720182Y-6825984D01*
X3720182Y-6825984D02*
X3739229Y-6835508D01*
X3739229Y-6835508D02*
X3748753Y-6845031D01*
X3748753Y-6845031D02*
X3758277Y-6864079D01*
X3758277Y-6864079D02*
X3767801Y-6902174D01*
X3767801Y-6902174D02*
X3767801Y-6949793D01*
X3767801Y-6949793D02*
X3758277Y-6987888D01*
X3758277Y-6987888D02*
X3748753Y-7006936D01*
X3748753Y-7006936D02*
X3739229Y-7016460D01*
X3739229Y-7016460D02*
X3720182Y-7025984D01*
X3720182Y-7025984D02*
X3701134Y-7025984D01*
X3701134Y-7025984D02*
X3682086Y-7016460D01*
X3682086Y-7016460D02*
X3672563Y-7006936D01*
X3672563Y-7006936D02*
X3663039Y-6987888D01*
X3663039Y-6987888D02*
X3653515Y-6949793D01*
X3653515Y-6949793D02*
X3653515Y-6902174D01*
X3653515Y-6902174D02*
X3663039Y-6864079D01*
X3663039Y-6864079D02*
X3672563Y-6845031D01*
X3672563Y-6845031D02*
X3682086Y-6835508D01*
X3682086Y-6835508D02*
X3701134Y-6825984D01*
X3853515Y-7006936D02*
X3863039Y-7016460D01*
X3863039Y-7016460D02*
X3853515Y-7025984D01*
X3853515Y-7025984D02*
X3843991Y-7016460D01*
X3843991Y-7016460D02*
X3853515Y-7006936D01*
X3853515Y-7006936D02*
X3853515Y-7025984D01*
X3986848Y-6825984D02*
X4005896Y-6825984D01*
X4005896Y-6825984D02*
X4024944Y-6835508D01*
X4024944Y-6835508D02*
X4034467Y-6845031D01*
X4034467Y-6845031D02*
X4043991Y-6864079D01*
X4043991Y-6864079D02*
X4053515Y-6902174D01*
X4053515Y-6902174D02*
X4053515Y-6949793D01*
X4053515Y-6949793D02*
X4043991Y-6987888D01*
X4043991Y-6987888D02*
X4034467Y-7006936D01*
X4034467Y-7006936D02*
X4024944Y-7016460D01*
X4024944Y-7016460D02*
X4005896Y-7025984D01*
X4005896Y-7025984D02*
X3986848Y-7025984D01*
X3986848Y-7025984D02*
X3967801Y-7016460D01*
X3967801Y-7016460D02*
X3958277Y-7006936D01*
X3958277Y-7006936D02*
X3948753Y-6987888D01*
X3948753Y-6987888D02*
X3939229Y-6949793D01*
X3939229Y-6949793D02*
X3939229Y-6902174D01*
X3939229Y-6902174D02*
X3948753Y-6864079D01*
X3948753Y-6864079D02*
X3958277Y-6845031D01*
X3958277Y-6845031D02*
X3967801Y-6835508D01*
X3967801Y-6835508D02*
X3986848Y-6825984D01*
X4120182Y-6825984D02*
X4243991Y-6825984D01*
X4243991Y-6825984D02*
X4177325Y-6902174D01*
X4177325Y-6902174D02*
X4205896Y-6902174D01*
X4205896Y-6902174D02*
X4224944Y-6911698D01*
X4224944Y-6911698D02*
X4234468Y-6921222D01*
X4234468Y-6921222D02*
X4243991Y-6940269D01*
X4243991Y-6940269D02*
X4243991Y-6987888D01*
X4243991Y-6987888D02*
X4234468Y-7006936D01*
X4234468Y-7006936D02*
X4224944Y-7016460D01*
X4224944Y-7016460D02*
X4205896Y-7025984D01*
X4205896Y-7025984D02*
X4148753Y-7025984D01*
X4148753Y-7025984D02*
X4129706Y-7016460D01*
X4129706Y-7016460D02*
X4120182Y-7006936D01*
X4424944Y-6825984D02*
X4329706Y-6825984D01*
X4329706Y-6825984D02*
X4320182Y-6921222D01*
X4320182Y-6921222D02*
X4329706Y-6911698D01*
X4329706Y-6911698D02*
X4348753Y-6902174D01*
X4348753Y-6902174D02*
X4396372Y-6902174D01*
X4396372Y-6902174D02*
X4415420Y-6911698D01*
X4415420Y-6911698D02*
X4424944Y-6921222D01*
X4424944Y-6921222D02*
X4434468Y-6940269D01*
X4434468Y-6940269D02*
X4434468Y-6987888D01*
X4434468Y-6987888D02*
X4424944Y-7006936D01*
X4424944Y-7006936D02*
X4415420Y-7016460D01*
X4415420Y-7016460D02*
X4396372Y-7025984D01*
X4396372Y-7025984D02*
X4348753Y-7025984D01*
X4348753Y-7025984D02*
X4329706Y-7016460D01*
X4329706Y-7016460D02*
X4320182Y-7006936D01*
X4605896Y-6892650D02*
X4605896Y-7025984D01*
X4558277Y-6816460D02*
X4510658Y-6959317D01*
X4510658Y-6959317D02*
X4634468Y-6959317D01*
X4701134Y-6825984D02*
X4701134Y-6864079D01*
X4777325Y-6825984D02*
X4777325Y-6864079D01*
X5072563Y-7102174D02*
X5063039Y-7092650D01*
X5063039Y-7092650D02*
X5043991Y-7064079D01*
X5043991Y-7064079D02*
X5034468Y-7045031D01*
X5034468Y-7045031D02*
X5024944Y-7016460D01*
X5024944Y-7016460D02*
X5015420Y-6968841D01*
X5015420Y-6968841D02*
X5015420Y-6930746D01*
X5015420Y-6930746D02*
X5024944Y-6883127D01*
X5024944Y-6883127D02*
X5034468Y-6854555D01*
X5034468Y-6854555D02*
X5043991Y-6835508D01*
X5043991Y-6835508D02*
X5063039Y-6806936D01*
X5063039Y-6806936D02*
X5072563Y-6797412D01*
X5177325Y-6911698D02*
X5158277Y-6902174D01*
X5158277Y-6902174D02*
X5148753Y-6892650D01*
X5148753Y-6892650D02*
X5139230Y-6873603D01*
X5139230Y-6873603D02*
X5139230Y-6864079D01*
X5139230Y-6864079D02*
X5148753Y-6845031D01*
X5148753Y-6845031D02*
X5158277Y-6835508D01*
X5158277Y-6835508D02*
X5177325Y-6825984D01*
X5177325Y-6825984D02*
X5215420Y-6825984D01*
X5215420Y-6825984D02*
X5234468Y-6835508D01*
X5234468Y-6835508D02*
X5243991Y-6845031D01*
X5243991Y-6845031D02*
X5253515Y-6864079D01*
X5253515Y-6864079D02*
X5253515Y-6873603D01*
X5253515Y-6873603D02*
X5243991Y-6892650D01*
X5243991Y-6892650D02*
X5234468Y-6902174D01*
X5234468Y-6902174D02*
X5215420Y-6911698D01*
X5215420Y-6911698D02*
X5177325Y-6911698D01*
X5177325Y-6911698D02*
X5158277Y-6921222D01*
X5158277Y-6921222D02*
X5148753Y-6930746D01*
X5148753Y-6930746D02*
X5139230Y-6949793D01*
X5139230Y-6949793D02*
X5139230Y-6987888D01*
X5139230Y-6987888D02*
X5148753Y-7006936D01*
X5148753Y-7006936D02*
X5158277Y-7016460D01*
X5158277Y-7016460D02*
X5177325Y-7025984D01*
X5177325Y-7025984D02*
X5215420Y-7025984D01*
X5215420Y-7025984D02*
X5234468Y-7016460D01*
X5234468Y-7016460D02*
X5243991Y-7006936D01*
X5243991Y-7006936D02*
X5253515Y-6987888D01*
X5253515Y-6987888D02*
X5253515Y-6949793D01*
X5253515Y-6949793D02*
X5243991Y-6930746D01*
X5243991Y-6930746D02*
X5234468Y-6921222D01*
X5234468Y-6921222D02*
X5215420Y-6911698D01*
X5491611Y-7025984D02*
X5491611Y-6825984D01*
X5577325Y-7025984D02*
X5577325Y-6921222D01*
X5577325Y-6921222D02*
X5567801Y-6902174D01*
X5567801Y-6902174D02*
X5548753Y-6892650D01*
X5548753Y-6892650D02*
X5520182Y-6892650D01*
X5520182Y-6892650D02*
X5501134Y-6902174D01*
X5501134Y-6902174D02*
X5491611Y-6911698D01*
X5701134Y-7025984D02*
X5682087Y-7016460D01*
X5682087Y-7016460D02*
X5672563Y-7006936D01*
X5672563Y-7006936D02*
X5663039Y-6987888D01*
X5663039Y-6987888D02*
X5663039Y-6930746D01*
X5663039Y-6930746D02*
X5672563Y-6911698D01*
X5672563Y-6911698D02*
X5682087Y-6902174D01*
X5682087Y-6902174D02*
X5701134Y-6892650D01*
X5701134Y-6892650D02*
X5729706Y-6892650D01*
X5729706Y-6892650D02*
X5748753Y-6902174D01*
X5748753Y-6902174D02*
X5758277Y-6911698D01*
X5758277Y-6911698D02*
X5767801Y-6930746D01*
X5767801Y-6930746D02*
X5767801Y-6987888D01*
X5767801Y-6987888D02*
X5758277Y-7006936D01*
X5758277Y-7006936D02*
X5748753Y-7016460D01*
X5748753Y-7016460D02*
X5729706Y-7025984D01*
X5729706Y-7025984D02*
X5701134Y-7025984D01*
X5882087Y-7025984D02*
X5863039Y-7016460D01*
X5863039Y-7016460D02*
X5853515Y-6997412D01*
X5853515Y-6997412D02*
X5853515Y-6825984D01*
X6034468Y-7016460D02*
X6015420Y-7025984D01*
X6015420Y-7025984D02*
X5977325Y-7025984D01*
X5977325Y-7025984D02*
X5958277Y-7016460D01*
X5958277Y-7016460D02*
X5948753Y-6997412D01*
X5948753Y-6997412D02*
X5948753Y-6921222D01*
X5948753Y-6921222D02*
X5958277Y-6902174D01*
X5958277Y-6902174D02*
X5977325Y-6892650D01*
X5977325Y-6892650D02*
X6015420Y-6892650D01*
X6015420Y-6892650D02*
X6034468Y-6902174D01*
X6034468Y-6902174D02*
X6043991Y-6921222D01*
X6043991Y-6921222D02*
X6043991Y-6940269D01*
X6043991Y-6940269D02*
X5948753Y-6959317D01*
X6120182Y-7016460D02*
X6139230Y-7025984D01*
X6139230Y-7025984D02*
X6177325Y-7025984D01*
X6177325Y-7025984D02*
X6196372Y-7016460D01*
X6196372Y-7016460D02*
X6205896Y-6997412D01*
X6205896Y-6997412D02*
X6205896Y-6987888D01*
X6205896Y-6987888D02*
X6196372Y-6968841D01*
X6196372Y-6968841D02*
X6177325Y-6959317D01*
X6177325Y-6959317D02*
X6148753Y-6959317D01*
X6148753Y-6959317D02*
X6129706Y-6949793D01*
X6129706Y-6949793D02*
X6120182Y-6930746D01*
X6120182Y-6930746D02*
X6120182Y-6921222D01*
X6120182Y-6921222D02*
X6129706Y-6902174D01*
X6129706Y-6902174D02*
X6148753Y-6892650D01*
X6148753Y-6892650D02*
X6177325Y-6892650D01*
X6177325Y-6892650D02*
X6196372Y-6902174D01*
X6272563Y-7102174D02*
X6282087Y-7092650D01*
X6282087Y-7092650D02*
X6301134Y-7064079D01*
X6301134Y-7064079D02*
X6310658Y-7045031D01*
X6310658Y-7045031D02*
X6320182Y-7016460D01*
X6320182Y-7016460D02*
X6329706Y-6968841D01*
X6329706Y-6968841D02*
X6329706Y-6930746D01*
X6329706Y-6930746D02*
X6320182Y-6883127D01*
X6320182Y-6883127D02*
X6310658Y-6854555D01*
X6310658Y-6854555D02*
X6301134Y-6835508D01*
X6301134Y-6835508D02*
X6282087Y-6806936D01*
X6282087Y-6806936D02*
X6272563Y-6797412D01*
D12*
X1447500Y-7248500D02*
X1497500Y-7198500D01*
X1447500Y-7148500D01*
X1397500Y-7198500D01*
X1447500Y-7248500D01*
D11*
X1863039Y-7289984D02*
X1748753Y-7289984D01*
X1805896Y-7289984D02*
X1805896Y-7089984D01*
X1805896Y-7089984D02*
X1786848Y-7118555D01*
X1786848Y-7118555D02*
X1767801Y-7137603D01*
X1767801Y-7137603D02*
X1748753Y-7147127D01*
X1948753Y-7270936D02*
X1958277Y-7280460D01*
X1958277Y-7280460D02*
X1948753Y-7289984D01*
X1948753Y-7289984D02*
X1939229Y-7280460D01*
X1939229Y-7280460D02*
X1948753Y-7270936D01*
X1948753Y-7270936D02*
X1948753Y-7289984D01*
X2082086Y-7089984D02*
X2101134Y-7089984D01*
X2101134Y-7089984D02*
X2120182Y-7099508D01*
X2120182Y-7099508D02*
X2129705Y-7109031D01*
X2129705Y-7109031D02*
X2139229Y-7128079D01*
X2139229Y-7128079D02*
X2148753Y-7166174D01*
X2148753Y-7166174D02*
X2148753Y-7213793D01*
X2148753Y-7213793D02*
X2139229Y-7251888D01*
X2139229Y-7251888D02*
X2129705Y-7270936D01*
X2129705Y-7270936D02*
X2120182Y-7280460D01*
X2120182Y-7280460D02*
X2101134Y-7289984D01*
X2101134Y-7289984D02*
X2082086Y-7289984D01*
X2082086Y-7289984D02*
X2063039Y-7280460D01*
X2063039Y-7280460D02*
X2053515Y-7270936D01*
X2053515Y-7270936D02*
X2043991Y-7251888D01*
X2043991Y-7251888D02*
X2034467Y-7213793D01*
X2034467Y-7213793D02*
X2034467Y-7166174D01*
X2034467Y-7166174D02*
X2043991Y-7128079D01*
X2043991Y-7128079D02*
X2053515Y-7109031D01*
X2053515Y-7109031D02*
X2063039Y-7099508D01*
X2063039Y-7099508D02*
X2082086Y-7089984D01*
X2272563Y-7089984D02*
X2291610Y-7089984D01*
X2291610Y-7089984D02*
X2310658Y-7099508D01*
X2310658Y-7099508D02*
X2320182Y-7109031D01*
X2320182Y-7109031D02*
X2329705Y-7128079D01*
X2329705Y-7128079D02*
X2339229Y-7166174D01*
X2339229Y-7166174D02*
X2339229Y-7213793D01*
X2339229Y-7213793D02*
X2329705Y-7251888D01*
X2329705Y-7251888D02*
X2320182Y-7270936D01*
X2320182Y-7270936D02*
X2310658Y-7280460D01*
X2310658Y-7280460D02*
X2291610Y-7289984D01*
X2291610Y-7289984D02*
X2272563Y-7289984D01*
X2272563Y-7289984D02*
X2253515Y-7280460D01*
X2253515Y-7280460D02*
X2243991Y-7270936D01*
X2243991Y-7270936D02*
X2234467Y-7251888D01*
X2234467Y-7251888D02*
X2224944Y-7213793D01*
X2224944Y-7213793D02*
X2224944Y-7166174D01*
X2224944Y-7166174D02*
X2234467Y-7128079D01*
X2234467Y-7128079D02*
X2243991Y-7109031D01*
X2243991Y-7109031D02*
X2253515Y-7099508D01*
X2253515Y-7099508D02*
X2272563Y-7089984D01*
X2463039Y-7089984D02*
X2482086Y-7089984D01*
X2482086Y-7089984D02*
X2501134Y-7099508D01*
X2501134Y-7099508D02*
X2510658Y-7109031D01*
X2510658Y-7109031D02*
X2520182Y-7128079D01*
X2520182Y-7128079D02*
X2529705Y-7166174D01*
X2529705Y-7166174D02*
X2529705Y-7213793D01*
X2529705Y-7213793D02*
X2520182Y-7251888D01*
X2520182Y-7251888D02*
X2510658Y-7270936D01*
X2510658Y-7270936D02*
X2501134Y-7280460D01*
X2501134Y-7280460D02*
X2482086Y-7289984D01*
X2482086Y-7289984D02*
X2463039Y-7289984D01*
X2463039Y-7289984D02*
X2443991Y-7280460D01*
X2443991Y-7280460D02*
X2434467Y-7270936D01*
X2434467Y-7270936D02*
X2424944Y-7251888D01*
X2424944Y-7251888D02*
X2415420Y-7213793D01*
X2415420Y-7213793D02*
X2415420Y-7166174D01*
X2415420Y-7166174D02*
X2424944Y-7128079D01*
X2424944Y-7128079D02*
X2434467Y-7109031D01*
X2434467Y-7109031D02*
X2443991Y-7099508D01*
X2443991Y-7099508D02*
X2463039Y-7089984D01*
X2615420Y-7289984D02*
X2615420Y-7156650D01*
X2615420Y-7175698D02*
X2624944Y-7166174D01*
X2624944Y-7166174D02*
X2643991Y-7156650D01*
X2643991Y-7156650D02*
X2672563Y-7156650D01*
X2672563Y-7156650D02*
X2691610Y-7166174D01*
X2691610Y-7166174D02*
X2701134Y-7185222D01*
X2701134Y-7185222D02*
X2701134Y-7289984D01*
X2701134Y-7185222D02*
X2710658Y-7166174D01*
X2710658Y-7166174D02*
X2729705Y-7156650D01*
X2729705Y-7156650D02*
X2758277Y-7156650D01*
X2758277Y-7156650D02*
X2777325Y-7166174D01*
X2777325Y-7166174D02*
X2786848Y-7185222D01*
X2786848Y-7185222D02*
X2786848Y-7289984D01*
X2882086Y-7289984D02*
X2882086Y-7156650D01*
X2882086Y-7175698D02*
X2891610Y-7166174D01*
X2891610Y-7166174D02*
X2910658Y-7156650D01*
X2910658Y-7156650D02*
X2939229Y-7156650D01*
X2939229Y-7156650D02*
X2958277Y-7166174D01*
X2958277Y-7166174D02*
X2967801Y-7185222D01*
X2967801Y-7185222D02*
X2967801Y-7289984D01*
X2967801Y-7185222D02*
X2977324Y-7166174D01*
X2977324Y-7166174D02*
X2996372Y-7156650D01*
X2996372Y-7156650D02*
X3024943Y-7156650D01*
X3024943Y-7156650D02*
X3043991Y-7166174D01*
X3043991Y-7166174D02*
X3053515Y-7185222D01*
X3053515Y-7185222D02*
X3053515Y-7289984D01*
X3443991Y-7080460D02*
X3272563Y-7337603D01*
X3701134Y-7089984D02*
X3720182Y-7089984D01*
X3720182Y-7089984D02*
X3739229Y-7099508D01*
X3739229Y-7099508D02*
X3748753Y-7109031D01*
X3748753Y-7109031D02*
X3758277Y-7128079D01*
X3758277Y-7128079D02*
X3767801Y-7166174D01*
X3767801Y-7166174D02*
X3767801Y-7213793D01*
X3767801Y-7213793D02*
X3758277Y-7251888D01*
X3758277Y-7251888D02*
X3748753Y-7270936D01*
X3748753Y-7270936D02*
X3739229Y-7280460D01*
X3739229Y-7280460D02*
X3720182Y-7289984D01*
X3720182Y-7289984D02*
X3701134Y-7289984D01*
X3701134Y-7289984D02*
X3682086Y-7280460D01*
X3682086Y-7280460D02*
X3672563Y-7270936D01*
X3672563Y-7270936D02*
X3663039Y-7251888D01*
X3663039Y-7251888D02*
X3653515Y-7213793D01*
X3653515Y-7213793D02*
X3653515Y-7166174D01*
X3653515Y-7166174D02*
X3663039Y-7128079D01*
X3663039Y-7128079D02*
X3672563Y-7109031D01*
X3672563Y-7109031D02*
X3682086Y-7099508D01*
X3682086Y-7099508D02*
X3701134Y-7089984D01*
X3853515Y-7270936D02*
X3863039Y-7280460D01*
X3863039Y-7280460D02*
X3853515Y-7289984D01*
X3853515Y-7289984D02*
X3843991Y-7280460D01*
X3843991Y-7280460D02*
X3853515Y-7270936D01*
X3853515Y-7270936D02*
X3853515Y-7289984D01*
X3986848Y-7089984D02*
X4005896Y-7089984D01*
X4005896Y-7089984D02*
X4024944Y-7099508D01*
X4024944Y-7099508D02*
X4034467Y-7109031D01*
X4034467Y-7109031D02*
X4043991Y-7128079D01*
X4043991Y-7128079D02*
X4053515Y-7166174D01*
X4053515Y-7166174D02*
X4053515Y-7213793D01*
X4053515Y-7213793D02*
X4043991Y-7251888D01*
X4043991Y-7251888D02*
X4034467Y-7270936D01*
X4034467Y-7270936D02*
X4024944Y-7280460D01*
X4024944Y-7280460D02*
X4005896Y-7289984D01*
X4005896Y-7289984D02*
X3986848Y-7289984D01*
X3986848Y-7289984D02*
X3967801Y-7280460D01*
X3967801Y-7280460D02*
X3958277Y-7270936D01*
X3958277Y-7270936D02*
X3948753Y-7251888D01*
X3948753Y-7251888D02*
X3939229Y-7213793D01*
X3939229Y-7213793D02*
X3939229Y-7166174D01*
X3939229Y-7166174D02*
X3948753Y-7128079D01*
X3948753Y-7128079D02*
X3958277Y-7109031D01*
X3958277Y-7109031D02*
X3967801Y-7099508D01*
X3967801Y-7099508D02*
X3986848Y-7089984D01*
X4120182Y-7089984D02*
X4243991Y-7089984D01*
X4243991Y-7089984D02*
X4177325Y-7166174D01*
X4177325Y-7166174D02*
X4205896Y-7166174D01*
X4205896Y-7166174D02*
X4224944Y-7175698D01*
X4224944Y-7175698D02*
X4234468Y-7185222D01*
X4234468Y-7185222D02*
X4243991Y-7204269D01*
X4243991Y-7204269D02*
X4243991Y-7251888D01*
X4243991Y-7251888D02*
X4234468Y-7270936D01*
X4234468Y-7270936D02*
X4224944Y-7280460D01*
X4224944Y-7280460D02*
X4205896Y-7289984D01*
X4205896Y-7289984D02*
X4148753Y-7289984D01*
X4148753Y-7289984D02*
X4129706Y-7280460D01*
X4129706Y-7280460D02*
X4120182Y-7270936D01*
X4339229Y-7289984D02*
X4377325Y-7289984D01*
X4377325Y-7289984D02*
X4396372Y-7280460D01*
X4396372Y-7280460D02*
X4405896Y-7270936D01*
X4405896Y-7270936D02*
X4424944Y-7242365D01*
X4424944Y-7242365D02*
X4434468Y-7204269D01*
X4434468Y-7204269D02*
X4434468Y-7128079D01*
X4434468Y-7128079D02*
X4424944Y-7109031D01*
X4424944Y-7109031D02*
X4415420Y-7099508D01*
X4415420Y-7099508D02*
X4396372Y-7089984D01*
X4396372Y-7089984D02*
X4358277Y-7089984D01*
X4358277Y-7089984D02*
X4339229Y-7099508D01*
X4339229Y-7099508D02*
X4329706Y-7109031D01*
X4329706Y-7109031D02*
X4320182Y-7128079D01*
X4320182Y-7128079D02*
X4320182Y-7175698D01*
X4320182Y-7175698D02*
X4329706Y-7194746D01*
X4329706Y-7194746D02*
X4339229Y-7204269D01*
X4339229Y-7204269D02*
X4358277Y-7213793D01*
X4358277Y-7213793D02*
X4396372Y-7213793D01*
X4396372Y-7213793D02*
X4415420Y-7204269D01*
X4415420Y-7204269D02*
X4424944Y-7194746D01*
X4424944Y-7194746D02*
X4434468Y-7175698D01*
X4605896Y-7156650D02*
X4605896Y-7289984D01*
X4558277Y-7080460D02*
X4510658Y-7223317D01*
X4510658Y-7223317D02*
X4634468Y-7223317D01*
X4701134Y-7089984D02*
X4701134Y-7128079D01*
X4777325Y-7089984D02*
X4777325Y-7128079D01*
X5072563Y-7366174D02*
X5063039Y-7356650D01*
X5063039Y-7356650D02*
X5043991Y-7328079D01*
X5043991Y-7328079D02*
X5034468Y-7309031D01*
X5034468Y-7309031D02*
X5024944Y-7280460D01*
X5024944Y-7280460D02*
X5015420Y-7232841D01*
X5015420Y-7232841D02*
X5015420Y-7194746D01*
X5015420Y-7194746D02*
X5024944Y-7147127D01*
X5024944Y-7147127D02*
X5034468Y-7118555D01*
X5034468Y-7118555D02*
X5043991Y-7099508D01*
X5043991Y-7099508D02*
X5063039Y-7070936D01*
X5063039Y-7070936D02*
X5072563Y-7061412D01*
X5139230Y-7109031D02*
X5148753Y-7099508D01*
X5148753Y-7099508D02*
X5167801Y-7089984D01*
X5167801Y-7089984D02*
X5215420Y-7089984D01*
X5215420Y-7089984D02*
X5234468Y-7099508D01*
X5234468Y-7099508D02*
X5243991Y-7109031D01*
X5243991Y-7109031D02*
X5253515Y-7128079D01*
X5253515Y-7128079D02*
X5253515Y-7147127D01*
X5253515Y-7147127D02*
X5243991Y-7175698D01*
X5243991Y-7175698D02*
X5129706Y-7289984D01*
X5129706Y-7289984D02*
X5253515Y-7289984D01*
X5377325Y-7089984D02*
X5396372Y-7089984D01*
X5396372Y-7089984D02*
X5415420Y-7099508D01*
X5415420Y-7099508D02*
X5424944Y-7109031D01*
X5424944Y-7109031D02*
X5434468Y-7128079D01*
X5434468Y-7128079D02*
X5443991Y-7166174D01*
X5443991Y-7166174D02*
X5443991Y-7213793D01*
X5443991Y-7213793D02*
X5434468Y-7251888D01*
X5434468Y-7251888D02*
X5424944Y-7270936D01*
X5424944Y-7270936D02*
X5415420Y-7280460D01*
X5415420Y-7280460D02*
X5396372Y-7289984D01*
X5396372Y-7289984D02*
X5377325Y-7289984D01*
X5377325Y-7289984D02*
X5358277Y-7280460D01*
X5358277Y-7280460D02*
X5348753Y-7270936D01*
X5348753Y-7270936D02*
X5339230Y-7251888D01*
X5339230Y-7251888D02*
X5329706Y-7213793D01*
X5329706Y-7213793D02*
X5329706Y-7166174D01*
X5329706Y-7166174D02*
X5339230Y-7128079D01*
X5339230Y-7128079D02*
X5348753Y-7109031D01*
X5348753Y-7109031D02*
X5358277Y-7099508D01*
X5358277Y-7099508D02*
X5377325Y-7089984D01*
X5682087Y-7289984D02*
X5682087Y-7089984D01*
X5767801Y-7289984D02*
X5767801Y-7185222D01*
X5767801Y-7185222D02*
X5758277Y-7166174D01*
X5758277Y-7166174D02*
X5739230Y-7156650D01*
X5739230Y-7156650D02*
X5710658Y-7156650D01*
X5710658Y-7156650D02*
X5691610Y-7166174D01*
X5691610Y-7166174D02*
X5682087Y-7175698D01*
X5891610Y-7289984D02*
X5872563Y-7280460D01*
X5872563Y-7280460D02*
X5863039Y-7270936D01*
X5863039Y-7270936D02*
X5853515Y-7251888D01*
X5853515Y-7251888D02*
X5853515Y-7194746D01*
X5853515Y-7194746D02*
X5863039Y-7175698D01*
X5863039Y-7175698D02*
X5872563Y-7166174D01*
X5872563Y-7166174D02*
X5891610Y-7156650D01*
X5891610Y-7156650D02*
X5920182Y-7156650D01*
X5920182Y-7156650D02*
X5939230Y-7166174D01*
X5939230Y-7166174D02*
X5948753Y-7175698D01*
X5948753Y-7175698D02*
X5958277Y-7194746D01*
X5958277Y-7194746D02*
X5958277Y-7251888D01*
X5958277Y-7251888D02*
X5948753Y-7270936D01*
X5948753Y-7270936D02*
X5939230Y-7280460D01*
X5939230Y-7280460D02*
X5920182Y-7289984D01*
X5920182Y-7289984D02*
X5891610Y-7289984D01*
X6072563Y-7289984D02*
X6053515Y-7280460D01*
X6053515Y-7280460D02*
X6043991Y-7261412D01*
X6043991Y-7261412D02*
X6043991Y-7089984D01*
X6224944Y-7280460D02*
X6205896Y-7289984D01*
X6205896Y-7289984D02*
X6167801Y-7289984D01*
X6167801Y-7289984D02*
X6148753Y-7280460D01*
X6148753Y-7280460D02*
X6139230Y-7261412D01*
X6139230Y-7261412D02*
X6139230Y-7185222D01*
X6139230Y-7185222D02*
X6148753Y-7166174D01*
X6148753Y-7166174D02*
X6167801Y-7156650D01*
X6167801Y-7156650D02*
X6205896Y-7156650D01*
X6205896Y-7156650D02*
X6224944Y-7166174D01*
X6224944Y-7166174D02*
X6234468Y-7185222D01*
X6234468Y-7185222D02*
X6234468Y-7204269D01*
X6234468Y-7204269D02*
X6139230Y-7223317D01*
X6310658Y-7280460D02*
X6329706Y-7289984D01*
X6329706Y-7289984D02*
X6367801Y-7289984D01*
X6367801Y-7289984D02*
X6386849Y-7280460D01*
X6386849Y-7280460D02*
X6396372Y-7261412D01*
X6396372Y-7261412D02*
X6396372Y-7251888D01*
X6396372Y-7251888D02*
X6386849Y-7232841D01*
X6386849Y-7232841D02*
X6367801Y-7223317D01*
X6367801Y-7223317D02*
X6339230Y-7223317D01*
X6339230Y-7223317D02*
X6320182Y-7213793D01*
X6320182Y-7213793D02*
X6310658Y-7194746D01*
X6310658Y-7194746D02*
X6310658Y-7185222D01*
X6310658Y-7185222D02*
X6320182Y-7166174D01*
X6320182Y-7166174D02*
X6339230Y-7156650D01*
X6339230Y-7156650D02*
X6367801Y-7156650D01*
X6367801Y-7156650D02*
X6386849Y-7166174D01*
X6463039Y-7366174D02*
X6472563Y-7356650D01*
X6472563Y-7356650D02*
X6491611Y-7328079D01*
X6491611Y-7328079D02*
X6501134Y-7309031D01*
X6501134Y-7309031D02*
X6510658Y-7280460D01*
X6510658Y-7280460D02*
X6520182Y-7232841D01*
X6520182Y-7232841D02*
X6520182Y-7194746D01*
X6520182Y-7194746D02*
X6510658Y-7147127D01*
X6510658Y-7147127D02*
X6501134Y-7118555D01*
X6501134Y-7118555D02*
X6491611Y-7099508D01*
X6491611Y-7099508D02*
X6472563Y-7070936D01*
X6472563Y-7070936D02*
X6463039Y-7061412D01*
D13*
X1387500Y-7407500D02*
X1497500Y-7517500D01*
X1497500Y-7407500D02*
X1387500Y-7517500D01*
X1497500Y-7462500D02*
G75*
G02*
X1387500Y-7462500I-55000J0D01*
G01*
X1387500Y-7462500D02*
G75*
G02*
X1497500Y-7462500I55000J0D01*
G01*
D11*
X1863039Y-7553984D02*
X1748753Y-7553984D01*
X1805896Y-7553984D02*
X1805896Y-7353984D01*
X1805896Y-7353984D02*
X1786848Y-7382555D01*
X1786848Y-7382555D02*
X1767801Y-7401603D01*
X1767801Y-7401603D02*
X1748753Y-7411127D01*
X1948753Y-7534936D02*
X1958277Y-7544460D01*
X1958277Y-7544460D02*
X1948753Y-7553984D01*
X1948753Y-7553984D02*
X1939229Y-7544460D01*
X1939229Y-7544460D02*
X1948753Y-7534936D01*
X1948753Y-7534936D02*
X1948753Y-7553984D01*
X2148753Y-7553984D02*
X2034467Y-7553984D01*
X2091610Y-7553984D02*
X2091610Y-7353984D01*
X2091610Y-7353984D02*
X2072562Y-7382555D01*
X2072562Y-7382555D02*
X2053515Y-7401603D01*
X2053515Y-7401603D02*
X2034467Y-7411127D01*
X2272563Y-7353984D02*
X2291610Y-7353984D01*
X2291610Y-7353984D02*
X2310658Y-7363508D01*
X2310658Y-7363508D02*
X2320182Y-7373031D01*
X2320182Y-7373031D02*
X2329705Y-7392079D01*
X2329705Y-7392079D02*
X2339229Y-7430174D01*
X2339229Y-7430174D02*
X2339229Y-7477793D01*
X2339229Y-7477793D02*
X2329705Y-7515888D01*
X2329705Y-7515888D02*
X2320182Y-7534936D01*
X2320182Y-7534936D02*
X2310658Y-7544460D01*
X2310658Y-7544460D02*
X2291610Y-7553984D01*
X2291610Y-7553984D02*
X2272563Y-7553984D01*
X2272563Y-7553984D02*
X2253515Y-7544460D01*
X2253515Y-7544460D02*
X2243991Y-7534936D01*
X2243991Y-7534936D02*
X2234467Y-7515888D01*
X2234467Y-7515888D02*
X2224944Y-7477793D01*
X2224944Y-7477793D02*
X2224944Y-7430174D01*
X2224944Y-7430174D02*
X2234467Y-7392079D01*
X2234467Y-7392079D02*
X2243991Y-7373031D01*
X2243991Y-7373031D02*
X2253515Y-7363508D01*
X2253515Y-7363508D02*
X2272563Y-7353984D01*
X2463039Y-7353984D02*
X2482086Y-7353984D01*
X2482086Y-7353984D02*
X2501134Y-7363508D01*
X2501134Y-7363508D02*
X2510658Y-7373031D01*
X2510658Y-7373031D02*
X2520182Y-7392079D01*
X2520182Y-7392079D02*
X2529705Y-7430174D01*
X2529705Y-7430174D02*
X2529705Y-7477793D01*
X2529705Y-7477793D02*
X2520182Y-7515888D01*
X2520182Y-7515888D02*
X2510658Y-7534936D01*
X2510658Y-7534936D02*
X2501134Y-7544460D01*
X2501134Y-7544460D02*
X2482086Y-7553984D01*
X2482086Y-7553984D02*
X2463039Y-7553984D01*
X2463039Y-7553984D02*
X2443991Y-7544460D01*
X2443991Y-7544460D02*
X2434467Y-7534936D01*
X2434467Y-7534936D02*
X2424944Y-7515888D01*
X2424944Y-7515888D02*
X2415420Y-7477793D01*
X2415420Y-7477793D02*
X2415420Y-7430174D01*
X2415420Y-7430174D02*
X2424944Y-7392079D01*
X2424944Y-7392079D02*
X2434467Y-7373031D01*
X2434467Y-7373031D02*
X2443991Y-7363508D01*
X2443991Y-7363508D02*
X2463039Y-7353984D01*
X2615420Y-7553984D02*
X2615420Y-7420650D01*
X2615420Y-7439698D02*
X2624944Y-7430174D01*
X2624944Y-7430174D02*
X2643991Y-7420650D01*
X2643991Y-7420650D02*
X2672563Y-7420650D01*
X2672563Y-7420650D02*
X2691610Y-7430174D01*
X2691610Y-7430174D02*
X2701134Y-7449222D01*
X2701134Y-7449222D02*
X2701134Y-7553984D01*
X2701134Y-7449222D02*
X2710658Y-7430174D01*
X2710658Y-7430174D02*
X2729705Y-7420650D01*
X2729705Y-7420650D02*
X2758277Y-7420650D01*
X2758277Y-7420650D02*
X2777325Y-7430174D01*
X2777325Y-7430174D02*
X2786848Y-7449222D01*
X2786848Y-7449222D02*
X2786848Y-7553984D01*
X2882086Y-7553984D02*
X2882086Y-7420650D01*
X2882086Y-7439698D02*
X2891610Y-7430174D01*
X2891610Y-7430174D02*
X2910658Y-7420650D01*
X2910658Y-7420650D02*
X2939229Y-7420650D01*
X2939229Y-7420650D02*
X2958277Y-7430174D01*
X2958277Y-7430174D02*
X2967801Y-7449222D01*
X2967801Y-7449222D02*
X2967801Y-7553984D01*
X2967801Y-7449222D02*
X2977324Y-7430174D01*
X2977324Y-7430174D02*
X2996372Y-7420650D01*
X2996372Y-7420650D02*
X3024943Y-7420650D01*
X3024943Y-7420650D02*
X3043991Y-7430174D01*
X3043991Y-7430174D02*
X3053515Y-7449222D01*
X3053515Y-7449222D02*
X3053515Y-7553984D01*
X3443991Y-7344460D02*
X3272563Y-7601603D01*
X3701134Y-7353984D02*
X3720182Y-7353984D01*
X3720182Y-7353984D02*
X3739229Y-7363508D01*
X3739229Y-7363508D02*
X3748753Y-7373031D01*
X3748753Y-7373031D02*
X3758277Y-7392079D01*
X3758277Y-7392079D02*
X3767801Y-7430174D01*
X3767801Y-7430174D02*
X3767801Y-7477793D01*
X3767801Y-7477793D02*
X3758277Y-7515888D01*
X3758277Y-7515888D02*
X3748753Y-7534936D01*
X3748753Y-7534936D02*
X3739229Y-7544460D01*
X3739229Y-7544460D02*
X3720182Y-7553984D01*
X3720182Y-7553984D02*
X3701134Y-7553984D01*
X3701134Y-7553984D02*
X3682086Y-7544460D01*
X3682086Y-7544460D02*
X3672563Y-7534936D01*
X3672563Y-7534936D02*
X3663039Y-7515888D01*
X3663039Y-7515888D02*
X3653515Y-7477793D01*
X3653515Y-7477793D02*
X3653515Y-7430174D01*
X3653515Y-7430174D02*
X3663039Y-7392079D01*
X3663039Y-7392079D02*
X3672563Y-7373031D01*
X3672563Y-7373031D02*
X3682086Y-7363508D01*
X3682086Y-7363508D02*
X3701134Y-7353984D01*
X3853515Y-7534936D02*
X3863039Y-7544460D01*
X3863039Y-7544460D02*
X3853515Y-7553984D01*
X3853515Y-7553984D02*
X3843991Y-7544460D01*
X3843991Y-7544460D02*
X3853515Y-7534936D01*
X3853515Y-7534936D02*
X3853515Y-7553984D01*
X3986848Y-7353984D02*
X4005896Y-7353984D01*
X4005896Y-7353984D02*
X4024944Y-7363508D01*
X4024944Y-7363508D02*
X4034467Y-7373031D01*
X4034467Y-7373031D02*
X4043991Y-7392079D01*
X4043991Y-7392079D02*
X4053515Y-7430174D01*
X4053515Y-7430174D02*
X4053515Y-7477793D01*
X4053515Y-7477793D02*
X4043991Y-7515888D01*
X4043991Y-7515888D02*
X4034467Y-7534936D01*
X4034467Y-7534936D02*
X4024944Y-7544460D01*
X4024944Y-7544460D02*
X4005896Y-7553984D01*
X4005896Y-7553984D02*
X3986848Y-7553984D01*
X3986848Y-7553984D02*
X3967801Y-7544460D01*
X3967801Y-7544460D02*
X3958277Y-7534936D01*
X3958277Y-7534936D02*
X3948753Y-7515888D01*
X3948753Y-7515888D02*
X3939229Y-7477793D01*
X3939229Y-7477793D02*
X3939229Y-7430174D01*
X3939229Y-7430174D02*
X3948753Y-7392079D01*
X3948753Y-7392079D02*
X3958277Y-7373031D01*
X3958277Y-7373031D02*
X3967801Y-7363508D01*
X3967801Y-7363508D02*
X3986848Y-7353984D01*
X4224944Y-7420650D02*
X4224944Y-7553984D01*
X4177325Y-7344460D02*
X4129706Y-7487317D01*
X4129706Y-7487317D02*
X4253515Y-7487317D01*
X4310658Y-7353984D02*
X4434468Y-7353984D01*
X4434468Y-7353984D02*
X4367801Y-7430174D01*
X4367801Y-7430174D02*
X4396372Y-7430174D01*
X4396372Y-7430174D02*
X4415420Y-7439698D01*
X4415420Y-7439698D02*
X4424944Y-7449222D01*
X4424944Y-7449222D02*
X4434468Y-7468269D01*
X4434468Y-7468269D02*
X4434468Y-7515888D01*
X4434468Y-7515888D02*
X4424944Y-7534936D01*
X4424944Y-7534936D02*
X4415420Y-7544460D01*
X4415420Y-7544460D02*
X4396372Y-7553984D01*
X4396372Y-7553984D02*
X4339229Y-7553984D01*
X4339229Y-7553984D02*
X4320182Y-7544460D01*
X4320182Y-7544460D02*
X4310658Y-7534936D01*
X4501134Y-7353984D02*
X4624944Y-7353984D01*
X4624944Y-7353984D02*
X4558277Y-7430174D01*
X4558277Y-7430174D02*
X4586849Y-7430174D01*
X4586849Y-7430174D02*
X4605896Y-7439698D01*
X4605896Y-7439698D02*
X4615420Y-7449222D01*
X4615420Y-7449222D02*
X4624944Y-7468269D01*
X4624944Y-7468269D02*
X4624944Y-7515888D01*
X4624944Y-7515888D02*
X4615420Y-7534936D01*
X4615420Y-7534936D02*
X4605896Y-7544460D01*
X4605896Y-7544460D02*
X4586849Y-7553984D01*
X4586849Y-7553984D02*
X4529706Y-7553984D01*
X4529706Y-7553984D02*
X4510658Y-7544460D01*
X4510658Y-7544460D02*
X4501134Y-7534936D01*
X4701134Y-7353984D02*
X4701134Y-7392079D01*
X4777325Y-7353984D02*
X4777325Y-7392079D01*
X5072563Y-7630174D02*
X5063039Y-7620650D01*
X5063039Y-7620650D02*
X5043991Y-7592079D01*
X5043991Y-7592079D02*
X5034468Y-7573031D01*
X5034468Y-7573031D02*
X5024944Y-7544460D01*
X5024944Y-7544460D02*
X5015420Y-7496841D01*
X5015420Y-7496841D02*
X5015420Y-7458746D01*
X5015420Y-7458746D02*
X5024944Y-7411127D01*
X5024944Y-7411127D02*
X5034468Y-7382555D01*
X5034468Y-7382555D02*
X5043991Y-7363508D01*
X5043991Y-7363508D02*
X5063039Y-7334936D01*
X5063039Y-7334936D02*
X5072563Y-7325412D01*
X5253515Y-7553984D02*
X5139230Y-7553984D01*
X5196372Y-7553984D02*
X5196372Y-7353984D01*
X5196372Y-7353984D02*
X5177325Y-7382555D01*
X5177325Y-7382555D02*
X5158277Y-7401603D01*
X5158277Y-7401603D02*
X5139230Y-7411127D01*
X5424944Y-7353984D02*
X5386849Y-7353984D01*
X5386849Y-7353984D02*
X5367801Y-7363508D01*
X5367801Y-7363508D02*
X5358277Y-7373031D01*
X5358277Y-7373031D02*
X5339230Y-7401603D01*
X5339230Y-7401603D02*
X5329706Y-7439698D01*
X5329706Y-7439698D02*
X5329706Y-7515888D01*
X5329706Y-7515888D02*
X5339230Y-7534936D01*
X5339230Y-7534936D02*
X5348753Y-7544460D01*
X5348753Y-7544460D02*
X5367801Y-7553984D01*
X5367801Y-7553984D02*
X5405896Y-7553984D01*
X5405896Y-7553984D02*
X5424944Y-7544460D01*
X5424944Y-7544460D02*
X5434468Y-7534936D01*
X5434468Y-7534936D02*
X5443991Y-7515888D01*
X5443991Y-7515888D02*
X5443991Y-7468269D01*
X5443991Y-7468269D02*
X5434468Y-7449222D01*
X5434468Y-7449222D02*
X5424944Y-7439698D01*
X5424944Y-7439698D02*
X5405896Y-7430174D01*
X5405896Y-7430174D02*
X5367801Y-7430174D01*
X5367801Y-7430174D02*
X5348753Y-7439698D01*
X5348753Y-7439698D02*
X5339230Y-7449222D01*
X5339230Y-7449222D02*
X5329706Y-7468269D01*
X5682087Y-7553984D02*
X5682087Y-7353984D01*
X5767801Y-7553984D02*
X5767801Y-7449222D01*
X5767801Y-7449222D02*
X5758277Y-7430174D01*
X5758277Y-7430174D02*
X5739230Y-7420650D01*
X5739230Y-7420650D02*
X5710658Y-7420650D01*
X5710658Y-7420650D02*
X5691610Y-7430174D01*
X5691610Y-7430174D02*
X5682087Y-7439698D01*
X5891610Y-7553984D02*
X5872563Y-7544460D01*
X5872563Y-7544460D02*
X5863039Y-7534936D01*
X5863039Y-7534936D02*
X5853515Y-7515888D01*
X5853515Y-7515888D02*
X5853515Y-7458746D01*
X5853515Y-7458746D02*
X5863039Y-7439698D01*
X5863039Y-7439698D02*
X5872563Y-7430174D01*
X5872563Y-7430174D02*
X5891610Y-7420650D01*
X5891610Y-7420650D02*
X5920182Y-7420650D01*
X5920182Y-7420650D02*
X5939230Y-7430174D01*
X5939230Y-7430174D02*
X5948753Y-7439698D01*
X5948753Y-7439698D02*
X5958277Y-7458746D01*
X5958277Y-7458746D02*
X5958277Y-7515888D01*
X5958277Y-7515888D02*
X5948753Y-7534936D01*
X5948753Y-7534936D02*
X5939230Y-7544460D01*
X5939230Y-7544460D02*
X5920182Y-7553984D01*
X5920182Y-7553984D02*
X5891610Y-7553984D01*
X6072563Y-7553984D02*
X6053515Y-7544460D01*
X6053515Y-7544460D02*
X6043991Y-7525412D01*
X6043991Y-7525412D02*
X6043991Y-7353984D01*
X6224944Y-7544460D02*
X6205896Y-7553984D01*
X6205896Y-7553984D02*
X6167801Y-7553984D01*
X6167801Y-7553984D02*
X6148753Y-7544460D01*
X6148753Y-7544460D02*
X6139230Y-7525412D01*
X6139230Y-7525412D02*
X6139230Y-7449222D01*
X6139230Y-7449222D02*
X6148753Y-7430174D01*
X6148753Y-7430174D02*
X6167801Y-7420650D01*
X6167801Y-7420650D02*
X6205896Y-7420650D01*
X6205896Y-7420650D02*
X6224944Y-7430174D01*
X6224944Y-7430174D02*
X6234468Y-7449222D01*
X6234468Y-7449222D02*
X6234468Y-7468269D01*
X6234468Y-7468269D02*
X6139230Y-7487317D01*
X6310658Y-7544460D02*
X6329706Y-7553984D01*
X6329706Y-7553984D02*
X6367801Y-7553984D01*
X6367801Y-7553984D02*
X6386849Y-7544460D01*
X6386849Y-7544460D02*
X6396372Y-7525412D01*
X6396372Y-7525412D02*
X6396372Y-7515888D01*
X6396372Y-7515888D02*
X6386849Y-7496841D01*
X6386849Y-7496841D02*
X6367801Y-7487317D01*
X6367801Y-7487317D02*
X6339230Y-7487317D01*
X6339230Y-7487317D02*
X6320182Y-7477793D01*
X6320182Y-7477793D02*
X6310658Y-7458746D01*
X6310658Y-7458746D02*
X6310658Y-7449222D01*
X6310658Y-7449222D02*
X6320182Y-7430174D01*
X6320182Y-7430174D02*
X6339230Y-7420650D01*
X6339230Y-7420650D02*
X6367801Y-7420650D01*
X6367801Y-7420650D02*
X6386849Y-7430174D01*
X6463039Y-7630174D02*
X6472563Y-7620650D01*
X6472563Y-7620650D02*
X6491611Y-7592079D01*
X6491611Y-7592079D02*
X6501134Y-7573031D01*
X6501134Y-7573031D02*
X6510658Y-7544460D01*
X6510658Y-7544460D02*
X6520182Y-7496841D01*
X6520182Y-7496841D02*
X6520182Y-7458746D01*
X6520182Y-7458746D02*
X6510658Y-7411127D01*
X6510658Y-7411127D02*
X6501134Y-7382555D01*
X6501134Y-7382555D02*
X6491611Y-7363508D01*
X6491611Y-7363508D02*
X6472563Y-7334936D01*
X6472563Y-7334936D02*
X6463039Y-7325412D01*
D14*
X1377500Y-7666500D02*
X1497500Y-7786500D01*
X1497500Y-7666500D02*
X1377500Y-7786500D01*
X1437500Y-7666500D02*
X1437500Y-7786500D01*
X1377500Y-7726500D02*
X1497500Y-7726500D01*
D11*
X1863039Y-7817984D02*
X1748753Y-7817984D01*
X1805896Y-7817984D02*
X1805896Y-7617984D01*
X1805896Y-7617984D02*
X1786848Y-7646555D01*
X1786848Y-7646555D02*
X1767801Y-7665603D01*
X1767801Y-7665603D02*
X1748753Y-7675127D01*
X1948753Y-7798936D02*
X1958277Y-7808460D01*
X1958277Y-7808460D02*
X1948753Y-7817984D01*
X1948753Y-7817984D02*
X1939229Y-7808460D01*
X1939229Y-7808460D02*
X1948753Y-7798936D01*
X1948753Y-7798936D02*
X1948753Y-7817984D01*
X2034467Y-7637031D02*
X2043991Y-7627508D01*
X2043991Y-7627508D02*
X2063039Y-7617984D01*
X2063039Y-7617984D02*
X2110658Y-7617984D01*
X2110658Y-7617984D02*
X2129705Y-7627508D01*
X2129705Y-7627508D02*
X2139229Y-7637031D01*
X2139229Y-7637031D02*
X2148753Y-7656079D01*
X2148753Y-7656079D02*
X2148753Y-7675127D01*
X2148753Y-7675127D02*
X2139229Y-7703698D01*
X2139229Y-7703698D02*
X2024943Y-7817984D01*
X2024943Y-7817984D02*
X2148753Y-7817984D01*
X2272563Y-7617984D02*
X2291610Y-7617984D01*
X2291610Y-7617984D02*
X2310658Y-7627508D01*
X2310658Y-7627508D02*
X2320182Y-7637031D01*
X2320182Y-7637031D02*
X2329705Y-7656079D01*
X2329705Y-7656079D02*
X2339229Y-7694174D01*
X2339229Y-7694174D02*
X2339229Y-7741793D01*
X2339229Y-7741793D02*
X2329705Y-7779888D01*
X2329705Y-7779888D02*
X2320182Y-7798936D01*
X2320182Y-7798936D02*
X2310658Y-7808460D01*
X2310658Y-7808460D02*
X2291610Y-7817984D01*
X2291610Y-7817984D02*
X2272563Y-7817984D01*
X2272563Y-7817984D02*
X2253515Y-7808460D01*
X2253515Y-7808460D02*
X2243991Y-7798936D01*
X2243991Y-7798936D02*
X2234467Y-7779888D01*
X2234467Y-7779888D02*
X2224944Y-7741793D01*
X2224944Y-7741793D02*
X2224944Y-7694174D01*
X2224944Y-7694174D02*
X2234467Y-7656079D01*
X2234467Y-7656079D02*
X2243991Y-7637031D01*
X2243991Y-7637031D02*
X2253515Y-7627508D01*
X2253515Y-7627508D02*
X2272563Y-7617984D01*
X2463039Y-7617984D02*
X2482086Y-7617984D01*
X2482086Y-7617984D02*
X2501134Y-7627508D01*
X2501134Y-7627508D02*
X2510658Y-7637031D01*
X2510658Y-7637031D02*
X2520182Y-7656079D01*
X2520182Y-7656079D02*
X2529705Y-7694174D01*
X2529705Y-7694174D02*
X2529705Y-7741793D01*
X2529705Y-7741793D02*
X2520182Y-7779888D01*
X2520182Y-7779888D02*
X2510658Y-7798936D01*
X2510658Y-7798936D02*
X2501134Y-7808460D01*
X2501134Y-7808460D02*
X2482086Y-7817984D01*
X2482086Y-7817984D02*
X2463039Y-7817984D01*
X2463039Y-7817984D02*
X2443991Y-7808460D01*
X2443991Y-7808460D02*
X2434467Y-7798936D01*
X2434467Y-7798936D02*
X2424944Y-7779888D01*
X2424944Y-7779888D02*
X2415420Y-7741793D01*
X2415420Y-7741793D02*
X2415420Y-7694174D01*
X2415420Y-7694174D02*
X2424944Y-7656079D01*
X2424944Y-7656079D02*
X2434467Y-7637031D01*
X2434467Y-7637031D02*
X2443991Y-7627508D01*
X2443991Y-7627508D02*
X2463039Y-7617984D01*
X2615420Y-7817984D02*
X2615420Y-7684650D01*
X2615420Y-7703698D02*
X2624944Y-7694174D01*
X2624944Y-7694174D02*
X2643991Y-7684650D01*
X2643991Y-7684650D02*
X2672563Y-7684650D01*
X2672563Y-7684650D02*
X2691610Y-7694174D01*
X2691610Y-7694174D02*
X2701134Y-7713222D01*
X2701134Y-7713222D02*
X2701134Y-7817984D01*
X2701134Y-7713222D02*
X2710658Y-7694174D01*
X2710658Y-7694174D02*
X2729705Y-7684650D01*
X2729705Y-7684650D02*
X2758277Y-7684650D01*
X2758277Y-7684650D02*
X2777325Y-7694174D01*
X2777325Y-7694174D02*
X2786848Y-7713222D01*
X2786848Y-7713222D02*
X2786848Y-7817984D01*
X2882086Y-7817984D02*
X2882086Y-7684650D01*
X2882086Y-7703698D02*
X2891610Y-7694174D01*
X2891610Y-7694174D02*
X2910658Y-7684650D01*
X2910658Y-7684650D02*
X2939229Y-7684650D01*
X2939229Y-7684650D02*
X2958277Y-7694174D01*
X2958277Y-7694174D02*
X2967801Y-7713222D01*
X2967801Y-7713222D02*
X2967801Y-7817984D01*
X2967801Y-7713222D02*
X2977324Y-7694174D01*
X2977324Y-7694174D02*
X2996372Y-7684650D01*
X2996372Y-7684650D02*
X3024943Y-7684650D01*
X3024943Y-7684650D02*
X3043991Y-7694174D01*
X3043991Y-7694174D02*
X3053515Y-7713222D01*
X3053515Y-7713222D02*
X3053515Y-7817984D01*
X3443991Y-7608460D02*
X3272563Y-7865603D01*
X3701134Y-7617984D02*
X3720182Y-7617984D01*
X3720182Y-7617984D02*
X3739229Y-7627508D01*
X3739229Y-7627508D02*
X3748753Y-7637031D01*
X3748753Y-7637031D02*
X3758277Y-7656079D01*
X3758277Y-7656079D02*
X3767801Y-7694174D01*
X3767801Y-7694174D02*
X3767801Y-7741793D01*
X3767801Y-7741793D02*
X3758277Y-7779888D01*
X3758277Y-7779888D02*
X3748753Y-7798936D01*
X3748753Y-7798936D02*
X3739229Y-7808460D01*
X3739229Y-7808460D02*
X3720182Y-7817984D01*
X3720182Y-7817984D02*
X3701134Y-7817984D01*
X3701134Y-7817984D02*
X3682086Y-7808460D01*
X3682086Y-7808460D02*
X3672563Y-7798936D01*
X3672563Y-7798936D02*
X3663039Y-7779888D01*
X3663039Y-7779888D02*
X3653515Y-7741793D01*
X3653515Y-7741793D02*
X3653515Y-7694174D01*
X3653515Y-7694174D02*
X3663039Y-7656079D01*
X3663039Y-7656079D02*
X3672563Y-7637031D01*
X3672563Y-7637031D02*
X3682086Y-7627508D01*
X3682086Y-7627508D02*
X3701134Y-7617984D01*
X3853515Y-7798936D02*
X3863039Y-7808460D01*
X3863039Y-7808460D02*
X3853515Y-7817984D01*
X3853515Y-7817984D02*
X3843991Y-7808460D01*
X3843991Y-7808460D02*
X3853515Y-7798936D01*
X3853515Y-7798936D02*
X3853515Y-7817984D01*
X3986848Y-7617984D02*
X4005896Y-7617984D01*
X4005896Y-7617984D02*
X4024944Y-7627508D01*
X4024944Y-7627508D02*
X4034467Y-7637031D01*
X4034467Y-7637031D02*
X4043991Y-7656079D01*
X4043991Y-7656079D02*
X4053515Y-7694174D01*
X4053515Y-7694174D02*
X4053515Y-7741793D01*
X4053515Y-7741793D02*
X4043991Y-7779888D01*
X4043991Y-7779888D02*
X4034467Y-7798936D01*
X4034467Y-7798936D02*
X4024944Y-7808460D01*
X4024944Y-7808460D02*
X4005896Y-7817984D01*
X4005896Y-7817984D02*
X3986848Y-7817984D01*
X3986848Y-7817984D02*
X3967801Y-7808460D01*
X3967801Y-7808460D02*
X3958277Y-7798936D01*
X3958277Y-7798936D02*
X3948753Y-7779888D01*
X3948753Y-7779888D02*
X3939229Y-7741793D01*
X3939229Y-7741793D02*
X3939229Y-7694174D01*
X3939229Y-7694174D02*
X3948753Y-7656079D01*
X3948753Y-7656079D02*
X3958277Y-7637031D01*
X3958277Y-7637031D02*
X3967801Y-7627508D01*
X3967801Y-7627508D02*
X3986848Y-7617984D01*
X4224944Y-7684650D02*
X4224944Y-7817984D01*
X4177325Y-7608460D02*
X4129706Y-7751317D01*
X4129706Y-7751317D02*
X4253515Y-7751317D01*
X4310658Y-7617984D02*
X4443991Y-7617984D01*
X4443991Y-7617984D02*
X4358277Y-7817984D01*
X4510658Y-7637031D02*
X4520182Y-7627508D01*
X4520182Y-7627508D02*
X4539229Y-7617984D01*
X4539229Y-7617984D02*
X4586849Y-7617984D01*
X4586849Y-7617984D02*
X4605896Y-7627508D01*
X4605896Y-7627508D02*
X4615420Y-7637031D01*
X4615420Y-7637031D02*
X4624944Y-7656079D01*
X4624944Y-7656079D02*
X4624944Y-7675127D01*
X4624944Y-7675127D02*
X4615420Y-7703698D01*
X4615420Y-7703698D02*
X4501134Y-7817984D01*
X4501134Y-7817984D02*
X4624944Y-7817984D01*
X4701134Y-7617984D02*
X4701134Y-7656079D01*
X4777325Y-7617984D02*
X4777325Y-7656079D01*
X5072563Y-7894174D02*
X5063039Y-7884650D01*
X5063039Y-7884650D02*
X5043991Y-7856079D01*
X5043991Y-7856079D02*
X5034468Y-7837031D01*
X5034468Y-7837031D02*
X5024944Y-7808460D01*
X5024944Y-7808460D02*
X5015420Y-7760841D01*
X5015420Y-7760841D02*
X5015420Y-7722746D01*
X5015420Y-7722746D02*
X5024944Y-7675127D01*
X5024944Y-7675127D02*
X5034468Y-7646555D01*
X5034468Y-7646555D02*
X5043991Y-7627508D01*
X5043991Y-7627508D02*
X5063039Y-7598936D01*
X5063039Y-7598936D02*
X5072563Y-7589412D01*
X5177325Y-7703698D02*
X5158277Y-7694174D01*
X5158277Y-7694174D02*
X5148753Y-7684650D01*
X5148753Y-7684650D02*
X5139230Y-7665603D01*
X5139230Y-7665603D02*
X5139230Y-7656079D01*
X5139230Y-7656079D02*
X5148753Y-7637031D01*
X5148753Y-7637031D02*
X5158277Y-7627508D01*
X5158277Y-7627508D02*
X5177325Y-7617984D01*
X5177325Y-7617984D02*
X5215420Y-7617984D01*
X5215420Y-7617984D02*
X5234468Y-7627508D01*
X5234468Y-7627508D02*
X5243991Y-7637031D01*
X5243991Y-7637031D02*
X5253515Y-7656079D01*
X5253515Y-7656079D02*
X5253515Y-7665603D01*
X5253515Y-7665603D02*
X5243991Y-7684650D01*
X5243991Y-7684650D02*
X5234468Y-7694174D01*
X5234468Y-7694174D02*
X5215420Y-7703698D01*
X5215420Y-7703698D02*
X5177325Y-7703698D01*
X5177325Y-7703698D02*
X5158277Y-7713222D01*
X5158277Y-7713222D02*
X5148753Y-7722746D01*
X5148753Y-7722746D02*
X5139230Y-7741793D01*
X5139230Y-7741793D02*
X5139230Y-7779888D01*
X5139230Y-7779888D02*
X5148753Y-7798936D01*
X5148753Y-7798936D02*
X5158277Y-7808460D01*
X5158277Y-7808460D02*
X5177325Y-7817984D01*
X5177325Y-7817984D02*
X5215420Y-7817984D01*
X5215420Y-7817984D02*
X5234468Y-7808460D01*
X5234468Y-7808460D02*
X5243991Y-7798936D01*
X5243991Y-7798936D02*
X5253515Y-7779888D01*
X5253515Y-7779888D02*
X5253515Y-7741793D01*
X5253515Y-7741793D02*
X5243991Y-7722746D01*
X5243991Y-7722746D02*
X5234468Y-7713222D01*
X5234468Y-7713222D02*
X5215420Y-7703698D01*
X5491611Y-7817984D02*
X5491611Y-7617984D01*
X5577325Y-7817984D02*
X5577325Y-7713222D01*
X5577325Y-7713222D02*
X5567801Y-7694174D01*
X5567801Y-7694174D02*
X5548753Y-7684650D01*
X5548753Y-7684650D02*
X5520182Y-7684650D01*
X5520182Y-7684650D02*
X5501134Y-7694174D01*
X5501134Y-7694174D02*
X5491611Y-7703698D01*
X5701134Y-7817984D02*
X5682087Y-7808460D01*
X5682087Y-7808460D02*
X5672563Y-7798936D01*
X5672563Y-7798936D02*
X5663039Y-7779888D01*
X5663039Y-7779888D02*
X5663039Y-7722746D01*
X5663039Y-7722746D02*
X5672563Y-7703698D01*
X5672563Y-7703698D02*
X5682087Y-7694174D01*
X5682087Y-7694174D02*
X5701134Y-7684650D01*
X5701134Y-7684650D02*
X5729706Y-7684650D01*
X5729706Y-7684650D02*
X5748753Y-7694174D01*
X5748753Y-7694174D02*
X5758277Y-7703698D01*
X5758277Y-7703698D02*
X5767801Y-7722746D01*
X5767801Y-7722746D02*
X5767801Y-7779888D01*
X5767801Y-7779888D02*
X5758277Y-7798936D01*
X5758277Y-7798936D02*
X5748753Y-7808460D01*
X5748753Y-7808460D02*
X5729706Y-7817984D01*
X5729706Y-7817984D02*
X5701134Y-7817984D01*
X5882087Y-7817984D02*
X5863039Y-7808460D01*
X5863039Y-7808460D02*
X5853515Y-7789412D01*
X5853515Y-7789412D02*
X5853515Y-7617984D01*
X6034468Y-7808460D02*
X6015420Y-7817984D01*
X6015420Y-7817984D02*
X5977325Y-7817984D01*
X5977325Y-7817984D02*
X5958277Y-7808460D01*
X5958277Y-7808460D02*
X5948753Y-7789412D01*
X5948753Y-7789412D02*
X5948753Y-7713222D01*
X5948753Y-7713222D02*
X5958277Y-7694174D01*
X5958277Y-7694174D02*
X5977325Y-7684650D01*
X5977325Y-7684650D02*
X6015420Y-7684650D01*
X6015420Y-7684650D02*
X6034468Y-7694174D01*
X6034468Y-7694174D02*
X6043991Y-7713222D01*
X6043991Y-7713222D02*
X6043991Y-7732269D01*
X6043991Y-7732269D02*
X5948753Y-7751317D01*
X6120182Y-7808460D02*
X6139230Y-7817984D01*
X6139230Y-7817984D02*
X6177325Y-7817984D01*
X6177325Y-7817984D02*
X6196372Y-7808460D01*
X6196372Y-7808460D02*
X6205896Y-7789412D01*
X6205896Y-7789412D02*
X6205896Y-7779888D01*
X6205896Y-7779888D02*
X6196372Y-7760841D01*
X6196372Y-7760841D02*
X6177325Y-7751317D01*
X6177325Y-7751317D02*
X6148753Y-7751317D01*
X6148753Y-7751317D02*
X6129706Y-7741793D01*
X6129706Y-7741793D02*
X6120182Y-7722746D01*
X6120182Y-7722746D02*
X6120182Y-7713222D01*
X6120182Y-7713222D02*
X6129706Y-7694174D01*
X6129706Y-7694174D02*
X6148753Y-7684650D01*
X6148753Y-7684650D02*
X6177325Y-7684650D01*
X6177325Y-7684650D02*
X6196372Y-7694174D01*
X6272563Y-7894174D02*
X6282087Y-7884650D01*
X6282087Y-7884650D02*
X6301134Y-7856079D01*
X6301134Y-7856079D02*
X6310658Y-7837031D01*
X6310658Y-7837031D02*
X6320182Y-7808460D01*
X6320182Y-7808460D02*
X6329706Y-7760841D01*
X6329706Y-7760841D02*
X6329706Y-7722746D01*
X6329706Y-7722746D02*
X6320182Y-7675127D01*
X6320182Y-7675127D02*
X6310658Y-7646555D01*
X6310658Y-7646555D02*
X6301134Y-7627508D01*
X6301134Y-7627508D02*
X6282087Y-7598936D01*
X6282087Y-7598936D02*
X6272563Y-7589412D01*
X1297500Y-7890500D02*
X1497500Y-8090500D01*
X1497500Y-7890500D02*
X1297500Y-8090500D01*
X1468211Y-8061211D02*
X1468211Y-7919789D01*
X1326789Y-7919789D01*
X1326789Y-8061211D01*
X1468211Y-8061211D01*
X1739229Y-7881984D02*
X1863039Y-7881984D01*
X1863039Y-7881984D02*
X1796372Y-7958174D01*
X1796372Y-7958174D02*
X1824943Y-7958174D01*
X1824943Y-7958174D02*
X1843991Y-7967698D01*
X1843991Y-7967698D02*
X1853515Y-7977222D01*
X1853515Y-7977222D02*
X1863039Y-7996269D01*
X1863039Y-7996269D02*
X1863039Y-8043888D01*
X1863039Y-8043888D02*
X1853515Y-8062936D01*
X1853515Y-8062936D02*
X1843991Y-8072460D01*
X1843991Y-8072460D02*
X1824943Y-8081984D01*
X1824943Y-8081984D02*
X1767801Y-8081984D01*
X1767801Y-8081984D02*
X1748753Y-8072460D01*
X1748753Y-8072460D02*
X1739229Y-8062936D01*
X1948753Y-8062936D02*
X1958277Y-8072460D01*
X1958277Y-8072460D02*
X1948753Y-8081984D01*
X1948753Y-8081984D02*
X1939229Y-8072460D01*
X1939229Y-8072460D02*
X1948753Y-8062936D01*
X1948753Y-8062936D02*
X1948753Y-8081984D01*
X2082086Y-7881984D02*
X2101134Y-7881984D01*
X2101134Y-7881984D02*
X2120182Y-7891508D01*
X2120182Y-7891508D02*
X2129705Y-7901031D01*
X2129705Y-7901031D02*
X2139229Y-7920079D01*
X2139229Y-7920079D02*
X2148753Y-7958174D01*
X2148753Y-7958174D02*
X2148753Y-8005793D01*
X2148753Y-8005793D02*
X2139229Y-8043888D01*
X2139229Y-8043888D02*
X2129705Y-8062936D01*
X2129705Y-8062936D02*
X2120182Y-8072460D01*
X2120182Y-8072460D02*
X2101134Y-8081984D01*
X2101134Y-8081984D02*
X2082086Y-8081984D01*
X2082086Y-8081984D02*
X2063039Y-8072460D01*
X2063039Y-8072460D02*
X2053515Y-8062936D01*
X2053515Y-8062936D02*
X2043991Y-8043888D01*
X2043991Y-8043888D02*
X2034467Y-8005793D01*
X2034467Y-8005793D02*
X2034467Y-7958174D01*
X2034467Y-7958174D02*
X2043991Y-7920079D01*
X2043991Y-7920079D02*
X2053515Y-7901031D01*
X2053515Y-7901031D02*
X2063039Y-7891508D01*
X2063039Y-7891508D02*
X2082086Y-7881984D01*
X2272563Y-7881984D02*
X2291610Y-7881984D01*
X2291610Y-7881984D02*
X2310658Y-7891508D01*
X2310658Y-7891508D02*
X2320182Y-7901031D01*
X2320182Y-7901031D02*
X2329705Y-7920079D01*
X2329705Y-7920079D02*
X2339229Y-7958174D01*
X2339229Y-7958174D02*
X2339229Y-8005793D01*
X2339229Y-8005793D02*
X2329705Y-8043888D01*
X2329705Y-8043888D02*
X2320182Y-8062936D01*
X2320182Y-8062936D02*
X2310658Y-8072460D01*
X2310658Y-8072460D02*
X2291610Y-8081984D01*
X2291610Y-8081984D02*
X2272563Y-8081984D01*
X2272563Y-8081984D02*
X2253515Y-8072460D01*
X2253515Y-8072460D02*
X2243991Y-8062936D01*
X2243991Y-8062936D02*
X2234467Y-8043888D01*
X2234467Y-8043888D02*
X2224944Y-8005793D01*
X2224944Y-8005793D02*
X2224944Y-7958174D01*
X2224944Y-7958174D02*
X2234467Y-7920079D01*
X2234467Y-7920079D02*
X2243991Y-7901031D01*
X2243991Y-7901031D02*
X2253515Y-7891508D01*
X2253515Y-7891508D02*
X2272563Y-7881984D01*
X2463039Y-7881984D02*
X2482086Y-7881984D01*
X2482086Y-7881984D02*
X2501134Y-7891508D01*
X2501134Y-7891508D02*
X2510658Y-7901031D01*
X2510658Y-7901031D02*
X2520182Y-7920079D01*
X2520182Y-7920079D02*
X2529705Y-7958174D01*
X2529705Y-7958174D02*
X2529705Y-8005793D01*
X2529705Y-8005793D02*
X2520182Y-8043888D01*
X2520182Y-8043888D02*
X2510658Y-8062936D01*
X2510658Y-8062936D02*
X2501134Y-8072460D01*
X2501134Y-8072460D02*
X2482086Y-8081984D01*
X2482086Y-8081984D02*
X2463039Y-8081984D01*
X2463039Y-8081984D02*
X2443991Y-8072460D01*
X2443991Y-8072460D02*
X2434467Y-8062936D01*
X2434467Y-8062936D02*
X2424944Y-8043888D01*
X2424944Y-8043888D02*
X2415420Y-8005793D01*
X2415420Y-8005793D02*
X2415420Y-7958174D01*
X2415420Y-7958174D02*
X2424944Y-7920079D01*
X2424944Y-7920079D02*
X2434467Y-7901031D01*
X2434467Y-7901031D02*
X2443991Y-7891508D01*
X2443991Y-7891508D02*
X2463039Y-7881984D01*
X2615420Y-8081984D02*
X2615420Y-7948650D01*
X2615420Y-7967698D02*
X2624944Y-7958174D01*
X2624944Y-7958174D02*
X2643991Y-7948650D01*
X2643991Y-7948650D02*
X2672563Y-7948650D01*
X2672563Y-7948650D02*
X2691610Y-7958174D01*
X2691610Y-7958174D02*
X2701134Y-7977222D01*
X2701134Y-7977222D02*
X2701134Y-8081984D01*
X2701134Y-7977222D02*
X2710658Y-7958174D01*
X2710658Y-7958174D02*
X2729705Y-7948650D01*
X2729705Y-7948650D02*
X2758277Y-7948650D01*
X2758277Y-7948650D02*
X2777325Y-7958174D01*
X2777325Y-7958174D02*
X2786848Y-7977222D01*
X2786848Y-7977222D02*
X2786848Y-8081984D01*
X2882086Y-8081984D02*
X2882086Y-7948650D01*
X2882086Y-7967698D02*
X2891610Y-7958174D01*
X2891610Y-7958174D02*
X2910658Y-7948650D01*
X2910658Y-7948650D02*
X2939229Y-7948650D01*
X2939229Y-7948650D02*
X2958277Y-7958174D01*
X2958277Y-7958174D02*
X2967801Y-7977222D01*
X2967801Y-7977222D02*
X2967801Y-8081984D01*
X2967801Y-7977222D02*
X2977324Y-7958174D01*
X2977324Y-7958174D02*
X2996372Y-7948650D01*
X2996372Y-7948650D02*
X3024943Y-7948650D01*
X3024943Y-7948650D02*
X3043991Y-7958174D01*
X3043991Y-7958174D02*
X3053515Y-7977222D01*
X3053515Y-7977222D02*
X3053515Y-8081984D01*
X3443991Y-7872460D02*
X3272563Y-8129603D01*
X3701134Y-7881984D02*
X3720182Y-7881984D01*
X3720182Y-7881984D02*
X3739229Y-7891508D01*
X3739229Y-7891508D02*
X3748753Y-7901031D01*
X3748753Y-7901031D02*
X3758277Y-7920079D01*
X3758277Y-7920079D02*
X3767801Y-7958174D01*
X3767801Y-7958174D02*
X3767801Y-8005793D01*
X3767801Y-8005793D02*
X3758277Y-8043888D01*
X3758277Y-8043888D02*
X3748753Y-8062936D01*
X3748753Y-8062936D02*
X3739229Y-8072460D01*
X3739229Y-8072460D02*
X3720182Y-8081984D01*
X3720182Y-8081984D02*
X3701134Y-8081984D01*
X3701134Y-8081984D02*
X3682086Y-8072460D01*
X3682086Y-8072460D02*
X3672563Y-8062936D01*
X3672563Y-8062936D02*
X3663039Y-8043888D01*
X3663039Y-8043888D02*
X3653515Y-8005793D01*
X3653515Y-8005793D02*
X3653515Y-7958174D01*
X3653515Y-7958174D02*
X3663039Y-7920079D01*
X3663039Y-7920079D02*
X3672563Y-7901031D01*
X3672563Y-7901031D02*
X3682086Y-7891508D01*
X3682086Y-7891508D02*
X3701134Y-7881984D01*
X3853515Y-8062936D02*
X3863039Y-8072460D01*
X3863039Y-8072460D02*
X3853515Y-8081984D01*
X3853515Y-8081984D02*
X3843991Y-8072460D01*
X3843991Y-8072460D02*
X3853515Y-8062936D01*
X3853515Y-8062936D02*
X3853515Y-8081984D01*
X4053515Y-8081984D02*
X3939229Y-8081984D01*
X3996372Y-8081984D02*
X3996372Y-7881984D01*
X3996372Y-7881984D02*
X3977325Y-7910555D01*
X3977325Y-7910555D02*
X3958277Y-7929603D01*
X3958277Y-7929603D02*
X3939229Y-7939127D01*
X4243991Y-8081984D02*
X4129706Y-8081984D01*
X4186848Y-8081984D02*
X4186848Y-7881984D01*
X4186848Y-7881984D02*
X4167801Y-7910555D01*
X4167801Y-7910555D02*
X4148753Y-7929603D01*
X4148753Y-7929603D02*
X4129706Y-7939127D01*
X4358277Y-7967698D02*
X4339229Y-7958174D01*
X4339229Y-7958174D02*
X4329706Y-7948650D01*
X4329706Y-7948650D02*
X4320182Y-7929603D01*
X4320182Y-7929603D02*
X4320182Y-7920079D01*
X4320182Y-7920079D02*
X4329706Y-7901031D01*
X4329706Y-7901031D02*
X4339229Y-7891508D01*
X4339229Y-7891508D02*
X4358277Y-7881984D01*
X4358277Y-7881984D02*
X4396372Y-7881984D01*
X4396372Y-7881984D02*
X4415420Y-7891508D01*
X4415420Y-7891508D02*
X4424944Y-7901031D01*
X4424944Y-7901031D02*
X4434468Y-7920079D01*
X4434468Y-7920079D02*
X4434468Y-7929603D01*
X4434468Y-7929603D02*
X4424944Y-7948650D01*
X4424944Y-7948650D02*
X4415420Y-7958174D01*
X4415420Y-7958174D02*
X4396372Y-7967698D01*
X4396372Y-7967698D02*
X4358277Y-7967698D01*
X4358277Y-7967698D02*
X4339229Y-7977222D01*
X4339229Y-7977222D02*
X4329706Y-7986746D01*
X4329706Y-7986746D02*
X4320182Y-8005793D01*
X4320182Y-8005793D02*
X4320182Y-8043888D01*
X4320182Y-8043888D02*
X4329706Y-8062936D01*
X4329706Y-8062936D02*
X4339229Y-8072460D01*
X4339229Y-8072460D02*
X4358277Y-8081984D01*
X4358277Y-8081984D02*
X4396372Y-8081984D01*
X4396372Y-8081984D02*
X4415420Y-8072460D01*
X4415420Y-8072460D02*
X4424944Y-8062936D01*
X4424944Y-8062936D02*
X4434468Y-8043888D01*
X4434468Y-8043888D02*
X4434468Y-8005793D01*
X4434468Y-8005793D02*
X4424944Y-7986746D01*
X4424944Y-7986746D02*
X4415420Y-7977222D01*
X4415420Y-7977222D02*
X4396372Y-7967698D01*
X4624944Y-8081984D02*
X4510658Y-8081984D01*
X4567801Y-8081984D02*
X4567801Y-7881984D01*
X4567801Y-7881984D02*
X4548753Y-7910555D01*
X4548753Y-7910555D02*
X4529706Y-7929603D01*
X4529706Y-7929603D02*
X4510658Y-7939127D01*
X4701134Y-7881984D02*
X4701134Y-7920079D01*
X4777325Y-7881984D02*
X4777325Y-7920079D01*
X5072563Y-8158174D02*
X5063039Y-8148650D01*
X5063039Y-8148650D02*
X5043991Y-8120079D01*
X5043991Y-8120079D02*
X5034468Y-8101031D01*
X5034468Y-8101031D02*
X5024944Y-8072460D01*
X5024944Y-8072460D02*
X5015420Y-8024841D01*
X5015420Y-8024841D02*
X5015420Y-7986746D01*
X5015420Y-7986746D02*
X5024944Y-7939127D01*
X5024944Y-7939127D02*
X5034468Y-7910555D01*
X5034468Y-7910555D02*
X5043991Y-7891508D01*
X5043991Y-7891508D02*
X5063039Y-7862936D01*
X5063039Y-7862936D02*
X5072563Y-7853412D01*
X5139230Y-7901031D02*
X5148753Y-7891508D01*
X5148753Y-7891508D02*
X5167801Y-7881984D01*
X5167801Y-7881984D02*
X5215420Y-7881984D01*
X5215420Y-7881984D02*
X5234468Y-7891508D01*
X5234468Y-7891508D02*
X5243991Y-7901031D01*
X5243991Y-7901031D02*
X5253515Y-7920079D01*
X5253515Y-7920079D02*
X5253515Y-7939127D01*
X5253515Y-7939127D02*
X5243991Y-7967698D01*
X5243991Y-7967698D02*
X5129706Y-8081984D01*
X5129706Y-8081984D02*
X5253515Y-8081984D01*
X5491611Y-8081984D02*
X5491611Y-7881984D01*
X5577325Y-8081984D02*
X5577325Y-7977222D01*
X5577325Y-7977222D02*
X5567801Y-7958174D01*
X5567801Y-7958174D02*
X5548753Y-7948650D01*
X5548753Y-7948650D02*
X5520182Y-7948650D01*
X5520182Y-7948650D02*
X5501134Y-7958174D01*
X5501134Y-7958174D02*
X5491611Y-7967698D01*
X5701134Y-8081984D02*
X5682087Y-8072460D01*
X5682087Y-8072460D02*
X5672563Y-8062936D01*
X5672563Y-8062936D02*
X5663039Y-8043888D01*
X5663039Y-8043888D02*
X5663039Y-7986746D01*
X5663039Y-7986746D02*
X5672563Y-7967698D01*
X5672563Y-7967698D02*
X5682087Y-7958174D01*
X5682087Y-7958174D02*
X5701134Y-7948650D01*
X5701134Y-7948650D02*
X5729706Y-7948650D01*
X5729706Y-7948650D02*
X5748753Y-7958174D01*
X5748753Y-7958174D02*
X5758277Y-7967698D01*
X5758277Y-7967698D02*
X5767801Y-7986746D01*
X5767801Y-7986746D02*
X5767801Y-8043888D01*
X5767801Y-8043888D02*
X5758277Y-8062936D01*
X5758277Y-8062936D02*
X5748753Y-8072460D01*
X5748753Y-8072460D02*
X5729706Y-8081984D01*
X5729706Y-8081984D02*
X5701134Y-8081984D01*
X5882087Y-8081984D02*
X5863039Y-8072460D01*
X5863039Y-8072460D02*
X5853515Y-8053412D01*
X5853515Y-8053412D02*
X5853515Y-7881984D01*
X6034468Y-8072460D02*
X6015420Y-8081984D01*
X6015420Y-8081984D02*
X5977325Y-8081984D01*
X5977325Y-8081984D02*
X5958277Y-8072460D01*
X5958277Y-8072460D02*
X5948753Y-8053412D01*
X5948753Y-8053412D02*
X5948753Y-7977222D01*
X5948753Y-7977222D02*
X5958277Y-7958174D01*
X5958277Y-7958174D02*
X5977325Y-7948650D01*
X5977325Y-7948650D02*
X6015420Y-7948650D01*
X6015420Y-7948650D02*
X6034468Y-7958174D01*
X6034468Y-7958174D02*
X6043991Y-7977222D01*
X6043991Y-7977222D02*
X6043991Y-7996269D01*
X6043991Y-7996269D02*
X5948753Y-8015317D01*
X6120182Y-8072460D02*
X6139230Y-8081984D01*
X6139230Y-8081984D02*
X6177325Y-8081984D01*
X6177325Y-8081984D02*
X6196372Y-8072460D01*
X6196372Y-8072460D02*
X6205896Y-8053412D01*
X6205896Y-8053412D02*
X6205896Y-8043888D01*
X6205896Y-8043888D02*
X6196372Y-8024841D01*
X6196372Y-8024841D02*
X6177325Y-8015317D01*
X6177325Y-8015317D02*
X6148753Y-8015317D01*
X6148753Y-8015317D02*
X6129706Y-8005793D01*
X6129706Y-8005793D02*
X6120182Y-7986746D01*
X6120182Y-7986746D02*
X6120182Y-7977222D01*
X6120182Y-7977222D02*
X6129706Y-7958174D01*
X6129706Y-7958174D02*
X6148753Y-7948650D01*
X6148753Y-7948650D02*
X6177325Y-7948650D01*
X6177325Y-7948650D02*
X6196372Y-7958174D01*
X6272563Y-8158174D02*
X6282087Y-8148650D01*
X6282087Y-8148650D02*
X6301134Y-8120079D01*
X6301134Y-8120079D02*
X6310658Y-8101031D01*
X6310658Y-8101031D02*
X6320182Y-8072460D01*
X6320182Y-8072460D02*
X6329706Y-8024841D01*
X6329706Y-8024841D02*
X6329706Y-7986746D01*
X6329706Y-7986746D02*
X6320182Y-7939127D01*
X6320182Y-7939127D02*
X6310658Y-7910555D01*
X6310658Y-7910555D02*
X6301134Y-7891508D01*
X6301134Y-7891508D02*
X6282087Y-7862936D01*
X6282087Y-7862936D02*
X6272563Y-7853412D01*
X1297500Y-8210500D02*
X1497500Y-8410500D01*
X1497500Y-8210500D02*
X1297500Y-8410500D01*
X1397500Y-8410500D02*
X1497500Y-8310500D01*
X1397500Y-8210500D01*
X1297500Y-8310500D01*
X1397500Y-8410500D01*
X1739229Y-8201984D02*
X1863039Y-8201984D01*
X1863039Y-8201984D02*
X1796372Y-8278174D01*
X1796372Y-8278174D02*
X1824943Y-8278174D01*
X1824943Y-8278174D02*
X1843991Y-8287698D01*
X1843991Y-8287698D02*
X1853515Y-8297222D01*
X1853515Y-8297222D02*
X1863039Y-8316269D01*
X1863039Y-8316269D02*
X1863039Y-8363888D01*
X1863039Y-8363888D02*
X1853515Y-8382936D01*
X1853515Y-8382936D02*
X1843991Y-8392460D01*
X1843991Y-8392460D02*
X1824943Y-8401984D01*
X1824943Y-8401984D02*
X1767801Y-8401984D01*
X1767801Y-8401984D02*
X1748753Y-8392460D01*
X1748753Y-8392460D02*
X1739229Y-8382936D01*
X1948753Y-8382936D02*
X1958277Y-8392460D01*
X1958277Y-8392460D02*
X1948753Y-8401984D01*
X1948753Y-8401984D02*
X1939229Y-8392460D01*
X1939229Y-8392460D02*
X1948753Y-8382936D01*
X1948753Y-8382936D02*
X1948753Y-8401984D01*
X2082086Y-8201984D02*
X2101134Y-8201984D01*
X2101134Y-8201984D02*
X2120182Y-8211508D01*
X2120182Y-8211508D02*
X2129705Y-8221031D01*
X2129705Y-8221031D02*
X2139229Y-8240079D01*
X2139229Y-8240079D02*
X2148753Y-8278174D01*
X2148753Y-8278174D02*
X2148753Y-8325793D01*
X2148753Y-8325793D02*
X2139229Y-8363888D01*
X2139229Y-8363888D02*
X2129705Y-8382936D01*
X2129705Y-8382936D02*
X2120182Y-8392460D01*
X2120182Y-8392460D02*
X2101134Y-8401984D01*
X2101134Y-8401984D02*
X2082086Y-8401984D01*
X2082086Y-8401984D02*
X2063039Y-8392460D01*
X2063039Y-8392460D02*
X2053515Y-8382936D01*
X2053515Y-8382936D02*
X2043991Y-8363888D01*
X2043991Y-8363888D02*
X2034467Y-8325793D01*
X2034467Y-8325793D02*
X2034467Y-8278174D01*
X2034467Y-8278174D02*
X2043991Y-8240079D01*
X2043991Y-8240079D02*
X2053515Y-8221031D01*
X2053515Y-8221031D02*
X2063039Y-8211508D01*
X2063039Y-8211508D02*
X2082086Y-8201984D01*
X2329705Y-8201984D02*
X2234467Y-8201984D01*
X2234467Y-8201984D02*
X2224944Y-8297222D01*
X2224944Y-8297222D02*
X2234467Y-8287698D01*
X2234467Y-8287698D02*
X2253515Y-8278174D01*
X2253515Y-8278174D02*
X2301134Y-8278174D01*
X2301134Y-8278174D02*
X2320182Y-8287698D01*
X2320182Y-8287698D02*
X2329705Y-8297222D01*
X2329705Y-8297222D02*
X2339229Y-8316269D01*
X2339229Y-8316269D02*
X2339229Y-8363888D01*
X2339229Y-8363888D02*
X2329705Y-8382936D01*
X2329705Y-8382936D02*
X2320182Y-8392460D01*
X2320182Y-8392460D02*
X2301134Y-8401984D01*
X2301134Y-8401984D02*
X2253515Y-8401984D01*
X2253515Y-8401984D02*
X2234467Y-8392460D01*
X2234467Y-8392460D02*
X2224944Y-8382936D01*
X2463039Y-8201984D02*
X2482086Y-8201984D01*
X2482086Y-8201984D02*
X2501134Y-8211508D01*
X2501134Y-8211508D02*
X2510658Y-8221031D01*
X2510658Y-8221031D02*
X2520182Y-8240079D01*
X2520182Y-8240079D02*
X2529705Y-8278174D01*
X2529705Y-8278174D02*
X2529705Y-8325793D01*
X2529705Y-8325793D02*
X2520182Y-8363888D01*
X2520182Y-8363888D02*
X2510658Y-8382936D01*
X2510658Y-8382936D02*
X2501134Y-8392460D01*
X2501134Y-8392460D02*
X2482086Y-8401984D01*
X2482086Y-8401984D02*
X2463039Y-8401984D01*
X2463039Y-8401984D02*
X2443991Y-8392460D01*
X2443991Y-8392460D02*
X2434467Y-8382936D01*
X2434467Y-8382936D02*
X2424944Y-8363888D01*
X2424944Y-8363888D02*
X2415420Y-8325793D01*
X2415420Y-8325793D02*
X2415420Y-8278174D01*
X2415420Y-8278174D02*
X2424944Y-8240079D01*
X2424944Y-8240079D02*
X2434467Y-8221031D01*
X2434467Y-8221031D02*
X2443991Y-8211508D01*
X2443991Y-8211508D02*
X2463039Y-8201984D01*
X2615420Y-8401984D02*
X2615420Y-8268650D01*
X2615420Y-8287698D02*
X2624944Y-8278174D01*
X2624944Y-8278174D02*
X2643991Y-8268650D01*
X2643991Y-8268650D02*
X2672563Y-8268650D01*
X2672563Y-8268650D02*
X2691610Y-8278174D01*
X2691610Y-8278174D02*
X2701134Y-8297222D01*
X2701134Y-8297222D02*
X2701134Y-8401984D01*
X2701134Y-8297222D02*
X2710658Y-8278174D01*
X2710658Y-8278174D02*
X2729705Y-8268650D01*
X2729705Y-8268650D02*
X2758277Y-8268650D01*
X2758277Y-8268650D02*
X2777325Y-8278174D01*
X2777325Y-8278174D02*
X2786848Y-8297222D01*
X2786848Y-8297222D02*
X2786848Y-8401984D01*
X2882086Y-8401984D02*
X2882086Y-8268650D01*
X2882086Y-8287698D02*
X2891610Y-8278174D01*
X2891610Y-8278174D02*
X2910658Y-8268650D01*
X2910658Y-8268650D02*
X2939229Y-8268650D01*
X2939229Y-8268650D02*
X2958277Y-8278174D01*
X2958277Y-8278174D02*
X2967801Y-8297222D01*
X2967801Y-8297222D02*
X2967801Y-8401984D01*
X2967801Y-8297222D02*
X2977324Y-8278174D01*
X2977324Y-8278174D02*
X2996372Y-8268650D01*
X2996372Y-8268650D02*
X3024943Y-8268650D01*
X3024943Y-8268650D02*
X3043991Y-8278174D01*
X3043991Y-8278174D02*
X3053515Y-8297222D01*
X3053515Y-8297222D02*
X3053515Y-8401984D01*
X3443991Y-8192460D02*
X3272563Y-8449603D01*
X3701134Y-8201984D02*
X3720182Y-8201984D01*
X3720182Y-8201984D02*
X3739229Y-8211508D01*
X3739229Y-8211508D02*
X3748753Y-8221031D01*
X3748753Y-8221031D02*
X3758277Y-8240079D01*
X3758277Y-8240079D02*
X3767801Y-8278174D01*
X3767801Y-8278174D02*
X3767801Y-8325793D01*
X3767801Y-8325793D02*
X3758277Y-8363888D01*
X3758277Y-8363888D02*
X3748753Y-8382936D01*
X3748753Y-8382936D02*
X3739229Y-8392460D01*
X3739229Y-8392460D02*
X3720182Y-8401984D01*
X3720182Y-8401984D02*
X3701134Y-8401984D01*
X3701134Y-8401984D02*
X3682086Y-8392460D01*
X3682086Y-8392460D02*
X3672563Y-8382936D01*
X3672563Y-8382936D02*
X3663039Y-8363888D01*
X3663039Y-8363888D02*
X3653515Y-8325793D01*
X3653515Y-8325793D02*
X3653515Y-8278174D01*
X3653515Y-8278174D02*
X3663039Y-8240079D01*
X3663039Y-8240079D02*
X3672563Y-8221031D01*
X3672563Y-8221031D02*
X3682086Y-8211508D01*
X3682086Y-8211508D02*
X3701134Y-8201984D01*
X3853515Y-8382936D02*
X3863039Y-8392460D01*
X3863039Y-8392460D02*
X3853515Y-8401984D01*
X3853515Y-8401984D02*
X3843991Y-8392460D01*
X3843991Y-8392460D02*
X3853515Y-8382936D01*
X3853515Y-8382936D02*
X3853515Y-8401984D01*
X4053515Y-8401984D02*
X3939229Y-8401984D01*
X3996372Y-8401984D02*
X3996372Y-8201984D01*
X3996372Y-8201984D02*
X3977325Y-8230555D01*
X3977325Y-8230555D02*
X3958277Y-8249603D01*
X3958277Y-8249603D02*
X3939229Y-8259127D01*
X4129706Y-8221031D02*
X4139229Y-8211508D01*
X4139229Y-8211508D02*
X4158277Y-8201984D01*
X4158277Y-8201984D02*
X4205896Y-8201984D01*
X4205896Y-8201984D02*
X4224944Y-8211508D01*
X4224944Y-8211508D02*
X4234468Y-8221031D01*
X4234468Y-8221031D02*
X4243991Y-8240079D01*
X4243991Y-8240079D02*
X4243991Y-8259127D01*
X4243991Y-8259127D02*
X4234468Y-8287698D01*
X4234468Y-8287698D02*
X4120182Y-8401984D01*
X4120182Y-8401984D02*
X4243991Y-8401984D01*
X4367801Y-8201984D02*
X4386849Y-8201984D01*
X4386849Y-8201984D02*
X4405896Y-8211508D01*
X4405896Y-8211508D02*
X4415420Y-8221031D01*
X4415420Y-8221031D02*
X4424944Y-8240079D01*
X4424944Y-8240079D02*
X4434468Y-8278174D01*
X4434468Y-8278174D02*
X4434468Y-8325793D01*
X4434468Y-8325793D02*
X4424944Y-8363888D01*
X4424944Y-8363888D02*
X4415420Y-8382936D01*
X4415420Y-8382936D02*
X4405896Y-8392460D01*
X4405896Y-8392460D02*
X4386849Y-8401984D01*
X4386849Y-8401984D02*
X4367801Y-8401984D01*
X4367801Y-8401984D02*
X4348753Y-8392460D01*
X4348753Y-8392460D02*
X4339229Y-8382936D01*
X4339229Y-8382936D02*
X4329706Y-8363888D01*
X4329706Y-8363888D02*
X4320182Y-8325793D01*
X4320182Y-8325793D02*
X4320182Y-8278174D01*
X4320182Y-8278174D02*
X4329706Y-8240079D01*
X4329706Y-8240079D02*
X4339229Y-8221031D01*
X4339229Y-8221031D02*
X4348753Y-8211508D01*
X4348753Y-8211508D02*
X4367801Y-8201984D01*
X4624944Y-8401984D02*
X4510658Y-8401984D01*
X4567801Y-8401984D02*
X4567801Y-8201984D01*
X4567801Y-8201984D02*
X4548753Y-8230555D01*
X4548753Y-8230555D02*
X4529706Y-8249603D01*
X4529706Y-8249603D02*
X4510658Y-8259127D01*
X4701134Y-8201984D02*
X4701134Y-8240079D01*
X4777325Y-8201984D02*
X4777325Y-8240079D01*
X5072563Y-8478174D02*
X5063039Y-8468650D01*
X5063039Y-8468650D02*
X5043991Y-8440079D01*
X5043991Y-8440079D02*
X5034468Y-8421031D01*
X5034468Y-8421031D02*
X5024944Y-8392460D01*
X5024944Y-8392460D02*
X5015420Y-8344841D01*
X5015420Y-8344841D02*
X5015420Y-8306746D01*
X5015420Y-8306746D02*
X5024944Y-8259127D01*
X5024944Y-8259127D02*
X5034468Y-8230555D01*
X5034468Y-8230555D02*
X5043991Y-8211508D01*
X5043991Y-8211508D02*
X5063039Y-8182936D01*
X5063039Y-8182936D02*
X5072563Y-8173412D01*
X5139230Y-8221031D02*
X5148753Y-8211508D01*
X5148753Y-8211508D02*
X5167801Y-8201984D01*
X5167801Y-8201984D02*
X5215420Y-8201984D01*
X5215420Y-8201984D02*
X5234468Y-8211508D01*
X5234468Y-8211508D02*
X5243991Y-8221031D01*
X5243991Y-8221031D02*
X5253515Y-8240079D01*
X5253515Y-8240079D02*
X5253515Y-8259127D01*
X5253515Y-8259127D02*
X5243991Y-8287698D01*
X5243991Y-8287698D02*
X5129706Y-8401984D01*
X5129706Y-8401984D02*
X5253515Y-8401984D01*
X5491611Y-8401984D02*
X5491611Y-8201984D01*
X5577325Y-8401984D02*
X5577325Y-8297222D01*
X5577325Y-8297222D02*
X5567801Y-8278174D01*
X5567801Y-8278174D02*
X5548753Y-8268650D01*
X5548753Y-8268650D02*
X5520182Y-8268650D01*
X5520182Y-8268650D02*
X5501134Y-8278174D01*
X5501134Y-8278174D02*
X5491611Y-8287698D01*
X5701134Y-8401984D02*
X5682087Y-8392460D01*
X5682087Y-8392460D02*
X5672563Y-8382936D01*
X5672563Y-8382936D02*
X5663039Y-8363888D01*
X5663039Y-8363888D02*
X5663039Y-8306746D01*
X5663039Y-8306746D02*
X5672563Y-8287698D01*
X5672563Y-8287698D02*
X5682087Y-8278174D01*
X5682087Y-8278174D02*
X5701134Y-8268650D01*
X5701134Y-8268650D02*
X5729706Y-8268650D01*
X5729706Y-8268650D02*
X5748753Y-8278174D01*
X5748753Y-8278174D02*
X5758277Y-8287698D01*
X5758277Y-8287698D02*
X5767801Y-8306746D01*
X5767801Y-8306746D02*
X5767801Y-8363888D01*
X5767801Y-8363888D02*
X5758277Y-8382936D01*
X5758277Y-8382936D02*
X5748753Y-8392460D01*
X5748753Y-8392460D02*
X5729706Y-8401984D01*
X5729706Y-8401984D02*
X5701134Y-8401984D01*
X5882087Y-8401984D02*
X5863039Y-8392460D01*
X5863039Y-8392460D02*
X5853515Y-8373412D01*
X5853515Y-8373412D02*
X5853515Y-8201984D01*
X6034468Y-8392460D02*
X6015420Y-8401984D01*
X6015420Y-8401984D02*
X5977325Y-8401984D01*
X5977325Y-8401984D02*
X5958277Y-8392460D01*
X5958277Y-8392460D02*
X5948753Y-8373412D01*
X5948753Y-8373412D02*
X5948753Y-8297222D01*
X5948753Y-8297222D02*
X5958277Y-8278174D01*
X5958277Y-8278174D02*
X5977325Y-8268650D01*
X5977325Y-8268650D02*
X6015420Y-8268650D01*
X6015420Y-8268650D02*
X6034468Y-8278174D01*
X6034468Y-8278174D02*
X6043991Y-8297222D01*
X6043991Y-8297222D02*
X6043991Y-8316269D01*
X6043991Y-8316269D02*
X5948753Y-8335317D01*
X6120182Y-8392460D02*
X6139230Y-8401984D01*
X6139230Y-8401984D02*
X6177325Y-8401984D01*
X6177325Y-8401984D02*
X6196372Y-8392460D01*
X6196372Y-8392460D02*
X6205896Y-8373412D01*
X6205896Y-8373412D02*
X6205896Y-8363888D01*
X6205896Y-8363888D02*
X6196372Y-8344841D01*
X6196372Y-8344841D02*
X6177325Y-8335317D01*
X6177325Y-8335317D02*
X6148753Y-8335317D01*
X6148753Y-8335317D02*
X6129706Y-8325793D01*
X6129706Y-8325793D02*
X6120182Y-8306746D01*
X6120182Y-8306746D02*
X6120182Y-8297222D01*
X6120182Y-8297222D02*
X6129706Y-8278174D01*
X6129706Y-8278174D02*
X6148753Y-8268650D01*
X6148753Y-8268650D02*
X6177325Y-8268650D01*
X6177325Y-8268650D02*
X6196372Y-8278174D01*
X6272563Y-8478174D02*
X6282087Y-8468650D01*
X6282087Y-8468650D02*
X6301134Y-8440079D01*
X6301134Y-8440079D02*
X6310658Y-8421031D01*
X6310658Y-8421031D02*
X6320182Y-8392460D01*
X6320182Y-8392460D02*
X6329706Y-8344841D01*
X6329706Y-8344841D02*
X6329706Y-8306746D01*
X6329706Y-8306746D02*
X6320182Y-8259127D01*
X6320182Y-8259127D02*
X6310658Y-8230555D01*
X6310658Y-8230555D02*
X6301134Y-8211508D01*
X6301134Y-8211508D02*
X6282087Y-8182936D01*
X6282087Y-8182936D02*
X6272563Y-8173412D01*
M02*
