%TF.GenerationSoftware,KiCad,Pcbnew,10.0.2*%
%TF.CreationDate,2026-05-11T18:43:02-07:00*%
%TF.ProjectId,panel,70616e65-6c2e-46b6-9963-61645f706362,rev?*%
%TF.SameCoordinates,Original*%
%TF.FileFunction,Drillmap*%
%TF.FilePolarity,Positive*%
%FSLAX45Y45*%
G04 Gerber Fmt 4.5, Leading zero omitted, Abs format (unit mm)*
G04 Created by KiCad (PCBNEW 10.0.2) date 2026-05-11 18:43:02*
%MOMM*%
%LPD*%
G01*
G04 APERTURE LIST*
%ADD10C,0.050000*%
%ADD11C,0.200000*%
%ADD12C,0.100000*%
%ADD13C,0.120000*%
%ADD14C,0.300000*%
%ADD15C,0.305000*%
G04 APERTURE END LIST*
D10*
X1500000Y-1500000D02*
X1500000Y-5500000D01*
X1500000Y-5500000D02*
X17000000Y-5500000D01*
X17000000Y-1500000D02*
X1500000Y-1500000D01*
X17000000Y-5500000D02*
X17000000Y-1500000D01*
D11*
D12*
X4074400Y-4785600D02*
X4104400Y-4815600D01*
X4104400Y-4785600D02*
X4074400Y-4815600D01*
X4074400Y-5039600D02*
X4104400Y-5069600D01*
X4104400Y-5039600D02*
X4074400Y-5069600D01*
X4726950Y-4612590D02*
X4756950Y-4642590D01*
X4756950Y-4612590D02*
X4726950Y-4642590D01*
X7834580Y-3967700D02*
X7864580Y-3997700D01*
X7864580Y-3967700D02*
X7834580Y-3997700D01*
X8824200Y-3033000D02*
X8854200Y-3063000D01*
X8854200Y-3033000D02*
X8824200Y-3063000D01*
X9291410Y-4210710D02*
X9321410Y-4240710D01*
X9321410Y-4210710D02*
X9291410Y-4240710D01*
X9296760Y-4053940D02*
X9326760Y-4083940D01*
X9326760Y-4053940D02*
X9296760Y-4083940D01*
X9357600Y-2956800D02*
X9387600Y-2986800D01*
X9387600Y-2956800D02*
X9357600Y-2986800D01*
X10876930Y-4278090D02*
X10906930Y-4308090D01*
X10906930Y-4278090D02*
X10876930Y-4308090D01*
X11067420Y-4345230D02*
X11097420Y-4375230D01*
X11097420Y-4345230D02*
X11067420Y-4375230D01*
X11175280Y-4599660D02*
X11205280Y-4629660D01*
X11205280Y-4599660D02*
X11175280Y-4629660D01*
X11410850Y-3858440D02*
X11440850Y-3888440D01*
X11440850Y-3858440D02*
X11410850Y-3888440D01*
X12369160Y-3671950D02*
X12399160Y-3701950D01*
X12399160Y-3671950D02*
X12369160Y-3701950D01*
X13228340Y-3305150D02*
X13258340Y-3335150D01*
X13258340Y-3305150D02*
X13228340Y-3335150D01*
X14275240Y-2664370D02*
X14305240Y-2694370D01*
X14305240Y-2664370D02*
X14275240Y-2694370D01*
X2402200Y-1754568D02*
G75*
G02*
X2322200Y-1754568I-40000J0D01*
G01*
X2322200Y-1754568D02*
G75*
G02*
X2402200Y-1754568I40000J0D01*
G01*
X2656200Y-1754568D02*
G75*
G02*
X2576200Y-1754568I-40000J0D01*
G01*
X2576200Y-1754568D02*
G75*
G02*
X2656200Y-1754568I40000J0D01*
G01*
X2910200Y-1752600D02*
G75*
G02*
X2830200Y-1752600I-40000J0D01*
G01*
X2830200Y-1752600D02*
G75*
G02*
X2910200Y-1752600I40000J0D01*
G01*
X3164200Y-1754568D02*
G75*
G02*
X3084200Y-1754568I-40000J0D01*
G01*
X3084200Y-1754568D02*
G75*
G02*
X3164200Y-1754568I40000J0D01*
G01*
X3418200Y-1754568D02*
G75*
G02*
X3338200Y-1754568I-40000J0D01*
G01*
X3338200Y-1754568D02*
G75*
G02*
X3418200Y-1754568I40000J0D01*
G01*
X3672200Y-1754568D02*
G75*
G02*
X3592200Y-1754568I-40000J0D01*
G01*
X3592200Y-1754568D02*
G75*
G02*
X3672200Y-1754568I40000J0D01*
G01*
X4440000Y-2700000D02*
G75*
G02*
X4360000Y-2700000I-40000J0D01*
G01*
X4360000Y-2700000D02*
G75*
G02*
X4440000Y-2700000I40000J0D01*
G01*
X4440000Y-3400000D02*
G75*
G02*
X4360000Y-3400000I-40000J0D01*
G01*
X4360000Y-3400000D02*
G75*
G02*
X4440000Y-3400000I40000J0D01*
G01*
X4440000Y-4100000D02*
G75*
G02*
X4360000Y-4100000I-40000J0D01*
G01*
X4360000Y-4100000D02*
G75*
G02*
X4440000Y-4100000I40000J0D01*
G01*
X4440000Y-4800000D02*
G75*
G02*
X4360000Y-4800000I-40000J0D01*
G01*
X4360000Y-4800000D02*
G75*
G02*
X4440000Y-4800000I40000J0D01*
G01*
X5202000Y-2700000D02*
G75*
G02*
X5122000Y-2700000I-40000J0D01*
G01*
X5122000Y-2700000D02*
G75*
G02*
X5202000Y-2700000I40000J0D01*
G01*
X5202000Y-3400000D02*
G75*
G02*
X5122000Y-3400000I-40000J0D01*
G01*
X5122000Y-3400000D02*
G75*
G02*
X5202000Y-3400000I40000J0D01*
G01*
X5202000Y-4100000D02*
G75*
G02*
X5122000Y-4100000I-40000J0D01*
G01*
X5122000Y-4100000D02*
G75*
G02*
X5202000Y-4100000I40000J0D01*
G01*
X5202000Y-4800000D02*
G75*
G02*
X5122000Y-4800000I-40000J0D01*
G01*
X5122000Y-4800000D02*
G75*
G02*
X5202000Y-4800000I40000J0D01*
G01*
X5628000Y-2794000D02*
G75*
G02*
X5548000Y-2794000I-40000J0D01*
G01*
X5548000Y-2794000D02*
G75*
G02*
X5628000Y-2794000I40000J0D01*
G01*
X5628000Y-3302000D02*
G75*
G02*
X5548000Y-3302000I-40000J0D01*
G01*
X5548000Y-3302000D02*
G75*
G02*
X5628000Y-3302000I40000J0D01*
G01*
X5628000Y-3810000D02*
G75*
G02*
X5548000Y-3810000I-40000J0D01*
G01*
X5548000Y-3810000D02*
G75*
G02*
X5628000Y-3810000I40000J0D01*
G01*
X5628000Y-4318000D02*
G75*
G02*
X5548000Y-4318000I-40000J0D01*
G01*
X5548000Y-4318000D02*
G75*
G02*
X5628000Y-4318000I40000J0D01*
G01*
X6128000Y-2794000D02*
G75*
G02*
X6048000Y-2794000I-40000J0D01*
G01*
X6048000Y-2794000D02*
G75*
G02*
X6128000Y-2794000I40000J0D01*
G01*
X6128000Y-3302000D02*
G75*
G02*
X6048000Y-3302000I-40000J0D01*
G01*
X6048000Y-3302000D02*
G75*
G02*
X6128000Y-3302000I40000J0D01*
G01*
X6128000Y-3810000D02*
G75*
G02*
X6048000Y-3810000I-40000J0D01*
G01*
X6048000Y-3810000D02*
G75*
G02*
X6128000Y-3810000I40000J0D01*
G01*
X6128000Y-4318000D02*
G75*
G02*
X6048000Y-4318000I-40000J0D01*
G01*
X6048000Y-4318000D02*
G75*
G02*
X6128000Y-4318000I40000J0D01*
G01*
X6517000Y-2794000D02*
G75*
G02*
X6437000Y-2794000I-40000J0D01*
G01*
X6437000Y-2794000D02*
G75*
G02*
X6517000Y-2794000I40000J0D01*
G01*
X6517000Y-3302000D02*
G75*
G02*
X6437000Y-3302000I-40000J0D01*
G01*
X6437000Y-3302000D02*
G75*
G02*
X6517000Y-3302000I40000J0D01*
G01*
X6517000Y-3810000D02*
G75*
G02*
X6437000Y-3810000I-40000J0D01*
G01*
X6437000Y-3810000D02*
G75*
G02*
X6517000Y-3810000I40000J0D01*
G01*
X6517000Y-4318000D02*
G75*
G02*
X6437000Y-4318000I-40000J0D01*
G01*
X6437000Y-4318000D02*
G75*
G02*
X6517000Y-4318000I40000J0D01*
G01*
X7279000Y-2794000D02*
G75*
G02*
X7199000Y-2794000I-40000J0D01*
G01*
X7199000Y-2794000D02*
G75*
G02*
X7279000Y-2794000I40000J0D01*
G01*
X7279000Y-3302000D02*
G75*
G02*
X7199000Y-3302000I-40000J0D01*
G01*
X7199000Y-3302000D02*
G75*
G02*
X7279000Y-3302000I40000J0D01*
G01*
X7279000Y-3810000D02*
G75*
G02*
X7199000Y-3810000I-40000J0D01*
G01*
X7199000Y-3810000D02*
G75*
G02*
X7279000Y-3810000I40000J0D01*
G01*
X7279000Y-4318000D02*
G75*
G02*
X7199000Y-4318000I-40000J0D01*
G01*
X7199000Y-4318000D02*
G75*
G02*
X7279000Y-4318000I40000J0D01*
G01*
X8422000Y-4470400D02*
G75*
G02*
X8342000Y-4470400I-40000J0D01*
G01*
X8342000Y-4470400D02*
G75*
G02*
X8422000Y-4470400I40000J0D01*
G01*
X9184000Y-4470400D02*
G75*
G02*
X9104000Y-4470400I-40000J0D01*
G01*
X9104000Y-4470400D02*
G75*
G02*
X9184000Y-4470400I40000J0D01*
G01*
X9412600Y-4470400D02*
G75*
G02*
X9332600Y-4470400I-40000J0D01*
G01*
X9332600Y-4470400D02*
G75*
G02*
X9412600Y-4470400I40000J0D01*
G01*
X10174600Y-4470400D02*
G75*
G02*
X10094600Y-4470400I-40000J0D01*
G01*
X10094600Y-4470400D02*
G75*
G02*
X10174600Y-4470400I40000J0D01*
G01*
X11978000Y-1909000D02*
G75*
G02*
X11898000Y-1909000I-40000J0D01*
G01*
X11898000Y-1909000D02*
G75*
G02*
X11978000Y-1909000I40000J0D01*
G01*
X11978000Y-2163000D02*
G75*
G02*
X11898000Y-2163000I-40000J0D01*
G01*
X11898000Y-2163000D02*
G75*
G02*
X11978000Y-2163000I40000J0D01*
G01*
X11978000Y-2417000D02*
G75*
G02*
X11898000Y-2417000I-40000J0D01*
G01*
X11898000Y-2417000D02*
G75*
G02*
X11978000Y-2417000I40000J0D01*
G01*
X11978000Y-2671000D02*
G75*
G02*
X11898000Y-2671000I-40000J0D01*
G01*
X11898000Y-2671000D02*
G75*
G02*
X11978000Y-2671000I40000J0D01*
G01*
X11978000Y-2925000D02*
G75*
G02*
X11898000Y-2925000I-40000J0D01*
G01*
X11898000Y-2925000D02*
G75*
G02*
X11978000Y-2925000I40000J0D01*
G01*
X11978000Y-3179000D02*
G75*
G02*
X11898000Y-3179000I-40000J0D01*
G01*
X11898000Y-3179000D02*
G75*
G02*
X11978000Y-3179000I40000J0D01*
G01*
X11978000Y-3433000D02*
G75*
G02*
X11898000Y-3433000I-40000J0D01*
G01*
X11898000Y-3433000D02*
G75*
G02*
X11978000Y-3433000I40000J0D01*
G01*
X11978000Y-3687000D02*
G75*
G02*
X11898000Y-3687000I-40000J0D01*
G01*
X11898000Y-3687000D02*
G75*
G02*
X11978000Y-3687000I40000J0D01*
G01*
X11978000Y-3941000D02*
G75*
G02*
X11898000Y-3941000I-40000J0D01*
G01*
X11898000Y-3941000D02*
G75*
G02*
X11978000Y-3941000I40000J0D01*
G01*
X11978000Y-4195000D02*
G75*
G02*
X11898000Y-4195000I-40000J0D01*
G01*
X11898000Y-4195000D02*
G75*
G02*
X11978000Y-4195000I40000J0D01*
G01*
X11978000Y-4449000D02*
G75*
G02*
X11898000Y-4449000I-40000J0D01*
G01*
X11898000Y-4449000D02*
G75*
G02*
X11978000Y-4449000I40000J0D01*
G01*
X11978000Y-4703000D02*
G75*
G02*
X11898000Y-4703000I-40000J0D01*
G01*
X11898000Y-4703000D02*
G75*
G02*
X11978000Y-4703000I40000J0D01*
G01*
X11978000Y-4957000D02*
G75*
G02*
X11898000Y-4957000I-40000J0D01*
G01*
X11898000Y-4957000D02*
G75*
G02*
X11978000Y-4957000I40000J0D01*
G01*
X11978000Y-5211000D02*
G75*
G02*
X11898000Y-5211000I-40000J0D01*
G01*
X11898000Y-5211000D02*
G75*
G02*
X11978000Y-5211000I40000J0D01*
G01*
X12740000Y-1909000D02*
G75*
G02*
X12660000Y-1909000I-40000J0D01*
G01*
X12660000Y-1909000D02*
G75*
G02*
X12740000Y-1909000I40000J0D01*
G01*
X12740000Y-2163000D02*
G75*
G02*
X12660000Y-2163000I-40000J0D01*
G01*
X12660000Y-2163000D02*
G75*
G02*
X12740000Y-2163000I40000J0D01*
G01*
X12740000Y-2417000D02*
G75*
G02*
X12660000Y-2417000I-40000J0D01*
G01*
X12660000Y-2417000D02*
G75*
G02*
X12740000Y-2417000I40000J0D01*
G01*
X12740000Y-2671000D02*
G75*
G02*
X12660000Y-2671000I-40000J0D01*
G01*
X12660000Y-2671000D02*
G75*
G02*
X12740000Y-2671000I40000J0D01*
G01*
X12740000Y-2925000D02*
G75*
G02*
X12660000Y-2925000I-40000J0D01*
G01*
X12660000Y-2925000D02*
G75*
G02*
X12740000Y-2925000I40000J0D01*
G01*
X12740000Y-3179000D02*
G75*
G02*
X12660000Y-3179000I-40000J0D01*
G01*
X12660000Y-3179000D02*
G75*
G02*
X12740000Y-3179000I40000J0D01*
G01*
X12740000Y-3433000D02*
G75*
G02*
X12660000Y-3433000I-40000J0D01*
G01*
X12660000Y-3433000D02*
G75*
G02*
X12740000Y-3433000I40000J0D01*
G01*
X12740000Y-3687000D02*
G75*
G02*
X12660000Y-3687000I-40000J0D01*
G01*
X12660000Y-3687000D02*
G75*
G02*
X12740000Y-3687000I40000J0D01*
G01*
X12740000Y-3941000D02*
G75*
G02*
X12660000Y-3941000I-40000J0D01*
G01*
X12660000Y-3941000D02*
G75*
G02*
X12740000Y-3941000I40000J0D01*
G01*
X12740000Y-4195000D02*
G75*
G02*
X12660000Y-4195000I-40000J0D01*
G01*
X12660000Y-4195000D02*
G75*
G02*
X12740000Y-4195000I40000J0D01*
G01*
X12740000Y-4449000D02*
G75*
G02*
X12660000Y-4449000I-40000J0D01*
G01*
X12660000Y-4449000D02*
G75*
G02*
X12740000Y-4449000I40000J0D01*
G01*
X12740000Y-4703000D02*
G75*
G02*
X12660000Y-4703000I-40000J0D01*
G01*
X12660000Y-4703000D02*
G75*
G02*
X12740000Y-4703000I40000J0D01*
G01*
X12740000Y-4957000D02*
G75*
G02*
X12660000Y-4957000I-40000J0D01*
G01*
X12660000Y-4957000D02*
G75*
G02*
X12740000Y-4957000I40000J0D01*
G01*
X12740000Y-5211000D02*
G75*
G02*
X12660000Y-5211000I-40000J0D01*
G01*
X12660000Y-5211000D02*
G75*
G02*
X12740000Y-5211000I40000J0D01*
G01*
X13920000Y-2796000D02*
G75*
G02*
X13840000Y-2796000I-40000J0D01*
G01*
X13840000Y-2796000D02*
G75*
G02*
X13920000Y-2796000I40000J0D01*
G01*
X13920000Y-3050000D02*
G75*
G02*
X13840000Y-3050000I-40000J0D01*
G01*
X13840000Y-3050000D02*
G75*
G02*
X13920000Y-3050000I40000J0D01*
G01*
X13920000Y-3304000D02*
G75*
G02*
X13840000Y-3304000I-40000J0D01*
G01*
X13840000Y-3304000D02*
G75*
G02*
X13920000Y-3304000I40000J0D01*
G01*
X13920000Y-3558000D02*
G75*
G02*
X13840000Y-3558000I-40000J0D01*
G01*
X13840000Y-3558000D02*
G75*
G02*
X13920000Y-3558000I40000J0D01*
G01*
X13920000Y-3812000D02*
G75*
G02*
X13840000Y-3812000I-40000J0D01*
G01*
X13840000Y-3812000D02*
G75*
G02*
X13920000Y-3812000I40000J0D01*
G01*
X13920000Y-4066000D02*
G75*
G02*
X13840000Y-4066000I-40000J0D01*
G01*
X13840000Y-4066000D02*
G75*
G02*
X13920000Y-4066000I40000J0D01*
G01*
X13920000Y-4320000D02*
G75*
G02*
X13840000Y-4320000I-40000J0D01*
G01*
X13840000Y-4320000D02*
G75*
G02*
X13920000Y-4320000I40000J0D01*
G01*
X13920000Y-4574000D02*
G75*
G02*
X13840000Y-4574000I-40000J0D01*
G01*
X13840000Y-4574000D02*
G75*
G02*
X13920000Y-4574000I40000J0D01*
G01*
X14174000Y-2796000D02*
G75*
G02*
X14094000Y-2796000I-40000J0D01*
G01*
X14094000Y-2796000D02*
G75*
G02*
X14174000Y-2796000I40000J0D01*
G01*
X14174000Y-3050000D02*
G75*
G02*
X14094000Y-3050000I-40000J0D01*
G01*
X14094000Y-3050000D02*
G75*
G02*
X14174000Y-3050000I40000J0D01*
G01*
X14174000Y-3304000D02*
G75*
G02*
X14094000Y-3304000I-40000J0D01*
G01*
X14094000Y-3304000D02*
G75*
G02*
X14174000Y-3304000I40000J0D01*
G01*
X14174000Y-3558000D02*
G75*
G02*
X14094000Y-3558000I-40000J0D01*
G01*
X14094000Y-3558000D02*
G75*
G02*
X14174000Y-3558000I40000J0D01*
G01*
X14174000Y-3812000D02*
G75*
G02*
X14094000Y-3812000I-40000J0D01*
G01*
X14094000Y-3812000D02*
G75*
G02*
X14174000Y-3812000I40000J0D01*
G01*
X14174000Y-4066000D02*
G75*
G02*
X14094000Y-4066000I-40000J0D01*
G01*
X14094000Y-4066000D02*
G75*
G02*
X14174000Y-4066000I40000J0D01*
G01*
X14174000Y-4320000D02*
G75*
G02*
X14094000Y-4320000I-40000J0D01*
G01*
X14094000Y-4320000D02*
G75*
G02*
X14174000Y-4320000I40000J0D01*
G01*
X14174000Y-4574000D02*
G75*
G02*
X14094000Y-4574000I-40000J0D01*
G01*
X14094000Y-4574000D02*
G75*
G02*
X14174000Y-4574000I40000J0D01*
G01*
X14994000Y-2032000D02*
G75*
G02*
X14914000Y-2032000I-40000J0D01*
G01*
X14914000Y-2032000D02*
G75*
G02*
X14994000Y-2032000I40000J0D01*
G01*
X14994000Y-2286000D02*
G75*
G02*
X14914000Y-2286000I-40000J0D01*
G01*
X14914000Y-2286000D02*
G75*
G02*
X14994000Y-2286000I40000J0D01*
G01*
X14994000Y-2540000D02*
G75*
G02*
X14914000Y-2540000I-40000J0D01*
G01*
X14914000Y-2540000D02*
G75*
G02*
X14994000Y-2540000I40000J0D01*
G01*
X14994000Y-2794000D02*
G75*
G02*
X14914000Y-2794000I-40000J0D01*
G01*
X14914000Y-2794000D02*
G75*
G02*
X14994000Y-2794000I40000J0D01*
G01*
X14994000Y-3048000D02*
G75*
G02*
X14914000Y-3048000I-40000J0D01*
G01*
X14914000Y-3048000D02*
G75*
G02*
X14994000Y-3048000I40000J0D01*
G01*
X2082800Y-3053800D02*
X2082800Y-3143800D01*
X2037800Y-3098800D02*
X2127800Y-3098800D01*
X2336800Y-3053800D02*
X2336800Y-3143800D01*
X2291800Y-3098800D02*
X2381800Y-3098800D01*
X2616200Y-3053800D02*
X2616200Y-3143800D01*
X2571200Y-3098800D02*
X2661200Y-3098800D01*
X2870200Y-3053800D02*
X2870200Y-3143800D01*
X2825200Y-3098800D02*
X2915200Y-3098800D01*
X3149600Y-3053800D02*
X3149600Y-3143800D01*
X3104600Y-3098800D02*
X3194600Y-3098800D01*
X3403600Y-3053800D02*
X3403600Y-3143800D01*
X3358600Y-3098800D02*
X3448600Y-3098800D01*
X3683000Y-3053800D02*
X3683000Y-3143800D01*
X3638000Y-3098800D02*
X3728000Y-3098800D01*
X3937000Y-3053800D02*
X3937000Y-3143800D01*
X3892000Y-3098800D02*
X3982000Y-3098800D01*
X2255356Y-4315356D02*
X2255356Y-4244644D01*
X2184644Y-4244644D01*
X2184644Y-4315356D01*
X2255356Y-4315356D01*
X2255356Y-4615356D02*
X2255356Y-4544644D01*
X2184644Y-4544644D01*
X2184644Y-4615356D01*
X2255356Y-4615356D01*
X2655356Y-4615356D02*
X2655356Y-4544644D01*
X2584644Y-4544644D01*
X2584644Y-4615356D01*
X2655356Y-4615356D01*
X2885356Y-3685356D02*
X2885356Y-3614644D01*
X2814644Y-3614644D01*
X2814644Y-3685356D01*
X2885356Y-3685356D01*
X2885356Y-5245356D02*
X2885356Y-5174644D01*
X2814644Y-5174644D01*
X2814644Y-5245356D01*
X2885356Y-5245356D01*
X2935356Y-3887356D02*
X2935356Y-3816644D01*
X2864644Y-3816644D01*
X2864644Y-3887356D01*
X2935356Y-3887356D01*
X3135356Y-5163356D02*
X3135356Y-5092644D01*
X3064644Y-5092644D01*
X3064644Y-5163356D01*
X3135356Y-5163356D01*
X3185356Y-3685356D02*
X3185356Y-3614644D01*
X3114644Y-3614644D01*
X3114644Y-3685356D01*
X3185356Y-3685356D01*
X3721356Y-4840356D02*
X3721356Y-4769644D01*
X3650644Y-4769644D01*
X3650644Y-4840356D01*
X3721356Y-4840356D01*
X3815356Y-4315356D02*
X3815356Y-4244644D01*
X3744644Y-4244644D01*
X3744644Y-4315356D01*
X3815356Y-4315356D01*
X3815356Y-4615356D02*
X3815356Y-4544644D01*
X3744644Y-4544644D01*
X3744644Y-4615356D01*
X3815356Y-4615356D01*
X8737356Y-3393356D02*
X8737356Y-3322644D01*
X8666644Y-3322644D01*
X8666644Y-3393356D01*
X8737356Y-3393356D01*
X8874356Y-3677356D02*
X8874356Y-3606644D01*
X8803644Y-3606644D01*
X8803644Y-3677356D01*
X8874356Y-3677356D01*
X9011356Y-3393356D02*
X9011356Y-3322644D01*
X8940644Y-3322644D01*
X8940644Y-3393356D01*
X9011356Y-3393356D01*
X9148356Y-3677356D02*
X9148356Y-3606644D01*
X9077644Y-3606644D01*
X9077644Y-3677356D01*
X9148356Y-3677356D01*
X9285356Y-3393356D02*
X9285356Y-3322644D01*
X9214644Y-3322644D01*
X9214644Y-3393356D01*
X9285356Y-3393356D01*
X9422356Y-3677356D02*
X9422356Y-3606644D01*
X9351644Y-3606644D01*
X9351644Y-3677356D01*
X9422356Y-3677356D01*
X9559356Y-3393356D02*
X9559356Y-3322644D01*
X9488644Y-3322644D01*
X9488644Y-3393356D01*
X9559356Y-3393356D01*
X9696356Y-3677356D02*
X9696356Y-3606644D01*
X9625644Y-3606644D01*
X9625644Y-3677356D01*
X9696356Y-3677356D01*
X9833356Y-3393356D02*
X9833356Y-3322644D01*
X9762644Y-3322644D01*
X9762644Y-3393356D01*
X9833356Y-3393356D01*
D13*
X15250000Y-3510000D02*
X15310000Y-3450000D01*
X15250000Y-3390000D01*
X15190000Y-3450000D01*
X15250000Y-3510000D01*
X15250000Y-3760000D02*
X15310000Y-3700000D01*
X15250000Y-3640000D01*
X15190000Y-3700000D01*
X15250000Y-3760000D01*
X15250000Y-5210000D02*
X15310000Y-5150000D01*
X15250000Y-5090000D01*
X15190000Y-5150000D01*
X15250000Y-5210000D01*
X15500000Y-3510000D02*
X15560000Y-3450000D01*
X15500000Y-3390000D01*
X15440000Y-3450000D01*
X15500000Y-3510000D01*
X15500000Y-5210000D02*
X15560000Y-5150000D01*
X15500000Y-5090000D01*
X15440000Y-5150000D01*
X15500000Y-5210000D01*
X15750000Y-3510000D02*
X15810000Y-3450000D01*
X15750000Y-3390000D01*
X15690000Y-3450000D01*
X15750000Y-3510000D01*
X15750000Y-3760000D02*
X15810000Y-3700000D01*
X15750000Y-3640000D01*
X15690000Y-3700000D01*
X15750000Y-3760000D01*
X15750000Y-5210000D02*
X15810000Y-5150000D01*
X15750000Y-5090000D01*
X15690000Y-5150000D01*
X15750000Y-5210000D01*
D14*
X14800000Y-4250000D02*
X15100000Y-4550000D01*
X15100000Y-4250000D02*
X14800000Y-4550000D01*
X15100000Y-4400000D02*
G75*
G02*
X14800000Y-4400000I-150000J0D01*
G01*
X14800000Y-4400000D02*
G75*
G02*
X15100000Y-4400000I150000J0D01*
G01*
X15900000Y-4250000D02*
X16200000Y-4550000D01*
X16200000Y-4250000D02*
X15900000Y-4550000D01*
X16200000Y-4400000D02*
G75*
G02*
X15900000Y-4400000I-150000J0D01*
G01*
X15900000Y-4400000D02*
G75*
G02*
X16200000Y-4400000I150000J0D01*
G01*
D15*
X7847500Y-3347500D02*
X8152500Y-3652500D01*
X8152500Y-3347500D02*
X7847500Y-3652500D01*
X8000000Y-3347500D02*
X8000000Y-3652500D01*
X7847500Y-3500000D02*
X8152500Y-3500000D01*
X10347500Y-3347500D02*
X10652500Y-3652500D01*
X10652500Y-3347500D02*
X10347500Y-3652500D01*
X10500000Y-3347500D02*
X10500000Y-3652500D01*
X10347500Y-3500000D02*
X10652500Y-3500000D01*
D11*
X1758277Y-5813984D02*
X1758277Y-5613984D01*
X1758277Y-5613984D02*
X1805896Y-5613984D01*
X1805896Y-5613984D02*
X1834467Y-5623508D01*
X1834467Y-5623508D02*
X1853515Y-5642555D01*
X1853515Y-5642555D02*
X1863039Y-5661603D01*
X1863039Y-5661603D02*
X1872562Y-5699698D01*
X1872562Y-5699698D02*
X1872562Y-5728269D01*
X1872562Y-5728269D02*
X1863039Y-5766365D01*
X1863039Y-5766365D02*
X1853515Y-5785412D01*
X1853515Y-5785412D02*
X1834467Y-5804460D01*
X1834467Y-5804460D02*
X1805896Y-5813984D01*
X1805896Y-5813984D02*
X1758277Y-5813984D01*
X1958277Y-5813984D02*
X1958277Y-5680650D01*
X1958277Y-5718746D02*
X1967801Y-5699698D01*
X1967801Y-5699698D02*
X1977324Y-5690174D01*
X1977324Y-5690174D02*
X1996372Y-5680650D01*
X1996372Y-5680650D02*
X2015420Y-5680650D01*
X2082086Y-5813984D02*
X2082086Y-5680650D01*
X2082086Y-5613984D02*
X2072562Y-5623508D01*
X2072562Y-5623508D02*
X2082086Y-5633031D01*
X2082086Y-5633031D02*
X2091610Y-5623508D01*
X2091610Y-5623508D02*
X2082086Y-5613984D01*
X2082086Y-5613984D02*
X2082086Y-5633031D01*
X2205896Y-5813984D02*
X2186848Y-5804460D01*
X2186848Y-5804460D02*
X2177324Y-5785412D01*
X2177324Y-5785412D02*
X2177324Y-5613984D01*
X2310658Y-5813984D02*
X2291610Y-5804460D01*
X2291610Y-5804460D02*
X2282086Y-5785412D01*
X2282086Y-5785412D02*
X2282086Y-5613984D01*
X2539229Y-5813984D02*
X2539229Y-5613984D01*
X2539229Y-5613984D02*
X2605896Y-5756841D01*
X2605896Y-5756841D02*
X2672563Y-5613984D01*
X2672563Y-5613984D02*
X2672563Y-5813984D01*
X2853515Y-5813984D02*
X2853515Y-5709222D01*
X2853515Y-5709222D02*
X2843991Y-5690174D01*
X2843991Y-5690174D02*
X2824943Y-5680650D01*
X2824943Y-5680650D02*
X2786848Y-5680650D01*
X2786848Y-5680650D02*
X2767801Y-5690174D01*
X2853515Y-5804460D02*
X2834467Y-5813984D01*
X2834467Y-5813984D02*
X2786848Y-5813984D01*
X2786848Y-5813984D02*
X2767801Y-5804460D01*
X2767801Y-5804460D02*
X2758277Y-5785412D01*
X2758277Y-5785412D02*
X2758277Y-5766365D01*
X2758277Y-5766365D02*
X2767801Y-5747317D01*
X2767801Y-5747317D02*
X2786848Y-5737793D01*
X2786848Y-5737793D02*
X2834467Y-5737793D01*
X2834467Y-5737793D02*
X2853515Y-5728269D01*
X2948753Y-5680650D02*
X2948753Y-5880650D01*
X2948753Y-5690174D02*
X2967801Y-5680650D01*
X2967801Y-5680650D02*
X3005896Y-5680650D01*
X3005896Y-5680650D02*
X3024943Y-5690174D01*
X3024943Y-5690174D02*
X3034467Y-5699698D01*
X3034467Y-5699698D02*
X3043991Y-5718746D01*
X3043991Y-5718746D02*
X3043991Y-5775888D01*
X3043991Y-5775888D02*
X3034467Y-5794936D01*
X3034467Y-5794936D02*
X3024943Y-5804460D01*
X3024943Y-5804460D02*
X3005896Y-5813984D01*
X3005896Y-5813984D02*
X2967801Y-5813984D01*
X2967801Y-5813984D02*
X2948753Y-5804460D01*
X3129705Y-5794936D02*
X3139229Y-5804460D01*
X3139229Y-5804460D02*
X3129705Y-5813984D01*
X3129705Y-5813984D02*
X3120182Y-5804460D01*
X3120182Y-5804460D02*
X3129705Y-5794936D01*
X3129705Y-5794936D02*
X3129705Y-5813984D01*
X3129705Y-5690174D02*
X3139229Y-5699698D01*
X3139229Y-5699698D02*
X3129705Y-5709222D01*
X3129705Y-5709222D02*
X3120182Y-5699698D01*
X3120182Y-5699698D02*
X3129705Y-5690174D01*
X3129705Y-5690174D02*
X3129705Y-5709222D01*
D12*
X1467500Y-6127500D02*
X1497500Y-6157500D01*
X1497500Y-6127500D02*
X1467500Y-6157500D01*
D11*
X1796372Y-6033984D02*
X1815420Y-6033984D01*
X1815420Y-6033984D02*
X1834467Y-6043508D01*
X1834467Y-6043508D02*
X1843991Y-6053031D01*
X1843991Y-6053031D02*
X1853515Y-6072079D01*
X1853515Y-6072079D02*
X1863039Y-6110174D01*
X1863039Y-6110174D02*
X1863039Y-6157793D01*
X1863039Y-6157793D02*
X1853515Y-6195888D01*
X1853515Y-6195888D02*
X1843991Y-6214936D01*
X1843991Y-6214936D02*
X1834467Y-6224460D01*
X1834467Y-6224460D02*
X1815420Y-6233984D01*
X1815420Y-6233984D02*
X1796372Y-6233984D01*
X1796372Y-6233984D02*
X1777324Y-6224460D01*
X1777324Y-6224460D02*
X1767801Y-6214936D01*
X1767801Y-6214936D02*
X1758277Y-6195888D01*
X1758277Y-6195888D02*
X1748753Y-6157793D01*
X1748753Y-6157793D02*
X1748753Y-6110174D01*
X1748753Y-6110174D02*
X1758277Y-6072079D01*
X1758277Y-6072079D02*
X1767801Y-6053031D01*
X1767801Y-6053031D02*
X1777324Y-6043508D01*
X1777324Y-6043508D02*
X1796372Y-6033984D01*
X1948753Y-6214936D02*
X1958277Y-6224460D01*
X1958277Y-6224460D02*
X1948753Y-6233984D01*
X1948753Y-6233984D02*
X1939229Y-6224460D01*
X1939229Y-6224460D02*
X1948753Y-6214936D01*
X1948753Y-6214936D02*
X1948753Y-6233984D01*
X2024943Y-6033984D02*
X2148753Y-6033984D01*
X2148753Y-6033984D02*
X2082086Y-6110174D01*
X2082086Y-6110174D02*
X2110658Y-6110174D01*
X2110658Y-6110174D02*
X2129705Y-6119698D01*
X2129705Y-6119698D02*
X2139229Y-6129222D01*
X2139229Y-6129222D02*
X2148753Y-6148269D01*
X2148753Y-6148269D02*
X2148753Y-6195888D01*
X2148753Y-6195888D02*
X2139229Y-6214936D01*
X2139229Y-6214936D02*
X2129705Y-6224460D01*
X2129705Y-6224460D02*
X2110658Y-6233984D01*
X2110658Y-6233984D02*
X2053515Y-6233984D01*
X2053515Y-6233984D02*
X2034467Y-6224460D01*
X2034467Y-6224460D02*
X2024943Y-6214936D01*
X2272563Y-6033984D02*
X2291610Y-6033984D01*
X2291610Y-6033984D02*
X2310658Y-6043508D01*
X2310658Y-6043508D02*
X2320182Y-6053031D01*
X2320182Y-6053031D02*
X2329705Y-6072079D01*
X2329705Y-6072079D02*
X2339229Y-6110174D01*
X2339229Y-6110174D02*
X2339229Y-6157793D01*
X2339229Y-6157793D02*
X2329705Y-6195888D01*
X2329705Y-6195888D02*
X2320182Y-6214936D01*
X2320182Y-6214936D02*
X2310658Y-6224460D01*
X2310658Y-6224460D02*
X2291610Y-6233984D01*
X2291610Y-6233984D02*
X2272563Y-6233984D01*
X2272563Y-6233984D02*
X2253515Y-6224460D01*
X2253515Y-6224460D02*
X2243991Y-6214936D01*
X2243991Y-6214936D02*
X2234467Y-6195888D01*
X2234467Y-6195888D02*
X2224944Y-6157793D01*
X2224944Y-6157793D02*
X2224944Y-6110174D01*
X2224944Y-6110174D02*
X2234467Y-6072079D01*
X2234467Y-6072079D02*
X2243991Y-6053031D01*
X2243991Y-6053031D02*
X2253515Y-6043508D01*
X2253515Y-6043508D02*
X2272563Y-6033984D01*
X2463039Y-6033984D02*
X2482086Y-6033984D01*
X2482086Y-6033984D02*
X2501134Y-6043508D01*
X2501134Y-6043508D02*
X2510658Y-6053031D01*
X2510658Y-6053031D02*
X2520182Y-6072079D01*
X2520182Y-6072079D02*
X2529705Y-6110174D01*
X2529705Y-6110174D02*
X2529705Y-6157793D01*
X2529705Y-6157793D02*
X2520182Y-6195888D01*
X2520182Y-6195888D02*
X2510658Y-6214936D01*
X2510658Y-6214936D02*
X2501134Y-6224460D01*
X2501134Y-6224460D02*
X2482086Y-6233984D01*
X2482086Y-6233984D02*
X2463039Y-6233984D01*
X2463039Y-6233984D02*
X2443991Y-6224460D01*
X2443991Y-6224460D02*
X2434467Y-6214936D01*
X2434467Y-6214936D02*
X2424944Y-6195888D01*
X2424944Y-6195888D02*
X2415420Y-6157793D01*
X2415420Y-6157793D02*
X2415420Y-6110174D01*
X2415420Y-6110174D02*
X2424944Y-6072079D01*
X2424944Y-6072079D02*
X2434467Y-6053031D01*
X2434467Y-6053031D02*
X2443991Y-6043508D01*
X2443991Y-6043508D02*
X2463039Y-6033984D01*
X2615420Y-6233984D02*
X2615420Y-6100650D01*
X2615420Y-6119698D02*
X2624944Y-6110174D01*
X2624944Y-6110174D02*
X2643991Y-6100650D01*
X2643991Y-6100650D02*
X2672563Y-6100650D01*
X2672563Y-6100650D02*
X2691610Y-6110174D01*
X2691610Y-6110174D02*
X2701134Y-6129222D01*
X2701134Y-6129222D02*
X2701134Y-6233984D01*
X2701134Y-6129222D02*
X2710658Y-6110174D01*
X2710658Y-6110174D02*
X2729705Y-6100650D01*
X2729705Y-6100650D02*
X2758277Y-6100650D01*
X2758277Y-6100650D02*
X2777325Y-6110174D01*
X2777325Y-6110174D02*
X2786848Y-6129222D01*
X2786848Y-6129222D02*
X2786848Y-6233984D01*
X2882086Y-6233984D02*
X2882086Y-6100650D01*
X2882086Y-6119698D02*
X2891610Y-6110174D01*
X2891610Y-6110174D02*
X2910658Y-6100650D01*
X2910658Y-6100650D02*
X2939229Y-6100650D01*
X2939229Y-6100650D02*
X2958277Y-6110174D01*
X2958277Y-6110174D02*
X2967801Y-6129222D01*
X2967801Y-6129222D02*
X2967801Y-6233984D01*
X2967801Y-6129222D02*
X2977324Y-6110174D01*
X2977324Y-6110174D02*
X2996372Y-6100650D01*
X2996372Y-6100650D02*
X3024943Y-6100650D01*
X3024943Y-6100650D02*
X3043991Y-6110174D01*
X3043991Y-6110174D02*
X3053515Y-6129222D01*
X3053515Y-6129222D02*
X3053515Y-6233984D01*
X3443991Y-6024460D02*
X3272563Y-6281603D01*
X3701134Y-6033984D02*
X3720182Y-6033984D01*
X3720182Y-6033984D02*
X3739229Y-6043508D01*
X3739229Y-6043508D02*
X3748753Y-6053031D01*
X3748753Y-6053031D02*
X3758277Y-6072079D01*
X3758277Y-6072079D02*
X3767801Y-6110174D01*
X3767801Y-6110174D02*
X3767801Y-6157793D01*
X3767801Y-6157793D02*
X3758277Y-6195888D01*
X3758277Y-6195888D02*
X3748753Y-6214936D01*
X3748753Y-6214936D02*
X3739229Y-6224460D01*
X3739229Y-6224460D02*
X3720182Y-6233984D01*
X3720182Y-6233984D02*
X3701134Y-6233984D01*
X3701134Y-6233984D02*
X3682086Y-6224460D01*
X3682086Y-6224460D02*
X3672563Y-6214936D01*
X3672563Y-6214936D02*
X3663039Y-6195888D01*
X3663039Y-6195888D02*
X3653515Y-6157793D01*
X3653515Y-6157793D02*
X3653515Y-6110174D01*
X3653515Y-6110174D02*
X3663039Y-6072079D01*
X3663039Y-6072079D02*
X3672563Y-6053031D01*
X3672563Y-6053031D02*
X3682086Y-6043508D01*
X3682086Y-6043508D02*
X3701134Y-6033984D01*
X3853515Y-6214936D02*
X3863039Y-6224460D01*
X3863039Y-6224460D02*
X3853515Y-6233984D01*
X3853515Y-6233984D02*
X3843991Y-6224460D01*
X3843991Y-6224460D02*
X3853515Y-6214936D01*
X3853515Y-6214936D02*
X3853515Y-6233984D01*
X3986848Y-6033984D02*
X4005896Y-6033984D01*
X4005896Y-6033984D02*
X4024944Y-6043508D01*
X4024944Y-6043508D02*
X4034467Y-6053031D01*
X4034467Y-6053031D02*
X4043991Y-6072079D01*
X4043991Y-6072079D02*
X4053515Y-6110174D01*
X4053515Y-6110174D02*
X4053515Y-6157793D01*
X4053515Y-6157793D02*
X4043991Y-6195888D01*
X4043991Y-6195888D02*
X4034467Y-6214936D01*
X4034467Y-6214936D02*
X4024944Y-6224460D01*
X4024944Y-6224460D02*
X4005896Y-6233984D01*
X4005896Y-6233984D02*
X3986848Y-6233984D01*
X3986848Y-6233984D02*
X3967801Y-6224460D01*
X3967801Y-6224460D02*
X3958277Y-6214936D01*
X3958277Y-6214936D02*
X3948753Y-6195888D01*
X3948753Y-6195888D02*
X3939229Y-6157793D01*
X3939229Y-6157793D02*
X3939229Y-6110174D01*
X3939229Y-6110174D02*
X3948753Y-6072079D01*
X3948753Y-6072079D02*
X3958277Y-6053031D01*
X3958277Y-6053031D02*
X3967801Y-6043508D01*
X3967801Y-6043508D02*
X3986848Y-6033984D01*
X4243991Y-6233984D02*
X4129706Y-6233984D01*
X4186848Y-6233984D02*
X4186848Y-6033984D01*
X4186848Y-6033984D02*
X4167801Y-6062555D01*
X4167801Y-6062555D02*
X4148753Y-6081603D01*
X4148753Y-6081603D02*
X4129706Y-6091127D01*
X4434468Y-6233984D02*
X4320182Y-6233984D01*
X4377325Y-6233984D02*
X4377325Y-6033984D01*
X4377325Y-6033984D02*
X4358277Y-6062555D01*
X4358277Y-6062555D02*
X4339229Y-6081603D01*
X4339229Y-6081603D02*
X4320182Y-6091127D01*
X4548753Y-6119698D02*
X4529706Y-6110174D01*
X4529706Y-6110174D02*
X4520182Y-6100650D01*
X4520182Y-6100650D02*
X4510658Y-6081603D01*
X4510658Y-6081603D02*
X4510658Y-6072079D01*
X4510658Y-6072079D02*
X4520182Y-6053031D01*
X4520182Y-6053031D02*
X4529706Y-6043508D01*
X4529706Y-6043508D02*
X4548753Y-6033984D01*
X4548753Y-6033984D02*
X4586849Y-6033984D01*
X4586849Y-6033984D02*
X4605896Y-6043508D01*
X4605896Y-6043508D02*
X4615420Y-6053031D01*
X4615420Y-6053031D02*
X4624944Y-6072079D01*
X4624944Y-6072079D02*
X4624944Y-6081603D01*
X4624944Y-6081603D02*
X4615420Y-6100650D01*
X4615420Y-6100650D02*
X4605896Y-6110174D01*
X4605896Y-6110174D02*
X4586849Y-6119698D01*
X4586849Y-6119698D02*
X4548753Y-6119698D01*
X4548753Y-6119698D02*
X4529706Y-6129222D01*
X4529706Y-6129222D02*
X4520182Y-6138746D01*
X4520182Y-6138746D02*
X4510658Y-6157793D01*
X4510658Y-6157793D02*
X4510658Y-6195888D01*
X4510658Y-6195888D02*
X4520182Y-6214936D01*
X4520182Y-6214936D02*
X4529706Y-6224460D01*
X4529706Y-6224460D02*
X4548753Y-6233984D01*
X4548753Y-6233984D02*
X4586849Y-6233984D01*
X4586849Y-6233984D02*
X4605896Y-6224460D01*
X4605896Y-6224460D02*
X4615420Y-6214936D01*
X4615420Y-6214936D02*
X4624944Y-6195888D01*
X4624944Y-6195888D02*
X4624944Y-6157793D01*
X4624944Y-6157793D02*
X4615420Y-6138746D01*
X4615420Y-6138746D02*
X4605896Y-6129222D01*
X4605896Y-6129222D02*
X4586849Y-6119698D01*
X4701134Y-6033984D02*
X4701134Y-6072079D01*
X4777325Y-6033984D02*
X4777325Y-6072079D01*
X5072563Y-6310174D02*
X5063039Y-6300650D01*
X5063039Y-6300650D02*
X5043991Y-6272079D01*
X5043991Y-6272079D02*
X5034468Y-6253031D01*
X5034468Y-6253031D02*
X5024944Y-6224460D01*
X5024944Y-6224460D02*
X5015420Y-6176841D01*
X5015420Y-6176841D02*
X5015420Y-6138746D01*
X5015420Y-6138746D02*
X5024944Y-6091127D01*
X5024944Y-6091127D02*
X5034468Y-6062555D01*
X5034468Y-6062555D02*
X5043991Y-6043508D01*
X5043991Y-6043508D02*
X5063039Y-6014936D01*
X5063039Y-6014936D02*
X5072563Y-6005412D01*
X5253515Y-6233984D02*
X5139230Y-6233984D01*
X5196372Y-6233984D02*
X5196372Y-6033984D01*
X5196372Y-6033984D02*
X5177325Y-6062555D01*
X5177325Y-6062555D02*
X5158277Y-6081603D01*
X5158277Y-6081603D02*
X5139230Y-6091127D01*
X5434468Y-6033984D02*
X5339230Y-6033984D01*
X5339230Y-6033984D02*
X5329706Y-6129222D01*
X5329706Y-6129222D02*
X5339230Y-6119698D01*
X5339230Y-6119698D02*
X5358277Y-6110174D01*
X5358277Y-6110174D02*
X5405896Y-6110174D01*
X5405896Y-6110174D02*
X5424944Y-6119698D01*
X5424944Y-6119698D02*
X5434468Y-6129222D01*
X5434468Y-6129222D02*
X5443991Y-6148269D01*
X5443991Y-6148269D02*
X5443991Y-6195888D01*
X5443991Y-6195888D02*
X5434468Y-6214936D01*
X5434468Y-6214936D02*
X5424944Y-6224460D01*
X5424944Y-6224460D02*
X5405896Y-6233984D01*
X5405896Y-6233984D02*
X5358277Y-6233984D01*
X5358277Y-6233984D02*
X5339230Y-6224460D01*
X5339230Y-6224460D02*
X5329706Y-6214936D01*
X5682087Y-6233984D02*
X5682087Y-6033984D01*
X5767801Y-6233984D02*
X5767801Y-6129222D01*
X5767801Y-6129222D02*
X5758277Y-6110174D01*
X5758277Y-6110174D02*
X5739230Y-6100650D01*
X5739230Y-6100650D02*
X5710658Y-6100650D01*
X5710658Y-6100650D02*
X5691610Y-6110174D01*
X5691610Y-6110174D02*
X5682087Y-6119698D01*
X5891610Y-6233984D02*
X5872563Y-6224460D01*
X5872563Y-6224460D02*
X5863039Y-6214936D01*
X5863039Y-6214936D02*
X5853515Y-6195888D01*
X5853515Y-6195888D02*
X5853515Y-6138746D01*
X5853515Y-6138746D02*
X5863039Y-6119698D01*
X5863039Y-6119698D02*
X5872563Y-6110174D01*
X5872563Y-6110174D02*
X5891610Y-6100650D01*
X5891610Y-6100650D02*
X5920182Y-6100650D01*
X5920182Y-6100650D02*
X5939230Y-6110174D01*
X5939230Y-6110174D02*
X5948753Y-6119698D01*
X5948753Y-6119698D02*
X5958277Y-6138746D01*
X5958277Y-6138746D02*
X5958277Y-6195888D01*
X5958277Y-6195888D02*
X5948753Y-6214936D01*
X5948753Y-6214936D02*
X5939230Y-6224460D01*
X5939230Y-6224460D02*
X5920182Y-6233984D01*
X5920182Y-6233984D02*
X5891610Y-6233984D01*
X6072563Y-6233984D02*
X6053515Y-6224460D01*
X6053515Y-6224460D02*
X6043991Y-6205412D01*
X6043991Y-6205412D02*
X6043991Y-6033984D01*
X6224944Y-6224460D02*
X6205896Y-6233984D01*
X6205896Y-6233984D02*
X6167801Y-6233984D01*
X6167801Y-6233984D02*
X6148753Y-6224460D01*
X6148753Y-6224460D02*
X6139230Y-6205412D01*
X6139230Y-6205412D02*
X6139230Y-6129222D01*
X6139230Y-6129222D02*
X6148753Y-6110174D01*
X6148753Y-6110174D02*
X6167801Y-6100650D01*
X6167801Y-6100650D02*
X6205896Y-6100650D01*
X6205896Y-6100650D02*
X6224944Y-6110174D01*
X6224944Y-6110174D02*
X6234468Y-6129222D01*
X6234468Y-6129222D02*
X6234468Y-6148269D01*
X6234468Y-6148269D02*
X6139230Y-6167317D01*
X6310658Y-6224460D02*
X6329706Y-6233984D01*
X6329706Y-6233984D02*
X6367801Y-6233984D01*
X6367801Y-6233984D02*
X6386849Y-6224460D01*
X6386849Y-6224460D02*
X6396372Y-6205412D01*
X6396372Y-6205412D02*
X6396372Y-6195888D01*
X6396372Y-6195888D02*
X6386849Y-6176841D01*
X6386849Y-6176841D02*
X6367801Y-6167317D01*
X6367801Y-6167317D02*
X6339230Y-6167317D01*
X6339230Y-6167317D02*
X6320182Y-6157793D01*
X6320182Y-6157793D02*
X6310658Y-6138746D01*
X6310658Y-6138746D02*
X6310658Y-6129222D01*
X6310658Y-6129222D02*
X6320182Y-6110174D01*
X6320182Y-6110174D02*
X6339230Y-6100650D01*
X6339230Y-6100650D02*
X6367801Y-6100650D01*
X6367801Y-6100650D02*
X6386849Y-6110174D01*
X6463039Y-6310174D02*
X6472563Y-6300650D01*
X6472563Y-6300650D02*
X6491611Y-6272079D01*
X6491611Y-6272079D02*
X6501134Y-6253031D01*
X6501134Y-6253031D02*
X6510658Y-6224460D01*
X6510658Y-6224460D02*
X6520182Y-6176841D01*
X6520182Y-6176841D02*
X6520182Y-6138746D01*
X6520182Y-6138746D02*
X6510658Y-6091127D01*
X6510658Y-6091127D02*
X6501134Y-6062555D01*
X6501134Y-6062555D02*
X6491611Y-6043508D01*
X6491611Y-6043508D02*
X6472563Y-6014936D01*
X6472563Y-6014936D02*
X6463039Y-6005412D01*
D12*
X1497500Y-6406500D02*
G75*
G02*
X1417500Y-6406500I-40000J0D01*
G01*
X1417500Y-6406500D02*
G75*
G02*
X1497500Y-6406500I40000J0D01*
G01*
D11*
X1796372Y-6297984D02*
X1815420Y-6297984D01*
X1815420Y-6297984D02*
X1834467Y-6307508D01*
X1834467Y-6307508D02*
X1843991Y-6317031D01*
X1843991Y-6317031D02*
X1853515Y-6336079D01*
X1853515Y-6336079D02*
X1863039Y-6374174D01*
X1863039Y-6374174D02*
X1863039Y-6421793D01*
X1863039Y-6421793D02*
X1853515Y-6459888D01*
X1853515Y-6459888D02*
X1843991Y-6478936D01*
X1843991Y-6478936D02*
X1834467Y-6488460D01*
X1834467Y-6488460D02*
X1815420Y-6497984D01*
X1815420Y-6497984D02*
X1796372Y-6497984D01*
X1796372Y-6497984D02*
X1777324Y-6488460D01*
X1777324Y-6488460D02*
X1767801Y-6478936D01*
X1767801Y-6478936D02*
X1758277Y-6459888D01*
X1758277Y-6459888D02*
X1748753Y-6421793D01*
X1748753Y-6421793D02*
X1748753Y-6374174D01*
X1748753Y-6374174D02*
X1758277Y-6336079D01*
X1758277Y-6336079D02*
X1767801Y-6317031D01*
X1767801Y-6317031D02*
X1777324Y-6307508D01*
X1777324Y-6307508D02*
X1796372Y-6297984D01*
X1948753Y-6478936D02*
X1958277Y-6488460D01*
X1958277Y-6488460D02*
X1948753Y-6497984D01*
X1948753Y-6497984D02*
X1939229Y-6488460D01*
X1939229Y-6488460D02*
X1948753Y-6478936D01*
X1948753Y-6478936D02*
X1948753Y-6497984D01*
X2072562Y-6383698D02*
X2053515Y-6374174D01*
X2053515Y-6374174D02*
X2043991Y-6364650D01*
X2043991Y-6364650D02*
X2034467Y-6345603D01*
X2034467Y-6345603D02*
X2034467Y-6336079D01*
X2034467Y-6336079D02*
X2043991Y-6317031D01*
X2043991Y-6317031D02*
X2053515Y-6307508D01*
X2053515Y-6307508D02*
X2072562Y-6297984D01*
X2072562Y-6297984D02*
X2110658Y-6297984D01*
X2110658Y-6297984D02*
X2129705Y-6307508D01*
X2129705Y-6307508D02*
X2139229Y-6317031D01*
X2139229Y-6317031D02*
X2148753Y-6336079D01*
X2148753Y-6336079D02*
X2148753Y-6345603D01*
X2148753Y-6345603D02*
X2139229Y-6364650D01*
X2139229Y-6364650D02*
X2129705Y-6374174D01*
X2129705Y-6374174D02*
X2110658Y-6383698D01*
X2110658Y-6383698D02*
X2072562Y-6383698D01*
X2072562Y-6383698D02*
X2053515Y-6393222D01*
X2053515Y-6393222D02*
X2043991Y-6402746D01*
X2043991Y-6402746D02*
X2034467Y-6421793D01*
X2034467Y-6421793D02*
X2034467Y-6459888D01*
X2034467Y-6459888D02*
X2043991Y-6478936D01*
X2043991Y-6478936D02*
X2053515Y-6488460D01*
X2053515Y-6488460D02*
X2072562Y-6497984D01*
X2072562Y-6497984D02*
X2110658Y-6497984D01*
X2110658Y-6497984D02*
X2129705Y-6488460D01*
X2129705Y-6488460D02*
X2139229Y-6478936D01*
X2139229Y-6478936D02*
X2148753Y-6459888D01*
X2148753Y-6459888D02*
X2148753Y-6421793D01*
X2148753Y-6421793D02*
X2139229Y-6402746D01*
X2139229Y-6402746D02*
X2129705Y-6393222D01*
X2129705Y-6393222D02*
X2110658Y-6383698D01*
X2272563Y-6297984D02*
X2291610Y-6297984D01*
X2291610Y-6297984D02*
X2310658Y-6307508D01*
X2310658Y-6307508D02*
X2320182Y-6317031D01*
X2320182Y-6317031D02*
X2329705Y-6336079D01*
X2329705Y-6336079D02*
X2339229Y-6374174D01*
X2339229Y-6374174D02*
X2339229Y-6421793D01*
X2339229Y-6421793D02*
X2329705Y-6459888D01*
X2329705Y-6459888D02*
X2320182Y-6478936D01*
X2320182Y-6478936D02*
X2310658Y-6488460D01*
X2310658Y-6488460D02*
X2291610Y-6497984D01*
X2291610Y-6497984D02*
X2272563Y-6497984D01*
X2272563Y-6497984D02*
X2253515Y-6488460D01*
X2253515Y-6488460D02*
X2243991Y-6478936D01*
X2243991Y-6478936D02*
X2234467Y-6459888D01*
X2234467Y-6459888D02*
X2224944Y-6421793D01*
X2224944Y-6421793D02*
X2224944Y-6374174D01*
X2224944Y-6374174D02*
X2234467Y-6336079D01*
X2234467Y-6336079D02*
X2243991Y-6317031D01*
X2243991Y-6317031D02*
X2253515Y-6307508D01*
X2253515Y-6307508D02*
X2272563Y-6297984D01*
X2463039Y-6297984D02*
X2482086Y-6297984D01*
X2482086Y-6297984D02*
X2501134Y-6307508D01*
X2501134Y-6307508D02*
X2510658Y-6317031D01*
X2510658Y-6317031D02*
X2520182Y-6336079D01*
X2520182Y-6336079D02*
X2529705Y-6374174D01*
X2529705Y-6374174D02*
X2529705Y-6421793D01*
X2529705Y-6421793D02*
X2520182Y-6459888D01*
X2520182Y-6459888D02*
X2510658Y-6478936D01*
X2510658Y-6478936D02*
X2501134Y-6488460D01*
X2501134Y-6488460D02*
X2482086Y-6497984D01*
X2482086Y-6497984D02*
X2463039Y-6497984D01*
X2463039Y-6497984D02*
X2443991Y-6488460D01*
X2443991Y-6488460D02*
X2434467Y-6478936D01*
X2434467Y-6478936D02*
X2424944Y-6459888D01*
X2424944Y-6459888D02*
X2415420Y-6421793D01*
X2415420Y-6421793D02*
X2415420Y-6374174D01*
X2415420Y-6374174D02*
X2424944Y-6336079D01*
X2424944Y-6336079D02*
X2434467Y-6317031D01*
X2434467Y-6317031D02*
X2443991Y-6307508D01*
X2443991Y-6307508D02*
X2463039Y-6297984D01*
X2615420Y-6497984D02*
X2615420Y-6364650D01*
X2615420Y-6383698D02*
X2624944Y-6374174D01*
X2624944Y-6374174D02*
X2643991Y-6364650D01*
X2643991Y-6364650D02*
X2672563Y-6364650D01*
X2672563Y-6364650D02*
X2691610Y-6374174D01*
X2691610Y-6374174D02*
X2701134Y-6393222D01*
X2701134Y-6393222D02*
X2701134Y-6497984D01*
X2701134Y-6393222D02*
X2710658Y-6374174D01*
X2710658Y-6374174D02*
X2729705Y-6364650D01*
X2729705Y-6364650D02*
X2758277Y-6364650D01*
X2758277Y-6364650D02*
X2777325Y-6374174D01*
X2777325Y-6374174D02*
X2786848Y-6393222D01*
X2786848Y-6393222D02*
X2786848Y-6497984D01*
X2882086Y-6497984D02*
X2882086Y-6364650D01*
X2882086Y-6383698D02*
X2891610Y-6374174D01*
X2891610Y-6374174D02*
X2910658Y-6364650D01*
X2910658Y-6364650D02*
X2939229Y-6364650D01*
X2939229Y-6364650D02*
X2958277Y-6374174D01*
X2958277Y-6374174D02*
X2967801Y-6393222D01*
X2967801Y-6393222D02*
X2967801Y-6497984D01*
X2967801Y-6393222D02*
X2977324Y-6374174D01*
X2977324Y-6374174D02*
X2996372Y-6364650D01*
X2996372Y-6364650D02*
X3024943Y-6364650D01*
X3024943Y-6364650D02*
X3043991Y-6374174D01*
X3043991Y-6374174D02*
X3053515Y-6393222D01*
X3053515Y-6393222D02*
X3053515Y-6497984D01*
X3443991Y-6288460D02*
X3272563Y-6545603D01*
X3701134Y-6297984D02*
X3720182Y-6297984D01*
X3720182Y-6297984D02*
X3739229Y-6307508D01*
X3739229Y-6307508D02*
X3748753Y-6317031D01*
X3748753Y-6317031D02*
X3758277Y-6336079D01*
X3758277Y-6336079D02*
X3767801Y-6374174D01*
X3767801Y-6374174D02*
X3767801Y-6421793D01*
X3767801Y-6421793D02*
X3758277Y-6459888D01*
X3758277Y-6459888D02*
X3748753Y-6478936D01*
X3748753Y-6478936D02*
X3739229Y-6488460D01*
X3739229Y-6488460D02*
X3720182Y-6497984D01*
X3720182Y-6497984D02*
X3701134Y-6497984D01*
X3701134Y-6497984D02*
X3682086Y-6488460D01*
X3682086Y-6488460D02*
X3672563Y-6478936D01*
X3672563Y-6478936D02*
X3663039Y-6459888D01*
X3663039Y-6459888D02*
X3653515Y-6421793D01*
X3653515Y-6421793D02*
X3653515Y-6374174D01*
X3653515Y-6374174D02*
X3663039Y-6336079D01*
X3663039Y-6336079D02*
X3672563Y-6317031D01*
X3672563Y-6317031D02*
X3682086Y-6307508D01*
X3682086Y-6307508D02*
X3701134Y-6297984D01*
X3853515Y-6478936D02*
X3863039Y-6488460D01*
X3863039Y-6488460D02*
X3853515Y-6497984D01*
X3853515Y-6497984D02*
X3843991Y-6488460D01*
X3843991Y-6488460D02*
X3853515Y-6478936D01*
X3853515Y-6478936D02*
X3853515Y-6497984D01*
X3986848Y-6297984D02*
X4005896Y-6297984D01*
X4005896Y-6297984D02*
X4024944Y-6307508D01*
X4024944Y-6307508D02*
X4034467Y-6317031D01*
X4034467Y-6317031D02*
X4043991Y-6336079D01*
X4043991Y-6336079D02*
X4053515Y-6374174D01*
X4053515Y-6374174D02*
X4053515Y-6421793D01*
X4053515Y-6421793D02*
X4043991Y-6459888D01*
X4043991Y-6459888D02*
X4034467Y-6478936D01*
X4034467Y-6478936D02*
X4024944Y-6488460D01*
X4024944Y-6488460D02*
X4005896Y-6497984D01*
X4005896Y-6497984D02*
X3986848Y-6497984D01*
X3986848Y-6497984D02*
X3967801Y-6488460D01*
X3967801Y-6488460D02*
X3958277Y-6478936D01*
X3958277Y-6478936D02*
X3948753Y-6459888D01*
X3948753Y-6459888D02*
X3939229Y-6421793D01*
X3939229Y-6421793D02*
X3939229Y-6374174D01*
X3939229Y-6374174D02*
X3948753Y-6336079D01*
X3948753Y-6336079D02*
X3958277Y-6317031D01*
X3958277Y-6317031D02*
X3967801Y-6307508D01*
X3967801Y-6307508D02*
X3986848Y-6297984D01*
X4120182Y-6297984D02*
X4243991Y-6297984D01*
X4243991Y-6297984D02*
X4177325Y-6374174D01*
X4177325Y-6374174D02*
X4205896Y-6374174D01*
X4205896Y-6374174D02*
X4224944Y-6383698D01*
X4224944Y-6383698D02*
X4234468Y-6393222D01*
X4234468Y-6393222D02*
X4243991Y-6412269D01*
X4243991Y-6412269D02*
X4243991Y-6459888D01*
X4243991Y-6459888D02*
X4234468Y-6478936D01*
X4234468Y-6478936D02*
X4224944Y-6488460D01*
X4224944Y-6488460D02*
X4205896Y-6497984D01*
X4205896Y-6497984D02*
X4148753Y-6497984D01*
X4148753Y-6497984D02*
X4129706Y-6488460D01*
X4129706Y-6488460D02*
X4120182Y-6478936D01*
X4434468Y-6497984D02*
X4320182Y-6497984D01*
X4377325Y-6497984D02*
X4377325Y-6297984D01*
X4377325Y-6297984D02*
X4358277Y-6326555D01*
X4358277Y-6326555D02*
X4339229Y-6345603D01*
X4339229Y-6345603D02*
X4320182Y-6355127D01*
X4615420Y-6297984D02*
X4520182Y-6297984D01*
X4520182Y-6297984D02*
X4510658Y-6393222D01*
X4510658Y-6393222D02*
X4520182Y-6383698D01*
X4520182Y-6383698D02*
X4539229Y-6374174D01*
X4539229Y-6374174D02*
X4586849Y-6374174D01*
X4586849Y-6374174D02*
X4605896Y-6383698D01*
X4605896Y-6383698D02*
X4615420Y-6393222D01*
X4615420Y-6393222D02*
X4624944Y-6412269D01*
X4624944Y-6412269D02*
X4624944Y-6459888D01*
X4624944Y-6459888D02*
X4615420Y-6478936D01*
X4615420Y-6478936D02*
X4605896Y-6488460D01*
X4605896Y-6488460D02*
X4586849Y-6497984D01*
X4586849Y-6497984D02*
X4539229Y-6497984D01*
X4539229Y-6497984D02*
X4520182Y-6488460D01*
X4520182Y-6488460D02*
X4510658Y-6478936D01*
X4701134Y-6297984D02*
X4701134Y-6336079D01*
X4777325Y-6297984D02*
X4777325Y-6336079D01*
X5072563Y-6574174D02*
X5063039Y-6564650D01*
X5063039Y-6564650D02*
X5043991Y-6536079D01*
X5043991Y-6536079D02*
X5034468Y-6517031D01*
X5034468Y-6517031D02*
X5024944Y-6488460D01*
X5024944Y-6488460D02*
X5015420Y-6440841D01*
X5015420Y-6440841D02*
X5015420Y-6402746D01*
X5015420Y-6402746D02*
X5024944Y-6355127D01*
X5024944Y-6355127D02*
X5034468Y-6326555D01*
X5034468Y-6326555D02*
X5043991Y-6307508D01*
X5043991Y-6307508D02*
X5063039Y-6278936D01*
X5063039Y-6278936D02*
X5072563Y-6269412D01*
X5177325Y-6383698D02*
X5158277Y-6374174D01*
X5158277Y-6374174D02*
X5148753Y-6364650D01*
X5148753Y-6364650D02*
X5139230Y-6345603D01*
X5139230Y-6345603D02*
X5139230Y-6336079D01*
X5139230Y-6336079D02*
X5148753Y-6317031D01*
X5148753Y-6317031D02*
X5158277Y-6307508D01*
X5158277Y-6307508D02*
X5177325Y-6297984D01*
X5177325Y-6297984D02*
X5215420Y-6297984D01*
X5215420Y-6297984D02*
X5234468Y-6307508D01*
X5234468Y-6307508D02*
X5243991Y-6317031D01*
X5243991Y-6317031D02*
X5253515Y-6336079D01*
X5253515Y-6336079D02*
X5253515Y-6345603D01*
X5253515Y-6345603D02*
X5243991Y-6364650D01*
X5243991Y-6364650D02*
X5234468Y-6374174D01*
X5234468Y-6374174D02*
X5215420Y-6383698D01*
X5215420Y-6383698D02*
X5177325Y-6383698D01*
X5177325Y-6383698D02*
X5158277Y-6393222D01*
X5158277Y-6393222D02*
X5148753Y-6402746D01*
X5148753Y-6402746D02*
X5139230Y-6421793D01*
X5139230Y-6421793D02*
X5139230Y-6459888D01*
X5139230Y-6459888D02*
X5148753Y-6478936D01*
X5148753Y-6478936D02*
X5158277Y-6488460D01*
X5158277Y-6488460D02*
X5177325Y-6497984D01*
X5177325Y-6497984D02*
X5215420Y-6497984D01*
X5215420Y-6497984D02*
X5234468Y-6488460D01*
X5234468Y-6488460D02*
X5243991Y-6478936D01*
X5243991Y-6478936D02*
X5253515Y-6459888D01*
X5253515Y-6459888D02*
X5253515Y-6421793D01*
X5253515Y-6421793D02*
X5243991Y-6402746D01*
X5243991Y-6402746D02*
X5234468Y-6393222D01*
X5234468Y-6393222D02*
X5215420Y-6383698D01*
X5320182Y-6297984D02*
X5443991Y-6297984D01*
X5443991Y-6297984D02*
X5377325Y-6374174D01*
X5377325Y-6374174D02*
X5405896Y-6374174D01*
X5405896Y-6374174D02*
X5424944Y-6383698D01*
X5424944Y-6383698D02*
X5434468Y-6393222D01*
X5434468Y-6393222D02*
X5443991Y-6412269D01*
X5443991Y-6412269D02*
X5443991Y-6459888D01*
X5443991Y-6459888D02*
X5434468Y-6478936D01*
X5434468Y-6478936D02*
X5424944Y-6488460D01*
X5424944Y-6488460D02*
X5405896Y-6497984D01*
X5405896Y-6497984D02*
X5348753Y-6497984D01*
X5348753Y-6497984D02*
X5329706Y-6488460D01*
X5329706Y-6488460D02*
X5320182Y-6478936D01*
X5682087Y-6497984D02*
X5682087Y-6297984D01*
X5767801Y-6497984D02*
X5767801Y-6393222D01*
X5767801Y-6393222D02*
X5758277Y-6374174D01*
X5758277Y-6374174D02*
X5739230Y-6364650D01*
X5739230Y-6364650D02*
X5710658Y-6364650D01*
X5710658Y-6364650D02*
X5691610Y-6374174D01*
X5691610Y-6374174D02*
X5682087Y-6383698D01*
X5891610Y-6497984D02*
X5872563Y-6488460D01*
X5872563Y-6488460D02*
X5863039Y-6478936D01*
X5863039Y-6478936D02*
X5853515Y-6459888D01*
X5853515Y-6459888D02*
X5853515Y-6402746D01*
X5853515Y-6402746D02*
X5863039Y-6383698D01*
X5863039Y-6383698D02*
X5872563Y-6374174D01*
X5872563Y-6374174D02*
X5891610Y-6364650D01*
X5891610Y-6364650D02*
X5920182Y-6364650D01*
X5920182Y-6364650D02*
X5939230Y-6374174D01*
X5939230Y-6374174D02*
X5948753Y-6383698D01*
X5948753Y-6383698D02*
X5958277Y-6402746D01*
X5958277Y-6402746D02*
X5958277Y-6459888D01*
X5958277Y-6459888D02*
X5948753Y-6478936D01*
X5948753Y-6478936D02*
X5939230Y-6488460D01*
X5939230Y-6488460D02*
X5920182Y-6497984D01*
X5920182Y-6497984D02*
X5891610Y-6497984D01*
X6072563Y-6497984D02*
X6053515Y-6488460D01*
X6053515Y-6488460D02*
X6043991Y-6469412D01*
X6043991Y-6469412D02*
X6043991Y-6297984D01*
X6224944Y-6488460D02*
X6205896Y-6497984D01*
X6205896Y-6497984D02*
X6167801Y-6497984D01*
X6167801Y-6497984D02*
X6148753Y-6488460D01*
X6148753Y-6488460D02*
X6139230Y-6469412D01*
X6139230Y-6469412D02*
X6139230Y-6393222D01*
X6139230Y-6393222D02*
X6148753Y-6374174D01*
X6148753Y-6374174D02*
X6167801Y-6364650D01*
X6167801Y-6364650D02*
X6205896Y-6364650D01*
X6205896Y-6364650D02*
X6224944Y-6374174D01*
X6224944Y-6374174D02*
X6234468Y-6393222D01*
X6234468Y-6393222D02*
X6234468Y-6412269D01*
X6234468Y-6412269D02*
X6139230Y-6431317D01*
X6310658Y-6488460D02*
X6329706Y-6497984D01*
X6329706Y-6497984D02*
X6367801Y-6497984D01*
X6367801Y-6497984D02*
X6386849Y-6488460D01*
X6386849Y-6488460D02*
X6396372Y-6469412D01*
X6396372Y-6469412D02*
X6396372Y-6459888D01*
X6396372Y-6459888D02*
X6386849Y-6440841D01*
X6386849Y-6440841D02*
X6367801Y-6431317D01*
X6367801Y-6431317D02*
X6339230Y-6431317D01*
X6339230Y-6431317D02*
X6320182Y-6421793D01*
X6320182Y-6421793D02*
X6310658Y-6402746D01*
X6310658Y-6402746D02*
X6310658Y-6393222D01*
X6310658Y-6393222D02*
X6320182Y-6374174D01*
X6320182Y-6374174D02*
X6339230Y-6364650D01*
X6339230Y-6364650D02*
X6367801Y-6364650D01*
X6367801Y-6364650D02*
X6386849Y-6374174D01*
X6463039Y-6574174D02*
X6472563Y-6564650D01*
X6472563Y-6564650D02*
X6491611Y-6536079D01*
X6491611Y-6536079D02*
X6501134Y-6517031D01*
X6501134Y-6517031D02*
X6510658Y-6488460D01*
X6510658Y-6488460D02*
X6520182Y-6440841D01*
X6520182Y-6440841D02*
X6520182Y-6402746D01*
X6520182Y-6402746D02*
X6510658Y-6355127D01*
X6510658Y-6355127D02*
X6501134Y-6326555D01*
X6501134Y-6326555D02*
X6491611Y-6307508D01*
X6491611Y-6307508D02*
X6472563Y-6278936D01*
X6472563Y-6278936D02*
X6463039Y-6269412D01*
D12*
X1452500Y-6625500D02*
X1452500Y-6715500D01*
X1407500Y-6670500D02*
X1497500Y-6670500D01*
D11*
X1796372Y-6561984D02*
X1815420Y-6561984D01*
X1815420Y-6561984D02*
X1834467Y-6571508D01*
X1834467Y-6571508D02*
X1843991Y-6581031D01*
X1843991Y-6581031D02*
X1853515Y-6600079D01*
X1853515Y-6600079D02*
X1863039Y-6638174D01*
X1863039Y-6638174D02*
X1863039Y-6685793D01*
X1863039Y-6685793D02*
X1853515Y-6723888D01*
X1853515Y-6723888D02*
X1843991Y-6742936D01*
X1843991Y-6742936D02*
X1834467Y-6752460D01*
X1834467Y-6752460D02*
X1815420Y-6761984D01*
X1815420Y-6761984D02*
X1796372Y-6761984D01*
X1796372Y-6761984D02*
X1777324Y-6752460D01*
X1777324Y-6752460D02*
X1767801Y-6742936D01*
X1767801Y-6742936D02*
X1758277Y-6723888D01*
X1758277Y-6723888D02*
X1748753Y-6685793D01*
X1748753Y-6685793D02*
X1748753Y-6638174D01*
X1748753Y-6638174D02*
X1758277Y-6600079D01*
X1758277Y-6600079D02*
X1767801Y-6581031D01*
X1767801Y-6581031D02*
X1777324Y-6571508D01*
X1777324Y-6571508D02*
X1796372Y-6561984D01*
X1948753Y-6742936D02*
X1958277Y-6752460D01*
X1958277Y-6752460D02*
X1948753Y-6761984D01*
X1948753Y-6761984D02*
X1939229Y-6752460D01*
X1939229Y-6752460D02*
X1948753Y-6742936D01*
X1948753Y-6742936D02*
X1948753Y-6761984D01*
X2053515Y-6761984D02*
X2091610Y-6761984D01*
X2091610Y-6761984D02*
X2110658Y-6752460D01*
X2110658Y-6752460D02*
X2120182Y-6742936D01*
X2120182Y-6742936D02*
X2139229Y-6714365D01*
X2139229Y-6714365D02*
X2148753Y-6676269D01*
X2148753Y-6676269D02*
X2148753Y-6600079D01*
X2148753Y-6600079D02*
X2139229Y-6581031D01*
X2139229Y-6581031D02*
X2129705Y-6571508D01*
X2129705Y-6571508D02*
X2110658Y-6561984D01*
X2110658Y-6561984D02*
X2072562Y-6561984D01*
X2072562Y-6561984D02*
X2053515Y-6571508D01*
X2053515Y-6571508D02*
X2043991Y-6581031D01*
X2043991Y-6581031D02*
X2034467Y-6600079D01*
X2034467Y-6600079D02*
X2034467Y-6647698D01*
X2034467Y-6647698D02*
X2043991Y-6666746D01*
X2043991Y-6666746D02*
X2053515Y-6676269D01*
X2053515Y-6676269D02*
X2072562Y-6685793D01*
X2072562Y-6685793D02*
X2110658Y-6685793D01*
X2110658Y-6685793D02*
X2129705Y-6676269D01*
X2129705Y-6676269D02*
X2139229Y-6666746D01*
X2139229Y-6666746D02*
X2148753Y-6647698D01*
X2272563Y-6561984D02*
X2291610Y-6561984D01*
X2291610Y-6561984D02*
X2310658Y-6571508D01*
X2310658Y-6571508D02*
X2320182Y-6581031D01*
X2320182Y-6581031D02*
X2329705Y-6600079D01*
X2329705Y-6600079D02*
X2339229Y-6638174D01*
X2339229Y-6638174D02*
X2339229Y-6685793D01*
X2339229Y-6685793D02*
X2329705Y-6723888D01*
X2329705Y-6723888D02*
X2320182Y-6742936D01*
X2320182Y-6742936D02*
X2310658Y-6752460D01*
X2310658Y-6752460D02*
X2291610Y-6761984D01*
X2291610Y-6761984D02*
X2272563Y-6761984D01*
X2272563Y-6761984D02*
X2253515Y-6752460D01*
X2253515Y-6752460D02*
X2243991Y-6742936D01*
X2243991Y-6742936D02*
X2234467Y-6723888D01*
X2234467Y-6723888D02*
X2224944Y-6685793D01*
X2224944Y-6685793D02*
X2224944Y-6638174D01*
X2224944Y-6638174D02*
X2234467Y-6600079D01*
X2234467Y-6600079D02*
X2243991Y-6581031D01*
X2243991Y-6581031D02*
X2253515Y-6571508D01*
X2253515Y-6571508D02*
X2272563Y-6561984D01*
X2463039Y-6561984D02*
X2482086Y-6561984D01*
X2482086Y-6561984D02*
X2501134Y-6571508D01*
X2501134Y-6571508D02*
X2510658Y-6581031D01*
X2510658Y-6581031D02*
X2520182Y-6600079D01*
X2520182Y-6600079D02*
X2529705Y-6638174D01*
X2529705Y-6638174D02*
X2529705Y-6685793D01*
X2529705Y-6685793D02*
X2520182Y-6723888D01*
X2520182Y-6723888D02*
X2510658Y-6742936D01*
X2510658Y-6742936D02*
X2501134Y-6752460D01*
X2501134Y-6752460D02*
X2482086Y-6761984D01*
X2482086Y-6761984D02*
X2463039Y-6761984D01*
X2463039Y-6761984D02*
X2443991Y-6752460D01*
X2443991Y-6752460D02*
X2434467Y-6742936D01*
X2434467Y-6742936D02*
X2424944Y-6723888D01*
X2424944Y-6723888D02*
X2415420Y-6685793D01*
X2415420Y-6685793D02*
X2415420Y-6638174D01*
X2415420Y-6638174D02*
X2424944Y-6600079D01*
X2424944Y-6600079D02*
X2434467Y-6581031D01*
X2434467Y-6581031D02*
X2443991Y-6571508D01*
X2443991Y-6571508D02*
X2463039Y-6561984D01*
X2615420Y-6761984D02*
X2615420Y-6628650D01*
X2615420Y-6647698D02*
X2624944Y-6638174D01*
X2624944Y-6638174D02*
X2643991Y-6628650D01*
X2643991Y-6628650D02*
X2672563Y-6628650D01*
X2672563Y-6628650D02*
X2691610Y-6638174D01*
X2691610Y-6638174D02*
X2701134Y-6657222D01*
X2701134Y-6657222D02*
X2701134Y-6761984D01*
X2701134Y-6657222D02*
X2710658Y-6638174D01*
X2710658Y-6638174D02*
X2729705Y-6628650D01*
X2729705Y-6628650D02*
X2758277Y-6628650D01*
X2758277Y-6628650D02*
X2777325Y-6638174D01*
X2777325Y-6638174D02*
X2786848Y-6657222D01*
X2786848Y-6657222D02*
X2786848Y-6761984D01*
X2882086Y-6761984D02*
X2882086Y-6628650D01*
X2882086Y-6647698D02*
X2891610Y-6638174D01*
X2891610Y-6638174D02*
X2910658Y-6628650D01*
X2910658Y-6628650D02*
X2939229Y-6628650D01*
X2939229Y-6628650D02*
X2958277Y-6638174D01*
X2958277Y-6638174D02*
X2967801Y-6657222D01*
X2967801Y-6657222D02*
X2967801Y-6761984D01*
X2967801Y-6657222D02*
X2977324Y-6638174D01*
X2977324Y-6638174D02*
X2996372Y-6628650D01*
X2996372Y-6628650D02*
X3024943Y-6628650D01*
X3024943Y-6628650D02*
X3043991Y-6638174D01*
X3043991Y-6638174D02*
X3053515Y-6657222D01*
X3053515Y-6657222D02*
X3053515Y-6761984D01*
X3443991Y-6552460D02*
X3272563Y-6809603D01*
X3701134Y-6561984D02*
X3720182Y-6561984D01*
X3720182Y-6561984D02*
X3739229Y-6571508D01*
X3739229Y-6571508D02*
X3748753Y-6581031D01*
X3748753Y-6581031D02*
X3758277Y-6600079D01*
X3758277Y-6600079D02*
X3767801Y-6638174D01*
X3767801Y-6638174D02*
X3767801Y-6685793D01*
X3767801Y-6685793D02*
X3758277Y-6723888D01*
X3758277Y-6723888D02*
X3748753Y-6742936D01*
X3748753Y-6742936D02*
X3739229Y-6752460D01*
X3739229Y-6752460D02*
X3720182Y-6761984D01*
X3720182Y-6761984D02*
X3701134Y-6761984D01*
X3701134Y-6761984D02*
X3682086Y-6752460D01*
X3682086Y-6752460D02*
X3672563Y-6742936D01*
X3672563Y-6742936D02*
X3663039Y-6723888D01*
X3663039Y-6723888D02*
X3653515Y-6685793D01*
X3653515Y-6685793D02*
X3653515Y-6638174D01*
X3653515Y-6638174D02*
X3663039Y-6600079D01*
X3663039Y-6600079D02*
X3672563Y-6581031D01*
X3672563Y-6581031D02*
X3682086Y-6571508D01*
X3682086Y-6571508D02*
X3701134Y-6561984D01*
X3853515Y-6742936D02*
X3863039Y-6752460D01*
X3863039Y-6752460D02*
X3853515Y-6761984D01*
X3853515Y-6761984D02*
X3843991Y-6752460D01*
X3843991Y-6752460D02*
X3853515Y-6742936D01*
X3853515Y-6742936D02*
X3853515Y-6761984D01*
X3986848Y-6561984D02*
X4005896Y-6561984D01*
X4005896Y-6561984D02*
X4024944Y-6571508D01*
X4024944Y-6571508D02*
X4034467Y-6581031D01*
X4034467Y-6581031D02*
X4043991Y-6600079D01*
X4043991Y-6600079D02*
X4053515Y-6638174D01*
X4053515Y-6638174D02*
X4053515Y-6685793D01*
X4053515Y-6685793D02*
X4043991Y-6723888D01*
X4043991Y-6723888D02*
X4034467Y-6742936D01*
X4034467Y-6742936D02*
X4024944Y-6752460D01*
X4024944Y-6752460D02*
X4005896Y-6761984D01*
X4005896Y-6761984D02*
X3986848Y-6761984D01*
X3986848Y-6761984D02*
X3967801Y-6752460D01*
X3967801Y-6752460D02*
X3958277Y-6742936D01*
X3958277Y-6742936D02*
X3948753Y-6723888D01*
X3948753Y-6723888D02*
X3939229Y-6685793D01*
X3939229Y-6685793D02*
X3939229Y-6638174D01*
X3939229Y-6638174D02*
X3948753Y-6600079D01*
X3948753Y-6600079D02*
X3958277Y-6581031D01*
X3958277Y-6581031D02*
X3967801Y-6571508D01*
X3967801Y-6571508D02*
X3986848Y-6561984D01*
X4120182Y-6561984D02*
X4243991Y-6561984D01*
X4243991Y-6561984D02*
X4177325Y-6638174D01*
X4177325Y-6638174D02*
X4205896Y-6638174D01*
X4205896Y-6638174D02*
X4224944Y-6647698D01*
X4224944Y-6647698D02*
X4234468Y-6657222D01*
X4234468Y-6657222D02*
X4243991Y-6676269D01*
X4243991Y-6676269D02*
X4243991Y-6723888D01*
X4243991Y-6723888D02*
X4234468Y-6742936D01*
X4234468Y-6742936D02*
X4224944Y-6752460D01*
X4224944Y-6752460D02*
X4205896Y-6761984D01*
X4205896Y-6761984D02*
X4148753Y-6761984D01*
X4148753Y-6761984D02*
X4129706Y-6752460D01*
X4129706Y-6752460D02*
X4120182Y-6742936D01*
X4424944Y-6561984D02*
X4329706Y-6561984D01*
X4329706Y-6561984D02*
X4320182Y-6657222D01*
X4320182Y-6657222D02*
X4329706Y-6647698D01*
X4329706Y-6647698D02*
X4348753Y-6638174D01*
X4348753Y-6638174D02*
X4396372Y-6638174D01*
X4396372Y-6638174D02*
X4415420Y-6647698D01*
X4415420Y-6647698D02*
X4424944Y-6657222D01*
X4424944Y-6657222D02*
X4434468Y-6676269D01*
X4434468Y-6676269D02*
X4434468Y-6723888D01*
X4434468Y-6723888D02*
X4424944Y-6742936D01*
X4424944Y-6742936D02*
X4415420Y-6752460D01*
X4415420Y-6752460D02*
X4396372Y-6761984D01*
X4396372Y-6761984D02*
X4348753Y-6761984D01*
X4348753Y-6761984D02*
X4329706Y-6752460D01*
X4329706Y-6752460D02*
X4320182Y-6742936D01*
X4605896Y-6628650D02*
X4605896Y-6761984D01*
X4558277Y-6552460D02*
X4510658Y-6695317D01*
X4510658Y-6695317D02*
X4634468Y-6695317D01*
X4701134Y-6561984D02*
X4701134Y-6600079D01*
X4777325Y-6561984D02*
X4777325Y-6600079D01*
X5072563Y-6838174D02*
X5063039Y-6828650D01*
X5063039Y-6828650D02*
X5043991Y-6800079D01*
X5043991Y-6800079D02*
X5034468Y-6781031D01*
X5034468Y-6781031D02*
X5024944Y-6752460D01*
X5024944Y-6752460D02*
X5015420Y-6704841D01*
X5015420Y-6704841D02*
X5015420Y-6666746D01*
X5015420Y-6666746D02*
X5024944Y-6619127D01*
X5024944Y-6619127D02*
X5034468Y-6590555D01*
X5034468Y-6590555D02*
X5043991Y-6571508D01*
X5043991Y-6571508D02*
X5063039Y-6542936D01*
X5063039Y-6542936D02*
X5072563Y-6533412D01*
X5177325Y-6647698D02*
X5158277Y-6638174D01*
X5158277Y-6638174D02*
X5148753Y-6628650D01*
X5148753Y-6628650D02*
X5139230Y-6609603D01*
X5139230Y-6609603D02*
X5139230Y-6600079D01*
X5139230Y-6600079D02*
X5148753Y-6581031D01*
X5148753Y-6581031D02*
X5158277Y-6571508D01*
X5158277Y-6571508D02*
X5177325Y-6561984D01*
X5177325Y-6561984D02*
X5215420Y-6561984D01*
X5215420Y-6561984D02*
X5234468Y-6571508D01*
X5234468Y-6571508D02*
X5243991Y-6581031D01*
X5243991Y-6581031D02*
X5253515Y-6600079D01*
X5253515Y-6600079D02*
X5253515Y-6609603D01*
X5253515Y-6609603D02*
X5243991Y-6628650D01*
X5243991Y-6628650D02*
X5234468Y-6638174D01*
X5234468Y-6638174D02*
X5215420Y-6647698D01*
X5215420Y-6647698D02*
X5177325Y-6647698D01*
X5177325Y-6647698D02*
X5158277Y-6657222D01*
X5158277Y-6657222D02*
X5148753Y-6666746D01*
X5148753Y-6666746D02*
X5139230Y-6685793D01*
X5139230Y-6685793D02*
X5139230Y-6723888D01*
X5139230Y-6723888D02*
X5148753Y-6742936D01*
X5148753Y-6742936D02*
X5158277Y-6752460D01*
X5158277Y-6752460D02*
X5177325Y-6761984D01*
X5177325Y-6761984D02*
X5215420Y-6761984D01*
X5215420Y-6761984D02*
X5234468Y-6752460D01*
X5234468Y-6752460D02*
X5243991Y-6742936D01*
X5243991Y-6742936D02*
X5253515Y-6723888D01*
X5253515Y-6723888D02*
X5253515Y-6685793D01*
X5253515Y-6685793D02*
X5243991Y-6666746D01*
X5243991Y-6666746D02*
X5234468Y-6657222D01*
X5234468Y-6657222D02*
X5215420Y-6647698D01*
X5491611Y-6761984D02*
X5491611Y-6561984D01*
X5577325Y-6761984D02*
X5577325Y-6657222D01*
X5577325Y-6657222D02*
X5567801Y-6638174D01*
X5567801Y-6638174D02*
X5548753Y-6628650D01*
X5548753Y-6628650D02*
X5520182Y-6628650D01*
X5520182Y-6628650D02*
X5501134Y-6638174D01*
X5501134Y-6638174D02*
X5491611Y-6647698D01*
X5701134Y-6761984D02*
X5682087Y-6752460D01*
X5682087Y-6752460D02*
X5672563Y-6742936D01*
X5672563Y-6742936D02*
X5663039Y-6723888D01*
X5663039Y-6723888D02*
X5663039Y-6666746D01*
X5663039Y-6666746D02*
X5672563Y-6647698D01*
X5672563Y-6647698D02*
X5682087Y-6638174D01*
X5682087Y-6638174D02*
X5701134Y-6628650D01*
X5701134Y-6628650D02*
X5729706Y-6628650D01*
X5729706Y-6628650D02*
X5748753Y-6638174D01*
X5748753Y-6638174D02*
X5758277Y-6647698D01*
X5758277Y-6647698D02*
X5767801Y-6666746D01*
X5767801Y-6666746D02*
X5767801Y-6723888D01*
X5767801Y-6723888D02*
X5758277Y-6742936D01*
X5758277Y-6742936D02*
X5748753Y-6752460D01*
X5748753Y-6752460D02*
X5729706Y-6761984D01*
X5729706Y-6761984D02*
X5701134Y-6761984D01*
X5882087Y-6761984D02*
X5863039Y-6752460D01*
X5863039Y-6752460D02*
X5853515Y-6733412D01*
X5853515Y-6733412D02*
X5853515Y-6561984D01*
X6034468Y-6752460D02*
X6015420Y-6761984D01*
X6015420Y-6761984D02*
X5977325Y-6761984D01*
X5977325Y-6761984D02*
X5958277Y-6752460D01*
X5958277Y-6752460D02*
X5948753Y-6733412D01*
X5948753Y-6733412D02*
X5948753Y-6657222D01*
X5948753Y-6657222D02*
X5958277Y-6638174D01*
X5958277Y-6638174D02*
X5977325Y-6628650D01*
X5977325Y-6628650D02*
X6015420Y-6628650D01*
X6015420Y-6628650D02*
X6034468Y-6638174D01*
X6034468Y-6638174D02*
X6043991Y-6657222D01*
X6043991Y-6657222D02*
X6043991Y-6676269D01*
X6043991Y-6676269D02*
X5948753Y-6695317D01*
X6120182Y-6752460D02*
X6139230Y-6761984D01*
X6139230Y-6761984D02*
X6177325Y-6761984D01*
X6177325Y-6761984D02*
X6196372Y-6752460D01*
X6196372Y-6752460D02*
X6205896Y-6733412D01*
X6205896Y-6733412D02*
X6205896Y-6723888D01*
X6205896Y-6723888D02*
X6196372Y-6704841D01*
X6196372Y-6704841D02*
X6177325Y-6695317D01*
X6177325Y-6695317D02*
X6148753Y-6695317D01*
X6148753Y-6695317D02*
X6129706Y-6685793D01*
X6129706Y-6685793D02*
X6120182Y-6666746D01*
X6120182Y-6666746D02*
X6120182Y-6657222D01*
X6120182Y-6657222D02*
X6129706Y-6638174D01*
X6129706Y-6638174D02*
X6148753Y-6628650D01*
X6148753Y-6628650D02*
X6177325Y-6628650D01*
X6177325Y-6628650D02*
X6196372Y-6638174D01*
X6272563Y-6838174D02*
X6282087Y-6828650D01*
X6282087Y-6828650D02*
X6301134Y-6800079D01*
X6301134Y-6800079D02*
X6310658Y-6781031D01*
X6310658Y-6781031D02*
X6320182Y-6752460D01*
X6320182Y-6752460D02*
X6329706Y-6704841D01*
X6329706Y-6704841D02*
X6329706Y-6666746D01*
X6329706Y-6666746D02*
X6320182Y-6619127D01*
X6320182Y-6619127D02*
X6310658Y-6590555D01*
X6310658Y-6590555D02*
X6301134Y-6571508D01*
X6301134Y-6571508D02*
X6282087Y-6542936D01*
X6282087Y-6542936D02*
X6272563Y-6533412D01*
D12*
X1482856Y-6969856D02*
X1482856Y-6899144D01*
X1412144Y-6899144D01*
X1412144Y-6969856D01*
X1482856Y-6969856D01*
D11*
X1863039Y-7025984D02*
X1748753Y-7025984D01*
X1805896Y-7025984D02*
X1805896Y-6825984D01*
X1805896Y-6825984D02*
X1786848Y-6854555D01*
X1786848Y-6854555D02*
X1767801Y-6873603D01*
X1767801Y-6873603D02*
X1748753Y-6883127D01*
X1948753Y-7006936D02*
X1958277Y-7016460D01*
X1958277Y-7016460D02*
X1948753Y-7025984D01*
X1948753Y-7025984D02*
X1939229Y-7016460D01*
X1939229Y-7016460D02*
X1948753Y-7006936D01*
X1948753Y-7006936D02*
X1948753Y-7025984D01*
X2082086Y-6825984D02*
X2101134Y-6825984D01*
X2101134Y-6825984D02*
X2120182Y-6835508D01*
X2120182Y-6835508D02*
X2129705Y-6845031D01*
X2129705Y-6845031D02*
X2139229Y-6864079D01*
X2139229Y-6864079D02*
X2148753Y-6902174D01*
X2148753Y-6902174D02*
X2148753Y-6949793D01*
X2148753Y-6949793D02*
X2139229Y-6987888D01*
X2139229Y-6987888D02*
X2129705Y-7006936D01*
X2129705Y-7006936D02*
X2120182Y-7016460D01*
X2120182Y-7016460D02*
X2101134Y-7025984D01*
X2101134Y-7025984D02*
X2082086Y-7025984D01*
X2082086Y-7025984D02*
X2063039Y-7016460D01*
X2063039Y-7016460D02*
X2053515Y-7006936D01*
X2053515Y-7006936D02*
X2043991Y-6987888D01*
X2043991Y-6987888D02*
X2034467Y-6949793D01*
X2034467Y-6949793D02*
X2034467Y-6902174D01*
X2034467Y-6902174D02*
X2043991Y-6864079D01*
X2043991Y-6864079D02*
X2053515Y-6845031D01*
X2053515Y-6845031D02*
X2063039Y-6835508D01*
X2063039Y-6835508D02*
X2082086Y-6825984D01*
X2272563Y-6825984D02*
X2291610Y-6825984D01*
X2291610Y-6825984D02*
X2310658Y-6835508D01*
X2310658Y-6835508D02*
X2320182Y-6845031D01*
X2320182Y-6845031D02*
X2329705Y-6864079D01*
X2329705Y-6864079D02*
X2339229Y-6902174D01*
X2339229Y-6902174D02*
X2339229Y-6949793D01*
X2339229Y-6949793D02*
X2329705Y-6987888D01*
X2329705Y-6987888D02*
X2320182Y-7006936D01*
X2320182Y-7006936D02*
X2310658Y-7016460D01*
X2310658Y-7016460D02*
X2291610Y-7025984D01*
X2291610Y-7025984D02*
X2272563Y-7025984D01*
X2272563Y-7025984D02*
X2253515Y-7016460D01*
X2253515Y-7016460D02*
X2243991Y-7006936D01*
X2243991Y-7006936D02*
X2234467Y-6987888D01*
X2234467Y-6987888D02*
X2224944Y-6949793D01*
X2224944Y-6949793D02*
X2224944Y-6902174D01*
X2224944Y-6902174D02*
X2234467Y-6864079D01*
X2234467Y-6864079D02*
X2243991Y-6845031D01*
X2243991Y-6845031D02*
X2253515Y-6835508D01*
X2253515Y-6835508D02*
X2272563Y-6825984D01*
X2463039Y-6825984D02*
X2482086Y-6825984D01*
X2482086Y-6825984D02*
X2501134Y-6835508D01*
X2501134Y-6835508D02*
X2510658Y-6845031D01*
X2510658Y-6845031D02*
X2520182Y-6864079D01*
X2520182Y-6864079D02*
X2529705Y-6902174D01*
X2529705Y-6902174D02*
X2529705Y-6949793D01*
X2529705Y-6949793D02*
X2520182Y-6987888D01*
X2520182Y-6987888D02*
X2510658Y-7006936D01*
X2510658Y-7006936D02*
X2501134Y-7016460D01*
X2501134Y-7016460D02*
X2482086Y-7025984D01*
X2482086Y-7025984D02*
X2463039Y-7025984D01*
X2463039Y-7025984D02*
X2443991Y-7016460D01*
X2443991Y-7016460D02*
X2434467Y-7006936D01*
X2434467Y-7006936D02*
X2424944Y-6987888D01*
X2424944Y-6987888D02*
X2415420Y-6949793D01*
X2415420Y-6949793D02*
X2415420Y-6902174D01*
X2415420Y-6902174D02*
X2424944Y-6864079D01*
X2424944Y-6864079D02*
X2434467Y-6845031D01*
X2434467Y-6845031D02*
X2443991Y-6835508D01*
X2443991Y-6835508D02*
X2463039Y-6825984D01*
X2615420Y-7025984D02*
X2615420Y-6892650D01*
X2615420Y-6911698D02*
X2624944Y-6902174D01*
X2624944Y-6902174D02*
X2643991Y-6892650D01*
X2643991Y-6892650D02*
X2672563Y-6892650D01*
X2672563Y-6892650D02*
X2691610Y-6902174D01*
X2691610Y-6902174D02*
X2701134Y-6921222D01*
X2701134Y-6921222D02*
X2701134Y-7025984D01*
X2701134Y-6921222D02*
X2710658Y-6902174D01*
X2710658Y-6902174D02*
X2729705Y-6892650D01*
X2729705Y-6892650D02*
X2758277Y-6892650D01*
X2758277Y-6892650D02*
X2777325Y-6902174D01*
X2777325Y-6902174D02*
X2786848Y-6921222D01*
X2786848Y-6921222D02*
X2786848Y-7025984D01*
X2882086Y-7025984D02*
X2882086Y-6892650D01*
X2882086Y-6911698D02*
X2891610Y-6902174D01*
X2891610Y-6902174D02*
X2910658Y-6892650D01*
X2910658Y-6892650D02*
X2939229Y-6892650D01*
X2939229Y-6892650D02*
X2958277Y-6902174D01*
X2958277Y-6902174D02*
X2967801Y-6921222D01*
X2967801Y-6921222D02*
X2967801Y-7025984D01*
X2967801Y-6921222D02*
X2977324Y-6902174D01*
X2977324Y-6902174D02*
X2996372Y-6892650D01*
X2996372Y-6892650D02*
X3024943Y-6892650D01*
X3024943Y-6892650D02*
X3043991Y-6902174D01*
X3043991Y-6902174D02*
X3053515Y-6921222D01*
X3053515Y-6921222D02*
X3053515Y-7025984D01*
X3443991Y-6816460D02*
X3272563Y-7073603D01*
X3701134Y-6825984D02*
X3720182Y-6825984D01*
X3720182Y-6825984D02*
X3739229Y-6835508D01*
X3739229Y-6835508D02*
X3748753Y-6845031D01*
X3748753Y-6845031D02*
X3758277Y-6864079D01*
X3758277Y-6864079D02*
X3767801Y-6902174D01*
X3767801Y-6902174D02*
X3767801Y-6949793D01*
X3767801Y-6949793D02*
X3758277Y-6987888D01*
X3758277Y-6987888D02*
X3748753Y-7006936D01*
X3748753Y-7006936D02*
X3739229Y-7016460D01*
X3739229Y-7016460D02*
X3720182Y-7025984D01*
X3720182Y-7025984D02*
X3701134Y-7025984D01*
X3701134Y-7025984D02*
X3682086Y-7016460D01*
X3682086Y-7016460D02*
X3672563Y-7006936D01*
X3672563Y-7006936D02*
X3663039Y-6987888D01*
X3663039Y-6987888D02*
X3653515Y-6949793D01*
X3653515Y-6949793D02*
X3653515Y-6902174D01*
X3653515Y-6902174D02*
X3663039Y-6864079D01*
X3663039Y-6864079D02*
X3672563Y-6845031D01*
X3672563Y-6845031D02*
X3682086Y-6835508D01*
X3682086Y-6835508D02*
X3701134Y-6825984D01*
X3853515Y-7006936D02*
X3863039Y-7016460D01*
X3863039Y-7016460D02*
X3853515Y-7025984D01*
X3853515Y-7025984D02*
X3843991Y-7016460D01*
X3843991Y-7016460D02*
X3853515Y-7006936D01*
X3853515Y-7006936D02*
X3853515Y-7025984D01*
X3986848Y-6825984D02*
X4005896Y-6825984D01*
X4005896Y-6825984D02*
X4024944Y-6835508D01*
X4024944Y-6835508D02*
X4034467Y-6845031D01*
X4034467Y-6845031D02*
X4043991Y-6864079D01*
X4043991Y-6864079D02*
X4053515Y-6902174D01*
X4053515Y-6902174D02*
X4053515Y-6949793D01*
X4053515Y-6949793D02*
X4043991Y-6987888D01*
X4043991Y-6987888D02*
X4034467Y-7006936D01*
X4034467Y-7006936D02*
X4024944Y-7016460D01*
X4024944Y-7016460D02*
X4005896Y-7025984D01*
X4005896Y-7025984D02*
X3986848Y-7025984D01*
X3986848Y-7025984D02*
X3967801Y-7016460D01*
X3967801Y-7016460D02*
X3958277Y-7006936D01*
X3958277Y-7006936D02*
X3948753Y-6987888D01*
X3948753Y-6987888D02*
X3939229Y-6949793D01*
X3939229Y-6949793D02*
X3939229Y-6902174D01*
X3939229Y-6902174D02*
X3948753Y-6864079D01*
X3948753Y-6864079D02*
X3958277Y-6845031D01*
X3958277Y-6845031D02*
X3967801Y-6835508D01*
X3967801Y-6835508D02*
X3986848Y-6825984D01*
X4120182Y-6825984D02*
X4243991Y-6825984D01*
X4243991Y-6825984D02*
X4177325Y-6902174D01*
X4177325Y-6902174D02*
X4205896Y-6902174D01*
X4205896Y-6902174D02*
X4224944Y-6911698D01*
X4224944Y-6911698D02*
X4234468Y-6921222D01*
X4234468Y-6921222D02*
X4243991Y-6940269D01*
X4243991Y-6940269D02*
X4243991Y-6987888D01*
X4243991Y-6987888D02*
X4234468Y-7006936D01*
X4234468Y-7006936D02*
X4224944Y-7016460D01*
X4224944Y-7016460D02*
X4205896Y-7025984D01*
X4205896Y-7025984D02*
X4148753Y-7025984D01*
X4148753Y-7025984D02*
X4129706Y-7016460D01*
X4129706Y-7016460D02*
X4120182Y-7006936D01*
X4339229Y-7025984D02*
X4377325Y-7025984D01*
X4377325Y-7025984D02*
X4396372Y-7016460D01*
X4396372Y-7016460D02*
X4405896Y-7006936D01*
X4405896Y-7006936D02*
X4424944Y-6978365D01*
X4424944Y-6978365D02*
X4434468Y-6940269D01*
X4434468Y-6940269D02*
X4434468Y-6864079D01*
X4434468Y-6864079D02*
X4424944Y-6845031D01*
X4424944Y-6845031D02*
X4415420Y-6835508D01*
X4415420Y-6835508D02*
X4396372Y-6825984D01*
X4396372Y-6825984D02*
X4358277Y-6825984D01*
X4358277Y-6825984D02*
X4339229Y-6835508D01*
X4339229Y-6835508D02*
X4329706Y-6845031D01*
X4329706Y-6845031D02*
X4320182Y-6864079D01*
X4320182Y-6864079D02*
X4320182Y-6911698D01*
X4320182Y-6911698D02*
X4329706Y-6930746D01*
X4329706Y-6930746D02*
X4339229Y-6940269D01*
X4339229Y-6940269D02*
X4358277Y-6949793D01*
X4358277Y-6949793D02*
X4396372Y-6949793D01*
X4396372Y-6949793D02*
X4415420Y-6940269D01*
X4415420Y-6940269D02*
X4424944Y-6930746D01*
X4424944Y-6930746D02*
X4434468Y-6911698D01*
X4605896Y-6892650D02*
X4605896Y-7025984D01*
X4558277Y-6816460D02*
X4510658Y-6959317D01*
X4510658Y-6959317D02*
X4634468Y-6959317D01*
X4701134Y-6825984D02*
X4701134Y-6864079D01*
X4777325Y-6825984D02*
X4777325Y-6864079D01*
X5072563Y-7102174D02*
X5063039Y-7092650D01*
X5063039Y-7092650D02*
X5043991Y-7064079D01*
X5043991Y-7064079D02*
X5034468Y-7045031D01*
X5034468Y-7045031D02*
X5024944Y-7016460D01*
X5024944Y-7016460D02*
X5015420Y-6968841D01*
X5015420Y-6968841D02*
X5015420Y-6930746D01*
X5015420Y-6930746D02*
X5024944Y-6883127D01*
X5024944Y-6883127D02*
X5034468Y-6854555D01*
X5034468Y-6854555D02*
X5043991Y-6835508D01*
X5043991Y-6835508D02*
X5063039Y-6806936D01*
X5063039Y-6806936D02*
X5072563Y-6797412D01*
X5139230Y-6845031D02*
X5148753Y-6835508D01*
X5148753Y-6835508D02*
X5167801Y-6825984D01*
X5167801Y-6825984D02*
X5215420Y-6825984D01*
X5215420Y-6825984D02*
X5234468Y-6835508D01*
X5234468Y-6835508D02*
X5243991Y-6845031D01*
X5243991Y-6845031D02*
X5253515Y-6864079D01*
X5253515Y-6864079D02*
X5253515Y-6883127D01*
X5253515Y-6883127D02*
X5243991Y-6911698D01*
X5243991Y-6911698D02*
X5129706Y-7025984D01*
X5129706Y-7025984D02*
X5253515Y-7025984D01*
X5377325Y-6825984D02*
X5396372Y-6825984D01*
X5396372Y-6825984D02*
X5415420Y-6835508D01*
X5415420Y-6835508D02*
X5424944Y-6845031D01*
X5424944Y-6845031D02*
X5434468Y-6864079D01*
X5434468Y-6864079D02*
X5443991Y-6902174D01*
X5443991Y-6902174D02*
X5443991Y-6949793D01*
X5443991Y-6949793D02*
X5434468Y-6987888D01*
X5434468Y-6987888D02*
X5424944Y-7006936D01*
X5424944Y-7006936D02*
X5415420Y-7016460D01*
X5415420Y-7016460D02*
X5396372Y-7025984D01*
X5396372Y-7025984D02*
X5377325Y-7025984D01*
X5377325Y-7025984D02*
X5358277Y-7016460D01*
X5358277Y-7016460D02*
X5348753Y-7006936D01*
X5348753Y-7006936D02*
X5339230Y-6987888D01*
X5339230Y-6987888D02*
X5329706Y-6949793D01*
X5329706Y-6949793D02*
X5329706Y-6902174D01*
X5329706Y-6902174D02*
X5339230Y-6864079D01*
X5339230Y-6864079D02*
X5348753Y-6845031D01*
X5348753Y-6845031D02*
X5358277Y-6835508D01*
X5358277Y-6835508D02*
X5377325Y-6825984D01*
X5682087Y-7025984D02*
X5682087Y-6825984D01*
X5767801Y-7025984D02*
X5767801Y-6921222D01*
X5767801Y-6921222D02*
X5758277Y-6902174D01*
X5758277Y-6902174D02*
X5739230Y-6892650D01*
X5739230Y-6892650D02*
X5710658Y-6892650D01*
X5710658Y-6892650D02*
X5691610Y-6902174D01*
X5691610Y-6902174D02*
X5682087Y-6911698D01*
X5891610Y-7025984D02*
X5872563Y-7016460D01*
X5872563Y-7016460D02*
X5863039Y-7006936D01*
X5863039Y-7006936D02*
X5853515Y-6987888D01*
X5853515Y-6987888D02*
X5853515Y-6930746D01*
X5853515Y-6930746D02*
X5863039Y-6911698D01*
X5863039Y-6911698D02*
X5872563Y-6902174D01*
X5872563Y-6902174D02*
X5891610Y-6892650D01*
X5891610Y-6892650D02*
X5920182Y-6892650D01*
X5920182Y-6892650D02*
X5939230Y-6902174D01*
X5939230Y-6902174D02*
X5948753Y-6911698D01*
X5948753Y-6911698D02*
X5958277Y-6930746D01*
X5958277Y-6930746D02*
X5958277Y-6987888D01*
X5958277Y-6987888D02*
X5948753Y-7006936D01*
X5948753Y-7006936D02*
X5939230Y-7016460D01*
X5939230Y-7016460D02*
X5920182Y-7025984D01*
X5920182Y-7025984D02*
X5891610Y-7025984D01*
X6072563Y-7025984D02*
X6053515Y-7016460D01*
X6053515Y-7016460D02*
X6043991Y-6997412D01*
X6043991Y-6997412D02*
X6043991Y-6825984D01*
X6224944Y-7016460D02*
X6205896Y-7025984D01*
X6205896Y-7025984D02*
X6167801Y-7025984D01*
X6167801Y-7025984D02*
X6148753Y-7016460D01*
X6148753Y-7016460D02*
X6139230Y-6997412D01*
X6139230Y-6997412D02*
X6139230Y-6921222D01*
X6139230Y-6921222D02*
X6148753Y-6902174D01*
X6148753Y-6902174D02*
X6167801Y-6892650D01*
X6167801Y-6892650D02*
X6205896Y-6892650D01*
X6205896Y-6892650D02*
X6224944Y-6902174D01*
X6224944Y-6902174D02*
X6234468Y-6921222D01*
X6234468Y-6921222D02*
X6234468Y-6940269D01*
X6234468Y-6940269D02*
X6139230Y-6959317D01*
X6310658Y-7016460D02*
X6329706Y-7025984D01*
X6329706Y-7025984D02*
X6367801Y-7025984D01*
X6367801Y-7025984D02*
X6386849Y-7016460D01*
X6386849Y-7016460D02*
X6396372Y-6997412D01*
X6396372Y-6997412D02*
X6396372Y-6987888D01*
X6396372Y-6987888D02*
X6386849Y-6968841D01*
X6386849Y-6968841D02*
X6367801Y-6959317D01*
X6367801Y-6959317D02*
X6339230Y-6959317D01*
X6339230Y-6959317D02*
X6320182Y-6949793D01*
X6320182Y-6949793D02*
X6310658Y-6930746D01*
X6310658Y-6930746D02*
X6310658Y-6921222D01*
X6310658Y-6921222D02*
X6320182Y-6902174D01*
X6320182Y-6902174D02*
X6339230Y-6892650D01*
X6339230Y-6892650D02*
X6367801Y-6892650D01*
X6367801Y-6892650D02*
X6386849Y-6902174D01*
X6463039Y-7102174D02*
X6472563Y-7092650D01*
X6472563Y-7092650D02*
X6491611Y-7064079D01*
X6491611Y-7064079D02*
X6501134Y-7045031D01*
X6501134Y-7045031D02*
X6510658Y-7016460D01*
X6510658Y-7016460D02*
X6520182Y-6968841D01*
X6520182Y-6968841D02*
X6520182Y-6930746D01*
X6520182Y-6930746D02*
X6510658Y-6883127D01*
X6510658Y-6883127D02*
X6501134Y-6854555D01*
X6501134Y-6854555D02*
X6491611Y-6835508D01*
X6491611Y-6835508D02*
X6472563Y-6806936D01*
X6472563Y-6806936D02*
X6463039Y-6797412D01*
D13*
X1437500Y-7258500D02*
X1497500Y-7198500D01*
X1437500Y-7138500D01*
X1377500Y-7198500D01*
X1437500Y-7258500D01*
D11*
X1863039Y-7289984D02*
X1748753Y-7289984D01*
X1805896Y-7289984D02*
X1805896Y-7089984D01*
X1805896Y-7089984D02*
X1786848Y-7118555D01*
X1786848Y-7118555D02*
X1767801Y-7137603D01*
X1767801Y-7137603D02*
X1748753Y-7147127D01*
X1948753Y-7270936D02*
X1958277Y-7280460D01*
X1958277Y-7280460D02*
X1948753Y-7289984D01*
X1948753Y-7289984D02*
X1939229Y-7280460D01*
X1939229Y-7280460D02*
X1948753Y-7270936D01*
X1948753Y-7270936D02*
X1948753Y-7289984D01*
X2034467Y-7109031D02*
X2043991Y-7099508D01*
X2043991Y-7099508D02*
X2063039Y-7089984D01*
X2063039Y-7089984D02*
X2110658Y-7089984D01*
X2110658Y-7089984D02*
X2129705Y-7099508D01*
X2129705Y-7099508D02*
X2139229Y-7109031D01*
X2139229Y-7109031D02*
X2148753Y-7128079D01*
X2148753Y-7128079D02*
X2148753Y-7147127D01*
X2148753Y-7147127D02*
X2139229Y-7175698D01*
X2139229Y-7175698D02*
X2024943Y-7289984D01*
X2024943Y-7289984D02*
X2148753Y-7289984D01*
X2272563Y-7089984D02*
X2291610Y-7089984D01*
X2291610Y-7089984D02*
X2310658Y-7099508D01*
X2310658Y-7099508D02*
X2320182Y-7109031D01*
X2320182Y-7109031D02*
X2329705Y-7128079D01*
X2329705Y-7128079D02*
X2339229Y-7166174D01*
X2339229Y-7166174D02*
X2339229Y-7213793D01*
X2339229Y-7213793D02*
X2329705Y-7251888D01*
X2329705Y-7251888D02*
X2320182Y-7270936D01*
X2320182Y-7270936D02*
X2310658Y-7280460D01*
X2310658Y-7280460D02*
X2291610Y-7289984D01*
X2291610Y-7289984D02*
X2272563Y-7289984D01*
X2272563Y-7289984D02*
X2253515Y-7280460D01*
X2253515Y-7280460D02*
X2243991Y-7270936D01*
X2243991Y-7270936D02*
X2234467Y-7251888D01*
X2234467Y-7251888D02*
X2224944Y-7213793D01*
X2224944Y-7213793D02*
X2224944Y-7166174D01*
X2224944Y-7166174D02*
X2234467Y-7128079D01*
X2234467Y-7128079D02*
X2243991Y-7109031D01*
X2243991Y-7109031D02*
X2253515Y-7099508D01*
X2253515Y-7099508D02*
X2272563Y-7089984D01*
X2463039Y-7089984D02*
X2482086Y-7089984D01*
X2482086Y-7089984D02*
X2501134Y-7099508D01*
X2501134Y-7099508D02*
X2510658Y-7109031D01*
X2510658Y-7109031D02*
X2520182Y-7128079D01*
X2520182Y-7128079D02*
X2529705Y-7166174D01*
X2529705Y-7166174D02*
X2529705Y-7213793D01*
X2529705Y-7213793D02*
X2520182Y-7251888D01*
X2520182Y-7251888D02*
X2510658Y-7270936D01*
X2510658Y-7270936D02*
X2501134Y-7280460D01*
X2501134Y-7280460D02*
X2482086Y-7289984D01*
X2482086Y-7289984D02*
X2463039Y-7289984D01*
X2463039Y-7289984D02*
X2443991Y-7280460D01*
X2443991Y-7280460D02*
X2434467Y-7270936D01*
X2434467Y-7270936D02*
X2424944Y-7251888D01*
X2424944Y-7251888D02*
X2415420Y-7213793D01*
X2415420Y-7213793D02*
X2415420Y-7166174D01*
X2415420Y-7166174D02*
X2424944Y-7128079D01*
X2424944Y-7128079D02*
X2434467Y-7109031D01*
X2434467Y-7109031D02*
X2443991Y-7099508D01*
X2443991Y-7099508D02*
X2463039Y-7089984D01*
X2615420Y-7289984D02*
X2615420Y-7156650D01*
X2615420Y-7175698D02*
X2624944Y-7166174D01*
X2624944Y-7166174D02*
X2643991Y-7156650D01*
X2643991Y-7156650D02*
X2672563Y-7156650D01*
X2672563Y-7156650D02*
X2691610Y-7166174D01*
X2691610Y-7166174D02*
X2701134Y-7185222D01*
X2701134Y-7185222D02*
X2701134Y-7289984D01*
X2701134Y-7185222D02*
X2710658Y-7166174D01*
X2710658Y-7166174D02*
X2729705Y-7156650D01*
X2729705Y-7156650D02*
X2758277Y-7156650D01*
X2758277Y-7156650D02*
X2777325Y-7166174D01*
X2777325Y-7166174D02*
X2786848Y-7185222D01*
X2786848Y-7185222D02*
X2786848Y-7289984D01*
X2882086Y-7289984D02*
X2882086Y-7156650D01*
X2882086Y-7175698D02*
X2891610Y-7166174D01*
X2891610Y-7166174D02*
X2910658Y-7156650D01*
X2910658Y-7156650D02*
X2939229Y-7156650D01*
X2939229Y-7156650D02*
X2958277Y-7166174D01*
X2958277Y-7166174D02*
X2967801Y-7185222D01*
X2967801Y-7185222D02*
X2967801Y-7289984D01*
X2967801Y-7185222D02*
X2977324Y-7166174D01*
X2977324Y-7166174D02*
X2996372Y-7156650D01*
X2996372Y-7156650D02*
X3024943Y-7156650D01*
X3024943Y-7156650D02*
X3043991Y-7166174D01*
X3043991Y-7166174D02*
X3053515Y-7185222D01*
X3053515Y-7185222D02*
X3053515Y-7289984D01*
X3443991Y-7080460D02*
X3272563Y-7337603D01*
X3701134Y-7089984D02*
X3720182Y-7089984D01*
X3720182Y-7089984D02*
X3739229Y-7099508D01*
X3739229Y-7099508D02*
X3748753Y-7109031D01*
X3748753Y-7109031D02*
X3758277Y-7128079D01*
X3758277Y-7128079D02*
X3767801Y-7166174D01*
X3767801Y-7166174D02*
X3767801Y-7213793D01*
X3767801Y-7213793D02*
X3758277Y-7251888D01*
X3758277Y-7251888D02*
X3748753Y-7270936D01*
X3748753Y-7270936D02*
X3739229Y-7280460D01*
X3739229Y-7280460D02*
X3720182Y-7289984D01*
X3720182Y-7289984D02*
X3701134Y-7289984D01*
X3701134Y-7289984D02*
X3682086Y-7280460D01*
X3682086Y-7280460D02*
X3672563Y-7270936D01*
X3672563Y-7270936D02*
X3663039Y-7251888D01*
X3663039Y-7251888D02*
X3653515Y-7213793D01*
X3653515Y-7213793D02*
X3653515Y-7166174D01*
X3653515Y-7166174D02*
X3663039Y-7128079D01*
X3663039Y-7128079D02*
X3672563Y-7109031D01*
X3672563Y-7109031D02*
X3682086Y-7099508D01*
X3682086Y-7099508D02*
X3701134Y-7089984D01*
X3853515Y-7270936D02*
X3863039Y-7280460D01*
X3863039Y-7280460D02*
X3853515Y-7289984D01*
X3853515Y-7289984D02*
X3843991Y-7280460D01*
X3843991Y-7280460D02*
X3853515Y-7270936D01*
X3853515Y-7270936D02*
X3853515Y-7289984D01*
X3986848Y-7089984D02*
X4005896Y-7089984D01*
X4005896Y-7089984D02*
X4024944Y-7099508D01*
X4024944Y-7099508D02*
X4034467Y-7109031D01*
X4034467Y-7109031D02*
X4043991Y-7128079D01*
X4043991Y-7128079D02*
X4053515Y-7166174D01*
X4053515Y-7166174D02*
X4053515Y-7213793D01*
X4053515Y-7213793D02*
X4043991Y-7251888D01*
X4043991Y-7251888D02*
X4034467Y-7270936D01*
X4034467Y-7270936D02*
X4024944Y-7280460D01*
X4024944Y-7280460D02*
X4005896Y-7289984D01*
X4005896Y-7289984D02*
X3986848Y-7289984D01*
X3986848Y-7289984D02*
X3967801Y-7280460D01*
X3967801Y-7280460D02*
X3958277Y-7270936D01*
X3958277Y-7270936D02*
X3948753Y-7251888D01*
X3948753Y-7251888D02*
X3939229Y-7213793D01*
X3939229Y-7213793D02*
X3939229Y-7166174D01*
X3939229Y-7166174D02*
X3948753Y-7128079D01*
X3948753Y-7128079D02*
X3958277Y-7109031D01*
X3958277Y-7109031D02*
X3967801Y-7099508D01*
X3967801Y-7099508D02*
X3986848Y-7089984D01*
X4224944Y-7156650D02*
X4224944Y-7289984D01*
X4177325Y-7080460D02*
X4129706Y-7223317D01*
X4129706Y-7223317D02*
X4253515Y-7223317D01*
X4310658Y-7089984D02*
X4443991Y-7089984D01*
X4443991Y-7089984D02*
X4358277Y-7289984D01*
X4510658Y-7109031D02*
X4520182Y-7099508D01*
X4520182Y-7099508D02*
X4539229Y-7089984D01*
X4539229Y-7089984D02*
X4586849Y-7089984D01*
X4586849Y-7089984D02*
X4605896Y-7099508D01*
X4605896Y-7099508D02*
X4615420Y-7109031D01*
X4615420Y-7109031D02*
X4624944Y-7128079D01*
X4624944Y-7128079D02*
X4624944Y-7147127D01*
X4624944Y-7147127D02*
X4615420Y-7175698D01*
X4615420Y-7175698D02*
X4501134Y-7289984D01*
X4501134Y-7289984D02*
X4624944Y-7289984D01*
X4701134Y-7089984D02*
X4701134Y-7128079D01*
X4777325Y-7089984D02*
X4777325Y-7128079D01*
X5072563Y-7366174D02*
X5063039Y-7356650D01*
X5063039Y-7356650D02*
X5043991Y-7328079D01*
X5043991Y-7328079D02*
X5034468Y-7309031D01*
X5034468Y-7309031D02*
X5024944Y-7280460D01*
X5024944Y-7280460D02*
X5015420Y-7232841D01*
X5015420Y-7232841D02*
X5015420Y-7194746D01*
X5015420Y-7194746D02*
X5024944Y-7147127D01*
X5024944Y-7147127D02*
X5034468Y-7118555D01*
X5034468Y-7118555D02*
X5043991Y-7099508D01*
X5043991Y-7099508D02*
X5063039Y-7070936D01*
X5063039Y-7070936D02*
X5072563Y-7061412D01*
X5177325Y-7175698D02*
X5158277Y-7166174D01*
X5158277Y-7166174D02*
X5148753Y-7156650D01*
X5148753Y-7156650D02*
X5139230Y-7137603D01*
X5139230Y-7137603D02*
X5139230Y-7128079D01*
X5139230Y-7128079D02*
X5148753Y-7109031D01*
X5148753Y-7109031D02*
X5158277Y-7099508D01*
X5158277Y-7099508D02*
X5177325Y-7089984D01*
X5177325Y-7089984D02*
X5215420Y-7089984D01*
X5215420Y-7089984D02*
X5234468Y-7099508D01*
X5234468Y-7099508D02*
X5243991Y-7109031D01*
X5243991Y-7109031D02*
X5253515Y-7128079D01*
X5253515Y-7128079D02*
X5253515Y-7137603D01*
X5253515Y-7137603D02*
X5243991Y-7156650D01*
X5243991Y-7156650D02*
X5234468Y-7166174D01*
X5234468Y-7166174D02*
X5215420Y-7175698D01*
X5215420Y-7175698D02*
X5177325Y-7175698D01*
X5177325Y-7175698D02*
X5158277Y-7185222D01*
X5158277Y-7185222D02*
X5148753Y-7194746D01*
X5148753Y-7194746D02*
X5139230Y-7213793D01*
X5139230Y-7213793D02*
X5139230Y-7251888D01*
X5139230Y-7251888D02*
X5148753Y-7270936D01*
X5148753Y-7270936D02*
X5158277Y-7280460D01*
X5158277Y-7280460D02*
X5177325Y-7289984D01*
X5177325Y-7289984D02*
X5215420Y-7289984D01*
X5215420Y-7289984D02*
X5234468Y-7280460D01*
X5234468Y-7280460D02*
X5243991Y-7270936D01*
X5243991Y-7270936D02*
X5253515Y-7251888D01*
X5253515Y-7251888D02*
X5253515Y-7213793D01*
X5253515Y-7213793D02*
X5243991Y-7194746D01*
X5243991Y-7194746D02*
X5234468Y-7185222D01*
X5234468Y-7185222D02*
X5215420Y-7175698D01*
X5491611Y-7289984D02*
X5491611Y-7089984D01*
X5577325Y-7289984D02*
X5577325Y-7185222D01*
X5577325Y-7185222D02*
X5567801Y-7166174D01*
X5567801Y-7166174D02*
X5548753Y-7156650D01*
X5548753Y-7156650D02*
X5520182Y-7156650D01*
X5520182Y-7156650D02*
X5501134Y-7166174D01*
X5501134Y-7166174D02*
X5491611Y-7175698D01*
X5701134Y-7289984D02*
X5682087Y-7280460D01*
X5682087Y-7280460D02*
X5672563Y-7270936D01*
X5672563Y-7270936D02*
X5663039Y-7251888D01*
X5663039Y-7251888D02*
X5663039Y-7194746D01*
X5663039Y-7194746D02*
X5672563Y-7175698D01*
X5672563Y-7175698D02*
X5682087Y-7166174D01*
X5682087Y-7166174D02*
X5701134Y-7156650D01*
X5701134Y-7156650D02*
X5729706Y-7156650D01*
X5729706Y-7156650D02*
X5748753Y-7166174D01*
X5748753Y-7166174D02*
X5758277Y-7175698D01*
X5758277Y-7175698D02*
X5767801Y-7194746D01*
X5767801Y-7194746D02*
X5767801Y-7251888D01*
X5767801Y-7251888D02*
X5758277Y-7270936D01*
X5758277Y-7270936D02*
X5748753Y-7280460D01*
X5748753Y-7280460D02*
X5729706Y-7289984D01*
X5729706Y-7289984D02*
X5701134Y-7289984D01*
X5882087Y-7289984D02*
X5863039Y-7280460D01*
X5863039Y-7280460D02*
X5853515Y-7261412D01*
X5853515Y-7261412D02*
X5853515Y-7089984D01*
X6034468Y-7280460D02*
X6015420Y-7289984D01*
X6015420Y-7289984D02*
X5977325Y-7289984D01*
X5977325Y-7289984D02*
X5958277Y-7280460D01*
X5958277Y-7280460D02*
X5948753Y-7261412D01*
X5948753Y-7261412D02*
X5948753Y-7185222D01*
X5948753Y-7185222D02*
X5958277Y-7166174D01*
X5958277Y-7166174D02*
X5977325Y-7156650D01*
X5977325Y-7156650D02*
X6015420Y-7156650D01*
X6015420Y-7156650D02*
X6034468Y-7166174D01*
X6034468Y-7166174D02*
X6043991Y-7185222D01*
X6043991Y-7185222D02*
X6043991Y-7204269D01*
X6043991Y-7204269D02*
X5948753Y-7223317D01*
X6120182Y-7280460D02*
X6139230Y-7289984D01*
X6139230Y-7289984D02*
X6177325Y-7289984D01*
X6177325Y-7289984D02*
X6196372Y-7280460D01*
X6196372Y-7280460D02*
X6205896Y-7261412D01*
X6205896Y-7261412D02*
X6205896Y-7251888D01*
X6205896Y-7251888D02*
X6196372Y-7232841D01*
X6196372Y-7232841D02*
X6177325Y-7223317D01*
X6177325Y-7223317D02*
X6148753Y-7223317D01*
X6148753Y-7223317D02*
X6129706Y-7213793D01*
X6129706Y-7213793D02*
X6120182Y-7194746D01*
X6120182Y-7194746D02*
X6120182Y-7185222D01*
X6120182Y-7185222D02*
X6129706Y-7166174D01*
X6129706Y-7166174D02*
X6148753Y-7156650D01*
X6148753Y-7156650D02*
X6177325Y-7156650D01*
X6177325Y-7156650D02*
X6196372Y-7166174D01*
X6272563Y-7366174D02*
X6282087Y-7356650D01*
X6282087Y-7356650D02*
X6301134Y-7328079D01*
X6301134Y-7328079D02*
X6310658Y-7309031D01*
X6310658Y-7309031D02*
X6320182Y-7280460D01*
X6320182Y-7280460D02*
X6329706Y-7232841D01*
X6329706Y-7232841D02*
X6329706Y-7194746D01*
X6329706Y-7194746D02*
X6320182Y-7147127D01*
X6320182Y-7147127D02*
X6310658Y-7118555D01*
X6310658Y-7118555D02*
X6301134Y-7099508D01*
X6301134Y-7099508D02*
X6282087Y-7070936D01*
X6282087Y-7070936D02*
X6272563Y-7061412D01*
X1297500Y-7362500D02*
X1497500Y-7562500D01*
X1497500Y-7362500D02*
X1297500Y-7562500D01*
X1497500Y-7462500D02*
G75*
G02*
X1297500Y-7462500I-100000J0D01*
G01*
X1297500Y-7462500D02*
G75*
G02*
X1497500Y-7462500I100000J0D01*
G01*
X1739229Y-7353984D02*
X1863039Y-7353984D01*
X1863039Y-7353984D02*
X1796372Y-7430174D01*
X1796372Y-7430174D02*
X1824943Y-7430174D01*
X1824943Y-7430174D02*
X1843991Y-7439698D01*
X1843991Y-7439698D02*
X1853515Y-7449222D01*
X1853515Y-7449222D02*
X1863039Y-7468269D01*
X1863039Y-7468269D02*
X1863039Y-7515888D01*
X1863039Y-7515888D02*
X1853515Y-7534936D01*
X1853515Y-7534936D02*
X1843991Y-7544460D01*
X1843991Y-7544460D02*
X1824943Y-7553984D01*
X1824943Y-7553984D02*
X1767801Y-7553984D01*
X1767801Y-7553984D02*
X1748753Y-7544460D01*
X1748753Y-7544460D02*
X1739229Y-7534936D01*
X1948753Y-7534936D02*
X1958277Y-7544460D01*
X1958277Y-7544460D02*
X1948753Y-7553984D01*
X1948753Y-7553984D02*
X1939229Y-7544460D01*
X1939229Y-7544460D02*
X1948753Y-7534936D01*
X1948753Y-7534936D02*
X1948753Y-7553984D01*
X2082086Y-7353984D02*
X2101134Y-7353984D01*
X2101134Y-7353984D02*
X2120182Y-7363508D01*
X2120182Y-7363508D02*
X2129705Y-7373031D01*
X2129705Y-7373031D02*
X2139229Y-7392079D01*
X2139229Y-7392079D02*
X2148753Y-7430174D01*
X2148753Y-7430174D02*
X2148753Y-7477793D01*
X2148753Y-7477793D02*
X2139229Y-7515888D01*
X2139229Y-7515888D02*
X2129705Y-7534936D01*
X2129705Y-7534936D02*
X2120182Y-7544460D01*
X2120182Y-7544460D02*
X2101134Y-7553984D01*
X2101134Y-7553984D02*
X2082086Y-7553984D01*
X2082086Y-7553984D02*
X2063039Y-7544460D01*
X2063039Y-7544460D02*
X2053515Y-7534936D01*
X2053515Y-7534936D02*
X2043991Y-7515888D01*
X2043991Y-7515888D02*
X2034467Y-7477793D01*
X2034467Y-7477793D02*
X2034467Y-7430174D01*
X2034467Y-7430174D02*
X2043991Y-7392079D01*
X2043991Y-7392079D02*
X2053515Y-7373031D01*
X2053515Y-7373031D02*
X2063039Y-7363508D01*
X2063039Y-7363508D02*
X2082086Y-7353984D01*
X2272563Y-7353984D02*
X2291610Y-7353984D01*
X2291610Y-7353984D02*
X2310658Y-7363508D01*
X2310658Y-7363508D02*
X2320182Y-7373031D01*
X2320182Y-7373031D02*
X2329705Y-7392079D01*
X2329705Y-7392079D02*
X2339229Y-7430174D01*
X2339229Y-7430174D02*
X2339229Y-7477793D01*
X2339229Y-7477793D02*
X2329705Y-7515888D01*
X2329705Y-7515888D02*
X2320182Y-7534936D01*
X2320182Y-7534936D02*
X2310658Y-7544460D01*
X2310658Y-7544460D02*
X2291610Y-7553984D01*
X2291610Y-7553984D02*
X2272563Y-7553984D01*
X2272563Y-7553984D02*
X2253515Y-7544460D01*
X2253515Y-7544460D02*
X2243991Y-7534936D01*
X2243991Y-7534936D02*
X2234467Y-7515888D01*
X2234467Y-7515888D02*
X2224944Y-7477793D01*
X2224944Y-7477793D02*
X2224944Y-7430174D01*
X2224944Y-7430174D02*
X2234467Y-7392079D01*
X2234467Y-7392079D02*
X2243991Y-7373031D01*
X2243991Y-7373031D02*
X2253515Y-7363508D01*
X2253515Y-7363508D02*
X2272563Y-7353984D01*
X2463039Y-7353984D02*
X2482086Y-7353984D01*
X2482086Y-7353984D02*
X2501134Y-7363508D01*
X2501134Y-7363508D02*
X2510658Y-7373031D01*
X2510658Y-7373031D02*
X2520182Y-7392079D01*
X2520182Y-7392079D02*
X2529705Y-7430174D01*
X2529705Y-7430174D02*
X2529705Y-7477793D01*
X2529705Y-7477793D02*
X2520182Y-7515888D01*
X2520182Y-7515888D02*
X2510658Y-7534936D01*
X2510658Y-7534936D02*
X2501134Y-7544460D01*
X2501134Y-7544460D02*
X2482086Y-7553984D01*
X2482086Y-7553984D02*
X2463039Y-7553984D01*
X2463039Y-7553984D02*
X2443991Y-7544460D01*
X2443991Y-7544460D02*
X2434467Y-7534936D01*
X2434467Y-7534936D02*
X2424944Y-7515888D01*
X2424944Y-7515888D02*
X2415420Y-7477793D01*
X2415420Y-7477793D02*
X2415420Y-7430174D01*
X2415420Y-7430174D02*
X2424944Y-7392079D01*
X2424944Y-7392079D02*
X2434467Y-7373031D01*
X2434467Y-7373031D02*
X2443991Y-7363508D01*
X2443991Y-7363508D02*
X2463039Y-7353984D01*
X2615420Y-7553984D02*
X2615420Y-7420650D01*
X2615420Y-7439698D02*
X2624944Y-7430174D01*
X2624944Y-7430174D02*
X2643991Y-7420650D01*
X2643991Y-7420650D02*
X2672563Y-7420650D01*
X2672563Y-7420650D02*
X2691610Y-7430174D01*
X2691610Y-7430174D02*
X2701134Y-7449222D01*
X2701134Y-7449222D02*
X2701134Y-7553984D01*
X2701134Y-7449222D02*
X2710658Y-7430174D01*
X2710658Y-7430174D02*
X2729705Y-7420650D01*
X2729705Y-7420650D02*
X2758277Y-7420650D01*
X2758277Y-7420650D02*
X2777325Y-7430174D01*
X2777325Y-7430174D02*
X2786848Y-7449222D01*
X2786848Y-7449222D02*
X2786848Y-7553984D01*
X2882086Y-7553984D02*
X2882086Y-7420650D01*
X2882086Y-7439698D02*
X2891610Y-7430174D01*
X2891610Y-7430174D02*
X2910658Y-7420650D01*
X2910658Y-7420650D02*
X2939229Y-7420650D01*
X2939229Y-7420650D02*
X2958277Y-7430174D01*
X2958277Y-7430174D02*
X2967801Y-7449222D01*
X2967801Y-7449222D02*
X2967801Y-7553984D01*
X2967801Y-7449222D02*
X2977324Y-7430174D01*
X2977324Y-7430174D02*
X2996372Y-7420650D01*
X2996372Y-7420650D02*
X3024943Y-7420650D01*
X3024943Y-7420650D02*
X3043991Y-7430174D01*
X3043991Y-7430174D02*
X3053515Y-7449222D01*
X3053515Y-7449222D02*
X3053515Y-7553984D01*
X3443991Y-7344460D02*
X3272563Y-7601603D01*
X3701134Y-7353984D02*
X3720182Y-7353984D01*
X3720182Y-7353984D02*
X3739229Y-7363508D01*
X3739229Y-7363508D02*
X3748753Y-7373031D01*
X3748753Y-7373031D02*
X3758277Y-7392079D01*
X3758277Y-7392079D02*
X3767801Y-7430174D01*
X3767801Y-7430174D02*
X3767801Y-7477793D01*
X3767801Y-7477793D02*
X3758277Y-7515888D01*
X3758277Y-7515888D02*
X3748753Y-7534936D01*
X3748753Y-7534936D02*
X3739229Y-7544460D01*
X3739229Y-7544460D02*
X3720182Y-7553984D01*
X3720182Y-7553984D02*
X3701134Y-7553984D01*
X3701134Y-7553984D02*
X3682086Y-7544460D01*
X3682086Y-7544460D02*
X3672563Y-7534936D01*
X3672563Y-7534936D02*
X3663039Y-7515888D01*
X3663039Y-7515888D02*
X3653515Y-7477793D01*
X3653515Y-7477793D02*
X3653515Y-7430174D01*
X3653515Y-7430174D02*
X3663039Y-7392079D01*
X3663039Y-7392079D02*
X3672563Y-7373031D01*
X3672563Y-7373031D02*
X3682086Y-7363508D01*
X3682086Y-7363508D02*
X3701134Y-7353984D01*
X3853515Y-7534936D02*
X3863039Y-7544460D01*
X3863039Y-7544460D02*
X3853515Y-7553984D01*
X3853515Y-7553984D02*
X3843991Y-7544460D01*
X3843991Y-7544460D02*
X3853515Y-7534936D01*
X3853515Y-7534936D02*
X3853515Y-7553984D01*
X4053515Y-7553984D02*
X3939229Y-7553984D01*
X3996372Y-7553984D02*
X3996372Y-7353984D01*
X3996372Y-7353984D02*
X3977325Y-7382555D01*
X3977325Y-7382555D02*
X3958277Y-7401603D01*
X3958277Y-7401603D02*
X3939229Y-7411127D01*
X4243991Y-7553984D02*
X4129706Y-7553984D01*
X4186848Y-7553984D02*
X4186848Y-7353984D01*
X4186848Y-7353984D02*
X4167801Y-7382555D01*
X4167801Y-7382555D02*
X4148753Y-7401603D01*
X4148753Y-7401603D02*
X4129706Y-7411127D01*
X4358277Y-7439698D02*
X4339229Y-7430174D01*
X4339229Y-7430174D02*
X4329706Y-7420650D01*
X4329706Y-7420650D02*
X4320182Y-7401603D01*
X4320182Y-7401603D02*
X4320182Y-7392079D01*
X4320182Y-7392079D02*
X4329706Y-7373031D01*
X4329706Y-7373031D02*
X4339229Y-7363508D01*
X4339229Y-7363508D02*
X4358277Y-7353984D01*
X4358277Y-7353984D02*
X4396372Y-7353984D01*
X4396372Y-7353984D02*
X4415420Y-7363508D01*
X4415420Y-7363508D02*
X4424944Y-7373031D01*
X4424944Y-7373031D02*
X4434468Y-7392079D01*
X4434468Y-7392079D02*
X4434468Y-7401603D01*
X4434468Y-7401603D02*
X4424944Y-7420650D01*
X4424944Y-7420650D02*
X4415420Y-7430174D01*
X4415420Y-7430174D02*
X4396372Y-7439698D01*
X4396372Y-7439698D02*
X4358277Y-7439698D01*
X4358277Y-7439698D02*
X4339229Y-7449222D01*
X4339229Y-7449222D02*
X4329706Y-7458746D01*
X4329706Y-7458746D02*
X4320182Y-7477793D01*
X4320182Y-7477793D02*
X4320182Y-7515888D01*
X4320182Y-7515888D02*
X4329706Y-7534936D01*
X4329706Y-7534936D02*
X4339229Y-7544460D01*
X4339229Y-7544460D02*
X4358277Y-7553984D01*
X4358277Y-7553984D02*
X4396372Y-7553984D01*
X4396372Y-7553984D02*
X4415420Y-7544460D01*
X4415420Y-7544460D02*
X4424944Y-7534936D01*
X4424944Y-7534936D02*
X4434468Y-7515888D01*
X4434468Y-7515888D02*
X4434468Y-7477793D01*
X4434468Y-7477793D02*
X4424944Y-7458746D01*
X4424944Y-7458746D02*
X4415420Y-7449222D01*
X4415420Y-7449222D02*
X4396372Y-7439698D01*
X4624944Y-7553984D02*
X4510658Y-7553984D01*
X4567801Y-7553984D02*
X4567801Y-7353984D01*
X4567801Y-7353984D02*
X4548753Y-7382555D01*
X4548753Y-7382555D02*
X4529706Y-7401603D01*
X4529706Y-7401603D02*
X4510658Y-7411127D01*
X4701134Y-7353984D02*
X4701134Y-7392079D01*
X4777325Y-7353984D02*
X4777325Y-7392079D01*
X5072563Y-7630174D02*
X5063039Y-7620650D01*
X5063039Y-7620650D02*
X5043991Y-7592079D01*
X5043991Y-7592079D02*
X5034468Y-7573031D01*
X5034468Y-7573031D02*
X5024944Y-7544460D01*
X5024944Y-7544460D02*
X5015420Y-7496841D01*
X5015420Y-7496841D02*
X5015420Y-7458746D01*
X5015420Y-7458746D02*
X5024944Y-7411127D01*
X5024944Y-7411127D02*
X5034468Y-7382555D01*
X5034468Y-7382555D02*
X5043991Y-7363508D01*
X5043991Y-7363508D02*
X5063039Y-7334936D01*
X5063039Y-7334936D02*
X5072563Y-7325412D01*
X5139230Y-7373031D02*
X5148753Y-7363508D01*
X5148753Y-7363508D02*
X5167801Y-7353984D01*
X5167801Y-7353984D02*
X5215420Y-7353984D01*
X5215420Y-7353984D02*
X5234468Y-7363508D01*
X5234468Y-7363508D02*
X5243991Y-7373031D01*
X5243991Y-7373031D02*
X5253515Y-7392079D01*
X5253515Y-7392079D02*
X5253515Y-7411127D01*
X5253515Y-7411127D02*
X5243991Y-7439698D01*
X5243991Y-7439698D02*
X5129706Y-7553984D01*
X5129706Y-7553984D02*
X5253515Y-7553984D01*
X5491611Y-7553984D02*
X5491611Y-7353984D01*
X5577325Y-7553984D02*
X5577325Y-7449222D01*
X5577325Y-7449222D02*
X5567801Y-7430174D01*
X5567801Y-7430174D02*
X5548753Y-7420650D01*
X5548753Y-7420650D02*
X5520182Y-7420650D01*
X5520182Y-7420650D02*
X5501134Y-7430174D01*
X5501134Y-7430174D02*
X5491611Y-7439698D01*
X5701134Y-7553984D02*
X5682087Y-7544460D01*
X5682087Y-7544460D02*
X5672563Y-7534936D01*
X5672563Y-7534936D02*
X5663039Y-7515888D01*
X5663039Y-7515888D02*
X5663039Y-7458746D01*
X5663039Y-7458746D02*
X5672563Y-7439698D01*
X5672563Y-7439698D02*
X5682087Y-7430174D01*
X5682087Y-7430174D02*
X5701134Y-7420650D01*
X5701134Y-7420650D02*
X5729706Y-7420650D01*
X5729706Y-7420650D02*
X5748753Y-7430174D01*
X5748753Y-7430174D02*
X5758277Y-7439698D01*
X5758277Y-7439698D02*
X5767801Y-7458746D01*
X5767801Y-7458746D02*
X5767801Y-7515888D01*
X5767801Y-7515888D02*
X5758277Y-7534936D01*
X5758277Y-7534936D02*
X5748753Y-7544460D01*
X5748753Y-7544460D02*
X5729706Y-7553984D01*
X5729706Y-7553984D02*
X5701134Y-7553984D01*
X5882087Y-7553984D02*
X5863039Y-7544460D01*
X5863039Y-7544460D02*
X5853515Y-7525412D01*
X5853515Y-7525412D02*
X5853515Y-7353984D01*
X6034468Y-7544460D02*
X6015420Y-7553984D01*
X6015420Y-7553984D02*
X5977325Y-7553984D01*
X5977325Y-7553984D02*
X5958277Y-7544460D01*
X5958277Y-7544460D02*
X5948753Y-7525412D01*
X5948753Y-7525412D02*
X5948753Y-7449222D01*
X5948753Y-7449222D02*
X5958277Y-7430174D01*
X5958277Y-7430174D02*
X5977325Y-7420650D01*
X5977325Y-7420650D02*
X6015420Y-7420650D01*
X6015420Y-7420650D02*
X6034468Y-7430174D01*
X6034468Y-7430174D02*
X6043991Y-7449222D01*
X6043991Y-7449222D02*
X6043991Y-7468269D01*
X6043991Y-7468269D02*
X5948753Y-7487317D01*
X6120182Y-7544460D02*
X6139230Y-7553984D01*
X6139230Y-7553984D02*
X6177325Y-7553984D01*
X6177325Y-7553984D02*
X6196372Y-7544460D01*
X6196372Y-7544460D02*
X6205896Y-7525412D01*
X6205896Y-7525412D02*
X6205896Y-7515888D01*
X6205896Y-7515888D02*
X6196372Y-7496841D01*
X6196372Y-7496841D02*
X6177325Y-7487317D01*
X6177325Y-7487317D02*
X6148753Y-7487317D01*
X6148753Y-7487317D02*
X6129706Y-7477793D01*
X6129706Y-7477793D02*
X6120182Y-7458746D01*
X6120182Y-7458746D02*
X6120182Y-7449222D01*
X6120182Y-7449222D02*
X6129706Y-7430174D01*
X6129706Y-7430174D02*
X6148753Y-7420650D01*
X6148753Y-7420650D02*
X6177325Y-7420650D01*
X6177325Y-7420650D02*
X6196372Y-7430174D01*
X6272563Y-7630174D02*
X6282087Y-7620650D01*
X6282087Y-7620650D02*
X6301134Y-7592079D01*
X6301134Y-7592079D02*
X6310658Y-7573031D01*
X6310658Y-7573031D02*
X6320182Y-7544460D01*
X6320182Y-7544460D02*
X6329706Y-7496841D01*
X6329706Y-7496841D02*
X6329706Y-7458746D01*
X6329706Y-7458746D02*
X6320182Y-7411127D01*
X6320182Y-7411127D02*
X6310658Y-7382555D01*
X6310658Y-7382555D02*
X6301134Y-7363508D01*
X6301134Y-7363508D02*
X6282087Y-7334936D01*
X6282087Y-7334936D02*
X6272563Y-7325412D01*
X1297500Y-7682500D02*
X1497500Y-7882500D01*
X1497500Y-7682500D02*
X1297500Y-7882500D01*
X1397500Y-7682500D02*
X1397500Y-7882500D01*
X1297500Y-7782500D02*
X1497500Y-7782500D01*
X1739229Y-7673984D02*
X1863039Y-7673984D01*
X1863039Y-7673984D02*
X1796372Y-7750174D01*
X1796372Y-7750174D02*
X1824943Y-7750174D01*
X1824943Y-7750174D02*
X1843991Y-7759698D01*
X1843991Y-7759698D02*
X1853515Y-7769222D01*
X1853515Y-7769222D02*
X1863039Y-7788269D01*
X1863039Y-7788269D02*
X1863039Y-7835888D01*
X1863039Y-7835888D02*
X1853515Y-7854936D01*
X1853515Y-7854936D02*
X1843991Y-7864460D01*
X1843991Y-7864460D02*
X1824943Y-7873984D01*
X1824943Y-7873984D02*
X1767801Y-7873984D01*
X1767801Y-7873984D02*
X1748753Y-7864460D01*
X1748753Y-7864460D02*
X1739229Y-7854936D01*
X1948753Y-7854936D02*
X1958277Y-7864460D01*
X1958277Y-7864460D02*
X1948753Y-7873984D01*
X1948753Y-7873984D02*
X1939229Y-7864460D01*
X1939229Y-7864460D02*
X1948753Y-7854936D01*
X1948753Y-7854936D02*
X1948753Y-7873984D01*
X2082086Y-7673984D02*
X2101134Y-7673984D01*
X2101134Y-7673984D02*
X2120182Y-7683508D01*
X2120182Y-7683508D02*
X2129705Y-7693031D01*
X2129705Y-7693031D02*
X2139229Y-7712079D01*
X2139229Y-7712079D02*
X2148753Y-7750174D01*
X2148753Y-7750174D02*
X2148753Y-7797793D01*
X2148753Y-7797793D02*
X2139229Y-7835888D01*
X2139229Y-7835888D02*
X2129705Y-7854936D01*
X2129705Y-7854936D02*
X2120182Y-7864460D01*
X2120182Y-7864460D02*
X2101134Y-7873984D01*
X2101134Y-7873984D02*
X2082086Y-7873984D01*
X2082086Y-7873984D02*
X2063039Y-7864460D01*
X2063039Y-7864460D02*
X2053515Y-7854936D01*
X2053515Y-7854936D02*
X2043991Y-7835888D01*
X2043991Y-7835888D02*
X2034467Y-7797793D01*
X2034467Y-7797793D02*
X2034467Y-7750174D01*
X2034467Y-7750174D02*
X2043991Y-7712079D01*
X2043991Y-7712079D02*
X2053515Y-7693031D01*
X2053515Y-7693031D02*
X2063039Y-7683508D01*
X2063039Y-7683508D02*
X2082086Y-7673984D01*
X2329705Y-7673984D02*
X2234467Y-7673984D01*
X2234467Y-7673984D02*
X2224944Y-7769222D01*
X2224944Y-7769222D02*
X2234467Y-7759698D01*
X2234467Y-7759698D02*
X2253515Y-7750174D01*
X2253515Y-7750174D02*
X2301134Y-7750174D01*
X2301134Y-7750174D02*
X2320182Y-7759698D01*
X2320182Y-7759698D02*
X2329705Y-7769222D01*
X2329705Y-7769222D02*
X2339229Y-7788269D01*
X2339229Y-7788269D02*
X2339229Y-7835888D01*
X2339229Y-7835888D02*
X2329705Y-7854936D01*
X2329705Y-7854936D02*
X2320182Y-7864460D01*
X2320182Y-7864460D02*
X2301134Y-7873984D01*
X2301134Y-7873984D02*
X2253515Y-7873984D01*
X2253515Y-7873984D02*
X2234467Y-7864460D01*
X2234467Y-7864460D02*
X2224944Y-7854936D01*
X2463039Y-7673984D02*
X2482086Y-7673984D01*
X2482086Y-7673984D02*
X2501134Y-7683508D01*
X2501134Y-7683508D02*
X2510658Y-7693031D01*
X2510658Y-7693031D02*
X2520182Y-7712079D01*
X2520182Y-7712079D02*
X2529705Y-7750174D01*
X2529705Y-7750174D02*
X2529705Y-7797793D01*
X2529705Y-7797793D02*
X2520182Y-7835888D01*
X2520182Y-7835888D02*
X2510658Y-7854936D01*
X2510658Y-7854936D02*
X2501134Y-7864460D01*
X2501134Y-7864460D02*
X2482086Y-7873984D01*
X2482086Y-7873984D02*
X2463039Y-7873984D01*
X2463039Y-7873984D02*
X2443991Y-7864460D01*
X2443991Y-7864460D02*
X2434467Y-7854936D01*
X2434467Y-7854936D02*
X2424944Y-7835888D01*
X2424944Y-7835888D02*
X2415420Y-7797793D01*
X2415420Y-7797793D02*
X2415420Y-7750174D01*
X2415420Y-7750174D02*
X2424944Y-7712079D01*
X2424944Y-7712079D02*
X2434467Y-7693031D01*
X2434467Y-7693031D02*
X2443991Y-7683508D01*
X2443991Y-7683508D02*
X2463039Y-7673984D01*
X2615420Y-7873984D02*
X2615420Y-7740650D01*
X2615420Y-7759698D02*
X2624944Y-7750174D01*
X2624944Y-7750174D02*
X2643991Y-7740650D01*
X2643991Y-7740650D02*
X2672563Y-7740650D01*
X2672563Y-7740650D02*
X2691610Y-7750174D01*
X2691610Y-7750174D02*
X2701134Y-7769222D01*
X2701134Y-7769222D02*
X2701134Y-7873984D01*
X2701134Y-7769222D02*
X2710658Y-7750174D01*
X2710658Y-7750174D02*
X2729705Y-7740650D01*
X2729705Y-7740650D02*
X2758277Y-7740650D01*
X2758277Y-7740650D02*
X2777325Y-7750174D01*
X2777325Y-7750174D02*
X2786848Y-7769222D01*
X2786848Y-7769222D02*
X2786848Y-7873984D01*
X2882086Y-7873984D02*
X2882086Y-7740650D01*
X2882086Y-7759698D02*
X2891610Y-7750174D01*
X2891610Y-7750174D02*
X2910658Y-7740650D01*
X2910658Y-7740650D02*
X2939229Y-7740650D01*
X2939229Y-7740650D02*
X2958277Y-7750174D01*
X2958277Y-7750174D02*
X2967801Y-7769222D01*
X2967801Y-7769222D02*
X2967801Y-7873984D01*
X2967801Y-7769222D02*
X2977324Y-7750174D01*
X2977324Y-7750174D02*
X2996372Y-7740650D01*
X2996372Y-7740650D02*
X3024943Y-7740650D01*
X3024943Y-7740650D02*
X3043991Y-7750174D01*
X3043991Y-7750174D02*
X3053515Y-7769222D01*
X3053515Y-7769222D02*
X3053515Y-7873984D01*
X3443991Y-7664460D02*
X3272563Y-7921603D01*
X3701134Y-7673984D02*
X3720182Y-7673984D01*
X3720182Y-7673984D02*
X3739229Y-7683508D01*
X3739229Y-7683508D02*
X3748753Y-7693031D01*
X3748753Y-7693031D02*
X3758277Y-7712079D01*
X3758277Y-7712079D02*
X3767801Y-7750174D01*
X3767801Y-7750174D02*
X3767801Y-7797793D01*
X3767801Y-7797793D02*
X3758277Y-7835888D01*
X3758277Y-7835888D02*
X3748753Y-7854936D01*
X3748753Y-7854936D02*
X3739229Y-7864460D01*
X3739229Y-7864460D02*
X3720182Y-7873984D01*
X3720182Y-7873984D02*
X3701134Y-7873984D01*
X3701134Y-7873984D02*
X3682086Y-7864460D01*
X3682086Y-7864460D02*
X3672563Y-7854936D01*
X3672563Y-7854936D02*
X3663039Y-7835888D01*
X3663039Y-7835888D02*
X3653515Y-7797793D01*
X3653515Y-7797793D02*
X3653515Y-7750174D01*
X3653515Y-7750174D02*
X3663039Y-7712079D01*
X3663039Y-7712079D02*
X3672563Y-7693031D01*
X3672563Y-7693031D02*
X3682086Y-7683508D01*
X3682086Y-7683508D02*
X3701134Y-7673984D01*
X3853515Y-7854936D02*
X3863039Y-7864460D01*
X3863039Y-7864460D02*
X3853515Y-7873984D01*
X3853515Y-7873984D02*
X3843991Y-7864460D01*
X3843991Y-7864460D02*
X3853515Y-7854936D01*
X3853515Y-7854936D02*
X3853515Y-7873984D01*
X4053515Y-7873984D02*
X3939229Y-7873984D01*
X3996372Y-7873984D02*
X3996372Y-7673984D01*
X3996372Y-7673984D02*
X3977325Y-7702555D01*
X3977325Y-7702555D02*
X3958277Y-7721603D01*
X3958277Y-7721603D02*
X3939229Y-7731127D01*
X4129706Y-7693031D02*
X4139229Y-7683508D01*
X4139229Y-7683508D02*
X4158277Y-7673984D01*
X4158277Y-7673984D02*
X4205896Y-7673984D01*
X4205896Y-7673984D02*
X4224944Y-7683508D01*
X4224944Y-7683508D02*
X4234468Y-7693031D01*
X4234468Y-7693031D02*
X4243991Y-7712079D01*
X4243991Y-7712079D02*
X4243991Y-7731127D01*
X4243991Y-7731127D02*
X4234468Y-7759698D01*
X4234468Y-7759698D02*
X4120182Y-7873984D01*
X4120182Y-7873984D02*
X4243991Y-7873984D01*
X4367801Y-7673984D02*
X4386849Y-7673984D01*
X4386849Y-7673984D02*
X4405896Y-7683508D01*
X4405896Y-7683508D02*
X4415420Y-7693031D01*
X4415420Y-7693031D02*
X4424944Y-7712079D01*
X4424944Y-7712079D02*
X4434468Y-7750174D01*
X4434468Y-7750174D02*
X4434468Y-7797793D01*
X4434468Y-7797793D02*
X4424944Y-7835888D01*
X4424944Y-7835888D02*
X4415420Y-7854936D01*
X4415420Y-7854936D02*
X4405896Y-7864460D01*
X4405896Y-7864460D02*
X4386849Y-7873984D01*
X4386849Y-7873984D02*
X4367801Y-7873984D01*
X4367801Y-7873984D02*
X4348753Y-7864460D01*
X4348753Y-7864460D02*
X4339229Y-7854936D01*
X4339229Y-7854936D02*
X4329706Y-7835888D01*
X4329706Y-7835888D02*
X4320182Y-7797793D01*
X4320182Y-7797793D02*
X4320182Y-7750174D01*
X4320182Y-7750174D02*
X4329706Y-7712079D01*
X4329706Y-7712079D02*
X4339229Y-7693031D01*
X4339229Y-7693031D02*
X4348753Y-7683508D01*
X4348753Y-7683508D02*
X4367801Y-7673984D01*
X4624944Y-7873984D02*
X4510658Y-7873984D01*
X4567801Y-7873984D02*
X4567801Y-7673984D01*
X4567801Y-7673984D02*
X4548753Y-7702555D01*
X4548753Y-7702555D02*
X4529706Y-7721603D01*
X4529706Y-7721603D02*
X4510658Y-7731127D01*
X4701134Y-7673984D02*
X4701134Y-7712079D01*
X4777325Y-7673984D02*
X4777325Y-7712079D01*
X5072563Y-7950174D02*
X5063039Y-7940650D01*
X5063039Y-7940650D02*
X5043991Y-7912079D01*
X5043991Y-7912079D02*
X5034468Y-7893031D01*
X5034468Y-7893031D02*
X5024944Y-7864460D01*
X5024944Y-7864460D02*
X5015420Y-7816841D01*
X5015420Y-7816841D02*
X5015420Y-7778746D01*
X5015420Y-7778746D02*
X5024944Y-7731127D01*
X5024944Y-7731127D02*
X5034468Y-7702555D01*
X5034468Y-7702555D02*
X5043991Y-7683508D01*
X5043991Y-7683508D02*
X5063039Y-7654936D01*
X5063039Y-7654936D02*
X5072563Y-7645412D01*
X5139230Y-7693031D02*
X5148753Y-7683508D01*
X5148753Y-7683508D02*
X5167801Y-7673984D01*
X5167801Y-7673984D02*
X5215420Y-7673984D01*
X5215420Y-7673984D02*
X5234468Y-7683508D01*
X5234468Y-7683508D02*
X5243991Y-7693031D01*
X5243991Y-7693031D02*
X5253515Y-7712079D01*
X5253515Y-7712079D02*
X5253515Y-7731127D01*
X5253515Y-7731127D02*
X5243991Y-7759698D01*
X5243991Y-7759698D02*
X5129706Y-7873984D01*
X5129706Y-7873984D02*
X5253515Y-7873984D01*
X5491611Y-7873984D02*
X5491611Y-7673984D01*
X5577325Y-7873984D02*
X5577325Y-7769222D01*
X5577325Y-7769222D02*
X5567801Y-7750174D01*
X5567801Y-7750174D02*
X5548753Y-7740650D01*
X5548753Y-7740650D02*
X5520182Y-7740650D01*
X5520182Y-7740650D02*
X5501134Y-7750174D01*
X5501134Y-7750174D02*
X5491611Y-7759698D01*
X5701134Y-7873984D02*
X5682087Y-7864460D01*
X5682087Y-7864460D02*
X5672563Y-7854936D01*
X5672563Y-7854936D02*
X5663039Y-7835888D01*
X5663039Y-7835888D02*
X5663039Y-7778746D01*
X5663039Y-7778746D02*
X5672563Y-7759698D01*
X5672563Y-7759698D02*
X5682087Y-7750174D01*
X5682087Y-7750174D02*
X5701134Y-7740650D01*
X5701134Y-7740650D02*
X5729706Y-7740650D01*
X5729706Y-7740650D02*
X5748753Y-7750174D01*
X5748753Y-7750174D02*
X5758277Y-7759698D01*
X5758277Y-7759698D02*
X5767801Y-7778746D01*
X5767801Y-7778746D02*
X5767801Y-7835888D01*
X5767801Y-7835888D02*
X5758277Y-7854936D01*
X5758277Y-7854936D02*
X5748753Y-7864460D01*
X5748753Y-7864460D02*
X5729706Y-7873984D01*
X5729706Y-7873984D02*
X5701134Y-7873984D01*
X5882087Y-7873984D02*
X5863039Y-7864460D01*
X5863039Y-7864460D02*
X5853515Y-7845412D01*
X5853515Y-7845412D02*
X5853515Y-7673984D01*
X6034468Y-7864460D02*
X6015420Y-7873984D01*
X6015420Y-7873984D02*
X5977325Y-7873984D01*
X5977325Y-7873984D02*
X5958277Y-7864460D01*
X5958277Y-7864460D02*
X5948753Y-7845412D01*
X5948753Y-7845412D02*
X5948753Y-7769222D01*
X5948753Y-7769222D02*
X5958277Y-7750174D01*
X5958277Y-7750174D02*
X5977325Y-7740650D01*
X5977325Y-7740650D02*
X6015420Y-7740650D01*
X6015420Y-7740650D02*
X6034468Y-7750174D01*
X6034468Y-7750174D02*
X6043991Y-7769222D01*
X6043991Y-7769222D02*
X6043991Y-7788269D01*
X6043991Y-7788269D02*
X5948753Y-7807317D01*
X6120182Y-7864460D02*
X6139230Y-7873984D01*
X6139230Y-7873984D02*
X6177325Y-7873984D01*
X6177325Y-7873984D02*
X6196372Y-7864460D01*
X6196372Y-7864460D02*
X6205896Y-7845412D01*
X6205896Y-7845412D02*
X6205896Y-7835888D01*
X6205896Y-7835888D02*
X6196372Y-7816841D01*
X6196372Y-7816841D02*
X6177325Y-7807317D01*
X6177325Y-7807317D02*
X6148753Y-7807317D01*
X6148753Y-7807317D02*
X6129706Y-7797793D01*
X6129706Y-7797793D02*
X6120182Y-7778746D01*
X6120182Y-7778746D02*
X6120182Y-7769222D01*
X6120182Y-7769222D02*
X6129706Y-7750174D01*
X6129706Y-7750174D02*
X6148753Y-7740650D01*
X6148753Y-7740650D02*
X6177325Y-7740650D01*
X6177325Y-7740650D02*
X6196372Y-7750174D01*
X6272563Y-7950174D02*
X6282087Y-7940650D01*
X6282087Y-7940650D02*
X6301134Y-7912079D01*
X6301134Y-7912079D02*
X6310658Y-7893031D01*
X6310658Y-7893031D02*
X6320182Y-7864460D01*
X6320182Y-7864460D02*
X6329706Y-7816841D01*
X6329706Y-7816841D02*
X6329706Y-7778746D01*
X6329706Y-7778746D02*
X6320182Y-7731127D01*
X6320182Y-7731127D02*
X6310658Y-7702555D01*
X6310658Y-7702555D02*
X6301134Y-7683508D01*
X6301134Y-7683508D02*
X6282087Y-7654936D01*
X6282087Y-7654936D02*
X6272563Y-7645412D01*
M02*
