M48
; DRILL file KiCad 10.0.2 date 2026-05-25T01:38:48
; FORMAT={-:-/ absolute / metric / decimal}
; #@! TF.CreationDate,2026-05-25T01:38:48-07:00
; #@! TF.GenerationSoftware,Kicad,Pcbnew,10.0.2
; #@! TF.FileFunction,Plated,1,2,PTH
FMAT,2
METRIC
; #@! TA.AperFunction,Plated,PTH,ViaDrill
T1C0.300
; #@! TA.AperFunction,Plated,PTH,ViaDrill
T2C0.600
; #@! TA.AperFunction,Plated,PTH,ComponentDrill
T3C0.800
; #@! TA.AperFunction,Plated,PTH,ComponentDrill
T4C0.900
; #@! TA.AperFunction,Plated,PTH,ComponentDrill
T5C1.000
; #@! TA.AperFunction,Plated,PTH,ComponentDrill
T6C1.100
; #@! TA.AperFunction,Plated,PTH,ComponentDrill
T7C1.200
; #@! TA.AperFunction,Plated,PTH,ComponentDrill
T8C3.000
; #@! TA.AperFunction,Plated,PTH,ComponentDrill
T9C3.050
%
G90
G05
T1
X80.645Y-43.815
X80.909Y-16.445
X84.782Y-19.613
X102.659Y-37.5
X109.855Y-42.8
X114.3Y-40.362
X115.039Y-34.983
X125.212Y-47.657
X125.526Y-46.256
X135.251Y-30.494
X136.786Y-26.097
T2
X40.005Y-48.26
X41.275Y-52.07
X82.066Y-22.021
X136.79Y-39.37
X136.79Y-41.91
T3
X56.515Y-29.865
X59.055Y-29.865
X61.595Y-29.865
X64.135Y-29.845
X66.675Y-29.865
X69.215Y-29.865
X83.058Y-45.212
X88.265Y-17.145
X88.265Y-22.145
X90.678Y-45.212
X93.345Y-17.145
X93.345Y-24.765
X93.472Y-45.212
X97.155Y-17.145
X97.155Y-24.765
X101.092Y-45.212
X112.395Y-27.94
X112.395Y-32.94
X112.395Y-36.83
X112.395Y-44.45
X116.205Y-27.94
X116.205Y-32.94
X116.205Y-36.83
X116.205Y-44.45
X120.015Y-27.94
X120.015Y-32.94
X120.015Y-36.83
X120.015Y-44.45
X123.825Y-27.98
X123.825Y-32.98
X123.825Y-36.87
X123.825Y-44.49
X127.0Y-19.05
X127.0Y-21.59
X127.0Y-24.13
X127.0Y-26.67
X127.0Y-29.21
X127.0Y-31.75
X127.0Y-34.29
X127.0Y-36.83
X127.0Y-39.37
X127.0Y-41.91
X127.0Y-44.45
X127.0Y-46.99
X127.0Y-49.53
X127.0Y-52.07
X134.62Y-19.05
X134.62Y-21.59
X134.62Y-24.13
X134.62Y-26.67
X134.62Y-29.21
X134.62Y-31.75
X134.62Y-34.29
X134.62Y-36.83
X134.62Y-39.37
X134.62Y-41.91
X134.62Y-44.45
X134.62Y-46.99
X134.62Y-49.53
X134.62Y-52.07
X138.8Y-27.96
X138.8Y-30.5
X138.8Y-33.04
X138.8Y-35.58
X138.8Y-38.12
X138.8Y-40.66
X138.8Y-43.2
X138.8Y-45.74
X141.34Y-27.96
X141.34Y-30.5
X141.34Y-33.04
X141.34Y-35.58
X141.34Y-38.12
X141.34Y-40.66
X141.34Y-43.2
X141.34Y-45.74
X149.54Y-20.32
X149.54Y-22.86
X149.54Y-25.4
X149.54Y-27.94
X149.54Y-30.48
T4
X63.5Y-17.78
X66.04Y-17.78
X68.58Y-17.78
X71.12Y-17.78
X114.3Y-17.78
X116.84Y-17.78
X119.38Y-17.78
X121.92Y-17.78
T5
X22.2Y-42.8
X22.2Y-45.8
X26.2Y-45.8
X28.5Y-36.5
X28.5Y-52.1
X29.0Y-38.52
X31.0Y-51.28
X31.5Y-36.5
X36.86Y-48.05
X37.8Y-42.8
X37.8Y-45.8
X87.02Y-33.58
X88.39Y-36.42
X89.76Y-33.58
X91.13Y-36.42
X92.5Y-33.58
X93.87Y-36.42
X95.24Y-33.58
X96.61Y-36.42
X97.98Y-33.58
T6
X21.67Y-20.61
X21.67Y-25.11
X21.67Y-28.23
X21.67Y-32.73
X28.17Y-20.61
X28.17Y-25.11
X28.17Y-28.23
X28.17Y-32.73
X31.83Y-20.61
X31.83Y-25.11
X31.83Y-28.23
X31.83Y-32.73
X38.33Y-20.61
X38.33Y-25.11
X38.33Y-28.23
X38.33Y-32.73
T7
X152.5Y-34.5
X152.5Y-37.0
X152.5Y-51.5
X155.0Y-34.5
X155.0Y-51.5
X157.5Y-34.5
X157.5Y-37.0
X157.5Y-51.5
T8
X149.5Y-44.0
X160.5Y-44.0
T9
X80.0Y-35.0
X105.0Y-35.0
M30
