M48
; DRILL file KiCad 10.0.0 date 2026-04-09T18:33:00
; FORMAT={-:-/ absolute / metric / decimal}
; #@! TF.CreationDate,2026-04-09T18:33:00-07:00
; #@! TF.GenerationSoftware,Kicad,Pcbnew,10.0.0
; #@! TF.FileFunction,Plated,1,2,PTH
FMAT,2
METRIC
; #@! TA.AperFunction,Plated,PTH,ComponentDrill
T1C0.700
; #@! TA.AperFunction,Plated,PTH,ComponentDrill
T2C0.800
; #@! TA.AperFunction,Plated,PTH,ComponentDrill
T3C0.950
; #@! TA.AperFunction,Plated,PTH,ComponentDrill
T4C1.000
%
G90
G05
T1
X63.5Y-120.65
X63.5Y-123.19
X66.04Y-120.65
X66.04Y-123.19
X68.58Y-96.0
X68.58Y-120.65
X68.58Y-123.19
X71.12Y-96.0
X73.66Y-96.0
X76.2Y-96.0
X82.55Y-106.68
X85.09Y-106.68
X96.52Y-106.68
X99.06Y-106.68
X107.95Y-106.68
X110.49Y-106.68
T2
X62.87Y-112.11
X62.87Y-129.89
X65.41Y-112.11
X65.41Y-129.89
X67.95Y-112.11
X67.95Y-129.89
X70.49Y-112.11
X70.49Y-129.89
X73.0Y-100.33
X73.0Y-107.95
X73.03Y-112.11
X73.03Y-129.89
X75.54Y-100.33
X75.54Y-107.95
X75.57Y-112.11
X75.57Y-129.89
X78.08Y-100.33
X78.08Y-107.95
X78.11Y-112.11
X78.11Y-129.89
X80.65Y-112.11
X80.65Y-129.89
X83.19Y-112.11
X83.19Y-129.89
X85.73Y-112.11
X85.73Y-129.89
X88.27Y-112.11
X88.27Y-129.89
X90.81Y-112.11
X90.81Y-129.89
X93.35Y-112.11
X93.35Y-129.89
X95.89Y-112.11
X95.89Y-129.89
X98.43Y-112.11
X98.43Y-129.89
X100.97Y-112.11
X100.97Y-129.89
X103.51Y-112.11
X103.51Y-129.89
X106.05Y-112.11
X106.05Y-129.89
X108.59Y-112.11
X108.59Y-129.89
X111.13Y-112.11
X111.13Y-129.89
T3
X73.74Y-120.65
X76.24Y-120.65
X78.74Y-120.65
X82.59Y-97.79
X85.09Y-97.79
X87.59Y-97.79
X88.94Y-120.65
X91.44Y-120.65
X93.94Y-120.65
X94.02Y-97.79
X96.52Y-97.79
X99.02Y-97.79
X104.22Y-120.65
X105.41Y-97.79
X106.72Y-120.65
X107.91Y-97.79
X109.22Y-120.65
X110.41Y-97.79
T4
X64.77Y-101.6
X64.77Y-104.1
M30
