%TF.GenerationSoftware,KiCad,Pcbnew,10.0.0*%
%TF.CreationDate,2026-04-09T18:33:15-07:00*%
%TF.ProjectId,aircon-hat,61697263-6f6e-42d6-9861-742e6b696361,rev?*%
%TF.SameCoordinates,Original*%
%TF.FileFunction,Copper,L1,Top*%
%TF.FilePolarity,Positive*%
%FSLAX46Y46*%
G04 Gerber Fmt 4.6, Leading zero omitted, Abs format (unit mm)*
G04 Created by KiCad (PCBNEW 10.0.0) date 2026-04-09 18:33:15*
%MOMM*%
%LPD*%
G01*
G04 APERTURE LIST*
G04 Aperture macros list*
%AMRoundRect*
0 Rectangle with rounded corners*
0 $1 Rounding radius*
0 $2 $3 $4 $5 $6 $7 $8 $9 X,Y pos of 4 corners*
0 Add a 4 corners polygon primitive as box body*
4,1,4,$2,$3,$4,$5,$6,$7,$8,$9,$2,$3,0*
0 Add four circle primitives for the rounded corners*
1,1,$1+$1,$2,$3*
1,1,$1+$1,$4,$5*
1,1,$1+$1,$6,$7*
1,1,$1+$1,$8,$9*
0 Add four rect primitives between the rounded corners*
20,1,$1+$1,$2,$3,$4,$5,0*
20,1,$1+$1,$4,$5,$6,$7,0*
20,1,$1+$1,$6,$7,$8,$9,0*
20,1,$1+$1,$8,$9,$2,$3,0*%
G04 Aperture macros list end*
%TA.AperFunction,ComponentPad*%
%ADD10R,2.540000X2.540000*%
%TD*%
%TA.AperFunction,ComponentPad*%
%ADD11R,1.270000X2.540000*%
%TD*%
%TA.AperFunction,ComponentPad*%
%ADD12C,1.400000*%
%TD*%
%TA.AperFunction,ComponentPad*%
%ADD13RoundRect,0.250000X0.750000X-0.600000X0.750000X0.600000X-0.750000X0.600000X-0.750000X-0.600000X0*%
%TD*%
%TA.AperFunction,ComponentPad*%
%ADD14O,2.000000X1.700000*%
%TD*%
%TA.AperFunction,ComponentPad*%
%ADD15RoundRect,0.250000X-0.600000X-0.725000X0.600000X-0.725000X0.600000X0.725000X-0.600000X0.725000X0*%
%TD*%
%TA.AperFunction,ComponentPad*%
%ADD16O,1.700000X1.950000*%
%TD*%
%TA.AperFunction,ComponentPad*%
%ADD17RoundRect,0.250000X0.550000X-0.550000X0.550000X0.550000X-0.550000X0.550000X-0.550000X-0.550000X0*%
%TD*%
%TA.AperFunction,ComponentPad*%
%ADD18C,1.600000*%
%TD*%
%TA.AperFunction,Conductor*%
%ADD19C,0.200000*%
%TD*%
%TA.AperFunction,Conductor*%
%ADD20C,0.600000*%
%TD*%
G04 APERTURE END LIST*
D10*
%TO.P,RP2350-Relay-6CH-W1,1,+5V_1*%
%TO.N,+5V*%
X62870000Y-129890000D03*
D11*
%TO.P,RP2350-Relay-6CH-W1,2,VSYS_2*%
%TO.N,unconnected-(RP2350-Relay-6CH-W1-VSYS-Pad2)*%
X65410000Y-129890000D03*
%TO.P,RP2350-Relay-6CH-W1,3,GND_3*%
%TO.N,GND*%
X67950000Y-129890000D03*
%TO.P,RP2350-Relay-6CH-W1,4,3V3_4*%
%TO.N,+3.3V*%
X70490000Y-129890000D03*
%TO.P,RP2350-Relay-6CH-W1,5,3V3_5*%
X73030000Y-129890000D03*
%TO.P,RP2350-Relay-6CH-W1,6,AV_6*%
%TO.N,unconnected-(RP2350-Relay-6CH-W1-AV-Pad6)*%
X75570000Y-129890000D03*
%TO.P,RP2350-Relay-6CH-W1,7,IO42_7*%
%TO.N,unconnected-(RP2350-Relay-6CH-W1-IO42-Pad7)*%
X78110000Y-129890000D03*
%TO.P,RP2350-Relay-6CH-W1,8,GND_8*%
%TO.N,GND*%
X80650000Y-129890000D03*
%TO.P,RP2350-Relay-6CH-W1,9,IO41_9*%
%TO.N,unconnected-(RP2350-Relay-6CH-W1-IO41-Pad9)*%
X83190000Y-129890000D03*
%TO.P,RP2350-Relay-6CH-W1,10,IO40_10*%
%TO.N,unconnected-(RP2350-Relay-6CH-W1-IO40-Pad10)*%
X85730000Y-129890000D03*
%TO.P,RP2350-Relay-6CH-W1,11,RUN_11*%
%TO.N,unconnected-(RP2350-Relay-6CH-W1-RUN-Pad11)*%
X88270000Y-129890000D03*
%TO.P,RP2350-Relay-6CH-W1,12,IO22_12*%
%TO.N,unconnected-(RP2350-Relay-6CH-W1-IO22-Pad12)*%
X90810000Y-129890000D03*
%TO.P,RP2350-Relay-6CH-W1,13,GND_13*%
%TO.N,GND*%
X93350000Y-129890000D03*
%TO.P,RP2350-Relay-6CH-W1,14,IO21_14*%
%TO.N,unconnected-(RP2350-Relay-6CH-W1-IO21-Pad14)*%
X95890000Y-129890000D03*
%TO.P,RP2350-Relay-6CH-W1,15,IO20_15*%
%TO.N,unconnected-(RP2350-Relay-6CH-W1-IO20-Pad15)*%
X98430000Y-129890000D03*
%TO.P,RP2350-Relay-6CH-W1,16,IO19_16*%
%TO.N,unconnected-(RP2350-Relay-6CH-W1-IO19-Pad16)*%
X100970000Y-129890000D03*
%TO.P,RP2350-Relay-6CH-W1,17,IO18_17*%
%TO.N,unconnected-(RP2350-Relay-6CH-W1-IO18-Pad17)*%
X103510000Y-129890000D03*
%TO.P,RP2350-Relay-6CH-W1,18,GND_18*%
%TO.N,GND*%
X106050000Y-129890000D03*
%TO.P,RP2350-Relay-6CH-W1,19,IO17_19*%
%TO.N,unconnected-(RP2350-Relay-6CH-W1-IO17-Pad19)*%
X108590000Y-129890000D03*
%TO.P,RP2350-Relay-6CH-W1,20,IO16_20*%
%TO.N,unconnected-(RP2350-Relay-6CH-W1-IO16-Pad20)*%
X111130000Y-129890000D03*
%TO.P,RP2350-Relay-6CH-W1,21,IO15_21*%
%TO.N,unconnected-(RP2350-Relay-6CH-W1-IO15-Pad21)*%
X111130000Y-112110000D03*
%TO.P,RP2350-Relay-6CH-W1,22,IO14_22*%
%TO.N,unconnected-(RP2350-Relay-6CH-W1-IO14-Pad22)*%
X108590000Y-112110000D03*
%TO.P,RP2350-Relay-6CH-W1,23,GND_23*%
%TO.N,GND*%
X106050000Y-112110000D03*
%TO.P,RP2350-Relay-6CH-W1,24,IO13_24*%
%TO.N,unconnected-(RP2350-Relay-6CH-W1-IO13-Pad24)*%
X103510000Y-112110000D03*
%TO.P,RP2350-Relay-6CH-W1,25,IO12_25*%
%TO.N,unconnected-(RP2350-Relay-6CH-W1-IO12-Pad25)*%
X100970000Y-112110000D03*
%TO.P,RP2350-Relay-6CH-W1,26,IO10_26*%
%TO.N,unconnected-(RP2350-Relay-6CH-W1-IO10-Pad26)*%
X98430000Y-112110000D03*
%TO.P,RP2350-Relay-6CH-W1,27,IO16_27*%
%TO.N,unconnected-(RP2350-Relay-6CH-W1-IO16-Pad27)*%
X95890000Y-112110000D03*
%TO.P,RP2350-Relay-6CH-W1,28,GND_28*%
%TO.N,GND*%
X93350000Y-112110000D03*
%TO.P,RP2350-Relay-6CH-W1,29,IO9_29*%
%TO.N,unconnected-(RP2350-Relay-6CH-W1-IO9-Pad29)*%
X90810000Y-112110000D03*
%TO.P,RP2350-Relay-6CH-W1,30,IO8_30*%
%TO.N,Net-(J2-Pin_2)*%
X88270000Y-112110000D03*
%TO.P,RP2350-Relay-6CH-W1,31,IO7_31*%
%TO.N,Net-(J3-Pin_2)*%
X85730000Y-112110000D03*
%TO.P,RP2350-Relay-6CH-W1,32,IO6_32*%
%TO.N,Net-(J4-Pin_2)*%
X83190000Y-112110000D03*
%TO.P,RP2350-Relay-6CH-W1,33,GND_33*%
%TO.N,GND*%
X80650000Y-112110000D03*
%TO.P,RP2350-Relay-6CH-W1,34,IO5_34*%
%TO.N,Net-(J5-Pin_2)*%
X78110000Y-112110000D03*
%TO.P,RP2350-Relay-6CH-W1,35,IO4_35*%
%TO.N,Net-(J6-Pin_2)*%
X75570000Y-112110000D03*
%TO.P,RP2350-Relay-6CH-W1,36,IO3_36*%
%TO.N,Net-(J7-Pin_2)*%
X73030000Y-112110000D03*
%TO.P,RP2350-Relay-6CH-W1,37,IO2_37*%
%TO.N,Net-(RP2350-Relay-6CH-W1-IO2)*%
X70490000Y-112110000D03*
%TO.P,RP2350-Relay-6CH-W1,38,GND_38*%
%TO.N,GND*%
X67950000Y-112110000D03*
%TO.P,RP2350-Relay-6CH-W1,39,RXD_39*%
%TO.N,unconnected-(RP2350-Relay-6CH-W1-RXD-Pad39)*%
X65410000Y-112110000D03*
%TO.P,RP2350-Relay-6CH-W1,40,TXD_40*%
%TO.N,unconnected-(RP2350-Relay-6CH-W1-TXD-Pad40)*%
X62870000Y-112110000D03*
%TD*%
D12*
%TO.P,R8,1*%
%TO.N,Net-(J7-Pin_2)*%
X63500000Y-120650000D03*
%TO.P,R8,2*%
%TO.N,+5V*%
X63500000Y-123190000D03*
%TD*%
%TO.P,R1,1*%
%TO.N,+3.3V*%
X68580000Y-96000000D03*
%TO.P,R1,2*%
%TO.N,Net-(RP2350-Relay-6CH-W1-IO2)*%
X71120000Y-96000000D03*
%TD*%
D13*
%TO.P,J1,1,Pin_1_1*%
%TO.N,Net-(J1-Pin_1)*%
X64770000Y-104100000D03*
D14*
%TO.P,J1,2,Pin_2_2*%
%TO.N,Net-(J1-Pin_2)*%
X64770000Y-101600000D03*
%TD*%
D15*
%TO.P,J2,1,Pin_1_1*%
%TO.N,GND*%
X105410000Y-97790000D03*
D16*
%TO.P,J2,2,Pin_2_2*%
%TO.N,Net-(J2-Pin_2)*%
X107910000Y-97790000D03*
%TO.P,J2,3,Pin_3_3*%
%TO.N,+5V*%
X110410000Y-97790000D03*
%TD*%
D15*
%TO.P,J3,1,Pin_1_1*%
%TO.N,GND*%
X94020000Y-97790000D03*
D16*
%TO.P,J3,2,Pin_2_2*%
%TO.N,Net-(J3-Pin_2)*%
X96520000Y-97790000D03*
%TO.P,J3,3,Pin_3_3*%
%TO.N,+5V*%
X99020000Y-97790000D03*
%TD*%
D17*
%TO.P,U1,1*%
%TO.N,Net-(J1-Pin_1)*%
X73000000Y-107950000D03*
D18*
%TO.P,U1,2*%
%TO.N,Net-(J1-Pin_2)*%
X75540000Y-107950000D03*
%TO.P,U1,3,NC_3*%
%TO.N,unconnected-(U1-NC-Pad3)*%
X78080000Y-107950000D03*
%TO.P,U1,4*%
%TO.N,GND*%
X78080000Y-100330000D03*
%TO.P,U1,5*%
%TO.N,Net-(RP2350-Relay-6CH-W1-IO2)*%
X75540000Y-100330000D03*
%TO.P,U1,6*%
%TO.N,Net-(R2-Pad1)*%
X73000000Y-100330000D03*
%TD*%
D12*
%TO.P,R2,1*%
%TO.N,Net-(R2-Pad1)*%
X73660000Y-96000000D03*
%TO.P,R2,2*%
%TO.N,GND*%
X76200000Y-96000000D03*
%TD*%
D15*
%TO.P,J7,1,Pin_1_1*%
%TO.N,GND*%
X73740000Y-120650000D03*
D16*
%TO.P,J7,2,Pin_2_2*%
%TO.N,Net-(J7-Pin_2)*%
X76240000Y-120650000D03*
%TO.P,J7,3,Pin_3_3*%
%TO.N,+5V*%
X78740000Y-120650000D03*
%TD*%
D15*
%TO.P,J4,1,Pin_1_1*%
%TO.N,GND*%
X82590000Y-97790000D03*
D16*
%TO.P,J4,2,Pin_2_2*%
%TO.N,Net-(J4-Pin_2)*%
X85090000Y-97790000D03*
%TO.P,J4,3,Pin_3_3*%
%TO.N,+5V*%
X87590000Y-97790000D03*
%TD*%
D12*
%TO.P,R3,1*%
%TO.N,Net-(J2-Pin_2)*%
X107950000Y-106680000D03*
%TO.P,R3,2*%
%TO.N,+5V*%
X110490000Y-106680000D03*
%TD*%
%TO.P,R7,1*%
%TO.N,Net-(J6-Pin_2)*%
X66040000Y-120650000D03*
%TO.P,R7,2*%
%TO.N,+5V*%
X66040000Y-123190000D03*
%TD*%
D15*
%TO.P,J6,1,Pin_1_1*%
%TO.N,GND*%
X88940000Y-120650000D03*
D16*
%TO.P,J6,2,Pin_2_2*%
%TO.N,Net-(J6-Pin_2)*%
X91440000Y-120650000D03*
%TO.P,J6,3,Pin_3_3*%
%TO.N,+5V*%
X93940000Y-120650000D03*
%TD*%
D15*
%TO.P,J5,1,Pin_1_1*%
%TO.N,GND*%
X104220000Y-120650000D03*
D16*
%TO.P,J5,2,Pin_2_2*%
%TO.N,Net-(J5-Pin_2)*%
X106720000Y-120650000D03*
%TO.P,J5,3,Pin_3_3*%
%TO.N,+5V*%
X109220000Y-120650000D03*
%TD*%
D12*
%TO.P,R5,1*%
%TO.N,Net-(J4-Pin_2)*%
X82550000Y-106680000D03*
%TO.P,R5,2*%
%TO.N,+5V*%
X85090000Y-106680000D03*
%TD*%
%TO.P,R4,1*%
%TO.N,Net-(J3-Pin_2)*%
X96520000Y-106680000D03*
%TO.P,R4,2*%
%TO.N,+5V*%
X99060000Y-106680000D03*
%TD*%
%TO.P,R6,1*%
%TO.N,Net-(J5-Pin_2)*%
X68580000Y-120650000D03*
%TO.P,R6,2*%
%TO.N,+5V*%
X68580000Y-123190000D03*
%TD*%
%TO.N,Net-(J1-Pin_2)*%
D19*
X69190000Y-101600000D02*
X75540000Y-107950000D01*
X64770000Y-101600000D02*
X69190000Y-101600000D01*
%TO.N,Net-(J1-Pin_1)*%
X69150000Y-104100000D02*
X73000000Y-107950000D01*
X64770000Y-104100000D02*
X69150000Y-104100000D01*
%TO.N,Net-(J2-Pin_2)*%
X88550000Y-112110000D02*
X88900000Y-111760000D01*
X88270000Y-109850000D02*
X88270000Y-112110000D01*
X106680000Y-106680000D02*
X104140000Y-109220000D01*
X107950000Y-106680000D02*
X106680000Y-106680000D01*
X107950000Y-97830000D02*
X107910000Y-97790000D01*
X88270000Y-112110000D02*
X88550000Y-112110000D01*
X107950000Y-106680000D02*
X107950000Y-97830000D01*
X88900000Y-109220000D02*
X88270000Y-109850000D01*
X104140000Y-109220000D02*
X88900000Y-109220000D01*
%TO.N,Net-(J3-Pin_2)*%
X96520000Y-106680000D02*
X96520000Y-97790000D01*
X85730000Y-112110000D02*
X85730000Y-111475000D01*
X95250000Y-107950000D02*
X96520000Y-106680000D01*
X85730000Y-111475000D02*
X89255000Y-107950000D01*
X89255000Y-107950000D02*
X95250000Y-107950000D01*
%TO.N,Net-(J4-Pin_2)*%
X85090000Y-104140000D02*
X82550000Y-106680000D01*
X82550000Y-107950000D02*
X83190000Y-108590000D01*
X82550000Y-106680000D02*
X82550000Y-107950000D01*
X83190000Y-108590000D02*
X83190000Y-112110000D01*
X85090000Y-97790000D02*
X85090000Y-104140000D01*
%TO.N,Net-(J5-Pin_2)*%
X106720000Y-120650000D02*
X101640000Y-115570000D01*
X101640000Y-115570000D02*
X80010000Y-115570000D01*
X80010000Y-115570000D02*
X78110000Y-113670000D01*
X78110000Y-113670000D02*
X78110000Y-112110000D01*
%TO.N,Net-(J6-Pin_2)*%
X75570000Y-113670000D02*
X75570000Y-112110000D01*
X89535000Y-116840000D02*
X78740000Y-116840000D01*
X91440000Y-118745000D02*
X89535000Y-116840000D01*
X78740000Y-116840000D02*
X75570000Y-113670000D01*
X91440000Y-120650000D02*
X91440000Y-118745000D01*
%TO.N,Net-(J7-Pin_2)*%
X73030000Y-113670000D02*
X73030000Y-112110000D01*
X76240000Y-120650000D02*
X76240000Y-116880000D01*
X72615000Y-112525000D02*
X73030000Y-112110000D01*
X76240000Y-116880000D02*
X73030000Y-113670000D01*
%TO.N,+3.3V*%
D20*
X60960000Y-121960000D02*
X60960000Y-124960000D01*
X73030000Y-127280000D02*
X73030000Y-129890000D01*
X72250000Y-126500000D02*
X73030000Y-127280000D01*
X60960000Y-124960000D02*
X62500000Y-126500000D01*
X62500000Y-126500000D02*
X72250000Y-126500000D01*
X64020000Y-96000000D02*
X68580000Y-96000000D01*
X60960000Y-99060000D02*
X64020000Y-96000000D01*
X70490000Y-129890000D02*
X73030000Y-129890000D01*
X60960000Y-121960000D02*
X60960000Y-99060000D01*
%TD*%
%TA.AperFunction,Conductor*%
%TO.N,GND*%
G36*
X113742539Y-93520185D02*
G01*
X113788294Y-93572989D01*
X113799500Y-93624500D01*
X113799500Y-132375500D01*
X113779815Y-132442539D01*
X113727011Y-132488294D01*
X113675500Y-132499500D01*
X60314500Y-132499500D01*
X60247461Y-132479815D01*
X60201706Y-132427011D01*
X60190500Y-132375500D01*
X60190500Y-128572135D01*
X61099500Y-128572135D01*
X61099500Y-131207870D01*
X61099501Y-131207876D01*
X61105908Y-131267483D01*
X61156202Y-131402328D01*
X61156206Y-131402335D01*
X61242452Y-131517544D01*
X61242455Y-131517547D01*
X61357664Y-131603793D01*
X61357671Y-131603797D01*
X61492517Y-131654091D01*
X61492516Y-131654091D01*
X61499444Y-131654835D01*
X61552127Y-131660500D01*
X64187872Y-131660499D01*
X64247483Y-131654091D01*
X64382331Y-131603796D01*
X64383187Y-131603154D01*
X64384188Y-131602781D01*
X64390109Y-131599548D01*
X64390573Y-131600399D01*
X64448647Y-131578735D01*
X64516921Y-131593583D01*
X64531802Y-131603147D01*
X64532669Y-131603796D01*
X64532671Y-131603796D01*
X64532673Y-131603798D01*
X64667517Y-131654091D01*
X64667516Y-131654091D01*
X64674444Y-131654835D01*
X64727127Y-131660500D01*
X66092872Y-131660499D01*
X66152483Y-131654091D01*
X66287331Y-131603796D01*
X66402546Y-131517546D01*
X66488796Y-131402331D01*
X66539091Y-131267483D01*
X66545500Y-131207873D01*
X66545499Y-129837339D01*
X66545499Y-128572155D01*
X66815000Y-128572155D01*
X66815000Y-129640000D01*
X67634314Y-129640000D01*
X67629920Y-129644394D01*
X67577259Y-129735606D01*
X67550000Y-129837339D01*
X67550000Y-129942661D01*
X67577259Y-130044394D01*
X67629920Y-130135606D01*
X67634314Y-130140000D01*
X66815000Y-130140000D01*
X66815000Y-131207844D01*
X66821401Y-131267372D01*
X66821403Y-131267379D01*
X66871645Y-131402086D01*
X66871649Y-131402093D01*
X66957809Y-131517187D01*
X66957812Y-131517190D01*
X67072906Y-131603350D01*
X67072913Y-131603354D01*
X67207620Y-131653596D01*
X67207627Y-131653598D01*
X67267155Y-131659999D01*
X67267172Y-131660000D01*
X67700000Y-131660000D01*
X67700000Y-130205686D01*
X67704394Y-130210080D01*
X67795606Y-130262741D01*
X67897339Y-130290000D01*
X68002661Y-130290000D01*
X68104394Y-130262741D01*
X68195606Y-130210080D01*
X68200000Y-130205686D01*
X68200000Y-131660000D01*
X68632828Y-131660000D01*
X68632844Y-131659999D01*
X68692372Y-131653598D01*
X68692379Y-131653596D01*
X68827086Y-131603354D01*
X68827093Y-131603350D01*
X68942187Y-131517190D01*
X68942190Y-131517187D01*
X69028350Y-131402093D01*
X69028354Y-131402086D01*
X69078596Y-131267379D01*
X69078598Y-131267372D01*
X69084999Y-131207844D01*
X69085000Y-131207827D01*
X69085000Y-130140000D01*
X68265686Y-130140000D01*
X68270080Y-130135606D01*
X68322741Y-130044394D01*
X68350000Y-129942661D01*
X68350000Y-129837339D01*
X68322741Y-129735606D01*
X68270080Y-129644394D01*
X68265686Y-129640000D01*
X69085000Y-129640000D01*
X69085000Y-128572172D01*
X69084999Y-128572155D01*
X69078598Y-128512627D01*
X69078596Y-128512620D01*
X69028354Y-128377913D01*
X69028350Y-128377906D01*
X68942190Y-128262812D01*
X68942187Y-128262809D01*
X68827093Y-128176649D01*
X68827086Y-128176645D01*
X68692379Y-128126403D01*
X68692372Y-128126401D01*
X68632844Y-128120000D01*
X68200000Y-128120000D01*
X68200000Y-129574314D01*
X68195606Y-129569920D01*
X68104394Y-129517259D01*
X68002661Y-129490000D01*
X67897339Y-129490000D01*
X67795606Y-129517259D01*
X67704394Y-129569920D01*
X67700000Y-129574314D01*
X67700000Y-128120000D01*
X67267155Y-128120000D01*
X67207627Y-128126401D01*
X67207620Y-128126403D01*
X67072913Y-128176645D01*
X67072906Y-128176649D01*
X66957812Y-128262809D01*
X66957809Y-128262812D01*
X66871649Y-128377906D01*
X66871645Y-128377913D01*
X66821403Y-128512620D01*
X66821401Y-128512627D01*
X66815000Y-128572155D01*
X66545499Y-128572155D01*
X66545499Y-128572129D01*
X66545498Y-128572123D01*
X66545497Y-128572116D01*
X66539091Y-128512517D01*
X66488884Y-128377906D01*
X66488797Y-128377671D01*
X66488793Y-128377664D01*
X66402547Y-128262455D01*
X66402544Y-128262452D01*
X66287335Y-128176206D01*
X66287328Y-128176202D01*
X66152482Y-128125908D01*
X66152483Y-128125908D01*
X66092883Y-128119501D01*
X66092881Y-128119500D01*
X66092873Y-128119500D01*
X66092864Y-128119500D01*
X64727129Y-128119500D01*
X64727123Y-128119501D01*
X64667516Y-128125908D01*
X64532671Y-128176202D01*
X64532666Y-128176205D01*
X64531808Y-128176848D01*
X64530804Y-128177222D01*
X64524886Y-128180454D01*
X64524421Y-128179602D01*
X64466343Y-128201263D01*
X64398071Y-128186410D01*
X64383192Y-128176848D01*
X64382333Y-128176205D01*
X64382328Y-128176202D01*
X64247482Y-128125908D01*
X64247483Y-128125908D01*
X64187883Y-128119501D01*
X64187881Y-128119500D01*
X64187873Y-128119500D01*
X64187864Y-128119500D01*
X61552129Y-128119500D01*
X61552123Y-128119501D01*
X61492516Y-128125908D01*
X61357671Y-128176202D01*
X61357664Y-128176206D01*
X61242455Y-128262452D01*
X61242452Y-128262455D01*
X61156206Y-128377664D01*
X61156202Y-128377671D01*
X61105908Y-128512517D01*
X61099501Y-128572116D01*
X61099501Y-128572123D01*
X61099500Y-128572135D01*
X60190500Y-128572135D01*
X60190500Y-125621940D01*
X60210185Y-125554901D01*
X60262989Y-125509146D01*
X60332147Y-125499202D01*
X60395703Y-125528227D01*
X60402181Y-125534259D01*
X61878211Y-127010289D01*
X61989711Y-127121789D01*
X61989712Y-127121790D01*
X62120814Y-127209390D01*
X62120827Y-127209397D01*
X62266498Y-127269735D01*
X62266503Y-127269737D01*
X62421153Y-127300499D01*
X62421156Y-127300500D01*
X62421158Y-127300500D01*
X71867060Y-127300500D01*
X71934099Y-127320185D01*
X71954741Y-127336819D01*
X72193181Y-127575259D01*
X72226666Y-127636582D01*
X72229500Y-127662940D01*
X72229500Y-128061452D01*
X72209815Y-128128491D01*
X72160199Y-128171482D01*
X72160456Y-128171952D01*
X72158299Y-128173129D01*
X72157011Y-128174246D01*
X72153877Y-128175544D01*
X72152672Y-128176202D01*
X72152669Y-128176203D01*
X72152669Y-128176204D01*
X72037454Y-128262454D01*
X72037453Y-128262455D01*
X72037452Y-128262456D01*
X71951206Y-128377664D01*
X71951202Y-128377671D01*
X71900908Y-128512517D01*
X71894501Y-128572116D01*
X71894501Y-128572123D01*
X71894500Y-128572135D01*
X71894500Y-128965500D01*
X71874815Y-129032539D01*
X71822011Y-129078294D01*
X71770500Y-129089500D01*
X71749499Y-129089500D01*
X71682460Y-129069815D01*
X71636705Y-129017011D01*
X71625499Y-128965500D01*
X71625499Y-128572129D01*
X71625498Y-128572123D01*
X71625497Y-128572116D01*
X71619091Y-128512517D01*
X71568884Y-128377906D01*
X71568797Y-128377671D01*
X71568793Y-128377664D01*
X71482547Y-128262455D01*
X71482544Y-128262452D01*
X71367335Y-128176206D01*
X71367328Y-128176202D01*
X71232482Y-128125908D01*
X71232483Y-128125908D01*
X71172883Y-128119501D01*
X71172881Y-128119500D01*
X71172873Y-128119500D01*
X71172864Y-128119500D01*
X69807129Y-128119500D01*
X69807123Y-128119501D01*
X69747516Y-128125908D01*
X69612671Y-128176202D01*
X69612664Y-128176206D01*
X69497455Y-128262452D01*
X69497452Y-128262455D01*
X69411206Y-128377664D01*
X69411202Y-128377671D01*
X69360908Y-128512517D01*
X69354501Y-128572116D01*
X69354501Y-128572123D01*
X69354500Y-128572135D01*
X69354500Y-131207870D01*
X69354501Y-131207876D01*
X69360908Y-131267483D01*
X69411202Y-131402328D01*
X69411206Y-131402335D01*
X69497452Y-131517544D01*
X69497455Y-131517547D01*
X69612664Y-131603793D01*
X69612671Y-131603797D01*
X69747517Y-131654091D01*
X69747516Y-131654091D01*
X69754444Y-131654835D01*
X69807127Y-131660500D01*
X71172872Y-131660499D01*
X71232483Y-131654091D01*
X71367331Y-131603796D01*
X71482546Y-131517546D01*
X71568796Y-131402331D01*
X71619091Y-131267483D01*
X71625500Y-131207873D01*
X71625500Y-130814500D01*
X71645185Y-130747461D01*
X71697989Y-130701706D01*
X71749500Y-130690500D01*
X71770501Y-130690500D01*
X71837540Y-130710185D01*
X71883295Y-130762989D01*
X71894501Y-130814500D01*
X71894501Y-131207876D01*
X71900908Y-131267483D01*
X71951202Y-131402328D01*
X71951206Y-131402335D01*
X72037452Y-131517544D01*
X72037455Y-131517547D01*
X72152664Y-131603793D01*
X72152671Y-131603797D01*
X72287517Y-131654091D01*
X72287516Y-131654091D01*
X72294444Y-131654835D01*
X72347127Y-131660500D01*
X73712872Y-131660499D01*
X73772483Y-131654091D01*
X73907331Y-131603796D01*
X74022546Y-131517546D01*
X74108796Y-131402331D01*
X74159091Y-131267483D01*
X74165500Y-131207873D01*
X74165499Y-128572135D01*
X74434500Y-128572135D01*
X74434500Y-131207870D01*
X74434501Y-131207876D01*
X74440908Y-131267483D01*
X74491202Y-131402328D01*
X74491206Y-131402335D01*
X74577452Y-131517544D01*
X74577455Y-131517547D01*
X74692664Y-131603793D01*
X74692671Y-131603797D01*
X74827517Y-131654091D01*
X74827516Y-131654091D01*
X74834444Y-131654835D01*
X74887127Y-131660500D01*
X76252872Y-131660499D01*
X76312483Y-131654091D01*
X76447331Y-131603796D01*
X76562546Y-131517546D01*
X76648796Y-131402331D01*
X76699091Y-131267483D01*
X76705500Y-131207873D01*
X76705499Y-128572135D01*
X76974500Y-128572135D01*
X76974500Y-131207870D01*
X76974501Y-131207876D01*
X76980908Y-131267483D01*
X77031202Y-131402328D01*
X77031206Y-131402335D01*
X77117452Y-131517544D01*
X77117455Y-131517547D01*
X77232664Y-131603793D01*
X77232671Y-131603797D01*
X77367517Y-131654091D01*
X77367516Y-131654091D01*
X77374444Y-131654835D01*
X77427127Y-131660500D01*
X78792872Y-131660499D01*
X78852483Y-131654091D01*
X78987331Y-131603796D01*
X79102546Y-131517546D01*
X79188796Y-131402331D01*
X79239091Y-131267483D01*
X79245500Y-131207873D01*
X79245499Y-129837339D01*
X79245499Y-128572155D01*
X79515000Y-128572155D01*
X79515000Y-129640000D01*
X80334314Y-129640000D01*
X80329920Y-129644394D01*
X80277259Y-129735606D01*
X80250000Y-129837339D01*
X80250000Y-129942661D01*
X80277259Y-130044394D01*
X80329920Y-130135606D01*
X80334314Y-130140000D01*
X79515000Y-130140000D01*
X79515000Y-131207844D01*
X79521401Y-131267372D01*
X79521403Y-131267379D01*
X79571645Y-131402086D01*
X79571649Y-131402093D01*
X79657809Y-131517187D01*
X79657812Y-131517190D01*
X79772906Y-131603350D01*
X79772913Y-131603354D01*
X79907620Y-131653596D01*
X79907627Y-131653598D01*
X79967155Y-131659999D01*
X79967172Y-131660000D01*
X80400000Y-131660000D01*
X80400000Y-130205686D01*
X80404394Y-130210080D01*
X80495606Y-130262741D01*
X80597339Y-130290000D01*
X80702661Y-130290000D01*
X80804394Y-130262741D01*
X80895606Y-130210080D01*
X80900000Y-130205686D01*
X80900000Y-131660000D01*
X81332828Y-131660000D01*
X81332844Y-131659999D01*
X81392372Y-131653598D01*
X81392379Y-131653596D01*
X81527086Y-131603354D01*
X81527093Y-131603350D01*
X81642187Y-131517190D01*
X81642190Y-131517187D01*
X81728350Y-131402093D01*
X81728354Y-131402086D01*
X81778596Y-131267379D01*
X81778598Y-131267372D01*
X81784999Y-131207844D01*
X81785000Y-131207827D01*
X81785000Y-130140000D01*
X80965686Y-130140000D01*
X80970080Y-130135606D01*
X81022741Y-130044394D01*
X81050000Y-129942661D01*
X81050000Y-129837339D01*
X81022741Y-129735606D01*
X80970080Y-129644394D01*
X80965686Y-129640000D01*
X81785000Y-129640000D01*
X81785000Y-128572164D01*
X81784997Y-128572135D01*
X82054500Y-128572135D01*
X82054500Y-131207870D01*
X82054501Y-131207876D01*
X82060908Y-131267483D01*
X82111202Y-131402328D01*
X82111206Y-131402335D01*
X82197452Y-131517544D01*
X82197455Y-131517547D01*
X82312664Y-131603793D01*
X82312671Y-131603797D01*
X82447517Y-131654091D01*
X82447516Y-131654091D01*
X82454444Y-131654835D01*
X82507127Y-131660500D01*
X83872872Y-131660499D01*
X83932483Y-131654091D01*
X84067331Y-131603796D01*
X84182546Y-131517546D01*
X84268796Y-131402331D01*
X84319091Y-131267483D01*
X84325500Y-131207873D01*
X84325499Y-128572135D01*
X84594500Y-128572135D01*
X84594500Y-131207870D01*
X84594501Y-131207876D01*
X84600908Y-131267483D01*
X84651202Y-131402328D01*
X84651206Y-131402335D01*
X84737452Y-131517544D01*
X84737455Y-131517547D01*
X84852664Y-131603793D01*
X84852671Y-131603797D01*
X84987517Y-131654091D01*
X84987516Y-131654091D01*
X84994444Y-131654835D01*
X85047127Y-131660500D01*
X86412872Y-131660499D01*
X86472483Y-131654091D01*
X86607331Y-131603796D01*
X86722546Y-131517546D01*
X86808796Y-131402331D01*
X86859091Y-131267483D01*
X86865500Y-131207873D01*
X86865499Y-128572135D01*
X87134500Y-128572135D01*
X87134500Y-131207870D01*
X87134501Y-131207876D01*
X87140908Y-131267483D01*
X87191202Y-131402328D01*
X87191206Y-131402335D01*
X87277452Y-131517544D01*
X87277455Y-131517547D01*
X87392664Y-131603793D01*
X87392671Y-131603797D01*
X87527517Y-131654091D01*
X87527516Y-131654091D01*
X87534444Y-131654835D01*
X87587127Y-131660500D01*
X88952872Y-131660499D01*
X89012483Y-131654091D01*
X89147331Y-131603796D01*
X89262546Y-131517546D01*
X89348796Y-131402331D01*
X89399091Y-131267483D01*
X89405500Y-131207873D01*
X89405499Y-128572135D01*
X89674500Y-128572135D01*
X89674500Y-131207870D01*
X89674501Y-131207876D01*
X89680908Y-131267483D01*
X89731202Y-131402328D01*
X89731206Y-131402335D01*
X89817452Y-131517544D01*
X89817455Y-131517547D01*
X89932664Y-131603793D01*
X89932671Y-131603797D01*
X90067517Y-131654091D01*
X90067516Y-131654091D01*
X90074444Y-131654835D01*
X90127127Y-131660500D01*
X91492872Y-131660499D01*
X91552483Y-131654091D01*
X91687331Y-131603796D01*
X91802546Y-131517546D01*
X91888796Y-131402331D01*
X91939091Y-131267483D01*
X91945500Y-131207873D01*
X91945499Y-129837339D01*
X91945499Y-128572155D01*
X92215000Y-128572155D01*
X92215000Y-129640000D01*
X93034314Y-129640000D01*
X93029920Y-129644394D01*
X92977259Y-129735606D01*
X92950000Y-129837339D01*
X92950000Y-129942661D01*
X92977259Y-130044394D01*
X93029920Y-130135606D01*
X93034314Y-130140000D01*
X92215000Y-130140000D01*
X92215000Y-131207844D01*
X92221401Y-131267372D01*
X92221403Y-131267379D01*
X92271645Y-131402086D01*
X92271649Y-131402093D01*
X92357809Y-131517187D01*
X92357812Y-131517190D01*
X92472906Y-131603350D01*
X92472913Y-131603354D01*
X92607620Y-131653596D01*
X92607627Y-131653598D01*
X92667155Y-131659999D01*
X92667172Y-131660000D01*
X93100000Y-131660000D01*
X93100000Y-130205686D01*
X93104394Y-130210080D01*
X93195606Y-130262741D01*
X93297339Y-130290000D01*
X93402661Y-130290000D01*
X93504394Y-130262741D01*
X93595606Y-130210080D01*
X93600000Y-130205686D01*
X93600000Y-131660000D01*
X94032828Y-131660000D01*
X94032844Y-131659999D01*
X94092372Y-131653598D01*
X94092379Y-131653596D01*
X94227086Y-131603354D01*
X94227093Y-131603350D01*
X94342187Y-131517190D01*
X94342190Y-131517187D01*
X94428350Y-131402093D01*
X94428354Y-131402086D01*
X94478596Y-131267379D01*
X94478598Y-131267372D01*
X94484999Y-131207844D01*
X94485000Y-131207827D01*
X94485000Y-130140000D01*
X93665686Y-130140000D01*
X93670080Y-130135606D01*
X93722741Y-130044394D01*
X93750000Y-129942661D01*
X93750000Y-129837339D01*
X93722741Y-129735606D01*
X93670080Y-129644394D01*
X93665686Y-129640000D01*
X94485000Y-129640000D01*
X94485000Y-128572164D01*
X94484997Y-128572135D01*
X94754500Y-128572135D01*
X94754500Y-131207870D01*
X94754501Y-131207876D01*
X94760908Y-131267483D01*
X94811202Y-131402328D01*
X94811206Y-131402335D01*
X94897452Y-131517544D01*
X94897455Y-131517547D01*
X95012664Y-131603793D01*
X95012671Y-131603797D01*
X95147517Y-131654091D01*
X95147516Y-131654091D01*
X95154444Y-131654835D01*
X95207127Y-131660500D01*
X96572872Y-131660499D01*
X96632483Y-131654091D01*
X96767331Y-131603796D01*
X96882546Y-131517546D01*
X96968796Y-131402331D01*
X97019091Y-131267483D01*
X97025500Y-131207873D01*
X97025499Y-128572135D01*
X97294500Y-128572135D01*
X97294500Y-131207870D01*
X97294501Y-131207876D01*
X97300908Y-131267483D01*
X97351202Y-131402328D01*
X97351206Y-131402335D01*
X97437452Y-131517544D01*
X97437455Y-131517547D01*
X97552664Y-131603793D01*
X97552671Y-131603797D01*
X97687517Y-131654091D01*
X97687516Y-131654091D01*
X97694444Y-131654835D01*
X97747127Y-131660500D01*
X99112872Y-131660499D01*
X99172483Y-131654091D01*
X99307331Y-131603796D01*
X99422546Y-131517546D01*
X99508796Y-131402331D01*
X99559091Y-131267483D01*
X99565500Y-131207873D01*
X99565499Y-128572135D01*
X99834500Y-128572135D01*
X99834500Y-131207870D01*
X99834501Y-131207876D01*
X99840908Y-131267483D01*
X99891202Y-131402328D01*
X99891206Y-131402335D01*
X99977452Y-131517544D01*
X99977455Y-131517547D01*
X100092664Y-131603793D01*
X100092671Y-131603797D01*
X100227517Y-131654091D01*
X100227516Y-131654091D01*
X100234444Y-131654835D01*
X100287127Y-131660500D01*
X101652872Y-131660499D01*
X101712483Y-131654091D01*
X101847331Y-131603796D01*
X101962546Y-131517546D01*
X102048796Y-131402331D01*
X102099091Y-131267483D01*
X102105500Y-131207873D01*
X102105499Y-128572135D01*
X102374500Y-128572135D01*
X102374500Y-131207870D01*
X102374501Y-131207876D01*
X102380908Y-131267483D01*
X102431202Y-131402328D01*
X102431206Y-131402335D01*
X102517452Y-131517544D01*
X102517455Y-131517547D01*
X102632664Y-131603793D01*
X102632671Y-131603797D01*
X102767517Y-131654091D01*
X102767516Y-131654091D01*
X102774444Y-131654835D01*
X102827127Y-131660500D01*
X104192872Y-131660499D01*
X104252483Y-131654091D01*
X104387331Y-131603796D01*
X104502546Y-131517546D01*
X104588796Y-131402331D01*
X104639091Y-131267483D01*
X104645500Y-131207873D01*
X104645499Y-129837339D01*
X104645499Y-128572155D01*
X104915000Y-128572155D01*
X104915000Y-129640000D01*
X105734314Y-129640000D01*
X105729920Y-129644394D01*
X105677259Y-129735606D01*
X105650000Y-129837339D01*
X105650000Y-129942661D01*
X105677259Y-130044394D01*
X105729920Y-130135606D01*
X105734314Y-130140000D01*
X104915000Y-130140000D01*
X104915000Y-131207844D01*
X104921401Y-131267372D01*
X104921403Y-131267379D01*
X104971645Y-131402086D01*
X104971649Y-131402093D01*
X105057809Y-131517187D01*
X105057812Y-131517190D01*
X105172906Y-131603350D01*
X105172913Y-131603354D01*
X105307620Y-131653596D01*
X105307627Y-131653598D01*
X105367155Y-131659999D01*
X105367172Y-131660000D01*
X105800000Y-131660000D01*
X105800000Y-130205686D01*
X105804394Y-130210080D01*
X105895606Y-130262741D01*
X105997339Y-130290000D01*
X106102661Y-130290000D01*
X106204394Y-130262741D01*
X106295606Y-130210080D01*
X106300000Y-130205686D01*
X106300000Y-131660000D01*
X106732828Y-131660000D01*
X106732844Y-131659999D01*
X106792372Y-131653598D01*
X106792379Y-131653596D01*
X106927086Y-131603354D01*
X106927093Y-131603350D01*
X107042187Y-131517190D01*
X107042190Y-131517187D01*
X107128350Y-131402093D01*
X107128354Y-131402086D01*
X107178596Y-131267379D01*
X107178598Y-131267372D01*
X107184999Y-131207844D01*
X107185000Y-131207827D01*
X107185000Y-130140000D01*
X106365686Y-130140000D01*
X106370080Y-130135606D01*
X106422741Y-130044394D01*
X106450000Y-129942661D01*
X106450000Y-129837339D01*
X106422741Y-129735606D01*
X106370080Y-129644394D01*
X106365686Y-129640000D01*
X107185000Y-129640000D01*
X107185000Y-128572164D01*
X107184997Y-128572135D01*
X107454500Y-128572135D01*
X107454500Y-131207870D01*
X107454501Y-131207876D01*
X107460908Y-131267483D01*
X107511202Y-131402328D01*
X107511206Y-131402335D01*
X107597452Y-131517544D01*
X107597455Y-131517547D01*
X107712664Y-131603793D01*
X107712671Y-131603797D01*
X107847517Y-131654091D01*
X107847516Y-131654091D01*
X107854444Y-131654835D01*
X107907127Y-131660500D01*
X109272872Y-131660499D01*
X109332483Y-131654091D01*
X109467331Y-131603796D01*
X109582546Y-131517546D01*
X109668796Y-131402331D01*
X109719091Y-131267483D01*
X109725500Y-131207873D01*
X109725499Y-128572135D01*
X109994500Y-128572135D01*
X109994500Y-131207870D01*
X109994501Y-131207876D01*
X110000908Y-131267483D01*
X110051202Y-131402328D01*
X110051206Y-131402335D01*
X110137452Y-131517544D01*
X110137455Y-131517547D01*
X110252664Y-131603793D01*
X110252671Y-131603797D01*
X110387517Y-131654091D01*
X110387516Y-131654091D01*
X110394444Y-131654835D01*
X110447127Y-131660500D01*
X111812872Y-131660499D01*
X111872483Y-131654091D01*
X112007331Y-131603796D01*
X112122546Y-131517546D01*
X112208796Y-131402331D01*
X112259091Y-131267483D01*
X112265500Y-131207873D01*
X112265499Y-128572128D01*
X112259091Y-128512517D01*
X112208884Y-128377906D01*
X112208797Y-128377671D01*
X112208793Y-128377664D01*
X112122547Y-128262455D01*
X112122544Y-128262452D01*
X112007335Y-128176206D01*
X112007328Y-128176202D01*
X111872482Y-128125908D01*
X111872483Y-128125908D01*
X111812883Y-128119501D01*
X111812881Y-128119500D01*
X111812873Y-128119500D01*
X111812864Y-128119500D01*
X110447129Y-128119500D01*
X110447123Y-128119501D01*
X110387516Y-128125908D01*
X110252671Y-128176202D01*
X110252664Y-128176206D01*
X110137455Y-128262452D01*
X110137452Y-128262455D01*
X110051206Y-128377664D01*
X110051202Y-128377671D01*
X110000908Y-128512517D01*
X109994501Y-128572116D01*
X109994501Y-128572123D01*
X109994500Y-128572135D01*
X109725499Y-128572135D01*
X109725499Y-128572128D01*
X109719091Y-128512517D01*
X109668884Y-128377906D01*
X109668797Y-128377671D01*
X109668793Y-128377664D01*
X109582547Y-128262455D01*
X109582544Y-128262452D01*
X109467335Y-128176206D01*
X109467328Y-128176202D01*
X109332482Y-128125908D01*
X109332483Y-128125908D01*
X109272883Y-128119501D01*
X109272881Y-128119500D01*
X109272873Y-128119500D01*
X109272864Y-128119500D01*
X107907129Y-128119500D01*
X107907123Y-128119501D01*
X107847516Y-128125908D01*
X107712671Y-128176202D01*
X107712664Y-128176206D01*
X107597455Y-128262452D01*
X107597452Y-128262455D01*
X107511206Y-128377664D01*
X107511202Y-128377671D01*
X107460908Y-128512517D01*
X107454501Y-128572116D01*
X107454501Y-128572123D01*
X107454500Y-128572135D01*
X107184997Y-128572135D01*
X107178598Y-128512627D01*
X107178596Y-128512620D01*
X107128354Y-128377913D01*
X107128350Y-128377906D01*
X107042190Y-128262812D01*
X107042187Y-128262809D01*
X106927093Y-128176649D01*
X106927086Y-128176645D01*
X106792379Y-128126403D01*
X106792372Y-128126401D01*
X106732844Y-128120000D01*
X106300000Y-128120000D01*
X106300000Y-129574314D01*
X106295606Y-129569920D01*
X106204394Y-129517259D01*
X106102661Y-129490000D01*
X105997339Y-129490000D01*
X105895606Y-129517259D01*
X105804394Y-129569920D01*
X105800000Y-129574314D01*
X105800000Y-128120000D01*
X105367155Y-128120000D01*
X105307627Y-128126401D01*
X105307620Y-128126403D01*
X105172913Y-128176645D01*
X105172906Y-128176649D01*
X105057812Y-128262809D01*
X105057809Y-128262812D01*
X104971649Y-128377906D01*
X104971645Y-128377913D01*
X104921403Y-128512620D01*
X104921401Y-128512627D01*
X104915000Y-128572155D01*
X104645499Y-128572155D01*
X104645499Y-128572129D01*
X104645498Y-128572123D01*
X104645497Y-128572116D01*
X104639091Y-128512517D01*
X104588884Y-128377906D01*
X104588797Y-128377671D01*
X104588793Y-128377664D01*
X104502547Y-128262455D01*
X104502544Y-128262452D01*
X104387335Y-128176206D01*
X104387328Y-128176202D01*
X104252482Y-128125908D01*
X104252483Y-128125908D01*
X104192883Y-128119501D01*
X104192881Y-128119500D01*
X104192873Y-128119500D01*
X104192864Y-128119500D01*
X102827129Y-128119500D01*
X102827123Y-128119501D01*
X102767516Y-128125908D01*
X102632671Y-128176202D01*
X102632664Y-128176206D01*
X102517455Y-128262452D01*
X102517452Y-128262455D01*
X102431206Y-128377664D01*
X102431202Y-128377671D01*
X102380908Y-128512517D01*
X102374501Y-128572116D01*
X102374501Y-128572123D01*
X102374500Y-128572135D01*
X102105499Y-128572135D01*
X102105499Y-128572128D01*
X102099091Y-128512517D01*
X102048884Y-128377906D01*
X102048797Y-128377671D01*
X102048793Y-128377664D01*
X101962547Y-128262455D01*
X101962544Y-128262452D01*
X101847335Y-128176206D01*
X101847328Y-128176202D01*
X101712482Y-128125908D01*
X101712483Y-128125908D01*
X101652883Y-128119501D01*
X101652881Y-128119500D01*
X101652873Y-128119500D01*
X101652864Y-128119500D01*
X100287129Y-128119500D01*
X100287123Y-128119501D01*
X100227516Y-128125908D01*
X100092671Y-128176202D01*
X100092664Y-128176206D01*
X99977455Y-128262452D01*
X99977452Y-128262455D01*
X99891206Y-128377664D01*
X99891202Y-128377671D01*
X99840908Y-128512517D01*
X99834501Y-128572116D01*
X99834501Y-128572123D01*
X99834500Y-128572135D01*
X99565499Y-128572135D01*
X99565499Y-128572128D01*
X99559091Y-128512517D01*
X99508884Y-128377906D01*
X99508797Y-128377671D01*
X99508793Y-128377664D01*
X99422547Y-128262455D01*
X99422544Y-128262452D01*
X99307335Y-128176206D01*
X99307328Y-128176202D01*
X99172482Y-128125908D01*
X99172483Y-128125908D01*
X99112883Y-128119501D01*
X99112881Y-128119500D01*
X99112873Y-128119500D01*
X99112864Y-128119500D01*
X97747129Y-128119500D01*
X97747123Y-128119501D01*
X97687516Y-128125908D01*
X97552671Y-128176202D01*
X97552664Y-128176206D01*
X97437455Y-128262452D01*
X97437452Y-128262455D01*
X97351206Y-128377664D01*
X97351202Y-128377671D01*
X97300908Y-128512517D01*
X97294501Y-128572116D01*
X97294501Y-128572123D01*
X97294500Y-128572135D01*
X97025499Y-128572135D01*
X97025499Y-128572128D01*
X97019091Y-128512517D01*
X96968884Y-128377906D01*
X96968797Y-128377671D01*
X96968793Y-128377664D01*
X96882547Y-128262455D01*
X96882544Y-128262452D01*
X96767335Y-128176206D01*
X96767328Y-128176202D01*
X96632482Y-128125908D01*
X96632483Y-128125908D01*
X96572883Y-128119501D01*
X96572881Y-128119500D01*
X96572873Y-128119500D01*
X96572864Y-128119500D01*
X95207129Y-128119500D01*
X95207123Y-128119501D01*
X95147516Y-128125908D01*
X95012671Y-128176202D01*
X95012664Y-128176206D01*
X94897455Y-128262452D01*
X94897452Y-128262455D01*
X94811206Y-128377664D01*
X94811202Y-128377671D01*
X94760908Y-128512517D01*
X94754501Y-128572116D01*
X94754501Y-128572123D01*
X94754500Y-128572135D01*
X94484997Y-128572135D01*
X94478598Y-128512627D01*
X94478596Y-128512620D01*
X94428354Y-128377913D01*
X94428350Y-128377906D01*
X94342190Y-128262812D01*
X94342187Y-128262809D01*
X94227093Y-128176649D01*
X94227086Y-128176645D01*
X94092379Y-128126403D01*
X94092372Y-128126401D01*
X94032844Y-128120000D01*
X93600000Y-128120000D01*
X93600000Y-129574314D01*
X93595606Y-129569920D01*
X93504394Y-129517259D01*
X93402661Y-129490000D01*
X93297339Y-129490000D01*
X93195606Y-129517259D01*
X93104394Y-129569920D01*
X93100000Y-129574314D01*
X93100000Y-128120000D01*
X92667155Y-128120000D01*
X92607627Y-128126401D01*
X92607620Y-128126403D01*
X92472913Y-128176645D01*
X92472906Y-128176649D01*
X92357812Y-128262809D01*
X92357809Y-128262812D01*
X92271649Y-128377906D01*
X92271645Y-128377913D01*
X92221403Y-128512620D01*
X92221401Y-128512627D01*
X92215000Y-128572155D01*
X91945499Y-128572155D01*
X91945499Y-128572129D01*
X91945498Y-128572123D01*
X91945497Y-128572116D01*
X91939091Y-128512517D01*
X91888884Y-128377906D01*
X91888797Y-128377671D01*
X91888793Y-128377664D01*
X91802547Y-128262455D01*
X91802544Y-128262452D01*
X91687335Y-128176206D01*
X91687328Y-128176202D01*
X91552482Y-128125908D01*
X91552483Y-128125908D01*
X91492883Y-128119501D01*
X91492881Y-128119500D01*
X91492873Y-128119500D01*
X91492864Y-128119500D01*
X90127129Y-128119500D01*
X90127123Y-128119501D01*
X90067516Y-128125908D01*
X89932671Y-128176202D01*
X89932664Y-128176206D01*
X89817455Y-128262452D01*
X89817452Y-128262455D01*
X89731206Y-128377664D01*
X89731202Y-128377671D01*
X89680908Y-128512517D01*
X89674501Y-128572116D01*
X89674501Y-128572123D01*
X89674500Y-128572135D01*
X89405499Y-128572135D01*
X89405499Y-128572128D01*
X89399091Y-128512517D01*
X89348884Y-128377906D01*
X89348797Y-128377671D01*
X89348793Y-128377664D01*
X89262547Y-128262455D01*
X89262544Y-128262452D01*
X89147335Y-128176206D01*
X89147328Y-128176202D01*
X89012482Y-128125908D01*
X89012483Y-128125908D01*
X88952883Y-128119501D01*
X88952881Y-128119500D01*
X88952873Y-128119500D01*
X88952864Y-128119500D01*
X87587129Y-128119500D01*
X87587123Y-128119501D01*
X87527516Y-128125908D01*
X87392671Y-128176202D01*
X87392664Y-128176206D01*
X87277455Y-128262452D01*
X87277452Y-128262455D01*
X87191206Y-128377664D01*
X87191202Y-128377671D01*
X87140908Y-128512517D01*
X87134501Y-128572116D01*
X87134501Y-128572123D01*
X87134500Y-128572135D01*
X86865499Y-128572135D01*
X86865499Y-128572128D01*
X86859091Y-128512517D01*
X86808884Y-128377906D01*
X86808797Y-128377671D01*
X86808793Y-128377664D01*
X86722547Y-128262455D01*
X86722544Y-128262452D01*
X86607335Y-128176206D01*
X86607328Y-128176202D01*
X86472482Y-128125908D01*
X86472483Y-128125908D01*
X86412883Y-128119501D01*
X86412881Y-128119500D01*
X86412873Y-128119500D01*
X86412864Y-128119500D01*
X85047129Y-128119500D01*
X85047123Y-128119501D01*
X84987516Y-128125908D01*
X84852671Y-128176202D01*
X84852664Y-128176206D01*
X84737455Y-128262452D01*
X84737452Y-128262455D01*
X84651206Y-128377664D01*
X84651202Y-128377671D01*
X84600908Y-128512517D01*
X84594501Y-128572116D01*
X84594501Y-128572123D01*
X84594500Y-128572135D01*
X84325499Y-128572135D01*
X84325499Y-128572128D01*
X84319091Y-128512517D01*
X84268884Y-128377906D01*
X84268797Y-128377671D01*
X84268793Y-128377664D01*
X84182547Y-128262455D01*
X84182544Y-128262452D01*
X84067335Y-128176206D01*
X84067328Y-128176202D01*
X83932482Y-128125908D01*
X83932483Y-128125908D01*
X83872883Y-128119501D01*
X83872881Y-128119500D01*
X83872873Y-128119500D01*
X83872864Y-128119500D01*
X82507129Y-128119500D01*
X82507123Y-128119501D01*
X82447516Y-128125908D01*
X82312671Y-128176202D01*
X82312664Y-128176206D01*
X82197455Y-128262452D01*
X82197452Y-128262455D01*
X82111206Y-128377664D01*
X82111202Y-128377671D01*
X82060908Y-128512517D01*
X82054501Y-128572116D01*
X82054501Y-128572123D01*
X82054500Y-128572135D01*
X81784997Y-128572135D01*
X81778598Y-128512627D01*
X81778596Y-128512620D01*
X81728354Y-128377913D01*
X81728350Y-128377906D01*
X81642190Y-128262812D01*
X81642187Y-128262809D01*
X81527093Y-128176649D01*
X81527086Y-128176645D01*
X81392379Y-128126403D01*
X81392372Y-128126401D01*
X81332844Y-128120000D01*
X80900000Y-128120000D01*
X80900000Y-129574314D01*
X80895606Y-129569920D01*
X80804394Y-129517259D01*
X80702661Y-129490000D01*
X80597339Y-129490000D01*
X80495606Y-129517259D01*
X80404394Y-129569920D01*
X80400000Y-129574314D01*
X80400000Y-128120000D01*
X79967155Y-128120000D01*
X79907627Y-128126401D01*
X79907620Y-128126403D01*
X79772913Y-128176645D01*
X79772906Y-128176649D01*
X79657812Y-128262809D01*
X79657809Y-128262812D01*
X79571649Y-128377906D01*
X79571645Y-128377913D01*
X79521403Y-128512620D01*
X79521401Y-128512627D01*
X79515000Y-128572155D01*
X79245499Y-128572155D01*
X79245499Y-128572129D01*
X79245498Y-128572123D01*
X79245497Y-128572116D01*
X79239091Y-128512517D01*
X79188884Y-128377906D01*
X79188797Y-128377671D01*
X79188793Y-128377664D01*
X79102547Y-128262455D01*
X79102544Y-128262452D01*
X78987335Y-128176206D01*
X78987328Y-128176202D01*
X78852482Y-128125908D01*
X78852483Y-128125908D01*
X78792883Y-128119501D01*
X78792881Y-128119500D01*
X78792873Y-128119500D01*
X78792864Y-128119500D01*
X77427129Y-128119500D01*
X77427123Y-128119501D01*
X77367516Y-128125908D01*
X77232671Y-128176202D01*
X77232664Y-128176206D01*
X77117455Y-128262452D01*
X77117452Y-128262455D01*
X77031206Y-128377664D01*
X77031202Y-128377671D01*
X76980908Y-128512517D01*
X76974501Y-128572116D01*
X76974501Y-128572123D01*
X76974500Y-128572135D01*
X76705499Y-128572135D01*
X76705499Y-128572128D01*
X76699091Y-128512517D01*
X76648884Y-128377906D01*
X76648797Y-128377671D01*
X76648793Y-128377664D01*
X76562547Y-128262455D01*
X76562544Y-128262452D01*
X76447335Y-128176206D01*
X76447328Y-128176202D01*
X76312482Y-128125908D01*
X76312483Y-128125908D01*
X76252883Y-128119501D01*
X76252881Y-128119500D01*
X76252873Y-128119500D01*
X76252864Y-128119500D01*
X74887129Y-128119500D01*
X74887123Y-128119501D01*
X74827516Y-128125908D01*
X74692671Y-128176202D01*
X74692664Y-128176206D01*
X74577455Y-128262452D01*
X74577452Y-128262455D01*
X74491206Y-128377664D01*
X74491202Y-128377671D01*
X74440908Y-128512517D01*
X74434501Y-128572116D01*
X74434501Y-128572123D01*
X74434500Y-128572135D01*
X74165499Y-128572135D01*
X74165499Y-128572128D01*
X74159091Y-128512517D01*
X74108884Y-128377906D01*
X74108797Y-128377671D01*
X74108793Y-128377664D01*
X74022814Y-128262812D01*
X74022546Y-128262454D01*
X73907331Y-128176204D01*
X73907328Y-128176203D01*
X73907327Y-128176202D01*
X73899544Y-128171952D01*
X73900712Y-128169812D01*
X73855220Y-128135745D01*
X73830814Y-128070276D01*
X73830500Y-128061452D01*
X73830500Y-127201157D01*
X73830499Y-127201153D01*
X73799739Y-127046510D01*
X73799738Y-127046503D01*
X73739394Y-126900821D01*
X73739392Y-126900818D01*
X73739390Y-126900814D01*
X73651789Y-126769711D01*
X73651786Y-126769707D01*
X72760292Y-125878213D01*
X72760288Y-125878210D01*
X72629185Y-125790609D01*
X72629172Y-125790602D01*
X72483501Y-125730264D01*
X72483489Y-125730261D01*
X72328845Y-125699500D01*
X72328842Y-125699500D01*
X62882940Y-125699500D01*
X62815901Y-125679815D01*
X62795259Y-125663181D01*
X61796819Y-124664741D01*
X61763334Y-124603418D01*
X61760500Y-124577060D01*
X61760500Y-120555513D01*
X62299500Y-120555513D01*
X62299500Y-120744486D01*
X62329059Y-120931118D01*
X62387454Y-121110836D01*
X62473240Y-121279199D01*
X62584310Y-121432073D01*
X62717927Y-121565690D01*
X62870801Y-121676760D01*
X62904880Y-121694124D01*
X63039163Y-121762545D01*
X63039165Y-121762545D01*
X63039168Y-121762547D01*
X63128734Y-121791649D01*
X63160803Y-121802069D01*
X63218478Y-121841507D01*
X63245676Y-121905866D01*
X63233761Y-121974712D01*
X63186516Y-122026188D01*
X63160803Y-122037931D01*
X63039163Y-122077454D01*
X62870800Y-122163240D01*
X62783579Y-122226610D01*
X62717927Y-122274310D01*
X62717925Y-122274312D01*
X62717924Y-122274312D01*
X62584312Y-122407924D01*
X62584312Y-122407925D01*
X62584310Y-122407927D01*
X62536610Y-122473579D01*
X62473240Y-122560800D01*
X62387454Y-122729163D01*
X62329059Y-122908881D01*
X62299500Y-123095513D01*
X62299500Y-123284486D01*
X62329059Y-123471118D01*
X62387454Y-123650836D01*
X62473240Y-123819199D01*
X62584310Y-123972073D01*
X62717927Y-124105690D01*
X62870801Y-124216760D01*
X62950347Y-124257290D01*
X63039163Y-124302545D01*
X63039165Y-124302545D01*
X63039168Y-124302547D01*
X63135497Y-124333846D01*
X63218881Y-124360940D01*
X63405514Y-124390500D01*
X63405519Y-124390500D01*
X63594486Y-124390500D01*
X63781118Y-124360940D01*
X63960832Y-124302547D01*
X64129199Y-124216760D01*
X64282073Y-124105690D01*
X64415690Y-123972073D01*
X64526760Y-123819199D01*
X64612547Y-123650832D01*
X64652069Y-123529195D01*
X64691507Y-123471521D01*
X64755866Y-123444323D01*
X64824712Y-123456238D01*
X64876188Y-123503482D01*
X64887931Y-123529196D01*
X64927454Y-123650836D01*
X65013240Y-123819199D01*
X65124310Y-123972073D01*
X65257927Y-124105690D01*
X65410801Y-124216760D01*
X65490347Y-124257290D01*
X65579163Y-124302545D01*
X65579165Y-124302545D01*
X65579168Y-124302547D01*
X65675497Y-124333846D01*
X65758881Y-124360940D01*
X65945514Y-124390500D01*
X65945519Y-124390500D01*
X66134486Y-124390500D01*
X66321118Y-124360940D01*
X66500832Y-124302547D01*
X66669199Y-124216760D01*
X66822073Y-124105690D01*
X66955690Y-123972073D01*
X67066760Y-123819199D01*
X67152547Y-123650832D01*
X67192069Y-123529195D01*
X67231507Y-123471521D01*
X67295866Y-123444323D01*
X67364712Y-123456238D01*
X67416188Y-123503482D01*
X67427931Y-123529196D01*
X67467454Y-123650836D01*
X67553240Y-123819199D01*
X67664310Y-123972073D01*
X67797927Y-124105690D01*
X67950801Y-124216760D01*
X68030347Y-124257290D01*
X68119163Y-124302545D01*
X68119165Y-124302545D01*
X68119168Y-124302547D01*
X68215497Y-124333846D01*
X68298881Y-124360940D01*
X68485514Y-124390500D01*
X68485519Y-124390500D01*
X68674486Y-124390500D01*
X68861118Y-124360940D01*
X69040832Y-124302547D01*
X69209199Y-124216760D01*
X69362073Y-124105690D01*
X69495690Y-123972073D01*
X69606760Y-123819199D01*
X69692547Y-123650832D01*
X69750940Y-123471118D01*
X69755184Y-123444323D01*
X69780500Y-123284486D01*
X69780500Y-123095513D01*
X69750940Y-122908881D01*
X69692545Y-122729163D01*
X69606759Y-122560800D01*
X69495690Y-122407927D01*
X69362073Y-122274310D01*
X69209199Y-122163240D01*
X69040836Y-122077454D01*
X68966472Y-122053291D01*
X68919195Y-122037930D01*
X68861521Y-121998493D01*
X68834323Y-121934134D01*
X68846238Y-121865288D01*
X68893482Y-121813812D01*
X68919194Y-121802069D01*
X69040832Y-121762547D01*
X69209199Y-121676760D01*
X69362073Y-121565690D01*
X69495690Y-121432073D01*
X69606760Y-121279199D01*
X69692547Y-121110832D01*
X69750940Y-120931118D01*
X69755869Y-120900000D01*
X69767076Y-120829240D01*
X69780500Y-120744486D01*
X69780500Y-120555513D01*
X69750940Y-120368881D01*
X69692545Y-120189163D01*
X69606759Y-120020800D01*
X69495690Y-119867927D01*
X69362073Y-119734310D01*
X69209199Y-119623240D01*
X69204208Y-119620697D01*
X69040836Y-119537454D01*
X68861118Y-119479059D01*
X68674486Y-119449500D01*
X68674481Y-119449500D01*
X68485519Y-119449500D01*
X68485514Y-119449500D01*
X68298881Y-119479059D01*
X68119163Y-119537454D01*
X67950800Y-119623240D01*
X67863579Y-119686610D01*
X67797927Y-119734310D01*
X67797925Y-119734312D01*
X67797924Y-119734312D01*
X67664312Y-119867924D01*
X67664312Y-119867925D01*
X67664310Y-119867927D01*
X67659162Y-119875013D01*
X67553240Y-120020800D01*
X67467454Y-120189163D01*
X67427931Y-120310803D01*
X67388493Y-120368478D01*
X67324134Y-120395676D01*
X67255288Y-120383761D01*
X67203812Y-120336516D01*
X67192069Y-120310803D01*
X67152545Y-120189163D01*
X67066759Y-120020800D01*
X66955690Y-119867927D01*
X66822073Y-119734310D01*
X66669199Y-119623240D01*
X66664208Y-119620697D01*
X66500836Y-119537454D01*
X66321118Y-119479059D01*
X66134486Y-119449500D01*
X66134481Y-119449500D01*
X65945519Y-119449500D01*
X65945514Y-119449500D01*
X65758881Y-119479059D01*
X65579163Y-119537454D01*
X65410800Y-119623240D01*
X65323579Y-119686610D01*
X65257927Y-119734310D01*
X65257925Y-119734312D01*
X65257924Y-119734312D01*
X65124312Y-119867924D01*
X65124312Y-119867925D01*
X65124310Y-119867927D01*
X65119162Y-119875013D01*
X65013240Y-120020800D01*
X64927454Y-120189163D01*
X64887931Y-120310803D01*
X64848493Y-120368478D01*
X64784134Y-120395676D01*
X64715288Y-120383761D01*
X64663812Y-120336516D01*
X64652069Y-120310803D01*
X64612545Y-120189163D01*
X64526759Y-120020800D01*
X64415690Y-119867927D01*
X64282073Y-119734310D01*
X64129199Y-119623240D01*
X64124208Y-119620697D01*
X63960836Y-119537454D01*
X63781118Y-119479059D01*
X63594486Y-119449500D01*
X63594481Y-119449500D01*
X63405519Y-119449500D01*
X63405514Y-119449500D01*
X63218881Y-119479059D01*
X63039163Y-119537454D01*
X62870800Y-119623240D01*
X62783579Y-119686610D01*
X62717927Y-119734310D01*
X62717925Y-119734312D01*
X62717924Y-119734312D01*
X62584312Y-119867924D01*
X62584312Y-119867925D01*
X62584310Y-119867927D01*
X62579162Y-119875013D01*
X62473240Y-120020800D01*
X62387454Y-120189163D01*
X62329059Y-120368881D01*
X62299500Y-120555513D01*
X61760500Y-120555513D01*
X61760500Y-113897716D01*
X61780185Y-113830677D01*
X61832989Y-113784922D01*
X61902147Y-113774978D01*
X61958810Y-113798449D01*
X61992079Y-113823354D01*
X61992668Y-113823795D01*
X61992671Y-113823797D01*
X62127517Y-113874091D01*
X62127516Y-113874091D01*
X62134444Y-113874835D01*
X62187127Y-113880500D01*
X63552872Y-113880499D01*
X63612483Y-113874091D01*
X63747331Y-113823796D01*
X63862546Y-113737546D01*
X63948796Y-113622331D01*
X63999091Y-113487483D01*
X64005500Y-113427873D01*
X64005499Y-110792135D01*
X64274500Y-110792135D01*
X64274500Y-113427870D01*
X64274501Y-113427876D01*
X64280908Y-113487483D01*
X64331202Y-113622328D01*
X64331206Y-113622335D01*
X64417452Y-113737544D01*
X64417455Y-113737547D01*
X64532664Y-113823793D01*
X64532671Y-113823797D01*
X64667517Y-113874091D01*
X64667516Y-113874091D01*
X64674444Y-113874835D01*
X64727127Y-113880500D01*
X66092872Y-113880499D01*
X66152483Y-113874091D01*
X66287331Y-113823796D01*
X66402546Y-113737546D01*
X66488796Y-113622331D01*
X66539091Y-113487483D01*
X66545500Y-113427873D01*
X66545499Y-112085449D01*
X66545499Y-110792155D01*
X66815000Y-110792155D01*
X66815000Y-111860000D01*
X67634314Y-111860000D01*
X67629920Y-111864394D01*
X67577259Y-111955606D01*
X67550000Y-112057339D01*
X67550000Y-112162661D01*
X67577259Y-112264394D01*
X67629920Y-112355606D01*
X67634314Y-112360000D01*
X66815000Y-112360000D01*
X66815000Y-113427844D01*
X66821401Y-113487372D01*
X66821403Y-113487379D01*
X66871645Y-113622086D01*
X66871649Y-113622093D01*
X66957809Y-113737187D01*
X66957812Y-113737190D01*
X67072906Y-113823350D01*
X67072913Y-113823354D01*
X67207620Y-113873596D01*
X67207627Y-113873598D01*
X67267155Y-113879999D01*
X67267172Y-113880000D01*
X67700000Y-113880000D01*
X67700000Y-112425686D01*
X67704394Y-112430080D01*
X67795606Y-112482741D01*
X67897339Y-112510000D01*
X68002661Y-112510000D01*
X68104394Y-112482741D01*
X68195606Y-112430080D01*
X68200000Y-112425686D01*
X68200000Y-113880000D01*
X68632828Y-113880000D01*
X68632844Y-113879999D01*
X68692372Y-113873598D01*
X68692379Y-113873596D01*
X68827086Y-113823354D01*
X68827093Y-113823350D01*
X68942187Y-113737190D01*
X68942190Y-113737187D01*
X69028350Y-113622093D01*
X69028354Y-113622086D01*
X69078596Y-113487379D01*
X69078598Y-113487372D01*
X69084999Y-113427844D01*
X69085000Y-113427827D01*
X69085000Y-112360000D01*
X68265686Y-112360000D01*
X68270080Y-112355606D01*
X68322741Y-112264394D01*
X68350000Y-112162661D01*
X68350000Y-112057339D01*
X68322741Y-111955606D01*
X68270080Y-111864394D01*
X68265686Y-111860000D01*
X69085000Y-111860000D01*
X69085000Y-110792164D01*
X69084997Y-110792135D01*
X69354500Y-110792135D01*
X69354500Y-113427870D01*
X69354501Y-113427876D01*
X69360908Y-113487483D01*
X69411202Y-113622328D01*
X69411206Y-113622335D01*
X69497452Y-113737544D01*
X69497455Y-113737547D01*
X69612664Y-113823793D01*
X69612671Y-113823797D01*
X69747517Y-113874091D01*
X69747516Y-113874091D01*
X69754444Y-113874835D01*
X69807127Y-113880500D01*
X71172872Y-113880499D01*
X71232483Y-113874091D01*
X71367331Y-113823796D01*
X71482546Y-113737546D01*
X71568796Y-113622331D01*
X71619091Y-113487483D01*
X71625500Y-113427873D01*
X71625499Y-110792135D01*
X71894500Y-110792135D01*
X71894500Y-113427870D01*
X71894501Y-113427876D01*
X71900908Y-113487483D01*
X71951202Y-113622328D01*
X71951206Y-113622335D01*
X72037452Y-113737544D01*
X72037455Y-113737547D01*
X72152664Y-113823793D01*
X72152671Y-113823797D01*
X72287516Y-113874091D01*
X72313419Y-113876875D01*
X72347127Y-113880500D01*
X72386542Y-113880499D01*
X72453580Y-113900182D01*
X72493929Y-113942497D01*
X72499358Y-113951900D01*
X72499359Y-113951904D01*
X72499360Y-113951904D01*
X72549479Y-114038714D01*
X72549481Y-114038717D01*
X72668349Y-114157585D01*
X72668355Y-114157590D01*
X75603181Y-117092416D01*
X75636666Y-117153739D01*
X75639500Y-117180097D01*
X75639500Y-119239281D01*
X75619815Y-119306320D01*
X75571795Y-119349765D01*
X75532185Y-119369947D01*
X75532184Y-119369948D01*
X75360215Y-119494889D01*
X75221035Y-119634069D01*
X75159712Y-119667553D01*
X75090020Y-119662569D01*
X75034087Y-119620697D01*
X75027815Y-119611484D01*
X74932315Y-119456654D01*
X74808345Y-119332684D01*
X74659124Y-119240643D01*
X74659119Y-119240641D01*
X74492697Y-119185494D01*
X74492690Y-119185493D01*
X74389986Y-119175000D01*
X73990000Y-119175000D01*
X73990000Y-120245854D01*
X73923343Y-120207370D01*
X73802535Y-120175000D01*
X73677465Y-120175000D01*
X73556657Y-120207370D01*
X73490000Y-120245854D01*
X73490000Y-119175000D01*
X73090028Y-119175000D01*
X73090012Y-119175001D01*
X72987302Y-119185494D01*
X72820880Y-119240641D01*
X72820875Y-119240643D01*
X72671654Y-119332684D01*
X72547684Y-119456654D01*
X72455643Y-119605875D01*
X72455641Y-119605880D01*
X72400494Y-119772302D01*
X72400493Y-119772309D01*
X72390000Y-119875013D01*
X72390000Y-120400000D01*
X73335854Y-120400000D01*
X73297370Y-120466657D01*
X73265000Y-120587465D01*
X73265000Y-120712535D01*
X73297370Y-120833343D01*
X73335854Y-120900000D01*
X72390001Y-120900000D01*
X72390001Y-121424986D01*
X72400494Y-121527697D01*
X72455641Y-121694119D01*
X72455643Y-121694124D01*
X72547684Y-121843345D01*
X72671654Y-121967315D01*
X72820875Y-122059356D01*
X72820880Y-122059358D01*
X72987302Y-122114505D01*
X72987309Y-122114506D01*
X73090019Y-122124999D01*
X73489999Y-122124999D01*
X73490000Y-122124998D01*
X73490000Y-121054145D01*
X73556657Y-121092630D01*
X73677465Y-121125000D01*
X73802535Y-121125000D01*
X73923343Y-121092630D01*
X73990000Y-121054145D01*
X73990000Y-122124999D01*
X74389972Y-122124999D01*
X74389986Y-122124998D01*
X74492697Y-122114505D01*
X74659119Y-122059358D01*
X74659124Y-122059356D01*
X74808345Y-121967315D01*
X74932317Y-121843343D01*
X75027815Y-121688516D01*
X75079763Y-121641791D01*
X75148725Y-121630568D01*
X75212808Y-121658412D01*
X75221035Y-121665931D01*
X75360213Y-121805109D01*
X75532179Y-121930048D01*
X75532181Y-121930049D01*
X75532184Y-121930051D01*
X75721588Y-122026557D01*
X75923757Y-122092246D01*
X76133713Y-122125500D01*
X76133714Y-122125500D01*
X76346286Y-122125500D01*
X76346287Y-122125500D01*
X76556243Y-122092246D01*
X76758412Y-122026557D01*
X76947816Y-121930051D01*
X77015112Y-121881158D01*
X77119786Y-121805109D01*
X77119788Y-121805106D01*
X77119792Y-121805104D01*
X77270104Y-121654792D01*
X77389683Y-121490204D01*
X77445011Y-121447540D01*
X77514624Y-121441561D01*
X77576420Y-121474166D01*
X77590313Y-121490199D01*
X77692296Y-121630568D01*
X77709896Y-121654792D01*
X77860213Y-121805109D01*
X78032179Y-121930048D01*
X78032181Y-121930049D01*
X78032184Y-121930051D01*
X78221588Y-122026557D01*
X78423757Y-122092246D01*
X78633713Y-122125500D01*
X78633714Y-122125500D01*
X78846286Y-122125500D01*
X78846287Y-122125500D01*
X79056243Y-122092246D01*
X79258412Y-122026557D01*
X79447816Y-121930051D01*
X79515112Y-121881158D01*
X79619786Y-121805109D01*
X79619788Y-121805106D01*
X79619792Y-121805104D01*
X79770104Y-121654792D01*
X79770106Y-121654788D01*
X79770109Y-121654786D01*
X79895048Y-121482820D01*
X79895047Y-121482820D01*
X79895051Y-121482816D01*
X79991557Y-121293412D01*
X80057246Y-121091243D01*
X80090500Y-120881287D01*
X80090500Y-120418713D01*
X80057246Y-120208757D01*
X79991557Y-120006588D01*
X79990000Y-120003532D01*
X79951597Y-119928160D01*
X79951596Y-119928159D01*
X79920906Y-119867927D01*
X79895051Y-119817184D01*
X79862443Y-119772302D01*
X79770109Y-119645213D01*
X79619786Y-119494890D01*
X79447820Y-119369951D01*
X79258414Y-119273444D01*
X79258413Y-119273443D01*
X79258412Y-119273443D01*
X79056243Y-119207754D01*
X79056241Y-119207753D01*
X79056240Y-119207753D01*
X78894957Y-119182208D01*
X78846287Y-119174500D01*
X78633713Y-119174500D01*
X78585042Y-119182208D01*
X78423760Y-119207753D01*
X78221585Y-119273444D01*
X78032179Y-119369951D01*
X77860213Y-119494890D01*
X77709894Y-119645209D01*
X77709890Y-119645214D01*
X77590318Y-119809793D01*
X77534989Y-119852459D01*
X77465375Y-119858438D01*
X77403580Y-119825833D01*
X77389682Y-119809793D01*
X77270109Y-119645214D01*
X77270105Y-119645209D01*
X77119786Y-119494890D01*
X76947815Y-119369948D01*
X76947814Y-119369947D01*
X76908205Y-119349765D01*
X76857409Y-119301791D01*
X76840500Y-119239281D01*
X76840500Y-116969060D01*
X76840501Y-116969047D01*
X76840501Y-116800944D01*
X76799576Y-116648214D01*
X76799573Y-116648209D01*
X76720524Y-116511290D01*
X76720518Y-116511282D01*
X74066087Y-113856851D01*
X74032602Y-113795528D01*
X74037586Y-113725836D01*
X74054502Y-113694859D01*
X74108793Y-113622335D01*
X74108792Y-113622335D01*
X74108796Y-113622331D01*
X74159091Y-113487483D01*
X74165500Y-113427873D01*
X74165499Y-110792135D01*
X74434500Y-110792135D01*
X74434500Y-113427870D01*
X74434501Y-113427876D01*
X74440908Y-113487483D01*
X74491202Y-113622328D01*
X74491206Y-113622335D01*
X74577452Y-113737544D01*
X74577455Y-113737547D01*
X74692664Y-113823793D01*
X74692671Y-113823797D01*
X74827516Y-113874091D01*
X74853419Y-113876875D01*
X74887127Y-113880500D01*
X74926542Y-113880499D01*
X74993580Y-113900182D01*
X75033929Y-113942497D01*
X75039358Y-113951900D01*
X75039359Y-113951904D01*
X75039360Y-113951904D01*
X75089479Y-114038714D01*
X75089481Y-114038717D01*
X75208349Y-114157585D01*
X75208355Y-114157590D01*
X78255139Y-117204374D01*
X78255149Y-117204385D01*
X78259479Y-117208715D01*
X78259480Y-117208716D01*
X78371284Y-117320520D01*
X78371286Y-117320521D01*
X78371290Y-117320524D01*
X78440562Y-117360518D01*
X78440566Y-117360519D01*
X78440567Y-117360520D01*
X78508213Y-117399576D01*
X78508214Y-117399576D01*
X78508215Y-117399577D01*
X78660943Y-117440501D01*
X78660946Y-117440501D01*
X78826653Y-117440501D01*
X78826669Y-117440500D01*
X89234903Y-117440500D01*
X89301942Y-117460185D01*
X89322584Y-117476819D01*
X90803181Y-118957416D01*
X90836666Y-119018739D01*
X90839500Y-119045097D01*
X90839500Y-119239281D01*
X90819815Y-119306320D01*
X90771795Y-119349765D01*
X90732185Y-119369947D01*
X90732184Y-119369948D01*
X90560215Y-119494889D01*
X90421035Y-119634069D01*
X90359712Y-119667553D01*
X90290020Y-119662569D01*
X90234087Y-119620697D01*
X90227815Y-119611484D01*
X90132315Y-119456654D01*
X90008345Y-119332684D01*
X89859124Y-119240643D01*
X89859119Y-119240641D01*
X89692697Y-119185494D01*
X89692690Y-119185493D01*
X89589986Y-119175000D01*
X89190000Y-119175000D01*
X89190000Y-120245854D01*
X89123343Y-120207370D01*
X89002535Y-120175000D01*
X88877465Y-120175000D01*
X88756657Y-120207370D01*
X88690000Y-120245854D01*
X88690000Y-119175000D01*
X88290028Y-119175000D01*
X88290012Y-119175001D01*
X88187302Y-119185494D01*
X88020880Y-119240641D01*
X88020875Y-119240643D01*
X87871654Y-119332684D01*
X87747684Y-119456654D01*
X87655643Y-119605875D01*
X87655641Y-119605880D01*
X87600494Y-119772302D01*
X87600493Y-119772309D01*
X87590000Y-119875013D01*
X87590000Y-120400000D01*
X88535854Y-120400000D01*
X88497370Y-120466657D01*
X88465000Y-120587465D01*
X88465000Y-120712535D01*
X88497370Y-120833343D01*
X88535854Y-120900000D01*
X87590001Y-120900000D01*
X87590001Y-121424986D01*
X87600494Y-121527697D01*
X87655641Y-121694119D01*
X87655643Y-121694124D01*
X87747684Y-121843345D01*
X87871654Y-121967315D01*
X88020875Y-122059356D01*
X88020880Y-122059358D01*
X88187302Y-122114505D01*
X88187309Y-122114506D01*
X88290019Y-122124999D01*
X88689999Y-122124999D01*
X88690000Y-122124998D01*
X88690000Y-121054145D01*
X88756657Y-121092630D01*
X88877465Y-121125000D01*
X89002535Y-121125000D01*
X89123343Y-121092630D01*
X89190000Y-121054145D01*
X89190000Y-122124999D01*
X89589972Y-122124999D01*
X89589986Y-122124998D01*
X89692697Y-122114505D01*
X89859119Y-122059358D01*
X89859124Y-122059356D01*
X90008345Y-121967315D01*
X90132317Y-121843343D01*
X90227815Y-121688516D01*
X90279763Y-121641791D01*
X90348725Y-121630568D01*
X90412808Y-121658412D01*
X90421035Y-121665931D01*
X90560213Y-121805109D01*
X90732179Y-121930048D01*
X90732181Y-121930049D01*
X90732184Y-121930051D01*
X90921588Y-122026557D01*
X91123757Y-122092246D01*
X91333713Y-122125500D01*
X91333714Y-122125500D01*
X91546286Y-122125500D01*
X91546287Y-122125500D01*
X91756243Y-122092246D01*
X91958412Y-122026557D01*
X92147816Y-121930051D01*
X92215112Y-121881158D01*
X92319786Y-121805109D01*
X92319788Y-121805106D01*
X92319792Y-121805104D01*
X92470104Y-121654792D01*
X92589683Y-121490204D01*
X92645011Y-121447540D01*
X92714624Y-121441561D01*
X92776420Y-121474166D01*
X92790313Y-121490199D01*
X92892296Y-121630568D01*
X92909896Y-121654792D01*
X93060213Y-121805109D01*
X93232179Y-121930048D01*
X93232181Y-121930049D01*
X93232184Y-121930051D01*
X93421588Y-122026557D01*
X93623757Y-122092246D01*
X93833713Y-122125500D01*
X93833714Y-122125500D01*
X94046286Y-122125500D01*
X94046287Y-122125500D01*
X94256243Y-122092246D01*
X94458412Y-122026557D01*
X94647816Y-121930051D01*
X94715112Y-121881158D01*
X94819786Y-121805109D01*
X94819788Y-121805106D01*
X94819792Y-121805104D01*
X94970104Y-121654792D01*
X94970106Y-121654788D01*
X94970109Y-121654786D01*
X95095048Y-121482820D01*
X95095047Y-121482820D01*
X95095051Y-121482816D01*
X95191557Y-121293412D01*
X95257246Y-121091243D01*
X95290500Y-120881287D01*
X95290500Y-120418713D01*
X95257246Y-120208757D01*
X95191557Y-120006588D01*
X95190000Y-120003532D01*
X95151597Y-119928160D01*
X95151596Y-119928159D01*
X95120906Y-119867927D01*
X95095051Y-119817184D01*
X95062443Y-119772302D01*
X94970109Y-119645213D01*
X94819786Y-119494890D01*
X94647820Y-119369951D01*
X94458414Y-119273444D01*
X94458413Y-119273443D01*
X94458412Y-119273443D01*
X94256243Y-119207754D01*
X94256241Y-119207753D01*
X94256240Y-119207753D01*
X94094957Y-119182208D01*
X94046287Y-119174500D01*
X93833713Y-119174500D01*
X93785042Y-119182208D01*
X93623760Y-119207753D01*
X93421585Y-119273444D01*
X93232179Y-119369951D01*
X93060213Y-119494890D01*
X92909894Y-119645209D01*
X92909890Y-119645214D01*
X92790318Y-119809793D01*
X92734989Y-119852459D01*
X92665375Y-119858438D01*
X92603580Y-119825833D01*
X92589682Y-119809793D01*
X92470109Y-119645214D01*
X92470105Y-119645209D01*
X92319786Y-119494890D01*
X92147815Y-119369948D01*
X92147814Y-119369947D01*
X92108205Y-119349765D01*
X92057409Y-119301791D01*
X92040500Y-119239281D01*
X92040500Y-118834059D01*
X92040501Y-118834046D01*
X92040501Y-118665945D01*
X92040501Y-118665943D01*
X91999577Y-118513215D01*
X91970639Y-118463095D01*
X91920520Y-118376284D01*
X91808716Y-118264480D01*
X91808715Y-118264479D01*
X91804385Y-118260149D01*
X91804374Y-118260139D01*
X90022590Y-116478355D01*
X90015521Y-116471286D01*
X90015520Y-116471284D01*
X89926414Y-116382178D01*
X89904758Y-116342515D01*
X89892932Y-116320858D01*
X89897916Y-116251166D01*
X89906886Y-116239184D01*
X89939788Y-116195232D01*
X89987468Y-116177448D01*
X90005252Y-116170816D01*
X90014098Y-116170500D01*
X101339903Y-116170500D01*
X101406942Y-116190185D01*
X101427584Y-116206819D01*
X104433681Y-119212916D01*
X104467166Y-119274239D01*
X104470000Y-119300597D01*
X104470000Y-120245854D01*
X104403343Y-120207370D01*
X104282535Y-120175000D01*
X104157465Y-120175000D01*
X104036657Y-120207370D01*
X103970000Y-120245854D01*
X103970000Y-119175000D01*
X103570028Y-119175000D01*
X103570012Y-119175001D01*
X103467302Y-119185494D01*
X103300880Y-119240641D01*
X103300875Y-119240643D01*
X103151654Y-119332684D01*
X103027684Y-119456654D01*
X102935643Y-119605875D01*
X102935641Y-119605880D01*
X102880494Y-119772302D01*
X102880493Y-119772309D01*
X102870000Y-119875013D01*
X102870000Y-120400000D01*
X103815854Y-120400000D01*
X103777370Y-120466657D01*
X103745000Y-120587465D01*
X103745000Y-120712535D01*
X103777370Y-120833343D01*
X103815854Y-120900000D01*
X102870001Y-120900000D01*
X102870001Y-121424986D01*
X102880494Y-121527697D01*
X102935641Y-121694119D01*
X102935643Y-121694124D01*
X103027684Y-121843345D01*
X103151654Y-121967315D01*
X103300875Y-122059356D01*
X103300880Y-122059358D01*
X103467302Y-122114505D01*
X103467309Y-122114506D01*
X103570019Y-122124999D01*
X103969999Y-122124999D01*
X103970000Y-122124998D01*
X103970000Y-121054145D01*
X104036657Y-121092630D01*
X104157465Y-121125000D01*
X104282535Y-121125000D01*
X104403343Y-121092630D01*
X104470000Y-121054145D01*
X104470000Y-122124999D01*
X104869972Y-122124999D01*
X104869986Y-122124998D01*
X104972697Y-122114505D01*
X105139119Y-122059358D01*
X105139124Y-122059356D01*
X105288345Y-121967315D01*
X105412317Y-121843343D01*
X105507815Y-121688516D01*
X105559763Y-121641791D01*
X105628725Y-121630568D01*
X105692808Y-121658412D01*
X105701035Y-121665931D01*
X105840213Y-121805109D01*
X106012179Y-121930048D01*
X106012181Y-121930049D01*
X106012184Y-121930051D01*
X106201588Y-122026557D01*
X106403757Y-122092246D01*
X106613713Y-122125500D01*
X106613714Y-122125500D01*
X106826286Y-122125500D01*
X106826287Y-122125500D01*
X107036243Y-122092246D01*
X107238412Y-122026557D01*
X107427816Y-121930051D01*
X107495112Y-121881158D01*
X107599786Y-121805109D01*
X107599788Y-121805106D01*
X107599792Y-121805104D01*
X107750104Y-121654792D01*
X107869683Y-121490204D01*
X107925011Y-121447540D01*
X107994624Y-121441561D01*
X108056420Y-121474166D01*
X108070313Y-121490199D01*
X108172296Y-121630568D01*
X108189896Y-121654792D01*
X108340213Y-121805109D01*
X108512179Y-121930048D01*
X108512181Y-121930049D01*
X108512184Y-121930051D01*
X108701588Y-122026557D01*
X108903757Y-122092246D01*
X109113713Y-122125500D01*
X109113714Y-122125500D01*
X109326286Y-122125500D01*
X109326287Y-122125500D01*
X109536243Y-122092246D01*
X109738412Y-122026557D01*
X109927816Y-121930051D01*
X109995112Y-121881158D01*
X110099786Y-121805109D01*
X110099788Y-121805106D01*
X110099792Y-121805104D01*
X110250104Y-121654792D01*
X110250106Y-121654788D01*
X110250109Y-121654786D01*
X110375048Y-121482820D01*
X110375047Y-121482820D01*
X110375051Y-121482816D01*
X110471557Y-121293412D01*
X110537246Y-121091243D01*
X110570500Y-120881287D01*
X110570500Y-120418713D01*
X110537246Y-120208757D01*
X110471557Y-120006588D01*
X110375051Y-119817184D01*
X110375049Y-119817181D01*
X110375048Y-119817179D01*
X110250109Y-119645213D01*
X110099786Y-119494890D01*
X109927820Y-119369951D01*
X109738414Y-119273444D01*
X109738413Y-119273443D01*
X109738412Y-119273443D01*
X109536243Y-119207754D01*
X109536241Y-119207753D01*
X109536240Y-119207753D01*
X109374957Y-119182208D01*
X109326287Y-119174500D01*
X109113713Y-119174500D01*
X109065042Y-119182208D01*
X108903760Y-119207753D01*
X108701585Y-119273444D01*
X108512179Y-119369951D01*
X108340213Y-119494890D01*
X108189894Y-119645209D01*
X108189890Y-119645214D01*
X108070318Y-119809793D01*
X108014989Y-119852459D01*
X107945375Y-119858438D01*
X107883580Y-119825833D01*
X107869682Y-119809793D01*
X107750109Y-119645214D01*
X107750105Y-119645209D01*
X107599786Y-119494890D01*
X107427820Y-119369951D01*
X107238414Y-119273444D01*
X107238413Y-119273443D01*
X107238412Y-119273443D01*
X107036243Y-119207754D01*
X107036241Y-119207753D01*
X107036240Y-119207753D01*
X106874957Y-119182208D01*
X106826287Y-119174500D01*
X106613713Y-119174500D01*
X106565042Y-119182208D01*
X106403760Y-119207753D01*
X106403757Y-119207754D01*
X106267129Y-119252147D01*
X106197290Y-119254142D01*
X106141132Y-119221897D01*
X102127590Y-115208355D01*
X102127588Y-115208352D01*
X102008717Y-115089481D01*
X102008716Y-115089480D01*
X101921904Y-115039360D01*
X101921904Y-115039359D01*
X101921900Y-115039358D01*
X101871785Y-115010423D01*
X101719057Y-114969499D01*
X101560943Y-114969499D01*
X101553347Y-114969499D01*
X101553331Y-114969500D01*
X80310098Y-114969500D01*
X80243059Y-114949815D01*
X80222417Y-114933181D01*
X79146087Y-113856851D01*
X79112602Y-113795528D01*
X79117586Y-113725836D01*
X79134502Y-113694859D01*
X79188793Y-113622335D01*
X79188792Y-113622335D01*
X79188796Y-113622331D01*
X79239091Y-113487483D01*
X79245500Y-113427873D01*
X79245499Y-112085449D01*
X79245499Y-110792155D01*
X79515000Y-110792155D01*
X79515000Y-111860000D01*
X80334314Y-111860000D01*
X80329920Y-111864394D01*
X80277259Y-111955606D01*
X80250000Y-112057339D01*
X80250000Y-112162661D01*
X80277259Y-112264394D01*
X80329920Y-112355606D01*
X80334314Y-112360000D01*
X79515000Y-112360000D01*
X79515000Y-113427844D01*
X79521401Y-113487372D01*
X79521403Y-113487379D01*
X79571645Y-113622086D01*
X79571649Y-113622093D01*
X79657809Y-113737187D01*
X79657812Y-113737190D01*
X79772906Y-113823350D01*
X79772913Y-113823354D01*
X79907620Y-113873596D01*
X79907627Y-113873598D01*
X79967155Y-113879999D01*
X79967172Y-113880000D01*
X80400000Y-113880000D01*
X80400000Y-112425686D01*
X80404394Y-112430080D01*
X80495606Y-112482741D01*
X80597339Y-112510000D01*
X80702661Y-112510000D01*
X80804394Y-112482741D01*
X80895606Y-112430080D01*
X80900000Y-112425686D01*
X80900000Y-113880000D01*
X81332828Y-113880000D01*
X81332844Y-113879999D01*
X81392372Y-113873598D01*
X81392379Y-113873596D01*
X81527086Y-113823354D01*
X81527093Y-113823350D01*
X81642187Y-113737190D01*
X81642190Y-113737187D01*
X81728350Y-113622093D01*
X81728354Y-113622086D01*
X81778596Y-113487379D01*
X81778598Y-113487372D01*
X81784999Y-113427844D01*
X81785000Y-113427827D01*
X81785000Y-112360000D01*
X80965686Y-112360000D01*
X80970080Y-112355606D01*
X81022741Y-112264394D01*
X81050000Y-112162661D01*
X81050000Y-112057339D01*
X81022741Y-111955606D01*
X80970080Y-111864394D01*
X80965686Y-111860000D01*
X81785000Y-111860000D01*
X81785000Y-110792172D01*
X81784999Y-110792155D01*
X81778598Y-110732627D01*
X81778596Y-110732620D01*
X81728354Y-110597913D01*
X81728350Y-110597906D01*
X81642190Y-110482812D01*
X81642187Y-110482809D01*
X81527093Y-110396649D01*
X81527086Y-110396645D01*
X81392379Y-110346403D01*
X81392372Y-110346401D01*
X81332844Y-110340000D01*
X80900000Y-110340000D01*
X80900000Y-111794314D01*
X80895606Y-111789920D01*
X80804394Y-111737259D01*
X80702661Y-111710000D01*
X80597339Y-111710000D01*
X80495606Y-111737259D01*
X80404394Y-111789920D01*
X80400000Y-111794314D01*
X80400000Y-110340000D01*
X79967155Y-110340000D01*
X79907627Y-110346401D01*
X79907620Y-110346403D01*
X79772913Y-110396645D01*
X79772906Y-110396649D01*
X79657812Y-110482809D01*
X79657809Y-110482812D01*
X79571649Y-110597906D01*
X79571645Y-110597913D01*
X79521403Y-110732620D01*
X79521401Y-110732627D01*
X79515000Y-110792155D01*
X79245499Y-110792155D01*
X79245499Y-110792129D01*
X79245498Y-110792123D01*
X79245497Y-110792116D01*
X79239091Y-110732517D01*
X79188884Y-110597906D01*
X79188797Y-110597671D01*
X79188793Y-110597664D01*
X79102547Y-110482455D01*
X79102544Y-110482452D01*
X78987335Y-110396206D01*
X78987328Y-110396202D01*
X78852482Y-110345908D01*
X78852483Y-110345908D01*
X78792883Y-110339501D01*
X78792881Y-110339500D01*
X78792873Y-110339500D01*
X78792864Y-110339500D01*
X77427129Y-110339500D01*
X77427123Y-110339501D01*
X77367516Y-110345908D01*
X77232671Y-110396202D01*
X77232664Y-110396206D01*
X77117455Y-110482452D01*
X77117452Y-110482455D01*
X77031206Y-110597664D01*
X77031202Y-110597671D01*
X76980908Y-110732517D01*
X76974501Y-110792116D01*
X76974501Y-110792123D01*
X76974500Y-110792135D01*
X76974500Y-113427870D01*
X76974501Y-113427876D01*
X76980908Y-113487483D01*
X77031202Y-113622328D01*
X77031206Y-113622335D01*
X77117452Y-113737544D01*
X77117455Y-113737547D01*
X77232664Y-113823793D01*
X77232671Y-113823797D01*
X77367516Y-113874091D01*
X77393419Y-113876875D01*
X77427127Y-113880500D01*
X77466542Y-113880499D01*
X77533580Y-113900182D01*
X77573929Y-113942497D01*
X77579358Y-113951900D01*
X77579359Y-113951904D01*
X77579360Y-113951904D01*
X77629479Y-114038714D01*
X77629481Y-114038717D01*
X77748349Y-114157585D01*
X77748355Y-114157590D01*
X79618583Y-116027819D01*
X79652068Y-116089142D01*
X79647084Y-116158834D01*
X79605212Y-116214767D01*
X79539748Y-116239184D01*
X79530902Y-116239500D01*
X79040097Y-116239500D01*
X78973058Y-116219815D01*
X78952416Y-116203181D01*
X76606086Y-113856851D01*
X76572601Y-113795528D01*
X76577585Y-113725836D01*
X76594497Y-113694864D01*
X76648796Y-113622331D01*
X76699091Y-113487483D01*
X76705500Y-113427873D01*
X76705499Y-110792128D01*
X76699091Y-110732517D01*
X76648884Y-110597906D01*
X76648797Y-110597671D01*
X76648793Y-110597664D01*
X76562547Y-110482455D01*
X76562544Y-110482452D01*
X76447335Y-110396206D01*
X76447328Y-110396202D01*
X76312482Y-110345908D01*
X76312483Y-110345908D01*
X76252883Y-110339501D01*
X76252881Y-110339500D01*
X76252873Y-110339500D01*
X76252864Y-110339500D01*
X74887129Y-110339500D01*
X74887123Y-110339501D01*
X74827516Y-110345908D01*
X74692671Y-110396202D01*
X74692664Y-110396206D01*
X74577455Y-110482452D01*
X74577452Y-110482455D01*
X74491206Y-110597664D01*
X74491202Y-110597671D01*
X74440908Y-110732517D01*
X74434501Y-110792116D01*
X74434501Y-110792123D01*
X74434500Y-110792135D01*
X74165499Y-110792135D01*
X74165499Y-110792128D01*
X74159091Y-110732517D01*
X74108884Y-110597906D01*
X74108797Y-110597671D01*
X74108793Y-110597664D01*
X74022547Y-110482455D01*
X74022544Y-110482452D01*
X73907335Y-110396206D01*
X73907328Y-110396202D01*
X73772482Y-110345908D01*
X73772483Y-110345908D01*
X73712883Y-110339501D01*
X73712881Y-110339500D01*
X73712873Y-110339500D01*
X73712864Y-110339500D01*
X72347129Y-110339500D01*
X72347123Y-110339501D01*
X72287516Y-110345908D01*
X72152671Y-110396202D01*
X72152664Y-110396206D01*
X72037455Y-110482452D01*
X72037452Y-110482455D01*
X71951206Y-110597664D01*
X71951202Y-110597671D01*
X71900908Y-110732517D01*
X71894501Y-110792116D01*
X71894501Y-110792123D01*
X71894500Y-110792135D01*
X71625499Y-110792135D01*
X71625499Y-110792128D01*
X71619091Y-110732517D01*
X71568884Y-110597906D01*
X71568797Y-110597671D01*
X71568793Y-110597664D01*
X71482547Y-110482455D01*
X71482544Y-110482452D01*
X71367335Y-110396206D01*
X71367328Y-110396202D01*
X71232482Y-110345908D01*
X71232483Y-110345908D01*
X71172883Y-110339501D01*
X71172881Y-110339500D01*
X71172873Y-110339500D01*
X71172864Y-110339500D01*
X69807129Y-110339500D01*
X69807123Y-110339501D01*
X69747516Y-110345908D01*
X69612671Y-110396202D01*
X69612664Y-110396206D01*
X69497455Y-110482452D01*
X69497452Y-110482455D01*
X69411206Y-110597664D01*
X69411202Y-110597671D01*
X69360908Y-110732517D01*
X69354501Y-110792116D01*
X69354501Y-110792123D01*
X69354500Y-110792135D01*
X69084997Y-110792135D01*
X69078598Y-110732627D01*
X69078596Y-110732620D01*
X69028354Y-110597913D01*
X69028350Y-110597906D01*
X68942190Y-110482812D01*
X68942187Y-110482809D01*
X68827093Y-110396649D01*
X68827086Y-110396645D01*
X68692379Y-110346403D01*
X68692372Y-110346401D01*
X68632844Y-110340000D01*
X68200000Y-110340000D01*
X68200000Y-111794314D01*
X68195606Y-111789920D01*
X68104394Y-111737259D01*
X68002661Y-111710000D01*
X67897339Y-111710000D01*
X67795606Y-111737259D01*
X67704394Y-111789920D01*
X67700000Y-111794314D01*
X67700000Y-110340000D01*
X67267155Y-110340000D01*
X67207627Y-110346401D01*
X67207620Y-110346403D01*
X67072913Y-110396645D01*
X67072906Y-110396649D01*
X66957812Y-110482809D01*
X66957809Y-110482812D01*
X66871649Y-110597906D01*
X66871645Y-110597913D01*
X66821403Y-110732620D01*
X66821401Y-110732627D01*
X66815000Y-110792155D01*
X66545499Y-110792155D01*
X66545499Y-110792129D01*
X66545498Y-110792123D01*
X66545497Y-110792116D01*
X66539091Y-110732517D01*
X66488884Y-110597906D01*
X66488797Y-110597671D01*
X66488793Y-110597664D01*
X66402547Y-110482455D01*
X66402544Y-110482452D01*
X66287335Y-110396206D01*
X66287328Y-110396202D01*
X66152482Y-110345908D01*
X66152483Y-110345908D01*
X66092883Y-110339501D01*
X66092881Y-110339500D01*
X66092873Y-110339500D01*
X66092864Y-110339500D01*
X64727129Y-110339500D01*
X64727123Y-110339501D01*
X64667516Y-110345908D01*
X64532671Y-110396202D01*
X64532664Y-110396206D01*
X64417455Y-110482452D01*
X64417452Y-110482455D01*
X64331206Y-110597664D01*
X64331202Y-110597671D01*
X64280908Y-110732517D01*
X64274501Y-110792116D01*
X64274501Y-110792123D01*
X64274500Y-110792135D01*
X64005499Y-110792135D01*
X64005499Y-110792128D01*
X63999091Y-110732517D01*
X63948884Y-110597906D01*
X63948797Y-110597671D01*
X63948793Y-110597664D01*
X63862547Y-110482455D01*
X63862544Y-110482452D01*
X63747335Y-110396206D01*
X63747328Y-110396202D01*
X63612482Y-110345908D01*
X63612483Y-110345908D01*
X63552883Y-110339501D01*
X63552881Y-110339500D01*
X63552873Y-110339500D01*
X63552864Y-110339500D01*
X62187129Y-110339500D01*
X62187123Y-110339501D01*
X62127516Y-110345908D01*
X61992671Y-110396202D01*
X61992668Y-110396204D01*
X61958811Y-110421550D01*
X61893346Y-110445967D01*
X61825074Y-110431115D01*
X61775668Y-110381710D01*
X61760500Y-110322283D01*
X61760500Y-101493713D01*
X63269500Y-101493713D01*
X63269500Y-101706286D01*
X63302753Y-101916239D01*
X63368444Y-102118414D01*
X63464951Y-102307820D01*
X63589890Y-102479786D01*
X63728705Y-102618601D01*
X63762190Y-102679924D01*
X63757206Y-102749616D01*
X63715334Y-102805549D01*
X63706121Y-102811821D01*
X63551342Y-102907289D01*
X63427289Y-103031342D01*
X63335187Y-103180663D01*
X63335186Y-103180666D01*
X63280001Y-103347203D01*
X63280001Y-103347204D01*
X63280000Y-103347204D01*
X63269500Y-103449983D01*
X63269500Y-104750001D01*
X63269501Y-104750018D01*
X63280000Y-104852796D01*
X63280001Y-104852799D01*
X63335185Y-105019331D01*
X63335186Y-105019334D01*
X63427288Y-105168656D01*
X63551344Y-105292712D01*
X63700666Y-105384814D01*
X63867203Y-105439999D01*
X63969991Y-105450500D01*
X65570008Y-105450499D01*
X65672797Y-105439999D01*
X65839334Y-105384814D01*
X65988656Y-105292712D01*
X66112712Y-105168656D01*
X66204814Y-105019334D01*
X66259999Y-104852797D01*
X66264177Y-104811896D01*
X66290573Y-104747207D01*
X66347753Y-104707055D01*
X66387535Y-104700500D01*
X68849903Y-104700500D01*
X68916942Y-104720185D01*
X68937584Y-104736819D01*
X71663181Y-107462416D01*
X71696666Y-107523739D01*
X71699500Y-107550097D01*
X71699500Y-108550001D01*
X71699501Y-108550019D01*
X71710000Y-108652796D01*
X71710001Y-108652799D01*
X71765185Y-108819331D01*
X71765187Y-108819336D01*
X71792575Y-108863739D01*
X71857288Y-108968656D01*
X71981344Y-109092712D01*
X72130666Y-109184814D01*
X72297203Y-109239999D01*
X72399991Y-109250500D01*
X73600008Y-109250499D01*
X73702797Y-109239999D01*
X73869334Y-109184814D01*
X74018656Y-109092712D01*
X74142712Y-108968656D01*
X74234814Y-108819334D01*
X74261955Y-108737427D01*
X74301726Y-108679984D01*
X74366242Y-108653161D01*
X74435018Y-108665476D01*
X74479977Y-108703547D01*
X74548030Y-108797213D01*
X74548034Y-108797219D01*
X74692786Y-108941971D01*
X74847749Y-109054556D01*
X74858390Y-109062287D01*
X74974607Y-109121503D01*
X75040776Y-109155218D01*
X75040778Y-109155218D01*
X75040781Y-109155220D01*
X75131856Y-109184812D01*
X75235465Y-109218477D01*
X75336557Y-109234488D01*
X75437648Y-109250500D01*
X75437649Y-109250500D01*
X75642351Y-109250500D01*
X75642352Y-109250500D01*
X75844534Y-109218477D01*
X76039219Y-109155220D01*
X76221610Y-109062287D01*
X76350482Y-108968657D01*
X76387213Y-108941971D01*
X76387215Y-108941968D01*
X76387219Y-108941966D01*
X76531966Y-108797219D01*
X76531968Y-108797215D01*
X76531971Y-108797213D01*
X76652284Y-108631614D01*
X76652285Y-108631613D01*
X76652287Y-108631610D01*
X76699516Y-108538917D01*
X76747489Y-108488123D01*
X76815310Y-108471328D01*
X76881445Y-108493865D01*
X76920483Y-108538917D01*
X76926386Y-108550501D01*
X76967715Y-108631614D01*
X77088028Y-108797213D01*
X77232786Y-108941971D01*
X77387749Y-109054556D01*
X77398390Y-109062287D01*
X77514607Y-109121503D01*
X77580776Y-109155218D01*
X77580778Y-109155218D01*
X77580781Y-109155220D01*
X77671856Y-109184812D01*
X77775465Y-109218477D01*
X77876557Y-109234488D01*
X77977648Y-109250500D01*
X77977649Y-109250500D01*
X78182351Y-109250500D01*
X78182352Y-109250500D01*
X78384534Y-109218477D01*
X78579219Y-109155220D01*
X78761610Y-109062287D01*
X78890482Y-108968657D01*
X78927213Y-108941971D01*
X78927215Y-108941968D01*
X78927219Y-108941966D01*
X79071966Y-108797219D01*
X79071968Y-108797215D01*
X79071971Y-108797213D01*
X79140021Y-108703548D01*
X79192287Y-108631610D01*
X79285220Y-108449219D01*
X79348477Y-108254534D01*
X79380500Y-108052352D01*
X79380500Y-107847648D01*
X79348477Y-107645466D01*
X79332304Y-107595692D01*
X79291296Y-107469481D01*
X79285220Y-107450781D01*
X79285218Y-107450778D01*
X79285218Y-107450776D01*
X79239515Y-107361080D01*
X79192287Y-107268390D01*
X79184556Y-107257749D01*
X79071971Y-107102786D01*
X78927213Y-106958028D01*
X78761613Y-106837715D01*
X78761612Y-106837714D01*
X78761610Y-106837713D01*
X78704653Y-106808691D01*
X78579223Y-106744781D01*
X78437024Y-106698578D01*
X78384534Y-106681522D01*
X78209995Y-106653878D01*
X78182352Y-106649500D01*
X77977648Y-106649500D01*
X77953329Y-106653351D01*
X77775465Y-106681522D01*
X77580776Y-106744781D01*
X77398386Y-106837715D01*
X77232786Y-106958028D01*
X77088028Y-107102786D01*
X76967715Y-107268386D01*
X76920485Y-107361080D01*
X76872510Y-107411876D01*
X76804689Y-107428671D01*
X76738554Y-107406134D01*
X76699515Y-107361080D01*
X76673080Y-107309199D01*
X76652287Y-107268390D01*
X76644556Y-107257749D01*
X76531971Y-107102786D01*
X76387213Y-106958028D01*
X76221613Y-106837715D01*
X76221612Y-106837714D01*
X76221610Y-106837713D01*
X76164653Y-106808691D01*
X76039223Y-106744781D01*
X75844534Y-106681522D01*
X75669995Y-106653878D01*
X75642352Y-106649500D01*
X75437648Y-106649500D01*
X75399599Y-106655526D01*
X75235468Y-106681522D01*
X75226717Y-106684365D01*
X75221154Y-106686173D01*
X75151313Y-106688167D01*
X75095157Y-106655922D01*
X69677590Y-101238355D01*
X69677588Y-101238352D01*
X69558717Y-101119481D01*
X69558716Y-101119480D01*
X69471904Y-101069360D01*
X69471904Y-101069359D01*
X69471900Y-101069358D01*
X69421785Y-101040423D01*
X69269057Y-100999499D01*
X69110943Y-100999499D01*
X69103347Y-100999499D01*
X69103331Y-100999500D01*
X66205719Y-100999500D01*
X66138680Y-100979815D01*
X66095235Y-100931795D01*
X66075052Y-100892185D01*
X66075051Y-100892184D01*
X65950109Y-100720213D01*
X65799786Y-100569890D01*
X65627820Y-100444951D01*
X65438414Y-100348444D01*
X65438413Y-100348443D01*
X65438412Y-100348443D01*
X65236243Y-100282754D01*
X65236241Y-100282753D01*
X65236240Y-100282753D01*
X65074957Y-100257208D01*
X65026287Y-100249500D01*
X64513713Y-100249500D01*
X64465042Y-100257208D01*
X64303760Y-100282753D01*
X64101585Y-100348444D01*
X63912179Y-100444951D01*
X63740213Y-100569890D01*
X63589890Y-100720213D01*
X63464951Y-100892179D01*
X63368444Y-101081585D01*
X63302753Y-101283760D01*
X63269500Y-101493713D01*
X61760500Y-101493713D01*
X61760500Y-100227648D01*
X71699500Y-100227648D01*
X71699500Y-100432351D01*
X71731522Y-100634534D01*
X71794781Y-100829223D01*
X71847045Y-100931795D01*
X71887585Y-101011359D01*
X71887715Y-101011613D01*
X72008028Y-101177213D01*
X72152786Y-101321971D01*
X72273226Y-101409474D01*
X72318390Y-101442287D01*
X72419319Y-101493713D01*
X72500776Y-101535218D01*
X72500778Y-101535218D01*
X72500781Y-101535220D01*
X72605137Y-101569127D01*
X72695465Y-101598477D01*
X72796557Y-101614488D01*
X72897648Y-101630500D01*
X72897649Y-101630500D01*
X73102351Y-101630500D01*
X73102352Y-101630500D01*
X73304534Y-101598477D01*
X73499219Y-101535220D01*
X73681610Y-101442287D01*
X73774590Y-101374732D01*
X73847213Y-101321971D01*
X73847215Y-101321968D01*
X73847219Y-101321966D01*
X73991966Y-101177219D01*
X73991968Y-101177215D01*
X73991971Y-101177213D01*
X74112284Y-101011614D01*
X74112286Y-101011611D01*
X74112287Y-101011610D01*
X74159516Y-100918917D01*
X74207489Y-100868123D01*
X74275310Y-100851328D01*
X74341445Y-100873865D01*
X74380483Y-100918917D01*
X74411513Y-100979815D01*
X74427715Y-101011614D01*
X74548028Y-101177213D01*
X74692786Y-101321971D01*
X74813226Y-101409474D01*
X74858390Y-101442287D01*
X74959319Y-101493713D01*
X75040776Y-101535218D01*
X75040778Y-101535218D01*
X75040781Y-101535220D01*
X75145137Y-101569127D01*
X75235465Y-101598477D01*
X75336557Y-101614488D01*
X75437648Y-101630500D01*
X75437649Y-101630500D01*
X75642351Y-101630500D01*
X75642352Y-101630500D01*
X75844534Y-101598477D01*
X76039219Y-101535220D01*
X76221610Y-101442287D01*
X76314590Y-101374732D01*
X76387213Y-101321971D01*
X76387215Y-101321968D01*
X76387219Y-101321966D01*
X76531966Y-101177219D01*
X76531968Y-101177215D01*
X76531971Y-101177213D01*
X76652286Y-101011611D01*
X76652415Y-101011359D01*
X76699795Y-100918369D01*
X76747769Y-100867573D01*
X76815590Y-100850778D01*
X76881725Y-100873315D01*
X76920765Y-100918369D01*
X76968141Y-101011350D01*
X76968147Y-101011359D01*
X77000523Y-101055921D01*
X77000524Y-101055922D01*
X77680000Y-100376446D01*
X77680000Y-100382661D01*
X77707259Y-100484394D01*
X77759920Y-100575606D01*
X77834394Y-100650080D01*
X77925606Y-100702741D01*
X78027339Y-100730000D01*
X78033553Y-100730000D01*
X77354076Y-101409474D01*
X77398650Y-101441859D01*
X77580968Y-101534755D01*
X77775582Y-101597990D01*
X77977683Y-101630000D01*
X78182317Y-101630000D01*
X78384417Y-101597990D01*
X78579031Y-101534755D01*
X78761349Y-101441859D01*
X78805921Y-101409474D01*
X78126447Y-100730000D01*
X78132661Y-100730000D01*
X78234394Y-100702741D01*
X78325606Y-100650080D01*
X78400080Y-100575606D01*
X78452741Y-100484394D01*
X78480000Y-100382661D01*
X78480000Y-100376448D01*
X79159474Y-101055922D01*
X79159474Y-101055921D01*
X79191859Y-101011349D01*
X79284755Y-100829031D01*
X79347990Y-100634417D01*
X79380000Y-100432317D01*
X79380000Y-100227682D01*
X79347990Y-100025582D01*
X79284755Y-99830968D01*
X79191859Y-99648650D01*
X79159474Y-99604077D01*
X79159474Y-99604076D01*
X78480000Y-100283551D01*
X78480000Y-100277339D01*
X78452741Y-100175606D01*
X78400080Y-100084394D01*
X78325606Y-100009920D01*
X78234394Y-99957259D01*
X78132661Y-99930000D01*
X78126446Y-99930000D01*
X78805922Y-99250524D01*
X78805921Y-99250523D01*
X78761359Y-99218147D01*
X78761350Y-99218141D01*
X78579031Y-99125244D01*
X78384417Y-99062009D01*
X78182317Y-99030000D01*
X77977683Y-99030000D01*
X77775582Y-99062009D01*
X77580968Y-99125244D01*
X77398644Y-99218143D01*
X77354077Y-99250523D01*
X77354077Y-99250524D01*
X78033554Y-99930000D01*
X78027339Y-99930000D01*
X77925606Y-99957259D01*
X77834394Y-100009920D01*
X77759920Y-100084394D01*
X77707259Y-100175606D01*
X77680000Y-100277339D01*
X77680000Y-100283553D01*
X77000524Y-99604077D01*
X77000523Y-99604077D01*
X76968143Y-99648644D01*
X76920765Y-99741630D01*
X76872790Y-99792426D01*
X76804969Y-99809221D01*
X76738834Y-99786683D01*
X76699795Y-99741630D01*
X76652284Y-99648385D01*
X76531971Y-99482786D01*
X76387213Y-99338028D01*
X76221613Y-99217715D01*
X76221612Y-99217714D01*
X76221610Y-99217713D01*
X76148256Y-99180337D01*
X76039223Y-99124781D01*
X75844534Y-99061522D01*
X75669995Y-99033878D01*
X75642352Y-99029500D01*
X75437648Y-99029500D01*
X75413329Y-99033351D01*
X75235465Y-99061522D01*
X75040776Y-99124781D01*
X74858386Y-99217715D01*
X74692786Y-99338028D01*
X74548028Y-99482786D01*
X74427715Y-99648386D01*
X74380485Y-99741080D01*
X74332510Y-99791876D01*
X74264689Y-99808671D01*
X74198554Y-99786134D01*
X74159515Y-99741080D01*
X74112419Y-99648650D01*
X74112287Y-99648390D01*
X74080092Y-99604077D01*
X73991971Y-99482786D01*
X73847213Y-99338028D01*
X73681613Y-99217715D01*
X73681612Y-99217714D01*
X73681610Y-99217713D01*
X73608256Y-99180337D01*
X73499223Y-99124781D01*
X73304534Y-99061522D01*
X73129995Y-99033878D01*
X73102352Y-99029500D01*
X72897648Y-99029500D01*
X72873329Y-99033351D01*
X72695465Y-99061522D01*
X72500776Y-99124781D01*
X72318386Y-99217715D01*
X72152786Y-99338028D01*
X72008028Y-99482786D01*
X71887715Y-99648386D01*
X71794781Y-99830776D01*
X71731522Y-100025465D01*
X71699500Y-100227648D01*
X61760500Y-100227648D01*
X61760500Y-99442940D01*
X61780185Y-99375901D01*
X61796819Y-99355259D01*
X64315259Y-96836819D01*
X64376582Y-96803334D01*
X64402940Y-96800500D01*
X67631375Y-96800500D01*
X67698414Y-96820185D01*
X67719056Y-96836819D01*
X67797927Y-96915690D01*
X67950801Y-97026760D01*
X68030347Y-97067290D01*
X68119163Y-97112545D01*
X68119165Y-97112545D01*
X68119168Y-97112547D01*
X68214529Y-97143532D01*
X68298881Y-97170940D01*
X68485514Y-97200500D01*
X68485519Y-97200500D01*
X68674486Y-97200500D01*
X68861118Y-97170940D01*
X68862623Y-97170451D01*
X69040832Y-97112547D01*
X69209199Y-97026760D01*
X69362073Y-96915690D01*
X69495690Y-96782073D01*
X69606760Y-96629199D01*
X69692547Y-96460832D01*
X69732069Y-96339195D01*
X69771507Y-96281521D01*
X69835866Y-96254323D01*
X69904712Y-96266238D01*
X69956188Y-96313482D01*
X69967930Y-96339194D01*
X69971441Y-96350000D01*
X70007454Y-96460836D01*
X70093104Y-96628933D01*
X70093240Y-96629199D01*
X70204310Y-96782073D01*
X70337927Y-96915690D01*
X70490801Y-97026760D01*
X70570347Y-97067290D01*
X70659163Y-97112545D01*
X70659165Y-97112545D01*
X70659168Y-97112547D01*
X70754529Y-97143532D01*
X70838881Y-97170940D01*
X71025514Y-97200500D01*
X71025519Y-97200500D01*
X71214486Y-97200500D01*
X71401118Y-97170940D01*
X71402623Y-97170451D01*
X71580832Y-97112547D01*
X71749199Y-97026760D01*
X71902073Y-96915690D01*
X72035690Y-96782073D01*
X72146760Y-96629199D01*
X72232547Y-96460832D01*
X72272069Y-96339195D01*
X72311507Y-96281521D01*
X72375866Y-96254323D01*
X72444712Y-96266238D01*
X72496188Y-96313482D01*
X72507930Y-96339194D01*
X72511441Y-96350000D01*
X72547454Y-96460836D01*
X72633104Y-96628933D01*
X72633240Y-96629199D01*
X72744310Y-96782073D01*
X72877927Y-96915690D01*
X73030801Y-97026760D01*
X73110347Y-97067290D01*
X73199163Y-97112545D01*
X73199165Y-97112545D01*
X73199168Y-97112547D01*
X73294529Y-97143532D01*
X73378881Y-97170940D01*
X73565514Y-97200500D01*
X73565519Y-97200500D01*
X73754486Y-97200500D01*
X73941118Y-97170940D01*
X73942623Y-97170451D01*
X74120832Y-97112547D01*
X74289199Y-97026760D01*
X74315182Y-97007882D01*
X75545669Y-97007882D01*
X75545670Y-97007883D01*
X75571059Y-97026329D01*
X75739362Y-97112085D01*
X75918997Y-97170451D01*
X76105553Y-97200000D01*
X76294447Y-97200000D01*
X76481002Y-97170451D01*
X76660637Y-97112085D01*
X76828937Y-97026331D01*
X76844515Y-97015013D01*
X81240000Y-97015013D01*
X81240000Y-97540000D01*
X82185854Y-97540000D01*
X82147370Y-97606657D01*
X82115000Y-97727465D01*
X82115000Y-97852535D01*
X82147370Y-97973343D01*
X82185854Y-98040000D01*
X81240001Y-98040000D01*
X81240001Y-98564986D01*
X81250494Y-98667697D01*
X81305641Y-98834119D01*
X81305643Y-98834124D01*
X81397684Y-98983345D01*
X81521654Y-99107315D01*
X81670875Y-99199356D01*
X81670880Y-99199358D01*
X81837302Y-99254505D01*
X81837309Y-99254506D01*
X81940019Y-99264999D01*
X82339999Y-99264999D01*
X82340000Y-99264998D01*
X82340000Y-98194145D01*
X82406657Y-98232630D01*
X82527465Y-98265000D01*
X82652535Y-98265000D01*
X82773343Y-98232630D01*
X82840000Y-98194145D01*
X82840000Y-99264999D01*
X83239972Y-99264999D01*
X83239986Y-99264998D01*
X83342697Y-99254505D01*
X83509119Y-99199358D01*
X83509124Y-99199356D01*
X83658345Y-99107315D01*
X83782317Y-98983343D01*
X83877815Y-98828516D01*
X83929763Y-98781791D01*
X83998725Y-98770568D01*
X84062808Y-98798412D01*
X84071035Y-98805931D01*
X84210213Y-98945109D01*
X84382184Y-99070051D01*
X84382184Y-99070052D01*
X84421793Y-99090233D01*
X84472590Y-99138206D01*
X84489500Y-99200718D01*
X84489500Y-103839902D01*
X84469815Y-103906941D01*
X84453181Y-103927583D01*
X82910830Y-105469933D01*
X82849507Y-105503418D01*
X82803751Y-105504725D01*
X82644486Y-105479500D01*
X82644481Y-105479500D01*
X82455519Y-105479500D01*
X82455514Y-105479500D01*
X82268881Y-105509059D01*
X82089163Y-105567454D01*
X81920800Y-105653240D01*
X81833579Y-105716610D01*
X81767927Y-105764310D01*
X81767925Y-105764312D01*
X81767924Y-105764312D01*
X81634312Y-105897924D01*
X81634312Y-105897925D01*
X81634310Y-105897927D01*
X81615717Y-105923518D01*
X81523240Y-106050800D01*
X81437454Y-106219163D01*
X81379059Y-106398881D01*
X81349500Y-106585513D01*
X81349500Y-106774486D01*
X81379059Y-106961118D01*
X81437454Y-107140836D01*
X81502445Y-107268386D01*
X81523240Y-107309199D01*
X81634310Y-107462073D01*
X81767927Y-107595690D01*
X81898386Y-107690474D01*
X81941051Y-107745803D01*
X81949500Y-107790791D01*
X81949500Y-107863330D01*
X81949499Y-107863348D01*
X81949499Y-108029054D01*
X81949498Y-108029054D01*
X81990423Y-108181787D01*
X81990425Y-108181790D01*
X82013227Y-108221283D01*
X82013228Y-108221285D01*
X82069475Y-108318709D01*
X82069481Y-108318717D01*
X82188349Y-108437585D01*
X82188355Y-108437590D01*
X82553181Y-108802416D01*
X82586666Y-108863739D01*
X82589500Y-108890097D01*
X82589500Y-110219261D01*
X82569815Y-110286300D01*
X82517011Y-110332055D01*
X82478754Y-110342551D01*
X82447516Y-110345909D01*
X82312671Y-110396202D01*
X82312664Y-110396206D01*
X82197455Y-110482452D01*
X82197452Y-110482455D01*
X82111206Y-110597664D01*
X82111202Y-110597671D01*
X82060908Y-110732517D01*
X82054501Y-110792116D01*
X82054501Y-110792123D01*
X82054500Y-110792135D01*
X82054500Y-113427870D01*
X82054501Y-113427876D01*
X82060908Y-113487483D01*
X82111202Y-113622328D01*
X82111206Y-113622335D01*
X82197452Y-113737544D01*
X82197455Y-113737547D01*
X82312664Y-113823793D01*
X82312671Y-113823797D01*
X82447517Y-113874091D01*
X82447516Y-113874091D01*
X82454444Y-113874835D01*
X82507127Y-113880500D01*
X83872872Y-113880499D01*
X83932483Y-113874091D01*
X84067331Y-113823796D01*
X84182546Y-113737546D01*
X84268796Y-113622331D01*
X84319091Y-113487483D01*
X84325500Y-113427873D01*
X84325499Y-110792135D01*
X84594500Y-110792135D01*
X84594500Y-113427870D01*
X84594501Y-113427876D01*
X84600908Y-113487483D01*
X84651202Y-113622328D01*
X84651206Y-113622335D01*
X84737452Y-113737544D01*
X84737455Y-113737547D01*
X84852664Y-113823793D01*
X84852671Y-113823797D01*
X84987517Y-113874091D01*
X84987516Y-113874091D01*
X84994444Y-113874835D01*
X85047127Y-113880500D01*
X86412872Y-113880499D01*
X86472483Y-113874091D01*
X86607331Y-113823796D01*
X86722546Y-113737546D01*
X86808796Y-113622331D01*
X86859091Y-113487483D01*
X86865500Y-113427873D01*
X86865499Y-111240095D01*
X86885184Y-111173057D01*
X86901813Y-111152420D01*
X86922821Y-111131412D01*
X86984142Y-111097929D01*
X87053834Y-111102913D01*
X87109767Y-111144785D01*
X87134184Y-111210249D01*
X87134500Y-111219095D01*
X87134500Y-113427870D01*
X87134501Y-113427876D01*
X87140908Y-113487483D01*
X87191202Y-113622328D01*
X87191206Y-113622335D01*
X87277452Y-113737544D01*
X87277455Y-113737547D01*
X87392664Y-113823793D01*
X87392671Y-113823797D01*
X87527517Y-113874091D01*
X87527516Y-113874091D01*
X87534444Y-113874835D01*
X87587127Y-113880500D01*
X88952872Y-113880499D01*
X89012483Y-113874091D01*
X89147331Y-113823796D01*
X89262546Y-113737546D01*
X89348796Y-113622331D01*
X89399091Y-113487483D01*
X89405500Y-113427873D01*
X89405499Y-112118673D01*
X89422111Y-112056676D01*
X89443114Y-112020297D01*
X89493681Y-111972084D01*
X89562288Y-111958862D01*
X89627153Y-111984830D01*
X89667680Y-112041745D01*
X89674500Y-112082300D01*
X89674500Y-113427870D01*
X89674501Y-113427876D01*
X89680908Y-113487483D01*
X89731202Y-113622328D01*
X89731206Y-113622335D01*
X89817452Y-113737544D01*
X89817455Y-113737547D01*
X89932664Y-113823793D01*
X89932671Y-113823797D01*
X90067517Y-113874091D01*
X90067516Y-113874091D01*
X90074444Y-113874835D01*
X90127127Y-113880500D01*
X91492872Y-113880499D01*
X91552483Y-113874091D01*
X91687331Y-113823796D01*
X91802546Y-113737546D01*
X91888796Y-113622331D01*
X91939091Y-113487483D01*
X91945500Y-113427873D01*
X91945499Y-112085449D01*
X91945499Y-110792155D01*
X92215000Y-110792155D01*
X92215000Y-111860000D01*
X93034314Y-111860000D01*
X93029920Y-111864394D01*
X92977259Y-111955606D01*
X92950000Y-112057339D01*
X92950000Y-112162661D01*
X92977259Y-112264394D01*
X93029920Y-112355606D01*
X93034314Y-112360000D01*
X92215000Y-112360000D01*
X92215000Y-113427844D01*
X92221401Y-113487372D01*
X92221403Y-113487379D01*
X92271645Y-113622086D01*
X92271649Y-113622093D01*
X92357809Y-113737187D01*
X92357812Y-113737190D01*
X92472906Y-113823350D01*
X92472913Y-113823354D01*
X92607620Y-113873596D01*
X92607627Y-113873598D01*
X92667155Y-113879999D01*
X92667172Y-113880000D01*
X93100000Y-113880000D01*
X93100000Y-112425686D01*
X93104394Y-112430080D01*
X93195606Y-112482741D01*
X93297339Y-112510000D01*
X93402661Y-112510000D01*
X93504394Y-112482741D01*
X93595606Y-112430080D01*
X93600000Y-112425686D01*
X93600000Y-113880000D01*
X94032828Y-113880000D01*
X94032844Y-113879999D01*
X94092372Y-113873598D01*
X94092379Y-113873596D01*
X94227086Y-113823354D01*
X94227093Y-113823350D01*
X94342187Y-113737190D01*
X94342190Y-113737187D01*
X94428350Y-113622093D01*
X94428354Y-113622086D01*
X94478596Y-113487379D01*
X94478598Y-113487372D01*
X94484999Y-113427844D01*
X94485000Y-113427827D01*
X94485000Y-112360000D01*
X93665686Y-112360000D01*
X93670080Y-112355606D01*
X93722741Y-112264394D01*
X93750000Y-112162661D01*
X93750000Y-112057339D01*
X93722741Y-111955606D01*
X93670080Y-111864394D01*
X93665686Y-111860000D01*
X94485000Y-111860000D01*
X94485000Y-110792164D01*
X94484997Y-110792135D01*
X94754500Y-110792135D01*
X94754500Y-113427870D01*
X94754501Y-113427876D01*
X94760908Y-113487483D01*
X94811202Y-113622328D01*
X94811206Y-113622335D01*
X94897452Y-113737544D01*
X94897455Y-113737547D01*
X95012664Y-113823793D01*
X95012671Y-113823797D01*
X95147517Y-113874091D01*
X95147516Y-113874091D01*
X95154444Y-113874835D01*
X95207127Y-113880500D01*
X96572872Y-113880499D01*
X96632483Y-113874091D01*
X96767331Y-113823796D01*
X96882546Y-113737546D01*
X96968796Y-113622331D01*
X97019091Y-113487483D01*
X97025500Y-113427873D01*
X97025499Y-110792135D01*
X97294500Y-110792135D01*
X97294500Y-113427870D01*
X97294501Y-113427876D01*
X97300908Y-113487483D01*
X97351202Y-113622328D01*
X97351206Y-113622335D01*
X97437452Y-113737544D01*
X97437455Y-113737547D01*
X97552664Y-113823793D01*
X97552671Y-113823797D01*
X97687517Y-113874091D01*
X97687516Y-113874091D01*
X97694444Y-113874835D01*
X97747127Y-113880500D01*
X99112872Y-113880499D01*
X99172483Y-113874091D01*
X99307331Y-113823796D01*
X99422546Y-113737546D01*
X99508796Y-113622331D01*
X99559091Y-113487483D01*
X99565500Y-113427873D01*
X99565499Y-110792135D01*
X99834500Y-110792135D01*
X99834500Y-113427870D01*
X99834501Y-113427876D01*
X99840908Y-113487483D01*
X99891202Y-113622328D01*
X99891206Y-113622335D01*
X99977452Y-113737544D01*
X99977455Y-113737547D01*
X100092664Y-113823793D01*
X100092671Y-113823797D01*
X100227517Y-113874091D01*
X100227516Y-113874091D01*
X100234444Y-113874835D01*
X100287127Y-113880500D01*
X101652872Y-113880499D01*
X101712483Y-113874091D01*
X101847331Y-113823796D01*
X101962546Y-113737546D01*
X102048796Y-113622331D01*
X102099091Y-113487483D01*
X102105500Y-113427873D01*
X102105499Y-110792135D01*
X102374500Y-110792135D01*
X102374500Y-113427870D01*
X102374501Y-113427876D01*
X102380908Y-113487483D01*
X102431202Y-113622328D01*
X102431206Y-113622335D01*
X102517452Y-113737544D01*
X102517455Y-113737547D01*
X102632664Y-113823793D01*
X102632671Y-113823797D01*
X102767517Y-113874091D01*
X102767516Y-113874091D01*
X102774444Y-113874835D01*
X102827127Y-113880500D01*
X104192872Y-113880499D01*
X104252483Y-113874091D01*
X104387331Y-113823796D01*
X104502546Y-113737546D01*
X104588796Y-113622331D01*
X104639091Y-113487483D01*
X104645500Y-113427873D01*
X104645499Y-112085449D01*
X104645499Y-110792155D01*
X104915000Y-110792155D01*
X104915000Y-111860000D01*
X105734314Y-111860000D01*
X105729920Y-111864394D01*
X105677259Y-111955606D01*
X105650000Y-112057339D01*
X105650000Y-112162661D01*
X105677259Y-112264394D01*
X105729920Y-112355606D01*
X105734314Y-112360000D01*
X104915000Y-112360000D01*
X104915000Y-113427844D01*
X104921401Y-113487372D01*
X104921403Y-113487379D01*
X104971645Y-113622086D01*
X104971649Y-113622093D01*
X105057809Y-113737187D01*
X105057812Y-113737190D01*
X105172906Y-113823350D01*
X105172913Y-113823354D01*
X105307620Y-113873596D01*
X105307627Y-113873598D01*
X105367155Y-113879999D01*
X105367172Y-113880000D01*
X105800000Y-113880000D01*
X105800000Y-112425686D01*
X105804394Y-112430080D01*
X105895606Y-112482741D01*
X105997339Y-112510000D01*
X106102661Y-112510000D01*
X106204394Y-112482741D01*
X106295606Y-112430080D01*
X106300000Y-112425686D01*
X106300000Y-113880000D01*
X106732828Y-113880000D01*
X106732844Y-113879999D01*
X106792372Y-113873598D01*
X106792379Y-113873596D01*
X106927086Y-113823354D01*
X106927093Y-113823350D01*
X107042187Y-113737190D01*
X107042190Y-113737187D01*
X107128350Y-113622093D01*
X107128354Y-113622086D01*
X107178596Y-113487379D01*
X107178598Y-113487372D01*
X107184999Y-113427844D01*
X107185000Y-113427827D01*
X107185000Y-112360000D01*
X106365686Y-112360000D01*
X106370080Y-112355606D01*
X106422741Y-112264394D01*
X106450000Y-112162661D01*
X106450000Y-112057339D01*
X106422741Y-111955606D01*
X106370080Y-111864394D01*
X106365686Y-111860000D01*
X107185000Y-111860000D01*
X107185000Y-110792164D01*
X107184997Y-110792135D01*
X107454500Y-110792135D01*
X107454500Y-113427870D01*
X107454501Y-113427876D01*
X107460908Y-113487483D01*
X107511202Y-113622328D01*
X107511206Y-113622335D01*
X107597452Y-113737544D01*
X107597455Y-113737547D01*
X107712664Y-113823793D01*
X107712671Y-113823797D01*
X107847517Y-113874091D01*
X107847516Y-113874091D01*
X107854444Y-113874835D01*
X107907127Y-113880500D01*
X109272872Y-113880499D01*
X109332483Y-113874091D01*
X109467331Y-113823796D01*
X109582546Y-113737546D01*
X109668796Y-113622331D01*
X109719091Y-113487483D01*
X109725500Y-113427873D01*
X109725499Y-110792135D01*
X109994500Y-110792135D01*
X109994500Y-113427870D01*
X109994501Y-113427876D01*
X110000908Y-113487483D01*
X110051202Y-113622328D01*
X110051206Y-113622335D01*
X110137452Y-113737544D01*
X110137455Y-113737547D01*
X110252664Y-113823793D01*
X110252671Y-113823797D01*
X110387517Y-113874091D01*
X110387516Y-113874091D01*
X110394444Y-113874835D01*
X110447127Y-113880500D01*
X111812872Y-113880499D01*
X111872483Y-113874091D01*
X112007331Y-113823796D01*
X112122546Y-113737546D01*
X112208796Y-113622331D01*
X112259091Y-113487483D01*
X112265500Y-113427873D01*
X112265499Y-110792128D01*
X112259091Y-110732517D01*
X112208884Y-110597906D01*
X112208797Y-110597671D01*
X112208793Y-110597664D01*
X112122547Y-110482455D01*
X112122544Y-110482452D01*
X112007335Y-110396206D01*
X112007328Y-110396202D01*
X111872482Y-110345908D01*
X111872483Y-110345908D01*
X111812883Y-110339501D01*
X111812881Y-110339500D01*
X111812873Y-110339500D01*
X111812864Y-110339500D01*
X110447129Y-110339500D01*
X110447123Y-110339501D01*
X110387516Y-110345908D01*
X110252671Y-110396202D01*
X110252664Y-110396206D01*
X110137455Y-110482452D01*
X110137452Y-110482455D01*
X110051206Y-110597664D01*
X110051202Y-110597671D01*
X110000908Y-110732517D01*
X109994501Y-110792116D01*
X109994501Y-110792123D01*
X109994500Y-110792135D01*
X109725499Y-110792135D01*
X109725499Y-110792128D01*
X109719091Y-110732517D01*
X109668884Y-110597906D01*
X109668797Y-110597671D01*
X109668793Y-110597664D01*
X109582547Y-110482455D01*
X109582544Y-110482452D01*
X109467335Y-110396206D01*
X109467328Y-110396202D01*
X109332482Y-110345908D01*
X109332483Y-110345908D01*
X109272883Y-110339501D01*
X109272881Y-110339500D01*
X109272873Y-110339500D01*
X109272864Y-110339500D01*
X107907129Y-110339500D01*
X107907123Y-110339501D01*
X107847516Y-110345908D01*
X107712671Y-110396202D01*
X107712664Y-110396206D01*
X107597455Y-110482452D01*
X107597452Y-110482455D01*
X107511206Y-110597664D01*
X107511202Y-110597671D01*
X107460908Y-110732517D01*
X107454501Y-110792116D01*
X107454501Y-110792123D01*
X107454500Y-110792135D01*
X107184997Y-110792135D01*
X107178598Y-110732627D01*
X107178596Y-110732620D01*
X107128354Y-110597913D01*
X107128350Y-110597906D01*
X107042190Y-110482812D01*
X107042187Y-110482809D01*
X106927093Y-110396649D01*
X106927086Y-110396645D01*
X106792379Y-110346403D01*
X106792372Y-110346401D01*
X106732844Y-110340000D01*
X106300000Y-110340000D01*
X106300000Y-111794314D01*
X106295606Y-111789920D01*
X106204394Y-111737259D01*
X106102661Y-111710000D01*
X105997339Y-111710000D01*
X105895606Y-111737259D01*
X105804394Y-111789920D01*
X105800000Y-111794314D01*
X105800000Y-110340000D01*
X105367155Y-110340000D01*
X105307627Y-110346401D01*
X105307620Y-110346403D01*
X105172913Y-110396645D01*
X105172906Y-110396649D01*
X105057812Y-110482809D01*
X105057809Y-110482812D01*
X104971649Y-110597906D01*
X104971645Y-110597913D01*
X104921403Y-110732620D01*
X104921401Y-110732627D01*
X104915000Y-110792155D01*
X104645499Y-110792155D01*
X104645499Y-110792129D01*
X104645498Y-110792123D01*
X104645497Y-110792116D01*
X104639091Y-110732517D01*
X104588884Y-110597906D01*
X104588797Y-110597671D01*
X104588793Y-110597664D01*
X104502547Y-110482455D01*
X104502544Y-110482452D01*
X104387335Y-110396206D01*
X104387328Y-110396202D01*
X104252482Y-110345908D01*
X104252483Y-110345908D01*
X104192883Y-110339501D01*
X104192881Y-110339500D01*
X104192873Y-110339500D01*
X104192864Y-110339500D01*
X102827129Y-110339500D01*
X102827123Y-110339501D01*
X102767516Y-110345908D01*
X102632671Y-110396202D01*
X102632664Y-110396206D01*
X102517455Y-110482452D01*
X102517452Y-110482455D01*
X102431206Y-110597664D01*
X102431202Y-110597671D01*
X102380908Y-110732517D01*
X102374501Y-110792116D01*
X102374501Y-110792123D01*
X102374500Y-110792135D01*
X102105499Y-110792135D01*
X102105499Y-110792128D01*
X102099091Y-110732517D01*
X102048884Y-110597906D01*
X102048797Y-110597671D01*
X102048793Y-110597664D01*
X101962547Y-110482455D01*
X101962544Y-110482452D01*
X101847335Y-110396206D01*
X101847328Y-110396202D01*
X101712482Y-110345908D01*
X101712483Y-110345908D01*
X101652883Y-110339501D01*
X101652881Y-110339500D01*
X101652873Y-110339500D01*
X101652864Y-110339500D01*
X100287129Y-110339500D01*
X100287123Y-110339501D01*
X100227516Y-110345908D01*
X100092671Y-110396202D01*
X100092664Y-110396206D01*
X99977455Y-110482452D01*
X99977452Y-110482455D01*
X99891206Y-110597664D01*
X99891202Y-110597671D01*
X99840908Y-110732517D01*
X99834501Y-110792116D01*
X99834501Y-110792123D01*
X99834500Y-110792135D01*
X99565499Y-110792135D01*
X99565499Y-110792128D01*
X99559091Y-110732517D01*
X99508884Y-110597906D01*
X99508797Y-110597671D01*
X99508793Y-110597664D01*
X99422547Y-110482455D01*
X99422544Y-110482452D01*
X99307335Y-110396206D01*
X99307328Y-110396202D01*
X99172482Y-110345908D01*
X99172483Y-110345908D01*
X99112883Y-110339501D01*
X99112881Y-110339500D01*
X99112873Y-110339500D01*
X99112864Y-110339500D01*
X97747129Y-110339500D01*
X97747123Y-110339501D01*
X97687516Y-110345908D01*
X97552671Y-110396202D01*
X97552664Y-110396206D01*
X97437455Y-110482452D01*
X97437452Y-110482455D01*
X97351206Y-110597664D01*
X97351202Y-110597671D01*
X97300908Y-110732517D01*
X97294501Y-110792116D01*
X97294501Y-110792123D01*
X97294500Y-110792135D01*
X97025499Y-110792135D01*
X97025499Y-110792128D01*
X97019091Y-110732517D01*
X96968884Y-110597906D01*
X96968797Y-110597671D01*
X96968793Y-110597664D01*
X96882547Y-110482455D01*
X96882544Y-110482452D01*
X96767335Y-110396206D01*
X96767328Y-110396202D01*
X96632482Y-110345908D01*
X96632483Y-110345908D01*
X96572883Y-110339501D01*
X96572881Y-110339500D01*
X96572873Y-110339500D01*
X96572864Y-110339500D01*
X95207129Y-110339500D01*
X95207123Y-110339501D01*
X95147516Y-110345908D01*
X95012671Y-110396202D01*
X95012664Y-110396206D01*
X94897455Y-110482452D01*
X94897452Y-110482455D01*
X94811206Y-110597664D01*
X94811202Y-110597671D01*
X94760908Y-110732517D01*
X94754501Y-110792116D01*
X94754501Y-110792123D01*
X94754500Y-110792135D01*
X94484997Y-110792135D01*
X94478598Y-110732627D01*
X94478596Y-110732620D01*
X94428354Y-110597913D01*
X94428350Y-110597906D01*
X94342190Y-110482812D01*
X94342187Y-110482809D01*
X94227093Y-110396649D01*
X94227086Y-110396645D01*
X94092379Y-110346403D01*
X94092372Y-110346401D01*
X94032844Y-110340000D01*
X93600000Y-110340000D01*
X93600000Y-111794314D01*
X93595606Y-111789920D01*
X93504394Y-111737259D01*
X93402661Y-111710000D01*
X93297339Y-111710000D01*
X93195606Y-111737259D01*
X93104394Y-111789920D01*
X93100000Y-111794314D01*
X93100000Y-110340000D01*
X92667155Y-110340000D01*
X92607627Y-110346401D01*
X92607620Y-110346403D01*
X92472913Y-110396645D01*
X92472906Y-110396649D01*
X92357812Y-110482809D01*
X92357809Y-110482812D01*
X92271649Y-110597906D01*
X92271645Y-110597913D01*
X92221403Y-110732620D01*
X92221401Y-110732627D01*
X92215000Y-110792155D01*
X91945499Y-110792155D01*
X91945499Y-110792129D01*
X91945498Y-110792123D01*
X91945497Y-110792116D01*
X91939091Y-110732517D01*
X91888884Y-110597906D01*
X91888797Y-110597671D01*
X91888793Y-110597664D01*
X91802547Y-110482455D01*
X91802544Y-110482452D01*
X91687335Y-110396206D01*
X91687328Y-110396202D01*
X91552482Y-110345908D01*
X91552483Y-110345908D01*
X91492883Y-110339501D01*
X91492881Y-110339500D01*
X91492873Y-110339500D01*
X91492864Y-110339500D01*
X90127129Y-110339500D01*
X90127123Y-110339501D01*
X90067516Y-110345908D01*
X89932671Y-110396202D01*
X89932664Y-110396206D01*
X89817455Y-110482452D01*
X89817452Y-110482455D01*
X89731206Y-110597664D01*
X89731202Y-110597671D01*
X89680908Y-110732517D01*
X89674501Y-110792116D01*
X89674501Y-110792123D01*
X89674500Y-110792135D01*
X89674500Y-111437698D01*
X89654815Y-111504737D01*
X89602011Y-111550492D01*
X89532853Y-111560436D01*
X89469297Y-111531411D01*
X89443113Y-111499698D01*
X89422112Y-111463323D01*
X89405499Y-111401323D01*
X89405499Y-110792129D01*
X89405498Y-110792123D01*
X89405497Y-110792116D01*
X89399091Y-110732517D01*
X89348884Y-110597906D01*
X89348797Y-110597671D01*
X89348793Y-110597664D01*
X89262547Y-110482455D01*
X89262544Y-110482452D01*
X89147335Y-110396206D01*
X89147328Y-110396202D01*
X89012482Y-110345908D01*
X89012484Y-110345908D01*
X88981244Y-110342550D01*
X88916693Y-110315812D01*
X88876845Y-110258419D01*
X88870500Y-110219261D01*
X88870500Y-110150097D01*
X88890185Y-110083058D01*
X88906819Y-110062416D01*
X89112417Y-109856819D01*
X89173740Y-109823334D01*
X89200098Y-109820500D01*
X104053331Y-109820500D01*
X104053347Y-109820501D01*
X104060943Y-109820501D01*
X104219054Y-109820501D01*
X104219057Y-109820501D01*
X104371785Y-109779577D01*
X104421904Y-109750639D01*
X104508716Y-109700520D01*
X104620520Y-109588716D01*
X104620520Y-109588714D01*
X104630728Y-109578507D01*
X104630730Y-109578504D01*
X106810815Y-107398418D01*
X106872136Y-107364935D01*
X106941828Y-107369919D01*
X106997761Y-107411791D01*
X106998811Y-107413214D01*
X107034309Y-107462072D01*
X107034310Y-107462073D01*
X107167927Y-107595690D01*
X107320801Y-107706760D01*
X107397427Y-107745803D01*
X107489163Y-107792545D01*
X107489165Y-107792545D01*
X107489168Y-107792547D01*
X107571151Y-107819185D01*
X107668881Y-107850940D01*
X107855514Y-107880500D01*
X107855519Y-107880500D01*
X108044486Y-107880500D01*
X108231118Y-107850940D01*
X108261753Y-107840986D01*
X108410832Y-107792547D01*
X108579199Y-107706760D01*
X108732073Y-107595690D01*
X108865690Y-107462073D01*
X108976760Y-107309199D01*
X109062547Y-107140832D01*
X109102069Y-107019195D01*
X109141507Y-106961521D01*
X109205866Y-106934323D01*
X109274712Y-106946238D01*
X109326188Y-106993482D01*
X109337931Y-107019196D01*
X109377454Y-107140836D01*
X109442445Y-107268386D01*
X109463240Y-107309199D01*
X109574310Y-107462073D01*
X109707927Y-107595690D01*
X109860801Y-107706760D01*
X109937427Y-107745803D01*
X110029163Y-107792545D01*
X110029165Y-107792545D01*
X110029168Y-107792547D01*
X110111151Y-107819185D01*
X110208881Y-107850940D01*
X110395514Y-107880500D01*
X110395519Y-107880500D01*
X110584486Y-107880500D01*
X110771118Y-107850940D01*
X110801753Y-107840986D01*
X110950832Y-107792547D01*
X111119199Y-107706760D01*
X111272073Y-107595690D01*
X111405690Y-107462073D01*
X111516760Y-107309199D01*
X111602547Y-107140832D01*
X111660940Y-106961118D01*
X111665184Y-106934323D01*
X111690500Y-106774486D01*
X111690500Y-106585513D01*
X111660940Y-106398881D01*
X111602545Y-106219163D01*
X111531383Y-106079500D01*
X111516760Y-106050801D01*
X111405690Y-105897927D01*
X111272073Y-105764310D01*
X111119199Y-105653240D01*
X111090500Y-105638617D01*
X110950836Y-105567454D01*
X110771118Y-105509059D01*
X110584486Y-105479500D01*
X110584481Y-105479500D01*
X110395519Y-105479500D01*
X110395514Y-105479500D01*
X110208881Y-105509059D01*
X110029163Y-105567454D01*
X109860800Y-105653240D01*
X109773579Y-105716610D01*
X109707927Y-105764310D01*
X109707925Y-105764312D01*
X109707924Y-105764312D01*
X109574312Y-105897924D01*
X109574312Y-105897925D01*
X109574310Y-105897927D01*
X109555717Y-105923518D01*
X109463240Y-106050800D01*
X109377454Y-106219163D01*
X109337931Y-106340803D01*
X109298493Y-106398478D01*
X109234134Y-106425676D01*
X109165288Y-106413761D01*
X109113812Y-106366516D01*
X109102069Y-106340803D01*
X109062545Y-106219163D01*
X108991383Y-106079500D01*
X108976760Y-106050801D01*
X108865690Y-105897927D01*
X108732073Y-105764310D01*
X108687649Y-105732034D01*
X108601614Y-105669525D01*
X108558948Y-105614194D01*
X108550500Y-105569207D01*
X108550500Y-99180337D01*
X108570185Y-99113298D01*
X108614206Y-99073471D01*
X108613668Y-99072592D01*
X108617797Y-99070060D01*
X108617816Y-99070051D01*
X108709672Y-99003313D01*
X108789786Y-98945109D01*
X108789788Y-98945106D01*
X108789792Y-98945104D01*
X108940104Y-98794792D01*
X109059683Y-98630204D01*
X109115011Y-98587540D01*
X109184624Y-98581561D01*
X109246420Y-98614166D01*
X109260313Y-98630199D01*
X109287557Y-98667697D01*
X109379896Y-98794792D01*
X109530213Y-98945109D01*
X109702179Y-99070048D01*
X109702181Y-99070049D01*
X109702184Y-99070051D01*
X109891588Y-99166557D01*
X110093757Y-99232246D01*
X110303713Y-99265500D01*
X110303714Y-99265500D01*
X110516286Y-99265500D01*
X110516287Y-99265500D01*
X110726243Y-99232246D01*
X110928412Y-99166557D01*
X111117816Y-99070051D01*
X111173630Y-99029500D01*
X111289786Y-98945109D01*
X111289788Y-98945106D01*
X111289792Y-98945104D01*
X111440104Y-98794792D01*
X111440106Y-98794788D01*
X111440109Y-98794786D01*
X111565048Y-98622820D01*
X111565047Y-98622820D01*
X111565051Y-98622816D01*
X111661557Y-98433412D01*
X111727246Y-98231243D01*
X111760500Y-98021287D01*
X111760500Y-97558713D01*
X111727246Y-97348757D01*
X111661557Y-97146588D01*
X111565051Y-96957184D01*
X111565049Y-96957181D01*
X111565048Y-96957179D01*
X111440109Y-96785213D01*
X111289786Y-96634890D01*
X111117820Y-96509951D01*
X110928414Y-96413444D01*
X110928413Y-96413443D01*
X110928412Y-96413443D01*
X110726243Y-96347754D01*
X110726241Y-96347753D01*
X110726240Y-96347753D01*
X110564957Y-96322208D01*
X110516287Y-96314500D01*
X110303713Y-96314500D01*
X110255042Y-96322208D01*
X110093760Y-96347753D01*
X109891585Y-96413444D01*
X109702179Y-96509951D01*
X109530213Y-96634890D01*
X109379894Y-96785209D01*
X109379890Y-96785214D01*
X109260318Y-96949793D01*
X109204989Y-96992459D01*
X109135375Y-96998438D01*
X109073580Y-96965833D01*
X109059682Y-96949793D01*
X108940109Y-96785214D01*
X108940105Y-96785209D01*
X108789786Y-96634890D01*
X108617820Y-96509951D01*
X108428414Y-96413444D01*
X108428413Y-96413443D01*
X108428412Y-96413443D01*
X108226243Y-96347754D01*
X108226241Y-96347753D01*
X108226240Y-96347753D01*
X108064957Y-96322208D01*
X108016287Y-96314500D01*
X107803713Y-96314500D01*
X107755042Y-96322208D01*
X107593760Y-96347753D01*
X107391585Y-96413444D01*
X107202179Y-96509951D01*
X107030215Y-96634889D01*
X106891035Y-96774069D01*
X106829712Y-96807553D01*
X106760020Y-96802569D01*
X106704087Y-96760697D01*
X106697815Y-96751484D01*
X106602315Y-96596654D01*
X106478345Y-96472684D01*
X106329124Y-96380643D01*
X106329119Y-96380641D01*
X106162697Y-96325494D01*
X106162690Y-96325493D01*
X106059986Y-96315000D01*
X105660000Y-96315000D01*
X105660000Y-97385854D01*
X105593343Y-97347370D01*
X105472535Y-97315000D01*
X105347465Y-97315000D01*
X105226657Y-97347370D01*
X105160000Y-97385854D01*
X105160000Y-96315000D01*
X104760028Y-96315000D01*
X104760012Y-96315001D01*
X104657302Y-96325494D01*
X104490880Y-96380641D01*
X104490875Y-96380643D01*
X104341654Y-96472684D01*
X104217684Y-96596654D01*
X104125643Y-96745875D01*
X104125641Y-96745880D01*
X104070494Y-96912302D01*
X104070493Y-96912309D01*
X104060000Y-97015013D01*
X104060000Y-97540000D01*
X105005854Y-97540000D01*
X104967370Y-97606657D01*
X104935000Y-97727465D01*
X104935000Y-97852535D01*
X104967370Y-97973343D01*
X105005854Y-98040000D01*
X104060001Y-98040000D01*
X104060001Y-98564986D01*
X104070494Y-98667697D01*
X104125641Y-98834119D01*
X104125643Y-98834124D01*
X104217684Y-98983345D01*
X104341654Y-99107315D01*
X104490875Y-99199356D01*
X104490880Y-99199358D01*
X104657302Y-99254505D01*
X104657309Y-99254506D01*
X104760019Y-99264999D01*
X105159999Y-99264999D01*
X105160000Y-99264998D01*
X105160000Y-98194145D01*
X105226657Y-98232630D01*
X105347465Y-98265000D01*
X105472535Y-98265000D01*
X105593343Y-98232630D01*
X105660000Y-98194145D01*
X105660000Y-99264999D01*
X106059972Y-99264999D01*
X106059986Y-99264998D01*
X106162697Y-99254505D01*
X106329119Y-99199358D01*
X106329124Y-99199356D01*
X106478345Y-99107315D01*
X106602317Y-98983343D01*
X106697815Y-98828516D01*
X106749763Y-98781791D01*
X106818725Y-98770568D01*
X106882808Y-98798412D01*
X106891035Y-98805931D01*
X107030213Y-98945109D01*
X107202182Y-99070050D01*
X107281794Y-99110614D01*
X107332590Y-99158588D01*
X107349500Y-99221099D01*
X107349500Y-105569207D01*
X107329815Y-105636246D01*
X107298386Y-105669525D01*
X107167925Y-105764311D01*
X107034312Y-105897924D01*
X107034312Y-105897925D01*
X107034310Y-105897927D01*
X107015717Y-105923518D01*
X106939526Y-106028386D01*
X106884196Y-106071051D01*
X106839208Y-106079500D01*
X106600940Y-106079500D01*
X106560019Y-106090464D01*
X106560019Y-106090465D01*
X106522751Y-106100451D01*
X106448214Y-106120423D01*
X106448209Y-106120426D01*
X106311290Y-106199475D01*
X106311282Y-106199481D01*
X106199480Y-106311284D01*
X106199478Y-106311286D01*
X105048349Y-107462416D01*
X103927584Y-108583181D01*
X103866261Y-108616666D01*
X103839903Y-108619500D01*
X95729099Y-108619500D01*
X95662060Y-108599815D01*
X95616305Y-108547011D01*
X95606361Y-108477853D01*
X95635386Y-108414297D01*
X95641416Y-108407821D01*
X95666244Y-108382991D01*
X95730520Y-108318716D01*
X95730521Y-108318713D01*
X96159169Y-107890064D01*
X96220490Y-107856581D01*
X96266246Y-107855274D01*
X96425514Y-107880500D01*
X96425519Y-107880500D01*
X96614486Y-107880500D01*
X96801118Y-107850940D01*
X96831753Y-107840986D01*
X96980832Y-107792547D01*
X97149199Y-107706760D01*
X97302073Y-107595690D01*
X97435690Y-107462073D01*
X97546760Y-107309199D01*
X97632547Y-107140832D01*
X97672069Y-107019195D01*
X97711507Y-106961521D01*
X97775866Y-106934323D01*
X97844712Y-106946238D01*
X97896188Y-106993482D01*
X97907931Y-107019196D01*
X97947454Y-107140836D01*
X98012445Y-107268386D01*
X98033240Y-107309199D01*
X98144310Y-107462073D01*
X98277927Y-107595690D01*
X98430801Y-107706760D01*
X98507427Y-107745803D01*
X98599163Y-107792545D01*
X98599165Y-107792545D01*
X98599168Y-107792547D01*
X98681151Y-107819185D01*
X98778881Y-107850940D01*
X98965514Y-107880500D01*
X98965519Y-107880500D01*
X99154486Y-107880500D01*
X99341118Y-107850940D01*
X99371753Y-107840986D01*
X99520832Y-107792547D01*
X99689199Y-107706760D01*
X99842073Y-107595690D01*
X99975690Y-107462073D01*
X100086760Y-107309199D01*
X100172547Y-107140832D01*
X100230940Y-106961118D01*
X100235184Y-106934323D01*
X100260500Y-106774486D01*
X100260500Y-106585513D01*
X100230940Y-106398881D01*
X100172545Y-106219163D01*
X100101383Y-106079500D01*
X100086760Y-106050801D01*
X99975690Y-105897927D01*
X99842073Y-105764310D01*
X99689199Y-105653240D01*
X99660500Y-105638617D01*
X99520836Y-105567454D01*
X99341118Y-105509059D01*
X99154486Y-105479500D01*
X99154481Y-105479500D01*
X98965519Y-105479500D01*
X98965514Y-105479500D01*
X98778881Y-105509059D01*
X98599163Y-105567454D01*
X98430800Y-105653240D01*
X98343579Y-105716610D01*
X98277927Y-105764310D01*
X98277925Y-105764312D01*
X98277924Y-105764312D01*
X98144312Y-105897924D01*
X98144312Y-105897925D01*
X98144310Y-105897927D01*
X98125717Y-105923518D01*
X98033240Y-106050800D01*
X97947454Y-106219163D01*
X97907931Y-106340803D01*
X97868493Y-106398478D01*
X97804134Y-106425676D01*
X97735288Y-106413761D01*
X97683812Y-106366516D01*
X97672069Y-106340803D01*
X97632545Y-106219163D01*
X97561383Y-106079500D01*
X97546760Y-106050801D01*
X97435690Y-105897927D01*
X97302073Y-105764310D01*
X97257649Y-105732034D01*
X97171614Y-105669525D01*
X97128948Y-105614194D01*
X97120500Y-105569207D01*
X97120500Y-99200718D01*
X97140185Y-99133679D01*
X97188207Y-99090233D01*
X97227815Y-99070052D01*
X97227815Y-99070051D01*
X97227816Y-99070051D01*
X97319193Y-99003661D01*
X97399786Y-98945109D01*
X97399788Y-98945106D01*
X97399792Y-98945104D01*
X97550104Y-98794792D01*
X97669683Y-98630204D01*
X97725011Y-98587540D01*
X97794624Y-98581561D01*
X97856420Y-98614166D01*
X97870313Y-98630199D01*
X97897557Y-98667697D01*
X97989896Y-98794792D01*
X98140213Y-98945109D01*
X98312179Y-99070048D01*
X98312181Y-99070049D01*
X98312184Y-99070051D01*
X98501588Y-99166557D01*
X98703757Y-99232246D01*
X98913713Y-99265500D01*
X98913714Y-99265500D01*
X99126286Y-99265500D01*
X99126287Y-99265500D01*
X99336243Y-99232246D01*
X99538412Y-99166557D01*
X99727816Y-99070051D01*
X99783630Y-99029500D01*
X99899786Y-98945109D01*
X99899788Y-98945106D01*
X99899792Y-98945104D01*
X100050104Y-98794792D01*
X100050106Y-98794788D01*
X100050109Y-98794786D01*
X100175048Y-98622820D01*
X100175047Y-98622820D01*
X100175051Y-98622816D01*
X100271557Y-98433412D01*
X100337246Y-98231243D01*
X100370500Y-98021287D01*
X100370500Y-97558713D01*
X100337246Y-97348757D01*
X100271557Y-97146588D01*
X100270000Y-97143532D01*
X100231597Y-97068160D01*
X100231596Y-97068159D01*
X100193024Y-96992459D01*
X100175051Y-96957184D01*
X100142443Y-96912302D01*
X100050109Y-96785213D01*
X99899786Y-96634890D01*
X99727820Y-96509951D01*
X99538414Y-96413444D01*
X99538413Y-96413443D01*
X99538412Y-96413443D01*
X99336243Y-96347754D01*
X99336241Y-96347753D01*
X99336240Y-96347753D01*
X99174957Y-96322208D01*
X99126287Y-96314500D01*
X98913713Y-96314500D01*
X98865042Y-96322208D01*
X98703760Y-96347753D01*
X98501585Y-96413444D01*
X98312179Y-96509951D01*
X98140213Y-96634890D01*
X97989894Y-96785209D01*
X97989890Y-96785214D01*
X97870318Y-96949793D01*
X97814989Y-96992459D01*
X97745375Y-96998438D01*
X97683580Y-96965833D01*
X97669682Y-96949793D01*
X97550109Y-96785214D01*
X97550105Y-96785209D01*
X97399786Y-96634890D01*
X97227820Y-96509951D01*
X97038414Y-96413444D01*
X97038413Y-96413443D01*
X97038412Y-96413443D01*
X96836243Y-96347754D01*
X96836241Y-96347753D01*
X96836240Y-96347753D01*
X96674957Y-96322208D01*
X96626287Y-96314500D01*
X96413713Y-96314500D01*
X96365042Y-96322208D01*
X96203760Y-96347753D01*
X96001585Y-96413444D01*
X95812179Y-96509951D01*
X95640215Y-96634889D01*
X95501035Y-96774069D01*
X95439712Y-96807553D01*
X95370020Y-96802569D01*
X95314087Y-96760697D01*
X95307815Y-96751484D01*
X95212315Y-96596654D01*
X95088345Y-96472684D01*
X94939124Y-96380643D01*
X94939119Y-96380641D01*
X94772697Y-96325494D01*
X94772690Y-96325493D01*
X94669986Y-96315000D01*
X94270000Y-96315000D01*
X94270000Y-97385854D01*
X94203343Y-97347370D01*
X94082535Y-97315000D01*
X93957465Y-97315000D01*
X93836657Y-97347370D01*
X93770000Y-97385854D01*
X93770000Y-96315000D01*
X93370028Y-96315000D01*
X93370012Y-96315001D01*
X93267302Y-96325494D01*
X93100880Y-96380641D01*
X93100875Y-96380643D01*
X92951654Y-96472684D01*
X92827684Y-96596654D01*
X92735643Y-96745875D01*
X92735641Y-96745880D01*
X92680494Y-96912302D01*
X92680493Y-96912309D01*
X92670000Y-97015013D01*
X92670000Y-97540000D01*
X93615854Y-97540000D01*
X93577370Y-97606657D01*
X93545000Y-97727465D01*
X93545000Y-97852535D01*
X93577370Y-97973343D01*
X93615854Y-98040000D01*
X92670001Y-98040000D01*
X92670001Y-98564986D01*
X92680494Y-98667697D01*
X92735641Y-98834119D01*
X92735643Y-98834124D01*
X92827684Y-98983345D01*
X92951654Y-99107315D01*
X93100875Y-99199356D01*
X93100880Y-99199358D01*
X93267302Y-99254505D01*
X93267309Y-99254506D01*
X93370019Y-99264999D01*
X93769999Y-99264999D01*
X93770000Y-99264998D01*
X93770000Y-98194145D01*
X93836657Y-98232630D01*
X93957465Y-98265000D01*
X94082535Y-98265000D01*
X94203343Y-98232630D01*
X94270000Y-98194145D01*
X94270000Y-99264999D01*
X94669972Y-99264999D01*
X94669986Y-99264998D01*
X94772697Y-99254505D01*
X94939119Y-99199358D01*
X94939124Y-99199356D01*
X95088345Y-99107315D01*
X95212317Y-98983343D01*
X95307815Y-98828516D01*
X95359763Y-98781791D01*
X95428725Y-98770568D01*
X95492808Y-98798412D01*
X95501035Y-98805931D01*
X95640213Y-98945109D01*
X95812184Y-99070051D01*
X95812184Y-99070052D01*
X95851793Y-99090233D01*
X95902590Y-99138206D01*
X95919500Y-99200718D01*
X95919500Y-105569207D01*
X95899815Y-105636246D01*
X95868386Y-105669525D01*
X95737925Y-105764311D01*
X95604312Y-105897924D01*
X95604312Y-105897925D01*
X95604310Y-105897927D01*
X95585717Y-105923518D01*
X95493240Y-106050800D01*
X95407454Y-106219163D01*
X95349059Y-106398881D01*
X95319500Y-106585513D01*
X95319500Y-106774486D01*
X95344725Y-106933751D01*
X95335770Y-107003045D01*
X95309933Y-107040830D01*
X95037582Y-107313182D01*
X94976262Y-107346666D01*
X94949903Y-107349500D01*
X89341670Y-107349500D01*
X89341654Y-107349499D01*
X89334058Y-107349499D01*
X89175943Y-107349499D01*
X89068587Y-107378265D01*
X89023210Y-107390424D01*
X89023209Y-107390425D01*
X88973096Y-107419359D01*
X88973095Y-107419360D01*
X88956968Y-107428671D01*
X88886285Y-107469479D01*
X88886282Y-107469481D01*
X88774478Y-107581286D01*
X86052582Y-110303181D01*
X85991259Y-110336666D01*
X85964901Y-110339500D01*
X85047129Y-110339500D01*
X85047123Y-110339501D01*
X84987516Y-110345908D01*
X84852671Y-110396202D01*
X84852664Y-110396206D01*
X84737455Y-110482452D01*
X84737452Y-110482455D01*
X84651206Y-110597664D01*
X84651202Y-110597671D01*
X84600908Y-110732517D01*
X84594501Y-110792116D01*
X84594501Y-110792123D01*
X84594500Y-110792135D01*
X84325499Y-110792135D01*
X84325499Y-110792128D01*
X84319091Y-110732517D01*
X84268884Y-110597906D01*
X84268797Y-110597671D01*
X84268793Y-110597664D01*
X84182547Y-110482455D01*
X84182544Y-110482452D01*
X84067335Y-110396206D01*
X84067328Y-110396202D01*
X83932482Y-110345908D01*
X83932484Y-110345908D01*
X83901244Y-110342550D01*
X83836693Y-110315812D01*
X83796845Y-110258419D01*
X83790500Y-110219261D01*
X83790500Y-108679060D01*
X83790501Y-108679047D01*
X83790501Y-108510944D01*
X83779886Y-108471328D01*
X83749577Y-108358216D01*
X83741205Y-108343715D01*
X83670524Y-108221290D01*
X83670521Y-108221286D01*
X83670520Y-108221284D01*
X83268419Y-107819184D01*
X83234935Y-107757862D01*
X83239919Y-107688171D01*
X83281790Y-107632237D01*
X83283110Y-107631263D01*
X83332073Y-107595690D01*
X83465690Y-107462073D01*
X83576760Y-107309199D01*
X83662547Y-107140832D01*
X83702069Y-107019195D01*
X83741507Y-106961521D01*
X83805866Y-106934323D01*
X83874712Y-106946238D01*
X83926188Y-106993482D01*
X83937931Y-107019196D01*
X83977454Y-107140836D01*
X84042445Y-107268386D01*
X84063240Y-107309199D01*
X84174310Y-107462073D01*
X84307927Y-107595690D01*
X84460801Y-107706760D01*
X84537427Y-107745803D01*
X84629163Y-107792545D01*
X84629165Y-107792545D01*
X84629168Y-107792547D01*
X84711151Y-107819185D01*
X84808881Y-107850940D01*
X84995514Y-107880500D01*
X84995519Y-107880500D01*
X85184486Y-107880500D01*
X85371118Y-107850940D01*
X85401753Y-107840986D01*
X85550832Y-107792547D01*
X85719199Y-107706760D01*
X85872073Y-107595690D01*
X86005690Y-107462073D01*
X86116760Y-107309199D01*
X86202547Y-107140832D01*
X86260940Y-106961118D01*
X86265184Y-106934323D01*
X86290500Y-106774486D01*
X86290500Y-106585513D01*
X86260940Y-106398881D01*
X86202545Y-106219163D01*
X86131383Y-106079500D01*
X86116760Y-106050801D01*
X86005690Y-105897927D01*
X85872073Y-105764310D01*
X85719199Y-105653240D01*
X85690500Y-105638617D01*
X85550836Y-105567454D01*
X85371118Y-105509059D01*
X85184486Y-105479500D01*
X85184481Y-105479500D01*
X84995519Y-105479500D01*
X84902184Y-105494282D01*
X84832891Y-105485326D01*
X84779439Y-105440329D01*
X84758800Y-105373578D01*
X84777525Y-105306264D01*
X84795102Y-105284131D01*
X85448506Y-104630728D01*
X85448511Y-104630724D01*
X85458714Y-104620520D01*
X85458716Y-104620520D01*
X85570520Y-104508716D01*
X85649577Y-104371784D01*
X85690500Y-104219057D01*
X85690500Y-99200718D01*
X85710185Y-99133679D01*
X85758207Y-99090233D01*
X85797815Y-99070052D01*
X85797815Y-99070051D01*
X85797816Y-99070051D01*
X85889193Y-99003661D01*
X85969786Y-98945109D01*
X85969788Y-98945106D01*
X85969792Y-98945104D01*
X86120104Y-98794792D01*
X86239683Y-98630204D01*
X86295011Y-98587540D01*
X86364624Y-98581561D01*
X86426420Y-98614166D01*
X86440313Y-98630199D01*
X86467557Y-98667697D01*
X86559896Y-98794792D01*
X86710213Y-98945109D01*
X86882179Y-99070048D01*
X86882181Y-99070049D01*
X86882184Y-99070051D01*
X87071588Y-99166557D01*
X87273757Y-99232246D01*
X87483713Y-99265500D01*
X87483714Y-99265500D01*
X87696286Y-99265500D01*
X87696287Y-99265500D01*
X87906243Y-99232246D01*
X88108412Y-99166557D01*
X88297816Y-99070051D01*
X88353630Y-99029500D01*
X88469786Y-98945109D01*
X88469788Y-98945106D01*
X88469792Y-98945104D01*
X88620104Y-98794792D01*
X88620106Y-98794788D01*
X88620109Y-98794786D01*
X88745048Y-98622820D01*
X88745047Y-98622820D01*
X88745051Y-98622816D01*
X88841557Y-98433412D01*
X88907246Y-98231243D01*
X88940500Y-98021287D01*
X88940500Y-97558713D01*
X88907246Y-97348757D01*
X88841557Y-97146588D01*
X88840000Y-97143532D01*
X88801597Y-97068160D01*
X88801596Y-97068159D01*
X88763024Y-96992459D01*
X88745051Y-96957184D01*
X88712443Y-96912302D01*
X88620109Y-96785213D01*
X88469786Y-96634890D01*
X88297820Y-96509951D01*
X88108414Y-96413444D01*
X88108413Y-96413443D01*
X88108412Y-96413443D01*
X87906243Y-96347754D01*
X87906241Y-96347753D01*
X87906240Y-96347753D01*
X87744957Y-96322208D01*
X87696287Y-96314500D01*
X87483713Y-96314500D01*
X87435042Y-96322208D01*
X87273760Y-96347753D01*
X87071585Y-96413444D01*
X86882179Y-96509951D01*
X86710213Y-96634890D01*
X86559894Y-96785209D01*
X86559890Y-96785214D01*
X86440318Y-96949793D01*
X86384989Y-96992459D01*
X86315375Y-96998438D01*
X86253580Y-96965833D01*
X86239682Y-96949793D01*
X86120109Y-96785214D01*
X86120105Y-96785209D01*
X85969786Y-96634890D01*
X85797820Y-96509951D01*
X85608414Y-96413444D01*
X85608413Y-96413443D01*
X85608412Y-96413443D01*
X85406243Y-96347754D01*
X85406241Y-96347753D01*
X85406240Y-96347753D01*
X85244957Y-96322208D01*
X85196287Y-96314500D01*
X84983713Y-96314500D01*
X84935042Y-96322208D01*
X84773760Y-96347753D01*
X84571585Y-96413444D01*
X84382179Y-96509951D01*
X84210215Y-96634889D01*
X84071035Y-96774069D01*
X84009712Y-96807553D01*
X83940020Y-96802569D01*
X83884087Y-96760697D01*
X83877815Y-96751484D01*
X83782315Y-96596654D01*
X83658345Y-96472684D01*
X83509124Y-96380643D01*
X83509119Y-96380641D01*
X83342697Y-96325494D01*
X83342690Y-96325493D01*
X83239986Y-96315000D01*
X82840000Y-96315000D01*
X82840000Y-97385854D01*
X82773343Y-97347370D01*
X82652535Y-97315000D01*
X82527465Y-97315000D01*
X82406657Y-97347370D01*
X82340000Y-97385854D01*
X82340000Y-96315000D01*
X81940028Y-96315000D01*
X81940012Y-96315001D01*
X81837302Y-96325494D01*
X81670880Y-96380641D01*
X81670875Y-96380643D01*
X81521654Y-96472684D01*
X81397684Y-96596654D01*
X81305643Y-96745875D01*
X81305641Y-96745880D01*
X81250494Y-96912302D01*
X81250493Y-96912309D01*
X81240000Y-97015013D01*
X76844515Y-97015013D01*
X76854328Y-97007883D01*
X76854328Y-97007882D01*
X76200001Y-96353554D01*
X76200000Y-96353554D01*
X75545669Y-97007882D01*
X74315182Y-97007882D01*
X74442073Y-96915690D01*
X74575690Y-96782073D01*
X74686760Y-96629199D01*
X74772547Y-96460832D01*
X74812332Y-96338385D01*
X74851768Y-96280713D01*
X74916127Y-96253514D01*
X74984973Y-96265429D01*
X75036449Y-96312673D01*
X75048193Y-96338388D01*
X75087914Y-96460637D01*
X75173666Y-96628933D01*
X75192116Y-96654328D01*
X75846446Y-96000000D01*
X75846446Y-95999999D01*
X75800369Y-95953922D01*
X75850000Y-95953922D01*
X75850000Y-96046078D01*
X75873852Y-96135095D01*
X75919930Y-96214905D01*
X75985095Y-96280070D01*
X76064905Y-96326148D01*
X76153922Y-96350000D01*
X76246078Y-96350000D01*
X76335095Y-96326148D01*
X76414905Y-96280070D01*
X76480070Y-96214905D01*
X76526148Y-96135095D01*
X76550000Y-96046078D01*
X76550000Y-95999999D01*
X76553554Y-95999999D01*
X76553554Y-96000000D01*
X77207882Y-96654328D01*
X77207883Y-96654328D01*
X77226331Y-96628937D01*
X77312085Y-96460637D01*
X77370451Y-96281002D01*
X77400000Y-96094447D01*
X77400000Y-95905552D01*
X77370451Y-95718997D01*
X77312085Y-95539362D01*
X77226329Y-95371059D01*
X77207883Y-95345670D01*
X77207882Y-95345669D01*
X76553554Y-95999999D01*
X76550000Y-95999999D01*
X76550000Y-95953922D01*
X76526148Y-95864905D01*
X76480070Y-95785095D01*
X76414905Y-95719930D01*
X76335095Y-95673852D01*
X76246078Y-95650000D01*
X76153922Y-95650000D01*
X76064905Y-95673852D01*
X75985095Y-95719930D01*
X75919930Y-95785095D01*
X75873852Y-95864905D01*
X75850000Y-95953922D01*
X75800369Y-95953922D01*
X75192116Y-95345669D01*
X75192116Y-95345670D01*
X75173669Y-95371060D01*
X75087915Y-95539361D01*
X75048193Y-95661612D01*
X75008755Y-95719287D01*
X74944396Y-95746485D01*
X74875550Y-95734570D01*
X74824074Y-95687326D01*
X74812332Y-95661614D01*
X74772547Y-95539168D01*
X74686760Y-95370801D01*
X74575690Y-95217927D01*
X74442073Y-95084310D01*
X74315179Y-94992116D01*
X75545669Y-94992116D01*
X76200000Y-95646446D01*
X76200001Y-95646446D01*
X76854328Y-94992116D01*
X76828933Y-94973666D01*
X76660637Y-94887914D01*
X76481002Y-94829548D01*
X76294447Y-94800000D01*
X76105553Y-94800000D01*
X75918997Y-94829548D01*
X75739362Y-94887914D01*
X75571060Y-94973669D01*
X75545670Y-94992116D01*
X75545669Y-94992116D01*
X74315179Y-94992116D01*
X74289199Y-94973240D01*
X74120836Y-94887454D01*
X73941118Y-94829059D01*
X73754486Y-94799500D01*
X73754481Y-94799500D01*
X73565519Y-94799500D01*
X73565514Y-94799500D01*
X73378881Y-94829059D01*
X73199163Y-94887454D01*
X73030800Y-94973240D01*
X72943579Y-95036610D01*
X72877927Y-95084310D01*
X72877925Y-95084312D01*
X72877924Y-95084312D01*
X72744312Y-95217924D01*
X72744312Y-95217925D01*
X72744310Y-95217927D01*
X72735350Y-95230260D01*
X72633240Y-95370800D01*
X72547454Y-95539163D01*
X72507931Y-95660803D01*
X72468493Y-95718478D01*
X72404134Y-95745676D01*
X72335288Y-95733761D01*
X72283812Y-95686516D01*
X72272069Y-95660803D01*
X72232610Y-95539362D01*
X72232547Y-95539168D01*
X72232545Y-95539165D01*
X72232545Y-95539163D01*
X72187290Y-95450347D01*
X72146760Y-95370801D01*
X72035690Y-95217927D01*
X71902073Y-95084310D01*
X71749199Y-94973240D01*
X71580836Y-94887454D01*
X71401118Y-94829059D01*
X71214486Y-94799500D01*
X71214481Y-94799500D01*
X71025519Y-94799500D01*
X71025514Y-94799500D01*
X70838881Y-94829059D01*
X70659163Y-94887454D01*
X70490800Y-94973240D01*
X70403579Y-95036610D01*
X70337927Y-95084310D01*
X70337925Y-95084312D01*
X70337924Y-95084312D01*
X70204312Y-95217924D01*
X70204312Y-95217925D01*
X70204310Y-95217927D01*
X70195350Y-95230260D01*
X70093240Y-95370800D01*
X70007454Y-95539163D01*
X69967931Y-95660803D01*
X69928493Y-95718478D01*
X69864134Y-95745676D01*
X69795288Y-95733761D01*
X69743812Y-95686516D01*
X69732069Y-95660803D01*
X69692610Y-95539362D01*
X69692547Y-95539168D01*
X69692545Y-95539165D01*
X69692545Y-95539163D01*
X69647290Y-95450347D01*
X69606760Y-95370801D01*
X69495690Y-95217927D01*
X69362073Y-95084310D01*
X69209199Y-94973240D01*
X69040836Y-94887454D01*
X68861118Y-94829059D01*
X68674486Y-94799500D01*
X68674481Y-94799500D01*
X68485519Y-94799500D01*
X68485514Y-94799500D01*
X68298881Y-94829059D01*
X68119163Y-94887454D01*
X67950800Y-94973240D01*
X67863579Y-95036610D01*
X67797927Y-95084310D01*
X67797925Y-95084312D01*
X67797924Y-95084312D01*
X67719056Y-95163181D01*
X67657733Y-95196666D01*
X67631375Y-95199500D01*
X63941153Y-95199500D01*
X63786510Y-95230260D01*
X63786502Y-95230262D01*
X63640824Y-95290604D01*
X63640814Y-95290609D01*
X63509711Y-95378210D01*
X63509707Y-95378213D01*
X60449711Y-98438211D01*
X60449710Y-98438212D01*
X60402180Y-98485741D01*
X60340857Y-98519225D01*
X60271165Y-98514240D01*
X60215232Y-98472368D01*
X60190816Y-98406904D01*
X60190500Y-98398059D01*
X60190500Y-93624500D01*
X60210185Y-93557461D01*
X60262989Y-93511706D01*
X60314500Y-93500500D01*
X113675500Y-93500500D01*
X113742539Y-93520185D01*
G37*
%TD.AperFunction*%
%TD*%
M02*
