%TF.GenerationSoftware,KiCad,Pcbnew,10.0.0*%
%TF.CreationDate,2026-04-09T18:33:00-07:00*%
%TF.ProjectId,aircon-hat,61697263-6f6e-42d6-9861-742e6b696361,rev?*%
%TF.SameCoordinates,Original*%
%TF.FileFunction,Drillmap*%
%TF.FilePolarity,Positive*%
%FSLAX45Y45*%
G04 Gerber Fmt 4.5, Leading zero omitted, Abs format (unit mm)*
G04 Created by KiCad (PCBNEW 10.0.0) date 2026-04-09 18:33:00*
%MOMM*%
%LPD*%
G01*
G04 APERTURE LIST*
%ADD10C,0.050000*%
%ADD11C,0.200000*%
%ADD12C,0.100000*%
G04 APERTURE END LIST*
D10*
X5969000Y-9300000D02*
X11430000Y-9300000D01*
X5969000Y-13300000D02*
X5969000Y-9300000D01*
X11430000Y-9300000D02*
X11430000Y-13300000D01*
X11430000Y-13300000D02*
X5969000Y-13300000D01*
D11*
D12*
X6315000Y-12030000D02*
X6385000Y-12100000D01*
X6385000Y-12030000D02*
X6315000Y-12100000D01*
X6315000Y-12284000D02*
X6385000Y-12354000D01*
X6385000Y-12284000D02*
X6315000Y-12354000D01*
X6569000Y-12030000D02*
X6639000Y-12100000D01*
X6639000Y-12030000D02*
X6569000Y-12100000D01*
X6569000Y-12284000D02*
X6639000Y-12354000D01*
X6639000Y-12284000D02*
X6569000Y-12354000D01*
X6823000Y-9565000D02*
X6893000Y-9635000D01*
X6893000Y-9565000D02*
X6823000Y-9635000D01*
X6823000Y-12030000D02*
X6893000Y-12100000D01*
X6893000Y-12030000D02*
X6823000Y-12100000D01*
X6823000Y-12284000D02*
X6893000Y-12354000D01*
X6893000Y-12284000D02*
X6823000Y-12354000D01*
X7077000Y-9565000D02*
X7147000Y-9635000D01*
X7147000Y-9565000D02*
X7077000Y-9635000D01*
X7331000Y-9565000D02*
X7401000Y-9635000D01*
X7401000Y-9565000D02*
X7331000Y-9635000D01*
X7585000Y-9565000D02*
X7655000Y-9635000D01*
X7655000Y-9565000D02*
X7585000Y-9635000D01*
X8220000Y-10633000D02*
X8290000Y-10703000D01*
X8290000Y-10633000D02*
X8220000Y-10703000D01*
X8474000Y-10633000D02*
X8544000Y-10703000D01*
X8544000Y-10633000D02*
X8474000Y-10703000D01*
X9617000Y-10633000D02*
X9687000Y-10703000D01*
X9687000Y-10633000D02*
X9617000Y-10703000D01*
X9871000Y-10633000D02*
X9941000Y-10703000D01*
X9941000Y-10633000D02*
X9871000Y-10703000D01*
X10760000Y-10633000D02*
X10830000Y-10703000D01*
X10830000Y-10633000D02*
X10760000Y-10703000D01*
X11014000Y-10633000D02*
X11084000Y-10703000D01*
X11084000Y-10633000D02*
X11014000Y-10703000D01*
X6327000Y-11211000D02*
G75*
G02*
X6247000Y-11211000I-40000J0D01*
G01*
X6247000Y-11211000D02*
G75*
G02*
X6327000Y-11211000I40000J0D01*
G01*
X6327000Y-12989000D02*
G75*
G02*
X6247000Y-12989000I-40000J0D01*
G01*
X6247000Y-12989000D02*
G75*
G02*
X6327000Y-12989000I40000J0D01*
G01*
X6581000Y-11211000D02*
G75*
G02*
X6501000Y-11211000I-40000J0D01*
G01*
X6501000Y-11211000D02*
G75*
G02*
X6581000Y-11211000I40000J0D01*
G01*
X6581000Y-12989000D02*
G75*
G02*
X6501000Y-12989000I-40000J0D01*
G01*
X6501000Y-12989000D02*
G75*
G02*
X6581000Y-12989000I40000J0D01*
G01*
X6835000Y-11211000D02*
G75*
G02*
X6755000Y-11211000I-40000J0D01*
G01*
X6755000Y-11211000D02*
G75*
G02*
X6835000Y-11211000I40000J0D01*
G01*
X6835000Y-12989000D02*
G75*
G02*
X6755000Y-12989000I-40000J0D01*
G01*
X6755000Y-12989000D02*
G75*
G02*
X6835000Y-12989000I40000J0D01*
G01*
X7089000Y-11211000D02*
G75*
G02*
X7009000Y-11211000I-40000J0D01*
G01*
X7009000Y-11211000D02*
G75*
G02*
X7089000Y-11211000I40000J0D01*
G01*
X7089000Y-12989000D02*
G75*
G02*
X7009000Y-12989000I-40000J0D01*
G01*
X7009000Y-12989000D02*
G75*
G02*
X7089000Y-12989000I40000J0D01*
G01*
X7340000Y-10033000D02*
G75*
G02*
X7260000Y-10033000I-40000J0D01*
G01*
X7260000Y-10033000D02*
G75*
G02*
X7340000Y-10033000I40000J0D01*
G01*
X7340000Y-10795000D02*
G75*
G02*
X7260000Y-10795000I-40000J0D01*
G01*
X7260000Y-10795000D02*
G75*
G02*
X7340000Y-10795000I40000J0D01*
G01*
X7343000Y-11211000D02*
G75*
G02*
X7263000Y-11211000I-40000J0D01*
G01*
X7263000Y-11211000D02*
G75*
G02*
X7343000Y-11211000I40000J0D01*
G01*
X7343000Y-12989000D02*
G75*
G02*
X7263000Y-12989000I-40000J0D01*
G01*
X7263000Y-12989000D02*
G75*
G02*
X7343000Y-12989000I40000J0D01*
G01*
X7594000Y-10033000D02*
G75*
G02*
X7514000Y-10033000I-40000J0D01*
G01*
X7514000Y-10033000D02*
G75*
G02*
X7594000Y-10033000I40000J0D01*
G01*
X7594000Y-10795000D02*
G75*
G02*
X7514000Y-10795000I-40000J0D01*
G01*
X7514000Y-10795000D02*
G75*
G02*
X7594000Y-10795000I40000J0D01*
G01*
X7597000Y-11211000D02*
G75*
G02*
X7517000Y-11211000I-40000J0D01*
G01*
X7517000Y-11211000D02*
G75*
G02*
X7597000Y-11211000I40000J0D01*
G01*
X7597000Y-12989000D02*
G75*
G02*
X7517000Y-12989000I-40000J0D01*
G01*
X7517000Y-12989000D02*
G75*
G02*
X7597000Y-12989000I40000J0D01*
G01*
X7848000Y-10033000D02*
G75*
G02*
X7768000Y-10033000I-40000J0D01*
G01*
X7768000Y-10033000D02*
G75*
G02*
X7848000Y-10033000I40000J0D01*
G01*
X7848000Y-10795000D02*
G75*
G02*
X7768000Y-10795000I-40000J0D01*
G01*
X7768000Y-10795000D02*
G75*
G02*
X7848000Y-10795000I40000J0D01*
G01*
X7851000Y-11211000D02*
G75*
G02*
X7771000Y-11211000I-40000J0D01*
G01*
X7771000Y-11211000D02*
G75*
G02*
X7851000Y-11211000I40000J0D01*
G01*
X7851000Y-12989000D02*
G75*
G02*
X7771000Y-12989000I-40000J0D01*
G01*
X7771000Y-12989000D02*
G75*
G02*
X7851000Y-12989000I40000J0D01*
G01*
X8105000Y-11211000D02*
G75*
G02*
X8025000Y-11211000I-40000J0D01*
G01*
X8025000Y-11211000D02*
G75*
G02*
X8105000Y-11211000I40000J0D01*
G01*
X8105000Y-12989000D02*
G75*
G02*
X8025000Y-12989000I-40000J0D01*
G01*
X8025000Y-12989000D02*
G75*
G02*
X8105000Y-12989000I40000J0D01*
G01*
X8359000Y-11211000D02*
G75*
G02*
X8279000Y-11211000I-40000J0D01*
G01*
X8279000Y-11211000D02*
G75*
G02*
X8359000Y-11211000I40000J0D01*
G01*
X8359000Y-12989000D02*
G75*
G02*
X8279000Y-12989000I-40000J0D01*
G01*
X8279000Y-12989000D02*
G75*
G02*
X8359000Y-12989000I40000J0D01*
G01*
X8613000Y-11211000D02*
G75*
G02*
X8533000Y-11211000I-40000J0D01*
G01*
X8533000Y-11211000D02*
G75*
G02*
X8613000Y-11211000I40000J0D01*
G01*
X8613000Y-12989000D02*
G75*
G02*
X8533000Y-12989000I-40000J0D01*
G01*
X8533000Y-12989000D02*
G75*
G02*
X8613000Y-12989000I40000J0D01*
G01*
X8867000Y-11211000D02*
G75*
G02*
X8787000Y-11211000I-40000J0D01*
G01*
X8787000Y-11211000D02*
G75*
G02*
X8867000Y-11211000I40000J0D01*
G01*
X8867000Y-12989000D02*
G75*
G02*
X8787000Y-12989000I-40000J0D01*
G01*
X8787000Y-12989000D02*
G75*
G02*
X8867000Y-12989000I40000J0D01*
G01*
X9121000Y-11211000D02*
G75*
G02*
X9041000Y-11211000I-40000J0D01*
G01*
X9041000Y-11211000D02*
G75*
G02*
X9121000Y-11211000I40000J0D01*
G01*
X9121000Y-12989000D02*
G75*
G02*
X9041000Y-12989000I-40000J0D01*
G01*
X9041000Y-12989000D02*
G75*
G02*
X9121000Y-12989000I40000J0D01*
G01*
X9375000Y-11211000D02*
G75*
G02*
X9295000Y-11211000I-40000J0D01*
G01*
X9295000Y-11211000D02*
G75*
G02*
X9375000Y-11211000I40000J0D01*
G01*
X9375000Y-12989000D02*
G75*
G02*
X9295000Y-12989000I-40000J0D01*
G01*
X9295000Y-12989000D02*
G75*
G02*
X9375000Y-12989000I40000J0D01*
G01*
X9629000Y-11211000D02*
G75*
G02*
X9549000Y-11211000I-40000J0D01*
G01*
X9549000Y-11211000D02*
G75*
G02*
X9629000Y-11211000I40000J0D01*
G01*
X9629000Y-12989000D02*
G75*
G02*
X9549000Y-12989000I-40000J0D01*
G01*
X9549000Y-12989000D02*
G75*
G02*
X9629000Y-12989000I40000J0D01*
G01*
X9883000Y-11211000D02*
G75*
G02*
X9803000Y-11211000I-40000J0D01*
G01*
X9803000Y-11211000D02*
G75*
G02*
X9883000Y-11211000I40000J0D01*
G01*
X9883000Y-12989000D02*
G75*
G02*
X9803000Y-12989000I-40000J0D01*
G01*
X9803000Y-12989000D02*
G75*
G02*
X9883000Y-12989000I40000J0D01*
G01*
X10137000Y-11211000D02*
G75*
G02*
X10057000Y-11211000I-40000J0D01*
G01*
X10057000Y-11211000D02*
G75*
G02*
X10137000Y-11211000I40000J0D01*
G01*
X10137000Y-12989000D02*
G75*
G02*
X10057000Y-12989000I-40000J0D01*
G01*
X10057000Y-12989000D02*
G75*
G02*
X10137000Y-12989000I40000J0D01*
G01*
X10391000Y-11211000D02*
G75*
G02*
X10311000Y-11211000I-40000J0D01*
G01*
X10311000Y-11211000D02*
G75*
G02*
X10391000Y-11211000I40000J0D01*
G01*
X10391000Y-12989000D02*
G75*
G02*
X10311000Y-12989000I-40000J0D01*
G01*
X10311000Y-12989000D02*
G75*
G02*
X10391000Y-12989000I40000J0D01*
G01*
X10645000Y-11211000D02*
G75*
G02*
X10565000Y-11211000I-40000J0D01*
G01*
X10565000Y-11211000D02*
G75*
G02*
X10645000Y-11211000I40000J0D01*
G01*
X10645000Y-12989000D02*
G75*
G02*
X10565000Y-12989000I-40000J0D01*
G01*
X10565000Y-12989000D02*
G75*
G02*
X10645000Y-12989000I40000J0D01*
G01*
X10899000Y-11211000D02*
G75*
G02*
X10819000Y-11211000I-40000J0D01*
G01*
X10819000Y-11211000D02*
G75*
G02*
X10899000Y-11211000I40000J0D01*
G01*
X10899000Y-12989000D02*
G75*
G02*
X10819000Y-12989000I-40000J0D01*
G01*
X10819000Y-12989000D02*
G75*
G02*
X10899000Y-12989000I40000J0D01*
G01*
X11153000Y-11211000D02*
G75*
G02*
X11073000Y-11211000I-40000J0D01*
G01*
X11073000Y-11211000D02*
G75*
G02*
X11153000Y-11211000I40000J0D01*
G01*
X11153000Y-12989000D02*
G75*
G02*
X11073000Y-12989000I-40000J0D01*
G01*
X11073000Y-12989000D02*
G75*
G02*
X11153000Y-12989000I40000J0D01*
G01*
X7374000Y-12017500D02*
X7374000Y-12112500D01*
X7326500Y-12065000D02*
X7421500Y-12065000D01*
X7624000Y-12017500D02*
X7624000Y-12112500D01*
X7576500Y-12065000D02*
X7671500Y-12065000D01*
X7874000Y-12017500D02*
X7874000Y-12112500D01*
X7826500Y-12065000D02*
X7921500Y-12065000D01*
X8259000Y-9731500D02*
X8259000Y-9826500D01*
X8211500Y-9779000D02*
X8306500Y-9779000D01*
X8509000Y-9731500D02*
X8509000Y-9826500D01*
X8461500Y-9779000D02*
X8556500Y-9779000D01*
X8759000Y-9731500D02*
X8759000Y-9826500D01*
X8711500Y-9779000D02*
X8806500Y-9779000D01*
X8894000Y-12017500D02*
X8894000Y-12112500D01*
X8846500Y-12065000D02*
X8941500Y-12065000D01*
X9144000Y-12017500D02*
X9144000Y-12112500D01*
X9096500Y-12065000D02*
X9191500Y-12065000D01*
X9394000Y-12017500D02*
X9394000Y-12112500D01*
X9346500Y-12065000D02*
X9441500Y-12065000D01*
X9402000Y-9731500D02*
X9402000Y-9826500D01*
X9354500Y-9779000D02*
X9449500Y-9779000D01*
X9652000Y-9731500D02*
X9652000Y-9826500D01*
X9604500Y-9779000D02*
X9699500Y-9779000D01*
X9902000Y-9731500D02*
X9902000Y-9826500D01*
X9854500Y-9779000D02*
X9949500Y-9779000D01*
X10422000Y-12017500D02*
X10422000Y-12112500D01*
X10374500Y-12065000D02*
X10469500Y-12065000D01*
X10541000Y-9731500D02*
X10541000Y-9826500D01*
X10493500Y-9779000D02*
X10588500Y-9779000D01*
X10672000Y-12017500D02*
X10672000Y-12112500D01*
X10624500Y-12065000D02*
X10719500Y-12065000D01*
X10791000Y-9731500D02*
X10791000Y-9826500D01*
X10743500Y-9779000D02*
X10838500Y-9779000D01*
X10922000Y-12017500D02*
X10922000Y-12112500D01*
X10874500Y-12065000D02*
X10969500Y-12065000D01*
X11041000Y-9731500D02*
X11041000Y-9826500D01*
X10993500Y-9779000D02*
X11088500Y-9779000D01*
X6512356Y-10195356D02*
X6512356Y-10124644D01*
X6441644Y-10124644D01*
X6441644Y-10195356D01*
X6512356Y-10195356D01*
X6512356Y-10445356D02*
X6512356Y-10374644D01*
X6441644Y-10374644D01*
X6441644Y-10445356D01*
X6512356Y-10445356D01*
D11*
X6227277Y-13613984D02*
X6227277Y-13413984D01*
X6227277Y-13413984D02*
X6274896Y-13413984D01*
X6274896Y-13413984D02*
X6303467Y-13423508D01*
X6303467Y-13423508D02*
X6322515Y-13442555D01*
X6322515Y-13442555D02*
X6332039Y-13461603D01*
X6332039Y-13461603D02*
X6341562Y-13499698D01*
X6341562Y-13499698D02*
X6341562Y-13528269D01*
X6341562Y-13528269D02*
X6332039Y-13566365D01*
X6332039Y-13566365D02*
X6322515Y-13585412D01*
X6322515Y-13585412D02*
X6303467Y-13604460D01*
X6303467Y-13604460D02*
X6274896Y-13613984D01*
X6274896Y-13613984D02*
X6227277Y-13613984D01*
X6427277Y-13613984D02*
X6427277Y-13480650D01*
X6427277Y-13518746D02*
X6436801Y-13499698D01*
X6436801Y-13499698D02*
X6446324Y-13490174D01*
X6446324Y-13490174D02*
X6465372Y-13480650D01*
X6465372Y-13480650D02*
X6484420Y-13480650D01*
X6551086Y-13613984D02*
X6551086Y-13480650D01*
X6551086Y-13413984D02*
X6541562Y-13423508D01*
X6541562Y-13423508D02*
X6551086Y-13433031D01*
X6551086Y-13433031D02*
X6560610Y-13423508D01*
X6560610Y-13423508D02*
X6551086Y-13413984D01*
X6551086Y-13413984D02*
X6551086Y-13433031D01*
X6674896Y-13613984D02*
X6655848Y-13604460D01*
X6655848Y-13604460D02*
X6646324Y-13585412D01*
X6646324Y-13585412D02*
X6646324Y-13413984D01*
X6779658Y-13613984D02*
X6760610Y-13604460D01*
X6760610Y-13604460D02*
X6751086Y-13585412D01*
X6751086Y-13585412D02*
X6751086Y-13413984D01*
X7008229Y-13613984D02*
X7008229Y-13413984D01*
X7008229Y-13413984D02*
X7074896Y-13556841D01*
X7074896Y-13556841D02*
X7141562Y-13413984D01*
X7141562Y-13413984D02*
X7141562Y-13613984D01*
X7322515Y-13613984D02*
X7322515Y-13509222D01*
X7322515Y-13509222D02*
X7312991Y-13490174D01*
X7312991Y-13490174D02*
X7293943Y-13480650D01*
X7293943Y-13480650D02*
X7255848Y-13480650D01*
X7255848Y-13480650D02*
X7236801Y-13490174D01*
X7322515Y-13604460D02*
X7303467Y-13613984D01*
X7303467Y-13613984D02*
X7255848Y-13613984D01*
X7255848Y-13613984D02*
X7236801Y-13604460D01*
X7236801Y-13604460D02*
X7227277Y-13585412D01*
X7227277Y-13585412D02*
X7227277Y-13566365D01*
X7227277Y-13566365D02*
X7236801Y-13547317D01*
X7236801Y-13547317D02*
X7255848Y-13537793D01*
X7255848Y-13537793D02*
X7303467Y-13537793D01*
X7303467Y-13537793D02*
X7322515Y-13528269D01*
X7417753Y-13480650D02*
X7417753Y-13680650D01*
X7417753Y-13490174D02*
X7436801Y-13480650D01*
X7436801Y-13480650D02*
X7474896Y-13480650D01*
X7474896Y-13480650D02*
X7493943Y-13490174D01*
X7493943Y-13490174D02*
X7503467Y-13499698D01*
X7503467Y-13499698D02*
X7512991Y-13518746D01*
X7512991Y-13518746D02*
X7512991Y-13575888D01*
X7512991Y-13575888D02*
X7503467Y-13594936D01*
X7503467Y-13594936D02*
X7493943Y-13604460D01*
X7493943Y-13604460D02*
X7474896Y-13613984D01*
X7474896Y-13613984D02*
X7436801Y-13613984D01*
X7436801Y-13613984D02*
X7417753Y-13604460D01*
X7598705Y-13594936D02*
X7608229Y-13604460D01*
X7608229Y-13604460D02*
X7598705Y-13613984D01*
X7598705Y-13613984D02*
X7589182Y-13604460D01*
X7589182Y-13604460D02*
X7598705Y-13594936D01*
X7598705Y-13594936D02*
X7598705Y-13613984D01*
X7598705Y-13490174D02*
X7608229Y-13499698D01*
X7608229Y-13499698D02*
X7598705Y-13509222D01*
X7598705Y-13509222D02*
X7589182Y-13499698D01*
X7589182Y-13499698D02*
X7598705Y-13490174D01*
X7598705Y-13490174D02*
X7598705Y-13509222D01*
D12*
X5896500Y-13907500D02*
X5966500Y-13977500D01*
X5966500Y-13907500D02*
X5896500Y-13977500D01*
D11*
X6265372Y-13833984D02*
X6284420Y-13833984D01*
X6284420Y-13833984D02*
X6303467Y-13843508D01*
X6303467Y-13843508D02*
X6312991Y-13853031D01*
X6312991Y-13853031D02*
X6322515Y-13872079D01*
X6322515Y-13872079D02*
X6332039Y-13910174D01*
X6332039Y-13910174D02*
X6332039Y-13957793D01*
X6332039Y-13957793D02*
X6322515Y-13995888D01*
X6322515Y-13995888D02*
X6312991Y-14014936D01*
X6312991Y-14014936D02*
X6303467Y-14024460D01*
X6303467Y-14024460D02*
X6284420Y-14033984D01*
X6284420Y-14033984D02*
X6265372Y-14033984D01*
X6265372Y-14033984D02*
X6246324Y-14024460D01*
X6246324Y-14024460D02*
X6236801Y-14014936D01*
X6236801Y-14014936D02*
X6227277Y-13995888D01*
X6227277Y-13995888D02*
X6217753Y-13957793D01*
X6217753Y-13957793D02*
X6217753Y-13910174D01*
X6217753Y-13910174D02*
X6227277Y-13872079D01*
X6227277Y-13872079D02*
X6236801Y-13853031D01*
X6236801Y-13853031D02*
X6246324Y-13843508D01*
X6246324Y-13843508D02*
X6265372Y-13833984D01*
X6417753Y-14014936D02*
X6427277Y-14024460D01*
X6427277Y-14024460D02*
X6417753Y-14033984D01*
X6417753Y-14033984D02*
X6408229Y-14024460D01*
X6408229Y-14024460D02*
X6417753Y-14014936D01*
X6417753Y-14014936D02*
X6417753Y-14033984D01*
X6493943Y-13833984D02*
X6627277Y-13833984D01*
X6627277Y-13833984D02*
X6541562Y-14033984D01*
X6741562Y-13833984D02*
X6760610Y-13833984D01*
X6760610Y-13833984D02*
X6779658Y-13843508D01*
X6779658Y-13843508D02*
X6789182Y-13853031D01*
X6789182Y-13853031D02*
X6798705Y-13872079D01*
X6798705Y-13872079D02*
X6808229Y-13910174D01*
X6808229Y-13910174D02*
X6808229Y-13957793D01*
X6808229Y-13957793D02*
X6798705Y-13995888D01*
X6798705Y-13995888D02*
X6789182Y-14014936D01*
X6789182Y-14014936D02*
X6779658Y-14024460D01*
X6779658Y-14024460D02*
X6760610Y-14033984D01*
X6760610Y-14033984D02*
X6741562Y-14033984D01*
X6741562Y-14033984D02*
X6722515Y-14024460D01*
X6722515Y-14024460D02*
X6712991Y-14014936D01*
X6712991Y-14014936D02*
X6703467Y-13995888D01*
X6703467Y-13995888D02*
X6693943Y-13957793D01*
X6693943Y-13957793D02*
X6693943Y-13910174D01*
X6693943Y-13910174D02*
X6703467Y-13872079D01*
X6703467Y-13872079D02*
X6712991Y-13853031D01*
X6712991Y-13853031D02*
X6722515Y-13843508D01*
X6722515Y-13843508D02*
X6741562Y-13833984D01*
X6932039Y-13833984D02*
X6951086Y-13833984D01*
X6951086Y-13833984D02*
X6970134Y-13843508D01*
X6970134Y-13843508D02*
X6979658Y-13853031D01*
X6979658Y-13853031D02*
X6989182Y-13872079D01*
X6989182Y-13872079D02*
X6998705Y-13910174D01*
X6998705Y-13910174D02*
X6998705Y-13957793D01*
X6998705Y-13957793D02*
X6989182Y-13995888D01*
X6989182Y-13995888D02*
X6979658Y-14014936D01*
X6979658Y-14014936D02*
X6970134Y-14024460D01*
X6970134Y-14024460D02*
X6951086Y-14033984D01*
X6951086Y-14033984D02*
X6932039Y-14033984D01*
X6932039Y-14033984D02*
X6912991Y-14024460D01*
X6912991Y-14024460D02*
X6903467Y-14014936D01*
X6903467Y-14014936D02*
X6893943Y-13995888D01*
X6893943Y-13995888D02*
X6884420Y-13957793D01*
X6884420Y-13957793D02*
X6884420Y-13910174D01*
X6884420Y-13910174D02*
X6893943Y-13872079D01*
X6893943Y-13872079D02*
X6903467Y-13853031D01*
X6903467Y-13853031D02*
X6912991Y-13843508D01*
X6912991Y-13843508D02*
X6932039Y-13833984D01*
X7084420Y-14033984D02*
X7084420Y-13900650D01*
X7084420Y-13919698D02*
X7093943Y-13910174D01*
X7093943Y-13910174D02*
X7112991Y-13900650D01*
X7112991Y-13900650D02*
X7141563Y-13900650D01*
X7141563Y-13900650D02*
X7160610Y-13910174D01*
X7160610Y-13910174D02*
X7170134Y-13929222D01*
X7170134Y-13929222D02*
X7170134Y-14033984D01*
X7170134Y-13929222D02*
X7179658Y-13910174D01*
X7179658Y-13910174D02*
X7198705Y-13900650D01*
X7198705Y-13900650D02*
X7227277Y-13900650D01*
X7227277Y-13900650D02*
X7246324Y-13910174D01*
X7246324Y-13910174D02*
X7255848Y-13929222D01*
X7255848Y-13929222D02*
X7255848Y-14033984D01*
X7351086Y-14033984D02*
X7351086Y-13900650D01*
X7351086Y-13919698D02*
X7360610Y-13910174D01*
X7360610Y-13910174D02*
X7379658Y-13900650D01*
X7379658Y-13900650D02*
X7408229Y-13900650D01*
X7408229Y-13900650D02*
X7427277Y-13910174D01*
X7427277Y-13910174D02*
X7436801Y-13929222D01*
X7436801Y-13929222D02*
X7436801Y-14033984D01*
X7436801Y-13929222D02*
X7446324Y-13910174D01*
X7446324Y-13910174D02*
X7465372Y-13900650D01*
X7465372Y-13900650D02*
X7493943Y-13900650D01*
X7493943Y-13900650D02*
X7512991Y-13910174D01*
X7512991Y-13910174D02*
X7522515Y-13929222D01*
X7522515Y-13929222D02*
X7522515Y-14033984D01*
X7912991Y-13824460D02*
X7741563Y-14081603D01*
X8170134Y-13833984D02*
X8189182Y-13833984D01*
X8189182Y-13833984D02*
X8208229Y-13843508D01*
X8208229Y-13843508D02*
X8217753Y-13853031D01*
X8217753Y-13853031D02*
X8227277Y-13872079D01*
X8227277Y-13872079D02*
X8236801Y-13910174D01*
X8236801Y-13910174D02*
X8236801Y-13957793D01*
X8236801Y-13957793D02*
X8227277Y-13995888D01*
X8227277Y-13995888D02*
X8217753Y-14014936D01*
X8217753Y-14014936D02*
X8208229Y-14024460D01*
X8208229Y-14024460D02*
X8189182Y-14033984D01*
X8189182Y-14033984D02*
X8170134Y-14033984D01*
X8170134Y-14033984D02*
X8151086Y-14024460D01*
X8151086Y-14024460D02*
X8141563Y-14014936D01*
X8141563Y-14014936D02*
X8132039Y-13995888D01*
X8132039Y-13995888D02*
X8122515Y-13957793D01*
X8122515Y-13957793D02*
X8122515Y-13910174D01*
X8122515Y-13910174D02*
X8132039Y-13872079D01*
X8132039Y-13872079D02*
X8141563Y-13853031D01*
X8141563Y-13853031D02*
X8151086Y-13843508D01*
X8151086Y-13843508D02*
X8170134Y-13833984D01*
X8322515Y-14014936D02*
X8332039Y-14024460D01*
X8332039Y-14024460D02*
X8322515Y-14033984D01*
X8322515Y-14033984D02*
X8312991Y-14024460D01*
X8312991Y-14024460D02*
X8322515Y-14014936D01*
X8322515Y-14014936D02*
X8322515Y-14033984D01*
X8455848Y-13833984D02*
X8474896Y-13833984D01*
X8474896Y-13833984D02*
X8493944Y-13843508D01*
X8493944Y-13843508D02*
X8503468Y-13853031D01*
X8503468Y-13853031D02*
X8512991Y-13872079D01*
X8512991Y-13872079D02*
X8522515Y-13910174D01*
X8522515Y-13910174D02*
X8522515Y-13957793D01*
X8522515Y-13957793D02*
X8512991Y-13995888D01*
X8512991Y-13995888D02*
X8503468Y-14014936D01*
X8503468Y-14014936D02*
X8493944Y-14024460D01*
X8493944Y-14024460D02*
X8474896Y-14033984D01*
X8474896Y-14033984D02*
X8455848Y-14033984D01*
X8455848Y-14033984D02*
X8436801Y-14024460D01*
X8436801Y-14024460D02*
X8427277Y-14014936D01*
X8427277Y-14014936D02*
X8417753Y-13995888D01*
X8417753Y-13995888D02*
X8408229Y-13957793D01*
X8408229Y-13957793D02*
X8408229Y-13910174D01*
X8408229Y-13910174D02*
X8417753Y-13872079D01*
X8417753Y-13872079D02*
X8427277Y-13853031D01*
X8427277Y-13853031D02*
X8436801Y-13843508D01*
X8436801Y-13843508D02*
X8455848Y-13833984D01*
X8598706Y-13853031D02*
X8608229Y-13843508D01*
X8608229Y-13843508D02*
X8627277Y-13833984D01*
X8627277Y-13833984D02*
X8674896Y-13833984D01*
X8674896Y-13833984D02*
X8693944Y-13843508D01*
X8693944Y-13843508D02*
X8703468Y-13853031D01*
X8703468Y-13853031D02*
X8712991Y-13872079D01*
X8712991Y-13872079D02*
X8712991Y-13891127D01*
X8712991Y-13891127D02*
X8703468Y-13919698D01*
X8703468Y-13919698D02*
X8589182Y-14033984D01*
X8589182Y-14033984D02*
X8712991Y-14033984D01*
X8779658Y-13833984D02*
X8912991Y-13833984D01*
X8912991Y-13833984D02*
X8827277Y-14033984D01*
X9074896Y-13833984D02*
X9036801Y-13833984D01*
X9036801Y-13833984D02*
X9017753Y-13843508D01*
X9017753Y-13843508D02*
X9008229Y-13853031D01*
X9008229Y-13853031D02*
X8989182Y-13881603D01*
X8989182Y-13881603D02*
X8979658Y-13919698D01*
X8979658Y-13919698D02*
X8979658Y-13995888D01*
X8979658Y-13995888D02*
X8989182Y-14014936D01*
X8989182Y-14014936D02*
X8998706Y-14024460D01*
X8998706Y-14024460D02*
X9017753Y-14033984D01*
X9017753Y-14033984D02*
X9055849Y-14033984D01*
X9055849Y-14033984D02*
X9074896Y-14024460D01*
X9074896Y-14024460D02*
X9084420Y-14014936D01*
X9084420Y-14014936D02*
X9093944Y-13995888D01*
X9093944Y-13995888D02*
X9093944Y-13948269D01*
X9093944Y-13948269D02*
X9084420Y-13929222D01*
X9084420Y-13929222D02*
X9074896Y-13919698D01*
X9074896Y-13919698D02*
X9055849Y-13910174D01*
X9055849Y-13910174D02*
X9017753Y-13910174D01*
X9017753Y-13910174D02*
X8998706Y-13919698D01*
X8998706Y-13919698D02*
X8989182Y-13929222D01*
X8989182Y-13929222D02*
X8979658Y-13948269D01*
X9170134Y-13833984D02*
X9170134Y-13872079D01*
X9246325Y-13833984D02*
X9246325Y-13872079D01*
X9541563Y-14110174D02*
X9532039Y-14100650D01*
X9532039Y-14100650D02*
X9512991Y-14072079D01*
X9512991Y-14072079D02*
X9503468Y-14053031D01*
X9503468Y-14053031D02*
X9493944Y-14024460D01*
X9493944Y-14024460D02*
X9484420Y-13976841D01*
X9484420Y-13976841D02*
X9484420Y-13938746D01*
X9484420Y-13938746D02*
X9493944Y-13891127D01*
X9493944Y-13891127D02*
X9503468Y-13862555D01*
X9503468Y-13862555D02*
X9512991Y-13843508D01*
X9512991Y-13843508D02*
X9532039Y-13814936D01*
X9532039Y-13814936D02*
X9541563Y-13805412D01*
X9722515Y-14033984D02*
X9608230Y-14033984D01*
X9665372Y-14033984D02*
X9665372Y-13833984D01*
X9665372Y-13833984D02*
X9646325Y-13862555D01*
X9646325Y-13862555D02*
X9627277Y-13881603D01*
X9627277Y-13881603D02*
X9608230Y-13891127D01*
X9893944Y-13833984D02*
X9855849Y-13833984D01*
X9855849Y-13833984D02*
X9836801Y-13843508D01*
X9836801Y-13843508D02*
X9827277Y-13853031D01*
X9827277Y-13853031D02*
X9808230Y-13881603D01*
X9808230Y-13881603D02*
X9798706Y-13919698D01*
X9798706Y-13919698D02*
X9798706Y-13995888D01*
X9798706Y-13995888D02*
X9808230Y-14014936D01*
X9808230Y-14014936D02*
X9817753Y-14024460D01*
X9817753Y-14024460D02*
X9836801Y-14033984D01*
X9836801Y-14033984D02*
X9874896Y-14033984D01*
X9874896Y-14033984D02*
X9893944Y-14024460D01*
X9893944Y-14024460D02*
X9903468Y-14014936D01*
X9903468Y-14014936D02*
X9912991Y-13995888D01*
X9912991Y-13995888D02*
X9912991Y-13948269D01*
X9912991Y-13948269D02*
X9903468Y-13929222D01*
X9903468Y-13929222D02*
X9893944Y-13919698D01*
X9893944Y-13919698D02*
X9874896Y-13910174D01*
X9874896Y-13910174D02*
X9836801Y-13910174D01*
X9836801Y-13910174D02*
X9817753Y-13919698D01*
X9817753Y-13919698D02*
X9808230Y-13929222D01*
X9808230Y-13929222D02*
X9798706Y-13948269D01*
X10151087Y-14033984D02*
X10151087Y-13833984D01*
X10236801Y-14033984D02*
X10236801Y-13929222D01*
X10236801Y-13929222D02*
X10227277Y-13910174D01*
X10227277Y-13910174D02*
X10208230Y-13900650D01*
X10208230Y-13900650D02*
X10179658Y-13900650D01*
X10179658Y-13900650D02*
X10160611Y-13910174D01*
X10160611Y-13910174D02*
X10151087Y-13919698D01*
X10360611Y-14033984D02*
X10341563Y-14024460D01*
X10341563Y-14024460D02*
X10332039Y-14014936D01*
X10332039Y-14014936D02*
X10322515Y-13995888D01*
X10322515Y-13995888D02*
X10322515Y-13938746D01*
X10322515Y-13938746D02*
X10332039Y-13919698D01*
X10332039Y-13919698D02*
X10341563Y-13910174D01*
X10341563Y-13910174D02*
X10360611Y-13900650D01*
X10360611Y-13900650D02*
X10389182Y-13900650D01*
X10389182Y-13900650D02*
X10408230Y-13910174D01*
X10408230Y-13910174D02*
X10417753Y-13919698D01*
X10417753Y-13919698D02*
X10427277Y-13938746D01*
X10427277Y-13938746D02*
X10427277Y-13995888D01*
X10427277Y-13995888D02*
X10417753Y-14014936D01*
X10417753Y-14014936D02*
X10408230Y-14024460D01*
X10408230Y-14024460D02*
X10389182Y-14033984D01*
X10389182Y-14033984D02*
X10360611Y-14033984D01*
X10541563Y-14033984D02*
X10522515Y-14024460D01*
X10522515Y-14024460D02*
X10512992Y-14005412D01*
X10512992Y-14005412D02*
X10512992Y-13833984D01*
X10693944Y-14024460D02*
X10674896Y-14033984D01*
X10674896Y-14033984D02*
X10636801Y-14033984D01*
X10636801Y-14033984D02*
X10617753Y-14024460D01*
X10617753Y-14024460D02*
X10608230Y-14005412D01*
X10608230Y-14005412D02*
X10608230Y-13929222D01*
X10608230Y-13929222D02*
X10617753Y-13910174D01*
X10617753Y-13910174D02*
X10636801Y-13900650D01*
X10636801Y-13900650D02*
X10674896Y-13900650D01*
X10674896Y-13900650D02*
X10693944Y-13910174D01*
X10693944Y-13910174D02*
X10703468Y-13929222D01*
X10703468Y-13929222D02*
X10703468Y-13948269D01*
X10703468Y-13948269D02*
X10608230Y-13967317D01*
X10779658Y-14024460D02*
X10798706Y-14033984D01*
X10798706Y-14033984D02*
X10836801Y-14033984D01*
X10836801Y-14033984D02*
X10855849Y-14024460D01*
X10855849Y-14024460D02*
X10865373Y-14005412D01*
X10865373Y-14005412D02*
X10865373Y-13995888D01*
X10865373Y-13995888D02*
X10855849Y-13976841D01*
X10855849Y-13976841D02*
X10836801Y-13967317D01*
X10836801Y-13967317D02*
X10808230Y-13967317D01*
X10808230Y-13967317D02*
X10789182Y-13957793D01*
X10789182Y-13957793D02*
X10779658Y-13938746D01*
X10779658Y-13938746D02*
X10779658Y-13929222D01*
X10779658Y-13929222D02*
X10789182Y-13910174D01*
X10789182Y-13910174D02*
X10808230Y-13900650D01*
X10808230Y-13900650D02*
X10836801Y-13900650D01*
X10836801Y-13900650D02*
X10855849Y-13910174D01*
X10932039Y-14110174D02*
X10941563Y-14100650D01*
X10941563Y-14100650D02*
X10960611Y-14072079D01*
X10960611Y-14072079D02*
X10970134Y-14053031D01*
X10970134Y-14053031D02*
X10979658Y-14024460D01*
X10979658Y-14024460D02*
X10989182Y-13976841D01*
X10989182Y-13976841D02*
X10989182Y-13938746D01*
X10989182Y-13938746D02*
X10979658Y-13891127D01*
X10979658Y-13891127D02*
X10970134Y-13862555D01*
X10970134Y-13862555D02*
X10960611Y-13843508D01*
X10960611Y-13843508D02*
X10941563Y-13814936D01*
X10941563Y-13814936D02*
X10932039Y-13805412D01*
D12*
X5966500Y-14206500D02*
G75*
G02*
X5886500Y-14206500I-40000J0D01*
G01*
X5886500Y-14206500D02*
G75*
G02*
X5966500Y-14206500I40000J0D01*
G01*
D11*
X6265372Y-14097984D02*
X6284420Y-14097984D01*
X6284420Y-14097984D02*
X6303467Y-14107508D01*
X6303467Y-14107508D02*
X6312991Y-14117031D01*
X6312991Y-14117031D02*
X6322515Y-14136079D01*
X6322515Y-14136079D02*
X6332039Y-14174174D01*
X6332039Y-14174174D02*
X6332039Y-14221793D01*
X6332039Y-14221793D02*
X6322515Y-14259888D01*
X6322515Y-14259888D02*
X6312991Y-14278936D01*
X6312991Y-14278936D02*
X6303467Y-14288460D01*
X6303467Y-14288460D02*
X6284420Y-14297984D01*
X6284420Y-14297984D02*
X6265372Y-14297984D01*
X6265372Y-14297984D02*
X6246324Y-14288460D01*
X6246324Y-14288460D02*
X6236801Y-14278936D01*
X6236801Y-14278936D02*
X6227277Y-14259888D01*
X6227277Y-14259888D02*
X6217753Y-14221793D01*
X6217753Y-14221793D02*
X6217753Y-14174174D01*
X6217753Y-14174174D02*
X6227277Y-14136079D01*
X6227277Y-14136079D02*
X6236801Y-14117031D01*
X6236801Y-14117031D02*
X6246324Y-14107508D01*
X6246324Y-14107508D02*
X6265372Y-14097984D01*
X6417753Y-14278936D02*
X6427277Y-14288460D01*
X6427277Y-14288460D02*
X6417753Y-14297984D01*
X6417753Y-14297984D02*
X6408229Y-14288460D01*
X6408229Y-14288460D02*
X6417753Y-14278936D01*
X6417753Y-14278936D02*
X6417753Y-14297984D01*
X6541562Y-14183698D02*
X6522515Y-14174174D01*
X6522515Y-14174174D02*
X6512991Y-14164650D01*
X6512991Y-14164650D02*
X6503467Y-14145603D01*
X6503467Y-14145603D02*
X6503467Y-14136079D01*
X6503467Y-14136079D02*
X6512991Y-14117031D01*
X6512991Y-14117031D02*
X6522515Y-14107508D01*
X6522515Y-14107508D02*
X6541562Y-14097984D01*
X6541562Y-14097984D02*
X6579658Y-14097984D01*
X6579658Y-14097984D02*
X6598705Y-14107508D01*
X6598705Y-14107508D02*
X6608229Y-14117031D01*
X6608229Y-14117031D02*
X6617753Y-14136079D01*
X6617753Y-14136079D02*
X6617753Y-14145603D01*
X6617753Y-14145603D02*
X6608229Y-14164650D01*
X6608229Y-14164650D02*
X6598705Y-14174174D01*
X6598705Y-14174174D02*
X6579658Y-14183698D01*
X6579658Y-14183698D02*
X6541562Y-14183698D01*
X6541562Y-14183698D02*
X6522515Y-14193222D01*
X6522515Y-14193222D02*
X6512991Y-14202746D01*
X6512991Y-14202746D02*
X6503467Y-14221793D01*
X6503467Y-14221793D02*
X6503467Y-14259888D01*
X6503467Y-14259888D02*
X6512991Y-14278936D01*
X6512991Y-14278936D02*
X6522515Y-14288460D01*
X6522515Y-14288460D02*
X6541562Y-14297984D01*
X6541562Y-14297984D02*
X6579658Y-14297984D01*
X6579658Y-14297984D02*
X6598705Y-14288460D01*
X6598705Y-14288460D02*
X6608229Y-14278936D01*
X6608229Y-14278936D02*
X6617753Y-14259888D01*
X6617753Y-14259888D02*
X6617753Y-14221793D01*
X6617753Y-14221793D02*
X6608229Y-14202746D01*
X6608229Y-14202746D02*
X6598705Y-14193222D01*
X6598705Y-14193222D02*
X6579658Y-14183698D01*
X6741562Y-14097984D02*
X6760610Y-14097984D01*
X6760610Y-14097984D02*
X6779658Y-14107508D01*
X6779658Y-14107508D02*
X6789182Y-14117031D01*
X6789182Y-14117031D02*
X6798705Y-14136079D01*
X6798705Y-14136079D02*
X6808229Y-14174174D01*
X6808229Y-14174174D02*
X6808229Y-14221793D01*
X6808229Y-14221793D02*
X6798705Y-14259888D01*
X6798705Y-14259888D02*
X6789182Y-14278936D01*
X6789182Y-14278936D02*
X6779658Y-14288460D01*
X6779658Y-14288460D02*
X6760610Y-14297984D01*
X6760610Y-14297984D02*
X6741562Y-14297984D01*
X6741562Y-14297984D02*
X6722515Y-14288460D01*
X6722515Y-14288460D02*
X6712991Y-14278936D01*
X6712991Y-14278936D02*
X6703467Y-14259888D01*
X6703467Y-14259888D02*
X6693943Y-14221793D01*
X6693943Y-14221793D02*
X6693943Y-14174174D01*
X6693943Y-14174174D02*
X6703467Y-14136079D01*
X6703467Y-14136079D02*
X6712991Y-14117031D01*
X6712991Y-14117031D02*
X6722515Y-14107508D01*
X6722515Y-14107508D02*
X6741562Y-14097984D01*
X6932039Y-14097984D02*
X6951086Y-14097984D01*
X6951086Y-14097984D02*
X6970134Y-14107508D01*
X6970134Y-14107508D02*
X6979658Y-14117031D01*
X6979658Y-14117031D02*
X6989182Y-14136079D01*
X6989182Y-14136079D02*
X6998705Y-14174174D01*
X6998705Y-14174174D02*
X6998705Y-14221793D01*
X6998705Y-14221793D02*
X6989182Y-14259888D01*
X6989182Y-14259888D02*
X6979658Y-14278936D01*
X6979658Y-14278936D02*
X6970134Y-14288460D01*
X6970134Y-14288460D02*
X6951086Y-14297984D01*
X6951086Y-14297984D02*
X6932039Y-14297984D01*
X6932039Y-14297984D02*
X6912991Y-14288460D01*
X6912991Y-14288460D02*
X6903467Y-14278936D01*
X6903467Y-14278936D02*
X6893943Y-14259888D01*
X6893943Y-14259888D02*
X6884420Y-14221793D01*
X6884420Y-14221793D02*
X6884420Y-14174174D01*
X6884420Y-14174174D02*
X6893943Y-14136079D01*
X6893943Y-14136079D02*
X6903467Y-14117031D01*
X6903467Y-14117031D02*
X6912991Y-14107508D01*
X6912991Y-14107508D02*
X6932039Y-14097984D01*
X7084420Y-14297984D02*
X7084420Y-14164650D01*
X7084420Y-14183698D02*
X7093943Y-14174174D01*
X7093943Y-14174174D02*
X7112991Y-14164650D01*
X7112991Y-14164650D02*
X7141563Y-14164650D01*
X7141563Y-14164650D02*
X7160610Y-14174174D01*
X7160610Y-14174174D02*
X7170134Y-14193222D01*
X7170134Y-14193222D02*
X7170134Y-14297984D01*
X7170134Y-14193222D02*
X7179658Y-14174174D01*
X7179658Y-14174174D02*
X7198705Y-14164650D01*
X7198705Y-14164650D02*
X7227277Y-14164650D01*
X7227277Y-14164650D02*
X7246324Y-14174174D01*
X7246324Y-14174174D02*
X7255848Y-14193222D01*
X7255848Y-14193222D02*
X7255848Y-14297984D01*
X7351086Y-14297984D02*
X7351086Y-14164650D01*
X7351086Y-14183698D02*
X7360610Y-14174174D01*
X7360610Y-14174174D02*
X7379658Y-14164650D01*
X7379658Y-14164650D02*
X7408229Y-14164650D01*
X7408229Y-14164650D02*
X7427277Y-14174174D01*
X7427277Y-14174174D02*
X7436801Y-14193222D01*
X7436801Y-14193222D02*
X7436801Y-14297984D01*
X7436801Y-14193222D02*
X7446324Y-14174174D01*
X7446324Y-14174174D02*
X7465372Y-14164650D01*
X7465372Y-14164650D02*
X7493943Y-14164650D01*
X7493943Y-14164650D02*
X7512991Y-14174174D01*
X7512991Y-14174174D02*
X7522515Y-14193222D01*
X7522515Y-14193222D02*
X7522515Y-14297984D01*
X7912991Y-14088460D02*
X7741563Y-14345603D01*
X8170134Y-14097984D02*
X8189182Y-14097984D01*
X8189182Y-14097984D02*
X8208229Y-14107508D01*
X8208229Y-14107508D02*
X8217753Y-14117031D01*
X8217753Y-14117031D02*
X8227277Y-14136079D01*
X8227277Y-14136079D02*
X8236801Y-14174174D01*
X8236801Y-14174174D02*
X8236801Y-14221793D01*
X8236801Y-14221793D02*
X8227277Y-14259888D01*
X8227277Y-14259888D02*
X8217753Y-14278936D01*
X8217753Y-14278936D02*
X8208229Y-14288460D01*
X8208229Y-14288460D02*
X8189182Y-14297984D01*
X8189182Y-14297984D02*
X8170134Y-14297984D01*
X8170134Y-14297984D02*
X8151086Y-14288460D01*
X8151086Y-14288460D02*
X8141563Y-14278936D01*
X8141563Y-14278936D02*
X8132039Y-14259888D01*
X8132039Y-14259888D02*
X8122515Y-14221793D01*
X8122515Y-14221793D02*
X8122515Y-14174174D01*
X8122515Y-14174174D02*
X8132039Y-14136079D01*
X8132039Y-14136079D02*
X8141563Y-14117031D01*
X8141563Y-14117031D02*
X8151086Y-14107508D01*
X8151086Y-14107508D02*
X8170134Y-14097984D01*
X8322515Y-14278936D02*
X8332039Y-14288460D01*
X8332039Y-14288460D02*
X8322515Y-14297984D01*
X8322515Y-14297984D02*
X8312991Y-14288460D01*
X8312991Y-14288460D02*
X8322515Y-14278936D01*
X8322515Y-14278936D02*
X8322515Y-14297984D01*
X8455848Y-14097984D02*
X8474896Y-14097984D01*
X8474896Y-14097984D02*
X8493944Y-14107508D01*
X8493944Y-14107508D02*
X8503468Y-14117031D01*
X8503468Y-14117031D02*
X8512991Y-14136079D01*
X8512991Y-14136079D02*
X8522515Y-14174174D01*
X8522515Y-14174174D02*
X8522515Y-14221793D01*
X8522515Y-14221793D02*
X8512991Y-14259888D01*
X8512991Y-14259888D02*
X8503468Y-14278936D01*
X8503468Y-14278936D02*
X8493944Y-14288460D01*
X8493944Y-14288460D02*
X8474896Y-14297984D01*
X8474896Y-14297984D02*
X8455848Y-14297984D01*
X8455848Y-14297984D02*
X8436801Y-14288460D01*
X8436801Y-14288460D02*
X8427277Y-14278936D01*
X8427277Y-14278936D02*
X8417753Y-14259888D01*
X8417753Y-14259888D02*
X8408229Y-14221793D01*
X8408229Y-14221793D02*
X8408229Y-14174174D01*
X8408229Y-14174174D02*
X8417753Y-14136079D01*
X8417753Y-14136079D02*
X8427277Y-14117031D01*
X8427277Y-14117031D02*
X8436801Y-14107508D01*
X8436801Y-14107508D02*
X8455848Y-14097984D01*
X8589182Y-14097984D02*
X8712991Y-14097984D01*
X8712991Y-14097984D02*
X8646325Y-14174174D01*
X8646325Y-14174174D02*
X8674896Y-14174174D01*
X8674896Y-14174174D02*
X8693944Y-14183698D01*
X8693944Y-14183698D02*
X8703468Y-14193222D01*
X8703468Y-14193222D02*
X8712991Y-14212269D01*
X8712991Y-14212269D02*
X8712991Y-14259888D01*
X8712991Y-14259888D02*
X8703468Y-14278936D01*
X8703468Y-14278936D02*
X8693944Y-14288460D01*
X8693944Y-14288460D02*
X8674896Y-14297984D01*
X8674896Y-14297984D02*
X8617753Y-14297984D01*
X8617753Y-14297984D02*
X8598706Y-14288460D01*
X8598706Y-14288460D02*
X8589182Y-14278936D01*
X8903468Y-14297984D02*
X8789182Y-14297984D01*
X8846325Y-14297984D02*
X8846325Y-14097984D01*
X8846325Y-14097984D02*
X8827277Y-14126555D01*
X8827277Y-14126555D02*
X8808229Y-14145603D01*
X8808229Y-14145603D02*
X8789182Y-14155127D01*
X9084420Y-14097984D02*
X8989182Y-14097984D01*
X8989182Y-14097984D02*
X8979658Y-14193222D01*
X8979658Y-14193222D02*
X8989182Y-14183698D01*
X8989182Y-14183698D02*
X9008229Y-14174174D01*
X9008229Y-14174174D02*
X9055849Y-14174174D01*
X9055849Y-14174174D02*
X9074896Y-14183698D01*
X9074896Y-14183698D02*
X9084420Y-14193222D01*
X9084420Y-14193222D02*
X9093944Y-14212269D01*
X9093944Y-14212269D02*
X9093944Y-14259888D01*
X9093944Y-14259888D02*
X9084420Y-14278936D01*
X9084420Y-14278936D02*
X9074896Y-14288460D01*
X9074896Y-14288460D02*
X9055849Y-14297984D01*
X9055849Y-14297984D02*
X9008229Y-14297984D01*
X9008229Y-14297984D02*
X8989182Y-14288460D01*
X8989182Y-14288460D02*
X8979658Y-14278936D01*
X9170134Y-14097984D02*
X9170134Y-14136079D01*
X9246325Y-14097984D02*
X9246325Y-14136079D01*
X9541563Y-14374174D02*
X9532039Y-14364650D01*
X9532039Y-14364650D02*
X9512991Y-14336079D01*
X9512991Y-14336079D02*
X9503468Y-14317031D01*
X9503468Y-14317031D02*
X9493944Y-14288460D01*
X9493944Y-14288460D02*
X9484420Y-14240841D01*
X9484420Y-14240841D02*
X9484420Y-14202746D01*
X9484420Y-14202746D02*
X9493944Y-14155127D01*
X9493944Y-14155127D02*
X9503468Y-14126555D01*
X9503468Y-14126555D02*
X9512991Y-14107508D01*
X9512991Y-14107508D02*
X9532039Y-14078936D01*
X9532039Y-14078936D02*
X9541563Y-14069412D01*
X9703468Y-14164650D02*
X9703468Y-14297984D01*
X9655849Y-14088460D02*
X9608230Y-14231317D01*
X9608230Y-14231317D02*
X9732039Y-14231317D01*
X9893944Y-14097984D02*
X9855849Y-14097984D01*
X9855849Y-14097984D02*
X9836801Y-14107508D01*
X9836801Y-14107508D02*
X9827277Y-14117031D01*
X9827277Y-14117031D02*
X9808230Y-14145603D01*
X9808230Y-14145603D02*
X9798706Y-14183698D01*
X9798706Y-14183698D02*
X9798706Y-14259888D01*
X9798706Y-14259888D02*
X9808230Y-14278936D01*
X9808230Y-14278936D02*
X9817753Y-14288460D01*
X9817753Y-14288460D02*
X9836801Y-14297984D01*
X9836801Y-14297984D02*
X9874896Y-14297984D01*
X9874896Y-14297984D02*
X9893944Y-14288460D01*
X9893944Y-14288460D02*
X9903468Y-14278936D01*
X9903468Y-14278936D02*
X9912991Y-14259888D01*
X9912991Y-14259888D02*
X9912991Y-14212269D01*
X9912991Y-14212269D02*
X9903468Y-14193222D01*
X9903468Y-14193222D02*
X9893944Y-14183698D01*
X9893944Y-14183698D02*
X9874896Y-14174174D01*
X9874896Y-14174174D02*
X9836801Y-14174174D01*
X9836801Y-14174174D02*
X9817753Y-14183698D01*
X9817753Y-14183698D02*
X9808230Y-14193222D01*
X9808230Y-14193222D02*
X9798706Y-14212269D01*
X10151087Y-14297984D02*
X10151087Y-14097984D01*
X10236801Y-14297984D02*
X10236801Y-14193222D01*
X10236801Y-14193222D02*
X10227277Y-14174174D01*
X10227277Y-14174174D02*
X10208230Y-14164650D01*
X10208230Y-14164650D02*
X10179658Y-14164650D01*
X10179658Y-14164650D02*
X10160611Y-14174174D01*
X10160611Y-14174174D02*
X10151087Y-14183698D01*
X10360611Y-14297984D02*
X10341563Y-14288460D01*
X10341563Y-14288460D02*
X10332039Y-14278936D01*
X10332039Y-14278936D02*
X10322515Y-14259888D01*
X10322515Y-14259888D02*
X10322515Y-14202746D01*
X10322515Y-14202746D02*
X10332039Y-14183698D01*
X10332039Y-14183698D02*
X10341563Y-14174174D01*
X10341563Y-14174174D02*
X10360611Y-14164650D01*
X10360611Y-14164650D02*
X10389182Y-14164650D01*
X10389182Y-14164650D02*
X10408230Y-14174174D01*
X10408230Y-14174174D02*
X10417753Y-14183698D01*
X10417753Y-14183698D02*
X10427277Y-14202746D01*
X10427277Y-14202746D02*
X10427277Y-14259888D01*
X10427277Y-14259888D02*
X10417753Y-14278936D01*
X10417753Y-14278936D02*
X10408230Y-14288460D01*
X10408230Y-14288460D02*
X10389182Y-14297984D01*
X10389182Y-14297984D02*
X10360611Y-14297984D01*
X10541563Y-14297984D02*
X10522515Y-14288460D01*
X10522515Y-14288460D02*
X10512992Y-14269412D01*
X10512992Y-14269412D02*
X10512992Y-14097984D01*
X10693944Y-14288460D02*
X10674896Y-14297984D01*
X10674896Y-14297984D02*
X10636801Y-14297984D01*
X10636801Y-14297984D02*
X10617753Y-14288460D01*
X10617753Y-14288460D02*
X10608230Y-14269412D01*
X10608230Y-14269412D02*
X10608230Y-14193222D01*
X10608230Y-14193222D02*
X10617753Y-14174174D01*
X10617753Y-14174174D02*
X10636801Y-14164650D01*
X10636801Y-14164650D02*
X10674896Y-14164650D01*
X10674896Y-14164650D02*
X10693944Y-14174174D01*
X10693944Y-14174174D02*
X10703468Y-14193222D01*
X10703468Y-14193222D02*
X10703468Y-14212269D01*
X10703468Y-14212269D02*
X10608230Y-14231317D01*
X10779658Y-14288460D02*
X10798706Y-14297984D01*
X10798706Y-14297984D02*
X10836801Y-14297984D01*
X10836801Y-14297984D02*
X10855849Y-14288460D01*
X10855849Y-14288460D02*
X10865373Y-14269412D01*
X10865373Y-14269412D02*
X10865373Y-14259888D01*
X10865373Y-14259888D02*
X10855849Y-14240841D01*
X10855849Y-14240841D02*
X10836801Y-14231317D01*
X10836801Y-14231317D02*
X10808230Y-14231317D01*
X10808230Y-14231317D02*
X10789182Y-14221793D01*
X10789182Y-14221793D02*
X10779658Y-14202746D01*
X10779658Y-14202746D02*
X10779658Y-14193222D01*
X10779658Y-14193222D02*
X10789182Y-14174174D01*
X10789182Y-14174174D02*
X10808230Y-14164650D01*
X10808230Y-14164650D02*
X10836801Y-14164650D01*
X10836801Y-14164650D02*
X10855849Y-14174174D01*
X10932039Y-14374174D02*
X10941563Y-14364650D01*
X10941563Y-14364650D02*
X10960611Y-14336079D01*
X10960611Y-14336079D02*
X10970134Y-14317031D01*
X10970134Y-14317031D02*
X10979658Y-14288460D01*
X10979658Y-14288460D02*
X10989182Y-14240841D01*
X10989182Y-14240841D02*
X10989182Y-14202746D01*
X10989182Y-14202746D02*
X10979658Y-14155127D01*
X10979658Y-14155127D02*
X10970134Y-14126555D01*
X10970134Y-14126555D02*
X10960611Y-14107508D01*
X10960611Y-14107508D02*
X10941563Y-14078936D01*
X10941563Y-14078936D02*
X10932039Y-14069412D01*
D12*
X5919000Y-14423000D02*
X5919000Y-14518000D01*
X5871500Y-14470500D02*
X5966500Y-14470500D01*
D11*
X6265372Y-14361984D02*
X6284420Y-14361984D01*
X6284420Y-14361984D02*
X6303467Y-14371508D01*
X6303467Y-14371508D02*
X6312991Y-14381031D01*
X6312991Y-14381031D02*
X6322515Y-14400079D01*
X6322515Y-14400079D02*
X6332039Y-14438174D01*
X6332039Y-14438174D02*
X6332039Y-14485793D01*
X6332039Y-14485793D02*
X6322515Y-14523888D01*
X6322515Y-14523888D02*
X6312991Y-14542936D01*
X6312991Y-14542936D02*
X6303467Y-14552460D01*
X6303467Y-14552460D02*
X6284420Y-14561984D01*
X6284420Y-14561984D02*
X6265372Y-14561984D01*
X6265372Y-14561984D02*
X6246324Y-14552460D01*
X6246324Y-14552460D02*
X6236801Y-14542936D01*
X6236801Y-14542936D02*
X6227277Y-14523888D01*
X6227277Y-14523888D02*
X6217753Y-14485793D01*
X6217753Y-14485793D02*
X6217753Y-14438174D01*
X6217753Y-14438174D02*
X6227277Y-14400079D01*
X6227277Y-14400079D02*
X6236801Y-14381031D01*
X6236801Y-14381031D02*
X6246324Y-14371508D01*
X6246324Y-14371508D02*
X6265372Y-14361984D01*
X6417753Y-14542936D02*
X6427277Y-14552460D01*
X6427277Y-14552460D02*
X6417753Y-14561984D01*
X6417753Y-14561984D02*
X6408229Y-14552460D01*
X6408229Y-14552460D02*
X6417753Y-14542936D01*
X6417753Y-14542936D02*
X6417753Y-14561984D01*
X6522515Y-14561984D02*
X6560610Y-14561984D01*
X6560610Y-14561984D02*
X6579658Y-14552460D01*
X6579658Y-14552460D02*
X6589182Y-14542936D01*
X6589182Y-14542936D02*
X6608229Y-14514365D01*
X6608229Y-14514365D02*
X6617753Y-14476269D01*
X6617753Y-14476269D02*
X6617753Y-14400079D01*
X6617753Y-14400079D02*
X6608229Y-14381031D01*
X6608229Y-14381031D02*
X6598705Y-14371508D01*
X6598705Y-14371508D02*
X6579658Y-14361984D01*
X6579658Y-14361984D02*
X6541562Y-14361984D01*
X6541562Y-14361984D02*
X6522515Y-14371508D01*
X6522515Y-14371508D02*
X6512991Y-14381031D01*
X6512991Y-14381031D02*
X6503467Y-14400079D01*
X6503467Y-14400079D02*
X6503467Y-14447698D01*
X6503467Y-14447698D02*
X6512991Y-14466746D01*
X6512991Y-14466746D02*
X6522515Y-14476269D01*
X6522515Y-14476269D02*
X6541562Y-14485793D01*
X6541562Y-14485793D02*
X6579658Y-14485793D01*
X6579658Y-14485793D02*
X6598705Y-14476269D01*
X6598705Y-14476269D02*
X6608229Y-14466746D01*
X6608229Y-14466746D02*
X6617753Y-14447698D01*
X6798705Y-14361984D02*
X6703467Y-14361984D01*
X6703467Y-14361984D02*
X6693943Y-14457222D01*
X6693943Y-14457222D02*
X6703467Y-14447698D01*
X6703467Y-14447698D02*
X6722515Y-14438174D01*
X6722515Y-14438174D02*
X6770134Y-14438174D01*
X6770134Y-14438174D02*
X6789182Y-14447698D01*
X6789182Y-14447698D02*
X6798705Y-14457222D01*
X6798705Y-14457222D02*
X6808229Y-14476269D01*
X6808229Y-14476269D02*
X6808229Y-14523888D01*
X6808229Y-14523888D02*
X6798705Y-14542936D01*
X6798705Y-14542936D02*
X6789182Y-14552460D01*
X6789182Y-14552460D02*
X6770134Y-14561984D01*
X6770134Y-14561984D02*
X6722515Y-14561984D01*
X6722515Y-14561984D02*
X6703467Y-14552460D01*
X6703467Y-14552460D02*
X6693943Y-14542936D01*
X6932039Y-14361984D02*
X6951086Y-14361984D01*
X6951086Y-14361984D02*
X6970134Y-14371508D01*
X6970134Y-14371508D02*
X6979658Y-14381031D01*
X6979658Y-14381031D02*
X6989182Y-14400079D01*
X6989182Y-14400079D02*
X6998705Y-14438174D01*
X6998705Y-14438174D02*
X6998705Y-14485793D01*
X6998705Y-14485793D02*
X6989182Y-14523888D01*
X6989182Y-14523888D02*
X6979658Y-14542936D01*
X6979658Y-14542936D02*
X6970134Y-14552460D01*
X6970134Y-14552460D02*
X6951086Y-14561984D01*
X6951086Y-14561984D02*
X6932039Y-14561984D01*
X6932039Y-14561984D02*
X6912991Y-14552460D01*
X6912991Y-14552460D02*
X6903467Y-14542936D01*
X6903467Y-14542936D02*
X6893943Y-14523888D01*
X6893943Y-14523888D02*
X6884420Y-14485793D01*
X6884420Y-14485793D02*
X6884420Y-14438174D01*
X6884420Y-14438174D02*
X6893943Y-14400079D01*
X6893943Y-14400079D02*
X6903467Y-14381031D01*
X6903467Y-14381031D02*
X6912991Y-14371508D01*
X6912991Y-14371508D02*
X6932039Y-14361984D01*
X7084420Y-14561984D02*
X7084420Y-14428650D01*
X7084420Y-14447698D02*
X7093943Y-14438174D01*
X7093943Y-14438174D02*
X7112991Y-14428650D01*
X7112991Y-14428650D02*
X7141563Y-14428650D01*
X7141563Y-14428650D02*
X7160610Y-14438174D01*
X7160610Y-14438174D02*
X7170134Y-14457222D01*
X7170134Y-14457222D02*
X7170134Y-14561984D01*
X7170134Y-14457222D02*
X7179658Y-14438174D01*
X7179658Y-14438174D02*
X7198705Y-14428650D01*
X7198705Y-14428650D02*
X7227277Y-14428650D01*
X7227277Y-14428650D02*
X7246324Y-14438174D01*
X7246324Y-14438174D02*
X7255848Y-14457222D01*
X7255848Y-14457222D02*
X7255848Y-14561984D01*
X7351086Y-14561984D02*
X7351086Y-14428650D01*
X7351086Y-14447698D02*
X7360610Y-14438174D01*
X7360610Y-14438174D02*
X7379658Y-14428650D01*
X7379658Y-14428650D02*
X7408229Y-14428650D01*
X7408229Y-14428650D02*
X7427277Y-14438174D01*
X7427277Y-14438174D02*
X7436801Y-14457222D01*
X7436801Y-14457222D02*
X7436801Y-14561984D01*
X7436801Y-14457222D02*
X7446324Y-14438174D01*
X7446324Y-14438174D02*
X7465372Y-14428650D01*
X7465372Y-14428650D02*
X7493943Y-14428650D01*
X7493943Y-14428650D02*
X7512991Y-14438174D01*
X7512991Y-14438174D02*
X7522515Y-14457222D01*
X7522515Y-14457222D02*
X7522515Y-14561984D01*
X7912991Y-14352460D02*
X7741563Y-14609603D01*
X8170134Y-14361984D02*
X8189182Y-14361984D01*
X8189182Y-14361984D02*
X8208229Y-14371508D01*
X8208229Y-14371508D02*
X8217753Y-14381031D01*
X8217753Y-14381031D02*
X8227277Y-14400079D01*
X8227277Y-14400079D02*
X8236801Y-14438174D01*
X8236801Y-14438174D02*
X8236801Y-14485793D01*
X8236801Y-14485793D02*
X8227277Y-14523888D01*
X8227277Y-14523888D02*
X8217753Y-14542936D01*
X8217753Y-14542936D02*
X8208229Y-14552460D01*
X8208229Y-14552460D02*
X8189182Y-14561984D01*
X8189182Y-14561984D02*
X8170134Y-14561984D01*
X8170134Y-14561984D02*
X8151086Y-14552460D01*
X8151086Y-14552460D02*
X8141563Y-14542936D01*
X8141563Y-14542936D02*
X8132039Y-14523888D01*
X8132039Y-14523888D02*
X8122515Y-14485793D01*
X8122515Y-14485793D02*
X8122515Y-14438174D01*
X8122515Y-14438174D02*
X8132039Y-14400079D01*
X8132039Y-14400079D02*
X8141563Y-14381031D01*
X8141563Y-14381031D02*
X8151086Y-14371508D01*
X8151086Y-14371508D02*
X8170134Y-14361984D01*
X8322515Y-14542936D02*
X8332039Y-14552460D01*
X8332039Y-14552460D02*
X8322515Y-14561984D01*
X8322515Y-14561984D02*
X8312991Y-14552460D01*
X8312991Y-14552460D02*
X8322515Y-14542936D01*
X8322515Y-14542936D02*
X8322515Y-14561984D01*
X8455848Y-14361984D02*
X8474896Y-14361984D01*
X8474896Y-14361984D02*
X8493944Y-14371508D01*
X8493944Y-14371508D02*
X8503468Y-14381031D01*
X8503468Y-14381031D02*
X8512991Y-14400079D01*
X8512991Y-14400079D02*
X8522515Y-14438174D01*
X8522515Y-14438174D02*
X8522515Y-14485793D01*
X8522515Y-14485793D02*
X8512991Y-14523888D01*
X8512991Y-14523888D02*
X8503468Y-14542936D01*
X8503468Y-14542936D02*
X8493944Y-14552460D01*
X8493944Y-14552460D02*
X8474896Y-14561984D01*
X8474896Y-14561984D02*
X8455848Y-14561984D01*
X8455848Y-14561984D02*
X8436801Y-14552460D01*
X8436801Y-14552460D02*
X8427277Y-14542936D01*
X8427277Y-14542936D02*
X8417753Y-14523888D01*
X8417753Y-14523888D02*
X8408229Y-14485793D01*
X8408229Y-14485793D02*
X8408229Y-14438174D01*
X8408229Y-14438174D02*
X8417753Y-14400079D01*
X8417753Y-14400079D02*
X8427277Y-14381031D01*
X8427277Y-14381031D02*
X8436801Y-14371508D01*
X8436801Y-14371508D02*
X8455848Y-14361984D01*
X8589182Y-14361984D02*
X8712991Y-14361984D01*
X8712991Y-14361984D02*
X8646325Y-14438174D01*
X8646325Y-14438174D02*
X8674896Y-14438174D01*
X8674896Y-14438174D02*
X8693944Y-14447698D01*
X8693944Y-14447698D02*
X8703468Y-14457222D01*
X8703468Y-14457222D02*
X8712991Y-14476269D01*
X8712991Y-14476269D02*
X8712991Y-14523888D01*
X8712991Y-14523888D02*
X8703468Y-14542936D01*
X8703468Y-14542936D02*
X8693944Y-14552460D01*
X8693944Y-14552460D02*
X8674896Y-14561984D01*
X8674896Y-14561984D02*
X8617753Y-14561984D01*
X8617753Y-14561984D02*
X8598706Y-14552460D01*
X8598706Y-14552460D02*
X8589182Y-14542936D01*
X8779658Y-14361984D02*
X8912991Y-14361984D01*
X8912991Y-14361984D02*
X8827277Y-14561984D01*
X9074896Y-14428650D02*
X9074896Y-14561984D01*
X9027277Y-14352460D02*
X8979658Y-14495317D01*
X8979658Y-14495317D02*
X9103468Y-14495317D01*
X9170134Y-14361984D02*
X9170134Y-14400079D01*
X9246325Y-14361984D02*
X9246325Y-14400079D01*
X9541563Y-14638174D02*
X9532039Y-14628650D01*
X9532039Y-14628650D02*
X9512991Y-14600079D01*
X9512991Y-14600079D02*
X9503468Y-14581031D01*
X9503468Y-14581031D02*
X9493944Y-14552460D01*
X9493944Y-14552460D02*
X9484420Y-14504841D01*
X9484420Y-14504841D02*
X9484420Y-14466746D01*
X9484420Y-14466746D02*
X9493944Y-14419127D01*
X9493944Y-14419127D02*
X9503468Y-14390555D01*
X9503468Y-14390555D02*
X9512991Y-14371508D01*
X9512991Y-14371508D02*
X9532039Y-14342936D01*
X9532039Y-14342936D02*
X9541563Y-14333412D01*
X9722515Y-14561984D02*
X9608230Y-14561984D01*
X9665372Y-14561984D02*
X9665372Y-14361984D01*
X9665372Y-14361984D02*
X9646325Y-14390555D01*
X9646325Y-14390555D02*
X9627277Y-14409603D01*
X9627277Y-14409603D02*
X9608230Y-14419127D01*
X9836801Y-14447698D02*
X9817753Y-14438174D01*
X9817753Y-14438174D02*
X9808230Y-14428650D01*
X9808230Y-14428650D02*
X9798706Y-14409603D01*
X9798706Y-14409603D02*
X9798706Y-14400079D01*
X9798706Y-14400079D02*
X9808230Y-14381031D01*
X9808230Y-14381031D02*
X9817753Y-14371508D01*
X9817753Y-14371508D02*
X9836801Y-14361984D01*
X9836801Y-14361984D02*
X9874896Y-14361984D01*
X9874896Y-14361984D02*
X9893944Y-14371508D01*
X9893944Y-14371508D02*
X9903468Y-14381031D01*
X9903468Y-14381031D02*
X9912991Y-14400079D01*
X9912991Y-14400079D02*
X9912991Y-14409603D01*
X9912991Y-14409603D02*
X9903468Y-14428650D01*
X9903468Y-14428650D02*
X9893944Y-14438174D01*
X9893944Y-14438174D02*
X9874896Y-14447698D01*
X9874896Y-14447698D02*
X9836801Y-14447698D01*
X9836801Y-14447698D02*
X9817753Y-14457222D01*
X9817753Y-14457222D02*
X9808230Y-14466746D01*
X9808230Y-14466746D02*
X9798706Y-14485793D01*
X9798706Y-14485793D02*
X9798706Y-14523888D01*
X9798706Y-14523888D02*
X9808230Y-14542936D01*
X9808230Y-14542936D02*
X9817753Y-14552460D01*
X9817753Y-14552460D02*
X9836801Y-14561984D01*
X9836801Y-14561984D02*
X9874896Y-14561984D01*
X9874896Y-14561984D02*
X9893944Y-14552460D01*
X9893944Y-14552460D02*
X9903468Y-14542936D01*
X9903468Y-14542936D02*
X9912991Y-14523888D01*
X9912991Y-14523888D02*
X9912991Y-14485793D01*
X9912991Y-14485793D02*
X9903468Y-14466746D01*
X9903468Y-14466746D02*
X9893944Y-14457222D01*
X9893944Y-14457222D02*
X9874896Y-14447698D01*
X10151087Y-14561984D02*
X10151087Y-14361984D01*
X10236801Y-14561984D02*
X10236801Y-14457222D01*
X10236801Y-14457222D02*
X10227277Y-14438174D01*
X10227277Y-14438174D02*
X10208230Y-14428650D01*
X10208230Y-14428650D02*
X10179658Y-14428650D01*
X10179658Y-14428650D02*
X10160611Y-14438174D01*
X10160611Y-14438174D02*
X10151087Y-14447698D01*
X10360611Y-14561984D02*
X10341563Y-14552460D01*
X10341563Y-14552460D02*
X10332039Y-14542936D01*
X10332039Y-14542936D02*
X10322515Y-14523888D01*
X10322515Y-14523888D02*
X10322515Y-14466746D01*
X10322515Y-14466746D02*
X10332039Y-14447698D01*
X10332039Y-14447698D02*
X10341563Y-14438174D01*
X10341563Y-14438174D02*
X10360611Y-14428650D01*
X10360611Y-14428650D02*
X10389182Y-14428650D01*
X10389182Y-14428650D02*
X10408230Y-14438174D01*
X10408230Y-14438174D02*
X10417753Y-14447698D01*
X10417753Y-14447698D02*
X10427277Y-14466746D01*
X10427277Y-14466746D02*
X10427277Y-14523888D01*
X10427277Y-14523888D02*
X10417753Y-14542936D01*
X10417753Y-14542936D02*
X10408230Y-14552460D01*
X10408230Y-14552460D02*
X10389182Y-14561984D01*
X10389182Y-14561984D02*
X10360611Y-14561984D01*
X10541563Y-14561984D02*
X10522515Y-14552460D01*
X10522515Y-14552460D02*
X10512992Y-14533412D01*
X10512992Y-14533412D02*
X10512992Y-14361984D01*
X10693944Y-14552460D02*
X10674896Y-14561984D01*
X10674896Y-14561984D02*
X10636801Y-14561984D01*
X10636801Y-14561984D02*
X10617753Y-14552460D01*
X10617753Y-14552460D02*
X10608230Y-14533412D01*
X10608230Y-14533412D02*
X10608230Y-14457222D01*
X10608230Y-14457222D02*
X10617753Y-14438174D01*
X10617753Y-14438174D02*
X10636801Y-14428650D01*
X10636801Y-14428650D02*
X10674896Y-14428650D01*
X10674896Y-14428650D02*
X10693944Y-14438174D01*
X10693944Y-14438174D02*
X10703468Y-14457222D01*
X10703468Y-14457222D02*
X10703468Y-14476269D01*
X10703468Y-14476269D02*
X10608230Y-14495317D01*
X10779658Y-14552460D02*
X10798706Y-14561984D01*
X10798706Y-14561984D02*
X10836801Y-14561984D01*
X10836801Y-14561984D02*
X10855849Y-14552460D01*
X10855849Y-14552460D02*
X10865373Y-14533412D01*
X10865373Y-14533412D02*
X10865373Y-14523888D01*
X10865373Y-14523888D02*
X10855849Y-14504841D01*
X10855849Y-14504841D02*
X10836801Y-14495317D01*
X10836801Y-14495317D02*
X10808230Y-14495317D01*
X10808230Y-14495317D02*
X10789182Y-14485793D01*
X10789182Y-14485793D02*
X10779658Y-14466746D01*
X10779658Y-14466746D02*
X10779658Y-14457222D01*
X10779658Y-14457222D02*
X10789182Y-14438174D01*
X10789182Y-14438174D02*
X10808230Y-14428650D01*
X10808230Y-14428650D02*
X10836801Y-14428650D01*
X10836801Y-14428650D02*
X10855849Y-14438174D01*
X10932039Y-14638174D02*
X10941563Y-14628650D01*
X10941563Y-14628650D02*
X10960611Y-14600079D01*
X10960611Y-14600079D02*
X10970134Y-14581031D01*
X10970134Y-14581031D02*
X10979658Y-14552460D01*
X10979658Y-14552460D02*
X10989182Y-14504841D01*
X10989182Y-14504841D02*
X10989182Y-14466746D01*
X10989182Y-14466746D02*
X10979658Y-14419127D01*
X10979658Y-14419127D02*
X10970134Y-14390555D01*
X10970134Y-14390555D02*
X10960611Y-14371508D01*
X10960611Y-14371508D02*
X10941563Y-14342936D01*
X10941563Y-14342936D02*
X10932039Y-14333412D01*
D12*
X5951856Y-14769856D02*
X5951856Y-14699144D01*
X5881144Y-14699144D01*
X5881144Y-14769856D01*
X5951856Y-14769856D01*
D11*
X6332039Y-14825984D02*
X6217753Y-14825984D01*
X6274896Y-14825984D02*
X6274896Y-14625984D01*
X6274896Y-14625984D02*
X6255848Y-14654555D01*
X6255848Y-14654555D02*
X6236801Y-14673603D01*
X6236801Y-14673603D02*
X6217753Y-14683127D01*
X6417753Y-14806936D02*
X6427277Y-14816460D01*
X6427277Y-14816460D02*
X6417753Y-14825984D01*
X6417753Y-14825984D02*
X6408229Y-14816460D01*
X6408229Y-14816460D02*
X6417753Y-14806936D01*
X6417753Y-14806936D02*
X6417753Y-14825984D01*
X6551086Y-14625984D02*
X6570134Y-14625984D01*
X6570134Y-14625984D02*
X6589182Y-14635508D01*
X6589182Y-14635508D02*
X6598705Y-14645031D01*
X6598705Y-14645031D02*
X6608229Y-14664079D01*
X6608229Y-14664079D02*
X6617753Y-14702174D01*
X6617753Y-14702174D02*
X6617753Y-14749793D01*
X6617753Y-14749793D02*
X6608229Y-14787888D01*
X6608229Y-14787888D02*
X6598705Y-14806936D01*
X6598705Y-14806936D02*
X6589182Y-14816460D01*
X6589182Y-14816460D02*
X6570134Y-14825984D01*
X6570134Y-14825984D02*
X6551086Y-14825984D01*
X6551086Y-14825984D02*
X6532039Y-14816460D01*
X6532039Y-14816460D02*
X6522515Y-14806936D01*
X6522515Y-14806936D02*
X6512991Y-14787888D01*
X6512991Y-14787888D02*
X6503467Y-14749793D01*
X6503467Y-14749793D02*
X6503467Y-14702174D01*
X6503467Y-14702174D02*
X6512991Y-14664079D01*
X6512991Y-14664079D02*
X6522515Y-14645031D01*
X6522515Y-14645031D02*
X6532039Y-14635508D01*
X6532039Y-14635508D02*
X6551086Y-14625984D01*
X6741562Y-14625984D02*
X6760610Y-14625984D01*
X6760610Y-14625984D02*
X6779658Y-14635508D01*
X6779658Y-14635508D02*
X6789182Y-14645031D01*
X6789182Y-14645031D02*
X6798705Y-14664079D01*
X6798705Y-14664079D02*
X6808229Y-14702174D01*
X6808229Y-14702174D02*
X6808229Y-14749793D01*
X6808229Y-14749793D02*
X6798705Y-14787888D01*
X6798705Y-14787888D02*
X6789182Y-14806936D01*
X6789182Y-14806936D02*
X6779658Y-14816460D01*
X6779658Y-14816460D02*
X6760610Y-14825984D01*
X6760610Y-14825984D02*
X6741562Y-14825984D01*
X6741562Y-14825984D02*
X6722515Y-14816460D01*
X6722515Y-14816460D02*
X6712991Y-14806936D01*
X6712991Y-14806936D02*
X6703467Y-14787888D01*
X6703467Y-14787888D02*
X6693943Y-14749793D01*
X6693943Y-14749793D02*
X6693943Y-14702174D01*
X6693943Y-14702174D02*
X6703467Y-14664079D01*
X6703467Y-14664079D02*
X6712991Y-14645031D01*
X6712991Y-14645031D02*
X6722515Y-14635508D01*
X6722515Y-14635508D02*
X6741562Y-14625984D01*
X6932039Y-14625984D02*
X6951086Y-14625984D01*
X6951086Y-14625984D02*
X6970134Y-14635508D01*
X6970134Y-14635508D02*
X6979658Y-14645031D01*
X6979658Y-14645031D02*
X6989182Y-14664079D01*
X6989182Y-14664079D02*
X6998705Y-14702174D01*
X6998705Y-14702174D02*
X6998705Y-14749793D01*
X6998705Y-14749793D02*
X6989182Y-14787888D01*
X6989182Y-14787888D02*
X6979658Y-14806936D01*
X6979658Y-14806936D02*
X6970134Y-14816460D01*
X6970134Y-14816460D02*
X6951086Y-14825984D01*
X6951086Y-14825984D02*
X6932039Y-14825984D01*
X6932039Y-14825984D02*
X6912991Y-14816460D01*
X6912991Y-14816460D02*
X6903467Y-14806936D01*
X6903467Y-14806936D02*
X6893943Y-14787888D01*
X6893943Y-14787888D02*
X6884420Y-14749793D01*
X6884420Y-14749793D02*
X6884420Y-14702174D01*
X6884420Y-14702174D02*
X6893943Y-14664079D01*
X6893943Y-14664079D02*
X6903467Y-14645031D01*
X6903467Y-14645031D02*
X6912991Y-14635508D01*
X6912991Y-14635508D02*
X6932039Y-14625984D01*
X7084420Y-14825984D02*
X7084420Y-14692650D01*
X7084420Y-14711698D02*
X7093943Y-14702174D01*
X7093943Y-14702174D02*
X7112991Y-14692650D01*
X7112991Y-14692650D02*
X7141563Y-14692650D01*
X7141563Y-14692650D02*
X7160610Y-14702174D01*
X7160610Y-14702174D02*
X7170134Y-14721222D01*
X7170134Y-14721222D02*
X7170134Y-14825984D01*
X7170134Y-14721222D02*
X7179658Y-14702174D01*
X7179658Y-14702174D02*
X7198705Y-14692650D01*
X7198705Y-14692650D02*
X7227277Y-14692650D01*
X7227277Y-14692650D02*
X7246324Y-14702174D01*
X7246324Y-14702174D02*
X7255848Y-14721222D01*
X7255848Y-14721222D02*
X7255848Y-14825984D01*
X7351086Y-14825984D02*
X7351086Y-14692650D01*
X7351086Y-14711698D02*
X7360610Y-14702174D01*
X7360610Y-14702174D02*
X7379658Y-14692650D01*
X7379658Y-14692650D02*
X7408229Y-14692650D01*
X7408229Y-14692650D02*
X7427277Y-14702174D01*
X7427277Y-14702174D02*
X7436801Y-14721222D01*
X7436801Y-14721222D02*
X7436801Y-14825984D01*
X7436801Y-14721222D02*
X7446324Y-14702174D01*
X7446324Y-14702174D02*
X7465372Y-14692650D01*
X7465372Y-14692650D02*
X7493943Y-14692650D01*
X7493943Y-14692650D02*
X7512991Y-14702174D01*
X7512991Y-14702174D02*
X7522515Y-14721222D01*
X7522515Y-14721222D02*
X7522515Y-14825984D01*
X7912991Y-14616460D02*
X7741563Y-14873603D01*
X8170134Y-14625984D02*
X8189182Y-14625984D01*
X8189182Y-14625984D02*
X8208229Y-14635508D01*
X8208229Y-14635508D02*
X8217753Y-14645031D01*
X8217753Y-14645031D02*
X8227277Y-14664079D01*
X8227277Y-14664079D02*
X8236801Y-14702174D01*
X8236801Y-14702174D02*
X8236801Y-14749793D01*
X8236801Y-14749793D02*
X8227277Y-14787888D01*
X8227277Y-14787888D02*
X8217753Y-14806936D01*
X8217753Y-14806936D02*
X8208229Y-14816460D01*
X8208229Y-14816460D02*
X8189182Y-14825984D01*
X8189182Y-14825984D02*
X8170134Y-14825984D01*
X8170134Y-14825984D02*
X8151086Y-14816460D01*
X8151086Y-14816460D02*
X8141563Y-14806936D01*
X8141563Y-14806936D02*
X8132039Y-14787888D01*
X8132039Y-14787888D02*
X8122515Y-14749793D01*
X8122515Y-14749793D02*
X8122515Y-14702174D01*
X8122515Y-14702174D02*
X8132039Y-14664079D01*
X8132039Y-14664079D02*
X8141563Y-14645031D01*
X8141563Y-14645031D02*
X8151086Y-14635508D01*
X8151086Y-14635508D02*
X8170134Y-14625984D01*
X8322515Y-14806936D02*
X8332039Y-14816460D01*
X8332039Y-14816460D02*
X8322515Y-14825984D01*
X8322515Y-14825984D02*
X8312991Y-14816460D01*
X8312991Y-14816460D02*
X8322515Y-14806936D01*
X8322515Y-14806936D02*
X8322515Y-14825984D01*
X8455848Y-14625984D02*
X8474896Y-14625984D01*
X8474896Y-14625984D02*
X8493944Y-14635508D01*
X8493944Y-14635508D02*
X8503468Y-14645031D01*
X8503468Y-14645031D02*
X8512991Y-14664079D01*
X8512991Y-14664079D02*
X8522515Y-14702174D01*
X8522515Y-14702174D02*
X8522515Y-14749793D01*
X8522515Y-14749793D02*
X8512991Y-14787888D01*
X8512991Y-14787888D02*
X8503468Y-14806936D01*
X8503468Y-14806936D02*
X8493944Y-14816460D01*
X8493944Y-14816460D02*
X8474896Y-14825984D01*
X8474896Y-14825984D02*
X8455848Y-14825984D01*
X8455848Y-14825984D02*
X8436801Y-14816460D01*
X8436801Y-14816460D02*
X8427277Y-14806936D01*
X8427277Y-14806936D02*
X8417753Y-14787888D01*
X8417753Y-14787888D02*
X8408229Y-14749793D01*
X8408229Y-14749793D02*
X8408229Y-14702174D01*
X8408229Y-14702174D02*
X8417753Y-14664079D01*
X8417753Y-14664079D02*
X8427277Y-14645031D01*
X8427277Y-14645031D02*
X8436801Y-14635508D01*
X8436801Y-14635508D02*
X8455848Y-14625984D01*
X8589182Y-14625984D02*
X8712991Y-14625984D01*
X8712991Y-14625984D02*
X8646325Y-14702174D01*
X8646325Y-14702174D02*
X8674896Y-14702174D01*
X8674896Y-14702174D02*
X8693944Y-14711698D01*
X8693944Y-14711698D02*
X8703468Y-14721222D01*
X8703468Y-14721222D02*
X8712991Y-14740269D01*
X8712991Y-14740269D02*
X8712991Y-14787888D01*
X8712991Y-14787888D02*
X8703468Y-14806936D01*
X8703468Y-14806936D02*
X8693944Y-14816460D01*
X8693944Y-14816460D02*
X8674896Y-14825984D01*
X8674896Y-14825984D02*
X8617753Y-14825984D01*
X8617753Y-14825984D02*
X8598706Y-14816460D01*
X8598706Y-14816460D02*
X8589182Y-14806936D01*
X8808229Y-14825984D02*
X8846325Y-14825984D01*
X8846325Y-14825984D02*
X8865372Y-14816460D01*
X8865372Y-14816460D02*
X8874896Y-14806936D01*
X8874896Y-14806936D02*
X8893944Y-14778365D01*
X8893944Y-14778365D02*
X8903468Y-14740269D01*
X8903468Y-14740269D02*
X8903468Y-14664079D01*
X8903468Y-14664079D02*
X8893944Y-14645031D01*
X8893944Y-14645031D02*
X8884420Y-14635508D01*
X8884420Y-14635508D02*
X8865372Y-14625984D01*
X8865372Y-14625984D02*
X8827277Y-14625984D01*
X8827277Y-14625984D02*
X8808229Y-14635508D01*
X8808229Y-14635508D02*
X8798706Y-14645031D01*
X8798706Y-14645031D02*
X8789182Y-14664079D01*
X8789182Y-14664079D02*
X8789182Y-14711698D01*
X8789182Y-14711698D02*
X8798706Y-14730746D01*
X8798706Y-14730746D02*
X8808229Y-14740269D01*
X8808229Y-14740269D02*
X8827277Y-14749793D01*
X8827277Y-14749793D02*
X8865372Y-14749793D01*
X8865372Y-14749793D02*
X8884420Y-14740269D01*
X8884420Y-14740269D02*
X8893944Y-14730746D01*
X8893944Y-14730746D02*
X8903468Y-14711698D01*
X9074896Y-14692650D02*
X9074896Y-14825984D01*
X9027277Y-14616460D02*
X8979658Y-14759317D01*
X8979658Y-14759317D02*
X9103468Y-14759317D01*
X9170134Y-14625984D02*
X9170134Y-14664079D01*
X9246325Y-14625984D02*
X9246325Y-14664079D01*
X9541563Y-14902174D02*
X9532039Y-14892650D01*
X9532039Y-14892650D02*
X9512991Y-14864079D01*
X9512991Y-14864079D02*
X9503468Y-14845031D01*
X9503468Y-14845031D02*
X9493944Y-14816460D01*
X9493944Y-14816460D02*
X9484420Y-14768841D01*
X9484420Y-14768841D02*
X9484420Y-14730746D01*
X9484420Y-14730746D02*
X9493944Y-14683127D01*
X9493944Y-14683127D02*
X9503468Y-14654555D01*
X9503468Y-14654555D02*
X9512991Y-14635508D01*
X9512991Y-14635508D02*
X9532039Y-14606936D01*
X9532039Y-14606936D02*
X9541563Y-14597412D01*
X9608230Y-14645031D02*
X9617753Y-14635508D01*
X9617753Y-14635508D02*
X9636801Y-14625984D01*
X9636801Y-14625984D02*
X9684420Y-14625984D01*
X9684420Y-14625984D02*
X9703468Y-14635508D01*
X9703468Y-14635508D02*
X9712991Y-14645031D01*
X9712991Y-14645031D02*
X9722515Y-14664079D01*
X9722515Y-14664079D02*
X9722515Y-14683127D01*
X9722515Y-14683127D02*
X9712991Y-14711698D01*
X9712991Y-14711698D02*
X9598706Y-14825984D01*
X9598706Y-14825984D02*
X9722515Y-14825984D01*
X9960611Y-14825984D02*
X9960611Y-14625984D01*
X10046325Y-14825984D02*
X10046325Y-14721222D01*
X10046325Y-14721222D02*
X10036801Y-14702174D01*
X10036801Y-14702174D02*
X10017753Y-14692650D01*
X10017753Y-14692650D02*
X9989182Y-14692650D01*
X9989182Y-14692650D02*
X9970134Y-14702174D01*
X9970134Y-14702174D02*
X9960611Y-14711698D01*
X10170134Y-14825984D02*
X10151087Y-14816460D01*
X10151087Y-14816460D02*
X10141563Y-14806936D01*
X10141563Y-14806936D02*
X10132039Y-14787888D01*
X10132039Y-14787888D02*
X10132039Y-14730746D01*
X10132039Y-14730746D02*
X10141563Y-14711698D01*
X10141563Y-14711698D02*
X10151087Y-14702174D01*
X10151087Y-14702174D02*
X10170134Y-14692650D01*
X10170134Y-14692650D02*
X10198706Y-14692650D01*
X10198706Y-14692650D02*
X10217753Y-14702174D01*
X10217753Y-14702174D02*
X10227277Y-14711698D01*
X10227277Y-14711698D02*
X10236801Y-14730746D01*
X10236801Y-14730746D02*
X10236801Y-14787888D01*
X10236801Y-14787888D02*
X10227277Y-14806936D01*
X10227277Y-14806936D02*
X10217753Y-14816460D01*
X10217753Y-14816460D02*
X10198706Y-14825984D01*
X10198706Y-14825984D02*
X10170134Y-14825984D01*
X10351087Y-14825984D02*
X10332039Y-14816460D01*
X10332039Y-14816460D02*
X10322515Y-14797412D01*
X10322515Y-14797412D02*
X10322515Y-14625984D01*
X10503468Y-14816460D02*
X10484420Y-14825984D01*
X10484420Y-14825984D02*
X10446325Y-14825984D01*
X10446325Y-14825984D02*
X10427277Y-14816460D01*
X10427277Y-14816460D02*
X10417753Y-14797412D01*
X10417753Y-14797412D02*
X10417753Y-14721222D01*
X10417753Y-14721222D02*
X10427277Y-14702174D01*
X10427277Y-14702174D02*
X10446325Y-14692650D01*
X10446325Y-14692650D02*
X10484420Y-14692650D01*
X10484420Y-14692650D02*
X10503468Y-14702174D01*
X10503468Y-14702174D02*
X10512992Y-14721222D01*
X10512992Y-14721222D02*
X10512992Y-14740269D01*
X10512992Y-14740269D02*
X10417753Y-14759317D01*
X10589182Y-14816460D02*
X10608230Y-14825984D01*
X10608230Y-14825984D02*
X10646325Y-14825984D01*
X10646325Y-14825984D02*
X10665373Y-14816460D01*
X10665373Y-14816460D02*
X10674896Y-14797412D01*
X10674896Y-14797412D02*
X10674896Y-14787888D01*
X10674896Y-14787888D02*
X10665373Y-14768841D01*
X10665373Y-14768841D02*
X10646325Y-14759317D01*
X10646325Y-14759317D02*
X10617753Y-14759317D01*
X10617753Y-14759317D02*
X10598706Y-14749793D01*
X10598706Y-14749793D02*
X10589182Y-14730746D01*
X10589182Y-14730746D02*
X10589182Y-14721222D01*
X10589182Y-14721222D02*
X10598706Y-14702174D01*
X10598706Y-14702174D02*
X10617753Y-14692650D01*
X10617753Y-14692650D02*
X10646325Y-14692650D01*
X10646325Y-14692650D02*
X10665373Y-14702174D01*
X10741563Y-14902174D02*
X10751087Y-14892650D01*
X10751087Y-14892650D02*
X10770134Y-14864079D01*
X10770134Y-14864079D02*
X10779658Y-14845031D01*
X10779658Y-14845031D02*
X10789182Y-14816460D01*
X10789182Y-14816460D02*
X10798706Y-14768841D01*
X10798706Y-14768841D02*
X10798706Y-14730746D01*
X10798706Y-14730746D02*
X10789182Y-14683127D01*
X10789182Y-14683127D02*
X10779658Y-14654555D01*
X10779658Y-14654555D02*
X10770134Y-14635508D01*
X10770134Y-14635508D02*
X10751087Y-14606936D01*
X10751087Y-14606936D02*
X10741563Y-14597412D01*
M02*
