%TF.GenerationSoftware,KiCad,Pcbnew,10.0.0*%
%TF.CreationDate,2026-04-09T18:33:15-07:00*%
%TF.ProjectId,aircon-hat,61697263-6f6e-42d6-9861-742e6b696361,rev?*%
%TF.SameCoordinates,Original*%
%TF.FileFunction,Copper,L2,Bot*%
%TF.FilePolarity,Positive*%
%FSLAX46Y46*%
G04 Gerber Fmt 4.6, Leading zero omitted, Abs format (unit mm)*
G04 Created by KiCad (PCBNEW 10.0.0) date 2026-04-09 18:33:15*
%MOMM*%
%LPD*%
G01*
G04 APERTURE LIST*
G04 Aperture macros list*
%AMRoundRect*
0 Rectangle with rounded corners*
0 $1 Rounding radius*
0 $2 $3 $4 $5 $6 $7 $8 $9 X,Y pos of 4 corners*
0 Add a 4 corners polygon primitive as box body*
4,1,4,$2,$3,$4,$5,$6,$7,$8,$9,$2,$3,0*
0 Add four circle primitives for the rounded corners*
1,1,$1+$1,$2,$3*
1,1,$1+$1,$4,$5*
1,1,$1+$1,$6,$7*
1,1,$1+$1,$8,$9*
0 Add four rect primitives between the rounded corners*
20,1,$1+$1,$2,$3,$4,$5,0*
20,1,$1+$1,$4,$5,$6,$7,0*
20,1,$1+$1,$6,$7,$8,$9,0*
20,1,$1+$1,$8,$9,$2,$3,0*%
G04 Aperture macros list end*
%TA.AperFunction,ComponentPad*%
%ADD10R,2.540000X2.540000*%
%TD*%
%TA.AperFunction,ComponentPad*%
%ADD11R,1.270000X2.540000*%
%TD*%
%TA.AperFunction,ComponentPad*%
%ADD12C,1.400000*%
%TD*%
%TA.AperFunction,ComponentPad*%
%ADD13RoundRect,0.250000X0.750000X-0.600000X0.750000X0.600000X-0.750000X0.600000X-0.750000X-0.600000X0*%
%TD*%
%TA.AperFunction,ComponentPad*%
%ADD14O,2.000000X1.700000*%
%TD*%
%TA.AperFunction,ComponentPad*%
%ADD15RoundRect,0.250000X-0.600000X-0.725000X0.600000X-0.725000X0.600000X0.725000X-0.600000X0.725000X0*%
%TD*%
%TA.AperFunction,ComponentPad*%
%ADD16O,1.700000X1.950000*%
%TD*%
%TA.AperFunction,ComponentPad*%
%ADD17RoundRect,0.250000X0.550000X-0.550000X0.550000X0.550000X-0.550000X0.550000X-0.550000X-0.550000X0*%
%TD*%
%TA.AperFunction,ComponentPad*%
%ADD18C,1.600000*%
%TD*%
%TA.AperFunction,Conductor*%
%ADD19C,0.200000*%
%TD*%
%TA.AperFunction,Conductor*%
%ADD20C,0.600000*%
%TD*%
G04 APERTURE END LIST*
D10*
%TO.P,RP2350-Relay-6CH-W1,1,+5V_1*%
%TO.N,+5V*%
X62870000Y-129890000D03*
D11*
%TO.P,RP2350-Relay-6CH-W1,2,VSYS_2*%
%TO.N,unconnected-(RP2350-Relay-6CH-W1-VSYS-Pad2)*%
X65410000Y-129890000D03*
%TO.P,RP2350-Relay-6CH-W1,3,GND_3*%
%TO.N,GND*%
X67950000Y-129890000D03*
%TO.P,RP2350-Relay-6CH-W1,4,3V3_4*%
%TO.N,+3.3V*%
X70490000Y-129890000D03*
%TO.P,RP2350-Relay-6CH-W1,5,3V3_5*%
X73030000Y-129890000D03*
%TO.P,RP2350-Relay-6CH-W1,6,AV_6*%
%TO.N,unconnected-(RP2350-Relay-6CH-W1-AV-Pad6)*%
X75570000Y-129890000D03*
%TO.P,RP2350-Relay-6CH-W1,7,IO42_7*%
%TO.N,unconnected-(RP2350-Relay-6CH-W1-IO42-Pad7)*%
X78110000Y-129890000D03*
%TO.P,RP2350-Relay-6CH-W1,8,GND_8*%
%TO.N,GND*%
X80650000Y-129890000D03*
%TO.P,RP2350-Relay-6CH-W1,9,IO41_9*%
%TO.N,unconnected-(RP2350-Relay-6CH-W1-IO41-Pad9)*%
X83190000Y-129890000D03*
%TO.P,RP2350-Relay-6CH-W1,10,IO40_10*%
%TO.N,unconnected-(RP2350-Relay-6CH-W1-IO40-Pad10)*%
X85730000Y-129890000D03*
%TO.P,RP2350-Relay-6CH-W1,11,RUN_11*%
%TO.N,unconnected-(RP2350-Relay-6CH-W1-RUN-Pad11)*%
X88270000Y-129890000D03*
%TO.P,RP2350-Relay-6CH-W1,12,IO22_12*%
%TO.N,unconnected-(RP2350-Relay-6CH-W1-IO22-Pad12)*%
X90810000Y-129890000D03*
%TO.P,RP2350-Relay-6CH-W1,13,GND_13*%
%TO.N,GND*%
X93350000Y-129890000D03*
%TO.P,RP2350-Relay-6CH-W1,14,IO21_14*%
%TO.N,unconnected-(RP2350-Relay-6CH-W1-IO21-Pad14)*%
X95890000Y-129890000D03*
%TO.P,RP2350-Relay-6CH-W1,15,IO20_15*%
%TO.N,unconnected-(RP2350-Relay-6CH-W1-IO20-Pad15)*%
X98430000Y-129890000D03*
%TO.P,RP2350-Relay-6CH-W1,16,IO19_16*%
%TO.N,unconnected-(RP2350-Relay-6CH-W1-IO19-Pad16)*%
X100970000Y-129890000D03*
%TO.P,RP2350-Relay-6CH-W1,17,IO18_17*%
%TO.N,unconnected-(RP2350-Relay-6CH-W1-IO18-Pad17)*%
X103510000Y-129890000D03*
%TO.P,RP2350-Relay-6CH-W1,18,GND_18*%
%TO.N,GND*%
X106050000Y-129890000D03*
%TO.P,RP2350-Relay-6CH-W1,19,IO17_19*%
%TO.N,unconnected-(RP2350-Relay-6CH-W1-IO17-Pad19)*%
X108590000Y-129890000D03*
%TO.P,RP2350-Relay-6CH-W1,20,IO16_20*%
%TO.N,unconnected-(RP2350-Relay-6CH-W1-IO16-Pad20)*%
X111130000Y-129890000D03*
%TO.P,RP2350-Relay-6CH-W1,21,IO15_21*%
%TO.N,unconnected-(RP2350-Relay-6CH-W1-IO15-Pad21)*%
X111130000Y-112110000D03*
%TO.P,RP2350-Relay-6CH-W1,22,IO14_22*%
%TO.N,unconnected-(RP2350-Relay-6CH-W1-IO14-Pad22)*%
X108590000Y-112110000D03*
%TO.P,RP2350-Relay-6CH-W1,23,GND_23*%
%TO.N,GND*%
X106050000Y-112110000D03*
%TO.P,RP2350-Relay-6CH-W1,24,IO13_24*%
%TO.N,unconnected-(RP2350-Relay-6CH-W1-IO13-Pad24)*%
X103510000Y-112110000D03*
%TO.P,RP2350-Relay-6CH-W1,25,IO12_25*%
%TO.N,unconnected-(RP2350-Relay-6CH-W1-IO12-Pad25)*%
X100970000Y-112110000D03*
%TO.P,RP2350-Relay-6CH-W1,26,IO10_26*%
%TO.N,unconnected-(RP2350-Relay-6CH-W1-IO10-Pad26)*%
X98430000Y-112110000D03*
%TO.P,RP2350-Relay-6CH-W1,27,IO16_27*%
%TO.N,unconnected-(RP2350-Relay-6CH-W1-IO16-Pad27)*%
X95890000Y-112110000D03*
%TO.P,RP2350-Relay-6CH-W1,28,GND_28*%
%TO.N,GND*%
X93350000Y-112110000D03*
%TO.P,RP2350-Relay-6CH-W1,29,IO9_29*%
%TO.N,unconnected-(RP2350-Relay-6CH-W1-IO9-Pad29)*%
X90810000Y-112110000D03*
%TO.P,RP2350-Relay-6CH-W1,30,IO8_30*%
%TO.N,Net-(J2-Pin_2)*%
X88270000Y-112110000D03*
%TO.P,RP2350-Relay-6CH-W1,31,IO7_31*%
%TO.N,Net-(J3-Pin_2)*%
X85730000Y-112110000D03*
%TO.P,RP2350-Relay-6CH-W1,32,IO6_32*%
%TO.N,Net-(J4-Pin_2)*%
X83190000Y-112110000D03*
%TO.P,RP2350-Relay-6CH-W1,33,GND_33*%
%TO.N,GND*%
X80650000Y-112110000D03*
%TO.P,RP2350-Relay-6CH-W1,34,IO5_34*%
%TO.N,Net-(J5-Pin_2)*%
X78110000Y-112110000D03*
%TO.P,RP2350-Relay-6CH-W1,35,IO4_35*%
%TO.N,Net-(J6-Pin_2)*%
X75570000Y-112110000D03*
%TO.P,RP2350-Relay-6CH-W1,36,IO3_36*%
%TO.N,Net-(J7-Pin_2)*%
X73030000Y-112110000D03*
%TO.P,RP2350-Relay-6CH-W1,37,IO2_37*%
%TO.N,Net-(RP2350-Relay-6CH-W1-IO2)*%
X70490000Y-112110000D03*
%TO.P,RP2350-Relay-6CH-W1,38,GND_38*%
%TO.N,GND*%
X67950000Y-112110000D03*
%TO.P,RP2350-Relay-6CH-W1,39,RXD_39*%
%TO.N,unconnected-(RP2350-Relay-6CH-W1-RXD-Pad39)*%
X65410000Y-112110000D03*
%TO.P,RP2350-Relay-6CH-W1,40,TXD_40*%
%TO.N,unconnected-(RP2350-Relay-6CH-W1-TXD-Pad40)*%
X62870000Y-112110000D03*
%TD*%
D12*
%TO.P,R8,1*%
%TO.N,Net-(J7-Pin_2)*%
X63500000Y-120650000D03*
%TO.P,R8,2*%
%TO.N,+5V*%
X63500000Y-123190000D03*
%TD*%
%TO.P,R1,1*%
%TO.N,+3.3V*%
X68580000Y-96000000D03*
%TO.P,R1,2*%
%TO.N,Net-(RP2350-Relay-6CH-W1-IO2)*%
X71120000Y-96000000D03*
%TD*%
D13*
%TO.P,J1,1,Pin_1_1*%
%TO.N,Net-(J1-Pin_1)*%
X64770000Y-104100000D03*
D14*
%TO.P,J1,2,Pin_2_2*%
%TO.N,Net-(J1-Pin_2)*%
X64770000Y-101600000D03*
%TD*%
D15*
%TO.P,J2,1,Pin_1_1*%
%TO.N,GND*%
X105410000Y-97790000D03*
D16*
%TO.P,J2,2,Pin_2_2*%
%TO.N,Net-(J2-Pin_2)*%
X107910000Y-97790000D03*
%TO.P,J2,3,Pin_3_3*%
%TO.N,+5V*%
X110410000Y-97790000D03*
%TD*%
D15*
%TO.P,J3,1,Pin_1_1*%
%TO.N,GND*%
X94020000Y-97790000D03*
D16*
%TO.P,J3,2,Pin_2_2*%
%TO.N,Net-(J3-Pin_2)*%
X96520000Y-97790000D03*
%TO.P,J3,3,Pin_3_3*%
%TO.N,+5V*%
X99020000Y-97790000D03*
%TD*%
D17*
%TO.P,U1,1*%
%TO.N,Net-(J1-Pin_1)*%
X73000000Y-107950000D03*
D18*
%TO.P,U1,2*%
%TO.N,Net-(J1-Pin_2)*%
X75540000Y-107950000D03*
%TO.P,U1,3,NC_3*%
%TO.N,unconnected-(U1-NC-Pad3)*%
X78080000Y-107950000D03*
%TO.P,U1,4*%
%TO.N,GND*%
X78080000Y-100330000D03*
%TO.P,U1,5*%
%TO.N,Net-(RP2350-Relay-6CH-W1-IO2)*%
X75540000Y-100330000D03*
%TO.P,U1,6*%
%TO.N,Net-(R2-Pad1)*%
X73000000Y-100330000D03*
%TD*%
D12*
%TO.P,R2,1*%
%TO.N,Net-(R2-Pad1)*%
X73660000Y-96000000D03*
%TO.P,R2,2*%
%TO.N,GND*%
X76200000Y-96000000D03*
%TD*%
D15*
%TO.P,J7,1,Pin_1_1*%
%TO.N,GND*%
X73740000Y-120650000D03*
D16*
%TO.P,J7,2,Pin_2_2*%
%TO.N,Net-(J7-Pin_2)*%
X76240000Y-120650000D03*
%TO.P,J7,3,Pin_3_3*%
%TO.N,+5V*%
X78740000Y-120650000D03*
%TD*%
D15*
%TO.P,J4,1,Pin_1_1*%
%TO.N,GND*%
X82590000Y-97790000D03*
D16*
%TO.P,J4,2,Pin_2_2*%
%TO.N,Net-(J4-Pin_2)*%
X85090000Y-97790000D03*
%TO.P,J4,3,Pin_3_3*%
%TO.N,+5V*%
X87590000Y-97790000D03*
%TD*%
D12*
%TO.P,R3,1*%
%TO.N,Net-(J2-Pin_2)*%
X107950000Y-106680000D03*
%TO.P,R3,2*%
%TO.N,+5V*%
X110490000Y-106680000D03*
%TD*%
%TO.P,R7,1*%
%TO.N,Net-(J6-Pin_2)*%
X66040000Y-120650000D03*
%TO.P,R7,2*%
%TO.N,+5V*%
X66040000Y-123190000D03*
%TD*%
D15*
%TO.P,J6,1,Pin_1_1*%
%TO.N,GND*%
X88940000Y-120650000D03*
D16*
%TO.P,J6,2,Pin_2_2*%
%TO.N,Net-(J6-Pin_2)*%
X91440000Y-120650000D03*
%TO.P,J6,3,Pin_3_3*%
%TO.N,+5V*%
X93940000Y-120650000D03*
%TD*%
D15*
%TO.P,J5,1,Pin_1_1*%
%TO.N,GND*%
X104220000Y-120650000D03*
D16*
%TO.P,J5,2,Pin_2_2*%
%TO.N,Net-(J5-Pin_2)*%
X106720000Y-120650000D03*
%TO.P,J5,3,Pin_3_3*%
%TO.N,+5V*%
X109220000Y-120650000D03*
%TD*%
D12*
%TO.P,R5,1*%
%TO.N,Net-(J4-Pin_2)*%
X82550000Y-106680000D03*
%TO.P,R5,2*%
%TO.N,+5V*%
X85090000Y-106680000D03*
%TD*%
%TO.P,R4,1*%
%TO.N,Net-(J3-Pin_2)*%
X96520000Y-106680000D03*
%TO.P,R4,2*%
%TO.N,+5V*%
X99060000Y-106680000D03*
%TD*%
%TO.P,R6,1*%
%TO.N,Net-(J5-Pin_2)*%
X68580000Y-120650000D03*
%TO.P,R6,2*%
%TO.N,+5V*%
X68580000Y-123190000D03*
%TD*%
%TO.N,Net-(RP2350-Relay-6CH-W1-IO2)*%
D19*
X71120000Y-101270000D02*
X72390000Y-102540000D01*
X75540000Y-100330000D02*
X70490000Y-105380000D01*
X73330000Y-102540000D02*
X75540000Y-100330000D01*
X72390000Y-102540000D02*
X73330000Y-102540000D01*
X70490000Y-105380000D02*
X70490000Y-112110000D01*
X71120000Y-96000000D02*
X71120000Y-101270000D01*
%TO.N,Net-(R2-Pad1)*%
X73660000Y-96000000D02*
X73000000Y-96660000D01*
X73000000Y-96660000D02*
X73000000Y-100330000D01*
%TO.N,+5V*%
D20*
X69850000Y-123190000D02*
X67310000Y-123190000D01*
X109140000Y-120650000D02*
X109220000Y-120650000D01*
X99060000Y-97750000D02*
X99020000Y-97790000D01*
X99020000Y-97790000D02*
X99020000Y-106640000D01*
X99020000Y-106640000D02*
X99060000Y-106680000D01*
X72390000Y-123190000D02*
X69850000Y-123190000D01*
X110410000Y-97790000D02*
X107870000Y-95250000D01*
X93980000Y-123190000D02*
X93940000Y-123150000D01*
X109220000Y-120650000D02*
X113030000Y-116840000D01*
X112950000Y-100330000D02*
X110410000Y-97790000D01*
X93980000Y-123190000D02*
X94460000Y-123190000D01*
X90130000Y-95250000D02*
X87590000Y-97790000D01*
X68580000Y-123190000D02*
X63500000Y-123190000D01*
X109220000Y-123190000D02*
X109220000Y-120650000D01*
X99060000Y-95250000D02*
X99060000Y-97750000D01*
D19*
X63500000Y-129260000D02*
X62870000Y-129890000D01*
D20*
X63500000Y-123190000D02*
X63500000Y-129260000D01*
X97790000Y-123190000D02*
X100330000Y-123190000D01*
X78740000Y-123190000D02*
X93980000Y-123190000D01*
X74930000Y-123190000D02*
X72390000Y-123190000D01*
X113030000Y-106680000D02*
X113030000Y-100330000D01*
X87590000Y-97790000D02*
X87590000Y-104180000D01*
X93940000Y-123150000D02*
X93940000Y-120650000D01*
X78740000Y-123190000D02*
X78740000Y-120650000D01*
X87590000Y-104180000D02*
X85090000Y-106680000D01*
X107870000Y-95250000D02*
X99060000Y-95250000D01*
X100330000Y-123190000D02*
X109220000Y-123190000D01*
X113030000Y-106680000D02*
X110490000Y-106680000D01*
X113030000Y-116840000D02*
X113030000Y-106680000D01*
X99060000Y-95250000D02*
X90130000Y-95250000D01*
X113030000Y-100330000D02*
X112950000Y-100330000D01*
X94460000Y-123190000D02*
X97790000Y-123190000D01*
X78740000Y-123190000D02*
X74930000Y-123190000D01*
%TO.N,Net-(J5-Pin_2)*%
D19*
X68580000Y-120650000D02*
X69570000Y-120650000D01*
X69570000Y-120650000D02*
X78110000Y-112110000D01*
%TO.N,Net-(J6-Pin_2)*%
X66040000Y-119380000D02*
X66040000Y-120650000D01*
X75570000Y-112110000D02*
X69570000Y-118110000D01*
X67310000Y-118110000D02*
X66040000Y-119380000D01*
X69570000Y-118110000D02*
X67310000Y-118110000D01*
%TO.N,Net-(J7-Pin_2)*%
X66040000Y-116840000D02*
X63500000Y-119380000D01*
X63500000Y-119380000D02*
X63500000Y-120650000D01*
X73030000Y-113025000D02*
X69215000Y-116840000D01*
X69215000Y-116840000D02*
X66040000Y-116840000D01*
X73030000Y-112110000D02*
X73030000Y-113025000D01*
%TD*%
M02*
